<svg width="316" height="412" viewBox="0 0 316 412" fill="none" xmlns="http://www.w3.org/2000/svg">
<g clip-path="url(#clip0_1130_24465)">
<rect width="316.198" height="479.859" fill="#D9D9D9"/>
<g filter="url(#filter0_d_1130_24465)">
<rect x="57.2734" y="57.2734" width="198.817" height="128.375" rx="0.658333" fill="#E3E3E3"/>
</g>
<g filter="url(#filter1_d_1130_24465)">
<rect x="48.0586" y="71.7578" width="217.25" height="239.633" rx="1.975" fill="#EEEEEE"/>
</g>
<g filter="url(#filter2_d_1130_24465)">
<g clip-path="url(#clip1_1130_24465)">
<rect x="36.8672" y="89.5312" width="239.633" height="271.892" rx="5.26667" fill="white"/>
<g clip-path="url(#clip2_1130_24465)">
<path d="M143.781 354.105L283.34 316.344" stroke="#1B294B" stroke-width="0.437885" stroke-miterlimit="10"/>
<path d="M152.719 355.304L283.151 320.027" stroke="#1B294B" stroke-width="0.437885" stroke-miterlimit="10"/>
<path d="M161.656 356.53L283.151 323.68" stroke="#1B294B" stroke-width="0.437885" stroke-miterlimit="10"/>
<path d="M170.566 357.761L283.151 327.336" stroke="#1B294B" stroke-width="0.437885" stroke-miterlimit="10"/>
<path d="M179.5 358.985L283.147 330.957" stroke="#1B294B" stroke-width="0.437885" stroke-miterlimit="10"/>
<path d="M188.418 360.179L283.155 334.605" stroke="#1B294B" stroke-width="0.437885" stroke-miterlimit="10"/>
<path d="M197.352 361.411L283.151 338.234" stroke="#1B294B" stroke-width="0.437885" stroke-miterlimit="10"/>
<path d="M206.293 362.638L283.155 341.887" stroke="#1B294B" stroke-width="0.437885" stroke-miterlimit="10"/>
<path d="M215.195 363.868L283.147 345.543" stroke="#1B294B" stroke-width="0.437885" stroke-miterlimit="10"/>
<path d="M224.141 365.067L283.155 349.168" stroke="#1B294B" stroke-width="0.437885" stroke-miterlimit="10"/>
<path d="M233.043 366.294L283.147 352.82" stroke="#1B294B" stroke-width="0.437885" stroke-miterlimit="10"/>
<path d="M241.984 367.522L283.151 356.445" stroke="#1B294B" stroke-width="0.437885" stroke-miterlimit="10"/>
<path d="M250.918 368.716L283.147 360.094" stroke="#1B294B" stroke-width="0.437885" stroke-miterlimit="10"/>
<path d="M92.8639 347.145H92.5117V374.092H92.8639V347.145Z" stroke="#1B294B" stroke-width="0.437885" stroke-miterlimit="10"/>
<path d="M107.411 349.215H107.059V374.087H107.411V349.215Z" stroke="#1B294B" stroke-width="0.437885" stroke-miterlimit="10"/>
<path d="M121.977 351.293H121.625V374.061H121.977V351.293Z" stroke="#1B294B" stroke-width="0.437885" stroke-miterlimit="10"/>
<path d="M136.524 353.398H136.172V374.091H136.524V353.398Z" stroke="#1B294B" stroke-width="0.437885" stroke-miterlimit="10"/>
<path d="M151.063 355.477H150.711V374.094H151.063V355.477Z" stroke="#1B294B" stroke-width="0.437885" stroke-miterlimit="10"/>
<path d="M165.633 357.109H165.281V374.09H165.633V357.109Z" stroke="#1B294B" stroke-width="0.437885" stroke-miterlimit="10"/>
<path d="M180.18 359.066H179.828V374.06H180.18V359.066Z" stroke="#1B294B" stroke-width="0.437885" stroke-miterlimit="10"/>
<path d="M194.723 361.258H194.371V374.088H194.723V361.258Z" stroke="#1B294B" stroke-width="0.437885" stroke-miterlimit="10"/>
<path d="M74.3945 374.091V344.484L258.342 369.736" stroke="#1B294B" stroke-width="0.437885" stroke-miterlimit="10"/>
<path d="M204.605 362.312V236.199" stroke="#1B294B" stroke-width="0.437885" stroke-miterlimit="10"/>
<path d="M110.844 349.714V326.625" stroke="#1B294B" stroke-width="0.437885" stroke-miterlimit="10"/>
<path d="M128.664 351.908V307.074" stroke="#1B294B" stroke-width="0.437885" stroke-miterlimit="10"/>
<path d="M146.488 354.331V319.055" stroke="#1B294B" stroke-width="0.437885" stroke-miterlimit="10"/>
<path d="M168.422 357.398V294.707" stroke="#1B294B" stroke-width="0.437885" stroke-miterlimit="10"/>
<path d="M186.754 359.828V257.914" stroke="#1B294B" stroke-width="0.437885" stroke-miterlimit="10"/>
<path d="M112.5 309.379H109.141V313.003H112.5V309.379Z" stroke="#1B294B" stroke-width="0.437885" stroke-miterlimit="10"/>
<path d="M170.101 287.547H166.742V291.171H170.101V287.547Z" fill="#1B294B"/>
<path d="M206.289 228.219H202.93V231.843H206.289V228.219Z" stroke="#1B294B" stroke-width="0.437885" stroke-miterlimit="10"/>
<path d="M97.5469 330.952L128.665 338.171L146.405 326.481L186.271 334.226L226.842 256.688" stroke="#282F4F" stroke-width="0.608174" stroke-miterlimit="10"/>
<path d="M228.656 254.608C229.613 254.608 230.389 253.771 230.389 252.738C230.389 251.705 229.613 250.867 228.656 250.867C227.698 250.867 226.922 251.705 226.922 252.738C226.922 253.771 227.698 254.608 228.656 254.608Z" fill="#1B294B"/>
</g>
<path d="M58.8827 226.989C58.8827 228.193 57.9938 229.271 56.6573 229.271C55.3209 229.271 54.4446 228.206 54.4446 227.001V226.989C54.4446 225.785 55.3335 224.707 56.6699 224.707C58.0064 224.707 58.8827 225.772 58.8827 226.976C58.889 226.983 58.889 226.983 58.8827 226.989ZM58.5423 227.001V226.989C58.5423 225.898 57.7479 225.003 56.6573 225.003C55.5667 225.003 54.785 225.886 54.785 226.976V226.989C54.785 228.079 55.5793 228.975 56.6699 228.975C57.7606 228.975 58.5423 228.092 58.5423 227.001ZM63.1229 227.588C63.1229 228.634 62.3349 229.271 61.5595 229.271C60.9165 229.271 60.5004 228.905 60.2356 228.502V229.195H59.9267V224.593H60.2356V226.699C60.513 226.276 60.9228 225.905 61.5595 225.905C62.3349 225.905 63.1229 226.529 63.1229 227.575V227.588ZM62.7888 227.6V227.588C62.7888 226.743 62.2025 226.201 61.528 226.201C60.8597 226.201 60.2167 226.762 60.2167 227.581V227.594C60.2167 228.42 60.8597 228.975 61.528 228.975C62.2277 228.975 62.7888 228.464 62.7888 227.6ZM66.2381 228.319C66.2381 228.893 65.7464 229.258 65.1286 229.258C64.6621 229.258 64.1515 229.069 63.811 228.792L63.9939 228.546C64.3469 228.817 64.7378 228.968 65.1475 228.968C65.5825 228.968 65.9229 228.729 65.9229 228.357V228.344C65.9229 227.966 65.5195 227.827 65.0719 227.701C64.5486 227.55 63.9686 227.392 63.9686 226.819V226.806C63.9686 226.289 64.4036 225.917 65.0277 225.917C65.4123 225.917 65.8473 226.056 66.1688 226.27L66.0049 226.529C65.7086 226.333 65.3556 226.207 65.0151 226.207C64.5738 226.207 64.2839 226.447 64.2839 226.768V226.781C64.2839 227.14 64.7188 227.273 65.179 227.405C65.696 227.55 66.2381 227.739 66.2381 228.306V228.319ZM67.3292 227.714C67.3859 228.514 67.9596 228.981 68.59 228.981C69.088 228.981 69.4285 228.76 69.6932 228.477L69.9076 228.666C69.5798 229.019 69.1952 229.271 68.5774 229.271C67.7327 229.271 67.0014 228.596 67.0014 227.594V227.581C67.0014 226.648 67.657 225.905 68.527 225.905C69.4285 225.905 70.0021 226.636 70.0021 227.588V227.6C70.0021 227.644 70.0021 227.663 69.9958 227.714H67.3292ZM67.3292 227.436H69.668C69.6239 226.787 69.252 226.188 68.5144 226.188C67.8777 226.188 67.3859 226.724 67.3292 227.436ZM72.6372 226.27H72.6057C71.8618 226.27 71.2124 226.831 71.2124 227.878V229.195H70.9035V225.98H71.2124V226.894C71.4646 226.321 72.0005 225.905 72.6372 225.93V226.27ZM76.2519 225.98L74.8083 229.221H74.5435L73.0998 225.98H73.4592L74.6759 228.849L75.9052 225.98H76.2519ZM77.4877 225.142H77.1032V224.719H77.4877V225.142ZM77.4499 229.195H77.141V225.98H77.4499V229.195ZM81.4216 229.195H81.1127V227.285C81.1127 226.623 80.7408 226.188 80.0915 226.188C79.4611 226.188 78.9756 226.667 78.9756 227.336V229.195H78.6667V225.98H78.9756V226.579C79.19 226.201 79.5493 225.905 80.1356 225.905C80.9488 225.905 81.4216 226.459 81.4216 227.228V229.195ZM85.5211 228.697C85.5211 229.674 84.8592 230.217 83.9451 230.217C83.4092 230.217 82.9112 230.053 82.4699 229.725L82.6527 229.473C83.0373 229.769 83.4786 229.927 83.9514 229.927C84.689 229.927 85.2122 229.504 85.2122 228.678V228.212C84.9348 228.609 84.5061 228.956 83.8694 228.956C83.094 228.956 82.3249 228.363 82.3249 227.443V227.43C82.3249 226.503 83.094 225.905 83.8694 225.905C84.5124 225.905 84.9474 226.245 85.2122 226.623V225.98H85.5211V228.697ZM85.2311 227.436V227.424C85.2311 226.68 84.5692 226.201 83.9009 226.201C83.2264 226.201 82.659 226.667 82.659 227.418V227.43C82.659 228.155 83.239 228.659 83.9009 228.659C84.5692 228.659 85.2311 228.168 85.2311 227.436ZM90.1796 229.139C90.0157 229.214 89.8581 229.252 89.6564 229.252C89.1583 229.252 88.7549 228.981 88.7549 228.369V226.264H88.2884V225.98H88.7549V224.953H89.0638V225.98H90.1922V226.264H89.0638V228.338C89.0638 228.798 89.3349 228.962 89.7068 228.962C89.8644 228.962 89.9968 228.931 90.1796 228.849V229.139ZM93.8637 229.195H93.5548V227.285C93.5548 226.623 93.1828 226.188 92.5335 226.188C91.9031 226.188 91.4177 226.667 91.4177 227.336V229.195H91.1088V224.593H91.4177V226.579C91.632 226.201 91.9914 225.905 92.5776 225.905C93.3909 225.905 93.8637 226.459 93.8637 227.228V229.195ZM95.0822 227.714C95.1389 228.514 95.7126 228.981 96.343 228.981C96.841 228.981 97.1814 228.76 97.4462 228.477L97.6606 228.666C97.3327 229.019 96.9482 229.271 96.3304 229.271C95.4856 229.271 94.7543 228.596 94.7543 227.594V227.581C94.7543 226.648 95.41 225.905 96.2799 225.905C97.1814 225.905 97.7551 226.636 97.7551 227.588V227.6C97.7551 227.644 97.7551 227.663 97.7488 227.714H95.0822ZM95.0822 227.436H97.421C97.3769 226.787 97.0049 226.188 96.2673 226.188C95.6306 226.188 95.1389 226.724 95.0822 227.436ZM100.654 227.714C100.71 228.514 101.284 228.981 101.915 228.981C102.413 228.981 102.753 228.76 103.018 228.477L103.232 228.666C102.904 229.019 102.52 229.271 101.902 229.271C101.057 229.271 100.326 228.596 100.326 227.594V227.581C100.326 226.648 100.981 225.905 101.851 225.905C102.753 225.905 103.327 226.636 103.327 227.588V227.6C103.327 227.644 103.327 227.663 103.32 227.714H100.654ZM100.654 227.436H102.993C102.948 226.787 102.576 226.188 101.839 226.188C101.202 226.188 100.71 226.724 100.654 227.436ZM106.983 229.195H106.674V227.285C106.674 226.623 106.302 226.188 105.653 226.188C105.022 226.188 104.537 226.667 104.537 227.336V229.195H104.228V225.98H104.537V226.579C104.751 226.201 105.111 225.905 105.697 225.905C106.51 225.905 106.983 226.459 106.983 227.228V229.195ZM109.689 229.139C109.525 229.214 109.368 229.252 109.166 229.252C108.668 229.252 108.264 228.981 108.264 228.369V226.264H107.798V225.98H108.264V224.953H108.573V225.98H109.702V226.264H108.573V228.338C108.573 228.798 108.844 228.962 109.216 228.962C109.374 228.962 109.506 228.931 109.689 228.849V229.139ZM111.009 225.142H110.625V224.719H111.009V225.142ZM110.971 229.195H110.662V225.98H110.971V229.195ZM113.922 226.27H113.89C113.146 226.27 112.497 226.831 112.497 227.878V229.195H112.188V225.98H112.497V226.894C112.749 226.321 113.285 225.905 113.922 225.93V226.27ZM114.659 227.714C114.716 228.514 115.29 228.981 115.92 228.981C116.418 228.981 116.759 228.76 117.024 228.477L117.238 228.666C116.91 229.019 116.525 229.271 115.908 229.271C115.063 229.271 114.332 228.596 114.332 227.594V227.581C114.332 226.648 114.987 225.905 115.857 225.905C116.759 225.905 117.332 226.636 117.332 227.588V227.6C117.332 227.644 117.332 227.663 117.326 227.714H114.659ZM114.659 227.436H116.998C116.954 226.787 116.582 226.188 115.845 226.188C115.208 226.188 114.716 226.724 114.659 227.436ZM123.32 227.588C123.32 228.634 122.532 229.271 121.757 229.271C121.114 229.271 120.697 228.905 120.433 228.502V230.204H120.124V225.98H120.433V226.699C120.71 226.276 121.12 225.905 121.757 225.905C122.532 225.905 123.32 226.529 123.32 227.575V227.588ZM122.986 227.6V227.588C122.986 226.743 122.4 226.201 121.725 226.201C121.057 226.201 120.414 226.762 120.414 227.581V227.594C120.414 228.42 121.057 228.975 121.725 228.975C122.425 228.975 122.986 228.464 122.986 227.6ZM126.019 226.27H125.988C125.244 226.27 124.594 226.831 124.594 227.878V229.195H124.286V225.98H124.594V226.894C124.847 226.321 125.382 225.905 126.019 225.93V226.27ZM129.732 227.588C129.732 228.489 129.033 229.271 128.074 229.271C127.122 229.271 126.429 228.502 126.429 227.6V227.588C126.429 226.686 127.129 225.905 128.087 225.905C129.039 225.905 129.732 226.674 129.732 227.575V227.588ZM129.398 227.6V227.588C129.398 226.812 128.818 226.195 128.074 226.195C127.312 226.195 126.763 226.819 126.763 227.575V227.588C126.763 228.363 127.343 228.981 128.087 228.981C128.85 228.981 129.398 228.357 129.398 227.6ZM133.412 228.634C133.084 229.006 132.693 229.271 132.1 229.271C131.174 229.271 130.461 228.502 130.461 227.6V227.588C130.461 226.686 131.18 225.905 132.1 225.905C132.706 225.905 133.084 226.182 133.386 226.497L133.166 226.724C132.888 226.44 132.573 226.195 132.094 226.195C131.363 226.195 130.795 226.806 130.795 227.575V227.588C130.795 228.363 131.382 228.981 132.119 228.981C132.573 228.981 132.926 228.748 133.197 228.445L133.412 228.634ZM134.298 227.714C134.355 228.514 134.929 228.981 135.559 228.981C136.057 228.981 136.398 228.76 136.662 228.477L136.877 228.666C136.549 229.019 136.164 229.271 135.547 229.271C134.702 229.271 133.97 228.596 133.97 227.594V227.581C133.97 226.648 134.626 225.905 135.496 225.905C136.398 225.905 136.971 226.636 136.971 227.588V227.6C136.971 227.644 136.971 227.663 136.965 227.714H134.298ZM134.298 227.436H136.637C136.593 226.787 136.221 226.188 135.483 226.188C134.847 226.188 134.355 226.724 134.298 227.436ZM140.022 228.319C140.022 228.893 139.531 229.258 138.913 229.258C138.446 229.258 137.936 229.069 137.595 228.792L137.778 228.546C138.131 228.817 138.522 228.968 138.932 228.968C139.367 228.968 139.707 228.729 139.707 228.357V228.344C139.707 227.966 139.304 227.827 138.856 227.701C138.333 227.55 137.753 227.392 137.753 226.819V226.806C137.753 226.289 138.188 225.917 138.812 225.917C139.197 225.917 139.632 226.056 139.953 226.27L139.789 226.529C139.493 226.333 139.14 226.207 138.799 226.207C138.358 226.207 138.068 226.447 138.068 226.768V226.781C138.068 227.14 138.503 227.273 138.963 227.405C139.48 227.55 140.022 227.739 140.022 228.306V228.319ZM143.094 228.319C143.094 228.893 142.603 229.258 141.985 229.258C141.518 229.258 141.008 229.069 140.667 228.792L140.85 228.546C141.203 228.817 141.594 228.968 142.004 228.968C142.439 228.968 142.779 228.729 142.779 228.357V228.344C142.779 227.966 142.376 227.827 141.928 227.701C141.405 227.55 140.825 227.392 140.825 226.819V226.806C140.825 226.289 141.26 225.917 141.884 225.917C142.269 225.917 142.704 226.056 143.025 226.27L142.861 226.529C142.565 226.333 142.212 226.207 141.871 226.207C141.43 226.207 141.14 226.447 141.14 226.768V226.781C141.14 227.14 141.575 227.273 142.035 227.405C142.552 227.55 143.094 227.739 143.094 228.306V228.319ZM149.051 227.588C149.051 228.489 148.351 229.271 147.393 229.271C146.441 229.271 145.748 228.502 145.748 227.6V227.588C145.748 226.686 146.447 225.905 147.406 225.905C148.358 225.905 149.051 226.674 149.051 227.575V227.588ZM148.717 227.6V227.588C148.717 226.812 148.137 226.195 147.393 226.195C146.63 226.195 146.082 226.819 146.082 227.575V227.588C146.082 228.363 146.662 228.981 147.406 228.981C148.168 228.981 148.717 228.357 148.717 227.6ZM151.627 224.94C151.444 224.883 151.312 224.858 151.148 224.858C150.707 224.858 150.499 225.123 150.499 225.671V225.98H151.621V226.264H150.499V229.195H150.19V226.264H149.723V225.98H150.19V225.665C150.19 224.972 150.543 224.574 151.148 224.574C151.344 224.574 151.482 224.6 151.627 224.65V224.94ZM156.684 229.195H156.381V228.659C156.161 228.968 155.763 229.271 155.152 229.271C154.553 229.271 153.91 228.931 153.91 228.262V228.25C153.91 227.581 154.484 227.203 155.316 227.203C155.763 227.203 156.072 227.26 156.381 227.342V227.203C156.381 226.554 155.984 226.22 155.322 226.22C154.931 226.22 154.61 226.327 154.313 226.478L154.2 226.207C154.553 226.043 154.9 225.93 155.341 225.93C156.167 225.93 156.684 226.358 156.684 227.191V229.195ZM156.387 227.991V227.626C156.116 227.556 155.757 227.481 155.297 227.481C154.616 227.481 154.238 227.783 154.238 228.231V228.243C154.238 228.71 154.679 228.981 155.171 228.981C155.826 228.981 156.387 228.578 156.387 227.991ZM160.783 229.195H160.474V228.477C160.197 228.899 159.787 229.271 159.15 229.271C158.375 229.271 157.587 228.647 157.587 227.6V227.588C157.587 226.541 158.375 225.905 159.15 225.905C159.793 225.905 160.209 226.27 160.474 226.674V224.593H160.783V229.195ZM160.493 227.594V227.581C160.493 226.756 159.85 226.201 159.182 226.201C158.482 226.201 157.921 226.711 157.921 227.575V227.588C157.921 228.433 158.507 228.975 159.182 228.975C159.85 228.975 160.493 228.414 160.493 227.594ZM164.106 228.319C164.106 228.893 163.614 229.258 162.997 229.258C162.53 229.258 162.019 229.069 161.679 228.792L161.862 228.546C162.215 228.817 162.606 228.968 163.016 228.968C163.45 228.968 163.791 228.729 163.791 228.357V228.344C163.791 227.966 163.387 227.827 162.94 227.701C162.417 227.55 161.837 227.392 161.837 226.819V226.806C161.837 226.289 162.272 225.917 162.896 225.917C163.28 225.917 163.715 226.056 164.037 226.27L163.873 226.529C163.577 226.333 163.224 226.207 162.883 226.207C162.442 226.207 162.152 226.447 162.152 226.768V226.781C162.152 227.14 162.587 227.273 163.047 227.405C163.564 227.55 164.106 227.739 164.106 228.306V228.319ZM57.6534 239.588C57.6534 240.489 56.9536 241.271 55.9954 241.271C55.0435 241.271 54.35 240.502 54.35 239.6V239.588C54.35 238.686 55.0498 237.905 56.008 237.905C56.9599 237.905 57.6534 238.674 57.6534 239.575V239.588ZM57.3193 239.6V239.588C57.3193 238.812 56.7393 238.195 55.9954 238.195C55.2326 238.195 54.6841 238.819 54.6841 239.575V239.588C54.6841 240.363 55.2641 240.981 56.008 240.981C56.7708 240.981 57.3193 240.357 57.3193 239.6ZM61.7993 239.588C61.7993 240.634 61.0113 241.271 60.2359 241.271C59.5928 241.271 59.1768 240.905 58.912 240.502V242.204H58.6031V237.98H58.912V238.699C59.1894 238.276 59.5991 237.905 60.2359 237.905C61.0113 237.905 61.7993 238.529 61.7993 239.575V239.588ZM61.4652 239.6V239.588C61.4652 238.743 60.8789 238.201 60.2043 238.201C59.5361 238.201 58.8931 238.762 58.8931 239.581V239.594C58.8931 240.42 59.5361 240.975 60.2043 240.975C60.9041 240.975 61.4652 240.464 61.4652 239.6ZM64.3597 241.139C64.1958 241.214 64.0382 241.252 63.8365 241.252C63.3385 241.252 62.935 240.981 62.935 240.369V238.264H62.4685V237.98H62.935V236.953H63.2439V237.98H64.3724V238.264H63.2439V240.338C63.2439 240.798 63.515 240.962 63.8869 240.962C64.0445 240.962 64.1769 240.931 64.3597 240.849V241.139ZM65.6798 237.142H65.2952V236.719H65.6798V237.142ZM65.642 241.195H65.333V237.98H65.642V241.195ZM71.7193 241.195H71.4104V239.285C71.4104 238.592 71.051 238.188 70.4585 238.188C69.9163 238.188 69.4435 238.604 69.4435 239.323V241.195H69.1346V239.266C69.1346 238.598 68.7689 238.188 68.1953 238.188C67.6216 238.188 67.1677 238.693 67.1677 239.342V241.195H66.8588V237.98H67.1677V238.554C67.3757 238.22 67.6657 237.905 68.2394 237.905C68.8005 237.905 69.1472 238.226 69.3237 238.598C69.5317 238.239 69.8785 237.905 70.4837 237.905C71.2465 237.905 71.7193 238.44 71.7193 239.247V241.195ZM73.246 237.142H72.8614V236.719H73.246V237.142ZM73.2081 241.195H72.8992V237.98H73.2081V241.195ZM76.9845 241.195H74.2043V241.019L76.5243 238.258H74.2926V237.98H76.9845V238.157L74.6645 240.918H76.9845V241.195ZM80.4247 241.195H80.1221V240.659C79.9015 240.968 79.5043 241.271 78.8928 241.271C78.2939 241.271 77.6509 240.931 77.6509 240.262V240.25C77.6509 239.581 78.2246 239.203 79.0567 239.203C79.5043 239.203 79.8132 239.26 80.1221 239.342V239.203C80.1221 238.554 79.7249 238.22 79.063 238.22C78.6722 238.22 78.3506 238.327 78.0543 238.478L77.9409 238.207C78.2939 238.043 78.6406 237.93 79.0819 237.93C79.9078 237.93 80.4247 238.358 80.4247 239.191V241.195ZM80.1284 239.991V239.626C79.8573 239.556 79.498 239.481 79.0378 239.481C78.3569 239.481 77.9787 239.783 77.9787 240.231V240.243C77.9787 240.71 78.42 240.981 78.9117 240.981C79.5673 240.981 80.1284 240.578 80.1284 239.991ZM83.0998 241.139C82.9359 241.214 82.7783 241.252 82.5765 241.252C82.0785 241.252 81.675 240.981 81.675 240.369V238.264H81.2085V237.98H81.675V236.953H81.9839V237.98H83.1124V238.264H81.9839V240.338C81.9839 240.798 82.255 240.962 82.627 240.962C82.7846 240.962 82.917 240.931 83.0998 240.849V241.139ZM84.4198 237.142H84.0352V236.719H84.4198V237.142ZM84.382 241.195H84.0731V237.98H84.382V241.195ZM88.6815 239.588C88.6815 240.489 87.9818 241.271 87.0236 241.271C86.0716 241.271 85.3782 240.502 85.3782 239.6V239.588C85.3782 238.686 86.0779 237.905 87.0362 237.905C87.9881 237.905 88.6815 238.674 88.6815 239.575V239.588ZM88.3474 239.6V239.588C88.3474 238.812 87.7674 238.195 87.0236 238.195C86.2608 238.195 85.7123 238.819 85.7123 239.575V239.588C85.7123 240.363 86.2923 240.981 87.0362 240.981C87.799 240.981 88.3474 240.357 88.3474 239.6ZM92.3862 241.195H92.0773V239.285C92.0773 238.623 91.7053 238.188 91.056 238.188C90.4256 238.188 89.9402 238.667 89.9402 239.336V241.195H89.6313V237.98H89.9402V238.579C90.1545 238.201 90.5138 237.905 91.1001 237.905C91.9133 237.905 92.3862 238.459 92.3862 239.228V241.195ZM97.0139 236.94C96.8311 236.883 96.6987 236.858 96.5348 236.858C96.0935 236.858 95.8855 237.123 95.8855 237.671V237.98H97.0076V238.264H95.8855V241.195H95.5766V238.264H95.1101V237.98H95.5766V237.665C95.5766 236.972 95.9296 236.574 96.5348 236.574C96.7302 236.574 96.8689 236.6 97.0139 236.65V236.94ZM99.4051 238.27H99.3736C98.6297 238.27 97.9804 238.831 97.9804 239.878V241.195H97.6715V237.98H97.9804V238.894C98.2326 238.321 98.7684 237.905 99.4051 237.93V238.27ZM103.118 239.588C103.118 240.489 102.418 241.271 101.46 241.271C100.508 241.271 99.8149 240.502 99.8149 239.6V239.588C99.8149 238.686 100.515 237.905 101.473 237.905C102.425 237.905 103.118 238.674 103.118 239.575V239.588ZM102.784 239.6V239.588C102.784 238.812 102.204 238.195 101.46 238.195C100.697 238.195 100.149 238.819 100.149 239.575V239.588C100.149 240.363 100.729 240.981 101.473 240.981C102.236 240.981 102.784 240.357 102.784 239.6ZM108.928 241.195H108.62V239.285C108.62 238.592 108.26 238.188 107.668 238.188C107.125 238.188 106.653 238.604 106.653 239.323V241.195H106.344V239.266C106.344 238.598 105.978 238.188 105.404 238.188C104.831 238.188 104.377 238.693 104.377 239.342V241.195H104.068V237.98H104.377V238.554C104.585 238.22 104.875 237.905 105.449 237.905C106.01 237.905 106.356 238.226 106.533 238.598C106.741 238.239 107.088 237.905 107.693 237.905C108.456 237.905 108.928 238.44 108.928 239.247V241.195ZM114.942 241.195H114.634V240.477C114.356 240.899 113.946 241.271 113.31 241.271C112.534 241.271 111.746 240.647 111.746 239.6V239.588C111.746 238.541 112.534 237.905 113.31 237.905C113.953 237.905 114.369 238.27 114.634 238.674V236.593H114.942V241.195ZM114.652 239.594V239.581C114.652 238.756 114.009 238.201 113.341 238.201C112.641 238.201 112.08 238.711 112.08 239.575V239.588C112.08 240.433 112.667 240.975 113.341 240.975C114.009 240.975 114.652 240.414 114.652 239.594ZM118.625 241.195H118.322V240.659C118.102 240.968 117.705 241.271 117.093 241.271C116.494 241.271 115.851 240.931 115.851 240.262V240.25C115.851 239.581 116.425 239.203 117.257 239.203C117.705 239.203 118.014 239.26 118.322 239.342V239.203C118.322 238.554 117.925 238.22 117.263 238.22C116.872 238.22 116.551 238.327 116.255 238.478L116.141 238.207C116.494 238.043 116.841 237.93 117.282 237.93C118.108 237.93 118.625 238.358 118.625 239.191V241.195ZM118.329 239.991V239.626C118.058 239.556 117.698 239.481 117.238 239.481C116.557 239.481 116.179 239.783 116.179 240.231V240.243C116.179 240.71 116.62 240.981 117.112 240.981C117.768 240.981 118.329 240.578 118.329 239.991ZM121.3 241.139C121.136 241.214 120.979 241.252 120.777 241.252C120.279 241.252 119.875 240.981 119.875 240.369V238.264H119.409V237.98H119.875V236.953H120.184V237.98H121.313V238.264H120.184V240.338C120.184 240.798 120.455 240.962 120.827 240.962C120.985 240.962 121.117 240.931 121.3 240.849V241.139ZM124.738 241.195H124.436V240.659C124.215 240.968 123.818 241.271 123.206 241.271C122.608 241.271 121.965 240.931 121.965 240.262V240.25C121.965 239.581 122.538 239.203 123.37 239.203C123.818 239.203 124.127 239.26 124.436 239.342V239.203C124.436 238.554 124.039 238.22 123.377 238.22C122.986 238.22 122.664 238.327 122.368 238.478L122.255 238.207C122.608 238.043 122.954 237.93 123.396 237.93C124.221 237.93 124.738 238.358 124.738 239.191V241.195ZM124.442 239.991V239.626C124.171 239.556 123.812 239.481 123.351 239.481C122.671 239.481 122.292 239.783 122.292 240.231V240.243C122.292 240.71 122.734 240.981 123.225 240.981C123.881 240.981 124.442 240.578 124.442 239.991ZM130.469 240.634C130.141 241.006 129.75 241.271 129.158 241.271C128.231 241.271 127.519 240.502 127.519 239.6V239.588C127.519 238.686 128.237 237.905 129.158 237.905C129.763 237.905 130.141 238.182 130.444 238.497L130.223 238.724C129.946 238.44 129.63 238.195 129.151 238.195C128.42 238.195 127.853 238.806 127.853 239.575V239.588C127.853 240.363 128.439 240.981 129.177 240.981C129.63 240.981 129.984 240.748 130.255 240.445L130.469 240.634ZM134.331 239.588C134.331 240.489 133.631 241.271 132.673 241.271C131.721 241.271 131.028 240.502 131.028 239.6V239.588C131.028 238.686 131.728 237.905 132.686 237.905C133.638 237.905 134.331 238.674 134.331 239.575V239.588ZM133.997 239.6V239.588C133.997 238.812 133.417 238.195 132.673 238.195C131.91 238.195 131.362 238.819 131.362 239.575V239.588C131.362 240.363 131.942 240.981 132.686 240.981C133.449 240.981 133.997 240.357 133.997 239.6ZM135.634 241.195H135.325V236.593H135.634V241.195ZM137.204 241.195H136.895V236.593H137.204V241.195ZM138.528 239.714C138.584 240.514 139.158 240.981 139.789 240.981C140.287 240.981 140.627 240.76 140.892 240.477L141.106 240.666C140.778 241.019 140.394 241.271 139.776 241.271C138.931 241.271 138.2 240.596 138.2 239.594V239.581C138.2 238.648 138.856 237.905 139.726 237.905C140.627 237.905 141.201 238.636 141.201 239.588V239.6C141.201 239.644 141.201 239.663 141.194 239.714H138.528ZM138.528 239.436H140.867C140.822 238.787 140.451 238.188 139.713 238.188C139.076 238.188 138.584 238.724 138.528 239.436ZM144.832 240.634C144.504 241.006 144.113 241.271 143.521 241.271C142.594 241.271 141.881 240.502 141.881 239.6V239.588C141.881 238.686 142.6 237.905 143.521 237.905C144.126 237.905 144.504 238.182 144.807 238.497L144.586 238.724C144.309 238.44 143.993 238.195 143.514 238.195C142.783 238.195 142.216 238.806 142.216 239.575V239.588C142.216 240.363 142.802 240.981 143.539 240.981C143.993 240.981 144.346 240.748 144.617 240.445L144.832 240.634ZM147.299 241.139C147.135 241.214 146.977 241.252 146.775 241.252C146.277 241.252 145.874 240.981 145.874 240.369V238.264H145.407V237.98H145.874V236.953H146.183V237.98H147.311V238.264H146.183V240.338C146.183 240.798 146.454 240.962 146.826 240.962C146.983 240.962 147.116 240.931 147.299 240.849V241.139ZM148.619 237.142H148.234V236.719H148.619V237.142ZM148.581 241.195H148.272V237.98H148.581V241.195ZM152.88 239.588C152.88 240.489 152.181 241.271 151.222 241.271C150.27 241.271 149.577 240.502 149.577 239.6V239.588C149.577 238.686 150.277 237.905 151.235 237.905C152.187 237.905 152.88 238.674 152.88 239.575V239.588ZM152.546 239.6V239.588C152.546 238.812 151.966 238.195 151.222 238.195C150.459 238.195 149.911 238.819 149.911 239.575V239.588C149.911 240.363 150.491 240.981 151.235 240.981C151.998 240.981 152.546 240.357 152.546 239.6ZM156.585 241.195H156.276V239.285C156.276 238.623 155.904 238.188 155.255 238.188C154.624 238.188 154.139 238.667 154.139 239.336V241.195H153.83V237.98H154.139V238.579C154.353 238.201 154.713 237.905 155.299 237.905C156.112 237.905 156.585 238.459 156.585 239.228V241.195ZM161.181 241.139C161.017 241.214 160.86 241.252 160.658 241.252C160.16 241.252 159.756 240.981 159.756 240.369V238.264H159.29V237.98H159.756V236.953H160.065V237.98H161.194V238.264H160.065V240.338C160.065 240.798 160.336 240.962 160.708 240.962C160.866 240.962 160.998 240.931 161.181 240.849V241.139ZM165.101 239.588C165.101 240.489 164.401 241.271 163.443 241.271C162.491 241.271 161.797 240.502 161.797 239.6V239.588C161.797 238.686 162.497 237.905 163.455 237.905C164.407 237.905 165.101 238.674 165.101 239.575V239.588ZM164.767 239.6V239.588C164.767 238.812 164.187 238.195 163.443 238.195C162.68 238.195 162.131 238.819 162.131 239.575V239.588C162.131 240.363 162.711 240.981 163.455 240.981C164.218 240.981 164.767 240.357 164.767 239.6ZM56.3043 250.27H56.2728C55.5289 250.27 54.8796 250.831 54.8796 251.878V253.195H54.5707V249.98H54.8796V250.894C55.1317 250.321 55.6676 249.905 56.3043 249.93V250.27ZM57.0419 251.714C57.0986 252.514 57.6723 252.981 58.3027 252.981C58.8007 252.981 59.1412 252.76 59.4059 252.477L59.6203 252.666C59.2925 253.019 58.9079 253.271 58.2901 253.271C57.4453 253.271 56.7141 252.596 56.7141 251.594V251.581C56.7141 250.648 57.3697 249.905 58.2397 249.905C59.1412 249.905 59.7148 250.636 59.7148 251.588V251.6C59.7148 251.644 59.7148 251.663 59.7085 251.714H57.0419ZM57.0419 251.436H59.3807C59.3366 250.787 58.9646 250.188 58.2271 250.188C57.5903 250.188 57.0986 250.724 57.0419 251.436ZM63.1253 253.195H62.8227V252.659C62.602 252.968 62.2049 253.271 61.5934 253.271C60.9945 253.271 60.3515 252.931 60.3515 252.262V252.25C60.3515 251.581 60.9251 251.203 61.7573 251.203C62.2049 251.203 62.5138 251.26 62.8227 251.342V251.203C62.8227 250.554 62.4255 250.22 61.7636 250.22C61.3727 250.22 61.0512 250.327 60.7549 250.478L60.6414 250.207C60.9945 250.043 61.3412 249.93 61.7825 249.93C62.6083 249.93 63.1253 250.358 63.1253 251.191V253.195ZM62.829 251.991V251.626C62.5579 251.556 62.1986 251.481 61.7384 251.481C61.0575 251.481 60.6793 251.783 60.6793 252.231V252.243C60.6793 252.71 61.1206 252.981 61.6123 252.981C62.2679 252.981 62.829 252.578 62.829 251.991ZM64.5892 253.195H64.2803V248.593H64.5892V253.195ZM67.3506 251.5H65.6611V251.146H67.3506V251.5ZM69.9744 253.139C69.8105 253.214 69.6529 253.252 69.4511 253.252C68.9531 253.252 68.5496 252.981 68.5496 252.369V250.264H68.0831V249.98H68.5496V248.953H68.8585V249.98H69.987V250.264H68.8585V252.338C68.8585 252.798 69.1296 252.962 69.5016 252.962C69.6592 252.962 69.7915 252.931 69.9744 252.849V253.139ZM71.2944 249.142H70.9098V248.719H71.2944V249.142ZM71.2566 253.195H70.9477V249.98H71.2566V253.195ZM77.3339 253.195H77.025V251.285C77.025 250.592 76.6657 250.188 76.0731 250.188C75.5309 250.188 75.0581 250.604 75.0581 251.323V253.195H74.7492V251.266C74.7492 250.598 74.3836 250.188 73.8099 250.188C73.2362 250.188 72.7823 250.693 72.7823 251.342V253.195H72.4734V249.98H72.7823V250.554C72.9904 250.22 73.2803 249.905 73.854 249.905C74.4151 249.905 74.7618 250.226 74.9383 250.598C75.1464 250.239 75.4931 249.905 76.0983 249.905C76.8611 249.905 77.3339 250.44 77.3339 251.247V253.195ZM78.5769 251.714C78.6336 252.514 79.2073 252.981 79.8377 252.981C80.3358 252.981 80.6762 252.76 80.941 252.477L81.1553 252.666C80.8275 253.019 80.4429 253.271 79.8251 253.271C78.9804 253.271 78.2491 252.596 78.2491 251.594V251.581C78.2491 250.648 78.9047 249.905 79.7747 249.905C80.6762 249.905 81.2499 250.636 81.2499 251.588V251.6C81.2499 251.644 81.2499 251.663 81.2436 251.714H78.5769ZM78.5769 251.436H80.9157C80.8716 250.787 80.4997 250.188 79.7621 250.188C79.1254 250.188 78.6336 250.724 78.5769 251.436ZM87.124 251.588C87.124 252.489 86.4242 253.271 85.466 253.271C84.5141 253.271 83.8206 252.502 83.8206 251.6V251.588C83.8206 250.686 84.5204 249.905 85.4786 249.905C86.4305 249.905 87.124 250.674 87.124 251.575V251.588ZM86.7899 251.6V251.588C86.7899 250.812 86.2099 250.195 85.466 250.195C84.7032 250.195 84.1547 250.819 84.1547 251.575V251.588C84.1547 252.363 84.7347 252.981 85.4786 252.981C86.2414 252.981 86.7899 252.357 86.7899 251.6ZM91.2699 251.588C91.2699 252.634 90.4819 253.271 89.7065 253.271C89.0634 253.271 88.6474 252.905 88.3826 252.502V254.204H88.0737V249.98H88.3826V250.699C88.66 250.276 89.0697 249.905 89.7065 249.905C90.4819 249.905 91.2699 250.529 91.2699 251.575V251.588ZM90.9358 251.6V251.588C90.9358 250.743 90.3495 250.201 89.6749 250.201C89.0067 250.201 88.3637 250.762 88.3637 251.581V251.594C88.3637 252.42 89.0067 252.975 89.6749 252.975C90.3747 252.975 90.9358 252.464 90.9358 251.6ZM92.3426 251.714C92.3993 252.514 92.973 252.981 93.6034 252.981C94.1014 252.981 94.4418 252.76 94.7066 252.477L94.921 252.666C94.5931 253.019 94.2086 253.271 93.5908 253.271C92.746 253.271 92.0148 252.596 92.0148 251.594V251.581C92.0148 250.648 92.6704 249.905 93.5404 249.905C94.4418 249.905 95.0155 250.636 95.0155 251.588V251.6C95.0155 251.644 95.0155 251.663 95.0092 251.714H92.3426ZM92.3426 251.436H94.6814C94.6373 250.787 94.2653 250.188 93.5277 250.188C92.891 250.188 92.3993 250.724 92.3426 251.436ZM97.6506 250.27H97.619C96.8751 250.27 96.2258 250.831 96.2258 251.878V253.195H95.9169V249.98H96.2258V250.894C96.478 250.321 97.0138 249.905 97.6506 249.93V250.27ZM100.79 253.195H100.487V252.659C100.267 252.968 99.8696 253.271 99.2581 253.271C98.6592 253.271 98.0162 252.931 98.0162 252.262V252.25C98.0162 251.581 98.5899 251.203 99.422 251.203C99.8696 251.203 100.179 251.26 100.487 251.342V251.203C100.487 250.554 100.09 250.22 99.4283 250.22C99.0375 250.22 98.716 250.327 98.4197 250.478L98.3062 250.207C98.6592 250.043 99.0059 249.93 99.4472 249.93C100.273 249.93 100.79 250.358 100.79 251.191V253.195ZM100.494 251.991V251.626C100.223 251.556 99.8633 251.481 99.4031 251.481C98.7223 251.481 98.344 251.783 98.344 252.231V252.243C98.344 252.71 98.7853 252.981 99.277 252.981C99.9327 252.981 100.494 252.578 100.494 251.991ZM103.465 253.139C103.301 253.214 103.144 253.252 102.942 253.252C102.444 253.252 102.04 252.981 102.04 252.369V250.264H101.574V249.98H102.04V248.953H102.349V249.98H103.478V250.264H102.349V252.338C102.349 252.798 102.62 252.962 102.992 252.962C103.15 252.962 103.282 252.931 103.465 252.849V253.139ZM104.785 249.142H104.401V248.719H104.785V249.142ZM104.747 253.195H104.438V249.98H104.747V253.195ZM109.047 251.588C109.047 252.489 108.347 253.271 107.389 253.271C106.437 253.271 105.743 252.502 105.743 251.6V251.588C105.743 250.686 106.443 249.905 107.401 249.905C108.353 249.905 109.047 250.674 109.047 251.575V251.588ZM108.713 251.6V251.588C108.713 250.812 108.133 250.195 107.389 250.195C106.626 250.195 106.078 250.819 106.078 251.575V251.588C106.078 252.363 106.658 252.981 107.401 252.981C108.164 252.981 108.713 252.357 108.713 251.6ZM112.751 253.195H112.443V251.285C112.443 250.623 112.071 250.188 111.421 250.188C110.791 250.188 110.305 250.667 110.305 251.336V253.195H109.997V249.98H110.305V250.579C110.52 250.201 110.879 249.905 111.465 249.905C112.279 249.905 112.751 250.459 112.751 251.228V253.195Z" fill="#040A45"/>
<path d="M141.378 129.082H145.889V157.912H142.694V133.007H142.6L129.042 157.912H126.105L112.571 132.958H112.477V157.912H109.281V129.082H113.934L127.632 154.157L141.331 129.082H141.378Z" fill="#040A45" stroke="#040A45" stroke-width="1.60037"/>
<path d="M151.714 136.972C152.607 135.058 153.829 133.459 155.403 132.175C156.978 130.891 158.74 129.946 160.737 129.316C162.734 128.686 164.849 128.371 167.081 128.371C169.314 128.371 171.428 128.686 173.425 129.316C175.423 129.946 177.209 130.915 178.759 132.175C180.334 133.459 181.555 135.058 182.448 136.972C183.341 138.885 183.788 141.066 183.788 143.513C183.788 145.96 183.341 148.14 182.448 150.054C181.555 151.968 180.334 153.567 178.759 154.851C177.185 156.135 175.423 157.08 173.425 157.71C171.428 158.339 169.314 158.654 167.081 158.654C164.849 158.654 162.734 158.339 160.737 157.71C158.74 157.08 156.954 156.111 155.403 154.851C153.829 153.567 152.607 151.968 151.714 150.054C150.821 148.14 150.375 145.96 150.375 143.513C150.375 141.066 150.821 138.885 151.714 136.972ZM154.91 149.036C155.638 150.611 156.602 151.895 157.871 152.913C159.116 153.93 160.526 154.681 162.123 155.166C163.698 155.675 165.366 155.917 167.128 155.917C168.891 155.917 170.535 155.675 172.133 155.19C173.707 154.705 175.117 153.954 176.386 152.937C177.631 151.919 178.618 150.611 179.347 149.036C180.052 147.462 180.428 145.62 180.428 143.513C180.428 141.405 180.075 139.564 179.347 137.989C178.618 136.414 177.655 135.106 176.386 134.089C175.141 133.071 173.731 132.32 172.133 131.836C170.559 131.351 168.891 131.109 167.128 131.109C165.366 131.109 163.698 131.351 162.123 131.836C160.549 132.32 159.139 133.071 157.871 134.089C156.625 135.106 155.638 136.414 154.91 137.989C154.182 139.564 153.829 141.405 153.829 143.513C153.829 145.62 154.182 147.437 154.91 149.036Z" fill="#040A45" stroke="#040A45" stroke-width="1.60037"/>
<path d="M188.812 129.082H205.401C206.647 129.082 207.798 129.227 208.902 129.542C210.007 129.857 210.994 130.342 211.863 130.996C212.732 131.65 213.414 132.522 213.907 133.612C214.401 134.678 214.659 135.962 214.659 137.416C214.659 140.129 213.743 142.213 211.91 143.666C210.077 145.12 207.422 145.823 203.992 145.823H192.008V157.936H188.812V129.082ZM192.008 143.061H204.32C206.858 143.061 208.62 142.576 209.654 141.583C210.688 140.59 211.205 139.209 211.205 137.392C211.205 135.357 210.665 133.903 209.56 133.079C208.456 132.256 206.929 131.82 204.955 131.82H191.985V143.037L192.008 143.061Z" fill="#040A45" stroke="#040A45" stroke-width="1.60037"/>
<path d="M75.0623 175.129H75.8171L79.6376 181.895L83.4581 175.129H84.2129V182.499H83.7045V175.796H83.6891L79.8841 182.499H79.3757L75.5706 175.796H75.5552V182.499H75.0469V175.129H75.0623Z" fill="#040A45" stroke="#040A45" stroke-width="0.420276"/>
<path d="M85.4728 178.846C85.5653 178.179 85.8117 177.718 86.2123 177.448C86.6128 177.178 87.229 177.051 88.0917 177.051C88.9544 177.051 89.6014 177.162 90.0327 177.4C90.4641 177.638 90.6798 178.036 90.6798 178.607V181.562C90.6798 181.8 90.6952 181.959 90.7414 182.054C90.7876 182.149 90.88 182.197 91.0495 182.197C91.2035 182.197 91.373 182.165 91.5424 182.118V182.531C91.3884 182.578 91.1727 182.61 90.9262 182.61C90.6181 182.61 90.4179 182.531 90.3408 182.356C90.2638 182.181 90.233 181.879 90.233 181.451H90.2176C90.0635 181.705 89.8787 181.911 89.663 182.086C89.4319 182.245 89.2009 182.372 88.9544 182.467C88.7079 182.546 88.4614 182.61 88.2303 182.642C87.9993 182.674 87.7682 182.689 87.5371 182.689C87.306 182.689 87.0904 182.689 86.8747 182.658C86.659 182.626 86.4125 182.578 86.1506 182.467C85.8888 182.356 85.6731 182.197 85.4882 181.975C85.3034 181.752 85.2109 181.451 85.2109 181.069C85.2109 180.815 85.2726 180.577 85.3804 180.386C85.4882 180.196 85.6423 180.037 85.8426 179.926C86.0428 179.815 86.2585 179.719 86.505 179.656C86.7515 179.592 87.0287 179.56 87.3368 179.544L89.3087 179.417C89.6322 179.402 89.8633 179.338 89.9865 179.259C90.1098 179.163 90.1714 178.973 90.1714 178.671C90.1714 178.274 90.0173 177.988 89.7092 177.781C89.4011 177.575 88.8619 177.48 88.0763 177.48C87.3522 177.48 86.8439 177.591 86.5512 177.797C86.2431 178.004 86.0582 178.369 85.9812 178.862H85.4728V178.846ZM90.1714 179.544H90.156C90.0019 179.703 89.6938 179.799 89.2471 179.83L87.3368 179.957C86.8131 179.989 86.4125 180.085 86.1353 180.259C85.858 180.418 85.7193 180.688 85.7193 181.069C85.7193 181.323 85.7809 181.53 85.8888 181.689C86.012 181.848 86.1661 181.975 86.3509 182.054C86.5358 182.134 86.736 182.197 86.9363 182.213C87.1366 182.229 87.3368 182.261 87.5525 182.261C87.8606 182.261 88.1533 182.229 88.4614 182.165C88.7695 182.102 89.0468 181.991 89.3087 181.848C89.5706 181.705 89.7709 181.53 89.9249 181.308C90.079 181.085 90.156 180.831 90.156 180.529V179.56L90.1714 179.544Z" fill="#040A45" stroke="#040A45" stroke-width="0.420276"/>
<path d="M92.0935 177.21H92.6019V178.464H92.6173C92.8022 178.004 93.0949 177.654 93.5108 177.416C93.9113 177.178 94.4043 177.051 94.9589 177.051C95.0821 177.051 95.2208 177.067 95.3748 177.114V177.591C95.3748 177.591 95.2362 177.559 95.1437 177.543C95.0513 177.527 94.9435 177.543 94.7894 177.543C94.0962 177.543 93.557 177.75 93.1719 178.163C92.7868 178.576 92.5865 179.084 92.5865 179.656V182.515H92.0781V177.226L92.0935 177.21Z" fill="#040A45" stroke="#040A45" stroke-width="0.420276"/>
<path d="M95.9609 175.129H96.4693V180.021L100.49 177.21H101.245L98.3949 179.195L101.507 182.483H100.814L97.9944 179.497L96.4693 180.545V182.483H95.9609V175.113V175.129Z" fill="#040A45" stroke="#040A45" stroke-width="0.420276"/>
<path d="M102.254 179.957C102.254 180.64 102.516 181.196 102.994 181.609C103.471 182.038 104.118 182.245 104.95 182.245C105.366 182.245 105.705 182.197 105.998 182.086C106.291 181.975 106.522 181.848 106.691 181.689C106.861 181.53 106.999 181.371 107.092 181.228C107.184 181.069 107.261 180.91 107.338 180.736H107.847C107.615 181.387 107.246 181.879 106.768 182.181C106.291 182.483 105.659 182.658 104.889 182.658C103.934 182.658 103.163 182.404 102.593 181.895C102.023 181.387 101.746 180.688 101.746 179.815C101.746 179.513 101.808 179.195 101.916 178.893C102.023 178.591 102.208 178.274 102.455 177.988C102.701 177.702 103.025 177.48 103.441 177.305C103.857 177.13 104.334 177.051 104.904 177.051C105.859 177.051 106.614 177.321 107.169 177.861C107.723 178.401 108.001 179.1 108.001 179.973H102.254V179.957ZM107.431 179.544C107.323 178.846 107.045 178.321 106.583 177.988C106.121 177.654 105.536 177.464 104.843 177.464C104.149 177.464 103.548 177.654 103.102 178.02C102.655 178.385 102.378 178.909 102.254 179.544H107.431Z" fill="#040A45" stroke="#040A45" stroke-width="0.420276"/>
<path d="M109.353 175.426H109.861V177.205H111.54V177.618H109.861V181.43C109.861 181.732 109.938 181.938 110.108 182.033C110.277 182.129 110.539 182.176 110.878 182.176C110.986 182.176 111.14 182.176 111.356 182.129C111.433 182.129 111.51 182.129 111.587 182.113V182.526C111.371 182.573 111.094 182.589 110.724 182.589C110.154 182.589 109.784 182.478 109.615 182.272C109.445 182.065 109.353 181.7 109.353 181.16V177.618H108.074V177.205H109.353V175.426Z" fill="#040A45" stroke="#040A45" stroke-width="0.420276"/>
<path d="M112.324 175.129H112.833V176.225H112.324V175.129ZM112.324 177.21H112.833V182.499H112.324V177.21Z" fill="#040A45" stroke="#040A45" stroke-width="0.420276"/>
<path d="M114.105 177.21H114.614V178.258H114.629C114.83 177.908 115.122 177.607 115.523 177.384C115.923 177.162 116.416 177.051 117.002 177.051C117.587 177.051 118.08 177.13 118.45 177.289C118.819 177.448 119.081 177.638 119.235 177.861C119.389 178.083 119.497 178.321 119.528 178.528C119.559 178.75 119.59 178.973 119.59 179.243V182.499H119.081V179.259C119.081 178.973 119.051 178.734 118.989 178.512C118.927 178.29 118.819 178.115 118.665 177.956C118.511 177.797 118.296 177.67 118.018 177.591C117.741 177.511 117.402 177.464 117.002 177.464C116.601 177.464 116.262 177.511 115.954 177.623C115.646 177.734 115.4 177.877 115.199 178.067C114.999 178.258 114.86 178.464 114.752 178.703C114.66 178.941 114.614 179.179 114.614 179.417V182.499H114.105V177.21Z" fill="#040A45" stroke="#040A45" stroke-width="0.420276"/>
<path d="M126.219 177.218H126.728V182.237C126.728 182.587 126.682 182.904 126.605 183.19C126.528 183.476 126.373 183.746 126.142 183.984C125.927 184.223 125.603 184.413 125.203 184.556C124.787 184.699 124.278 184.763 123.647 184.763C122.738 184.763 122.06 184.62 121.582 184.35C121.105 184.08 120.828 183.619 120.735 182.984H121.244C121.305 183.428 121.536 183.762 121.906 184C122.276 184.238 122.861 184.35 123.662 184.35C124.186 184.35 124.617 184.286 124.956 184.175C125.295 184.048 125.572 183.889 125.742 183.698C125.927 183.492 126.05 183.285 126.127 183.031C126.204 182.793 126.235 182.539 126.235 182.253V181.157H126.219C125.973 181.586 125.634 181.904 125.172 182.11C124.71 182.317 124.186 182.428 123.57 182.428C123.046 182.428 122.584 182.348 122.199 182.205C121.814 182.062 121.49 181.856 121.244 181.602C120.997 181.348 120.812 181.062 120.689 180.728C120.566 180.395 120.52 180.061 120.52 179.696C120.52 179.33 120.581 178.997 120.704 178.679C120.828 178.362 121.012 178.076 121.259 177.822C121.505 177.567 121.829 177.377 122.229 177.234C122.615 177.091 123.077 177.027 123.585 177.027C124.171 177.027 124.664 177.107 125.079 177.281C125.326 177.377 125.542 177.504 125.726 177.663C125.927 177.822 126.081 178.028 126.204 178.25H126.219V177.186V177.218ZM122.599 177.599C122.291 177.694 122.014 177.822 121.783 178.012C121.552 178.203 121.351 178.425 121.213 178.711C121.074 178.997 121.012 179.315 121.012 179.696C121.012 180.442 121.244 181.03 121.69 181.427C122.152 181.824 122.784 182.031 123.631 182.031C124.402 182.031 125.033 181.824 125.511 181.427C125.988 181.03 126.235 180.442 126.235 179.68C126.235 178.981 126.004 178.441 125.526 178.044C125.064 177.647 124.402 177.456 123.585 177.456C123.246 177.456 122.907 177.504 122.615 177.583L122.599 177.599Z" fill="#040A45" stroke="#040A45" stroke-width="0.420276"/>
<path d="M134.513 177.702C134.667 177.258 134.898 176.845 135.221 176.447C135.545 176.05 135.976 175.733 136.531 175.479C137.07 175.224 137.717 175.113 138.472 175.113C139.227 175.113 139.874 175.24 140.413 175.479C140.952 175.733 141.383 176.05 141.707 176.447C142.03 176.845 142.261 177.258 142.415 177.702C142.569 178.147 142.631 178.56 142.631 178.957C142.631 179.354 142.554 179.783 142.415 180.212C142.261 180.657 142.03 181.07 141.707 181.467C141.383 181.864 140.952 182.181 140.413 182.436C139.874 182.69 139.227 182.801 138.472 182.801C137.717 182.801 137.07 182.674 136.531 182.42C135.976 182.166 135.545 181.848 135.221 181.451C134.898 181.054 134.667 180.641 134.513 180.196C134.358 179.751 134.297 179.338 134.297 178.941C134.297 178.544 134.374 178.115 134.513 177.686V177.702ZM135.036 180.244C135.19 180.657 135.437 181.022 135.745 181.356C136.053 181.673 136.454 181.927 136.9 182.118C137.347 182.309 137.871 182.404 138.441 182.404C139.011 182.404 139.535 182.309 139.981 182.118C140.428 181.927 140.829 181.673 141.137 181.356C141.445 181.022 141.691 180.657 141.845 180.244C141.999 179.831 142.092 179.402 142.092 178.957C142.092 178.512 142.015 178.084 141.845 177.671C141.691 177.258 141.445 176.892 141.137 176.559C140.829 176.241 140.428 175.987 139.981 175.796C139.535 175.606 139.011 175.51 138.441 175.51C137.871 175.51 137.347 175.606 136.9 175.796C136.454 175.987 136.053 176.241 135.745 176.559C135.421 176.876 135.19 177.258 135.036 177.671C134.882 178.084 134.79 178.512 134.79 178.957C134.79 179.402 134.867 179.831 135.036 180.244Z" fill="#040A45" stroke="#040A45" stroke-width="0.420276"/>
<path d="M143.59 177.346H144.098V178.506H144.114C144.268 178.141 144.56 177.823 144.976 177.569C145.392 177.315 145.947 177.188 146.609 177.188C147.087 177.188 147.518 177.267 147.903 177.41C148.273 177.553 148.597 177.759 148.843 178.029C149.105 178.283 149.29 178.585 149.428 178.935C149.567 179.284 149.629 179.634 149.629 180.015C149.629 180.428 149.552 180.809 149.398 181.142C149.244 181.492 149.043 181.778 148.766 182.032C148.489 182.286 148.181 182.477 147.811 182.604C147.441 182.731 147.041 182.81 146.625 182.81C145.993 182.81 145.469 182.683 145.053 182.429C144.637 182.175 144.329 181.873 144.129 181.524H144.114V184.732H143.605V177.362L143.59 177.346ZM145.408 177.823C145.053 177.966 144.791 178.156 144.591 178.395C144.391 178.633 144.252 178.887 144.16 179.141C144.083 179.411 144.037 179.681 144.037 179.935C144.037 180.38 144.114 180.761 144.268 181.063C144.422 181.381 144.622 181.635 144.884 181.825C145.13 182.016 145.408 182.159 145.716 182.238C146.008 182.318 146.317 182.366 146.625 182.366C146.948 182.366 147.272 182.318 147.564 182.223C147.857 182.127 148.134 181.968 148.365 181.778C148.597 181.587 148.781 181.333 148.92 181.031C149.059 180.73 149.12 180.38 149.12 179.999C149.12 179.252 148.889 178.665 148.442 178.236C147.98 177.807 147.395 177.585 146.686 177.585C146.193 177.585 145.762 177.664 145.408 177.807V177.823Z" fill="#040A45" stroke="#040A45" stroke-width="0.420276"/>
<path d="M151.076 175.57H151.584V177.349H153.263V177.762H151.584V181.574C151.584 181.876 151.661 182.083 151.83 182.178C152 182.273 152.262 182.321 152.601 182.321C152.708 182.321 152.862 182.321 153.078 182.273C153.155 182.273 153.232 182.273 153.309 182.257V182.67C153.094 182.718 152.816 182.734 152.447 182.734C151.877 182.734 151.507 182.623 151.337 182.416C151.168 182.21 151.076 181.844 151.076 181.304V177.762H149.797V177.349H151.076V175.57Z" fill="#040A45" stroke="#040A45" stroke-width="0.420276"/>
<path d="M154.035 175.273H154.544V176.369H154.035V175.273ZM154.035 177.354H154.544V182.643H154.035V177.354Z" fill="#040A45" stroke="#040A45" stroke-width="0.420276"/>
<path d="M155.824 177.346H156.333V178.252H156.348C156.564 177.918 156.872 177.648 157.257 177.473C157.642 177.283 158.058 177.188 158.52 177.188C159.152 177.188 159.645 177.299 159.984 177.521C160.323 177.743 160.554 178.045 160.677 178.426C161.093 177.6 161.817 177.203 162.864 177.203C163.65 177.203 164.251 177.362 164.636 177.68C165.021 177.998 165.221 178.458 165.221 179.062V182.636H164.713V179.205C164.713 178.728 164.559 178.347 164.266 178.045C163.974 177.743 163.511 177.6 162.88 177.6C162.202 177.6 161.678 177.759 161.324 178.077C160.97 178.395 160.785 178.824 160.785 179.395V182.651H160.276V179.125C160.276 178.649 160.122 178.268 159.83 177.998C159.537 177.728 159.075 177.6 158.443 177.6C157.811 177.6 157.303 177.759 156.918 178.093C156.533 178.426 156.333 178.887 156.333 179.491V182.636H155.824V177.346Z" fill="#040A45" stroke="#040A45" stroke-width="0.420276"/>
<path d="M166.469 175.273H166.977V176.369H166.469V175.273ZM166.469 177.354H166.977V182.643H166.469V177.354Z" fill="#040A45" stroke="#040A45" stroke-width="0.420276"/>
<path d="M167.777 182.172L172.368 177.772H168.07V177.359H173.077V177.709L168.347 182.236H173.231V182.649H167.777V182.172Z" fill="#040A45" stroke="#040A45" stroke-width="0.420276"/>
<path d="M173.895 178.982C173.987 178.315 174.234 177.855 174.634 177.585C175.035 177.315 175.651 177.188 176.514 177.188C177.376 177.188 178.023 177.299 178.455 177.537C178.886 177.775 179.102 178.172 179.102 178.744V181.698C179.102 181.937 179.117 182.096 179.163 182.191C179.209 182.286 179.302 182.334 179.471 182.334C179.625 182.334 179.795 182.302 179.964 182.254V182.667C179.81 182.715 179.595 182.747 179.348 182.747C179.04 182.747 178.84 182.667 178.763 182.493C178.686 182.318 178.655 182.016 178.655 181.587H178.639C178.485 181.841 178.301 182.048 178.085 182.223C177.854 182.381 177.623 182.508 177.376 182.604C177.13 182.683 176.883 182.747 176.652 182.779C176.421 182.81 176.19 182.826 175.959 182.826C175.728 182.826 175.512 182.826 175.297 182.794C175.081 182.763 174.834 182.715 174.573 182.604C174.311 182.493 174.095 182.334 173.91 182.111C173.725 181.889 173.633 181.587 173.633 181.206C173.633 180.952 173.694 180.714 173.802 180.523C173.91 180.332 174.064 180.174 174.264 180.062C174.465 179.951 174.68 179.856 174.927 179.792C175.173 179.729 175.451 179.697 175.759 179.681L177.731 179.554C178.054 179.538 178.285 179.475 178.408 179.395C178.532 179.3 178.593 179.109 178.593 178.808C178.593 178.411 178.439 178.125 178.131 177.918C177.823 177.712 177.284 177.616 176.498 177.616C175.774 177.616 175.266 177.728 174.973 177.934C174.665 178.141 174.48 178.506 174.403 178.998H173.895V178.982ZM178.593 179.681H178.578C178.424 179.84 178.116 179.935 177.669 179.967L175.759 180.094C175.235 180.126 174.834 180.221 174.557 180.396C174.28 180.555 174.141 180.825 174.141 181.206C174.141 181.46 174.203 181.667 174.311 181.825C174.434 181.984 174.588 182.111 174.773 182.191C174.958 182.27 175.158 182.334 175.358 182.35C175.558 182.366 175.759 182.397 175.974 182.397C176.282 182.397 176.575 182.366 176.883 182.302C177.191 182.238 177.469 182.127 177.731 181.984C177.992 181.841 178.193 181.667 178.347 181.444C178.501 181.222 178.578 180.968 178.578 180.666V179.697L178.593 179.681Z" fill="#040A45" stroke="#040A45" stroke-width="0.420276"/>
<path d="M181.048 175.57H181.557V177.349H183.236V177.762H181.557V181.574C181.557 181.876 181.634 182.083 181.803 182.178C181.972 182.273 182.234 182.321 182.573 182.321C182.681 182.321 182.835 182.321 183.051 182.273C183.128 182.273 183.205 182.273 183.282 182.257V182.67C183.066 182.718 182.789 182.734 182.419 182.734C181.849 182.734 181.479 182.623 181.31 182.416C181.141 182.21 181.048 181.844 181.048 181.304V177.762H179.77V177.349H181.048V175.57Z" fill="#040A45" stroke="#040A45" stroke-width="0.420276"/>
<path d="M184 175.273H184.508V176.369H184V175.273ZM184 177.354H184.508V182.643H184V177.354Z" fill="#040A45" stroke="#040A45" stroke-width="0.420276"/>
<path d="M185.677 178.927C185.815 178.593 186.031 178.292 186.308 178.022C186.586 177.767 186.924 177.561 187.325 177.402C187.725 177.259 188.172 177.18 188.65 177.18C189.127 177.18 189.59 177.259 189.99 177.402C190.391 177.545 190.714 177.751 190.991 178.022C191.269 178.276 191.469 178.577 191.623 178.927C191.777 179.276 191.839 179.626 191.839 179.991C191.839 180.356 191.762 180.722 191.623 181.055C191.484 181.389 191.269 181.691 190.991 181.961C190.714 182.215 190.375 182.421 189.99 182.58C189.59 182.723 189.143 182.802 188.65 182.802C188.157 182.802 187.725 182.723 187.325 182.58C186.924 182.437 186.586 182.231 186.308 181.961C186.031 181.706 185.831 181.405 185.677 181.055C185.523 180.706 185.461 180.356 185.461 179.991C185.461 179.626 185.538 179.26 185.677 178.927ZM186.139 180.881C186.247 181.166 186.416 181.421 186.647 181.643C186.878 181.865 187.155 182.056 187.494 182.183C187.833 182.31 188.218 182.374 188.634 182.374C189.05 182.374 189.451 182.31 189.79 182.183C190.129 182.056 190.406 181.865 190.637 181.643C190.868 181.421 191.022 181.166 191.145 180.881C191.253 180.595 191.315 180.293 191.315 179.991C191.315 179.689 191.253 179.388 191.145 179.102C191.038 178.816 190.868 178.562 190.637 178.339C190.406 178.117 190.129 177.926 189.79 177.799C189.451 177.672 189.066 177.609 188.634 177.609C188.203 177.609 187.818 177.672 187.479 177.799C187.14 177.926 186.863 178.117 186.632 178.339C186.401 178.562 186.247 178.816 186.123 179.102C186.016 179.388 185.954 179.689 185.954 179.991C185.954 180.293 186.016 180.595 186.123 180.881H186.139Z" fill="#040A45" stroke="#040A45" stroke-width="0.420276"/>
<path d="M192.734 177.346H193.243V178.395H193.258C193.458 178.045 193.751 177.743 194.152 177.521C194.552 177.299 195.045 177.188 195.631 177.188C196.216 177.188 196.709 177.267 197.079 177.426C197.448 177.585 197.71 177.775 197.864 177.998C198.018 178.22 198.126 178.458 198.157 178.665C198.188 178.887 198.219 179.109 198.219 179.379V182.636H197.71V179.395C197.71 179.109 197.679 178.871 197.618 178.649C197.556 178.426 197.448 178.252 197.294 178.093C197.14 177.934 196.925 177.807 196.647 177.728C196.37 177.648 196.031 177.6 195.631 177.6C195.23 177.6 194.891 177.648 194.583 177.759C194.275 177.87 194.028 178.013 193.828 178.204C193.628 178.395 193.489 178.601 193.381 178.839C193.289 179.078 193.243 179.316 193.243 179.554V182.636H192.734V177.346Z" fill="#040A45" stroke="#040A45" stroke-width="0.420276"/>
<path d="M206.07 175.836H210.168C210.476 175.836 210.769 175.868 211.031 175.931C211.308 175.995 211.554 176.09 211.785 176.249C212.016 176.408 212.201 176.614 212.34 176.884C212.479 177.154 212.54 177.488 212.54 177.885C212.54 178.536 212.34 179.044 211.924 179.41C211.524 179.775 210.892 179.966 210.075 179.966H206.563V183.206H206.055V175.836H206.07ZM206.578 179.553H210.075C210.337 179.553 210.584 179.521 210.815 179.473C211.046 179.426 211.262 179.33 211.446 179.203C211.631 179.076 211.785 178.901 211.893 178.695C212.001 178.473 212.063 178.218 212.063 177.901C212.063 177.52 211.986 177.202 211.847 176.98C211.708 176.741 211.524 176.582 211.308 176.471C211.092 176.376 210.876 176.312 210.676 176.281C210.461 176.249 210.229 176.249 209.983 176.249H206.609V179.553H206.578Z" fill="#040A45" stroke="#040A45" stroke-width="0.420276"/>
<path d="M213.418 175.836H213.926V183.206H213.418V175.836Z" fill="#040A45" stroke="#040A45" stroke-width="0.420276"/>
<path d="M215.133 179.545C215.225 178.878 215.472 178.417 215.872 178.147C216.273 177.877 216.889 177.75 217.752 177.75C218.615 177.75 219.262 177.861 219.693 178.099C220.124 178.338 220.34 178.735 220.34 179.307V182.261C220.34 182.499 220.355 182.658 220.402 182.753C220.448 182.849 220.54 182.896 220.71 182.896C220.864 182.896 221.033 182.864 221.203 182.817V183.23C221.049 183.277 220.833 183.309 220.586 183.309C220.278 183.309 220.078 183.23 220.001 183.055C219.924 182.88 219.893 182.579 219.893 182.15H219.878C219.724 182.404 219.539 182.61 219.323 182.785C219.092 182.944 218.861 183.071 218.615 183.166C218.368 183.246 218.122 183.309 217.89 183.341C217.659 183.373 217.428 183.389 217.197 183.389C216.966 183.389 216.751 183.389 216.535 183.357C216.319 183.325 216.073 183.277 215.811 183.166C215.549 183.055 215.333 182.896 215.148 182.674C214.964 182.452 214.871 182.15 214.871 181.769C214.871 181.514 214.933 181.276 215.041 181.086C215.148 180.895 215.302 180.736 215.503 180.625C215.703 180.514 215.919 180.418 216.165 180.355C216.412 180.291 216.689 180.26 216.997 180.244L218.969 180.117C219.292 180.101 219.523 180.037 219.647 179.958C219.77 179.863 219.832 179.672 219.832 179.37C219.832 178.973 219.677 178.687 219.369 178.481C219.061 178.274 218.522 178.179 217.736 178.179C217.012 178.179 216.504 178.29 216.211 178.497C215.903 178.703 215.718 179.068 215.641 179.561H215.133V179.545ZM219.832 180.244H219.816C219.662 180.403 219.354 180.498 218.907 180.53L216.997 180.657C216.473 180.688 216.073 180.784 215.795 180.958C215.518 181.117 215.379 181.387 215.379 181.769C215.379 182.023 215.441 182.229 215.549 182.388C215.672 182.547 215.826 182.674 216.011 182.753C216.196 182.833 216.396 182.896 216.596 182.912C216.797 182.928 216.997 182.96 217.213 182.96C217.521 182.96 217.813 182.928 218.122 182.864C218.43 182.801 218.707 182.69 218.969 182.547C219.231 182.404 219.431 182.229 219.585 182.007C219.739 181.784 219.816 181.53 219.816 181.228V180.26L219.832 180.244Z" fill="#040A45" stroke="#040A45" stroke-width="0.420276"/>
<path d="M222.271 176.145H222.779V177.923H224.458V178.336H222.779V182.149C222.779 182.45 222.856 182.657 223.026 182.752C223.195 182.847 223.457 182.895 223.796 182.895C223.904 182.895 224.058 182.895 224.273 182.847C224.35 182.847 224.428 182.847 224.505 182.831V183.244C224.289 183.292 224.012 183.308 223.642 183.308C223.072 183.308 222.702 183.197 222.533 182.99C222.363 182.784 222.271 182.419 222.271 181.878V178.336H220.992V177.923H222.271V176.145Z" fill="#040A45" stroke="#040A45" stroke-width="0.420276"/>
<path d="M225.774 178.331H224.449V177.918H225.774V177.124C225.774 176.663 225.882 176.329 226.082 176.107C226.282 175.885 226.668 175.773 227.207 175.773C227.361 175.773 227.638 175.789 228.039 175.837H228.085V176.25C227.962 176.234 227.838 176.218 227.684 176.202C227.53 176.202 227.407 176.202 227.284 176.202C227.176 176.202 227.083 176.202 226.976 176.202C226.883 176.202 226.775 176.25 226.668 176.298C226.56 176.345 226.467 176.425 226.39 176.536C226.313 176.647 226.282 176.79 226.282 176.981V177.918H227.915V178.331H226.282V183.207H225.774V178.331Z" fill="#040A45" stroke="#040A45" stroke-width="0.420276"/>
<path d="M228.341 179.493C228.479 179.16 228.695 178.858 228.972 178.588C229.25 178.334 229.588 178.127 229.989 177.968C230.39 177.826 230.836 177.746 231.314 177.746C231.791 177.746 232.254 177.826 232.654 177.968C233.055 178.111 233.378 178.318 233.655 178.588C233.933 178.842 234.133 179.144 234.287 179.493C234.441 179.843 234.503 180.192 234.503 180.557C234.503 180.923 234.426 181.288 234.287 181.622C234.148 181.955 233.933 182.257 233.655 182.527C233.378 182.781 233.039 182.988 232.654 183.146C232.254 183.289 231.807 183.369 231.314 183.369C230.821 183.369 230.39 183.289 229.989 183.146C229.588 183.004 229.25 182.797 228.972 182.527C228.695 182.273 228.495 181.971 228.341 181.622C228.187 181.272 228.125 180.923 228.125 180.557C228.125 180.192 228.202 179.827 228.341 179.493ZM228.803 181.447C228.911 181.733 229.08 181.987 229.311 182.209C229.542 182.432 229.82 182.622 230.158 182.749C230.497 182.876 230.883 182.94 231.298 182.94C231.714 182.94 232.115 182.876 232.454 182.749C232.793 182.622 233.07 182.432 233.301 182.209C233.532 181.987 233.686 181.733 233.809 181.447C233.917 181.161 233.979 180.859 233.979 180.557C233.979 180.256 233.917 179.954 233.809 179.668C233.702 179.382 233.532 179.128 233.301 178.906C233.07 178.683 232.793 178.493 232.454 178.366C232.115 178.238 231.73 178.175 231.298 178.175C230.867 178.175 230.482 178.238 230.143 178.366C229.804 178.493 229.527 178.683 229.296 178.906C229.065 179.128 228.911 179.382 228.787 179.668C228.68 179.954 228.618 180.256 228.618 180.557C228.618 180.859 228.68 181.161 228.787 181.447H228.803Z" fill="#040A45" stroke="#040A45" stroke-width="0.420276"/>
<path d="M235.383 177.909H235.891V179.164H235.906C236.091 178.703 236.384 178.354 236.8 178.115C237.2 177.877 237.693 177.75 238.248 177.75C238.371 177.75 238.51 177.766 238.664 177.814V178.29C238.664 178.29 238.525 178.258 238.433 178.242C238.34 178.227 238.233 178.242 238.078 178.242C237.385 178.242 236.846 178.449 236.461 178.862C236.076 179.275 235.876 179.783 235.876 180.355V183.214H235.367V177.925L235.383 177.909Z" fill="#040A45" stroke="#040A45" stroke-width="0.420276"/>
<path d="M239.273 177.909H239.782V178.814H239.797C240.013 178.481 240.321 178.211 240.706 178.036C241.091 177.845 241.507 177.75 241.969 177.75C242.601 177.75 243.094 177.861 243.433 178.084C243.772 178.306 244.003 178.608 244.126 178.989C244.542 178.163 245.266 177.766 246.314 177.766C247.099 177.766 247.7 177.925 248.085 178.242C248.47 178.56 248.671 179.021 248.671 179.624V183.198H248.162V179.767C248.162 179.291 248.008 178.909 247.715 178.608C247.423 178.306 246.961 178.163 246.329 178.163C245.651 178.163 245.127 178.322 244.773 178.639C244.419 178.957 244.234 179.386 244.234 179.958V183.214H243.726V179.688C243.726 179.211 243.571 178.83 243.279 178.56C242.986 178.29 242.524 178.163 241.892 178.163C241.261 178.163 240.752 178.322 240.367 178.655C239.982 178.989 239.782 179.45 239.782 180.053V183.198H239.273V177.909Z" fill="#040A45" stroke="#040A45" stroke-width="0.420276"/>
</g>
</g>
</g>
<defs>
<filter id="filter0_d_1130_24465" x="48.7151" y="49.3734" width="215.933" height="145.492" filterUnits="userSpaceOnUse" color-interpolation-filters="sRGB">
<feFlood flood-opacity="0" result="BackgroundImageFix"/>
<feColorMatrix in="SourceAlpha" type="matrix" values="0 0 0 0 0 0 0 0 0 0 0 0 0 0 0 0 0 0 127 0" result="hardAlpha"/>
<feOffset dy="0.658333"/>
<feGaussianBlur stdDeviation="4.27917"/>
<feComposite in2="hardAlpha" operator="out"/>
<feColorMatrix type="matrix" values="0 0 0 0 0 0 0 0 0 0 0 0 0 0 0 0 0 0 0.25 0"/>
<feBlend mode="normal" in2="BackgroundImageFix" result="effect1_dropShadow_1130_24465"/>
<feBlend mode="normal" in="SourceGraphic" in2="effect1_dropShadow_1130_24465" result="shape"/>
</filter>
<filter id="filter1_d_1130_24465" x="40.8169" y="63.1995" width="231.733" height="254.116" filterUnits="userSpaceOnUse" color-interpolation-filters="sRGB">
<feFlood flood-opacity="0" result="BackgroundImageFix"/>
<feColorMatrix in="SourceAlpha" type="matrix" values="0 0 0 0 0 0 0 0 0 0 0 0 0 0 0 0 0 0 127 0" result="hardAlpha"/>
<feOffset dy="-1.31667"/>
<feGaussianBlur stdDeviation="3.62083"/>
<feComposite in2="hardAlpha" operator="out"/>
<feColorMatrix type="matrix" values="0 0 0 0 0 0 0 0 0 0 0 0 0 0 0 0 0 0 0.25 0"/>
<feBlend mode="normal" in2="BackgroundImageFix" result="effect1_dropShadow_1130_24465"/>
<feBlend mode="normal" in="SourceGraphic" in2="effect1_dropShadow_1130_24465" result="shape"/>
</filter>
<filter id="filter2_d_1130_24465" x="26.3603" y="85.3285" width="260.647" height="292.904" filterUnits="userSpaceOnUse" color-interpolation-filters="sRGB">
<feFlood flood-opacity="0" result="BackgroundImageFix"/>
<feColorMatrix in="SourceAlpha" type="matrix" values="0 0 0 0 0 0 0 0 0 0 0 0 0 0 0 0 0 0 127 0" result="hardAlpha"/>
<feOffset dy="6.30413"/>
<feGaussianBlur stdDeviation="5.25345"/>
<feComposite in2="hardAlpha" operator="out"/>
<feColorMatrix type="matrix" values="0 0 0 0 0 0 0 0 0 0 0 0 0 0 0 0 0 0 0.35 0"/>
<feBlend mode="normal" in2="BackgroundImageFix" result="effect1_dropShadow_1130_24465"/>
<feBlend mode="normal" in="SourceGraphic" in2="effect1_dropShadow_1130_24465" result="shape"/>
</filter>
<clipPath id="clip0_1130_24465">
<rect width="316" height="412" fill="white"/>
</clipPath>
<clipPath id="clip1_1130_24465">
<rect x="36.8672" y="89.5312" width="239.633" height="271.892" rx="5.26667" fill="white"/>
</clipPath>
<clipPath id="clip2_1130_24465">
<rect width="209.243" height="146.396" fill="white" transform="translate(74.1523 215.461)"/>
</clipPath>
</defs>
</svg>
