<svg width="804" height="804" viewBox="0 0 804 804" fill="none" xmlns="http://www.w3.org/2000/svg">
<g clip-path="url(#clip0_1289_28955)">
<rect width="804" height="804" fill="#E8E8E8"/>
<rect width="804" height="804" fill="#E8E8E8"/>
<rect width="816.253" height="457" transform="translate(-7 174)" fill="#E8E8E8"/>
<path d="M216.844 431.328L259.801 431.328L259.737 431.264L259.737 419.484L230.8 419.484L230.8 370.765L216.844 370.765L216.844 431.328Z" fill="#6B6B6B"/>
<path d="M291.29 431.641C300.549 431.641 309.681 429.328 314.628 425.89L314.691 425.89L314.691 397.259L290.656 397.259L290.656 408.261L301.944 408.261L301.944 418.576C299.852 419.388 295.793 420.138 291.924 420.138C279.431 420.138 275.309 413.262 275.309 401.197C275.309 389.132 279.241 382.006 291.734 382.006C298.647 382.006 302.642 384.131 305.876 388.257L314.501 380.443C309.237 373.067 300.042 370.816 291.417 370.816C272.011 370.816 261.801 381.381 261.801 401.135C261.801 420.889 270.996 431.641 291.29 431.641Z" fill="#6B6B6B"/>
<path d="M361.446 374.383C349.657 374.383 340.078 383.972 340.078 395.75C340.078 407.528 349.657 417.118 361.446 417.118C373.234 417.118 382.813 407.538 382.813 395.75C382.813 383.962 373.234 374.383 361.446 374.383ZM361.446 407.077C355.2 407.077 350.119 401.996 350.119 395.75C350.119 389.505 355.2 384.424 361.446 384.424C367.691 384.424 372.772 389.505 372.772 395.75C372.772 401.996 367.691 407.077 361.446 407.077Z" fill="black"/>
<path d="M401.121 386.519C398.128 386.519 395.338 387.394 392.967 388.884V387.061H385.738V431.875H392.967V414.929C395.331 416.418 398.121 417.294 401.121 417.294C409.6 417.294 416.504 410.394 416.504 401.903C416.504 393.412 409.608 386.512 401.121 386.512V386.519ZM401.121 410.068C396.625 410.068 392.967 406.409 392.967 401.91C392.967 397.411 396.625 393.752 401.121 393.752C405.617 393.752 409.275 397.411 409.275 401.91C409.275 406.409 405.617 410.068 401.121 410.068Z" fill="black"/>
<path d="M426.752 372.031H419.524V377.796H407.531V385.028H419.524V416.844H419.61V416.859H432.911V409.626H426.752V372.031Z" fill="black"/>
<path d="M486.439 386.625C483.635 386.625 480.88 387.421 478.48 388.932L476.095 390.437V387.211H471.418V432.407H476.095V412.879L478.48 414.384C480.88 415.895 483.635 416.691 486.439 416.691C494.723 416.691 501.461 409.95 501.461 401.662C501.461 393.373 494.723 386.632 486.439 386.632V386.625ZM486.439 412.011C480.736 412.011 476.095 407.368 476.095 401.662C476.095 395.955 480.736 391.312 486.439 391.312C492.143 391.312 496.784 395.955 496.784 401.662C496.784 407.368 492.143 412.011 486.439 412.011Z" fill="black"/>
<path fill-rule="evenodd" clip-rule="evenodd" d="M486.439 386.632V386.625C486.308 386.625 486.178 386.627 486.047 386.63C483.378 386.701 480.768 387.491 478.48 388.932L476.095 390.437V387.211H471.418V432.407H476.095V412.879L478.48 414.384C480.88 415.895 483.635 416.691 486.439 416.691C494.723 416.691 501.461 409.95 501.461 401.662C501.461 393.373 494.723 386.632 486.439 386.632ZM478.69 414.052C478.69 414.052 478.69 414.052 478.69 414.052C481.027 415.524 483.709 416.299 486.439 416.299C494.507 416.299 501.069 409.734 501.069 401.662C501.069 393.589 494.507 387.024 486.439 387.024H486.047V387.022C483.453 387.093 480.915 387.862 478.689 389.264L475.703 391.147V387.603H471.81V432.015H475.703V412.169L478.69 414.052ZM486.439 412.403C480.519 412.403 475.703 407.584 475.703 401.662C475.703 395.739 480.519 390.92 486.439 390.92C492.359 390.92 497.176 395.739 497.176 401.662C497.176 407.584 492.359 412.403 486.439 412.403ZM476.095 401.662C476.095 407.368 480.736 412.011 486.439 412.011C492.143 412.011 496.784 407.368 496.784 401.662C496.784 395.955 492.143 391.312 486.439 391.312C480.736 391.312 476.095 395.955 476.095 401.662Z" fill="black"/>
<path d="M552.285 401.621L553.254 400.565L565.752 386.902H560.396L550.76 397.44L549.611 398.691L548.461 397.44L538.825 386.902H533.469L545.967 400.565L546.929 401.621L545.967 402.677L533.469 416.339H538.825L548.461 405.801L549.611 404.55L550.76 405.801L560.396 416.339H565.752L553.254 402.677L552.285 401.621Z" fill="black"/>
<path fill-rule="evenodd" clip-rule="evenodd" d="M551.753 401.621L552.965 400.3L552.965 400.3L564.862 387.294H560.569L551.049 397.705L549.611 399.271L548.172 397.705L538.652 387.294H534.359L546.257 400.3L546.257 400.301L547.459 401.621L546.257 402.941L534.359 415.947H538.652L548.172 405.536L549.611 403.97L551.049 405.537L560.569 415.947H564.862L552.965 402.942L551.753 401.621ZM553.254 402.677L565.752 416.339H560.396L550.76 405.801L549.611 404.55L548.461 405.801L538.825 416.339H533.469L545.967 402.677L546.929 401.621L545.967 400.565L533.469 386.902H538.825L548.461 397.44L549.611 398.691L550.76 397.44L560.396 386.902H565.752L553.254 400.565L552.285 401.621L553.254 402.677Z" fill="black"/>
<path d="M527.26 407.919C526.783 408.563 526.204 409.178 525.597 409.684C523.783 411.145 521.52 411.977 519.12 411.977C515.253 411.977 511.776 409.843 509.99 406.473C509.506 405.511 509.173 404.469 509.022 403.363H510.981H527.267H529.616V403.377H534.055C534.12 402.799 534.156 402.213 534.156 401.627C534.156 393.338 527.419 386.598 519.135 386.598C510.85 386.598 504.113 393.338 504.113 401.627C504.113 409.916 510.85 416.656 519.135 416.656C525.004 416.656 530.339 413.156 532.768 407.919H527.274H527.26ZM526.848 398.987H511.4H509.347C510.612 394.814 514.487 391.769 519.062 391.769C523.638 391.769 527.491 394.727 528.77 398.987H526.855H526.848Z" fill="black"/>
<path fill-rule="evenodd" clip-rule="evenodd" d="M529.616 403.363V403.377H534.055C534.12 402.799 534.156 402.213 534.156 401.627C534.156 393.338 527.419 386.598 519.135 386.598C510.85 386.598 504.113 393.338 504.113 401.627C504.113 409.916 510.85 416.656 519.135 416.656C524.857 416.656 530.07 413.33 532.579 408.311C532.644 408.182 532.707 408.051 532.768 407.919H527.26C526.783 408.563 526.204 409.178 525.597 409.684C523.783 411.145 521.52 411.977 519.12 411.977C515.253 411.977 511.776 409.843 509.99 406.473C509.564 405.625 509.255 404.716 509.083 403.755C509.06 403.625 509.04 403.494 509.022 403.363H529.616ZM527.455 408.311C526.984 408.922 526.43 409.5 525.848 409.985L525.846 409.987L525.843 409.989C523.961 411.505 521.612 412.369 519.12 412.369C515.106 412.369 511.496 410.153 509.644 406.656L509.642 406.653L509.64 406.649C509.137 405.65 508.791 404.567 508.633 403.416L508.572 402.971H530.008V402.985H533.701C533.742 402.534 533.764 402.08 533.764 401.627C533.764 393.555 527.202 386.99 519.135 386.99C511.067 386.99 504.505 393.555 504.505 401.627C504.505 409.699 511.067 416.264 519.135 416.264C524.638 416.264 529.663 413.102 532.139 408.311H527.455ZM508.818 399.379L508.972 398.873C510.285 394.54 514.308 391.377 519.062 391.377C523.814 391.377 527.817 394.451 529.146 398.874L529.298 399.379H508.818ZM509.475 398.595C510.857 394.625 514.631 391.769 519.062 391.769C523.496 391.769 527.252 394.547 528.644 398.595C528.689 398.724 528.731 398.855 528.77 398.987H509.347C509.387 398.855 509.429 398.725 509.475 398.595Z" fill="black"/>
<path d="M436.918 415.942H441.425L462.869 382.401L462.59 415.924H466.323V373.207H464.295L436.918 415.942Z" fill="black"/>
<path fill-rule="evenodd" clip-rule="evenodd" d="M435.484 416.725L463.867 372.422H467.107V416.707H461.799L462.062 385.118L441.855 416.725H435.484ZM462.869 382.4L462.59 415.923H466.323V373.206H464.295L436.918 415.941H441.425L462.869 382.4Z" fill="black"/>
<path d="M375.315 395.939C375.315 403.598 369.106 409.808 361.447 409.808C353.787 409.808 347.578 403.598 347.578 395.939C347.578 388.28 353.787 382.07 361.447 382.07C369.106 382.07 375.315 388.28 375.315 395.939Z" fill="#DBDADA"/>
<path d="M579.117 395.555V386.98H580.058L581.822 391.909C582.046 392.532 582.269 393.167 582.493 393.791H582.54C582.763 393.167 582.963 392.532 583.175 391.909L584.939 386.98H585.88V395.555H585.21V390.121C585.21 389.415 585.257 388.474 585.292 387.757H585.245L584.575 389.674L582.775 394.637H582.211L580.399 389.674L579.729 387.757H579.682C579.717 388.474 579.764 389.415 579.764 390.121V395.555H579.117Z" fill="black"/>
<path d="M574.072 395.555V387.58H571.379V386.98H577.495V387.58H574.79V395.555H574.072Z" fill="black"/>
</g>
<defs>
<clipPath id="clip0_1289_28955">
<rect width="804" height="804" fill="white"/>
</clipPath>
</defs>
</svg>
