<svg width="509" height="28" viewBox="0 0 509 28" fill="none" xmlns="http://www.w3.org/2000/svg">
<rect x="1.05859" y="0.5" width="167" height="27" rx="13.5" stroke="#555555"/>
<path d="M23.6385 20.7769H22.406V6.81996H23.6385V20.7769ZM12.2798 17.1461C14.1414 16.2652 15.5682 15.166 16.5601 13.8484C17.552 12.5308 18.1165 11.0281 18.2534 9.34042H12.9238V8.34112H19.5081C19.5007 10.4434 18.9677 12.3346 17.9092 14.0149C16.8544 15.6915 15.2 17.0721 12.946 18.1565L12.2798 17.1461ZM29.8391 7.47506C30.4572 7.47136 31.0198 7.58239 31.5269 7.80816C32.0376 8.03023 32.4558 8.34482 32.7815 8.75195C33.1072 9.15907 33.3145 9.62911 33.4033 10.1621H36.3346V6.81996H37.5671V14.3036H36.3346V11.1836H33.4089C33.3274 11.7239 33.1239 12.2032 32.7982 12.6215C32.4762 13.036 32.058 13.358 31.5435 13.5875C31.0328 13.8132 30.4646 13.9261 29.8391 13.9261C29.1396 13.9261 28.5141 13.7892 27.9627 13.5153C27.4112 13.2414 26.9819 12.8602 26.6747 12.3716C26.3675 11.8831 26.2157 11.3242 26.2194 10.695C26.2157 10.0695 26.3675 9.51253 26.6747 9.02398C26.9819 8.53173 27.4112 8.15051 27.9627 7.88033C28.5141 7.60645 29.1396 7.47136 29.8391 7.47506ZM27.3964 10.695C27.3964 11.1133 27.5 11.4889 27.7073 11.822C27.9146 12.1514 28.2032 12.4105 28.5734 12.5993C28.9472 12.788 29.3691 12.8824 29.8391 12.8824C30.3018 12.8824 30.7163 12.788 31.0827 12.5993C31.4528 12.4105 31.7415 12.1514 31.9488 11.822C32.156 11.4889 32.2597 11.1133 32.2597 10.695C32.2597 10.2731 32.156 9.89559 31.9488 9.56249C31.7415 9.22939 31.4547 8.97216 31.0883 8.79081C30.7219 8.60575 30.3055 8.51507 29.8391 8.51878C29.3691 8.51507 28.9472 8.60575 28.5734 8.79081C28.2032 8.97216 27.9146 9.22939 27.7073 9.56249C27.5 9.89189 27.3964 10.2694 27.3964 10.695ZM28.5734 15.0142H29.8058V16.7797H36.3346V15.0142H37.5671V20.5881H28.5734V15.0142ZM36.3346 19.5777V17.7679H29.8058V19.5777H36.3346ZM51.4512 14.1149H50.2299V12.3272H46.9322V13.5486H40.5921V7.47506H41.8246V9.48477H45.7108V7.47506H46.9322V8.81857H50.2299V6.81996H51.4512V14.1149ZM45.7108 12.5493V10.4619H41.8246V12.5493H45.7108ZM42.402 14.7922H51.4512V18.0788H43.6567V19.5888H51.9842V20.5881H42.4353V17.135H50.2299V15.7804H42.402V14.7922ZM50.2299 11.3501V9.78456H46.9322V11.3501H50.2299ZM64.8736 13.7374H58.4226V7.77485H64.8736V13.7374ZM59.2331 19.7665C60.0067 19.6443 60.7265 19.4297 61.3927 19.1225C62.0626 18.8153 62.6067 18.4452 63.0249 18.0121C63.4468 17.5754 63.6819 17.1091 63.73 16.6131H59.7772V15.6138H68.9819V16.6131H65.0235C65.0679 17.098 65.3011 17.5588 65.723 17.9955C66.1487 18.4322 66.6983 18.806 67.3719 19.1169C68.0455 19.4278 68.7635 19.6443 69.5259 19.7665L69.0596 20.7325C68.3749 20.614 67.7253 20.4253 67.111 20.1662C66.4966 19.9108 65.9525 19.5962 65.4788 19.2224C65.005 18.8486 64.6368 18.4322 64.374 17.9733C64.1149 18.4322 63.7485 18.8486 63.2747 19.2224C62.8047 19.5962 62.2625 19.909 61.6481 20.1607C61.0337 20.416 60.3842 20.5992 59.6995 20.7103L59.2331 19.7665ZM63.6745 12.7381V8.77415H59.6217V12.7381H63.6745ZM67.5051 6.81996H68.7376V10.1732H70.8361V11.2169H68.7376V14.7922H67.5051V6.81996ZM84.4427 14.7256H78.6801V16.2578H82.8771V20.5881H73.2727V16.2578H77.4698V14.7256H71.7182V13.7263H84.4427V14.7256ZM72.4622 11.9608C73.3504 11.8794 74.1628 11.7128 74.8994 11.4612C75.6396 11.2058 76.2318 10.8782 76.6759 10.4785C77.1237 10.0751 77.3643 9.62171 77.3976 9.11836H73.0284V8.13016H77.4698V6.74224H78.6801V8.13016H83.1436V9.11836H78.7522C78.7818 9.62171 79.0187 10.0751 79.4628 10.4785C79.9107 10.8782 80.5029 11.2058 81.2394 11.4612C81.9796 11.7128 82.7957 11.8794 83.6877 11.9608L83.3213 12.8935C82.1036 12.7677 81.0266 12.4975 80.0902 12.083C79.1538 11.6684 78.482 11.1262 78.0749 10.4563C77.6641 11.1262 76.9905 11.6684 76.0541 12.083C75.1214 12.4975 74.05 12.7677 72.8397 12.8935L72.4622 11.9608ZM81.678 19.5777V17.2571H74.4941V19.5777H81.678ZM93.5302 9.38484H85.6246V8.38553H89.0222V6.69782H90.2436V8.38553H93.5302V9.38484ZM86.4574 12.6936C86.4537 12.1792 86.5832 11.7276 86.846 11.339C87.1125 10.9467 87.4844 10.6432 87.9619 10.4286C88.443 10.2139 88.9963 10.1066 89.6218 10.1066C90.2399 10.1066 90.7895 10.2139 91.2707 10.4286C91.7518 10.6432 92.1275 10.9467 92.3977 11.339C92.6678 11.7276 92.8048 12.1792 92.8085 12.6936C92.8048 13.2044 92.6678 13.6559 92.3977 14.0482C92.1275 14.4369 91.7518 14.7385 91.2707 14.9532C90.7895 15.1641 90.2399 15.2696 89.6218 15.2696C88.9963 15.2696 88.443 15.1641 87.9619 14.9532C87.4844 14.7385 87.1125 14.4369 86.846 14.0482C86.5832 13.6559 86.4537 13.2044 86.4574 12.6936ZM87.6121 12.6936C87.6084 13.0156 87.688 13.3006 87.8508 13.5486C88.0174 13.7966 88.2524 13.989 88.5559 14.126C88.8631 14.2592 89.2184 14.3258 89.6218 14.3258C90.0178 14.3258 90.3676 14.2574 90.6711 14.1204C90.9783 13.9835 91.217 13.7929 91.3872 13.5486C91.5612 13.3006 91.65 13.0156 91.6537 12.6936C91.65 12.3679 91.563 12.0811 91.3928 11.8331C91.2225 11.5852 90.9838 11.3927 90.6766 11.2558C90.3694 11.1151 90.0178 11.0429 89.6218 11.0392C89.2184 11.0429 88.8631 11.1151 88.5559 11.2558C88.2524 11.3927 88.0174 11.5852 87.8508 11.8331C87.688 12.0811 87.6084 12.3679 87.6121 12.6936ZM87.8897 18.3675C87.8897 17.8641 88.0766 17.4348 88.4504 17.0795C88.8242 16.7205 89.3627 16.4484 90.0659 16.2634C90.7729 16.0746 91.613 15.9802 92.5864 15.9802C93.5524 15.9802 94.3852 16.0746 95.0847 16.2634C95.7879 16.4484 96.3264 16.7205 96.7002 17.0795C97.074 17.4348 97.2609 17.8641 97.2609 18.3675C97.2609 18.8634 97.074 19.289 96.7002 19.6443C96.3264 19.9997 95.7879 20.2717 95.0847 20.4604C94.3852 20.6492 93.5524 20.7436 92.5864 20.7436C91.613 20.7436 90.7729 20.6492 90.0659 20.4604C89.3627 20.2754 88.8242 20.0034 88.4504 19.6443C88.0766 19.289 87.8897 18.8634 87.8897 18.3675ZM89.1666 18.3675C89.1666 18.6598 89.3035 18.9134 89.5774 19.128C89.855 19.3427 90.2492 19.5056 90.7599 19.6166C91.2744 19.7276 91.8832 19.7813 92.5864 19.7776C93.2785 19.7813 93.8781 19.7276 94.3852 19.6166C94.8922 19.5056 95.2808 19.3427 95.551 19.128C95.8249 18.9134 95.9618 18.6598 95.9618 18.3675C95.9618 18.0677 95.8249 17.8123 95.551 17.6013C95.2808 17.3867 94.8922 17.2238 94.3852 17.1128C93.8818 17.0017 93.2822 16.9462 92.5864 16.9462C91.8795 16.9462 91.2688 17.0017 90.7544 17.1128C90.2436 17.2238 89.8513 17.3867 89.5774 17.6013C89.3035 17.8123 89.1666 18.0677 89.1666 18.3675ZM93.508 12.8935H95.9507V11.1947H93.5191V10.1732H95.9507V6.81996H97.1832V15.847H95.9507V13.915H93.508V12.8935ZM115.469 20.7769H114.292V13.4487H112.249V20.0441H111.105V7.13085H112.249V12.4272H114.292V6.81996H115.469V20.7769ZM104.055 8.52988H109.284V9.54028H105.287V16.2689C106.309 16.2652 107.178 16.2356 107.896 16.1801C108.618 16.1246 109.347 16.0209 110.084 15.8692L110.195 16.9018C109.41 17.0684 108.637 17.1794 107.874 17.2349C107.115 17.2867 106.142 17.3163 104.954 17.3237H104.055V8.52988ZM122.402 10.5729C122.399 11.3982 122.567 12.218 122.908 13.0323C123.248 13.8465 123.707 14.5701 124.284 15.203C124.865 15.8322 125.496 16.3022 126.177 16.6131L125.422 17.5902C124.897 17.3311 124.399 16.9832 123.929 16.5465C123.459 16.1061 123.041 15.5972 122.674 15.0198C122.308 14.4424 122.016 13.8262 121.797 13.1711C121.583 13.8669 121.292 14.522 120.926 15.1364C120.563 15.7471 120.143 16.2874 119.665 16.7575C119.188 17.2275 118.679 17.5976 118.139 17.8678L117.361 16.8352C118.05 16.5169 118.685 16.0321 119.266 15.3807C119.847 14.7256 120.307 13.9761 120.648 13.1322C120.992 12.2884 121.166 11.4353 121.17 10.5729V8.03023H122.402V10.5729ZM127.71 6.81996H128.942V20.7991H127.71V6.81996ZM144.114 18.9892H131.334V17.9566H137.075V14.9476H132.844V7.80816H134.077V10.3286H141.327V7.80816H142.549V14.9476H138.296V17.9566H144.114V18.9892ZM141.327 13.9372V11.339H134.077V13.9372H141.327ZM156.5 14.5479H146.862V8.11905H156.366V9.14056H148.083V13.5264H156.5V14.5479ZM145.23 17.8345H158.01V18.8671H145.23V17.8345Z" fill="#555555"/>
<circle cx="177.668" cy="13.9999" r="2.67961" fill="#555555"/>
<rect x="187.281" y="0.5" width="195" height="27" rx="13.5" stroke="#555555"/>
<path d="M210.962 14.9365H205.3V17.7901H204.056V14.9365H198.182V13.915H210.962V14.9365ZM199.637 9.98442C199.633 9.41445 199.833 8.9185 200.236 8.49657C200.644 8.07464 201.217 7.75079 201.958 7.52502C202.701 7.29555 203.568 7.17897 204.556 7.17527C205.548 7.17897 206.414 7.29555 207.154 7.52502C207.894 7.75079 208.466 8.07464 208.869 8.49657C209.273 8.9185 209.474 9.41445 209.474 9.98442C209.474 10.5507 209.273 11.0448 208.869 11.4667C208.466 11.8849 207.892 12.2069 207.148 12.4327C206.408 12.6585 205.544 12.7714 204.556 12.7714C203.568 12.7714 202.701 12.6585 201.958 12.4327C201.217 12.2069 200.644 11.8849 200.236 11.4667C199.833 11.0448 199.633 10.5507 199.637 9.98442ZM199.837 16.3911H201.069V19.4223H209.541V20.466H199.837V16.3911ZM200.947 9.98442C200.943 10.3434 201.091 10.658 201.391 10.9282C201.691 11.1947 202.113 11.4001 202.657 11.5444C203.205 11.6888 203.838 11.761 204.556 11.761C205.277 11.761 205.91 11.6888 206.454 11.5444C207.002 11.4001 207.426 11.1947 207.726 10.9282C208.026 10.658 208.175 10.3434 208.175 9.98442C208.175 9.61801 208.026 9.29971 207.726 9.02953C207.426 8.75935 207.002 8.55209 206.454 8.40774C205.91 8.2597 205.277 8.18567 204.556 8.18567C203.838 8.18567 203.205 8.2597 202.657 8.40774C202.113 8.55209 201.691 8.75935 201.391 9.02953C201.091 9.29971 200.943 9.61801 200.947 9.98442ZM215.914 7.66382C216.506 7.66382 217.048 7.7656 217.54 7.96916C218.033 8.17272 218.444 8.46326 218.773 8.84077H222.437V6.81996H223.67V15.092H222.437V13.0934H218.773C218.444 13.4709 218.035 13.7633 217.546 13.9705C217.057 14.1741 216.523 14.274 215.942 14.2703C215.253 14.274 214.633 14.1371 214.082 13.8595C213.53 13.5782 213.097 13.1859 212.783 12.6825C212.472 12.1792 212.318 11.6092 212.322 10.9726C212.318 10.3323 212.47 9.76235 212.777 9.2627C213.088 8.75935 213.517 8.36703 214.065 8.08574C214.613 7.80446 215.229 7.66382 215.914 7.66382ZM213.499 10.9726C213.499 11.4019 213.602 11.7887 213.81 12.1329C214.021 12.4734 214.311 12.7399 214.681 12.9324C215.055 13.1248 215.475 13.2192 215.942 13.2155C216.397 13.2192 216.808 13.1248 217.174 12.9324C217.544 12.7399 217.835 12.4716 218.046 12.1274C218.257 11.7832 218.362 11.3982 218.362 10.9726C218.362 10.5396 218.257 10.1528 218.046 9.81232C217.838 9.46811 217.55 9.20163 217.18 9.01287C216.813 8.82042 216.401 8.72604 215.942 8.72974C215.475 8.72604 215.055 8.82042 214.681 9.01287C214.311 9.20163 214.021 9.46811 213.81 9.81232C213.602 10.1528 213.499 10.5396 213.499 10.9726ZM214.365 18.0788C214.361 17.5236 214.546 17.0462 214.92 16.6464C215.298 16.243 215.838 15.9377 216.541 15.7304C217.244 15.5194 218.077 15.414 219.039 15.414C219.998 15.414 220.829 15.5194 221.532 15.7304C222.235 15.9377 222.774 16.243 223.148 16.6464C223.525 17.0462 223.714 17.5236 223.714 18.0788C223.714 18.6339 223.525 19.1114 223.148 19.5111C222.774 19.9145 222.235 20.2199 221.532 20.4271C220.829 20.6381 219.998 20.7436 219.039 20.7436C218.077 20.7436 217.244 20.6381 216.541 20.4271C215.838 20.2199 215.298 19.9145 214.92 19.5111C214.546 19.1114 214.361 18.6339 214.365 18.0788ZM215.575 18.0788C215.571 18.423 215.708 18.7209 215.986 18.9726C216.267 19.2243 216.669 19.4167 217.191 19.55C217.713 19.6869 218.329 19.7554 219.039 19.7554C219.75 19.7554 220.366 19.6869 220.888 19.55C221.41 19.4167 221.812 19.2243 222.093 18.9726C222.374 18.7209 222.515 18.423 222.515 18.0788C222.515 17.7272 222.374 17.4237 222.093 17.1683C221.812 16.9129 221.41 16.7186 220.888 16.5854C220.366 16.4484 219.75 16.38 219.039 16.38C218.329 16.38 217.713 16.4484 217.191 16.5854C216.669 16.7186 216.267 16.9129 215.986 17.1683C215.708 17.4237 215.571 17.7272 215.575 18.0788ZM219.361 9.85118C219.487 10.2065 219.55 10.5803 219.55 10.9726C219.55 11.3501 219.489 11.7165 219.367 12.0719H222.437V9.85118H219.361ZM233.468 11.6863C234.416 11.6863 235.172 12.4419 235.172 13.3905C235.172 14.3391 234.416 15.0947 233.468 15.0947C232.519 15.0947 231.763 14.3391 231.763 13.3905C231.763 12.4419 232.519 11.6863 233.468 11.6863ZM254.831 15.2141H249.146V17.9455H247.924V15.2141H242.051V14.2037H254.831V15.2141ZM243.694 16.6575H244.915V19.4445H253.409V20.466H243.694V16.6575ZM243.76 7.2641H244.993V9.06284H251.899V7.2641H253.132V12.838H243.76V7.2641ZM251.899 11.8387V10.0066H244.993V11.8387H251.899ZM260.731 9.06284C260.728 9.69203 260.872 10.3009 261.164 10.8893C261.457 11.4741 261.864 11.9904 262.386 12.4383C262.911 12.8861 263.511 13.2266 264.184 13.4598L263.507 14.448C262.734 14.1593 262.054 13.7318 261.47 13.1655C260.885 12.5993 260.443 11.9423 260.143 11.1947C259.847 12.02 259.395 12.7418 258.788 13.3598C258.185 13.9779 257.474 14.448 256.656 14.77L255.99 13.7596C256.69 13.5079 257.304 13.147 257.833 12.677C258.363 12.2032 258.773 11.6518 259.066 11.0226C259.358 10.3897 259.506 9.71794 259.51 9.00732V7.53058H260.731V9.06284ZM258.144 15.847H267.538V20.7769H266.305V16.8352H258.144V15.847ZM263.196 9.75125H266.305V6.81996H267.538V15.0698H266.305V10.7839H263.196V9.75125ZM277.336 11.6863C278.284 11.6863 279.04 12.4419 279.04 13.3905C279.04 14.3391 278.284 15.0947 277.336 15.0947C276.387 15.0947 275.632 14.3391 275.632 13.3905C275.632 12.4419 276.387 11.6863 277.336 11.6863ZM297.511 13.9594H296.278V12.4938H292.547V11.5167H296.278V9.84008H292.753C292.323 10.9282 291.585 11.8461 290.538 12.5937C289.49 13.3376 288.184 13.8965 286.618 14.2703L286.174 13.2488C287.31 12.986 288.287 12.6289 289.105 12.1773C289.923 11.7258 290.56 11.1947 291.015 10.584C291.474 9.96961 291.741 9.28861 291.815 8.54098H286.885V7.51947H293.18C293.18 7.98581 293.136 8.42995 293.047 8.85188H296.278V6.81996H297.511V13.9594ZM288.461 14.5923H297.511V17.9899H289.716V19.6332H297.988V20.6436H288.495V17.0462H296.278V15.5916H288.461V14.5923ZM307.575 9.09615V9.24605C307.568 10.1047 307.538 10.9467 307.486 11.7721C307.438 12.5974 307.331 13.5486 307.164 14.6256L305.932 14.5257C306.098 13.4894 306.208 12.5604 306.259 11.7388C306.315 10.9171 306.343 10.1288 306.343 9.37373H300.48V8.36333H307.575V9.09615ZM299.692 16.6686C301.006 16.6612 302.009 16.6483 302.701 16.6298V12.3494H303.922V16.5965C305.706 16.5261 307.231 16.4133 308.497 16.2578L308.563 17.1905C306.376 17.531 303.632 17.7013 300.33 17.7013H299.847L299.692 16.6686ZM309.374 6.81996H310.606V12.6603H312.872V13.7263H310.606V20.7769H309.374V6.81996ZM329.692 20.7769H328.515V13.4487H326.472V20.0441H325.328V7.13085H326.472V12.4272H328.515V6.81996H329.692V20.7769ZM318.277 8.52988H323.507V9.54028H319.51V16.2689C320.531 16.2652 321.401 16.2356 322.119 16.1801C322.841 16.1246 323.57 16.0209 324.306 15.8692L324.417 16.9018C323.633 17.0684 322.859 17.1794 322.097 17.2349C321.338 17.2867 320.365 17.3163 319.177 17.3237H318.277V8.52988ZM336.625 10.5729C336.621 11.3982 336.79 12.218 337.13 13.0323C337.471 13.8465 337.93 14.5701 338.507 15.203C339.088 15.8322 339.719 16.3022 340.4 16.6131L339.645 17.5902C339.12 17.3311 338.622 16.9832 338.152 16.5465C337.682 16.1061 337.263 15.5972 336.897 15.0198C336.531 14.4424 336.238 13.8262 336.02 13.1711C335.805 13.8669 335.515 14.522 335.148 15.1364C334.786 15.7471 334.365 16.2874 333.888 16.7575C333.411 17.2275 332.902 17.5976 332.361 17.8678L331.584 16.8352C332.272 16.5169 332.907 16.0321 333.488 15.3807C334.069 14.7256 334.53 13.9761 334.871 13.1322C335.215 12.2884 335.389 11.4353 335.393 10.5729V8.03023H336.625V10.5729ZM341.932 6.81996H343.165V20.7991H341.932V6.81996ZM358.337 18.9892H345.557V17.9566H351.297V14.9476H347.067V7.80816H348.3V10.3286H355.55V7.80816H356.771V14.9476H352.519V17.9566H358.337V18.9892ZM355.55 13.9372V11.339H348.3V13.9372H355.55ZM370.722 14.5479H361.084V8.11905H370.589V9.14056H362.306V13.5264H370.722V14.5479ZM359.452 17.8345H372.232V18.8671H359.452V17.8345Z" fill="#555555"/>
<circle cx="391.891" cy="13.9999" r="2.67961" fill="#555555"/>
<rect x="401.5" y="0.5" width="107" height="27" rx="13.5" stroke="#555555"/>
<path d="M424.107 20.7769H422.908V6.81996H424.107V20.7769ZM412.704 8.54098H417.967V9.56249H413.903V16.3689C414.965 16.3652 415.848 16.3355 416.551 16.28C417.258 16.2208 417.97 16.1135 418.688 15.958L418.811 17.0017C418.044 17.1609 417.284 17.2682 416.529 17.3237C415.774 17.3756 414.795 17.4052 413.592 17.4126H412.704V8.54098ZM417.023 12.1496H420.076V7.15306H421.253V20.0441H420.076V13.1822H417.023V12.1496ZM437.558 20.7991H436.326V6.81996H437.558V20.7991ZM426.577 12.7603C426.577 11.7869 426.727 10.9338 427.026 10.2009C427.33 9.46811 427.752 8.90184 428.292 8.50212C428.833 8.1024 429.449 7.90069 430.141 7.89699C430.829 7.90069 431.442 8.1024 431.979 8.50212C432.519 8.90184 432.941 9.46996 433.244 10.2065C433.552 10.9393 433.705 11.7906 433.705 12.7603C433.705 13.7337 433.552 14.5886 433.244 15.3251C432.941 16.0617 432.519 16.6298 431.979 17.0295C431.438 17.4255 430.826 17.6235 430.141 17.6235C429.449 17.6235 428.833 17.4255 428.292 17.0295C427.752 16.6298 427.33 16.0635 427.026 15.3307C426.727 14.5942 426.577 13.7374 426.577 12.7603ZM427.765 12.7603C427.765 13.5079 427.865 14.1667 428.065 14.7367C428.264 15.3066 428.544 15.7471 428.903 16.058C429.266 16.3689 429.678 16.5243 430.141 16.5243C430.604 16.5243 431.013 16.3689 431.368 16.058C431.727 15.7471 432.006 15.3066 432.206 14.7367C432.406 14.1667 432.506 13.5079 432.506 12.7603C432.506 12.0163 432.406 11.3612 432.206 10.795C432.006 10.225 431.727 9.78456 431.368 9.47366C431.013 9.15907 430.604 8.99992 430.141 8.99622C429.678 8.99992 429.266 9.15907 428.903 9.47366C428.544 9.78456 428.264 10.225 428.065 10.795C427.865 11.3612 427.765 12.0163 427.765 12.7603ZM451.52 20.7991H450.298V13.1156H447.345V12.0941H450.298V6.81996H451.52V20.7991ZM440.594 8.09685H447.112V9.11836H441.838V12.0274H446.49V13.0267H441.838V16.4022C443.222 16.3985 444.362 16.3689 445.258 16.3133C446.153 16.2578 447.053 16.1468 447.956 15.9802L448.1 17.0017C447.119 17.1609 446.151 17.2719 445.196 17.3348C444.245 17.3941 443.066 17.4274 441.66 17.4348H440.594V8.09685ZM462.844 10.5729C462.84 11.3982 463.008 12.218 463.349 13.0323C463.689 13.8465 464.148 14.5701 464.726 15.203C465.307 15.8322 465.938 16.3022 466.619 16.6131L465.864 17.5902C465.338 17.3311 464.84 16.9832 464.37 16.5465C463.9 16.1061 463.482 15.5972 463.116 15.0198C462.749 14.4424 462.457 13.8262 462.239 13.1711C462.024 13.8669 461.733 14.522 461.367 15.1364C461.004 15.7471 460.584 16.2874 460.107 16.7575C459.629 17.2275 459.12 17.5976 458.58 17.8678L457.803 16.8352C458.491 16.5169 459.126 16.0321 459.707 15.3807C460.288 14.7256 460.749 13.9761 461.089 13.1322C461.434 12.2884 461.608 11.4353 461.611 10.5729V8.03023H462.844V10.5729ZM468.151 6.81996H469.384V20.7991H468.151V6.81996ZM482.69 10.3619H484.789V11.4168H482.69V15.0142H481.458V6.81996H482.69V10.3619ZM471.754 13.8928C472.894 13.5856 473.882 13.1785 474.718 12.6714C475.558 12.1644 476.219 11.5778 476.7 10.9115C477.181 10.2416 477.463 9.51438 477.544 8.72974H472.386V7.70823H478.86C478.856 8.87408 478.591 9.9289 478.066 10.8727C477.544 11.8165 476.791 12.6252 475.806 13.2988C474.822 13.9687 473.641 14.485 472.264 14.8477L471.754 13.8928ZM473.552 15.6471H482.69V20.7769H481.458V16.6575H473.552V15.6471ZM496.497 12.7603H498.729V13.804H496.497V20.7769H495.264V6.81996H496.497V12.7603ZM485.493 17.0573C487.166 17.0499 488.451 17.0332 489.346 17.0073V15.4695C488.806 15.4066 488.332 15.2622 487.925 15.0364C487.522 14.8107 487.211 14.5183 486.992 14.1593C486.774 13.8003 486.667 13.3932 486.67 12.9379C486.667 12.4198 486.802 11.9645 487.076 11.5722C487.349 11.1799 487.736 10.8764 488.236 10.6617C488.736 10.4471 489.313 10.3397 489.968 10.3397C490.616 10.3397 491.189 10.4471 491.689 10.6617C492.192 10.8764 492.583 11.1799 492.86 11.5722C493.142 11.9645 493.284 12.4198 493.288 12.9379C493.284 13.3932 493.169 13.8021 492.944 14.1648C492.722 14.5238 492.407 14.8162 492 15.042C491.593 15.2641 491.119 15.4066 490.579 15.4695V16.9573C492.03 16.8907 493.306 16.776 494.409 16.6131L494.498 17.5458C493.144 17.7753 491.754 17.9252 490.329 17.9955C488.904 18.0658 487.362 18.101 485.704 18.101L485.493 17.0573ZM485.749 8.52988H489.346V6.84217H490.579V8.52988H494.165V9.52918H485.749V8.52988ZM487.825 12.9379C487.825 13.2562 487.914 13.5356 488.092 13.7762C488.269 14.0168 488.519 14.2037 488.841 14.3369C489.167 14.4665 489.542 14.5294 489.968 14.5257C490.39 14.5294 490.762 14.4665 491.084 14.3369C491.406 14.2037 491.656 14.0168 491.833 13.7762C492.011 13.5356 492.1 13.2562 492.1 12.9379C492.1 12.6159 492.011 12.3328 491.833 12.0885C491.656 11.8405 491.406 11.6481 491.084 11.5111C490.762 11.3742 490.39 11.3057 489.968 11.3057C489.542 11.3057 489.167 11.3742 488.841 11.5111C488.519 11.6444 488.269 11.835 488.092 12.083C487.914 12.3309 487.825 12.6159 487.825 12.9379Z" fill="#555555"/>
</svg>
