<svg width="258" height="46" viewBox="0 0 258 46" fill="none" xmlns="http://www.w3.org/2000/svg">
<rect x="61.7274" y="0.366089" width="125.911" height="19.7688" rx="9.88439" stroke="#555555" stroke-width="0.732177"/>
<path d="M78.1681 15.7202H77.2316V5.1154H78.1681V15.7202ZM69.5375 12.9614C70.952 12.2921 72.0361 11.4569 72.7898 10.4558C73.5434 9.45463 73.9723 8.31287 74.0764 7.03051H70.0268V6.27122H75.0297C75.0241 7.86855 74.6191 9.30558 73.8148 10.5823C73.0133 11.8562 71.7563 12.9052 70.0437 13.7292L69.5375 12.9614ZM82.8795 5.61316C83.3491 5.61035 83.7766 5.69472 84.1618 5.86626C84.5499 6.03499 84.8677 6.27403 85.1152 6.58337C85.3627 6.89271 85.5201 7.24986 85.5876 7.65482H87.8149V5.1154H88.7514V10.8017H87.8149V8.43099H85.5919C85.53 8.84157 85.3753 9.20575 85.1278 9.52353C84.8832 9.83849 84.5654 10.0832 84.1745 10.2575C83.7864 10.4291 83.3547 10.5148 82.8795 10.5148C82.348 10.5148 81.8727 10.4108 81.4537 10.2027C81.0347 9.99457 80.7085 9.70491 80.4751 9.3337C80.2416 8.96249 80.1263 8.53785 80.1292 8.05978C80.1263 7.58452 80.2416 7.16128 80.4751 6.79007C80.7085 6.41605 81.0347 6.12639 81.4537 5.9211C81.8727 5.713 82.348 5.61035 82.8795 5.61316ZM81.0234 8.05978C81.0234 8.37756 81.1022 8.66299 81.2597 8.91609C81.4171 9.16638 81.6365 9.36323 81.9177 9.50665C82.2017 9.65008 82.5223 9.72179 82.8795 9.72179C83.231 9.72179 83.546 9.65008 83.8244 9.50665C84.1056 9.36323 84.325 9.16638 84.4824 8.91609C84.6399 8.66299 84.7187 8.37756 84.7187 8.05978C84.7187 7.73919 84.6399 7.45234 84.4824 7.19924C84.325 6.94615 84.107 6.7507 83.8286 6.6129C83.5502 6.47229 83.2338 6.40339 82.8795 6.4062C82.5223 6.40339 82.2017 6.47229 81.9177 6.6129C81.6365 6.7507 81.4171 6.94615 81.2597 7.19924C81.1022 7.44953 81.0234 7.73637 81.0234 8.05978ZM81.9177 11.3416H82.8542V12.683H87.8149V11.3416H88.7514V15.5768H81.9177V11.3416ZM87.8149 14.8091V13.4339H82.8542V14.8091H87.8149ZM99.3009 10.6582H98.3728V9.29996H95.8672V10.228H91.0499V5.61316H91.9863V7.14019H94.9391V5.61316H95.8672V6.63399H98.3728V5.1154H99.3009V10.6582ZM94.9391 9.46869V7.88261H91.9863V9.46869H94.9391ZM92.425 11.1729H99.3009V13.6701H93.3784V14.8175H99.7058V15.5768H92.4503V12.953H98.3728V11.9237H92.425V11.1729ZM98.3728 8.55754V7.36798H95.8672V8.55754H98.3728ZM109.5 10.3714H104.598V5.84095H109.5V10.3714ZM105.214 14.9525C105.801 14.8597 106.348 14.6966 106.855 14.4632C107.364 14.2297 107.777 13.9485 108.095 13.6195C108.415 13.2877 108.594 12.9333 108.631 12.5565H105.627V11.7972H112.621V12.5565H109.613C109.647 12.9249 109.824 13.275 110.145 13.6068C110.468 13.9387 110.886 14.2227 111.398 14.4589C111.91 14.6952 112.455 14.8597 113.034 14.9525L112.68 15.6865C112.16 15.5965 111.666 15.453 111.2 15.2562C110.733 15.0622 110.319 14.8231 109.959 14.5391C109.599 14.2551 109.32 13.9387 109.12 13.59C108.923 13.9387 108.645 14.2551 108.285 14.5391C107.928 14.8231 107.516 15.0607 107.049 15.252C106.582 15.446 106.088 15.5852 105.568 15.6696L105.214 14.9525ZM108.588 9.61211V6.60025H105.509V9.61211H108.588ZM111.499 5.1154H112.435V7.66326H114.03V8.4563H112.435V11.1729H111.499V5.1154ZM124.369 11.1223H119.99V12.2865H123.179V15.5768H115.881V12.2865H119.07V11.1223H114.7V10.363H124.369V11.1223ZM115.265 9.02155C115.94 8.95968 116.558 8.83313 117.117 8.6419C117.68 8.44786 118.13 8.19898 118.467 7.89526C118.807 7.58873 118.99 7.24424 119.016 6.86178H115.696V6.11092H119.07V5.05635H119.99V6.11092H123.381V6.86178H120.045C120.067 7.24424 120.247 7.58873 120.585 7.89526C120.925 8.19898 121.375 8.44786 121.935 8.6419C122.497 8.83313 123.117 8.95968 123.795 9.02155L123.516 9.73022C122.591 9.63461 121.773 9.42932 121.061 9.11435C120.35 8.79939 119.84 8.3874 119.53 7.87839C119.218 8.3874 118.706 8.79939 117.995 9.11435C117.286 9.42932 116.472 9.63461 115.552 9.73022L115.265 9.02155ZM122.268 14.8091V13.0458H116.809V14.8091H122.268ZM131.273 7.06426H125.267V6.30496H127.848V5.0226H128.776V6.30496H131.273V7.06426ZM125.899 9.57836C125.897 9.18747 125.995 8.84438 126.195 8.5491C126.397 8.25101 126.68 8.02041 127.043 7.8573C127.408 7.69419 127.829 7.61264 128.304 7.61264C128.773 7.61264 129.191 7.69419 129.557 7.8573C129.922 8.02041 130.208 8.25101 130.413 8.5491C130.618 8.84438 130.722 9.18747 130.725 9.57836C130.722 9.96645 130.618 10.3095 130.413 10.6076C130.208 10.9029 129.922 11.1321 129.557 11.2952C129.191 11.4555 128.773 11.5357 128.304 11.5357C127.829 11.5357 127.408 11.4555 127.043 11.2952C126.68 11.1321 126.397 10.9029 126.195 10.6076C125.995 10.3095 125.897 9.96645 125.899 9.57836ZM126.777 9.57836C126.774 9.82303 126.834 10.0396 126.958 10.228C127.085 10.4164 127.263 10.5626 127.494 10.6667C127.727 10.7679 127.997 10.8185 128.304 10.8185C128.605 10.8185 128.87 10.7665 129.101 10.6625C129.334 10.5584 129.516 10.4136 129.645 10.228C129.777 10.0396 129.845 9.82303 129.848 9.57836C129.845 9.33089 129.779 9.11295 129.649 8.92453C129.52 8.73611 129.339 8.58988 129.105 8.48583C128.872 8.37896 128.605 8.32412 128.304 8.32131C127.997 8.32412 127.727 8.37896 127.494 8.48583C127.263 8.58988 127.085 8.73611 126.958 8.92453C126.834 9.11295 126.774 9.33089 126.777 9.57836ZM126.988 13.8895C126.988 13.507 127.13 13.1808 127.414 12.9108C127.698 12.638 128.107 12.4313 128.641 12.2907C129.178 12.1473 129.817 12.0756 130.556 12.0756C131.29 12.0756 131.923 12.1473 132.455 12.2907C132.989 12.4313 133.398 12.638 133.682 12.9108C133.966 13.1808 134.108 13.507 134.108 13.8895C134.108 14.2663 133.966 14.5897 133.682 14.8597C133.398 15.1296 132.989 15.3363 132.455 15.4798C131.923 15.6232 131.29 15.6949 130.556 15.6949C129.817 15.6949 129.178 15.6232 128.641 15.4798C128.107 15.3392 127.698 15.1325 127.414 14.8597C127.13 14.5897 126.988 14.2663 126.988 13.8895ZM127.958 13.8895C127.958 14.1116 128.062 14.3043 128.27 14.4674C128.481 14.6305 128.78 14.7542 129.169 14.8386C129.559 14.923 130.022 14.9637 130.556 14.9609C131.082 14.9637 131.538 14.923 131.923 14.8386C132.308 14.7542 132.604 14.6305 132.809 14.4674C133.017 14.3043 133.121 14.1116 133.121 13.8895C133.121 13.6617 133.017 13.4676 132.809 13.3073C132.604 13.1442 132.308 13.0205 131.923 12.9361C131.541 12.8518 131.085 12.8096 130.556 12.8096C130.019 12.8096 129.555 12.8518 129.164 12.9361C128.776 13.0205 128.478 13.1442 128.27 13.3073C128.062 13.4676 127.958 13.6617 127.958 13.8895ZM131.257 9.73022H133.113V8.43942H131.265V7.66326H133.113V5.1154H134.049V11.9744H133.113V10.5064H131.257V9.73022ZM147.943 15.7202H147.049V10.1521H145.496V15.1634H144.627V5.35163H145.496V9.37589H147.049V5.1154H147.943V15.7202ZM139.27 6.41464H143.244V7.18237H140.207V12.2949C140.983 12.2921 141.644 12.2696 142.189 12.2275C142.738 12.1853 143.292 12.1065 143.851 11.9912L143.936 12.7758C143.339 12.9024 142.752 12.9868 142.172 13.0289C141.596 13.0683 140.856 13.0908 139.954 13.0964H139.27V6.41464ZM153.211 7.96697C153.208 8.59409 153.336 9.217 153.595 9.83568C153.854 10.4544 154.202 11.0042 154.641 11.485C155.083 11.9631 155.562 12.3203 156.08 12.5565L155.506 13.2989C155.107 13.1021 154.728 12.8377 154.371 12.5059C154.014 12.1712 153.696 11.7845 153.418 11.3458C153.139 10.9071 152.917 10.4389 152.751 9.94114C152.588 10.4698 152.368 10.9676 152.089 11.4344C151.814 11.8984 151.494 12.309 151.132 12.6662C150.769 13.0233 150.382 13.3045 149.972 13.5098L149.381 12.7252C149.904 12.4834 150.386 12.115 150.828 11.62C151.269 11.1223 151.619 10.5528 151.878 9.91161C152.14 9.27043 152.272 8.62222 152.275 7.96697V6.03499H153.211V7.96697ZM157.244 5.1154H158.18V15.7371H157.244V5.1154ZM169.709 14.3619H159.998V13.5773H164.36V11.291H161.145V5.86626H162.082V7.78137H167.591V5.86626H168.519V11.291H165.288V13.5773H169.709V14.3619ZM167.591 10.5233V8.5491H162.082V10.5233H167.591ZM179.119 10.9873H171.796V6.10249H179.018V6.87865H172.724V10.2111H179.119V10.9873ZM170.556 13.4845H180.266V14.2691H170.556V13.4845Z" fill="#555555"/>
<ellipse cx="194.677" cy="10.251" rx="1.96195" ry="1.96195" fill="#555555"/>
<rect x="1.05164" y="25.5751" width="160.911" height="19.7688" rx="9.88439" stroke="#555555" stroke-width="0.732177"/>
<path d="M17.7213 36.8965H16.8186V30.3244H17.7213V36.8965ZM8.6773 34.4499C9.70657 34.4499 10.7077 34.4302 11.6807 34.3908C12.6566 34.3515 13.5368 34.2699 14.3214 34.1462L14.3889 34.7873C13.714 34.928 12.9322 35.0306 12.0435 35.0953V36.8628H11.1324V35.1459C10.5277 35.1712 9.8767 35.1839 9.17928 35.1839H8.77854L8.6773 34.4499ZM9.23412 32.2732C9.23412 31.9527 9.32973 31.6742 9.52096 31.438C9.715 31.2018 9.98638 31.0204 10.3351 30.8939C10.6838 30.7673 11.0902 30.704 11.5542 30.704C12.0154 30.704 12.4203 30.7673 12.7691 30.8939C13.1206 31.0204 13.392 31.2018 13.5832 31.438C13.7772 31.6742 13.8742 31.9527 13.8742 32.2732C13.8742 32.5882 13.7772 32.8652 13.5832 33.1042C13.3891 33.3405 13.1164 33.5233 12.7648 33.6526C12.4161 33.7792 12.0126 33.8424 11.5542 33.8424C11.093 33.8424 10.6866 33.7792 10.3351 33.6526C9.98638 33.5233 9.715 33.3405 9.52096 33.1042C9.32973 32.868 9.23412 32.591 9.23412 32.2732ZM10.0947 32.2732C10.0947 32.4532 10.1537 32.6107 10.2718 32.7457C10.3899 32.8779 10.5587 32.9805 10.778 33.0536C11.0002 33.1239 11.2589 33.1591 11.5542 33.1591C11.8467 33.1591 12.104 33.1239 12.3261 33.0536C12.5483 32.9805 12.7198 32.8779 12.8408 32.7457C12.9645 32.6107 13.0278 32.4532 13.0306 32.2732C13.0278 32.0904 12.9645 31.9316 12.8408 31.7966C12.7198 31.6588 12.5483 31.5547 12.3261 31.4844C12.104 31.4113 11.8467 31.3762 11.5542 31.379C11.2589 31.3762 11.0016 31.4113 10.7822 31.4844C10.5629 31.5547 10.3927 31.6588 10.2718 31.7966C10.1537 31.9316 10.0947 32.0904 10.0947 32.2732ZM10.5671 37.2761H11.4867V38.2801H16.7933V37.2761H17.7213V40.7858H10.5671V37.2761ZM16.7933 40.0349V39.0225H11.4867V40.0349H16.7933ZM13.0137 35.572H14.9035V30.51H15.7978V36.8628H14.9035V36.2469H13.0137V35.572ZM32.0539 36.4915H27.7513V38.6597H26.8064V36.4915H22.3434V35.7154H32.0539V36.4915ZM23.4486 32.7288C23.4458 32.2957 23.5976 31.9189 23.9042 31.5983C24.2135 31.2777 24.6494 31.0317 25.2118 30.8601C25.7771 30.6858 26.4352 30.5972 27.186 30.5944C27.9397 30.5972 28.5977 30.6858 29.1602 30.8601C29.7226 31.0317 30.1571 31.2777 30.4636 31.5983C30.7702 31.9189 30.9234 32.2957 30.9234 32.7288C30.9234 33.1591 30.7702 33.5345 30.4636 33.8551C30.1571 34.1729 29.7212 34.4175 29.156 34.5891C28.5935 34.7606 27.9369 34.8464 27.186 34.8464C26.4352 34.8464 25.7771 34.7606 25.2118 34.5891C24.6494 34.4175 24.2135 34.1729 23.9042 33.8551C23.5976 33.5345 23.4458 33.1591 23.4486 32.7288ZM23.6005 37.5967H24.5369V39.8999H30.974V40.693H23.6005V37.5967ZM24.4441 32.7288C24.4413 33.0016 24.5538 33.2406 24.7816 33.4459C25.0094 33.6484 25.33 33.8045 25.7434 33.9142C26.1596 34.0238 26.6404 34.0787 27.186 34.0787C27.7344 34.0787 28.2153 34.0238 28.6287 33.9142C29.0449 33.8045 29.3669 33.6484 29.5947 33.4459C29.8225 33.2406 29.9363 33.0016 29.9363 32.7288C29.9363 32.4504 29.8225 32.2086 29.5947 32.0033C29.3669 31.798 29.0449 31.6405 28.6287 31.5308C28.2153 31.4183 27.7344 31.3621 27.186 31.3621C26.6404 31.3621 26.1596 31.4183 25.7434 31.5308C25.33 31.6405 25.0094 31.798 24.7816 32.0033C24.5538 32.2086 24.4413 32.4504 24.4441 32.7288ZM35.8162 30.9656C36.2661 30.9656 36.6781 31.0429 37.0522 31.1976C37.4262 31.3522 37.7383 31.573 37.9886 31.8598H40.7727V30.3244H41.7092V36.6097H40.7727V35.0911H37.9886C37.7383 35.3779 37.4276 35.6001 37.0564 35.7576C36.6852 35.9122 36.2788 35.9882 35.8373 35.9853C35.3142 35.9882 34.8432 35.8841 34.4242 35.6732C34.0051 35.4595 33.6761 35.1614 33.4371 34.7789C33.2008 34.3965 33.0841 33.9634 33.087 33.4797C33.0841 32.9932 33.1994 32.5601 33.4329 32.1804C33.6691 31.798 33.9953 31.4999 34.4115 31.2862C34.8277 31.0724 35.2959 30.9656 35.8162 30.9656ZM33.9812 33.4797C33.9812 33.8059 34.06 34.0998 34.2175 34.3613C34.3778 34.62 34.5985 34.8225 34.8797 34.9687C35.1638 35.115 35.4829 35.1867 35.8373 35.1839C36.1832 35.1867 36.4953 35.115 36.7737 34.9687C37.055 34.8225 37.2757 34.6186 37.436 34.3571C37.5963 34.0955 37.6765 33.8031 37.6765 33.4797C37.6765 33.1506 37.5963 32.8568 37.436 32.5981C37.2785 32.3365 37.0592 32.134 36.778 31.9906C36.4996 31.8444 36.186 31.7727 35.8373 31.7755C35.4829 31.7727 35.1638 31.8444 34.8797 31.9906C34.5985 32.134 34.3778 32.3365 34.2175 32.5981C34.06 32.8568 33.9812 33.1506 33.9812 33.4797ZM34.6393 38.8791C34.6365 38.4573 34.7771 38.0945 35.0611 37.7908C35.348 37.4842 35.7585 37.2522 36.2929 37.0948C36.8272 36.9345 37.4599 36.8543 38.1911 36.8543C38.9195 36.8543 39.5508 36.9345 40.0851 37.0948C40.6194 37.2522 41.0286 37.4842 41.3126 37.7908C41.5995 38.0945 41.7429 38.4573 41.7429 38.8791C41.7429 39.3009 41.5995 39.6637 41.3126 39.9674C41.0286 40.274 40.6194 40.506 40.0851 40.6634C39.5508 40.8237 38.9195 40.9039 38.1911 40.9039C37.4599 40.9039 36.8272 40.8237 36.2929 40.6634C35.7585 40.506 35.348 40.274 35.0611 39.9674C34.7771 39.6637 34.6365 39.3009 34.6393 38.8791ZM35.5589 38.8791C35.5561 39.1406 35.6601 39.367 35.871 39.5582C36.0848 39.7495 36.3899 39.8957 36.7864 39.9969C37.1829 40.101 37.6512 40.153 38.1911 40.153C38.731 40.153 39.1993 40.101 39.5958 39.9969C39.9923 39.8957 40.2974 39.7495 40.5112 39.5582C40.7249 39.367 40.8318 39.1406 40.8318 38.8791C40.8318 38.6119 40.7249 38.3813 40.5112 38.1873C40.2974 37.9933 39.9923 37.8456 39.5958 37.7444C39.1993 37.6403 38.731 37.5883 38.1911 37.5883C37.6512 37.5883 37.1829 37.6403 36.7864 37.7444C36.3899 37.8456 36.0848 37.9933 35.871 38.1873C35.6601 38.3813 35.5561 38.6119 35.5589 38.8791ZM38.4358 32.6276C38.5314 32.8976 38.5792 33.1816 38.5792 33.4797C38.5792 33.7665 38.5328 34.0449 38.44 34.3149H40.7727V32.6276H38.4358ZM49.154 34.0219C49.8748 34.0219 50.4489 34.5961 50.4489 35.3168C50.4489 36.0376 49.8748 36.6117 49.154 36.6117C48.4332 36.6117 47.8591 36.0376 47.8591 35.3168C47.8591 34.5961 48.4332 34.0219 49.154 34.0219ZM65.386 36.7025H61.0665V38.7779H60.1384V36.7025H55.6755V35.9347H65.386V36.7025ZM56.9241 37.7992H57.8521V39.9168H64.3061V40.693H56.9241V37.7992ZM56.9747 30.6619H57.9112V32.0286H63.1587V30.6619H64.0952V34.897H56.9747V30.6619ZM63.1587 34.1377V32.7457H57.9112V34.1377H63.1587ZM69.8696 32.0286C69.8668 32.5067 69.9765 32.9693 70.1986 33.4164C70.4208 33.8607 70.7301 34.253 71.1267 34.5933C71.526 34.9336 71.9816 35.1923 72.4934 35.3695L71.9788 36.1203C71.391 35.901 70.875 35.5762 70.4306 35.1459C69.9863 34.7156 69.6503 34.2165 69.4225 33.6484C69.1975 34.2755 68.8544 34.8239 68.3932 35.2935C67.9348 35.7632 67.3949 36.1203 66.7734 36.365L66.2672 35.5973C66.7987 35.406 67.2655 35.1318 67.6676 34.7747C68.0698 34.4147 68.3819 33.9957 68.6041 33.5176C68.8263 33.0368 68.9388 32.5263 68.9416 31.9864V30.8643H69.8696V32.0286ZM67.9039 37.1833H75.0412V40.9292H74.1048V37.9342H67.9039V37.1833ZM71.7425 32.5516H74.1048V30.3244H75.0412V36.5928H74.1048V33.3363H71.7425V32.5516ZM82.4861 34.0219C83.2068 34.0219 83.781 34.5961 83.781 35.3168C83.781 36.0376 83.2068 36.6117 82.4861 36.6117C81.7653 36.6117 81.1912 36.0376 81.1912 35.3168C81.1912 34.5961 81.7653 34.0219 82.4861 34.0219ZM97.8154 35.7491H96.8789V34.6355H94.0442V33.8931H96.8789V32.6191H94.2003C93.8741 33.4459 93.313 34.1434 92.5172 34.7114C91.7213 35.2767 90.7286 35.7013 89.5391 35.9853L89.2016 35.2092C90.065 35.0095 90.8074 34.7381 91.4289 34.395C92.0504 34.052 92.5341 33.6484 92.88 33.1844C93.2287 32.7176 93.4312 32.2001 93.4874 31.6321H89.7415V30.8559H94.5251C94.5251 31.2102 94.4914 31.5477 94.4239 31.8683H96.8789V30.3244H97.8154V35.7491ZM90.9395 36.23H97.8154V38.8116H91.8929V40.0602H98.1781V40.828H90.9649V38.0945H96.8789V36.9893H90.9395V36.23ZM105.463 32.0539V32.1678C105.457 32.8202 105.435 33.46 105.395 34.0871C105.359 34.7142 105.277 35.437 105.151 36.2553L104.214 36.1794C104.341 35.392 104.424 34.6861 104.463 34.0618C104.505 33.4375 104.526 32.8385 104.526 32.2648H100.072V31.4971H105.463V32.0539ZM99.4727 37.8077C100.471 37.802 101.233 37.7922 101.759 37.7781V34.5258H102.687V37.7528C104.043 37.6994 105.201 37.6136 106.163 37.4955L106.214 38.2042C104.552 38.4629 102.466 38.5923 99.9578 38.5923H99.5908L99.4727 37.8077ZM106.829 30.3244H107.766V34.762H109.487V35.572H107.766V40.9292H106.829V30.3244ZM122.267 40.9292H121.373V35.361H119.821V40.3724H118.952V30.5606H119.821V34.5849H121.373V30.3244H122.267V40.9292ZM113.594 31.6236H117.568V32.3914H114.531V37.5039C115.307 37.5011 115.968 37.4786 116.513 37.4364C117.062 37.3943 117.616 37.3155 118.175 37.2002L118.26 37.9848C117.664 38.1114 117.076 38.1957 116.497 38.2379C115.92 38.2773 115.18 38.2998 114.278 38.3054H113.594V31.6236ZM127.535 33.176C127.533 33.8031 127.661 34.426 127.919 35.0447C128.178 35.6633 128.527 36.2131 128.965 36.694C129.407 37.1721 129.886 37.5292 130.404 37.7655L129.83 38.5079C129.431 38.311 129.053 38.0467 128.695 37.7148C128.338 37.3802 128.021 36.9935 127.742 36.5548C127.464 36.1161 127.242 35.6479 127.076 35.1501C126.913 35.6788 126.692 36.1766 126.413 36.6434C126.138 37.1074 125.819 37.518 125.456 37.8751C125.093 38.2323 124.706 38.5135 124.296 38.7188L123.705 37.9342C124.228 37.6924 124.711 37.324 125.152 36.829C125.594 36.3312 125.944 35.7618 126.202 35.1206C126.464 34.4794 126.596 33.8312 126.599 33.176V31.244H127.535V33.176ZM131.568 30.3244H132.505V40.9461H131.568V30.3244ZM144.033 39.5709H134.322V38.7863H138.684V36.5H135.47V31.0752H136.406V32.9904H141.915V31.0752H142.843V36.5H139.612V38.7863H144.033V39.5709ZM141.915 35.7322V33.7581H136.406V35.7322H141.915ZM153.443 36.1963H146.12V31.3115H153.342V32.0876H147.048V35.4201H153.443V36.1963ZM144.88 38.6935H154.591V39.4781H144.88V38.6935Z" fill="#555555"/>
<ellipse cx="168.999" cy="35.46" rx="1.96195" ry="1.96195" fill="#555555"/>
<rect x="176.036" y="25.5751" width="80.9114" height="19.7688" rx="9.88439" stroke="#555555" stroke-width="0.732177"/>
<path d="M193.087 40.9292H192.175V30.3244H193.087V40.9292ZM184.422 31.6321H188.421V32.4082H185.333V37.5799C186.14 37.5771 186.811 37.5546 187.345 37.5124C187.883 37.4674 188.424 37.3858 188.97 37.2677L189.062 38.0607C188.48 38.1817 187.902 38.2632 187.329 38.3054C186.755 38.3448 186.011 38.3673 185.097 38.3729H184.422V31.6321ZM187.704 34.374H190.024V30.5775H190.918V40.3724H190.024V35.1586H187.704V34.374ZM203.307 40.9461H202.371V30.3244H203.307V40.9461ZM194.963 34.838C194.963 34.0984 195.077 33.4501 195.305 32.8933C195.536 32.3365 195.856 31.9063 196.267 31.6025C196.677 31.2988 197.146 31.1456 197.671 31.1427C198.194 31.1456 198.66 31.2988 199.068 31.6025C199.478 31.9063 199.799 32.3379 200.029 32.8976C200.263 33.4544 200.38 34.1012 200.38 34.838C200.38 35.5776 200.263 36.2272 200.029 36.7868C199.799 37.3465 199.478 37.7781 199.068 38.0818C198.657 38.3827 198.192 38.5332 197.671 38.5332C197.146 38.5332 196.677 38.3827 196.267 38.0818C195.856 37.7781 195.536 37.3479 195.305 36.791C195.077 36.2314 194.963 35.5804 194.963 34.838ZM195.866 34.838C195.866 35.406 195.942 35.9066 196.094 36.3397C196.246 36.7728 196.458 37.1074 196.731 37.3436C197.006 37.5799 197.32 37.698 197.671 37.698C198.023 37.698 198.334 37.5799 198.604 37.3436C198.876 37.1074 199.089 36.7728 199.241 36.3397C199.392 35.9066 199.468 35.406 199.468 34.838C199.468 34.2727 199.392 33.775 199.241 33.3447C199.089 32.9116 198.876 32.577 198.604 32.3407C198.334 32.1017 198.023 31.9808 197.671 31.978C197.32 31.9808 197.006 32.1017 196.731 32.3407C196.458 32.577 196.246 32.9116 196.094 33.3447C195.942 33.775 195.866 34.2727 195.866 34.838ZM213.916 40.9461H212.988V35.1079H210.743V34.3318H212.988V30.3244H213.916V40.9461ZM205.614 31.2946H210.566V32.0708H206.559V34.2812H210.094V35.0404H206.559V37.6052C207.611 37.6024 208.477 37.5799 209.157 37.5377C209.838 37.4955 210.521 37.4111 211.207 37.2846L211.317 38.0607C210.572 38.1817 209.837 38.266 209.111 38.3138C208.388 38.3588 207.493 38.3842 206.424 38.3898H205.614V31.2946ZM222.52 33.176C222.517 33.8031 222.645 34.426 222.904 35.0447C223.162 35.6633 223.511 36.2131 223.95 36.694C224.391 37.1721 224.871 37.5292 225.388 37.7655L224.815 38.5079C224.415 38.311 224.037 38.0467 223.68 37.7148C223.323 37.3802 223.005 36.9935 222.726 36.5548C222.448 36.1161 222.226 35.6479 222.06 35.1501C221.897 35.6788 221.676 36.1766 221.398 36.6434C221.122 37.1074 220.803 37.518 220.44 37.8751C220.077 38.2323 219.691 38.5135 219.28 38.7188L218.69 37.9342C219.213 37.6924 219.695 37.324 220.136 36.829C220.578 36.3312 220.928 35.7618 221.187 35.1206C221.448 34.4794 221.581 33.8312 221.583 33.176V31.244H222.52V33.176ZM226.552 30.3244H227.489V40.9461H226.552V30.3244ZM237.6 33.0157H239.194V33.8171H237.6V36.5506H236.663V30.3244H237.6V33.0157ZM229.29 35.6985C230.156 35.4651 230.907 35.1557 231.542 34.7705C232.181 34.3852 232.683 33.9395 233.048 33.4333C233.414 32.9243 233.628 32.3717 233.689 31.7755H229.771V30.9993H234.689C234.686 31.8852 234.485 32.6866 234.086 33.4037C233.689 34.1209 233.117 34.7353 232.369 35.2471C231.621 35.7562 230.724 36.1485 229.678 36.424L229.29 35.6985ZM230.656 37.0315H237.6V40.9292H236.663V37.7992H230.656V37.0315ZM248.09 34.838H249.786V35.631H248.09V40.9292H247.154V30.3244H248.09V34.838ZM239.73 38.1029C241.001 38.0973 241.976 38.0847 242.657 38.065V36.8965C242.246 36.8487 241.886 36.739 241.577 36.5675C241.271 36.3959 241.034 36.1738 240.868 35.901C240.703 35.6282 240.621 35.3189 240.624 34.973C240.621 34.5792 240.724 34.2333 240.932 33.9353C241.14 33.6372 241.434 33.4066 241.813 33.2435C242.193 33.0803 242.632 32.9988 243.129 32.9988C243.622 32.9988 244.057 33.0803 244.437 33.2435C244.82 33.4066 245.116 33.6372 245.327 33.9353C245.541 34.2333 245.649 34.5792 245.652 34.973C245.649 35.3189 245.562 35.6296 245.39 35.9052C245.222 36.178 244.983 36.4001 244.673 36.5717C244.364 36.7404 244.004 36.8487 243.593 36.8965V38.027C244.696 37.9764 245.666 37.8892 246.504 37.7655L246.572 38.4741C245.542 38.6485 244.486 38.7624 243.404 38.8158C242.321 38.8693 241.15 38.896 239.89 38.896L239.73 38.1029ZM239.924 31.6236H242.657V30.3413H243.593V31.6236H246.319V32.3829H239.924V31.6236ZM241.501 34.973C241.501 35.2148 241.569 35.4271 241.704 35.6099C241.839 35.7927 242.028 35.9347 242.273 36.036C242.521 36.1344 242.806 36.1822 243.129 36.1794C243.45 36.1822 243.733 36.1344 243.977 36.036C244.222 35.9347 244.412 35.7927 244.547 35.6099C244.682 35.4271 244.749 35.2148 244.749 34.973C244.749 34.7283 244.682 34.5132 244.547 34.3276C244.412 34.1391 244.222 33.9929 243.977 33.8889C243.733 33.7848 243.45 33.7328 243.129 33.7328C242.806 33.7328 242.521 33.7848 242.273 33.8889C242.028 33.9901 241.839 34.1349 241.704 34.3233C241.569 34.5118 241.501 34.7283 241.501 34.973Z" fill="#555555"/>
</svg>
