<svg width="516" height="28" viewBox="0 0 516 28" fill="none" xmlns="http://www.w3.org/2000/svg">
<rect x="0.835938" y="0.5" width="212" height="27" rx="13.5" stroke="#555555"/>
<path d="M18.4091 7.9414C18.4017 9.79936 17.8854 11.3853 16.8602 12.6992C15.835 14.0094 14.2268 15.029 12.0358 15.7582L11.5361 14.77C13.8308 14.0149 15.4168 12.9305 16.2939 11.5167L11.6694 11.8942L11.4584 10.8727L16.7381 10.6229C16.9342 10.1084 17.0582 9.55509 17.11 8.96291H12.1579V7.9414H18.4091ZM13.9123 16.1579H15.1558V19.4445H23.128V20.466H13.9123V16.1579ZM18.3869 11.2724H21.4958V6.83106H22.7283V17.1905H21.4958V12.305H18.3869V11.2724ZM36.6236 14.0371H35.3911V10.4063H32.2822V9.38484H35.3911V6.81996H36.6236V14.0371ZM25.0428 13.0823C25.7386 12.8491 26.3548 12.5086 26.8915 12.0607C27.4281 11.6129 27.8445 11.0892 28.1406 10.4896C28.4404 9.89004 28.5921 9.2553 28.5958 8.58539V7.2641H29.8061V8.58539C29.8024 9.18498 29.9467 9.7642 30.2391 10.3231C30.5352 10.8782 30.9461 11.3686 31.4716 11.7943C32.0009 12.2162 32.6042 12.5382 33.2815 12.7603L32.6153 13.7263C31.8417 13.4487 31.1589 13.0452 30.5667 12.516C29.9782 11.9867 29.5304 11.3705 29.2232 10.6673C28.9234 11.463 28.4682 12.1551 27.8575 12.7436C27.2505 13.3321 26.5343 13.7744 25.709 14.0705L25.0428 13.0823ZM27.5743 14.7478H36.6236V18.0677H28.8179V19.5888H37.1454V20.5881H27.6076V17.1239H35.4022V15.736H27.5743V14.7478ZM46.455 8.85188H41.0032V10.6173H46.0664V11.6166H41.0032V13.4487H41.6861C43.0333 13.4487 44.1381 13.4228 45.0004 13.3709C45.8665 13.3191 46.7326 13.2192 47.5986 13.0712L47.7319 14.0816C46.8066 14.2333 45.8869 14.3369 44.9727 14.3925C44.0585 14.4443 42.8964 14.4702 41.4862 14.4702H40.8922H39.7597V7.85257H46.455V8.85188ZM41.1143 18.2009C41.1143 17.6716 41.3012 17.2183 41.675 16.8407C42.0525 16.4595 42.5947 16.1708 43.3016 15.9747C44.0085 15.7748 44.8524 15.6767 45.8332 15.6804C46.7992 15.6767 47.6356 15.7748 48.3426 15.9747C49.0495 16.1708 49.5917 16.4595 49.9692 16.8407C50.3504 17.2183 50.541 17.6716 50.541 18.2009C50.541 18.7339 50.3504 19.191 49.9692 19.5722C49.5917 19.9534 49.0495 20.2439 48.3426 20.4438C47.6393 20.6436 46.8029 20.7436 45.8332 20.7436C44.8524 20.7436 44.0085 20.6436 43.3016 20.4438C42.5947 20.2476 42.0525 19.9589 41.675 19.5777C41.3012 19.1965 41.1143 18.7376 41.1143 18.2009ZM42.3356 18.2009C42.3356 18.5266 42.4744 18.8079 42.752 19.0448C43.0296 19.2779 43.4312 19.4556 43.9567 19.5777C44.4823 19.7036 45.1078 19.7665 45.8332 19.7665C46.5438 19.7665 47.1619 19.7036 47.6875 19.5777C48.213 19.4556 48.6164 19.2779 48.8977 19.0448C49.179 18.8079 49.3197 18.5266 49.3197 18.2009C49.3197 17.8863 49.1772 17.6124 48.8922 17.3793C48.6109 17.1461 48.2075 16.9684 47.6819 16.8463C47.1601 16.7205 46.5438 16.6575 45.8332 16.6575C45.1115 16.6575 44.4878 16.7205 43.9623 16.8463C43.4367 16.9684 43.0333 17.1461 42.752 17.3793C42.4744 17.6087 42.3356 17.8826 42.3356 18.2009ZM49.2419 6.83106H50.4744V15.4806H49.2419V6.83106ZM69.6372 16.1024H63.8191V20.7769H62.6088V16.1024H56.8573V15.1031H69.6372V16.1024ZM58.5006 7.39734H59.7219V9.32932H66.7615V7.39734H67.9939V13.4043H58.5006V7.39734ZM66.7615 12.405V10.3286H59.7219V12.405H66.7615ZM82.3444 20.7991H81.1231V13.1156H78.1696V12.0941H81.1231V6.81996H82.3444V20.7991ZM71.4187 8.09685H77.9364V9.11836H72.6623V12.0274H77.3146V13.0267H72.6623V16.4022C74.0465 16.3985 75.1865 16.3689 76.0821 16.3133C76.9778 16.2578 77.8772 16.1468 78.7803 15.9802L78.9246 17.0017C77.9438 17.1609 76.976 17.2719 76.0211 17.3348C75.0699 17.3941 73.8911 17.4274 72.4847 17.4348H71.4187V8.09685ZM95.7224 17.2238H89.2825V8.23009H95.7224V17.2238ZM94.4899 16.2134V9.21829H90.4816V16.2134H94.4899ZM98.2762 6.81996H99.5087V12.3938H101.84V13.4487H99.5087V20.7769H98.2762V6.81996ZM108.752 8.47436C108.744 9.9215 108.559 11.2095 108.196 12.3383H110.439V7.19748H111.616V20.0663H110.439V13.3598H107.797C107.386 14.2592 106.821 15.0864 106.103 15.8414C105.385 16.5965 104.484 17.2719 103.4 17.8678L102.689 16.9906C103.733 16.4207 104.592 15.7767 105.265 15.0587C105.942 14.3406 106.464 13.5523 106.831 12.6936L102.845 13.1045L102.667 12.0163L107.175 11.7221C107.371 11.0411 107.495 10.299 107.547 9.49587H103.344V8.47436H108.752ZM113.371 6.81996H114.548V20.7769H113.371V6.81996ZM124.001 8.85188H118.55V10.6173H123.613V11.6166H118.55V13.4487H119.233C120.58 13.4487 121.685 13.4228 122.547 13.3709C123.413 13.3191 124.279 13.2192 125.145 13.0712L125.278 14.0816C124.353 14.2333 123.433 14.3369 122.519 14.3925C121.605 14.4443 120.443 14.4702 119.033 14.4702H118.439H117.306V7.85257H124.001V8.85188ZM118.661 18.2009C118.661 17.6716 118.848 17.2183 119.221 16.8407C119.599 16.4595 120.141 16.1708 120.848 15.9747C121.555 15.7748 122.399 15.6767 123.38 15.6804C124.346 15.6767 125.182 15.7748 125.889 15.9747C126.596 16.1708 127.138 16.4595 127.516 16.8407C127.897 17.2183 128.088 17.6716 128.088 18.2009C128.088 18.7339 127.897 19.191 127.516 19.5722C127.138 19.9534 126.596 20.2439 125.889 20.4438C125.186 20.6436 124.349 20.7436 123.38 20.7436C122.399 20.7436 121.555 20.6436 120.848 20.4438C120.141 20.2476 119.599 19.9589 119.221 19.5777C118.848 19.1965 118.661 18.7376 118.661 18.2009ZM119.882 18.2009C119.882 18.5266 120.021 18.8079 120.299 19.0448C120.576 19.2779 120.978 19.4556 121.503 19.5777C122.029 19.7036 122.654 19.7665 123.38 19.7665C124.09 19.7665 124.708 19.7036 125.234 19.5777C125.76 19.4556 126.163 19.2779 126.444 19.0448C126.725 18.8079 126.866 18.5266 126.866 18.2009C126.866 17.8863 126.724 17.6124 126.439 17.3793C126.157 17.1461 125.754 16.9684 125.228 16.8463C124.707 16.7205 124.09 16.6575 123.38 16.6575C122.658 16.6575 122.034 16.7205 121.509 16.8463C120.983 16.9684 120.58 17.1461 120.299 17.3793C120.021 17.6087 119.882 17.8826 119.882 18.2009ZM126.788 6.83106H128.021V15.4806H126.788V6.83106ZM141.439 12.5826H143.559V13.6152H141.439V20.7769H140.206V6.81996H141.439V12.5826ZM130.335 16.9129C131.346 15.884 132.097 14.7385 132.589 13.4764C133.085 12.2143 133.372 10.8468 133.45 9.37373H130.779V8.34112H134.621C134.614 10.1621 134.36 11.8498 133.861 13.4043C133.365 14.955 132.523 16.3577 131.335 17.6124L130.335 16.9129ZM134.344 17.8567C135.358 16.7131 136.087 15.4251 136.531 13.9927C136.979 12.5604 137.236 11.0207 137.303 9.37373H135.065V8.34112H138.463C138.459 9.6032 138.372 10.8116 138.202 11.9664C138.036 13.1211 137.723 14.2685 137.264 15.4084C136.809 16.5447 136.172 17.5902 135.354 18.5451L134.344 17.8567ZM149.283 11.1059C149.283 11.8757 149.453 12.6418 149.793 13.4043C150.134 14.163 150.593 14.8403 151.17 15.4362C151.748 16.0283 152.377 16.4725 153.058 16.7686L152.369 17.7457C151.829 17.4977 151.318 17.1609 150.837 16.7353C150.356 16.3096 149.928 15.8192 149.555 15.2641C149.185 14.7052 148.892 14.1075 148.677 13.4709C148.459 14.1445 148.165 14.7848 147.795 15.3918C147.425 15.995 147.001 16.5299 146.523 16.9962C146.046 17.4625 145.544 17.8271 145.019 18.0899L144.286 17.1128C144.949 16.7982 145.567 16.3189 146.14 15.6749C146.714 15.0309 147.173 14.3055 147.517 13.4986C147.861 12.6881 148.035 11.8905 148.039 11.1059V9.28491H144.741V8.25229H152.603V9.28491H149.283V11.1059ZM154.557 6.81996H155.789V20.7769H154.557V6.81996ZM173.72 8.15236H171.577V10.8172H173.675V11.7832H163.449V10.8172H165.559V8.15236H163.405V7.19748H173.72V8.15236ZM162.216 12.9379H174.941V13.9372H169.178V15.3029H173.298V18.3453H165.003V19.6666H173.72V20.6214H163.793V17.4459H172.087V16.2356H163.76V15.3029H167.946V13.9372H162.216V12.9379ZM170.344 10.8172V8.15236H166.78V10.8172H170.344ZM182.263 8.47436C182.256 9.9215 182.071 11.2095 181.708 12.3383H183.951V7.19748H185.128V20.0663H183.951V13.3598H181.308C180.897 14.2592 180.333 15.0864 179.615 15.8414C178.897 16.5965 177.996 17.2719 176.911 17.8678L176.201 16.9906C177.244 16.4207 178.103 15.7767 178.777 15.0587C179.454 14.3406 179.976 13.5523 180.342 12.6936L176.356 13.1045L176.178 12.0163L180.686 11.7221C180.882 11.0411 181.006 10.299 181.058 9.49587H176.856V8.47436H182.263ZM186.882 6.81996H188.059V20.7769H186.882V6.81996ZM193.76 7.89699C194.389 7.90069 194.954 8.07649 195.453 8.4244C195.957 8.7686 196.362 9.26085 196.669 9.90114C196.976 10.5414 197.161 11.2909 197.224 12.1496H200.355V6.81996H201.577V20.7991H200.355V13.1711H197.235C197.191 14.0705 197.017 14.8569 196.713 15.5305C196.41 16.2005 196.003 16.7168 195.492 17.0795C194.985 17.4422 194.408 17.6235 193.76 17.6235C193.075 17.6235 192.466 17.4255 191.933 17.0295C191.404 16.6298 190.991 16.0635 190.695 15.3307C190.403 14.5942 190.259 13.7374 190.262 12.7603C190.259 11.7869 190.403 10.9338 190.695 10.2009C190.991 9.46811 191.404 8.90184 191.933 8.50212C192.466 8.1024 193.075 7.90069 193.76 7.89699ZM191.439 12.7603C191.439 13.5079 191.536 14.1667 191.728 14.7367C191.924 15.3066 192.198 15.7471 192.55 16.058C192.901 16.3689 193.305 16.5243 193.76 16.5243C194.211 16.5243 194.613 16.3689 194.965 16.058C195.316 15.7471 195.59 15.3066 195.786 14.7367C195.982 14.1667 196.08 13.5079 196.08 12.7603C196.08 12.0163 195.982 11.3612 195.786 10.795C195.59 10.225 195.316 9.78456 194.965 9.47366C194.613 9.15907 194.211 8.99992 193.76 8.99622C193.305 8.99992 192.901 9.15907 192.55 9.47366C192.198 9.78456 191.924 10.225 191.728 10.795C191.536 11.3612 191.439 12.0163 191.439 12.7603Z" fill="#555555"/>
<circle cx="222.445" cy="13.9999" r="2.67961" fill="#555555"/>
<rect x="232.059" y="0.5" width="61" height="27" rx="13.5" stroke="#555555"/>
<path d="M255.219 18.9115H242.439V17.8789H255.219V18.9115ZM243.949 7.81926H245.182V10.4286H252.432V7.81926H253.654V15.0809H243.949V7.81926ZM252.432 14.0927V11.4168H245.182V14.0927H252.432ZM268.182 17.2238H267.016V12.0385H265.051V16.813H263.896V7.09755H265.051V11.0059H267.016V6.83106H268.182V17.2238ZM256.945 8.03023H262.23V12.0052H258.178V14.126C259.147 14.1223 260.006 14.0908 260.754 14.0316C261.505 13.9687 262.278 13.8595 263.074 13.704L263.207 14.7033C262.349 14.8662 261.518 14.9772 260.715 15.0364C259.911 15.0957 258.97 15.1253 257.889 15.1253H256.978V11.0392H261.053V9.02953H256.945V8.03023ZM259.032 16.2689H260.265V19.4445H268.615V20.466H259.032V16.2689ZM281.755 15.414H280.522V6.81996H281.755V15.414ZM271.085 7.91919H277.702V8.9296H272.317V13.0156C273.879 13.0156 275.154 12.9823 276.142 12.9157C277.13 12.8454 278.113 12.7121 279.09 12.516L279.223 13.5486C278.224 13.7374 277.223 13.865 276.22 13.9317C275.217 13.9946 273.89 14.0297 272.239 14.0371H271.085V7.91919ZM272.373 18.0899C272.373 17.5347 272.561 17.0573 272.939 16.6575C273.316 16.2578 273.859 15.9525 274.565 15.7415C275.276 15.5305 276.118 15.4251 277.091 15.4251C278.054 15.4251 278.887 15.5305 279.59 15.7415C280.297 15.9525 280.841 16.2578 281.222 16.6575C281.603 17.0573 281.796 17.5347 281.799 18.0899C281.796 18.645 281.603 19.1225 281.222 19.5222C280.844 19.9256 280.302 20.2328 279.595 20.4438C278.888 20.6547 278.054 20.7621 277.091 20.7658C276.118 20.7621 275.276 20.6547 274.565 20.4438C273.859 20.2328 273.316 19.9275 272.939 19.5278C272.561 19.128 272.373 18.6487 272.373 18.0899ZM273.616 18.0899C273.616 18.4341 273.755 18.732 274.033 18.9837C274.31 19.2354 274.71 19.4278 275.232 19.5611C275.754 19.698 276.373 19.7665 277.091 19.7665C277.806 19.7665 278.424 19.698 278.946 19.5611C279.471 19.4278 279.875 19.2354 280.156 18.9837C280.437 18.732 280.578 18.4341 280.578 18.0899C280.578 17.742 280.437 17.4422 280.156 17.1905C279.875 16.9388 279.471 16.7464 278.946 16.6131C278.424 16.4799 277.806 16.4133 277.091 16.4133C276.373 16.4133 275.754 16.4799 275.232 16.6131C274.71 16.7464 274.31 16.9388 274.033 17.1905C273.755 17.4422 273.616 17.742 273.616 18.0899Z" fill="#555555"/>
<circle cx="302.668" cy="13.9999" r="2.67961" fill="#555555"/>
<rect x="312.277" y="0.5" width="79" height="27" rx="13.5" stroke="#555555"/>
<path d="M334.553 15.4695H333.365V6.81996H334.553V15.4695ZM322.65 12.2495C324.004 12.2495 325.322 12.2236 326.603 12.1718C327.887 12.12 329.045 12.0126 330.078 11.8498L330.167 12.6936C329.278 12.8787 328.25 13.0138 327.08 13.0989V15.4251H325.881V13.1655C325.085 13.1988 324.228 13.2155 323.31 13.2155H322.783L322.65 12.2495ZM323.383 9.38484C323.383 8.96291 323.508 8.5965 323.76 8.2856C324.015 7.97471 324.373 7.73599 324.832 7.56944C325.291 7.40289 325.825 7.31961 326.436 7.31961C327.043 7.31961 327.576 7.40289 328.035 7.56944C328.498 7.73599 328.855 7.97471 329.106 8.2856C329.362 8.5965 329.489 8.96291 329.489 9.38484C329.489 9.79936 329.362 10.1639 329.106 10.4785C328.851 10.7894 328.492 11.03 328.029 11.2002C327.57 11.3668 327.039 11.4501 326.436 11.4501C325.829 11.4501 325.294 11.3668 324.832 11.2002C324.373 11.03 324.015 10.7894 323.76 10.4785C323.508 10.1676 323.383 9.80306 323.383 9.38484ZM324.515 9.38484C324.515 9.62171 324.593 9.82897 324.748 10.0066C324.904 10.1806 325.126 10.3157 325.415 10.4119C325.707 10.5044 326.047 10.5507 326.436 10.5507C326.821 10.5507 327.16 10.5044 327.452 10.4119C327.744 10.3157 327.97 10.1806 328.129 10.0066C328.292 9.82897 328.375 9.62171 328.379 9.38484C328.375 9.14426 328.292 8.93515 328.129 8.7575C327.97 8.57614 327.744 8.4392 327.452 8.34667C327.16 8.25044 326.821 8.20418 326.436 8.20788C326.047 8.20418 325.709 8.25044 325.42 8.34667C325.131 8.4392 324.907 8.57614 324.748 8.7575C324.593 8.93515 324.515 9.14426 324.515 9.38484ZM325.137 15.9691H326.347V17.2904H333.331V15.9691H334.553V20.5881H325.137V15.9691ZM333.331 19.5999V18.2675H326.347V19.5999H333.331ZM328.357 13.7263H330.844V7.06423H332.021V15.4251H330.844V14.6145H328.357V13.7263ZM345.343 10.5729C345.34 11.3723 345.499 12.1699 345.821 12.9657C346.143 13.7614 346.58 14.4739 347.131 15.1031C347.686 15.7323 348.293 16.2097 348.952 16.5354L348.186 17.5236C347.679 17.2571 347.201 16.9037 346.754 16.4632C346.309 16.0191 345.915 15.5139 345.571 14.9476C345.231 14.3776 344.957 13.7707 344.749 13.1267C344.542 13.8077 344.263 14.4517 343.911 15.0587C343.563 15.6656 343.16 16.2042 342.701 16.6742C342.242 17.1405 341.753 17.5125 341.235 17.7901L340.458 16.8019C341.128 16.4688 341.742 15.9728 342.301 15.314C342.86 14.6515 343.302 13.9039 343.628 13.0712C343.954 12.2384 344.118 11.4056 344.122 10.5729V8.03023H345.343V10.5729ZM350.229 6.81996H351.461V12.4827H353.793V13.5486H351.461V20.7769H350.229V6.81996ZM366.056 20.7991H364.824V6.81996H366.056V20.7991ZM355.075 12.7603C355.075 11.7869 355.225 10.9338 355.525 10.2009C355.828 9.46811 356.25 8.90184 356.79 8.50212C357.331 8.1024 357.947 7.90069 358.639 7.89699C359.328 7.90069 359.94 8.1024 360.477 8.50212C361.017 8.90184 361.439 9.46996 361.743 10.2065C362.05 10.9393 362.203 11.7906 362.203 12.7603C362.203 13.7337 362.05 14.5886 361.743 15.3251C361.439 16.0617 361.017 16.6298 360.477 17.0295C359.936 17.4255 359.324 17.6235 358.639 17.6235C357.947 17.6235 357.331 17.4255 356.79 17.0295C356.25 16.6298 355.828 16.0635 355.525 15.3307C355.225 14.5942 355.075 13.7374 355.075 12.7603ZM356.263 12.7603C356.263 13.5079 356.363 14.1667 356.563 14.7367C356.763 15.3066 357.042 15.7471 357.401 16.058C357.764 16.3689 358.177 16.5243 358.639 16.5243C359.102 16.5243 359.511 16.3689 359.866 16.058C360.225 15.7471 360.505 15.3066 360.704 14.7367C360.904 14.1667 361.004 13.5079 361.004 12.7603C361.004 12.0163 360.904 11.3612 360.704 10.795C360.505 10.225 360.225 9.78456 359.866 9.47366C359.511 9.15907 359.102 8.99992 358.639 8.99622C358.177 8.99992 357.764 9.15907 357.401 9.47366C357.042 9.78456 356.763 10.225 356.563 10.795C356.363 11.3612 356.263 12.0163 356.263 12.7603ZM379.752 15.3695H370.103V8.03023H379.596V9.05174H371.346V11.1281H379.296V12.1274H371.346V14.3591H379.752V15.3695ZM368.448 17.9233H381.228V18.9559H368.448V17.9233Z" fill="#555555"/>
<circle cx="400.891" cy="13.9999" r="2.67961" fill="#555555"/>
<rect x="410.5" y="0.5" width="105" height="27" rx="13.5" stroke="#555555"/>
<path d="M432.582 17.2127H431.35V13.16H428.951V12.1163H431.35V10.5063H428.951V9.48477H431.35V6.81996H432.582V17.2127ZM421.046 14.0371C421.608 14.0371 422.208 14.0316 422.844 14.0205V8.96291H421.434V7.9525H428.84V8.96291H427.419V13.8595C428.078 13.8151 428.707 13.7596 429.307 13.6929L429.362 14.6145C428.163 14.7996 426.89 14.9236 425.543 14.9865C424.195 15.0494 422.748 15.0846 421.201 15.092L421.046 14.0371ZM423.588 16.3466H424.832V19.4445H432.96V20.466H423.588V16.3466ZM424.044 13.9983C424.651 13.9872 425.38 13.9631 426.231 13.9261V8.96291H424.044V13.9983ZM439.937 9.11836C439.937 9.71424 440.091 10.2842 440.398 10.8283C440.705 11.3723 441.131 11.8498 441.675 12.2606C442.219 12.6714 442.835 12.9823 443.524 13.1933L442.902 14.1593C442.08 13.9002 441.357 13.5023 440.731 12.9657C440.106 12.429 439.636 11.7998 439.321 11.0781C439.018 11.8479 438.551 12.5234 437.922 13.1045C437.293 13.6855 436.558 14.1186 435.718 14.4036L435.085 13.4265C435.781 13.2044 436.401 12.8768 436.945 12.4438C437.493 12.0108 437.92 11.5056 438.228 10.9282C438.535 10.3508 438.69 9.74755 438.694 9.11836V8.76305H435.429V7.75264H443.146V8.76305H439.937V9.11836ZM437.395 15.0587H438.605V16.7464H445.212V15.0587H446.433V20.5881H437.395V15.0587ZM445.212 19.5777V17.7346H438.605V19.5777H445.212ZM445.2 6.81996H446.433V14.3702H445.2V6.81996ZM456.275 11.6863C457.224 11.6863 457.98 12.4419 457.98 13.3905C457.98 14.3391 457.224 15.0947 456.275 15.0947C455.327 15.0947 454.571 14.3391 454.571 13.3905C454.571 12.4419 455.327 11.6863 456.275 11.6863ZM471.232 16.4799C472.253 16.4799 473.121 16.5613 473.835 16.7242C474.553 16.887 475.099 17.1294 475.473 17.4514C475.847 17.7734 476.036 18.1676 476.039 18.6339C476.036 19.3223 475.619 19.8461 474.79 20.2051C473.961 20.5641 472.775 20.7436 471.232 20.7436C469.677 20.7436 468.485 20.5641 467.656 20.2051C466.827 19.8461 466.413 19.3223 466.413 18.6339C466.413 18.1676 466.6 17.7734 466.974 17.4514C467.347 17.1294 467.893 16.887 468.611 16.7242C469.329 16.5613 470.203 16.4799 471.232 16.4799ZM464.881 14.6145H470.632V13.5264C469.366 13.482 468.395 13.2914 467.717 12.9546C467.04 12.6178 466.701 12.1496 466.701 11.55C466.701 10.8949 467.092 10.3989 467.873 10.0621C468.654 9.72164 469.773 9.55139 471.232 9.55139C472.694 9.55139 473.813 9.72164 474.59 10.0621C475.371 10.3989 475.762 10.8949 475.762 11.55C475.762 12.1496 475.425 12.6178 474.751 12.9546C474.082 13.2877 473.116 13.4783 471.853 13.5264V14.6145H477.605V15.6138H464.881V14.6145ZM465.547 7.99692H470.632V6.6201H471.853V7.99692H476.861V8.97401H465.547V7.99692ZM467.679 18.6339C467.679 19.0152 467.988 19.3075 468.606 19.5111C469.224 19.7184 470.099 19.8183 471.232 19.8109C472.364 19.8183 473.239 19.7184 473.858 19.5111C474.476 19.3075 474.785 19.0152 474.785 18.6339C474.785 18.2416 474.476 17.94 473.858 17.729C473.243 17.518 472.368 17.4126 471.232 17.4126C470.095 17.4126 469.218 17.518 468.6 17.729C467.986 17.94 467.679 18.2416 467.679 18.6339ZM468.023 11.55C468.019 11.7832 468.143 11.983 468.395 12.1496C468.646 12.3124 469.013 12.4364 469.494 12.5215C469.975 12.6067 470.554 12.6492 471.232 12.6492C472.257 12.6492 473.049 12.5548 473.608 12.3661C474.17 12.1736 474.452 11.9016 474.452 11.55C474.452 11.1836 474.172 10.9041 473.613 10.7117C473.054 10.5155 472.261 10.4175 471.232 10.4175C470.206 10.4175 469.414 10.5155 468.856 10.7117C468.297 10.9078 468.019 11.1873 468.023 11.55ZM491.556 18.9892H478.776V17.9566H484.516V14.9476H480.286V7.80816H481.518V10.3286H488.769V7.80816H489.99V14.9476H485.738V17.9566H491.556V18.9892ZM488.769 13.9372V11.339H481.518V13.9372H488.769ZM505.395 13.7151H499.633V15.1031H503.752V18.2231H495.458V19.6443H504.174V20.6214H494.248V17.3015H502.542V16.058H494.214V15.1031H498.4V13.7151H492.671V12.7158H505.395V13.7151ZM494.325 7.2863H503.741V11.5389H494.325V7.2863ZM502.509 10.5507V8.2745H495.536V10.5507H502.509Z" fill="#555555"/>
</svg>
