<svg width="284" height="21" viewBox="0 0 284 21" fill="none" xmlns="http://www.w3.org/2000/svg">
<rect x="0.768432" y="0.366089" width="45.9114" height="19.7688" rx="9.88439" stroke="#555555" stroke-width="0.732177"/>
<path d="M18.1916 14.3029H8.48105V13.5183H18.1916V14.3029ZM9.62843 5.8747H10.5649V7.8573H16.074V5.8747H17.002V11.3922H9.62843V5.8747ZM16.074 10.6414V8.60816H10.5649V10.6414H16.074ZM28.0408 13.0205H27.155V9.08061H25.6617V12.7083H24.7843V5.32632H25.6617V8.296H27.155V5.12384H28.0408V13.0205ZM19.503 6.03499H23.5188V9.0553H20.4395V10.6667C21.1763 10.6639 21.8287 10.64 22.3968 10.595C22.9676 10.5472 23.5554 10.4642 24.16 10.3461L24.2612 11.1054C23.6088 11.2291 22.9775 11.3135 22.3672 11.3585C21.757 11.4035 21.0413 11.426 20.2201 11.426H19.5283V8.32131H22.6245V6.79429H19.503V6.03499ZM21.0891 12.2949H22.0255V14.7078H28.3699V15.484H21.0891V12.2949ZM38.3541 11.6453H37.4177V5.1154H38.3541V11.6453ZM30.2466 5.95063H35.2748V6.71836H31.183V9.82303C32.3698 9.82303 33.3386 9.79772 34.0894 9.7471C34.8403 9.69366 35.5869 9.59243 36.3293 9.44338L36.4306 10.228C35.6713 10.3714 34.9106 10.4684 34.1485 10.519C33.3864 10.5669 32.3782 10.5936 31.124 10.5992H30.2466V5.95063ZM31.2252 13.6786C31.2252 13.2567 31.3686 12.8939 31.6555 12.5902C31.9423 12.2865 32.3543 12.0545 32.8914 11.8942C33.4314 11.7339 34.0711 11.6538 34.8108 11.6538C35.5419 11.6538 36.1747 11.7339 36.709 11.8942C37.2461 12.0545 37.6595 12.2865 37.9492 12.5902C38.2388 12.8939 38.3851 13.2567 38.3879 13.6786C38.3851 14.1004 38.2388 14.4632 37.9492 14.7669C37.6623 15.0734 37.2503 15.3068 36.7132 15.4671C36.1761 15.6274 35.5419 15.709 34.8108 15.7118C34.0711 15.709 33.4314 15.6274 32.8914 15.4671C32.3543 15.3068 31.9423 15.0748 31.6555 14.7711C31.3686 14.4674 31.2252 14.1032 31.2252 13.6786ZM32.1701 13.6786C32.1701 13.9401 32.2756 14.1665 32.4865 14.3577C32.6974 14.5489 33.0011 14.6952 33.3976 14.7964C33.7941 14.9005 34.2652 14.9525 34.8108 14.9525C35.3535 14.9525 35.8231 14.9005 36.2197 14.7964C36.619 14.6952 36.9255 14.5489 37.1393 14.3577C37.353 14.1665 37.4598 13.9401 37.4598 13.6786C37.4598 13.4142 37.353 13.1864 37.1393 12.9952C36.9255 12.804 36.619 12.6577 36.2197 12.5565C35.8231 12.4552 35.3535 12.4046 34.8108 12.4046C34.2652 12.4046 33.7941 12.4552 33.3976 12.5565C33.0011 12.6577 32.6974 12.804 32.4865 12.9952C32.2756 13.1864 32.1701 13.4142 32.1701 13.6786Z" fill="#555555"/>
<ellipse cx="53.7159" cy="10.251" rx="1.96195" ry="1.96195" fill="#555555"/>
<rect x="60.7528" y="0.366089" width="45.9114" height="19.7688" rx="9.88439" stroke="#555555" stroke-width="0.732177"/>
<path d="M73.9745 5.9675C73.9689 7.37922 73.5766 8.58425 72.7976 9.58258C72.0186 10.5781 70.7967 11.3529 69.1319 11.9069L68.7523 11.156C70.4958 10.5823 71.7009 9.75835 72.3673 8.68409L68.8535 8.97093L68.6932 8.19476L72.7048 8.00494C72.8539 7.61404 72.9481 7.19362 72.9874 6.74367H69.2247V5.9675H73.9745ZM70.5577 12.2106H71.5026V14.7078H77.5601V15.484H70.5577V12.2106ZM73.9576 8.49848H76.3199V5.12384H77.2564V12.9952H76.3199V9.28308H73.9576V8.49848ZM87.8143 10.5992H86.8778V7.84042H84.5156V7.06426H86.8778V5.1154H87.8143V10.5992ZM79.0149 9.87365C79.5436 9.69648 80.0119 9.43775 80.4196 9.09748C80.8274 8.7572 81.1438 8.35928 81.3687 7.9037C81.5965 7.44812 81.7118 6.96583 81.7146 6.45682V5.45287H82.6342V6.45682C82.6314 6.9124 82.7411 7.35251 82.9633 7.77715C83.1882 8.19898 83.5004 8.5716 83.8997 8.895C84.3019 9.21559 84.7603 9.46025 85.2749 9.62898L84.7687 10.363C84.1809 10.1521 83.6621 9.84552 83.2121 9.44338C82.765 9.04123 82.4247 8.573 82.1913 8.03869C81.9635 8.64331 81.6176 9.16919 81.1536 9.61633C80.6924 10.0635 80.1482 10.3995 79.5211 10.6245L79.0149 9.87365ZM80.9385 11.1391H87.8143V13.6617H81.8834V14.8175H88.2108V15.5768H80.9638V12.9446H86.8863V11.89H80.9385V11.1391ZM95.2844 6.6593H91.1421V8.00072H94.9892V8.76001H91.1421V10.1521H91.6609C92.6846 10.1521 93.524 10.1324 94.1793 10.093C94.8373 10.0536 95.4954 9.9777 96.1534 9.86521L96.2547 10.6329C95.5516 10.7482 94.8528 10.827 94.1582 10.8692C93.4635 10.9085 92.5805 10.9282 91.5091 10.9282H91.0577H90.1972V5.90001H95.2844V6.6593ZM91.2264 13.7629C91.2264 13.3608 91.3685 13.0163 91.6525 12.7294C91.9393 12.4398 92.3513 12.2204 92.8885 12.0714C93.4256 11.9195 94.0668 11.845 94.812 11.8478C95.546 11.845 96.1815 11.9195 96.7187 12.0714C97.2558 12.2204 97.6678 12.4398 97.9546 12.7294C98.2443 13.0163 98.3891 13.3608 98.3891 13.7629C98.3891 14.1679 98.2443 14.5152 97.9546 14.8048C97.6678 15.0945 97.2558 15.3153 96.7187 15.4671C96.1844 15.619 95.5488 15.6949 94.812 15.6949C94.0668 15.6949 93.4256 15.619 92.8885 15.4671C92.3513 15.3181 91.9393 15.0987 91.6525 14.8091C91.3685 14.5194 91.2264 14.1707 91.2264 13.7629ZM92.1545 13.7629C92.1545 14.0104 92.2599 14.2241 92.4708 14.4041C92.6818 14.5813 92.9869 14.7163 93.3862 14.8091C93.7855 14.9047 94.2608 14.9525 94.812 14.9525C95.3519 14.9525 95.8216 14.9047 96.2209 14.8091C96.6202 14.7163 96.9268 14.5813 97.1405 14.4041C97.3542 14.2241 97.4611 14.0104 97.4611 13.7629C97.4611 13.5239 97.3528 13.3158 97.1363 13.1386C96.9226 12.9614 96.616 12.8265 96.2167 12.7337C95.8202 12.638 95.3519 12.5902 94.812 12.5902C94.2636 12.5902 93.7898 12.638 93.3904 12.7337C92.9911 12.8265 92.6846 12.9614 92.4708 13.1386C92.2599 13.313 92.1545 13.5211 92.1545 13.7629ZM97.402 5.12384H98.3385V11.696H97.402V5.12384Z" fill="#555555"/>
<ellipse cx="113.7" cy="10.251" rx="1.96195" ry="1.96195" fill="#555555"/>
<rect x="120.737" y="0.366089" width="45.9114" height="19.7688" rx="9.88439" stroke="#555555" stroke-width="0.732177"/>
<path d="M133.782 13.0205H128.889V6.18685H133.782V13.0205ZM132.845 12.2528V6.93771H129.8V12.2528H132.845ZM135.722 5.1154H136.659V9.35058H138.43V10.1521H136.659V15.7202H135.722V5.1154ZM143.682 6.37246C143.676 7.47203 143.535 8.45067 143.26 9.30839H144.964V5.40225H145.858V15.1803H144.964V10.0846H142.956C142.644 10.7679 142.215 11.3965 141.669 11.9701C141.124 12.5438 140.439 13.0571 139.615 13.5098L139.075 12.8433C139.868 12.4102 140.521 11.9209 141.033 11.3754C141.547 10.8298 141.944 10.2308 142.222 9.57836L139.193 9.89052L139.058 9.06373L142.484 8.84016C142.633 8.32272 142.727 7.75887 142.766 7.14862H139.573V6.37246H143.682ZM147.191 5.1154H148.086V15.7202H147.191V5.1154ZM155.269 6.6593H151.126V8.00072H154.974V8.76001H151.126V10.1521H151.645C152.669 10.1521 153.508 10.1324 154.164 10.093C154.822 10.0536 155.48 9.9777 156.138 9.86521L156.239 10.6329C155.536 10.7482 154.837 10.827 154.143 10.8692C153.448 10.9085 152.565 10.9282 151.493 10.9282H151.042H150.182V5.90001H155.269V6.6593ZM151.211 13.7629C151.211 13.3608 151.353 13.0163 151.637 12.7294C151.924 12.4398 152.336 12.2204 152.873 12.0714C153.41 11.9195 154.051 11.845 154.796 11.8478C155.53 11.845 156.166 11.9195 156.703 12.0714C157.24 12.2204 157.652 12.4398 157.939 12.7294C158.229 13.0163 158.373 13.3608 158.373 13.7629C158.373 14.1679 158.229 14.5152 157.939 14.8048C157.652 15.0945 157.24 15.3153 156.703 15.4671C156.169 15.619 155.533 15.6949 154.796 15.6949C154.051 15.6949 153.41 15.619 152.873 15.4671C152.336 15.3181 151.924 15.0987 151.637 14.8091C151.353 14.5194 151.211 14.1707 151.211 13.7629ZM152.139 13.7629C152.139 14.0104 152.244 14.2241 152.455 14.4041C152.666 14.5813 152.971 14.7163 153.371 14.8091C153.77 14.9047 154.245 14.9525 154.796 14.9525C155.336 14.9525 155.806 14.9047 156.205 14.8091C156.605 14.7163 156.911 14.5813 157.125 14.4041C157.339 14.2241 157.445 14.0104 157.445 13.7629C157.445 13.5239 157.337 13.3158 157.121 13.1386C156.907 12.9614 156.6 12.8265 156.201 12.7337C155.805 12.638 155.336 12.5902 154.796 12.5902C154.248 12.5902 153.774 12.638 153.375 12.7337C152.975 12.8265 152.669 12.9614 152.455 13.1386C152.244 13.313 152.139 13.5211 152.139 13.7629ZM157.386 5.12384H158.323V11.696H157.386V5.12384Z" fill="#555555"/>
<ellipse cx="173.687" cy="10.251" rx="1.96195" ry="1.96195" fill="#555555"/>
<rect x="180.724" y="0.366089" width="102.911" height="19.7688" rx="9.88439" stroke="#555555" stroke-width="0.732177"/>
<path d="M189.579 6.11092H194.776V7.06426H190.65V9.94958H194.387V10.8945H190.65V14.75H189.579V6.11092ZM199.93 8.27069H200.951V14.75H199.93V13.6532H199.862C199.699 14.0048 199.453 14.2902 199.124 14.5096C198.798 14.7261 198.403 14.8344 197.939 14.8344C197.523 14.8344 197.157 14.743 196.842 14.5602C196.527 14.3774 196.281 14.1032 196.104 13.7376C195.927 13.372 195.838 12.9221 195.838 12.3878V8.27069H196.867V12.3118C196.867 12.6184 196.926 12.8883 197.044 13.1217C197.165 13.3523 197.331 13.5309 197.542 13.6575C197.756 13.784 198.001 13.8473 198.276 13.8473C198.538 13.8473 198.795 13.7826 199.048 13.6532C199.304 13.5211 199.515 13.3228 199.681 13.0585C199.847 12.7941 199.93 12.4721 199.93 12.0925V8.27069ZM203.62 14.75H202.59V6.11092H203.62V14.75ZM206.28 14.75H205.251V6.11092H206.28V14.75ZM213.626 14.885C213.027 14.885 212.504 14.743 212.057 14.4589C211.613 14.1749 211.271 13.7798 211.032 13.2736C210.793 12.7674 210.673 12.1909 210.673 11.5441C210.673 10.8917 210.796 10.3109 211.04 9.80193C211.285 9.29293 211.629 8.89641 212.074 8.61237C212.518 8.32834 213.03 8.18633 213.609 8.18633C214.062 8.18633 214.474 8.2721 214.845 8.44364C215.216 8.61237 215.519 8.85141 215.752 9.16075C215.986 9.4701 216.129 9.82584 216.182 10.228H215.162C215.108 10.0227 215.014 9.83427 214.879 9.66273C214.747 9.49119 214.574 9.35479 214.36 9.25356C214.149 9.1495 213.905 9.09748 213.626 9.09748C213.244 9.09748 212.908 9.19731 212.618 9.39698C212.328 9.59664 212.103 9.87927 211.943 10.2449C211.783 10.6076 211.703 11.0295 211.703 11.5103C211.703 12.0025 211.781 12.4342 211.939 12.8054C212.096 13.1766 212.32 13.4634 212.61 13.6659C212.899 13.8656 213.238 13.9654 213.626 13.9654C214.011 13.9654 214.34 13.867 214.613 13.6701C214.886 13.4704 215.069 13.1949 215.162 12.8433H216.182C216.129 13.2314 215.99 13.5801 215.765 13.8895C215.543 14.1988 215.247 14.4421 214.879 14.6192C214.513 14.7964 214.096 14.885 213.626 14.885ZM217.139 12.9108C217.139 12.2443 217.369 11.7733 217.827 11.4977C218.285 11.2221 218.866 11.0576 219.569 11.0042C219.845 10.9845 220.171 10.9648 220.548 10.9451C220.927 10.9226 221.186 10.9099 221.324 10.9071V10.3798C221.324 9.96364 221.2 9.64305 220.953 9.41807C220.705 9.19309 220.34 9.08061 219.856 9.08061C219.462 9.08061 219.14 9.16216 218.89 9.32527C218.64 9.48556 218.475 9.69648 218.396 9.95801H217.333C217.376 9.61211 217.509 9.30558 217.734 9.03842C217.962 8.76845 218.263 8.55894 218.637 8.4099C219.011 8.26085 219.434 8.18633 219.907 8.18633C220.278 8.18633 220.643 8.24257 221.003 8.35506C221.363 8.46755 221.677 8.69393 221.944 9.0342C222.211 9.37448 222.345 9.85677 222.345 10.4811V14.75H221.324V13.8726H221.273C221.192 14.0385 221.069 14.1988 220.906 14.3535C220.743 14.5082 220.529 14.6389 220.265 14.7458C220.004 14.8498 219.698 14.9019 219.35 14.9019C218.936 14.9019 218.561 14.8231 218.223 14.6656C217.889 14.5082 217.624 14.279 217.43 13.9781C217.236 13.6771 217.139 13.3214 217.139 12.9108ZM218.169 12.9614C218.169 13.2933 218.292 13.5478 218.54 13.725C218.787 13.9021 219.113 13.9907 219.518 13.9907C219.892 13.9907 220.216 13.9176 220.489 13.7714C220.761 13.6223 220.968 13.4269 221.109 13.185C221.252 12.9403 221.324 12.6802 221.324 12.4046V11.7508L220.168 11.8309L219.696 11.8647C219.209 11.8956 218.832 12.0011 218.565 12.1811C218.301 12.3582 218.169 12.6184 218.169 12.9614ZM223.981 8.27069H224.976V9.25777H225.044C225.122 9.04405 225.245 8.85563 225.411 8.69252C225.577 8.5266 225.773 8.39865 226.001 8.30866C226.229 8.21585 226.469 8.16945 226.722 8.16945C226.919 8.16945 227.097 8.17508 227.254 8.18633V9.22403C227.189 9.20997 227.098 9.19591 226.98 9.18184C226.865 9.16497 226.751 9.15653 226.638 9.15653C226.329 9.15653 226.05 9.22262 225.803 9.35479C225.555 9.48416 225.361 9.66414 225.221 9.89474C225.08 10.1225 225.01 10.3798 225.01 10.6667V14.75H223.981V8.27069ZM230.774 14.885C230.158 14.885 229.621 14.7472 229.162 14.4716C228.707 14.196 228.357 13.8079 228.112 13.3073C227.867 12.804 227.745 12.2218 227.745 11.561C227.745 10.9029 227.867 10.3194 228.112 9.81037C228.357 9.29855 228.7 8.90062 229.141 8.61659C229.586 8.32975 230.096 8.18633 230.672 8.18633C231.165 8.18633 231.622 8.2946 232.043 8.51113C232.465 8.72767 232.808 9.07779 233.073 9.56149C233.34 10.0452 233.473 10.6667 233.473 11.426V11.8562H228.778C228.793 12.3034 228.884 12.6858 229.053 13.0036C229.224 13.3214 229.458 13.5633 229.753 13.7292C230.048 13.8923 230.388 13.9738 230.774 13.9738C231.139 13.9738 231.449 13.9049 231.702 13.7671C231.955 13.6293 232.146 13.4508 232.275 13.2314H233.372C233.271 13.5604 233.099 13.8501 232.858 14.1004C232.619 14.3479 232.32 14.5405 231.963 14.6783C231.606 14.8161 231.21 14.885 230.774 14.885ZM232.427 10.9788C232.427 10.6189 232.356 10.2969 232.212 10.0128C232.069 9.72601 231.865 9.50244 231.601 9.34214C231.336 9.17903 231.03 9.09748 230.681 9.09748C230.318 9.09748 229.996 9.18325 229.715 9.35479C229.437 9.52634 229.216 9.75553 229.053 10.0424C228.892 10.3292 228.801 10.6414 228.778 10.9788H232.427ZM241.469 9.95801C241.399 9.67679 241.256 9.45744 241.039 9.29996C240.823 9.14247 240.53 9.06373 240.162 9.06373C239.9 9.06373 239.665 9.10732 239.457 9.1945C239.249 9.27887 239.086 9.39557 238.968 9.54462C238.853 9.69085 238.795 9.85396 238.795 10.0339C238.795 10.2505 238.885 10.4333 239.065 10.5823C239.245 10.7314 239.523 10.8523 239.9 10.9451L240.87 11.1813C241.45 11.3219 241.881 11.5371 242.165 11.8267C242.449 12.1164 242.591 12.4862 242.591 12.9361C242.591 13.313 242.492 13.649 242.292 13.9443C242.092 14.2368 241.801 14.4674 241.419 14.6361C241.039 14.802 240.584 14.885 240.052 14.885C239.329 14.885 238.754 14.7289 238.327 14.4168C237.902 14.1018 237.648 13.6476 237.563 13.0542H238.635C238.694 13.3692 238.839 13.604 239.069 13.7587C239.303 13.9134 239.625 13.9907 240.035 13.9907C240.339 13.9907 240.603 13.9499 240.828 13.8684C241.056 13.7868 241.23 13.6715 241.351 13.5225C241.475 13.3706 241.537 13.1949 241.537 12.9952C241.537 12.7646 241.45 12.5734 241.275 12.4215C241.104 12.2696 240.837 12.1515 240.474 12.0672L239.495 11.8394C238.933 11.71 238.504 11.4963 238.209 11.1982C237.913 10.8973 237.766 10.5289 237.766 10.093C237.766 9.72741 237.866 9.39979 238.065 9.11013C238.268 8.82048 238.55 8.59409 238.913 8.43099C239.279 8.26788 239.695 8.18633 240.162 8.18633C240.6 8.18633 240.986 8.26085 241.318 8.4099C241.652 8.55613 241.918 8.76283 242.115 9.02999C242.314 9.29433 242.437 9.60367 242.482 9.95801H241.469ZM246.652 14.885C246.037 14.885 245.499 14.7472 245.041 14.4716C244.585 14.196 244.235 13.8079 243.991 13.3073C243.746 12.804 243.624 12.2218 243.624 11.561C243.624 10.9029 243.746 10.3194 243.991 9.81037C244.235 9.29855 244.578 8.90062 245.02 8.61659C245.464 8.32975 245.975 8.18633 246.551 8.18633C247.043 8.18633 247.5 8.2946 247.922 8.51113C248.344 8.72767 248.687 9.07779 248.951 9.56149C249.219 10.0452 249.352 10.6667 249.352 11.426V11.8562H244.657C244.671 12.3034 244.763 12.6858 244.931 13.0036C245.103 13.3214 245.336 13.5633 245.632 13.7292C245.927 13.8923 246.267 13.9738 246.652 13.9738C247.018 13.9738 247.327 13.9049 247.58 13.7671C247.834 13.6293 248.025 13.4508 248.154 13.2314H249.251C249.15 13.5604 248.978 13.8501 248.736 14.1004C248.497 14.3479 248.199 14.5405 247.842 14.6783C247.485 14.8161 247.088 14.885 246.652 14.885ZM248.306 10.9788C248.306 10.6189 248.234 10.2969 248.091 10.0128C247.947 9.72601 247.744 9.50244 247.479 9.34214C247.215 9.17903 246.908 9.09748 246.56 9.09748C246.197 9.09748 245.875 9.18325 245.594 9.35479C245.315 9.52634 245.094 9.75553 244.931 10.0424C244.771 10.3292 244.68 10.6414 244.657 10.9788H248.306ZM250.68 8.27069H251.675V9.25777H251.743C251.821 9.04405 251.944 8.85563 252.11 8.69252C252.276 8.5266 252.472 8.39865 252.7 8.30866C252.928 8.21585 253.168 8.16945 253.422 8.16945C253.618 8.16945 253.796 8.17508 253.953 8.18633V9.22403C253.888 9.20997 253.797 9.19591 253.679 9.18184C253.564 9.16497 253.45 9.15653 253.337 9.15653C253.028 9.15653 252.749 9.22262 252.502 9.35479C252.255 9.48416 252.06 9.66414 251.92 9.89474C251.779 10.1225 251.709 10.3798 251.709 10.6667V14.75H250.68V8.27069ZM258.089 14.75H257.035L254.647 8.27069H255.761L257.533 13.4086H257.6L259.372 8.27069H260.485L258.089 14.75ZM261.619 8.27069H262.649V14.75H261.619V8.27069ZM262.142 7.19924C262.013 7.19924 261.892 7.16972 261.78 7.11066C261.67 7.04879 261.581 6.96583 261.514 6.86178C261.449 6.75492 261.417 6.63962 261.417 6.51588C261.417 6.39214 261.449 6.27825 261.514 6.1742C261.581 6.06733 261.67 5.98437 261.78 5.92532C261.892 5.86345 262.013 5.83251 262.142 5.83251C262.269 5.83251 262.387 5.86345 262.497 5.92532C262.609 5.98437 262.698 6.06733 262.763 6.1742C262.827 6.27825 262.86 6.39214 262.86 6.51588C262.86 6.63962 262.827 6.75492 262.763 6.86178C262.698 6.96583 262.609 7.04879 262.497 7.11066C262.387 7.16972 262.269 7.19924 262.142 7.19924ZM266.929 14.885C266.33 14.885 265.807 14.743 265.36 14.4589C264.915 14.1749 264.574 13.7798 264.335 13.2736C264.096 12.7674 263.976 12.1909 263.976 11.5441C263.976 10.8917 264.098 10.3109 264.343 9.80193C264.588 9.29293 264.932 8.89641 265.376 8.61237C265.821 8.32834 266.333 8.18633 266.912 8.18633C267.365 8.18633 267.777 8.2721 268.148 8.44364C268.519 8.61237 268.821 8.85141 269.055 9.16075C269.288 9.4701 269.432 9.82584 269.485 10.228H268.464C268.411 10.0227 268.317 9.83427 268.182 9.66273C268.049 9.49119 267.877 9.35479 267.663 9.25356C267.452 9.1495 267.207 9.09748 266.929 9.09748C266.546 9.09748 266.21 9.19731 265.921 9.39698C265.631 9.59664 265.406 9.87927 265.246 10.2449C265.085 10.6076 265.005 11.0295 265.005 11.5103C265.005 12.0025 265.084 12.4342 265.242 12.8054C265.399 13.1766 265.623 13.4634 265.912 13.6659C266.202 13.8656 266.541 13.9654 266.929 13.9654C267.314 13.9654 267.643 13.867 267.916 13.6701C268.189 13.4704 268.371 13.1949 268.464 12.8433H269.485C269.432 13.2314 269.292 13.5801 269.068 13.8895C268.845 14.1988 268.55 14.4421 268.182 14.6192C267.816 14.7964 267.398 14.885 266.929 14.885ZM273.471 14.885C272.855 14.885 272.318 14.7472 271.859 14.4716C271.404 14.196 271.054 13.8079 270.809 13.3073C270.564 12.804 270.442 12.2218 270.442 11.561C270.442 10.9029 270.564 10.3194 270.809 9.81037C271.054 9.29855 271.397 8.90062 271.838 8.61659C272.283 8.32975 272.793 8.18633 273.37 8.18633C273.862 8.18633 274.319 8.2946 274.74 8.51113C275.162 8.72767 275.505 9.07779 275.77 9.56149C276.037 10.0452 276.17 10.6667 276.17 11.426V11.8562H271.475C271.49 12.3034 271.581 12.6858 271.75 13.0036C271.921 13.3214 272.155 13.5633 272.45 13.7292C272.745 13.8923 273.085 13.9738 273.471 13.9738C273.836 13.9738 274.146 13.9049 274.399 13.7671C274.652 13.6293 274.843 13.4508 274.972 13.2314H276.069C275.968 13.5604 275.796 13.8501 275.555 14.1004C275.316 14.3479 275.017 14.5405 274.66 14.6783C274.303 14.8161 273.907 14.885 273.471 14.885ZM275.124 10.9788C275.124 10.6189 275.053 10.2969 274.909 10.0128C274.766 9.72601 274.562 9.50244 274.298 9.34214C274.033 9.17903 273.727 9.09748 273.378 9.09748C273.015 9.09748 272.693 9.18325 272.412 9.35479C272.134 9.52634 271.913 9.75553 271.75 10.0424C271.589 10.3292 271.498 10.6414 271.475 10.9788H275.124Z" fill="#555555"/>
</svg>
