<svg width="541" height="28" viewBox="0 0 541 28" fill="none" xmlns="http://www.w3.org/2000/svg">
<rect x="0.613281" y="0.5" width="139" height="27" rx="13.5" stroke="#555555"/>
<path d="M15.5334 11.117C15.5334 11.8683 15.6555 12.6067 15.8998 13.3321C16.1477 14.0575 16.5012 14.7145 16.9601 15.3029C17.4191 15.8877 17.9576 16.3466 18.5757 16.6797L17.8651 17.6013C17.1841 17.2275 16.5956 16.702 16.0996 16.0246C15.6037 15.3436 15.2262 14.572 14.9671 13.7096C14.7117 14.6312 14.336 15.4602 13.8401 16.1967C13.3441 16.9296 12.7575 17.5014 12.0802 17.9122L11.3363 16.9795C11.9544 16.6205 12.491 16.1301 12.9463 15.5083C13.4015 14.8829 13.7513 14.1889 13.9955 13.4265C14.2398 12.6603 14.3638 11.8905 14.3675 11.117V10.4286H11.7138V9.40704H14.3675V7.33072H15.5445V9.40704H18.1538V10.4286H15.5334V11.117ZM17.1878 12.3272H19.3862V7.15306H20.5521V20.0441H19.3862V13.3709H17.1878V12.3272ZM22.1954 6.81996H23.3723V20.7769H22.1954V6.81996ZM37.2898 20.7769H36.1128V6.81996H37.2898V20.7769ZM25.3315 16.8685C26.8156 15.9876 27.9537 14.9347 28.7458 13.7096C29.5415 12.4808 30.0023 11.1207 30.1281 9.62911H25.9533V8.5965H31.3495C31.3495 9.32562 31.2866 10.0288 31.1607 10.7061H33.2815V7.19748H34.4695V20.0663H33.2815V15.2252H30.6944V14.2037H33.2815V11.7276H30.922C30.5704 12.949 29.9949 14.0686 29.1954 15.0864C28.3997 16.1005 27.3597 16.9906 26.0754 17.7568L25.3315 16.8685ZM44.09 9.39594C44.09 9.99182 44.2343 10.5729 44.523 11.1392C44.8117 11.7017 45.217 12.2032 45.7388 12.6437C46.2607 13.0804 46.8584 13.4154 47.532 13.6485L46.888 14.6145C46.1071 14.3369 45.4224 13.9224 44.8339 13.3709C44.2454 12.8158 43.7976 12.1755 43.4904 11.4501C43.1906 12.2532 42.7298 12.962 42.108 13.5764C41.49 14.187 40.7664 14.6441 39.9373 14.9476L39.2933 13.9705C39.9743 13.73 40.585 13.3746 41.1254 12.9046C41.6658 12.4346 42.0877 11.896 42.3912 11.2891C42.6947 10.6784 42.8464 10.051 42.8464 9.40704V8.79636H39.6931V7.78595H47.21V8.79636H44.09V9.39594ZM41.4141 15.9247H50.8075V20.7769H49.5751V16.9351H41.4141V15.9247ZM46.7659 10.473H49.5751V6.81996H50.8075V15.1808H49.5751V11.5056H46.7659V10.473ZM64.6584 17.0351H63.4259V6.83106H64.6584V17.0351ZM53.4551 11.228C53.4551 10.5692 53.6142 9.98072 53.9325 9.46256C54.2508 8.9407 54.6894 8.53543 55.2483 8.24674C55.8071 7.95435 56.4308 7.80816 57.1192 7.80816C57.8076 7.80816 58.4294 7.95435 58.9845 8.24674C59.5434 8.53543 59.9801 8.9407 60.2947 9.46256C60.613 9.98072 60.7722 10.5692 60.7722 11.228C60.7722 11.8942 60.613 12.4882 60.2947 13.0101C59.9801 13.5319 59.5434 13.9391 58.9845 14.2315C58.4294 14.5201 57.8076 14.6626 57.1192 14.6589C56.4308 14.6626 55.8071 14.5201 55.2483 14.2315C54.6894 13.9391 54.2508 13.5319 53.9325 13.0101C53.6142 12.4882 53.4551 11.8942 53.4551 11.228ZM54.6653 11.228C54.6616 11.6832 54.7653 12.0904 54.9762 12.4494C55.1909 12.8047 55.4851 13.0823 55.8589 13.2821C56.2328 13.482 56.6528 13.5819 57.1192 13.5819C57.5781 13.5819 57.9945 13.482 58.3683 13.2821C58.7421 13.0823 59.0364 12.8047 59.251 12.4494C59.4657 12.0904 59.573 11.6832 59.573 11.228C59.573 10.7802 59.4657 10.3786 59.251 10.0233C59.0364 9.66797 58.7421 9.39039 58.3683 9.19053C57.9945 8.98697 57.5781 8.88519 57.1192 8.88519C56.6528 8.88519 56.2328 8.98512 55.8589 9.18498C55.4851 9.38484 55.1909 9.66427 54.9762 10.0233C54.7653 10.3786 54.6616 10.7802 54.6653 11.228ZM55.6424 15.9913H56.8749V19.4445H65.0914V20.466H55.6424V15.9913ZM75.0162 7.33072C75.7046 7.33442 76.3227 7.46766 76.8705 7.73044C77.422 7.99322 77.8531 8.35963 78.164 8.82967C78.4749 9.29601 78.6322 9.82897 78.6359 10.4286C78.6322 11.0281 78.4749 11.5611 78.164 12.0274C77.8531 12.4938 77.422 12.8565 76.8705 13.1156C76.3227 13.3746 75.7046 13.5042 75.0162 13.5042C74.3204 13.5042 73.6968 13.3746 73.1453 13.1156C72.5939 12.8565 72.1627 12.4938 71.8518 12.0274C71.5409 11.5611 71.3854 11.0281 71.3854 10.4286C71.3854 9.82897 71.5409 9.29601 71.8518 8.82967C72.1627 8.35963 72.5939 7.99322 73.1453 7.73044C73.6968 7.46766 74.3204 7.33442 75.0162 7.33072ZM72.5957 10.4286C72.592 10.8283 72.6938 11.1854 72.901 11.5C73.112 11.8146 73.4007 12.0589 73.7671 12.2328C74.1372 12.4068 74.5536 12.4938 75.0162 12.4938C75.4752 12.4938 75.8878 12.4068 76.2543 12.2328C76.6244 12.0589 76.9131 11.8146 77.1203 11.5C77.3313 11.1854 77.4368 10.8283 77.4368 10.4286C77.4368 10.0325 77.3313 9.67723 77.1203 9.36263C76.9131 9.04804 76.6244 8.80376 76.2543 8.62981C75.8878 8.45586 75.4752 8.37073 75.0162 8.37443C74.5536 8.37073 74.1372 8.45586 73.7671 8.62981C73.4007 8.80376 73.112 9.04804 72.901 9.36263C72.6938 9.67723 72.592 10.0325 72.5957 10.4286ZM73.5062 14.6589H82.5887V18.0233H74.7498V19.5888H83.0884V20.5881H73.5506V17.0906H81.3674V15.6582H73.5062V14.6589ZM81.3563 6.81996H82.5887V13.9816H81.3563V6.81996ZM96.5284 15.1364H95.2959V11.4834H92.4757V10.4619H95.2959V6.81996H96.5284V15.1364ZM85.0142 14.026C85.6989 13.7781 86.3114 13.4154 86.8518 12.9379C87.3922 12.4605 87.8123 11.9127 88.112 11.2946C88.4155 10.6765 88.5673 10.0399 88.5673 9.38484V8.86298H85.4139V7.84147H92.9309V8.86298H89.8109V9.37373C89.8109 9.97332 89.9552 10.5562 90.2439 11.1225C90.5326 11.6851 90.9378 12.1866 91.4597 12.627C91.9816 13.0638 92.5793 13.3969 93.2529 13.6263L92.6089 14.6145C91.8317 14.3332 91.1488 13.915 90.5603 13.3598C89.9719 12.8047 89.524 12.1644 89.2168 11.439C88.917 12.2569 88.4562 12.9768 87.8345 13.5986C87.2164 14.2204 86.491 14.6885 85.6582 15.0031L85.0142 14.026ZM87.2238 18.1676C87.2201 17.6235 87.4051 17.1572 87.7789 16.7686C88.1528 16.38 88.6913 16.0839 89.3945 15.8803C90.0977 15.673 90.9323 15.5694 91.8983 15.5694C92.8606 15.5694 93.6915 15.673 94.391 15.8803C95.0942 16.0839 95.6327 16.38 96.0065 16.7686C96.384 17.1572 96.5728 17.6235 96.5728 18.1676C96.5728 18.7117 96.384 19.1762 96.0065 19.5611C95.6327 19.9497 95.0961 20.2458 94.3965 20.4493C93.697 20.6566 92.8643 20.7621 91.8983 20.7658C90.9286 20.7621 90.0921 20.6566 89.3889 20.4493C88.6894 20.2458 88.1528 19.9497 87.7789 19.5611C87.4051 19.1762 87.2201 18.7117 87.2238 18.1676ZM88.4451 18.1676C88.4414 18.5007 88.5784 18.7894 88.856 19.0337C89.1336 19.2779 89.5314 19.463 90.0496 19.5888C90.5714 19.7184 91.1877 19.7813 91.8983 19.7776C92.6052 19.7813 93.2177 19.7184 93.7359 19.5888C94.2541 19.463 94.6519 19.2779 94.9295 19.0337C95.2108 18.7894 95.3514 18.5007 95.3514 18.1676C95.3514 17.8308 95.2108 17.5403 94.9295 17.296C94.6519 17.048 94.2541 16.8593 93.7359 16.7297C93.2177 16.6002 92.6052 16.5354 91.8983 16.5354C91.1877 16.5354 90.5714 16.6002 90.0496 16.7297C89.5314 16.8593 89.1336 17.048 88.856 17.296C88.5784 17.5403 88.4414 17.8308 88.4451 18.1676ZM110.628 8.64091V8.7686C110.621 9.44591 110.595 10.0918 110.55 10.7061C110.506 11.3168 110.41 12.0052 110.262 12.7714L109.029 12.6714C109.181 11.9275 109.281 11.2669 109.329 10.6895C109.377 10.1121 109.405 9.52548 109.412 8.9296H103.666V7.89699H110.628V8.64091ZM102.811 14.0705C104.118 14.0631 105.117 14.0501 105.809 14.0316V10.9948H107.031V13.9927C108.833 13.915 110.365 13.7892 111.627 13.6152L111.705 14.5257C110.406 14.7478 109.035 14.8958 107.591 14.9698C106.148 15.0439 104.595 15.0846 102.933 15.092L102.811 14.0705ZM104.965 16.3689H106.198V19.4445H114.281V20.466H104.965V16.3689ZM112.582 6.81996H113.826V11.3612H115.869V12.4161H113.826V17.3237H112.582V6.81996ZM128.31 20.7991H127.088V6.81996H128.31V20.7991ZM117.573 8.11905H124.068V13.0823H118.861V16.38C120.123 16.3763 121.289 16.3392 122.358 16.2689C123.432 16.1949 124.557 16.0617 125.734 15.8692L125.856 16.9018C124.645 17.0943 123.487 17.2275 122.38 17.3015C121.274 17.3756 120.067 17.4126 118.761 17.4126H117.595V12.0719H122.825V9.14056H117.573V8.11905Z" fill="#555555"/>
<circle cx="149.223" cy="13.9999" r="2.67961" fill="#555555"/>
<rect x="158.836" y="0.5" width="79" height="27" rx="13.5" stroke="#555555"/>
<path d="M182.066 19.067H169.286V18.0455H172.85V14.7145H170.441V13.6929H172.628V9.14056H170.419V8.11905H180.845V9.14056H178.624V13.6929H180.811V14.7145H178.413V18.0455H182.066V19.067ZM177.414 13.6929V9.14056H173.85V13.6929H177.414ZM177.181 18.0455V14.7145H174.083V18.0455H177.181ZM190.343 8.56319C190.339 9.11095 190.561 9.62911 191.009 10.1177C191.457 10.6025 192.049 11.0115 192.786 11.3446C193.522 11.674 194.307 11.8942 195.14 12.0052L194.662 12.9823C193.9 12.8713 193.174 12.677 192.486 12.3994C191.798 12.1181 191.196 11.7647 190.682 11.339C190.167 10.9097 189.788 10.4304 189.544 9.90114C189.296 10.4304 188.914 10.9097 188.4 11.339C187.885 11.7647 187.284 12.1181 186.596 12.3994C185.911 12.677 185.187 12.8713 184.425 12.9823L183.959 12.0052C184.788 11.8942 185.569 11.674 186.301 11.3446C187.038 11.0115 187.628 10.6025 188.072 10.1177C188.52 9.63281 188.744 9.11466 188.744 8.56319V8.52988H184.347V7.51947H194.762V8.52988H190.343V8.56319ZM183.159 14.0038H195.939V15.0253H190.254V17.8789H189.033V15.0253H183.159V14.0038ZM184.802 16.491H186.035V19.4445H194.518V20.466H184.802V16.491ZM208.273 8.56319C208.27 9.11095 208.492 9.62911 208.94 10.1177C209.387 10.6025 209.98 11.0115 210.716 11.3446C211.453 11.674 212.237 11.8942 213.07 12.0052L212.593 12.9823C211.83 12.8713 211.105 12.677 210.416 12.3994C209.728 12.1181 209.126 11.7647 208.612 11.339C208.098 10.9097 207.718 10.4304 207.474 9.90114C207.226 10.4304 206.845 10.9097 206.33 11.339C205.816 11.7647 205.214 12.1181 204.526 12.3994C203.841 12.677 203.118 12.8713 202.355 12.9823L201.889 12.0052C202.718 11.8942 203.499 11.674 204.232 11.3446C204.968 11.0115 205.559 10.6025 206.003 10.1177C206.451 9.63281 206.674 9.11466 206.674 8.56319V8.52988H202.278V7.51947H212.693V8.52988H208.273V8.56319ZM201.09 14.0038H213.869V15.0253H208.185V17.8789H206.963V15.0253H201.09V14.0038ZM202.733 16.491H203.965V19.4445H212.448V20.466H202.733V16.491ZM222.013 8.11905C222.013 8.74824 222.256 9.34968 222.74 9.92335C223.229 10.497 223.866 10.98 224.65 11.3723C225.435 11.7647 226.251 12.02 227.099 12.1385L226.599 13.1489C225.862 13.0267 225.15 12.8139 224.461 12.5104C223.777 12.2069 223.164 11.8294 222.624 11.3779C222.084 10.9227 221.669 10.4175 221.38 9.86228C221.092 10.4212 220.677 10.9282 220.137 11.3834C219.6 11.835 218.989 12.2106 218.305 12.5104C217.62 12.8102 216.909 13.023 216.173 13.1489L215.662 12.1385C216.513 12.02 217.329 11.7665 218.11 11.3779C218.891 10.9893 219.524 10.51 220.009 9.94001C220.494 9.36633 220.736 8.75935 220.736 8.11905V7.31961H222.013V8.11905ZM215.007 14.6811H227.731V15.7138H221.947V20.7769H220.736V15.7138H215.007V14.6811Z" fill="#555555"/>
<circle cx="247.445" cy="13.9999" r="2.67961" fill="#555555"/>
<rect x="257.055" y="0.5" width="61" height="27" rx="13.5" stroke="#555555"/>
<path d="M280.215 18.9115H267.435V17.8789H280.215V18.9115ZM268.945 7.81926H270.178V10.4286H277.428V7.81926H278.65V15.0809H268.945V7.81926ZM277.428 14.0927V11.4168H270.178V14.0927H277.428ZM293.178 17.2238H292.012V12.0385H290.047V16.813H288.892V7.09755H290.047V11.0059H292.012V6.83106H293.178V17.2238ZM281.941 8.03023H287.226V12.0052H283.174V14.126C284.143 14.1223 285.002 14.0908 285.75 14.0316C286.501 13.9687 287.274 13.8595 288.07 13.704L288.203 14.7033C287.345 14.8662 286.514 14.9772 285.711 15.0364C284.908 15.0957 283.966 15.1253 282.885 15.1253H281.974V11.0392H286.049V9.02953H281.941V8.03023ZM284.029 16.2689H285.261V19.4445H293.611V20.466H284.029V16.2689ZM306.751 15.414H305.519V6.81996H306.751V15.414ZM296.081 7.91919H302.698V8.9296H297.313V13.0156C298.875 13.0156 300.15 12.9823 301.138 12.9157C302.126 12.8454 303.109 12.7121 304.086 12.516L304.219 13.5486C303.22 13.7374 302.219 13.865 301.216 13.9317C300.213 13.9946 298.886 14.0297 297.235 14.0371H296.081V7.91919ZM297.369 18.0899C297.369 17.5347 297.557 17.0573 297.935 16.6575C298.312 16.2578 298.855 15.9525 299.562 15.7415C300.272 15.5305 301.114 15.4251 302.088 15.4251C303.05 15.4251 303.883 15.5305 304.586 15.7415C305.293 15.9525 305.837 16.2578 306.218 16.6575C306.599 17.0573 306.792 17.5347 306.795 18.0899C306.792 18.645 306.599 19.1225 306.218 19.5222C305.841 19.9256 305.298 20.2328 304.591 20.4438C303.884 20.6547 303.05 20.7621 302.088 20.7658C301.114 20.7621 300.272 20.6547 299.562 20.4438C298.855 20.2328 298.312 19.9275 297.935 19.5278C297.557 19.128 297.369 18.6487 297.369 18.0899ZM298.612 18.0899C298.612 18.4341 298.751 18.732 299.029 18.9837C299.306 19.2354 299.706 19.4278 300.228 19.5611C300.75 19.698 301.37 19.7665 302.088 19.7665C302.802 19.7665 303.42 19.698 303.942 19.5611C304.467 19.4278 304.871 19.2354 305.152 18.9837C305.433 18.732 305.574 18.4341 305.574 18.0899C305.574 17.742 305.433 17.4422 305.152 17.1905C304.871 16.9388 304.467 16.7464 303.942 16.6131C303.42 16.4799 302.802 16.4133 302.088 16.4133C301.37 16.4133 300.75 16.4799 300.228 16.6131C299.706 16.7464 299.306 16.9388 299.029 17.1905C298.751 17.4422 298.612 17.742 298.612 18.0899Z" fill="#555555"/>
<circle cx="327.668" cy="13.9999" r="2.67961" fill="#555555"/>
<rect x="337.277" y="0.5" width="79" height="27" rx="13.5" stroke="#555555"/>
<path d="M359.553 15.4695H358.365V6.81996H359.553V15.4695ZM347.65 12.2495C349.004 12.2495 350.322 12.2236 351.603 12.1718C352.887 12.12 354.045 12.0126 355.078 11.8498L355.167 12.6936C354.278 12.8787 353.25 13.0138 352.08 13.0989V15.4251H350.881V13.1655C350.085 13.1988 349.228 13.2155 348.31 13.2155H347.783L347.65 12.2495ZM348.383 9.38484C348.383 8.96291 348.508 8.5965 348.76 8.2856C349.015 7.97471 349.373 7.73599 349.832 7.56944C350.291 7.40289 350.825 7.31961 351.436 7.31961C352.043 7.31961 352.576 7.40289 353.035 7.56944C353.498 7.73599 353.855 7.97471 354.106 8.2856C354.362 8.5965 354.489 8.96291 354.489 9.38484C354.489 9.79936 354.362 10.1639 354.106 10.4785C353.851 10.7894 353.492 11.03 353.029 11.2002C352.57 11.3668 352.039 11.4501 351.436 11.4501C350.829 11.4501 350.294 11.3668 349.832 11.2002C349.373 11.03 349.015 10.7894 348.76 10.4785C348.508 10.1676 348.383 9.80306 348.383 9.38484ZM349.515 9.38484C349.515 9.62171 349.593 9.82897 349.748 10.0066C349.904 10.1806 350.126 10.3157 350.415 10.4119C350.707 10.5044 351.047 10.5507 351.436 10.5507C351.821 10.5507 352.16 10.5044 352.452 10.4119C352.744 10.3157 352.97 10.1806 353.129 10.0066C353.292 9.82897 353.375 9.62171 353.379 9.38484C353.375 9.14426 353.292 8.93515 353.129 8.7575C352.97 8.57614 352.744 8.4392 352.452 8.34667C352.16 8.25044 351.821 8.20418 351.436 8.20788C351.047 8.20418 350.709 8.25044 350.42 8.34667C350.131 8.4392 349.907 8.57614 349.748 8.7575C349.593 8.93515 349.515 9.14426 349.515 9.38484ZM350.137 15.9691H351.347V17.2904H358.331V15.9691H359.553V20.5881H350.137V15.9691ZM358.331 19.5999V18.2675H351.347V19.5999H358.331ZM353.357 13.7263H355.844V7.06423H357.021V15.4251H355.844V14.6145H353.357V13.7263ZM370.343 10.5729C370.34 11.3723 370.499 12.1699 370.821 12.9657C371.143 13.7614 371.58 14.4739 372.131 15.1031C372.686 15.7323 373.293 16.2097 373.952 16.5354L373.186 17.5236C372.679 17.2571 372.201 16.9037 371.754 16.4632C371.309 16.0191 370.915 15.5139 370.571 14.9476C370.231 14.3776 369.957 13.7707 369.749 13.1267C369.542 13.8077 369.263 14.4517 368.911 15.0587C368.563 15.6656 368.16 16.2042 367.701 16.6742C367.242 17.1405 366.753 17.5125 366.235 17.7901L365.458 16.8019C366.128 16.4688 366.742 15.9728 367.301 15.314C367.86 14.6515 368.302 13.9039 368.628 13.0712C368.954 12.2384 369.118 11.4056 369.122 10.5729V8.03023H370.343V10.5729ZM375.229 6.81996H376.461V12.4827H378.793V13.5486H376.461V20.7769H375.229V6.81996ZM391.056 20.7991H389.824V6.81996H391.056V20.7991ZM380.075 12.7603C380.075 11.7869 380.225 10.9338 380.525 10.2009C380.828 9.46811 381.25 8.90184 381.79 8.50212C382.331 8.1024 382.947 7.90069 383.639 7.89699C384.328 7.90069 384.94 8.1024 385.477 8.50212C386.017 8.90184 386.439 9.46996 386.743 10.2065C387.05 10.9393 387.203 11.7906 387.203 12.7603C387.203 13.7337 387.05 14.5886 386.743 15.3251C386.439 16.0617 386.017 16.6298 385.477 17.0295C384.936 17.4255 384.324 17.6235 383.639 17.6235C382.947 17.6235 382.331 17.4255 381.79 17.0295C381.25 16.6298 380.828 16.0635 380.525 15.3307C380.225 14.5942 380.075 13.7374 380.075 12.7603ZM381.263 12.7603C381.263 13.5079 381.363 14.1667 381.563 14.7367C381.763 15.3066 382.042 15.7471 382.401 16.058C382.764 16.3689 383.177 16.5243 383.639 16.5243C384.102 16.5243 384.511 16.3689 384.866 16.058C385.225 15.7471 385.505 15.3066 385.704 14.7367C385.904 14.1667 386.004 13.5079 386.004 12.7603C386.004 12.0163 385.904 11.3612 385.704 10.795C385.505 10.225 385.225 9.78456 384.866 9.47366C384.511 9.15907 384.102 8.99992 383.639 8.99622C383.177 8.99992 382.764 9.15907 382.401 9.47366C382.042 9.78456 381.763 10.225 381.563 10.795C381.363 11.3612 381.263 12.0163 381.263 12.7603ZM404.752 15.3695H395.103V8.03023H404.596V9.05174H396.346V11.1281H404.296V12.1274H396.346V14.3591H404.752V15.3695ZM393.448 17.9233H406.228V18.9559H393.448V17.9233Z" fill="#555555"/>
<circle cx="425.887" cy="13.9999" r="2.67961" fill="#555555"/>
<rect x="435.5" y="0.5" width="105" height="27" rx="13.5" stroke="#555555"/>
<path d="M457.582 17.2127H456.35V13.16H453.951V12.1163H456.35V10.5063H453.951V9.48477H456.35V6.81996H457.582V17.2127ZM446.046 14.0371C446.608 14.0371 447.208 14.0316 447.844 14.0205V8.96291H446.434V7.9525H453.84V8.96291H452.419V13.8595C453.078 13.8151 453.707 13.7596 454.307 13.6929L454.362 14.6145C453.163 14.7996 451.89 14.9236 450.543 14.9865C449.195 15.0494 447.748 15.0846 446.201 15.092L446.046 14.0371ZM448.588 16.3466H449.832V19.4445H457.96V20.466H448.588V16.3466ZM449.044 13.9983C449.651 13.9872 450.38 13.9631 451.231 13.9261V8.96291H449.044V13.9983ZM464.937 9.11836C464.937 9.71424 465.091 10.2842 465.398 10.8283C465.705 11.3723 466.131 11.8498 466.675 12.2606C467.219 12.6714 467.835 12.9823 468.524 13.1933L467.902 14.1593C467.08 13.9002 466.357 13.5023 465.731 12.9657C465.106 12.429 464.636 11.7998 464.321 11.0781C464.018 11.8479 463.551 12.5234 462.922 13.1045C462.293 13.6855 461.558 14.1186 460.718 14.4036L460.085 13.4265C460.781 13.2044 461.401 12.8768 461.945 12.4438C462.493 12.0108 462.92 11.5056 463.228 10.9282C463.535 10.3508 463.69 9.74755 463.694 9.11836V8.76305H460.429V7.75264H468.146V8.76305H464.937V9.11836ZM462.395 15.0587H463.605V16.7464H470.212V15.0587H471.433V20.5881H462.395V15.0587ZM470.212 19.5777V17.7346H463.605V19.5777H470.212ZM470.2 6.81996H471.433V14.3702H470.2V6.81996ZM481.275 11.6863C482.224 11.6863 482.98 12.4419 482.98 13.3905C482.98 14.3391 482.224 15.0947 481.275 15.0947C480.327 15.0947 479.571 14.3391 479.571 13.3905C479.571 12.4419 480.327 11.6863 481.275 11.6863ZM496.232 16.4799C497.253 16.4799 498.121 16.5613 498.835 16.7242C499.553 16.887 500.099 17.1294 500.473 17.4514C500.847 17.7734 501.036 18.1676 501.039 18.6339C501.036 19.3223 500.619 19.8461 499.79 20.2051C498.961 20.5641 497.775 20.7436 496.232 20.7436C494.677 20.7436 493.485 20.5641 492.656 20.2051C491.827 19.8461 491.413 19.3223 491.413 18.6339C491.413 18.1676 491.6 17.7734 491.974 17.4514C492.347 17.1294 492.893 16.887 493.611 16.7242C494.329 16.5613 495.203 16.4799 496.232 16.4799ZM489.881 14.6145H495.632V13.5264C494.366 13.482 493.395 13.2914 492.717 12.9546C492.04 12.6178 491.701 12.1496 491.701 11.55C491.701 10.8949 492.092 10.3989 492.873 10.0621C493.654 9.72164 494.773 9.55139 496.232 9.55139C497.694 9.55139 498.813 9.72164 499.59 10.0621C500.371 10.3989 500.762 10.8949 500.762 11.55C500.762 12.1496 500.425 12.6178 499.751 12.9546C499.082 13.2877 498.116 13.4783 496.853 13.5264V14.6145H502.605V15.6138H489.881V14.6145ZM490.547 7.99692H495.632V6.6201H496.853V7.99692H501.861V8.97401H490.547V7.99692ZM492.679 18.6339C492.679 19.0152 492.988 19.3075 493.606 19.5111C494.224 19.7184 495.099 19.8183 496.232 19.8109C497.364 19.8183 498.239 19.7184 498.858 19.5111C499.476 19.3075 499.785 19.0152 499.785 18.6339C499.785 18.2416 499.476 17.94 498.858 17.729C498.243 17.518 497.368 17.4126 496.232 17.4126C495.095 17.4126 494.218 17.518 493.6 17.729C492.986 17.94 492.679 18.2416 492.679 18.6339ZM493.023 11.55C493.019 11.7832 493.143 11.983 493.395 12.1496C493.646 12.3124 494.013 12.4364 494.494 12.5215C494.975 12.6067 495.554 12.6492 496.232 12.6492C497.257 12.6492 498.049 12.5548 498.608 12.3661C499.17 12.1736 499.452 11.9016 499.452 11.55C499.452 11.1836 499.172 10.9041 498.613 10.7117C498.054 10.5155 497.261 10.4175 496.232 10.4175C495.206 10.4175 494.414 10.5155 493.856 10.7117C493.297 10.9078 493.019 11.1873 493.023 11.55ZM516.556 18.9892H503.776V17.9566H509.516V14.9476H505.286V7.80816H506.518V10.3286H513.769V7.80816H514.99V14.9476H510.738V17.9566H516.556V18.9892ZM513.769 13.9372V11.339H506.518V13.9372H513.769ZM530.395 13.7151H524.633V15.1031H528.752V18.2231H520.458V19.6443H529.174V20.6214H519.248V17.3015H527.542V16.058H519.214V15.1031H523.4V13.7151H517.671V12.7158H530.395V13.7151ZM519.325 7.2863H528.741V11.5389H519.325V7.2863ZM527.509 10.5507V8.2745H520.536V10.5507H527.509Z" fill="#555555"/>
</svg>
