<svg width="180" height="21" viewBox="0 0 180 21" fill="none" xmlns="http://www.w3.org/2000/svg">
<rect x="0.737182" y="0.366089" width="59.9114" height="19.7688" rx="9.88439" stroke="#555555" stroke-width="0.732177"/>
<path d="M18.5364 14.421H8.82588V13.6448H11.534V11.1138H9.70328V10.3377H11.3653V6.87865H9.68641V6.10249H17.6084V6.87865H15.9211V10.3377H17.5831V11.1138H15.7608V13.6448H18.5364V14.421ZM15.0015 10.3377V6.87865H12.2933V10.3377H15.0015ZM14.8243 13.6448V11.1138H12.4705V13.6448H14.8243ZM24.8254 6.43995C24.8226 6.85616 24.9913 7.24986 25.3316 7.62107C25.6719 7.98947 26.1219 8.30022 26.6815 8.55332C27.2411 8.8036 27.8373 8.97093 28.47 9.0553L28.1073 9.79772C27.528 9.71335 26.9768 9.56571 26.4537 9.35479C25.9306 9.14107 25.4736 8.8725 25.0827 8.5491C24.6918 8.22288 24.4036 7.8587 24.218 7.45656C24.0296 7.8587 23.7399 8.22288 23.349 8.5491C22.9581 8.8725 22.5011 9.14107 21.9781 9.35479C21.4578 9.56571 20.908 9.71335 20.3287 9.79772L19.9744 9.0553C20.6043 8.97093 21.1977 8.8036 21.7545 8.55332C22.3141 8.30022 22.7627 7.98947 23.1001 7.62107C23.4404 7.25268 23.6106 6.85897 23.6106 6.43995V6.41464H20.2697V5.64691H28.1832V6.41464H24.8254V6.43995ZM19.3669 10.5739H29.0775V11.3501H24.7579V13.5183H23.8299V11.3501H19.3669V10.5739ZM20.6156 12.4637H21.552V14.7078H27.9976V15.484H20.6156V12.4637ZM38.4493 6.43995C38.4465 6.85616 38.6153 7.24986 38.9555 7.62107C39.2958 7.98947 39.7458 8.30022 40.3054 8.55332C40.865 8.8036 41.4612 8.97093 42.094 9.0553L41.7312 9.79772C41.1519 9.71335 40.6007 9.56571 40.0776 9.35479C39.5545 9.14107 39.0976 8.8725 38.7067 8.5491C38.3158 8.22288 38.0275 7.8587 37.8419 7.45656C37.6535 7.8587 37.3638 8.22288 36.9729 8.5491C36.582 8.8725 36.1251 9.14107 35.602 9.35479C35.0817 9.56571 34.532 9.71335 33.9526 9.79772L33.5983 9.0553C34.2282 8.97093 34.8216 8.8036 35.3784 8.55332C35.9381 8.30022 36.3866 7.98947 36.7241 7.62107C37.0643 7.25268 37.2345 6.85897 37.2345 6.43995V6.41464H33.8936V5.64691H41.8071V6.41464H38.4493V6.43995ZM32.9909 10.5739H42.7014V11.3501H38.3819V13.5183H37.4538V11.3501H32.9909V10.5739ZM34.2395 12.4637H35.1759V14.7078H41.6215V15.484H34.2395V12.4637ZM48.8892 6.10249C48.8892 6.58056 49.0734 7.03754 49.4418 7.47343C49.813 7.90932 50.2967 8.27632 50.8929 8.57441C51.4891 8.8725 52.1091 9.06654 52.7531 9.15653L52.3735 9.92427C51.8139 9.83146 51.2725 9.66976 50.7494 9.43916C50.2292 9.20856 49.7638 8.92172 49.3532 8.57863C48.9426 8.23273 48.6276 7.84886 48.4083 7.42703C48.1889 7.85167 47.874 8.23695 47.4634 8.58285C47.0556 8.92593 46.5916 9.21137 46.0714 9.43916C45.5511 9.66695 45.0112 9.82865 44.4515 9.92427L44.0634 9.15653C44.7102 9.06654 45.3303 8.87391 45.9237 8.57863C46.5171 8.28335 46.998 7.91917 47.3664 7.48609C47.7348 7.0502 47.919 6.589 47.919 6.10249V5.49505H48.8892V6.10249ZM43.5657 11.0885H53.234V11.8731H48.8386V15.7202H47.919V11.8731H43.5657V11.0885Z" fill="#555555"/>
<ellipse cx="67.6866" cy="10.251" rx="1.96195" ry="1.96195" fill="#555555"/>
<rect x="74.7235" y="0.366089" width="104.911" height="19.7688" rx="9.88439" stroke="#555555" stroke-width="0.732177"/>
<path d="M85.6191 8.38037C85.6191 8.95124 85.7119 9.51228 85.8975 10.0635C86.086 10.6147 86.3545 11.1138 86.7032 11.561C87.0519 12.0053 87.4611 12.354 87.9308 12.6071L87.3908 13.3073C86.8734 13.0233 86.4262 12.624 86.0494 12.1093C85.6726 11.5919 85.3857 11.0056 85.1889 10.3503C84.9948 11.0506 84.7094 11.6805 84.3325 12.2401C83.9557 12.7969 83.51 13.2314 82.9953 13.5436L82.4301 12.8349C82.8997 12.5621 83.3075 12.1895 83.6534 11.717C83.9993 11.2418 84.2651 10.7145 84.4507 10.1352C84.6363 9.55305 84.7305 8.96812 84.7333 8.38037V7.8573H82.7169V7.08113H84.7333V5.50349H85.6276V7.08113H87.6102V7.8573H85.6191V8.38037ZM86.8762 9.29996H88.5466V5.3685H89.4325V15.1634H88.5466V10.093H86.8762V9.29996ZM90.6811 5.1154H91.5754V15.7202H90.6811V5.1154ZM102.15 15.7202H101.256V5.1154H102.15V15.7202ZM93.064 12.7505C94.1917 12.0812 95.0564 11.2812 95.6582 10.3503C96.2628 9.41666 96.613 8.38318 96.7086 7.24986H93.5364V6.46526H97.6366C97.6366 7.01926 97.5888 7.55358 97.4932 8.06821H99.1046V5.40225H100.007V15.1803H99.1046V11.5019H97.1388V10.7257H99.1046V8.84438H97.3118C97.0446 9.77241 96.6073 10.6231 95.9999 11.3965C95.3953 12.167 94.605 12.8433 93.6292 13.4255L93.064 12.7505ZM107.317 7.07269C107.317 7.52546 107.427 7.96697 107.646 8.39724C107.866 8.8247 108.173 9.20575 108.57 9.5404C108.966 9.87224 109.421 10.1267 109.932 10.3039L109.443 11.0379C108.85 10.827 108.33 10.512 107.882 10.093C107.435 9.67117 107.095 9.18466 106.862 8.63347C106.634 9.24371 106.284 9.78225 105.811 10.2491C105.342 10.7131 104.792 11.0604 104.162 11.291L103.673 10.5486C104.19 10.3658 104.654 10.0958 105.065 9.73866C105.475 9.38151 105.796 8.97234 106.026 8.51113C106.257 8.04712 106.372 7.57045 106.372 7.08113V6.61712H103.976V5.84939H109.688V6.61712H107.317V7.07269ZM105.284 12.0334H112.421V15.7202H111.485V12.8011H105.284V12.0334ZM109.35 7.89104H111.485V5.1154H112.421V11.4682H111.485V8.67565H109.35V7.89104ZM122.945 12.8771H122.009V5.12384H122.945V12.8771ZM114.433 8.46473C114.433 7.96416 114.554 7.51702 114.796 7.12331C115.038 6.72679 115.371 6.41886 115.795 6.19951C116.22 5.97734 116.694 5.86626 117.217 5.86626C117.74 5.86626 118.213 5.97734 118.634 6.19951C119.059 6.41886 119.391 6.72679 119.63 7.12331C119.872 7.51702 119.993 7.96416 119.993 8.46473C119.993 8.97093 119.872 9.42229 119.63 9.81881C119.391 10.2153 119.059 10.5247 118.634 10.7468C118.213 10.9662 117.74 11.0745 117.217 11.0716C116.694 11.0745 116.22 10.9662 115.795 10.7468C115.371 10.5247 115.038 10.2153 114.796 9.81881C114.554 9.42229 114.433 8.97093 114.433 8.46473ZM115.353 8.46473C115.35 8.81063 115.428 9.11998 115.589 9.39276C115.752 9.66273 115.975 9.87365 116.259 10.0255C116.544 10.1774 116.863 10.2533 117.217 10.2533C117.566 10.2533 117.882 10.1774 118.166 10.0255C118.45 9.87365 118.674 9.66273 118.837 9.39276C119 9.11998 119.082 8.81063 119.082 8.46473C119.082 8.12446 119 7.81933 118.837 7.54936C118.674 7.27939 118.45 7.06848 118.166 6.91662C117.882 6.76195 117.566 6.68461 117.217 6.68461C116.863 6.68461 116.544 6.76054 116.259 6.9124C115.975 7.06426 115.752 7.27658 115.589 7.54936C115.428 7.81933 115.35 8.12446 115.353 8.46473ZM116.095 12.084H117.031V14.7078H123.275V15.484H116.095V12.084ZM130.816 5.50349C131.339 5.5063 131.808 5.60754 132.225 5.8072C132.644 6.00687 132.971 6.28528 133.207 6.64243C133.444 6.99677 133.563 7.40172 133.566 7.8573C133.563 8.31287 133.444 8.71783 133.207 9.07217C132.971 9.42651 132.644 9.7021 132.225 9.89896C131.808 10.0958 131.339 10.1942 130.816 10.1942C130.287 10.1942 129.813 10.0958 129.394 9.89896C128.975 9.7021 128.647 9.42651 128.411 9.07217C128.175 8.71783 128.057 8.31287 128.057 7.8573C128.057 7.40172 128.175 6.99677 128.411 6.64243C128.647 6.28528 128.975 6.00687 129.394 5.8072C129.813 5.60754 130.287 5.5063 130.816 5.50349ZM128.976 7.8573C128.974 8.16102 129.051 8.43239 129.208 8.67143C129.369 8.91047 129.588 9.09607 129.867 9.22825C130.148 9.36042 130.464 9.42651 130.816 9.42651C131.164 9.42651 131.478 9.36042 131.756 9.22825C132.038 9.09607 132.257 8.91047 132.414 8.67143C132.575 8.43239 132.655 8.16102 132.655 7.8573C132.655 7.55639 132.575 7.28642 132.414 7.04739C132.257 6.80835 132.038 6.62274 131.756 6.49057C131.478 6.3584 131.164 6.29372 130.816 6.29653C130.464 6.29372 130.148 6.3584 129.867 6.49057C129.588 6.62274 129.369 6.80835 129.208 7.04739C129.051 7.28642 128.974 7.55639 128.976 7.8573ZM129.668 11.0716H136.569V13.6279H130.613V14.8175H136.949V15.5768H129.702V12.9193H135.641V11.8309H129.668V11.0716ZM135.633 5.1154H136.569V10.557H135.633V5.1154ZM147.161 11.4344H146.225V8.65878H144.082V7.88261H146.225V5.1154H147.161V11.4344ZM138.412 10.5908C138.933 10.4023 139.398 10.1267 139.809 9.76397C140.219 9.4012 140.538 8.98499 140.766 8.51535C140.997 8.04572 141.112 7.56202 141.112 7.06426V6.66774H138.716V5.89157H144.428V6.66774H142.057V7.05582C142.057 7.5114 142.167 7.95432 142.386 8.38459C142.605 8.81204 142.913 9.19309 143.31 9.52775C143.706 9.85958 144.16 10.1127 144.672 10.287L144.183 11.0379C143.592 10.8242 143.074 10.5064 142.626 10.0846C142.179 9.66273 141.839 9.17622 141.606 8.62503C141.378 9.24653 141.028 9.7935 140.555 10.2659C140.086 10.7384 139.534 11.0941 138.902 11.3332L138.412 10.5908ZM140.091 13.7376C140.088 13.3242 140.229 12.9699 140.513 12.6746C140.797 12.3793 141.206 12.1543 141.741 11.9997C142.275 11.8422 142.909 11.7634 143.643 11.7634C144.374 11.7634 145.006 11.8422 145.537 11.9997C146.071 12.1543 146.481 12.3793 146.765 12.6746C147.051 12.9699 147.195 13.3242 147.195 13.7376C147.195 14.151 147.051 14.5039 146.765 14.7964C146.481 15.0917 146.073 15.3167 145.541 15.4713C145.01 15.6288 144.377 15.709 143.643 15.7118C142.906 15.709 142.271 15.6288 141.736 15.4713C141.205 15.3167 140.797 15.0917 140.513 14.7964C140.229 14.5039 140.088 14.151 140.091 13.7376ZM141.019 13.7376C141.016 13.9907 141.12 14.2101 141.331 14.3957C141.542 14.5813 141.845 14.7219 142.238 14.8175C142.635 14.9159 143.103 14.9637 143.643 14.9609C144.18 14.9637 144.646 14.9159 145.039 14.8175C145.433 14.7219 145.735 14.5813 145.946 14.3957C146.16 14.2101 146.267 13.9907 146.267 13.7376C146.267 13.4817 146.16 13.2609 145.946 13.0753C145.735 12.8869 145.433 12.7435 145.039 12.6451C144.646 12.5466 144.18 12.4974 143.643 12.4974C143.103 12.4974 142.635 12.5466 142.238 12.6451C141.845 12.7435 141.542 12.8869 141.331 13.0753C141.12 13.2609 141.016 13.4817 141.019 13.7376ZM157.874 6.49901V6.59603C157.869 7.11066 157.849 7.60139 157.815 8.06821C157.782 8.53223 157.708 9.0553 157.596 9.63742L156.66 9.56149C156.775 8.99624 156.851 8.49426 156.887 8.05556C156.924 7.61686 156.945 7.17112 156.951 6.71836H152.585V5.93375H157.874V6.49901ZM151.935 10.6245C152.928 10.6189 153.687 10.609 154.213 10.595V8.28757H155.141V10.5654C156.51 10.5064 157.675 10.4108 158.634 10.2786L158.693 10.9704C157.706 11.1391 156.664 11.2516 155.567 11.3079C154.47 11.3641 153.29 11.395 152.028 11.4007L151.935 10.6245ZM153.572 12.3709H154.508V14.7078H160.65V15.484H153.572V12.3709ZM159.359 5.1154H160.304V8.56597H161.856V9.36745H160.304V13.0964H159.359V5.1154ZM171.309 15.7371H170.381V5.1154H171.309V15.7371ZM163.151 6.10249H168.086V9.87365H164.13V12.3793C165.089 12.3765 165.974 12.3484 166.787 12.2949C167.603 12.2387 168.458 12.1375 169.352 11.9912L169.445 12.7758C168.525 12.9221 167.645 13.0233 166.804 13.0796C165.963 13.1358 165.046 13.1639 164.054 13.1639H163.168V9.10592H167.142V6.87865H163.151V6.10249Z" fill="#555555"/>
</svg>
