<svg width="197" height="21" viewBox="0 0 197 21" fill="none" xmlns="http://www.w3.org/2000/svg">
<rect x="0.737182" y="0.366089" width="90.9114" height="19.7688" rx="9.88439" stroke="#555555" stroke-width="0.732177"/>
<path d="M17.213 15.7202H16.3187V5.1154H17.213V15.7202ZM8.0255 12.8939C8.50639 12.6043 8.9226 12.2106 9.27412 11.7128C9.62846 11.2123 9.89843 10.6526 10.084 10.0339C10.2696 9.41526 10.3624 8.78251 10.3624 8.13571V7.14019H8.31235V6.36402H13.2056V7.14019H11.2652V8.13571C11.2652 8.75439 11.3551 9.35761 11.5351 9.94536C11.7151 10.5303 11.9766 11.059 12.3197 11.5314C12.6656 12.0011 13.0762 12.3737 13.5515 12.6493L12.9862 13.3411C12.4744 13.0346 12.0343 12.6113 11.6659 12.0714C11.2975 11.5286 11.0177 10.9128 10.8265 10.2238C10.6324 10.969 10.3456 11.6355 9.96592 12.2232C9.58627 12.811 9.13632 13.268 8.61607 13.5942L8.0255 12.8939ZM12.3957 8.93718H14.1842V5.3685H15.0701V15.1634H14.1842V9.70491H12.3957V8.93718ZM28.4205 14.3535H18.71V13.5689H23.0886V10.9873H24.0251V13.5689H28.4205V14.3535ZM19.1909 10.6161C19.7983 10.5092 20.4015 10.2842 21.0005 9.94114C21.6023 9.59805 22.0959 9.17903 22.4812 8.68409C22.8692 8.18633 23.0633 7.66888 23.0633 7.13175V6.87022H19.5115V6.07718H27.5853V6.87022H24.0335V7.13175C24.0335 7.66888 24.2275 8.18351 24.6156 8.67565C25.0065 9.16778 25.5057 9.58258 26.1131 9.92005C26.7205 10.2547 27.335 10.4726 27.9565 10.5739L27.5684 11.3163C27.0172 11.2066 26.4759 11.0224 25.9444 10.7637C25.4157 10.5022 24.9404 10.1788 24.5186 9.7935C24.0968 9.40541 23.7762 8.97515 23.5568 8.5027C23.3375 8.97796 23.0169 9.41244 22.595 9.80615C22.176 10.197 21.7036 10.5261 21.1777 10.7932C20.6518 11.0576 20.1189 11.246 19.579 11.3585L19.1909 10.6161ZM35.2832 6.97989H29.2764V6.21216H31.858V5.0226H32.786V6.21216H35.2832V6.97989ZM29.9091 9.55305C29.9063 9.16216 30.0061 8.81766 30.2086 8.51957C30.4111 8.21867 30.6951 7.98666 31.0607 7.82355C31.4263 7.65763 31.8439 7.57327 32.3136 7.57045C32.7804 7.57327 33.1966 7.65763 33.5622 7.82355C33.9278 7.98666 34.2132 8.21867 34.4185 8.51957C34.6266 8.81766 34.732 9.16216 34.7349 9.55305C34.732 9.93833 34.6266 10.2814 34.4185 10.5823C34.2132 10.8804 33.9278 11.1138 33.5622 11.2826C33.1966 11.4485 32.7804 11.5328 32.3136 11.5357C31.8467 11.5328 31.4305 11.4485 31.0649 11.2826C30.6993 11.1138 30.4139 10.8804 30.2086 10.5823C30.0061 10.2814 29.9063 9.93833 29.9091 9.55305ZM30.7865 9.55305C30.7837 9.7949 30.8456 10.01 30.9721 10.1985C31.1015 10.3869 31.2815 10.5331 31.5121 10.6372C31.7455 10.7384 32.0126 10.7876 32.3136 10.7848C32.6116 10.7876 32.8774 10.7384 33.1108 10.6372C33.3442 10.5331 33.5256 10.3869 33.655 10.1985C33.7871 10.01 33.8546 9.7949 33.8574 9.55305C33.8546 9.30839 33.7871 9.09185 33.655 8.90344C33.5256 8.71221 33.3442 8.56457 33.1108 8.46052C32.8774 8.35365 32.6116 8.29881 32.3136 8.296C32.0126 8.29881 31.7455 8.35365 31.5121 8.46052C31.2815 8.56457 31.1015 8.71221 30.9721 8.90344C30.8456 9.09185 30.7837 9.30839 30.7865 9.55305ZM30.9215 12.4637H38.0589V15.7202H37.1224V13.223H30.9215V12.4637ZM35.2664 9.71335H37.1224V8.49004H35.2748V7.73075H37.1224V5.1154H38.0589V11.8394H37.1224V10.498H35.2664V9.71335ZM48.5831 12.9024H47.6466V5.12384H48.5831V12.9024ZM39.9356 10.6329C40.4643 10.4276 40.9325 10.1281 41.3403 9.73444C41.748 9.34073 42.0644 8.88797 42.2894 8.37615C42.5143 7.86433 42.6268 7.33142 42.6268 6.77741V5.7144H43.5802V6.77741C43.5774 7.30892 43.6884 7.81793 43.9134 8.30444C44.1384 8.79095 44.4534 9.2184 44.8583 9.5868C45.2661 9.95239 45.7315 10.2308 46.2546 10.422L45.7652 11.1729C45.1494 10.9338 44.6108 10.5851 44.1496 10.1267C43.6912 9.66554 43.3453 9.12982 43.1119 8.51957C42.8813 9.17481 42.534 9.75131 42.07 10.2491C41.6088 10.744 41.0689 11.1166 40.4502 11.3669L39.9356 10.6329ZM41.7326 12.1853H42.669V14.7078H48.9121V15.484H41.7326V12.1853ZM61.6586 9.29152H63.4303V10.1014H61.6586V15.7202H60.7221V5.1154H61.6586V9.29152ZM53.8885 6.01812H54.8165V8.81907H57.9212V6.01812H58.8492V13.1724H53.8885V6.01812ZM57.9212 12.3878V9.56993H54.8165V12.3878H57.9212ZM73.7014 11.9828H69.2806V15.7202H68.361V11.9828H63.9909V11.1898H73.7014V11.9828ZM65.0961 7.87417C65.0961 7.40172 65.2507 6.98973 65.5601 6.63821C65.8722 6.28669 66.3095 6.01671 66.872 5.8283C67.4344 5.63707 68.0854 5.54005 68.825 5.53723C69.5646 5.54005 70.2157 5.63707 70.7781 5.8283C71.3434 6.01671 71.7821 6.28669 72.0942 6.63821C72.4064 6.98973 72.5625 7.40172 72.5625 7.87417C72.5625 8.341 72.4064 8.74877 72.0942 9.09748C71.7821 9.44619 71.3434 9.71476 70.7781 9.90317C70.2157 10.0916 69.5646 10.1858 68.825 10.1858C68.0854 10.1858 67.4344 10.0916 66.872 9.90317C66.3095 9.71476 65.8722 9.44619 65.5601 9.09748C65.2507 8.74877 65.0961 8.341 65.0961 7.87417ZM66.0578 7.87417C66.055 8.18633 66.1689 8.45911 66.3995 8.69252C66.6301 8.92593 66.9549 9.10732 67.3739 9.23668C67.793 9.36323 68.2767 9.42651 68.825 9.42651C69.3734 9.42651 69.8571 9.36323 70.2761 9.23668C70.6952 9.10732 71.02 8.92593 71.2506 8.69252C71.484 8.45911 71.6007 8.18633 71.6007 7.87417C71.6007 7.55921 71.484 7.28361 71.2506 7.04739C71.02 6.81116 70.6952 6.62837 70.2761 6.49901C69.8571 6.36964 69.3734 6.30496 68.825 6.30496C68.2767 6.30496 67.793 6.36964 67.3739 6.49901C66.9549 6.62837 66.6301 6.81116 66.3995 7.04739C66.1689 7.28361 66.055 7.55921 66.0578 7.87417ZM83.3566 15.7371H82.4202V10.1521H80.0917V9.37589H82.4202V5.1154H83.3566V15.7371ZM74.591 12.9361C75.1056 12.6971 75.5682 12.3498 75.9788 11.8942C76.3922 11.4386 76.717 10.9198 76.9532 10.3377C77.1895 9.75553 77.3076 9.16497 77.3076 8.56597V7.72231H74.8694V6.96302H77.3076V5.30945H78.244V6.96302H80.6316V7.72231H78.2272V8.56597C78.2272 9.13966 78.3481 9.70351 78.5899 10.2575C78.8318 10.8115 79.1622 11.3065 79.5812 11.7424C80.0031 12.1754 80.4741 12.5087 80.9944 12.7421L80.4629 13.4761C80.0607 13.2933 79.6853 13.0472 79.3366 12.7379C78.9879 12.4285 78.6799 12.0728 78.4128 11.6706C78.1484 11.2657 77.9375 10.8312 77.78 10.3672C77.6282 10.8565 77.4201 11.3163 77.1557 11.7466C76.8942 12.174 76.5891 12.5523 76.2404 12.8813C75.8945 13.2103 75.5218 13.4704 75.1225 13.6617L74.591 12.9361Z" fill="#555555"/>
<ellipse cx="98.6866" cy="10.251" rx="1.96195" ry="1.96195" fill="#555555"/>
<rect x="105.724" y="0.366089" width="90.9114" height="19.7688" rx="9.88439" stroke="#555555" stroke-width="0.732177"/>
<path d="M121.929 12.9024H120.993V8.82751H118.808V8.05978H120.993V5.12384H121.929V12.9024ZM113.181 10.7764C113.701 10.5936 114.165 10.3264 114.573 9.97489C114.983 9.62055 115.304 9.21278 115.534 8.75158C115.765 8.28757 115.88 7.80668 115.88 7.30892V6.76054H113.484V5.98437H119.196V6.76054H116.825V7.30892C116.825 7.75887 116.935 8.19898 117.154 8.62925C117.376 9.05951 117.684 9.44197 118.078 9.77662C118.475 10.1113 118.929 10.3658 119.441 10.5401L118.951 11.291C118.358 11.0773 117.838 10.7595 117.39 10.3377C116.943 9.91583 116.603 9.42791 116.37 8.87391C116.139 9.48697 115.789 10.0269 115.319 10.4937C114.85 10.9577 114.3 11.3079 113.67 11.5441L113.181 10.7764ZM115.121 12.2021H116.057V14.7078H122.225V15.484H115.121V12.2021ZM133.365 11.5019H123.679V10.7426H128.05V9.68804H124.97V5.41912H132.158V6.17842H125.915V7.17393H131.871V7.89104H125.915V8.94562H132.217V9.68804H128.986V10.7426H133.365V11.5019ZM124.861 13.9991C124.861 13.6336 125.003 13.3242 125.287 13.0711C125.571 12.8152 125.985 12.6226 126.531 12.4932C127.079 12.3638 127.743 12.3006 128.522 12.3034C129.295 12.3006 129.955 12.3638 130.5 12.4932C131.046 12.6226 131.461 12.8152 131.745 13.0711C132.029 13.3242 132.172 13.6336 132.175 13.9991C132.172 14.3675 132.029 14.6783 131.745 14.9314C131.461 15.1845 131.046 15.3743 130.5 15.5009C129.958 15.6302 129.298 15.6949 128.522 15.6949C127.74 15.6949 127.077 15.6302 126.531 15.5009C125.985 15.3743 125.571 15.1845 125.287 14.9314C125.003 14.6783 124.861 14.3675 124.861 13.9991ZM125.805 13.9991C125.803 14.3169 126.035 14.5602 126.501 14.7289C126.971 14.8948 127.645 14.975 128.522 14.9694C129.394 14.975 130.063 14.8948 130.53 14.7289C131 14.563 131.236 14.3197 131.239 13.9991C131.233 13.6814 130.995 13.4381 130.526 13.2694C130.059 13.0978 129.391 13.0121 128.522 13.0121C127.943 13.0121 127.449 13.05 127.041 13.126C126.634 13.2019 126.324 13.3144 126.113 13.4634C125.905 13.6097 125.803 13.7882 125.805 13.9991ZM143.948 11.3163H139.628V13.4845H138.7V11.3163H134.237V10.5401H143.948V11.3163ZM135.486 12.4384H136.422V14.7078H142.868V15.484H135.486V12.4384ZM135.503 5.63004H142.682V9.32527H135.503V5.63004ZM141.754 8.57441V6.38089H136.422V8.57441H141.754ZM153.038 9.62898H154.734V10.422H153.038V15.7202H152.101V5.1154H153.038V9.62898ZM144.677 12.8939C145.948 12.8883 146.924 12.8757 147.605 12.856V11.6875C147.194 11.6397 146.834 11.53 146.525 11.3585C146.218 11.1869 145.982 10.9648 145.816 10.692C145.65 10.4192 145.569 10.1099 145.572 9.76397C145.569 9.37026 145.671 9.02436 145.879 8.72627C146.088 8.42817 146.381 8.19757 146.761 8.03447C147.141 7.87136 147.579 7.78981 148.077 7.78981C148.569 7.78981 149.005 7.87136 149.385 8.03447C149.767 8.19757 150.064 8.42817 150.275 8.72627C150.489 9.02436 150.597 9.37026 150.6 9.76397C150.597 10.1099 150.51 10.4206 150.338 10.6962C150.169 10.969 149.93 11.1912 149.621 11.3627C149.312 11.5314 148.952 11.6397 148.541 11.6875V12.818C149.644 12.7674 150.614 12.6802 151.452 12.5565L151.519 13.2652C150.49 13.4395 149.434 13.5534 148.351 13.6068C147.269 13.6603 146.097 13.687 144.838 13.687L144.677 12.8939ZM144.871 6.41464H147.605V5.13228H148.541V6.41464H151.266V7.17393H144.871V6.41464ZM146.449 9.76397C146.449 10.0058 146.516 10.2181 146.651 10.4009C146.786 10.5837 146.976 10.7257 147.221 10.827C147.468 10.9254 147.754 10.9732 148.077 10.9704C148.398 10.9732 148.68 10.9254 148.925 10.827C149.17 10.7257 149.36 10.5837 149.495 10.4009C149.63 10.2181 149.697 10.0058 149.697 9.76397C149.697 9.51931 149.63 9.30418 149.495 9.11857C149.36 8.93015 149.17 8.78392 148.925 8.67987C148.68 8.57582 148.398 8.52379 148.077 8.52379C147.754 8.52379 147.468 8.57582 147.221 8.67987C146.976 8.78111 146.786 8.92593 146.651 9.11435C146.516 9.30277 146.449 9.51931 146.449 9.76397ZM166.645 9.29152H168.417V10.1014H166.645V15.7202H165.708V5.1154H166.645V9.29152ZM158.875 6.01812H159.803V8.81907H162.908V6.01812H163.836V13.1724H158.875V6.01812ZM162.908 12.3878V9.56993H159.803V12.3878H162.908ZM178.688 11.9828H174.267V15.7202H173.347V11.9828H168.977V11.1898H178.688V11.9828ZM170.082 7.87417C170.082 7.40172 170.237 6.98973 170.546 6.63821C170.859 6.28669 171.296 6.01671 171.858 5.8283C172.421 5.63707 173.072 5.54005 173.811 5.53723C174.551 5.54005 175.202 5.63707 175.764 5.8283C176.33 6.01671 176.768 6.28669 177.081 6.63821C177.393 6.98973 177.549 7.40172 177.549 7.87417C177.549 8.341 177.393 8.74877 177.081 9.09748C176.768 9.44619 176.33 9.71476 175.764 9.90317C175.202 10.0916 174.551 10.1858 173.811 10.1858C173.072 10.1858 172.421 10.0916 171.858 9.90317C171.296 9.71476 170.859 9.44619 170.546 9.09748C170.237 8.74877 170.082 8.341 170.082 7.87417ZM171.044 7.87417C171.041 8.18633 171.155 8.45911 171.386 8.69252C171.616 8.92593 171.941 9.10732 172.36 9.23668C172.779 9.36323 173.263 9.42651 173.811 9.42651C174.36 9.42651 174.843 9.36323 175.262 9.23668C175.681 9.10732 176.006 8.92593 176.237 8.69252C176.47 8.45911 176.587 8.18633 176.587 7.87417C176.587 7.55921 176.47 7.28361 176.237 7.04739C176.006 6.81116 175.681 6.62837 175.262 6.49901C174.843 6.36964 174.36 6.30496 173.811 6.30496C173.263 6.30496 172.779 6.36964 172.36 6.49901C171.941 6.62837 171.616 6.81116 171.386 7.04739C171.155 7.28361 171.041 7.55921 171.044 7.87417ZM188.343 15.7371H187.406V10.1521H185.078V9.37589H187.406V5.1154H188.343V15.7371ZM179.577 12.9361C180.092 12.6971 180.555 12.3498 180.965 11.8942C181.379 11.4386 181.703 10.9198 181.94 10.3377C182.176 9.75553 182.294 9.16497 182.294 8.56597V7.72231H179.856V6.96302H182.294V5.30945H183.23V6.96302H185.618V7.72231H183.214V8.56597C183.214 9.13966 183.334 9.70351 183.576 10.2575C183.818 10.8115 184.149 11.3065 184.568 11.7424C184.989 12.1754 185.46 12.5087 185.981 12.7421L185.449 13.4761C185.047 13.2933 184.672 13.0472 184.323 12.7379C183.974 12.4285 183.666 12.0728 183.399 11.6706C183.135 11.2657 182.924 10.8312 182.766 10.3672C182.615 10.8565 182.406 11.3163 182.142 11.7466C181.881 12.174 181.575 12.5523 181.227 12.8813C180.881 13.2103 180.508 13.4704 180.109 13.6617L179.577 12.9361Z" fill="#555555"/>
</svg>
