<svg width="565" height="28" viewBox="0 0 565 28" fill="none" xmlns="http://www.w3.org/2000/svg">
<rect x="0.5" y="0.5" width="121" height="27" rx="13.5" stroke="#555555"/>
<path d="M23.1894 20.7769H22.0125V6.81996H23.1894V20.7769ZM11.0979 17.0573C11.7307 16.676 12.2785 16.1579 12.7412 15.5028C13.2075 14.844 13.5628 14.1075 13.8071 13.2932C14.0514 12.479 14.1735 11.6462 14.1735 10.795V9.48477H11.4754V8.46326H17.9153V9.48477H15.3615V10.795C15.3615 11.6092 15.48 12.4031 15.7169 13.1766C15.9537 13.9465 16.2979 14.6423 16.7495 15.2641C17.2047 15.8822 17.7451 16.3726 18.3706 16.7353L17.6266 17.6457C16.953 17.2423 16.3738 16.6853 15.889 15.9747C15.4041 15.2604 15.0358 14.4498 14.7842 13.543C14.5288 14.5238 14.1513 15.401 13.6516 16.1745C13.152 16.9481 12.5598 17.5495 11.8751 17.9788L11.0979 17.0573ZM16.8494 11.8498H19.2033V7.15306H20.3692V20.0441H19.2033V12.8602H16.8494V11.8498ZM37.9396 18.9781H25.1597V17.9455H30.9223V14.5479H32.1548V17.9455H37.9396V18.9781ZM25.7925 14.0594C26.592 13.9187 27.3859 13.6226 28.1742 13.1711C28.9663 12.7195 29.6158 12.1681 30.1229 11.5167C30.6336 10.8616 30.889 10.1806 30.889 9.47366V9.12946H26.2145V8.08574H36.8404V9.12946H32.1659V9.47366C32.1659 10.1806 32.4213 10.8579 32.932 11.5056C33.4465 12.1533 34.1034 12.6992 34.9029 13.1433C35.7023 13.5838 36.511 13.8706 37.3289 14.0038L36.8182 14.9809C36.0928 14.8366 35.3803 14.5942 34.6808 14.2537C33.985 13.9095 33.3595 13.4838 32.8043 12.9768C32.2492 12.466 31.8272 11.8997 31.5385 11.278C31.2499 11.9035 30.8279 12.4753 30.2728 12.9934C29.7213 13.5079 29.0995 13.9409 28.4074 14.2925C27.7153 14.6404 27.0139 14.8884 26.3033 15.0364L25.7925 14.0594ZM46.9716 9.2738H39.066V8.2634H42.4636V6.69782H43.685V8.2634H46.9716V9.2738ZM39.8988 12.6603C39.8951 12.1459 40.0264 11.6925 40.2929 11.3002C40.5594 10.9041 40.9332 10.5988 41.4144 10.3841C41.8955 10.1658 42.4451 10.0547 43.0632 10.051C43.6776 10.0547 44.2254 10.1658 44.7065 10.3841C45.1877 10.5988 45.5633 10.9041 45.8335 11.3002C46.1074 11.6925 46.2462 12.1459 46.2499 12.6603C46.2462 13.1674 46.1074 13.6189 45.8335 14.0149C45.5633 14.4073 45.1877 14.7145 44.7065 14.9365C44.2254 15.1549 43.6776 15.2659 43.0632 15.2696C42.4488 15.2659 41.9011 15.1549 41.4199 14.9365C40.9388 14.7145 40.5631 14.4073 40.2929 14.0149C40.0264 13.6189 39.8951 13.1674 39.8988 12.6603ZM41.0535 12.6603C41.0498 12.9786 41.1312 13.2618 41.2978 13.5097C41.468 13.7577 41.7049 13.9502 42.0084 14.0871C42.3156 14.2204 42.6672 14.2851 43.0632 14.2814C43.4555 14.2851 43.8053 14.2204 44.1125 14.0871C44.4197 13.9502 44.6584 13.7577 44.8287 13.5097C45.0026 13.2618 45.0914 12.9786 45.0951 12.6603C45.0914 12.3383 45.0026 12.0533 44.8287 11.8054C44.6584 11.5537 44.4197 11.3594 44.1125 11.2224C43.8053 11.0818 43.4555 11.0096 43.0632 11.0059C42.6672 11.0096 42.3156 11.0818 42.0084 11.2224C41.7049 11.3594 41.468 11.5537 41.2978 11.8054C41.1312 12.0533 41.0498 12.3383 41.0535 12.6603ZM41.2312 16.491H50.6246V20.7769H49.3921V17.4903H41.2312V16.491ZM46.9494 12.8713H49.3921V11.2613H46.9605V10.262H49.3921V6.81996H50.6246V15.6693H49.3921V13.9039H46.9494V12.8713ZM64.4754 17.0684H63.243V6.83106H64.4754V17.0684ZM53.0945 14.0816C53.7903 13.8114 54.4065 13.4172 54.9432 12.8991C55.4799 12.3809 55.8962 11.785 56.1923 11.1114C56.4884 10.4378 56.6365 9.73644 56.6365 9.00732V7.6083H57.8912V9.00732C57.8875 9.70684 58.0336 10.3767 58.3297 11.017C58.6258 11.6573 59.0403 12.2199 59.5733 12.7047C60.11 13.1859 60.7225 13.5523 61.4109 13.804L60.7669 14.7922C59.9564 14.4776 59.2476 14.0186 58.6406 13.4154C58.0373 12.8084 57.5821 12.1033 57.2749 11.3002C56.9714 12.1625 56.5143 12.9213 55.9037 13.5764C55.2967 14.2278 54.5861 14.7182 53.7718 15.0476L53.0945 14.0816ZM55.4595 16.1246H56.692V19.4445H64.9085V20.466H55.4595V16.1246ZM81.6841 12.3161H84.0158V13.382H81.6841V20.7769H80.4516V6.81996H81.6841V12.3161ZM71.4579 8.00802H72.6793V11.6943H76.7653V8.00802H77.9867V17.4237H71.4579V8.00802ZM76.7653 16.3911V12.6825H72.6793V16.3911H76.7653ZM97.5335 15.8581H91.7154V20.7769H90.5051V15.8581H84.7536V14.8144H97.5335V15.8581ZM86.2081 10.4508C86.2081 9.82897 86.4117 9.28676 86.8188 8.82412C87.2296 8.36148 87.8051 8.00617 88.5454 7.75819C89.2856 7.50652 90.1424 7.37883 91.1158 7.37513C92.0892 7.37883 92.946 7.50652 93.6862 7.75819C94.4301 8.00617 95.0075 8.36148 95.4183 8.82412C95.8292 9.28676 96.0346 9.82897 96.0346 10.4508C96.0346 11.0651 95.8292 11.6018 95.4183 12.0607C95.0075 12.5197 94.4301 12.8731 93.6862 13.1211C92.946 13.3691 92.0892 13.4931 91.1158 13.4931C90.1424 13.4931 89.2856 13.3691 88.5454 13.1211C87.8051 12.8731 87.2296 12.5197 86.8188 12.0607C86.4117 11.6018 86.2081 11.0651 86.2081 10.4508ZM87.4739 10.4508C87.4702 10.8616 87.6201 11.2206 87.9236 11.5278C88.2271 11.835 88.6545 12.0737 89.206 12.244C89.7575 12.4105 90.3941 12.4938 91.1158 12.4938C91.8375 12.4938 92.4741 12.4105 93.0256 12.244C93.577 12.0737 94.0045 11.835 94.308 11.5278C94.6152 11.2206 94.7688 10.8616 94.7688 10.4508C94.7688 10.0362 94.6152 9.67353 94.308 9.36263C94.0045 9.05174 93.577 8.81116 93.0256 8.64091C92.4741 8.47066 91.8375 8.38553 91.1158 8.38553C90.3941 8.38553 89.7575 8.47066 89.206 8.64091C88.6545 8.81116 88.2271 9.05174 87.9236 9.36263C87.6201 9.67353 87.4702 10.0362 87.4739 10.4508ZM110.241 20.7991H109.008V13.4487H105.944V12.4272H109.008V6.81996H110.241V20.7991ZM98.7043 17.1128C99.3816 16.7982 99.9905 16.3411 100.531 15.7415C101.075 15.1419 101.502 14.4591 101.813 13.6929C102.124 12.9268 102.28 12.1496 102.28 11.3612V10.2509H99.0707V9.2516H102.28V7.07534H103.512V9.2516H106.654V10.2509H103.49V11.3612C103.49 12.1163 103.649 12.8583 103.967 13.5875C104.286 14.3166 104.721 14.968 105.272 15.5417C105.827 16.1116 106.447 16.5502 107.132 16.8574L106.432 17.8234C105.903 17.5828 105.409 17.259 104.95 16.8518C104.491 16.4447 104.086 15.9765 103.734 15.4473C103.386 14.9143 103.109 14.3425 102.901 13.7318C102.702 14.3758 102.428 14.9809 102.08 15.5472C101.736 16.1098 101.334 16.6076 100.875 17.0406C100.42 17.4736 99.9294 17.816 99.4038 18.0677L98.7043 17.1128Z" fill="#555555"/>
<circle cx="131.109" cy="13.9999" r="2.67961" fill="#555555"/>
<rect x="140.723" y="0.5" width="121" height="27" rx="13.5" stroke="#555555"/>
<path d="M163.057 17.0684H161.824V11.7054H158.949V10.695H161.824V6.83106H163.057V17.0684ZM151.543 14.2703C152.227 14.0297 152.838 13.6781 153.375 13.2155C153.915 12.7492 154.337 12.2125 154.64 11.6055C154.944 10.9948 155.096 10.3619 155.096 9.70684V8.98512H151.942V7.96361H159.459V8.98512H156.339V9.70684C156.339 10.299 156.484 10.8782 156.772 11.4445C157.065 12.0108 157.47 12.5141 157.988 12.9546C158.51 13.395 159.108 13.73 159.781 13.9594L159.137 14.9476C158.356 14.6663 157.672 14.2481 157.083 13.6929C156.495 13.1378 156.047 12.4956 155.74 11.7665C155.436 12.5734 154.975 13.284 154.357 13.8984C153.739 14.509 153.016 14.9698 152.187 15.2807L151.543 14.2703ZM154.096 16.1468H155.329V19.4445H163.445V20.466H154.096V16.1468ZM178.107 15.2252H165.36V14.2259H171.112V12.838H167.059V7.21968H176.519V8.21898H168.302V9.52918H176.141V10.473H168.302V11.8609H176.597V12.838H172.344V14.2259H178.107V15.2252ZM166.915 18.5118C166.915 18.0307 167.101 17.6235 167.475 17.2904C167.849 16.9536 168.395 16.7001 169.113 16.5299C169.835 16.3596 170.708 16.2763 171.733 16.28C172.751 16.2763 173.619 16.3596 174.337 16.5299C175.055 16.7001 175.601 16.9536 175.975 17.2904C176.349 17.6235 176.537 18.0307 176.541 18.5118C176.537 18.9966 176.349 19.4056 175.975 19.7387C175.601 20.0718 175.055 20.3216 174.337 20.4882C173.623 20.6585 172.755 20.7436 171.733 20.7436C170.705 20.7436 169.831 20.6585 169.113 20.4882C168.395 20.3216 167.849 20.0718 167.475 19.7387C167.101 19.4056 166.915 18.9966 166.915 18.5118ZM168.158 18.5118C168.154 18.93 168.46 19.2502 169.074 19.4722C169.692 19.6906 170.579 19.7961 171.733 19.7887C172.881 19.7961 173.762 19.6906 174.376 19.4722C174.994 19.2539 175.305 18.9337 175.309 18.5118C175.301 18.0936 174.989 17.7734 174.37 17.5514C173.756 17.3256 172.877 17.2127 171.733 17.2127C170.971 17.2127 170.321 17.2627 169.785 17.3626C169.248 17.4625 168.841 17.6106 168.563 17.8067C168.29 17.9992 168.154 18.2342 168.158 18.5118ZM192.035 14.9809H186.35V17.8345H185.129V14.9809H179.255V13.9594H192.035V14.9809ZM180.899 16.4577H182.131V19.4445H190.614V20.466H180.899V16.4577ZM180.921 7.49727H190.37V12.3605H180.921V7.49727ZM189.148 11.3723V8.48546H182.131V11.3723H189.148ZM203.999 12.7603H206.23V13.804H203.999V20.7769H202.766V6.81996H203.999V12.7603ZM192.995 17.0573C194.668 17.0499 195.952 17.0332 196.848 17.0073V15.4695C196.308 15.4066 195.834 15.2622 195.427 15.0364C195.023 14.8107 194.712 14.5183 194.494 14.1593C194.276 13.8003 194.168 13.3932 194.172 12.9379C194.168 12.4198 194.304 11.9645 194.577 11.5722C194.851 11.1799 195.238 10.8764 195.738 10.6617C196.237 10.4471 196.815 10.3397 197.47 10.3397C198.118 10.3397 198.691 10.4471 199.191 10.6617C199.694 10.8764 200.085 11.1799 200.362 11.5722C200.644 11.9645 200.786 12.4198 200.79 12.9379C200.786 13.3932 200.671 13.8021 200.446 14.1648C200.223 14.5238 199.909 14.8162 199.502 15.042C199.095 15.2641 198.621 15.4066 198.08 15.4695V16.9573C199.531 16.8907 200.808 16.776 201.911 16.6131L202 17.5458C200.645 17.7753 199.256 17.9252 197.831 17.9955C196.406 18.0658 194.864 18.101 193.206 18.101L192.995 17.0573ZM193.251 8.52988H196.848V6.84217H198.08V8.52988H201.667V9.52918H193.251V8.52988ZM195.327 12.9379C195.327 13.2562 195.416 13.5356 195.593 13.7762C195.771 14.0168 196.021 14.2037 196.343 14.3369C196.669 14.4665 197.044 14.5294 197.47 14.5257C197.892 14.5294 198.264 14.4665 198.586 14.3369C198.908 14.2037 199.158 14.0168 199.335 13.7762C199.513 13.5356 199.602 13.2562 199.602 12.9379C199.602 12.6159 199.513 12.3328 199.335 12.0885C199.158 11.8405 198.908 11.6481 198.586 11.5111C198.264 11.3742 197.892 11.3057 197.47 11.3057C197.044 11.3057 196.669 11.3742 196.343 11.5111C196.021 11.6444 195.771 11.835 195.593 12.083C195.416 12.3309 195.327 12.6159 195.327 12.9379ZM221.907 12.3161H224.238V13.382H221.907V20.7769H220.674V6.81996H221.907V12.3161ZM211.681 8.00802H212.902V11.6943H216.988V8.00802H218.209V17.4237H211.681V8.00802ZM216.988 16.3911V12.6825H212.902V16.3911H216.988ZM237.756 15.8581H231.938V20.7769H230.728V15.8581H224.976V14.8144H237.756V15.8581ZM226.431 10.4508C226.431 9.82897 226.634 9.28676 227.041 8.82412C227.452 8.36148 228.028 8.00617 228.768 7.75819C229.508 7.50652 230.365 7.37883 231.338 7.37513C232.312 7.37883 233.169 7.50652 233.909 7.75819C234.653 8.00617 235.23 8.36148 235.641 8.82412C236.052 9.28676 236.257 9.82897 236.257 10.4508C236.257 11.0651 236.052 11.6018 235.641 12.0607C235.23 12.5197 234.653 12.8731 233.909 13.1211C233.169 13.3691 232.312 13.4931 231.338 13.4931C230.365 13.4931 229.508 13.3691 228.768 13.1211C228.028 12.8731 227.452 12.5197 227.041 12.0607C226.634 11.6018 226.431 11.0651 226.431 10.4508ZM227.697 10.4508C227.693 10.8616 227.843 11.2206 228.146 11.5278C228.45 11.835 228.877 12.0737 229.429 12.244C229.98 12.4105 230.617 12.4938 231.338 12.4938C232.06 12.4938 232.697 12.4105 233.248 12.244C233.8 12.0737 234.227 11.835 234.531 11.5278C234.838 11.2206 234.991 10.8616 234.991 10.4508C234.991 10.0362 234.838 9.67353 234.531 9.36263C234.227 9.05174 233.8 8.81116 233.248 8.64091C232.697 8.47066 232.06 8.38553 231.338 8.38553C230.617 8.38553 229.98 8.47066 229.429 8.64091C228.877 8.81116 228.45 9.05174 228.146 9.36263C227.843 9.67353 227.693 10.0362 227.697 10.4508ZM250.463 20.7991H249.231V13.4487H246.166V12.4272H249.231V6.81996H250.463V20.7991ZM238.927 17.1128C239.604 16.7982 240.213 16.3411 240.753 15.7415C241.298 15.1419 241.725 14.4591 242.036 13.6929C242.347 12.9268 242.502 12.1496 242.502 11.3612V10.2509H239.293V9.2516H242.502V7.07534H243.735V9.2516H246.877V10.2509H243.713V11.3612C243.713 12.1163 243.872 12.8583 244.19 13.5875C244.508 14.3166 244.943 14.968 245.495 15.5417C246.05 16.1116 246.67 16.5502 247.354 16.8574L246.655 17.8234C246.126 17.5828 245.632 17.259 245.173 16.8518C244.714 16.4447 244.308 15.9765 243.957 15.4473C243.609 14.9143 243.331 14.3425 243.124 13.7318C242.924 14.3758 242.65 14.9809 242.302 15.5472C241.958 16.1098 241.557 16.6076 241.098 17.0406C240.642 17.4736 240.152 17.816 239.627 18.0677L238.927 17.1128Z" fill="#555555"/>
<circle cx="271.332" cy="13.9999" r="2.67961" fill="#555555"/>
<rect x="280.941" y="0.5" width="61" height="27" rx="13.5" stroke="#555555"/>
<path d="M304.102 18.9115H291.322V17.8789H304.102V18.9115ZM292.832 7.81926H294.064V10.4286H301.315V7.81926H302.536V15.0809H292.832V7.81926ZM301.315 14.0927V11.4168H294.064V14.0927H301.315ZM317.064 17.2238H315.899V12.0385H313.933V16.813H312.779V7.09755H313.933V11.0059H315.899V6.83106H317.064V17.2238ZM305.828 8.03023H311.113V12.0052H307.06V14.126C308.03 14.1223 308.889 14.0908 309.636 14.0316C310.388 13.9687 311.161 13.8595 311.957 13.704L312.09 14.7033C311.231 14.8662 310.401 14.9772 309.597 15.0364C308.794 15.0957 307.852 15.1253 306.772 15.1253H305.861V11.0392H309.936V9.02953H305.828V8.03023ZM307.915 16.2689H309.148V19.4445H317.497V20.466H307.915V16.2689ZM330.638 15.414H329.405V6.81996H330.638V15.414ZM319.967 7.91919H326.585V8.9296H321.2V13.0156C322.762 13.0156 324.037 12.9823 325.025 12.9157C326.013 12.8454 326.996 12.7121 327.973 12.516L328.106 13.5486C327.107 13.7374 326.106 13.865 325.103 13.9317C324.1 13.9946 322.773 14.0297 321.122 14.0371H319.967V7.91919ZM321.255 18.0899C321.255 17.5347 321.444 17.0573 321.822 16.6575C322.199 16.2578 322.741 15.9525 323.448 15.7415C324.159 15.5305 325.001 15.4251 325.974 15.4251C326.937 15.4251 327.769 15.5305 328.473 15.7415C329.179 15.9525 329.724 16.2578 330.105 16.6575C330.486 17.0573 330.678 17.5347 330.682 18.0899C330.678 18.645 330.486 19.1225 330.105 19.5222C329.727 19.9256 329.185 20.2328 328.478 20.4438C327.771 20.6547 326.937 20.7621 325.974 20.7658C325.001 20.7621 324.159 20.6547 323.448 20.4438C322.741 20.2328 322.199 19.9275 321.822 19.5278C321.444 19.128 321.255 18.6487 321.255 18.0899ZM322.499 18.0899C322.499 18.4341 322.638 18.732 322.915 18.9837C323.193 19.2354 323.593 19.4278 324.114 19.5611C324.636 19.698 325.256 19.7665 325.974 19.7665C326.689 19.7665 327.307 19.698 327.829 19.5611C328.354 19.4278 328.758 19.2354 329.039 18.9837C329.32 18.732 329.461 18.4341 329.461 18.0899C329.461 17.742 329.32 17.4422 329.039 17.1905C328.758 16.9388 328.354 16.7464 327.829 16.6131C327.307 16.4799 326.689 16.4133 325.974 16.4133C325.256 16.4133 324.636 16.4799 324.114 16.6131C323.593 16.7464 323.193 16.9388 322.915 17.1905C322.638 17.4422 322.499 17.742 322.499 18.0899Z" fill="#555555"/>
<circle cx="351.555" cy="13.9999" r="2.67961" fill="#555555"/>
<rect x="361.164" y="0.5" width="79" height="27" rx="13.5" stroke="#555555"/>
<path d="M383.439 15.4695H382.251V6.81996H383.439V15.4695ZM371.536 12.2495C372.891 12.2495 374.209 12.2236 375.489 12.1718C376.774 12.12 377.932 12.0126 378.965 11.8498L379.053 12.6936C378.165 12.8787 377.136 13.0138 375.967 13.0989V15.4251H374.768V13.1655C373.972 13.1988 373.115 13.2155 372.197 13.2155H371.67L371.536 12.2495ZM372.269 9.38484C372.269 8.96291 372.395 8.5965 372.647 8.2856C372.902 7.97471 373.259 7.73599 373.718 7.56944C374.177 7.40289 374.712 7.31961 375.323 7.31961C375.93 7.31961 376.463 7.40289 376.922 7.56944C377.384 7.73599 377.741 7.97471 377.993 8.2856C378.248 8.5965 378.376 8.96291 378.376 9.38484C378.376 9.79936 378.248 10.1639 377.993 10.4785C377.738 10.7894 377.379 11.03 376.916 11.2002C376.457 11.3668 375.926 11.4501 375.323 11.4501C374.716 11.4501 374.181 11.3668 373.718 11.2002C373.259 11.03 372.902 10.7894 372.647 10.4785C372.395 10.1676 372.269 9.80306 372.269 9.38484ZM373.402 9.38484C373.402 9.62171 373.48 9.82897 373.635 10.0066C373.79 10.1806 374.013 10.3157 374.301 10.4119C374.594 10.5044 374.934 10.5507 375.323 10.5507C375.708 10.5507 376.046 10.5044 376.339 10.4119C376.631 10.3157 376.857 10.1806 377.016 10.0066C377.179 9.82897 377.262 9.62171 377.266 9.38484C377.262 9.14426 377.179 8.93515 377.016 8.7575C376.857 8.57614 376.631 8.4392 376.339 8.34667C376.046 8.25044 375.708 8.20418 375.323 8.20788C374.934 8.20418 374.595 8.25044 374.307 8.34667C374.018 8.4392 373.794 8.57614 373.635 8.7575C373.48 8.93515 373.402 9.14426 373.402 9.38484ZM374.024 15.9691H375.234V17.2904H382.218V15.9691H383.439V20.5881H374.024V15.9691ZM382.218 19.5999V18.2675H375.234V19.5999H382.218ZM377.244 13.7263H379.731V7.06423H380.908V15.4251H379.731V14.6145H377.244V13.7263ZM394.23 10.5729C394.227 11.3723 394.386 12.1699 394.708 12.9657C395.03 13.7614 395.466 14.4739 396.018 15.1031C396.573 15.7323 397.18 16.2097 397.839 16.5354L397.073 17.5236C396.566 17.2571 396.088 16.9037 395.64 16.4632C395.196 16.0191 394.802 15.5139 394.458 14.9476C394.117 14.3776 393.843 13.7707 393.636 13.1267C393.429 13.8077 393.149 14.4517 392.798 15.0587C392.45 15.6656 392.047 16.2042 391.588 16.6742C391.129 17.1405 390.64 17.5125 390.122 17.7901L389.345 16.8019C390.015 16.4688 390.629 15.9728 391.188 15.314C391.747 14.6515 392.189 13.9039 392.515 13.0712C392.84 12.2384 393.005 11.4056 393.009 10.5729V8.03023H394.23V10.5729ZM399.116 6.81996H400.348V12.4827H402.68V13.5486H400.348V20.7769H399.116V6.81996ZM414.943 20.7991H413.71V6.81996H414.943V20.7991ZM403.962 12.7603C403.962 11.7869 404.112 10.9338 404.411 10.2009C404.715 9.46811 405.137 8.90184 405.677 8.50212C406.218 8.1024 406.834 7.90069 407.526 7.89699C408.214 7.90069 408.827 8.1024 409.363 8.50212C409.904 8.90184 410.326 9.46996 410.629 10.2065C410.936 10.9393 411.09 11.7906 411.09 12.7603C411.09 13.7337 410.936 14.5886 410.629 15.3251C410.326 16.0617 409.904 16.6298 409.363 17.0295C408.823 17.4255 408.211 17.6235 407.526 17.6235C406.834 17.6235 406.218 17.4255 405.677 17.0295C405.137 16.6298 404.715 16.0635 404.411 15.3307C404.112 14.5942 403.962 13.7374 403.962 12.7603ZM405.15 12.7603C405.15 13.5079 405.25 14.1667 405.45 14.7367C405.649 15.3066 405.929 15.7471 406.288 16.058C406.651 16.3689 407.063 16.5243 407.526 16.5243C407.989 16.5243 408.397 16.3689 408.753 16.058C409.112 15.7471 409.391 15.3066 409.591 14.7367C409.791 14.1667 409.891 13.5079 409.891 12.7603C409.891 12.0163 409.791 11.3612 409.591 10.795C409.391 10.225 409.112 9.78456 408.753 9.47366C408.397 9.15907 407.989 8.99992 407.526 8.99622C407.063 8.99992 406.651 9.15907 406.288 9.47366C405.929 9.78456 405.649 10.225 405.45 10.795C405.25 11.3612 405.15 12.0163 405.15 12.7603ZM428.638 15.3695H418.989V8.03023H428.483V9.05174H420.233V11.1281H428.183V12.1274H420.233V14.3591H428.638V15.3695ZM417.335 17.9233H430.115V18.9559H417.335V17.9233Z" fill="#555555"/>
<circle cx="449.773" cy="13.9999" r="2.67961" fill="#555555"/>
<rect x="459.387" y="0.5" width="105" height="27" rx="13.5" stroke="#555555"/>
<path d="M481.469 17.2127H480.236V13.16H477.838V12.1163H480.236V10.5063H477.838V9.48477H480.236V6.81996H481.469V17.2127ZM469.932 14.0371C470.495 14.0371 471.095 14.0316 471.731 14.0205V8.96291H470.321V7.9525H477.727V8.96291H476.306V13.8595C476.965 13.8151 477.594 13.7596 478.193 13.6929L478.249 14.6145C477.05 14.7996 475.776 14.9236 474.429 14.9865C473.082 15.0494 471.635 15.0846 470.088 15.092L469.932 14.0371ZM472.475 16.3466H473.719V19.4445H481.846V20.466H472.475V16.3466ZM472.93 13.9983C473.537 13.9872 474.266 13.9631 475.118 13.9261V8.96291H472.93V13.9983ZM488.824 9.11836C488.824 9.71424 488.978 10.2842 489.285 10.8283C489.592 11.3723 490.018 11.8498 490.562 12.2606C491.106 12.6714 491.722 12.9823 492.411 13.1933L491.789 14.1593C490.967 13.9002 490.244 13.5023 489.618 12.9657C488.993 12.429 488.523 11.7998 488.208 11.0781C487.904 11.8479 487.438 12.5234 486.809 13.1045C486.18 13.6855 485.445 14.1186 484.605 14.4036L483.972 13.4265C484.668 13.2044 485.288 12.8768 485.832 12.4438C486.38 12.0108 486.807 11.5056 487.114 10.9282C487.421 10.3508 487.577 9.74755 487.581 9.11836V8.76305H484.316V7.75264H492.033V8.76305H488.824V9.11836ZM486.281 15.0587H487.492V16.7464H494.098V15.0587H495.32V20.5881H486.281V15.0587ZM494.098 19.5777V17.7346H487.492V19.5777H494.098ZM494.087 6.81996H495.32V14.3702H494.087V6.81996ZM505.162 11.6863C506.111 11.6863 506.866 12.4419 506.866 13.3905C506.866 14.3391 506.111 15.0947 505.162 15.0947C504.214 15.0947 503.458 14.3391 503.458 13.3905C503.458 12.4419 504.214 11.6863 505.162 11.6863ZM520.118 16.4799C521.14 16.4799 522.008 16.5613 522.722 16.7242C523.44 16.887 523.986 17.1294 524.36 17.4514C524.734 17.7734 524.922 18.1676 524.926 18.6339C524.922 19.3223 524.506 19.8461 523.677 20.2051C522.848 20.5641 521.662 20.7436 520.118 20.7436C518.564 20.7436 517.372 20.5641 516.543 20.2051C515.714 19.8461 515.3 19.3223 515.3 18.6339C515.3 18.1676 515.486 17.7734 515.86 17.4514C516.234 17.1294 516.78 16.887 517.498 16.7242C518.216 16.5613 519.089 16.4799 520.118 16.4799ZM513.767 14.6145H519.519V13.5264C518.253 13.482 517.281 13.2914 516.604 12.9546C515.927 12.6178 515.588 12.1496 515.588 11.55C515.588 10.8949 515.979 10.3989 516.76 10.0621C517.541 9.72164 518.66 9.55139 520.118 9.55139C521.58 9.55139 522.7 9.72164 523.477 10.0621C524.258 10.3989 524.649 10.8949 524.649 11.55C524.649 12.1496 524.312 12.6178 523.638 12.9546C522.968 13.2877 522.002 13.4783 520.74 13.5264V14.6145H526.492V15.6138H513.767V14.6145ZM514.433 7.99692H519.519V6.6201H520.74V7.99692H525.748V8.97401H514.433V7.99692ZM516.565 18.6339C516.565 19.0152 516.874 19.3075 517.492 19.5111C518.111 19.7184 518.986 19.8183 520.118 19.8109C521.251 19.8183 522.126 19.7184 522.744 19.5111C523.362 19.3075 523.671 19.0152 523.671 18.6339C523.671 18.2416 523.362 17.94 522.744 17.729C522.13 17.518 521.255 17.4126 520.118 17.4126C518.982 17.4126 518.105 17.518 517.487 17.729C516.872 17.94 516.565 18.2416 516.565 18.6339ZM516.909 11.55C516.906 11.7832 517.03 11.983 517.281 12.1496C517.533 12.3124 517.9 12.4364 518.381 12.5215C518.862 12.6067 519.441 12.6492 520.118 12.6492C521.144 12.6492 521.936 12.5548 522.494 12.3661C523.057 12.1736 523.338 11.9016 523.338 11.55C523.338 11.1836 523.059 10.9041 522.5 10.7117C521.941 10.5155 521.147 10.4175 520.118 10.4175C519.093 10.4175 518.301 10.5155 517.742 10.7117C517.183 10.9078 516.906 11.1873 516.909 11.55ZM540.442 18.9892H527.662V17.9566H533.403V14.9476H529.173V7.80816H530.405V10.3286H537.656V7.80816H538.877V14.9476H534.624V17.9566H540.442V18.9892ZM537.656 13.9372V11.339H530.405V13.9372H537.656ZM554.282 13.7151H548.52V15.1031H552.639V18.2231H544.345V19.6443H553.061V20.6214H543.134V17.3015H551.429V16.058H543.101V15.1031H547.287V13.7151H541.558V12.7158H554.282V13.7151ZM543.212 7.2863H552.628V11.5389H543.212V7.2863ZM551.395 10.5507V8.2745H544.422V10.5507H551.395Z" fill="#555555"/>
</svg>
