<svg width="410" height="408" viewBox="0 0 410 408" fill="none" xmlns="http://www.w3.org/2000/svg">
<g clip-path="url(#clip0_575_48188)">
<path d="M409.696 204.274L406.102 165.496L307.026 174.665L396.089 130.326L378.726 95.452L289.678 139.806L356.705 66.287L327.909 40.0354L260.883 113.554L296.822 20.7942L260.513 6.71448L224.56 99.4896V0H185.619V99.4896L149.665 6.71448L113.357 20.7942L149.295 113.554L82.2689 40.0354L53.4735 66.287L120.5 139.806L31.4518 95.452L14.0889 130.326L103.152 174.665L4.07629 165.496L0.482422 204.274L99.5579 213.458L3.85445 240.686L14.5177 278.148L110.221 250.92L30.8159 310.877L54.287 341.965L133.692 281.993L81.3076 366.59L114.421 387.103L166.806 302.506L148.511 400.295L186.802 407.468L205.082 309.65L223.376 407.468L261.652 400.295L243.372 302.506L295.757 387.103L328.871 366.59L276.486 281.993L355.891 341.965L379.362 310.877L299.957 250.92L395.66 278.148L406.324 240.686L310.62 213.458L409.696 204.274Z" fill="white"/>
<path d="M154.826 184.426C160.764 184.426 165.578 179.612 165.578 173.674C165.578 167.736 160.764 162.922 154.826 162.922C148.888 162.922 144.074 167.736 144.074 173.674C144.074 179.612 148.888 184.426 154.826 184.426Z" fill="black"/>
<path d="M246.168 184.426C252.106 184.426 256.92 179.612 256.92 173.674C256.92 167.736 252.106 162.922 246.168 162.922C240.23 162.922 235.416 167.736 235.416 173.674C235.416 179.612 240.23 184.426 246.168 184.426Z" fill="black"/>
<path d="M187.186 156.297V209.48H226.97" stroke="black" stroke-width="5.56089" stroke-miterlimit="10" stroke-linecap="round"/>
<path d="M178.727 230.585C181.137 242.328 191.52 251.172 203.987 251.172C216.455 251.172 226.808 242.372 229.233 230.659" stroke="black" stroke-width="5.56089" stroke-miterlimit="10" stroke-linecap="round"/>
</g>
<defs>
<clipPath id="clip0_575_48188">
<rect width="409.213" height="407.468" fill="white" transform="translate(0.482422)"/>
</clipPath>
</defs>
</svg>
