<svg width="418" height="411" viewBox="0 0 418 411" fill="none" xmlns="http://www.w3.org/2000/svg">
<g clip-path="url(#clip0_575_48088)">
<mask id="mask0_575_48088" style="mask-type:luminance" maskUnits="userSpaceOnUse" x="5" y="-1" width="409" height="409">
<path d="M209.629 407.43C322.161 407.43 413.386 316.205 413.386 203.673C413.386 91.1418 322.161 -0.0830078 209.629 -0.0830078C97.0978 -0.0830078 5.87305 91.1418 5.87305 203.673C5.87305 316.205 97.0978 407.43 209.629 407.43Z" fill="white"/>
</mask>
<g mask="url(#mask0_575_48088)">
<path d="M53.3478 -19.8574H-50.8301V14.5284H53.3478V-19.8574Z" fill="#004435"/>
<path d="M261.719 -19.8574H157.541V14.5284H261.719V-19.8574Z" fill="#004435"/>
<path d="M470.089 -19.8574H365.911V14.5284H470.089V-19.8574Z" fill="#004435"/>
<path d="M157.526 -19.8574H53.3477V14.5284H157.526V-19.8574Z" fill="#2CA65E"/>
<path d="M365.897 -19.8574H261.719V14.5284H365.897V-19.8574Z" fill="#2CA65E"/>
<path d="M53.3478 14.5283H-50.8301V48.9141H53.3478V14.5283Z" fill="#2CA65E"/>
<path d="M261.719 14.5283H157.541V48.9141H261.719V14.5283Z" fill="#2CA65E"/>
<path d="M470.089 14.5283H365.911V48.9141H470.089V14.5283Z" fill="#2CA65E"/>
<path d="M157.526 14.5283H53.3477V48.9141H157.526V14.5283Z" fill="#004435"/>
<path d="M365.897 14.5283H261.719V48.9141H365.897V14.5283Z" fill="#004435"/>
<path d="M53.3478 48.9287H-50.8301V83.3145H53.3478V48.9287Z" fill="#004435"/>
<path d="M261.719 48.9287H157.541V83.3145H261.719V48.9287Z" fill="#004435"/>
<path d="M470.089 48.9287H365.911V83.3145H470.089V48.9287Z" fill="#004435"/>
<path d="M157.526 48.9287H53.3477V83.3145H157.526V48.9287Z" fill="#2CA65E"/>
<path d="M365.897 48.9287H261.719V83.3145H365.897V48.9287Z" fill="#2CA65E"/>
<path d="M53.3478 83.3145H-50.8301V117.7H53.3478V83.3145Z" fill="#2CA65E"/>
<path d="M261.719 83.3145H157.541V117.7H261.719V83.3145Z" fill="#2CA65E"/>
<path d="M470.089 83.3145H365.911V117.7H470.089V83.3145Z" fill="#2CA65E"/>
<path d="M157.526 83.3145H53.3477V117.7H157.526V83.3145Z" fill="#004435"/>
<path d="M365.897 83.3145H261.719V117.7H365.897V83.3145Z" fill="#004435"/>
<path d="M53.3478 117.7H-50.8301V152.086H53.3478V117.7Z" fill="#004435"/>
<path d="M261.719 117.7H157.541V152.086H261.719V117.7Z" fill="#004435"/>
<path d="M470.089 117.7H365.911V152.086H470.089V117.7Z" fill="#004435"/>
<path d="M157.526 117.7H53.3477V152.086H157.526V117.7Z" fill="#2CA65E"/>
<path d="M365.897 117.7H261.719V152.086H365.897V117.7Z" fill="#2CA65E"/>
<path d="M53.3478 152.086H-50.8301V186.472H53.3478V152.086Z" fill="#2CA65E"/>
<path d="M261.719 152.086H157.541V186.472H261.719V152.086Z" fill="#2CA65E"/>
<path d="M470.089 152.086H365.911V186.472H470.089V152.086Z" fill="#2CA65E"/>
<path d="M157.526 152.086H53.3477V186.472H157.526V152.086Z" fill="#004435"/>
<path d="M365.897 152.086H261.719V186.472H365.897V152.086Z" fill="#004435"/>
<path d="M53.3478 186.487H-50.8301V220.873H53.3478V186.487Z" fill="#004435"/>
<path d="M261.719 186.487H157.541V220.873H261.719V186.487Z" fill="#004435"/>
<path d="M470.089 186.487H365.911V220.873H470.089V186.487Z" fill="#004435"/>
<path d="M157.526 186.487H53.3477V220.873H157.526V186.487Z" fill="#2CA65E"/>
<path d="M365.897 186.487H261.719V220.873H365.897V186.487Z" fill="#2CA65E"/>
<path d="M53.3478 220.873H-50.8301V255.259H53.3478V220.873Z" fill="#2CA65E"/>
<path d="M261.719 220.873H157.541V255.259H261.719V220.873Z" fill="#2CA65E"/>
<path d="M470.089 220.873H365.911V255.259H470.089V220.873Z" fill="#2CA65E"/>
<path d="M157.526 220.873H53.3477V255.259H157.526V220.873Z" fill="#004435"/>
<path d="M365.897 220.873H261.719V255.259H365.897V220.873Z" fill="#004435"/>
<path d="M53.3478 255.259H-50.8301V289.645H53.3478V255.259Z" fill="#004435"/>
<path d="M261.719 255.259H157.541V289.645H261.719V255.259Z" fill="#004435"/>
<path d="M470.089 255.259H365.911V289.645H470.089V255.259Z" fill="#004435"/>
<path d="M157.526 255.259H53.3477V289.645H157.526V255.259Z" fill="#2CA65E"/>
<path d="M365.897 255.259H261.719V289.645H365.897V255.259Z" fill="#2CA65E"/>
<path d="M53.3478 289.645H-50.8301V324.03H53.3478V289.645Z" fill="#2CA65E"/>
<path d="M261.719 289.645H157.541V324.03H261.719V289.645Z" fill="#2CA65E"/>
<path d="M470.089 289.645H365.911V324.03H470.089V289.645Z" fill="#2CA65E"/>
<path d="M157.526 289.645H53.3477V324.03H157.526V289.645Z" fill="#004435"/>
<path d="M365.897 289.645H261.719V324.03H365.897V289.645Z" fill="#004435"/>
<path d="M53.3478 324.045H-50.8301V358.431H53.3478V324.045Z" fill="#004435"/>
<path d="M261.719 324.045H157.541V358.431H261.719V324.045Z" fill="#004435"/>
<path d="M470.089 324.045H365.911V358.431H470.089V324.045Z" fill="#004435"/>
<path d="M157.526 324.045H53.3477V358.431H157.526V324.045Z" fill="#2CA65E"/>
<path d="M365.897 324.045H261.719V358.431H365.897V324.045Z" fill="#2CA65E"/>
<path d="M53.3478 358.431H-50.8301V392.816H53.3478V358.431Z" fill="#2CA65E"/>
<path d="M261.719 358.431H157.541V392.816H261.719V358.431Z" fill="#2CA65E"/>
<path d="M470.089 358.431H365.911V392.816H470.089V358.431Z" fill="#2CA65E"/>
<path d="M157.526 358.431H53.3477V392.816H157.526V358.431Z" fill="#004435"/>
<path d="M365.897 358.431H261.719V392.816H365.897V358.431Z" fill="#004435"/>
<path d="M53.3478 392.816H-50.8301V427.202H53.3478V392.816Z" fill="#004435"/>
<path d="M261.719 392.816H157.541V427.202H261.719V392.816Z" fill="#004435"/>
<path d="M470.089 392.816H365.911V427.202H470.089V392.816Z" fill="#004435"/>
<path d="M157.526 392.816H53.3477V427.202H157.526V392.816Z" fill="#2CA65E"/>
<path d="M365.897 392.816H261.719V427.202H365.897V392.816Z" fill="#2CA65E"/>
</g>
</g>
<defs>
<clipPath id="clip0_575_48088">
<rect width="417.067" height="409.672" fill="white" transform="translate(0.933594 0.478516)"/>
</clipPath>
</defs>
</svg>
