<svg width="409" height="409" viewBox="0 0 409 409" fill="none" xmlns="http://www.w3.org/2000/svg">
<g clip-path="url(#clip0_575_13217)">
<path d="M204.504 408.227C316.979 408.227 408.157 317.049 408.157 204.575C408.157 92.1003 316.979 0.921875 204.504 0.921875C92.03 0.921875 0.851562 92.1003 0.851562 204.575C0.851562 317.049 92.03 408.227 204.504 408.227Z" fill="white" stroke="black" stroke-width="0.73948" stroke-miterlimit="10"/>
<path d="M215.878 12.1172L221.35 29.0513C221.735 30.5007 222.46 31.0183 223.835 31.0922L223.805 31.743L217.224 31.3732L217.254 30.7225C218.969 30.826 219.753 30.6633 219.797 29.8499C219.797 29.6429 219.768 29.3766 219.679 29.0661L218.244 24.6144L210.436 24.1707L208.824 27.8533C208.646 28.3414 208.513 28.7259 208.498 29.0365C208.439 29.9682 209.178 30.264 210.894 30.3675L210.864 31.0183L205.215 30.6929L205.259 30.0422C206.679 30.1161 207.226 29.8203 208.158 27.4984L214.444 12.6348L215.908 12.1172H215.878ZM214.843 13.8328L210.731 23.4312L217.993 23.8453L214.843 13.8328Z" fill="black"/>
<path d="M224.751 35.6626L224.855 35.0266C226.141 35.2337 226.615 34.9083 226.777 33.8139L228.567 22.4851C228.685 21.6864 228.36 21.3019 227.162 21.1096L227.117 20.7103L230.519 20.1631L230.297 21.5237C231.155 20.873 232.279 20.4441 234.202 20.7547C237.914 21.3463 239.082 24.6591 238.579 27.8389C238.077 30.9891 235.962 33.7547 232.235 33.1631C230.312 32.8526 229.365 32.0835 228.759 31.2257L228.315 34.0653C228.138 35.1745 228.7 35.6478 229.794 35.8253L229.691 36.4612L224.736 35.6774L224.751 35.6626ZM228.922 30.2052C229.351 31.0039 229.942 31.8912 231.835 32.187C234.808 32.6603 236.42 30.2792 236.849 27.5431C237.278 24.807 236.494 21.997 233.521 21.5237C232.057 21.2871 231.066 21.5533 230.135 22.4555L228.907 30.1904L228.922 30.2052Z" fill="black"/>
<path d="M239.734 34.4196L239.882 33.7836C240.888 34.0202 241.627 33.8428 241.864 32.8666L243.698 25.1169C243.905 24.2295 243.728 23.8894 242.426 23.5936L242.397 23.1795L245.872 22.6914L245.133 25.8268C247.011 24.8655 249.377 23.5196 251.048 23.9189C251.788 24.0964 252.217 24.8359 252.084 25.4127C251.951 25.9895 251.226 26.4332 250.501 26.2705C249.673 26.0782 249.658 25.3535 249.067 25.2056C248.327 25.0282 246.464 25.9747 244.926 26.729L243.387 33.2216C243.151 34.2125 243.461 34.6266 244.763 34.9372L244.615 35.5731L239.749 34.4196H239.734Z" fill="black"/>
<path d="M251.507 37.3483L251.684 36.7272C252.823 37.0673 253.4 36.9934 253.696 35.9877L255.944 28.4006C256.136 27.7499 256.003 27.2027 254.613 26.7886L254.642 26.3892L258.207 26.2265L255.175 36.4314C254.879 37.4223 255.175 37.7624 256.476 38.147L256.299 38.7681L251.492 37.3483H251.507ZM260.307 21.3756C260.129 21.9967 259.493 22.4848 258.621 22.2334C257.719 21.9671 257.512 21.2277 257.689 20.6065C257.867 19.9853 258.458 19.4825 259.345 19.7487C260.218 20.0001 260.484 20.7692 260.292 21.3904L260.307 21.3756Z" fill="black"/>
<path d="M258.502 39.478L258.709 38.8569C259.907 39.271 260.484 38.9456 260.839 37.9103L265.335 24.7772C265.586 24.0377 265.364 23.4905 264.107 23.0616V22.677L267.701 22.6475L262.303 38.4132C261.948 39.4484 262.288 40.0844 263.516 40.4985L263.309 41.1197L258.502 39.4632V39.478Z" fill="black"/>
<path d="M265.217 41.4743L265.483 40.8827C267.243 41.6665 267.953 41.4151 268.471 40.2467L274.224 27.3206C274.653 26.3741 274.253 25.7677 272.552 25.0135L272.819 24.4219L277.093 26.3297L276.043 43.6779L288.215 31.2842L292.622 33.2513L292.356 33.8428C290.463 32.9998 289.915 33.2069 289.501 34.1386L283.748 47.0647C283.29 48.1148 283.512 48.9282 285.301 49.7121L285.035 50.3037L279.03 47.6268L279.296 47.0352C281.027 47.8042 281.811 47.4493 282.284 46.3992L288.525 32.3787L288.259 32.2604L274.8 45.9407L274.416 45.7781L275.51 26.9953L275.229 26.8622L269.136 40.5425C268.618 41.7109 268.929 42.406 270.689 43.1899L270.423 43.7815L265.232 41.4743H265.217Z" fill="black"/>
<path d="M297.28 56.6188C296.437 56.9737 295.727 57.1808 294.84 56.6779C293.834 56.0864 294.056 55.2286 294.515 54.4447C293.065 54.7701 291.616 54.7997 289.797 53.7496C287.623 52.4925 287.297 50.7621 288.14 49.3127C289.294 47.3161 292.518 47.1387 297.606 49.1352L298.523 47.538C299.306 46.1921 299.173 44.9202 297.828 44.1364C296.127 43.1455 295.18 43.2342 294.101 44.1364C293.627 44.5209 293.124 44.8315 292.562 44.5061C291.986 44.1659 291.867 43.6187 292.222 43.0124C292.873 41.8883 295.299 41.9475 298.242 43.6483C300.194 44.7871 300.874 46.5619 299.75 48.5141L296.142 54.7405C295.757 55.4208 295.506 55.9976 295.861 56.2047C296.156 56.3674 296.526 56.4709 297.192 56.2934L297.266 56.6336L297.28 56.6188ZM297.251 49.7268C294.041 48.3218 290.817 48.1 289.649 50.1114C289.057 51.1171 289.397 52.3002 290.743 53.0841C292.385 54.0306 293.435 54.1341 294.899 53.7792L297.251 49.712V49.7268Z" fill="black"/>
<path d="M297.99 58.1273L298.36 57.5949C299.218 58.1865 299.972 58.2752 300.534 57.447L305.03 50.8508C305.548 50.0966 305.489 49.712 304.394 48.9726L304.512 48.5732L307.929 49.3571L306.11 52.0192C308.21 51.7826 310.902 51.3981 312.321 52.3594C312.943 52.7883 313.09 53.6313 312.75 54.1341C312.41 54.6222 311.582 54.7849 310.961 54.356C310.251 53.8679 310.502 53.1876 309.999 52.8622C309.378 52.4333 307.293 52.6404 305.577 52.8031L301.821 58.3196C301.259 59.1626 301.377 59.6506 302.501 60.4197L302.131 60.9521L297.99 58.1273Z" fill="black"/>
<path d="M318.474 69.708C316.507 70.2996 314.421 70.6398 312.395 69.0277C309.911 67.0607 309.615 63.3485 311.715 60.7012C314.303 57.4475 318.356 57.1812 320.914 59.2222C322.393 60.4054 323.606 62.6386 322.6 63.9105C322.23 64.3838 321.668 64.4577 321.18 64.0732C320.441 63.4964 320.885 62.8457 321.032 62.1358C321.21 61.0857 321.166 60.2871 319.968 59.3405C318.356 58.0686 315.649 58.5271 313.386 61.3667C311.33 63.9549 311.138 66.7058 313.416 68.5101C314.629 69.4714 315.886 69.8116 318.326 69.2939L318.489 69.7228L318.474 69.708Z" fill="black"/>
<path d="M318.385 73.317L318.829 72.8437C319.746 73.7015 320.322 73.7459 321.003 73.0212L330.438 62.9347C331.207 62.1213 331.06 61.6332 330.202 60.8346L330.409 60.4648L333.677 61.7515L327.821 68.0075C329.255 68.0667 331.222 68.1259 332.775 69.59C334.313 71.0246 334.639 72.6071 333.027 74.3375L328.057 79.6469C327.421 80.3273 327.54 81.0076 328.412 81.821L327.969 82.2943L324.271 78.8335L324.715 78.3603C325.706 79.2772 326.283 79.2624 326.933 78.5821L331.577 73.6128C332.642 72.474 332.849 71.35 331.415 70.0189C330.083 68.7766 328.664 68.5843 327.214 68.6583L322.127 74.1009C321.446 74.8255 321.579 75.4467 322.511 76.3045L322.068 76.7778L318.37 73.317H318.385Z" fill="black"/>
<path d="M332.819 85.8727C332.257 86.4051 331.414 86.5826 330.749 85.8727C330.083 85.1628 330.305 84.3346 330.867 83.8022C331.414 83.2845 332.228 83.1218 332.908 83.8465C333.588 84.5712 333.381 85.3699 332.834 85.8875L332.819 85.8727Z" fill="black"/>
<path d="M342.596 98.8436C341.664 97.838 341.235 97.409 340.274 96.4477L341.146 95.723C340.244 95.723 338.943 95.2941 337.7 93.8004C335.349 90.9608 336.68 87.5592 339.194 85.4738C341.708 83.3885 345.258 82.5751 347.698 85.5182C349.029 87.1155 349.073 88.2839 348.985 89.3044L352.786 86.1542C353.466 85.5922 353.407 85.0745 352.371 83.8322L352.564 83.5068L355.936 85.5774L343.202 96.1224C342.344 96.8323 342.255 97.5865 343.01 98.5035L342.596 98.8584V98.8436ZM348.245 89.9107C348.541 88.7571 348.423 87.7662 347.358 86.4648C345.435 84.1428 342.477 84.971 340.303 86.7753C338.085 88.6092 336.798 91.3009 338.721 93.6081C340.067 95.2202 341.176 95.1167 341.9 95.161L348.26 89.8959L348.245 89.9107Z" fill="black"/>
<path d="M350.153 98.4149C346.441 100.988 346.5 103.71 347.92 105.75C349.073 107.407 350.641 108.22 352.726 108.353L352.682 108.827C350.641 108.856 348.644 108.383 346.973 105.972C344.917 103.014 345.657 99.5241 348.881 97.2909C351.839 95.2351 355.521 95.5161 357.562 98.4592C359.515 101.269 358.923 104.286 355.758 106.475L350.168 98.4149H350.153ZM355.388 104.671C357.962 102.689 358.361 100.707 357.03 98.7994C355.773 96.9803 353.066 96.5957 350.759 98.0007L355.388 104.671Z" fill="black"/>
<path d="M355.684 111.607C354.9 113.411 354.116 115.792 355.565 118.277C356.423 119.756 357.932 120.392 359.396 119.549C360.431 118.943 360.52 117.819 359.899 115.023C358.952 110.897 359.44 109.522 360.905 108.679C362.28 107.88 364.158 108.59 365.401 110.749C366.11 111.977 366.125 112.938 366.391 113.382C366.451 113.47 366.51 113.53 366.569 113.574L367.427 114.18L364.957 117.316L364.558 117.035C365.164 116.014 366.096 113.234 364.839 111.045C364.025 109.655 362.798 109.078 361.555 109.788C360.446 110.424 360.638 111.829 361.186 114.239C362.029 117.863 361.821 119.593 360.032 120.643C358.035 121.797 356.024 120.466 354.944 118.602C354.205 117.316 354.22 116.325 353.85 115.689C353.791 115.571 353.717 115.467 353.613 115.378L352.696 114.683L355.373 111.385L355.669 111.577L355.684 111.607Z" fill="black"/>
<path d="M358.745 124.695L359.322 124.399C359.854 125.464 360.298 125.819 361.23 125.361L368.314 121.811C368.92 121.516 369.231 121.027 368.58 119.726L368.891 119.475L371.449 121.974L361.925 126.736C360.993 127.195 360.964 127.653 361.57 128.866L360.993 129.162L358.745 124.68V124.695ZM376.419 120.199C375.842 120.495 375.043 120.362 374.644 119.549C374.23 118.705 374.614 118.055 375.206 117.759C375.798 117.463 376.552 117.552 376.966 118.38C377.38 119.194 376.995 119.903 376.419 120.184V120.199Z" fill="black"/>
<path d="M376.316 135.285C377.277 135.61 377.972 136.202 378.253 136.867C378.46 137.37 378.431 138.095 377.928 138.302C377.425 138.509 376.892 138.317 376.685 137.843C376.463 137.311 376.774 136.853 376.597 136.424C376.523 136.231 376.36 136.069 376.064 135.891C375.62 136.705 374.881 137.37 374.008 137.755C373.195 138.095 370.163 139.13 368.226 134.56C368.033 134.102 367.886 133.688 367.797 133.022C367.353 132.416 366.865 132.002 366.554 132.135C366.288 132.253 365.963 132.475 366.155 133.407C366.466 134.856 367.028 136.956 367.397 138.553C367.841 140.402 367.708 142.029 366.155 142.68C364.07 143.552 362.339 141.275 360.979 138.051C359.337 134.146 359.574 132.135 361.156 131.469C362.31 130.981 364.085 132.652 364.972 133.909C364.573 131.957 364.78 131.173 365.416 130.892C366.14 130.582 367.205 131.735 367.752 132.357C367.826 130.804 368.699 129.473 370.222 128.807C372.677 127.801 374.837 129.192 375.901 131.706C376.597 133.362 376.552 134.59 376.301 135.314L376.316 135.285ZM365.149 141.496C365.963 141.156 366.392 140.151 365.963 138.42C365.771 137.622 365.549 136.631 365.12 135.137C363.597 132.992 362.428 132.519 361.615 132.859C360.579 133.288 360.461 135.122 361.733 138.139C362.724 140.476 364.218 141.881 365.149 141.482V141.496ZM370.873 130.301C369.276 130.981 368.048 132.564 368.921 134.619C369.779 136.66 371.76 136.882 373.372 136.202C374.97 135.521 376.197 133.939 375.34 131.898C374.467 129.842 372.485 129.606 370.873 130.286V130.301Z" fill="black"/>
<path d="M367.648 144.572L368.27 144.365C368.669 145.593 369.172 145.874 370.251 145.519L377.469 143.167C378.474 142.842 378.696 142.472 378.267 141.186L378.637 140.979L380.619 143.774L378.445 144.484C379.717 145.268 381.403 146.273 382.068 148.299C382.734 150.326 381.772 151.864 379.584 152.574L373.239 154.644C372.144 154.999 371.937 155.591 372.322 156.774L371.701 156.981L370.148 152.219L370.769 152.012C371.154 153.195 371.671 153.52 372.751 153.165L379.17 151.08C380.545 150.636 381.358 149.852 380.826 148.196C380.308 146.599 379.155 145.593 377.676 144.735L370.739 146.998C369.66 147.353 369.438 147.959 369.823 149.128L369.201 149.335L367.648 144.572Z" fill="black"/>
<path d="M394.714 172.969L379.407 182.02C378.076 182.715 377.735 183.529 377.957 184.889L377.321 184.993L376.242 178.485L376.878 178.382C377.159 180.068 377.499 180.807 378.283 180.674C378.49 180.645 378.741 180.541 379.022 180.393L383.045 178.012L381.758 170.307L377.809 169.538C377.292 169.464 376.892 169.419 376.582 169.478C375.665 169.626 375.532 170.41 375.813 172.111L375.177 172.214L374.245 166.624L374.881 166.521C375.118 167.926 375.532 168.384 378.002 168.798L393.871 171.652L394.699 172.969H394.714ZM392.821 172.333L382.557 170.44L383.755 177.613L392.821 172.333Z" fill="black"/>
<path d="M373.713 186.827L374.364 186.782C374.453 188.084 374.867 188.468 375.976 188.395L387.423 187.655C388.222 187.596 388.532 187.197 388.458 185.969L388.843 185.836L390.115 189.03L388.739 189.119C389.567 189.814 390.233 190.82 390.351 192.757C390.603 196.514 387.615 198.378 384.406 198.585C381.211 198.792 378.061 197.342 377.81 193.586C377.677 191.648 378.239 190.539 378.934 189.77L376.065 189.962C374.955 190.036 374.6 190.687 374.674 191.796L374.024 191.841L373.698 186.842L373.713 186.827ZM379.969 189.696C379.274 190.288 378.549 191.057 378.668 192.979C378.86 195.982 381.537 197.032 384.302 196.854C387.083 196.677 389.641 195.286 389.434 192.284C389.331 190.805 388.858 189.903 387.778 189.193L379.954 189.711L379.969 189.696Z" fill="black"/>
<path d="M378.238 201.158H378.889C378.874 202.208 379.199 202.889 380.205 202.903L388.177 203.036C389.079 203.036 389.375 202.8 389.404 201.469L389.789 201.35L391.002 204.649L387.777 204.589C389.123 206.216 390.928 208.242 390.913 209.958C390.913 210.712 390.262 211.304 389.67 211.289C389.079 211.274 388.487 210.668 388.502 209.914C388.502 209.056 389.227 208.893 389.227 208.287C389.227 207.533 387.911 205.906 386.846 204.56L380.176 204.456C379.17 204.441 378.815 204.826 378.8 206.172H378.149L378.238 201.158Z" fill="black"/>
<path d="M377.957 213.3L378.608 213.344C378.534 214.542 378.726 215.075 379.762 215.134L387.659 215.637C388.34 215.681 388.842 215.429 388.931 213.98L389.33 213.921L390.277 217.367L379.658 216.687C378.623 216.627 378.357 216.997 378.283 218.343L377.632 218.299L377.942 213.3H377.957ZM395.483 218.313C394.832 218.269 394.211 217.766 394.27 216.864C394.329 215.932 395.01 215.563 395.646 215.607C396.296 215.651 396.917 216.11 396.858 217.042C396.799 217.944 396.119 218.373 395.483 218.328V218.313Z" fill="black"/>
<path d="M377.454 220.607L378.105 220.681C377.972 221.952 378.416 222.441 379.495 222.544L393.309 224.008C394.078 224.097 394.566 223.757 394.699 222.426L395.069 222.367L395.897 225.842L379.318 224.082C378.238 223.964 377.691 224.437 377.558 225.724L376.907 225.65L377.44 220.592L377.454 220.607Z" fill="black"/>
<path d="M376.996 227.572L377.632 227.69C377.262 229.583 377.661 230.219 378.919 230.456L392.806 233.192C393.826 233.399 394.329 232.881 394.684 231.047L395.32 231.165L394.418 235.75L377.262 238.59L392.066 247.685L391.135 252.433L390.499 252.315C390.898 250.274 390.573 249.786 389.582 249.593L375.694 246.857C374.57 246.635 373.831 247.049 373.461 248.957L372.825 248.839L374.097 242.391L374.733 242.509C374.363 244.373 374.896 245.053 376.02 245.275L391.076 248.233L391.135 247.952L374.807 237.88L374.881 237.466L393.442 234.345L393.501 234.035L378.8 231.136C377.558 230.884 376.937 231.358 376.567 233.236L375.931 233.118L377.025 227.542L376.996 227.572Z" fill="black"/>
<path d="M369.379 262.239C368.847 261.499 368.477 260.849 368.773 259.872C369.113 258.763 370 258.793 370.873 259.059C370.222 257.713 369.882 256.308 370.503 254.297C371.243 251.886 372.855 251.191 374.467 251.694C376.671 252.374 377.558 255.48 376.759 260.893L378.519 261.44C380.013 261.899 381.226 261.485 381.684 260.006C382.261 258.127 381.98 257.21 380.856 256.382C380.368 256.012 379.954 255.584 380.146 254.962C380.353 254.312 380.856 254.09 381.522 254.297C382.764 254.681 383.252 257.062 382.231 260.316C381.566 262.475 379.983 263.526 377.824 262.86L370.947 260.73C370.208 260.494 369.586 260.39 369.468 260.789C369.365 261.115 369.365 261.485 369.69 262.106L369.379 262.254V262.239ZM376.094 260.671C376.759 257.225 376.256 254.031 374.023 253.336C372.914 252.995 371.82 253.587 371.361 255.066C370.799 256.87 370.932 257.92 371.613 259.281L376.109 260.671H376.094Z" fill="black"/>
<path d="M368.078 263.244L368.684 263.481C368.3 264.442 368.374 265.196 369.32 265.566L376.745 268.48C377.588 268.805 377.957 268.672 378.431 267.444H378.845V270.979L375.842 269.811C376.538 271.807 377.528 274.351 376.892 275.934C376.611 276.629 375.813 276.969 375.266 276.747C374.718 276.525 374.378 275.756 374.644 275.061C374.955 274.262 375.68 274.351 375.902 273.789C376.183 273.094 375.502 271.097 374.97 269.471L368.758 267.03C367.812 266.661 367.353 266.897 366.865 268.154L366.259 267.918L368.093 263.259L368.078 263.244Z" fill="black"/>
<path d="M361.319 285.799C360.298 284.009 359.515 282.057 360.639 279.72C362.014 276.866 365.564 275.757 368.61 277.206C372.352 279.01 373.506 282.9 372.086 285.843C371.272 287.559 369.335 289.215 367.886 288.52C367.353 288.269 367.146 287.736 367.412 287.174C367.812 286.331 368.536 286.627 369.276 286.597C370.341 286.538 371.11 286.331 371.775 284.941C372.663 283.092 371.613 280.548 368.329 278.966C365.357 277.531 362.62 277.96 361.363 280.578C360.683 281.983 360.639 283.284 361.689 285.547L361.304 285.799H361.319Z" fill="black"/>
<path d="M357.814 286.464L358.376 286.789C357.74 287.869 357.829 288.446 358.672 288.949L370.592 295.929C371.554 296.491 371.997 296.24 372.589 295.234L373.003 295.352L372.471 298.828L365.076 294.509C365.327 295.929 365.712 297.852 364.632 299.686C363.567 301.505 362.088 302.17 360.062 300.972L353.791 297.305C352.993 296.831 352.357 297.098 351.75 298.118L351.188 297.793L353.747 293.43L354.309 293.755C353.629 294.924 353.777 295.486 354.575 295.959L360.447 299.39C361.793 300.174 362.931 300.129 363.922 298.443C364.839 296.876 364.706 295.441 364.322 294.051L357.888 290.294C357.03 289.792 356.468 290.058 355.818 291.152L355.256 290.827L357.814 286.464Z" fill="black"/>
<path d="M348.748 303.339C348.097 302.91 347.742 302.126 348.304 301.313C348.851 300.499 349.709 300.529 350.345 300.973C350.966 301.387 351.306 302.156 350.759 302.969C350.212 303.783 349.384 303.768 348.763 303.339H348.748Z" fill="black"/>
<path d="M338.262 315.732C339.046 314.594 339.371 314.091 340.081 312.937L340.983 313.632C340.776 312.745 340.909 311.384 342.107 309.846C344.355 306.933 347.964 307.48 350.552 309.476C353.14 311.473 354.708 314.741 352.386 317.773C351.114 319.415 349.99 319.726 348.969 319.859L352.874 322.876C353.569 323.408 354.072 323.245 355.048 321.959L355.418 322.077L354.146 325.819L341.057 315.732C340.17 315.052 339.43 315.126 338.691 316.073L338.262 315.747V315.732ZM348.215 319.267C349.398 319.297 350.345 318.971 351.365 317.64C353.199 315.259 351.735 312.553 349.502 310.837C347.224 309.077 344.325 308.412 342.477 310.807C341.19 312.479 341.56 313.529 341.663 314.239L348.2 319.282L348.215 319.267Z" fill="black"/>
<path d="M340.348 323.024C337.02 319.977 334.373 320.628 332.701 322.462C331.341 323.956 330.897 325.671 331.222 327.727L330.749 327.786C330.276 325.804 330.291 323.749 332.273 321.575C334.713 318.912 338.277 318.868 341.161 321.515C343.823 323.956 344.356 327.609 341.93 330.256C339.608 332.785 336.547 332.859 333.707 330.256L340.333 323.009L340.348 323.024ZM335.393 329.517C337.893 331.587 339.919 331.543 341.486 329.812C342.98 328.185 342.758 325.449 340.88 323.512L335.393 329.502V329.517Z" fill="black"/>
<path d="M328.722 331.321C326.785 330.951 324.3 330.715 322.185 332.682C320.928 333.85 320.647 335.462 321.801 336.69C322.614 337.562 323.738 337.4 326.326 336.172C330.142 334.323 331.591 334.516 332.73 335.743C333.81 336.912 333.529 338.893 331.71 340.594C330.66 341.57 329.743 341.792 329.358 342.147C329.284 342.221 329.24 342.295 329.21 342.369L328.811 343.345L325.202 341.629L325.38 341.171C326.504 341.541 329.432 341.837 331.281 340.121C332.464 339.027 332.745 337.695 331.769 336.645C330.911 335.714 329.58 336.202 327.362 337.267C324.019 338.893 322.274 339.086 320.869 337.562C319.301 335.862 320.144 333.628 321.727 332.149C322.806 331.144 323.797 330.937 324.33 330.449C324.418 330.36 324.522 330.271 324.581 330.138L325.054 329.088L328.855 330.966L328.737 331.292L328.722 331.321Z" fill="black"/>
<path d="M316.595 337.237L317.01 337.74C316.093 338.494 315.826 339.012 316.492 339.811L321.52 345.934C321.949 346.451 322.482 346.658 323.606 345.727L323.916 345.978L322.053 349.025L315.294 340.802C314.628 340.003 314.185 340.062 313.149 340.92L312.735 340.417L316.61 337.237H316.595ZM324.892 353.476C324.478 352.973 324.434 352.175 325.129 351.598C325.854 351.006 326.578 351.243 326.993 351.746C327.407 352.249 327.495 353.018 326.771 353.609C326.076 354.186 325.292 353.979 324.878 353.476H324.892Z" fill="black"/>
<path d="M310.206 356.685C310.103 357.69 309.689 358.504 309.097 358.918C308.654 359.243 307.944 359.362 307.633 358.918C307.308 358.474 307.382 357.912 307.811 357.602C308.269 357.262 308.801 357.469 309.171 357.188C309.334 357.069 309.467 356.877 309.571 356.552C308.683 356.3 307.855 355.738 307.293 354.954C306.775 354.244 305.104 351.508 309.112 348.61C309.511 348.314 309.881 348.077 310.517 347.855C311.005 347.279 311.301 346.717 311.094 346.45C310.931 346.214 310.635 345.948 309.778 346.347C308.432 346.968 306.509 347.988 305.045 348.698C303.344 349.541 301.732 349.778 300.741 348.417C299.425 346.583 301.259 344.395 304.098 342.339C307.53 339.869 309.556 339.647 310.561 341.037C311.286 342.043 310.059 344.158 309.038 345.312C310.842 344.483 311.656 344.513 312.07 345.075C312.528 345.711 311.641 347.012 311.168 347.678C312.706 347.412 314.185 347.959 315.176 349.29C316.699 351.449 315.827 353.875 313.623 355.472C312.173 356.522 310.961 356.759 310.192 356.67L310.206 356.685ZM301.658 347.19C302.176 347.9 303.241 348.092 304.838 347.293C305.563 346.924 306.494 346.48 307.84 345.74C309.585 343.773 309.792 342.546 309.275 341.821C308.624 340.919 306.805 341.2 304.158 343.108C302.087 344.602 301.066 346.362 301.658 347.19ZM313.845 350.281C312.824 348.876 311.005 348.033 309.201 349.349C307.411 350.636 307.633 352.632 308.639 354.037C309.659 355.442 311.478 356.285 313.268 354.984C315.072 353.682 314.865 351.686 313.845 350.281Z" fill="black"/>
<path d="M299.173 350.326L299.513 350.888C298.404 351.554 298.242 352.101 298.833 353.077L302.723 359.584C303.27 360.501 303.669 360.62 304.838 359.925L305.119 360.235L302.826 362.779L301.658 360.812C301.17 362.217 300.563 364.095 298.744 365.19C296.91 366.284 295.21 365.707 294.026 363.726L290.595 358.002C290.004 357.026 289.383 356.937 288.318 357.588L287.978 357.026L292.281 354.452L292.621 355.014C291.557 355.65 291.35 356.227 291.941 357.203L295.402 363.001C296.141 364.243 297.088 364.864 298.582 363.977C300.031 363.104 300.741 361.773 301.244 360.146L297.502 353.89C296.91 352.914 296.274 352.84 295.224 353.476L294.884 352.914L299.188 350.341L299.173 350.326Z" fill="black"/>
<path d="M277.551 383.04L265.306 370.143C264.33 369.004 263.457 368.857 262.185 369.374L261.934 368.768L268.027 366.254L268.278 366.86C266.696 367.511 266.06 367.999 266.356 368.738C266.43 368.931 266.578 369.152 266.799 369.404L270.024 372.791L277.256 369.818L277.123 365.81C277.078 365.292 277.034 364.893 276.915 364.612C276.561 363.754 275.762 363.799 274.179 364.449L273.928 363.843L279.163 361.684L279.415 362.29C278.099 362.837 277.744 363.34 277.892 365.839L278.661 381.945L277.566 383.04H277.551ZM277.744 381.058L277.3 370.631L270.571 373.397L277.744 381.058Z" fill="black"/>
<path d="M259.405 365.647L259.597 366.269C258.355 366.638 258.059 367.126 258.384 368.206L261.653 379.21C261.889 379.979 262.348 380.2 263.516 379.845L263.723 380.186L260.884 382.138L260.484 380.822C259.981 381.783 259.153 382.656 257.29 383.203C253.681 384.282 251.211 381.783 250.294 378.707C249.377 375.645 250.102 372.229 253.711 371.164C255.574 370.602 256.772 370.898 257.689 371.415L256.861 368.65C256.55 367.585 255.84 367.378 254.761 367.703L254.583 367.082L259.39 365.647H259.405ZM258 372.377C257.275 371.83 256.343 371.297 254.509 371.844C251.625 372.702 251.196 375.542 251.98 378.204C252.779 380.866 254.702 383.055 257.585 382.197C259.005 381.768 259.789 381.117 260.233 379.89L258 372.377Z" fill="black"/>
<path d="M246.36 373.234L246.493 373.87C245.473 374.092 244.896 374.565 245.103 375.556L246.789 383.35C246.981 384.238 247.292 384.46 248.593 384.179L248.8 384.534L245.872 386.471L245.192 383.321C243.905 385.007 242.337 387.225 240.666 387.595C239.926 387.758 239.217 387.27 239.083 386.693C238.965 386.116 239.409 385.391 240.148 385.243C240.991 385.066 241.317 385.717 241.893 385.584C242.633 385.421 243.92 383.765 244.985 382.419L243.579 375.896C243.372 374.906 242.914 374.654 241.598 374.95L241.465 374.314L246.36 373.264V373.234Z" fill="black"/>
<path d="M234.542 375.66L234.646 376.296C233.463 376.488 232.99 376.799 233.152 377.819L234.395 385.643C234.498 386.309 234.853 386.752 236.302 386.531L236.435 386.9L233.285 388.586L231.614 378.071C231.451 377.05 231.022 376.873 229.691 377.095L229.588 376.459L234.542 375.675V375.66ZM233.492 393.851C233.389 393.215 233.744 392.491 234.646 392.358C235.563 392.21 236.081 392.787 236.184 393.422C236.288 394.058 235.977 394.768 235.06 394.916C234.158 395.064 233.596 394.487 233.492 393.851Z" fill="black"/>
<path d="M227.267 376.77L227.341 377.42C226.084 377.568 225.699 378.115 225.817 379.195L227.429 392.994C227.518 393.763 227.962 394.162 229.278 394.014L229.426 394.369L226.217 395.952L224.294 379.387C224.176 378.308 223.599 377.879 222.312 378.027L222.238 377.376L227.296 376.784L227.267 376.77Z" fill="black"/>
<path d="M220.36 377.849V378.499C218.452 378.559 217.935 379.091 217.964 380.363L218.364 394.502C218.393 395.537 218.999 395.907 220.863 395.862V396.513L216.204 396.646L209.638 380.555L204.032 397.001L199.211 397.134V396.484C201.267 396.424 201.666 395.995 201.636 394.99L201.237 380.851C201.208 379.712 200.646 379.076 198.693 379.135V378.485L205.245 378.292V378.943C203.367 379.002 202.82 379.668 202.849 380.807L203.293 396.143H203.574L209.786 377.982H210.2L217.343 395.374H217.654L217.225 380.392C217.18 379.121 216.604 378.618 214.681 378.677V378.026L220.345 377.863L220.36 377.849Z" fill="black"/>
<path d="M184.864 378.101C185.471 377.42 186.018 376.918 187.038 376.992C188.207 377.08 188.37 377.953 188.296 378.855C189.464 377.923 190.765 377.273 192.851 377.435C195.365 377.628 196.4 379.033 196.267 380.719C196.09 383.026 193.265 384.579 187.822 384.993L187.674 386.827C187.556 388.38 188.222 389.474 189.775 389.592C191.742 389.74 192.555 389.267 193.132 387.98C193.383 387.433 193.709 386.93 194.359 386.975C195.04 387.034 195.365 387.463 195.306 388.173C195.202 389.474 192.999 390.465 189.597 390.213C187.349 390.036 185.959 388.735 186.136 386.487L186.684 379.314C186.743 378.545 186.713 377.909 186.299 377.879C185.959 377.849 185.589 377.923 185.057 378.382L184.85 378.101H184.864ZM187.881 384.298C191.387 384.179 194.389 382.981 194.566 380.645C194.655 379.476 193.842 378.559 192.289 378.441C190.396 378.293 189.405 378.663 188.236 379.609L187.881 384.298Z" fill="black"/>
<path d="M183.593 377.05L183.49 377.686C182.469 377.538 181.744 377.76 181.597 378.766L180.413 386.648C180.28 387.551 180.487 387.876 181.804 388.068L181.878 388.468L178.446 389.237L178.92 386.057C177.13 387.181 174.867 388.704 173.181 388.453C172.442 388.334 171.939 387.639 172.028 387.048C172.116 386.456 172.797 385.953 173.536 386.072C174.379 386.205 174.453 386.915 175.045 387.003C175.784 387.122 177.589 386.013 179.053 385.14L180.044 378.544C180.192 377.538 179.866 377.154 178.52 376.946L178.624 376.311L183.578 377.05H183.593Z" fill="black"/>
<path d="M160.106 375.513C161.615 374.122 163.36 372.924 165.889 373.487C168.98 374.182 170.858 377.406 170.119 380.704C169.202 384.756 165.667 386.753 162.473 386.028C160.624 385.614 158.568 384.105 158.923 382.538C159.056 381.961 159.529 381.636 160.136 381.769C161.053 381.976 160.92 382.745 161.112 383.455C161.408 384.475 161.792 385.185 163.286 385.51C165.283 385.969 167.531 384.372 168.344 380.822C169.069 377.613 168.063 375.039 165.223 374.389C163.7 374.049 162.428 374.285 160.461 375.808L160.136 375.498L160.106 375.513Z" fill="black"/>
<path d="M158.643 372.244L158.451 372.865C157.268 372.495 156.706 372.702 156.41 373.634L152.269 386.812C151.929 387.876 152.269 388.261 153.393 388.601L153.363 389.03L149.858 389.281L152.432 381.103C151.115 381.665 149.311 382.463 147.27 381.827C145.259 381.191 144.282 379.905 144.992 377.657L147.166 370.72C147.447 369.833 147.048 369.271 145.909 368.916L146.102 368.295L150.938 369.818L150.746 370.439C149.459 370.04 148.941 370.306 148.66 371.194L146.619 377.686C146.146 379.165 146.457 380.274 148.32 380.866C150.05 381.413 151.411 380.97 152.698 380.275L154.931 373.161C155.227 372.214 154.842 371.711 153.63 371.342L153.822 370.72L158.658 372.244H158.643Z" fill="black"/>
<path d="M140.215 367.171C140.496 366.446 141.177 365.929 142.093 366.284C143.01 366.639 143.158 367.482 142.877 368.206C142.611 368.901 141.946 369.404 141.029 369.049C140.112 368.694 139.949 367.881 140.215 367.186V367.171Z" fill="black"/>
<path d="M125.779 359.673C127.066 360.176 127.628 360.383 128.899 360.827L128.426 361.862C129.24 361.463 130.6 361.3 132.375 362.113C135.717 363.666 135.984 367.304 134.608 370.262C133.233 373.22 130.393 375.483 126.918 373.886C125.039 373.013 124.477 371.993 124.122 371.017L122.052 375.498C121.682 376.297 121.963 376.74 123.427 377.421L123.398 377.805L119.479 377.391L126.415 362.379C126.888 361.359 126.637 360.649 125.557 360.146L125.794 359.658L125.779 359.673ZM124.537 370.159C124.773 371.327 125.291 372.17 126.829 372.88C129.565 374.137 131.872 372.126 133.055 369.552C134.268 366.935 134.268 363.962 131.532 362.705C129.624 361.817 128.663 362.409 127.997 362.675L124.537 370.174V370.159Z" fill="black"/>
<path d="M119.154 363.34C121.387 359.406 120.175 356.981 118.015 355.753C116.255 354.748 114.495 354.703 112.543 355.472L112.38 355.029C114.214 354.126 116.226 353.683 118.77 355.147C121.905 356.937 122.748 360.397 120.796 363.814C119.006 366.949 115.56 368.28 112.454 366.505C109.482 364.805 108.713 361.832 110.62 358.489L119.154 363.355V363.34ZM111.73 359.954C110.251 362.852 110.754 364.805 112.78 365.973C114.702 367.067 117.32 366.254 118.784 363.991L111.715 359.968L111.73 359.954Z" fill="black"/>
<path d="M108.461 353.816C108.387 351.849 108.077 349.365 105.696 347.738C104.276 346.762 102.649 346.85 101.703 348.241C101.022 349.232 101.436 350.282 103.196 352.53C105.829 355.843 105.977 357.292 105.015 358.682C104.128 359.984 102.117 360.161 100.061 358.756C98.8778 357.943 98.4636 357.1 98.0347 356.804C97.946 356.745 97.8721 356.73 97.7981 356.7L96.748 356.523L97.6206 352.618L98.1087 352.692C97.9904 353.875 98.3601 356.789 100.431 358.209C101.762 359.126 103.122 359.111 103.921 357.928C104.646 356.878 103.877 355.695 102.339 353.757C100.017 350.844 99.4545 349.202 100.623 347.486C101.924 345.579 104.306 345.919 106.08 347.131C107.308 347.974 107.707 348.877 108.314 349.291C108.417 349.365 108.521 349.439 108.668 349.468L109.792 349.705L108.787 353.831L108.447 353.787L108.461 353.816Z" fill="black"/>
<path d="M86.0405 355.014C86.4398 354.496 87.2089 354.274 87.9188 354.836C88.6582 355.413 88.5843 356.182 88.185 356.685C87.7857 357.203 87.061 357.454 86.3215 356.877C85.5968 356.315 85.6264 355.517 86.0257 355.014H86.0405ZM100.046 343.33L99.6469 343.848C98.7004 343.108 98.1532 342.975 97.5172 343.803L92.6514 350.059C92.2373 350.592 92.1634 351.154 93.3022 352.056L93.1247 352.411L89.7379 351.257L96.2749 342.842C96.9108 342.014 96.7482 341.6 95.6833 340.772L96.0826 340.254L100.046 343.33Z" fill="black"/>
<path d="M79.6358 341.363C78.6301 341.482 77.7575 341.26 77.2103 340.772C76.7962 340.417 76.5152 339.751 76.885 339.337C77.2547 338.923 77.8167 338.879 78.2012 339.219C78.6301 339.603 78.5562 340.15 78.8963 340.461C79.059 340.594 79.2661 340.683 79.6062 340.712C79.6654 339.796 80.0203 338.864 80.6563 338.139C81.2479 337.474 83.5255 335.24 87.2525 338.524C87.6222 338.849 87.9328 339.16 88.3025 339.722C88.9681 340.062 89.5892 340.224 89.8111 339.973C90.0033 339.766 90.1956 339.411 89.6188 338.657C88.7166 337.474 87.2968 335.832 86.2763 334.56C85.0784 333.096 84.4868 331.558 85.6108 330.301C87.1046 328.615 89.6484 329.916 92.2809 332.238C95.4459 335.033 96.0966 336.971 94.9726 338.257C94.1444 339.189 91.8224 338.45 90.4766 337.71C91.6745 339.293 91.8372 340.091 91.3788 340.609C90.8611 341.186 89.397 340.609 88.6427 340.298C89.2491 341.733 89.0272 343.315 87.9476 344.573C86.1728 346.54 83.6142 346.214 81.5733 344.41C80.2274 343.227 79.7393 342.088 79.6506 341.334L79.6358 341.363ZM86.6905 343.508C87.844 342.206 88.2582 340.254 86.5869 338.775C84.9305 337.311 83.0374 337.962 81.8838 339.263C80.7303 340.565 80.3161 342.517 81.9726 343.981C83.6438 345.46 85.5369 344.809 86.6905 343.508ZM87.0158 330.937C86.4242 331.602 86.4834 332.682 87.6074 334.057C88.125 334.693 88.761 335.492 89.7963 336.645C92.1034 337.917 93.3458 337.843 93.9374 337.178C94.6768 336.335 93.9965 334.634 91.5562 332.475C89.6484 330.789 87.6962 330.168 87.0306 330.937H87.0158Z" fill="black"/>
<path d="M83.4079 329.207L82.9347 329.65C82.0325 328.718 81.4705 328.674 80.6423 329.473L75.1553 334.708C74.3863 335.448 74.3567 335.862 75.2884 336.838L75.037 337.178L72.0495 335.507L73.706 333.924C72.227 333.762 70.26 333.584 68.7958 332.046C67.3169 330.508 67.5091 328.704 69.1803 327.121L74.0017 322.507C74.83 321.723 74.7708 321.087 73.913 320.185L74.3863 319.741L77.847 323.365L77.3738 323.808C76.516 322.906 75.9096 322.832 75.0814 323.631L70.2008 328.29C69.1508 329.295 68.7514 330.345 69.9642 331.602C71.1326 332.83 72.5967 333.229 74.2975 333.348L79.5774 328.304C80.4056 327.521 80.3317 326.87 79.4887 325.982L79.962 325.539L83.4227 329.162L83.4079 329.207Z" fill="black"/>
<path d="M46.7305 315.378L56.5951 300.573C57.4973 299.375 57.4381 298.488 56.6543 297.364L57.1867 296.994L60.9876 302.378L60.4552 302.747C59.4643 301.342 58.8431 300.825 58.1924 301.298C58.0297 301.416 57.8375 301.608 57.6452 301.875L55.057 305.764L59.553 312.153L63.4427 311.133C63.9308 310.97 64.3153 310.837 64.5667 310.66C65.3358 310.127 65.1139 309.358 64.123 307.953L64.6555 307.583L67.924 312.213L67.3915 312.582C66.5633 311.414 65.9865 311.192 63.6054 311.887L48.0763 316.206L46.76 315.378H46.7305ZM48.7123 315.126L58.784 312.375L54.5985 306.43L48.7123 315.126Z" fill="black"/>
<path d="M59.6398 293.8L59.0778 294.125C58.4419 293.001 57.8947 292.824 56.9186 293.371L46.9208 299.021C46.2257 299.42 46.1221 299.923 46.7137 300.988L46.4179 301.269L43.8889 298.947L45.0869 298.267C44.0368 298 43.0015 297.379 42.055 295.693C40.2063 292.41 42.0698 289.452 44.8798 287.869C47.6603 286.302 51.1506 286.243 52.9993 289.511C53.9606 291.212 53.9311 292.439 53.6353 293.445L56.1495 292.025C57.1256 291.478 57.1552 290.739 56.608 289.777L57.17 289.452L59.6398 293.815V293.8ZM52.7627 293.933C53.1324 293.105 53.443 292.085 52.5113 290.413C51.0323 287.796 48.1631 288.003 45.7524 289.378C43.3417 290.753 41.6261 293.105 43.1051 295.738C43.8298 297.024 44.658 297.631 45.9447 297.808L52.7775 293.948L52.7627 293.933Z" fill="black"/>
<path d="M49.3471 282.796L48.7555 283.077C48.3119 282.131 47.7203 281.672 46.8033 282.101L39.586 285.488C38.7578 285.872 38.6099 286.227 39.1719 287.425L38.8761 287.706L36.3323 285.281L39.2458 283.92C37.3232 283.048 34.7942 282.012 34.0695 280.459C33.7441 279.779 34.0695 278.966 34.6019 278.714C35.1491 278.463 35.933 278.744 36.2583 279.424C36.6281 280.193 36.0661 280.667 36.3175 281.199C36.6429 281.879 38.5359 282.767 40.0888 283.506L46.1378 280.681C47.0547 280.252 47.1878 279.75 46.6258 278.537L47.2174 278.256L49.3471 282.796Z" fill="black"/>
<path d="M26.3642 274.855C26.9705 274.618 27.7396 274.81 28.0798 275.653C28.4347 276.526 27.9762 277.147 27.3847 277.384C26.7783 277.62 26.024 277.487 25.6691 276.614C25.3289 275.771 25.7578 275.091 26.3642 274.855ZM44.3335 271.808L43.7272 272.045C43.2835 270.935 42.8694 270.536 41.908 270.935L34.5576 273.893C33.9364 274.145 33.5815 274.588 34.1287 275.949L33.8033 276.171L31.4518 273.479L41.3165 269.501C42.2778 269.116 42.3517 268.658 41.8489 267.415L42.4552 267.179L44.3335 271.823V271.808Z" fill="black"/>
<path d="M41.6413 264.99L41.035 265.212C40.6061 264.014 39.9997 263.763 38.9644 264.132L25.8756 268.761C25.1361 269.028 24.8551 269.53 25.2988 270.788L24.9883 271.009L22.7402 268.229L38.4468 262.668C39.4821 262.298 39.7631 261.648 39.3342 260.42L39.9405 260.198L41.6413 264.99Z" fill="black"/>
<path d="M39.0238 258.482L38.3879 258.645C37.9146 256.782 37.2639 256.382 36.0363 256.708L22.3412 260.242C21.3355 260.494 21.1136 261.174 21.5721 262.993L20.9509 263.156L19.7826 258.63L34.0249 248.662L16.7507 246.843L15.5527 242.169L16.1739 242.007C16.6915 244.018 17.1944 244.314 18.1853 244.063L31.8804 240.528C32.9897 240.247 33.4777 239.552 32.9897 237.673L33.6108 237.511L35.2525 243.87L34.6313 244.033C34.158 242.199 33.389 241.815 32.2798 242.096L17.4162 245.926L17.4902 246.207L36.5687 248.233L36.6723 248.633L21.2911 259.458L21.365 259.754L35.8736 256.013C37.1012 255.702 37.4709 255.007 36.9829 253.158L37.6188 252.995L39.0386 258.497L39.0238 258.482Z" fill="black"/>
<path d="M30.9644 223.934C31.7631 224.363 32.3695 224.806 32.5174 225.797C32.68 226.951 31.8666 227.306 30.9792 227.439C32.1328 228.371 33.0646 229.495 33.3604 231.58C33.7301 234.065 32.5765 235.396 30.9053 235.632C28.6277 235.972 26.4832 233.547 24.8859 228.326L23.0668 228.592C21.5287 228.814 20.6117 229.716 20.8336 231.255C21.1146 233.207 21.7653 233.902 23.1408 234.168C23.7323 234.286 24.2943 234.494 24.3831 235.144C24.4866 235.81 24.1169 236.239 23.4218 236.327C22.1351 236.52 20.6709 234.582 20.1828 231.21C19.8575 228.977 20.8188 227.335 23.052 227.01L30.1658 225.975C30.9349 225.856 31.5412 225.694 31.4821 225.28C31.4377 224.939 31.275 224.599 30.713 224.185L30.9349 223.919L30.9644 223.934ZM25.581 228.238C26.4684 231.624 28.3023 234.286 30.6095 233.961C31.7631 233.798 32.4878 232.793 32.2659 231.255C31.9997 229.376 31.4229 228.489 30.2398 227.557L25.5958 228.238H25.581Z" fill="black"/>
<path d="M31.6879 222.455L31.0371 222.5C30.9632 221.464 30.5787 220.814 29.573 220.888L21.631 221.464C20.7288 221.523 20.4626 221.805 20.5513 223.136L20.1668 223.298L18.6583 220.133L21.8676 219.897C20.3738 218.388 18.392 216.525 18.2737 214.824C18.2146 214.07 18.7914 213.434 19.3977 213.389C20.0041 213.345 20.6253 213.892 20.6844 214.646C20.7436 215.504 20.0633 215.726 20.1076 216.332C20.1668 217.087 21.631 218.595 22.8141 219.837L29.4694 219.349C30.4751 219.275 30.7857 218.861 30.697 217.516L31.3477 217.471L31.7027 222.47L31.6879 222.455Z" fill="black"/>
<path d="M27.9317 199.324C29.6325 200.463 31.215 201.868 31.2594 204.456C31.3185 207.621 28.6268 210.21 25.2548 210.269C21.0989 210.343 18.3332 207.37 18.2741 204.101C18.2445 202.208 19.2206 199.857 20.8179 199.827C21.4095 199.827 21.8384 200.197 21.8532 200.818C21.8532 201.75 21.0841 201.809 20.4482 202.164C19.5164 202.696 18.9396 203.229 18.9544 204.752C18.984 206.808 21.0693 208.612 24.7076 208.553C28.0056 208.494 30.2685 206.897 30.2093 203.998C30.1797 202.445 29.6473 201.262 27.6951 199.709L27.9169 199.31L27.9317 199.324Z" fill="black"/>
<path d="M30.905 197.061L30.2542 197.002C30.3578 195.76 30.0324 195.272 29.0415 195.183L15.2724 194.074C14.1632 193.985 13.8674 194.399 13.7786 195.568L13.3497 195.642L12.3145 192.269L20.8628 192.95C20.0198 191.781 18.8367 190.214 19.0141 188.084C19.1768 185.984 20.2269 184.742 22.5784 184.934L29.8253 185.511C30.7571 185.585 31.2156 185.082 31.3043 183.884L31.955 183.928L31.5557 188.971L30.905 188.912C31.0085 187.566 30.6388 187.123 29.6922 187.049L22.9186 186.502C21.3657 186.383 20.36 186.916 20.1973 188.868C20.0494 190.687 20.7889 191.915 21.7354 193.009L29.1598 193.601C30.1507 193.675 30.55 193.186 30.6535 191.929L31.3043 191.988L30.905 197.032V197.061Z" fill="black"/>
<path d="M31.7335 177.953C32.5026 178.071 33.1533 178.603 33.0202 179.579C32.8723 180.556 32.1032 180.881 31.3194 180.777C30.5799 180.674 29.944 180.127 30.0919 179.15C30.2397 178.174 30.994 177.834 31.7335 177.938V177.953Z" fill="black"/>
<path d="M35.7995 162.232C35.5925 163.592 35.5185 164.184 35.3706 165.545L34.2466 165.308C34.8086 166.018 35.2819 167.305 34.8826 169.213C34.1283 172.821 30.6379 173.886 27.4286 173.221C24.2193 172.54 21.3945 170.277 22.1783 166.536C22.6072 164.509 23.4798 163.726 24.3524 163.164L19.531 162.143C18.6732 161.966 18.3034 162.335 17.9633 163.903L17.5787 163.962L17.1055 160.043L33.2853 163.445C34.3797 163.681 35.0157 163.282 35.2671 162.114L35.7995 162.232ZM25.2989 163.356C24.2193 163.844 23.5094 164.539 23.1544 166.195C22.5333 169.139 25.0179 170.943 27.7983 171.52C30.6232 172.111 33.5219 171.446 34.1431 168.503C34.572 166.447 33.7881 165.648 33.3888 165.057L25.3137 163.356H25.2989Z" fill="black"/>
<path d="M30.7706 156.538C35.0891 157.839 37.1892 156.124 37.9139 153.728C38.5055 151.791 38.1506 150.06 36.9674 148.345L37.3667 148.093C38.6534 149.676 39.526 151.539 38.6682 154.349C37.6181 157.81 34.4384 159.392 30.6818 158.254C27.2359 157.204 25.1653 154.142 26.2154 150.711C27.2063 147.428 29.9276 146.037 33.6102 147.147L30.7706 156.538ZM32.427 148.552C29.2768 147.768 27.4725 148.685 26.807 150.918C26.171 153.033 27.5464 155.399 30.0755 156.331L32.427 148.552Z" fill="black"/>
<path d="M37.6479 144.07C39.5557 143.567 41.8925 142.709 42.9573 140.018C43.5785 138.42 43.1496 136.853 41.5819 136.231C40.4727 135.788 39.5261 136.424 37.7218 138.642C35.0745 141.955 33.699 142.414 32.1314 141.792C30.6524 141.216 30.046 139.293 30.963 136.986C31.4806 135.655 32.2201 135.063 32.4124 134.575C32.4567 134.486 32.4567 134.398 32.4567 134.309L32.3976 133.259H36.3908L36.4203 133.732C35.252 133.88 32.4715 134.886 31.5546 137.222C30.963 138.716 31.2736 140.047 32.6046 140.565C33.7878 141.038 34.7639 140.018 36.3168 138.095C38.6388 135.181 40.1177 134.264 42.0552 135.019C44.1997 135.862 44.4067 138.258 43.6081 140.269C43.0609 141.644 42.2622 142.251 41.996 142.931C41.9516 143.049 41.9073 143.168 41.9073 143.316V144.469L37.6774 144.41L37.6479 144.07Z" fill="black"/>
<path d="M31.5411 122.403C32.1327 122.684 32.5172 123.379 32.1327 124.192C31.7334 125.035 30.9791 125.139 30.3875 124.873C29.796 124.592 29.3818 123.941 29.7812 123.098C30.1657 122.27 30.9495 122.122 31.5411 122.403ZM46.0201 133.465L45.4286 133.184C45.9314 132.105 45.9462 131.528 44.9997 131.099L37.8267 127.742C37.2203 127.461 36.6435 127.505 36.0372 128.821L35.6526 128.733L36.0224 125.183L45.6652 129.694C46.6117 130.138 46.9815 129.872 47.5583 128.659L48.1498 128.94L46.0349 133.48L46.0201 133.465Z" fill="black"/>
<path d="M43.4164 113.16C43.0762 112.213 43.1058 111.296 43.446 110.66C43.7122 110.187 44.289 109.758 44.777 110.024C45.2651 110.29 45.4278 110.823 45.1763 111.281C44.8953 111.784 44.3481 111.829 44.1263 112.243C44.0228 112.42 43.9932 112.642 44.0375 112.997C44.9545 112.849 45.9306 112.997 46.7736 113.455C47.5427 113.884 50.2344 115.615 47.8533 119.963C47.6166 120.392 47.38 120.776 46.9067 121.249C46.7145 121.974 46.6997 122.61 46.9955 122.773C47.2469 122.906 47.6314 123.024 48.2378 122.3C49.1843 121.161 50.471 119.401 51.4915 118.129C52.6599 116.635 54.0205 115.718 55.4995 116.532C57.4813 117.611 56.7566 120.392 55.0854 123.468C53.0592 127.18 51.314 128.245 49.8203 127.417C48.7258 126.825 48.9329 124.385 49.3618 122.906C48.0899 124.429 47.3356 124.755 46.7292 124.429C46.0489 124.06 46.2856 122.492 46.4187 121.693C45.1468 122.595 43.5643 122.743 42.1001 121.959C39.7929 120.673 39.5415 118.099 40.843 115.718C41.7008 114.15 42.6917 113.411 43.4164 113.16ZM42.884 120.51C44.4073 121.338 46.4039 121.309 47.4835 119.356C48.5484 117.419 47.4835 115.718 45.9602 114.89C44.4369 114.062 42.4403 114.091 41.3754 116.029C40.3106 117.981 41.3606 119.682 42.884 120.525V120.51ZM55.2037 118.055C54.4346 117.626 53.3846 117.922 52.2901 119.327C51.7873 119.963 51.1513 120.776 50.2492 122.033C49.5097 124.562 49.8646 125.76 50.6485 126.189C51.6246 126.722 53.1479 125.686 54.7156 122.817C55.9432 120.584 56.1059 118.543 55.2185 118.055H55.2037Z" fill="black"/>
<path d="M56.0909 114.15L55.5437 113.795C56.2684 112.716 56.1649 112.154 55.2183 111.518L48.9032 107.332C48.0158 106.741 47.6017 106.815 46.8474 107.939L46.4629 107.776L47.4242 104.493L49.3321 105.75C49.1694 104.271 48.9032 102.319 50.0715 100.544C51.2547 98.7691 53.0443 98.5621 54.9669 99.834L60.5278 103.517C61.4743 104.153 62.0807 103.945 62.761 102.91L63.3082 103.265L60.5426 107.436L59.9954 107.081C60.6905 106.046 60.6165 105.439 59.67 104.803L54.05 101.076C52.8372 100.278 51.728 100.13 50.7667 101.579C49.8349 102.984 49.761 104.493 50.0124 106.193L56.0909 110.231C57.0374 110.867 57.6586 110.645 58.3241 109.625L58.8714 109.98L56.1057 114.15H56.0909Z" fill="black"/>
<path d="M61.4903 75.3283L78.099 81.673C79.4744 82.2794 80.3174 82.0427 81.2492 81.0075L81.7372 81.4364L77.3299 86.3317L76.8419 85.9028C77.9955 84.6309 78.3504 83.9062 77.7588 83.3738C77.6109 83.2407 77.3743 83.1076 77.0785 82.9745L72.7156 81.3033L67.4801 87.1008L69.3288 90.6651C69.595 91.1088 69.8168 91.4489 70.0387 91.656C70.7338 92.2771 71.4289 91.8926 72.5677 90.6207L73.0558 91.0496L69.2696 95.2499L68.7816 94.821C69.7429 93.7561 69.8316 93.1497 68.6189 90.9757L60.9727 76.7776L61.4903 75.3135V75.3283ZM62.1706 77.2065L67.0808 86.4205L71.9465 81.0223L62.1706 77.2065Z" fill="black"/>
<path d="M85.3747 83.1514L84.9458 82.6634C85.9072 81.7908 85.9515 81.2288 85.1973 80.4006L77.4771 71.8965C76.9299 71.305 76.427 71.3197 75.5101 72.1332L75.1699 71.9113L76.8707 68.9238L77.8025 69.9443C77.832 68.8647 78.2018 67.7259 79.6512 66.4096C82.4316 63.8806 85.7445 65.049 87.9186 67.4301C90.063 69.7964 90.8913 73.1832 88.1108 75.7123C86.6762 77.0285 85.4635 77.28 84.4134 77.206L86.3509 79.3357C87.1051 80.1639 87.8298 80.0308 88.658 79.2765L89.0869 79.7498L85.3747 83.1218V83.1514ZM83.7331 76.4665C84.6205 76.644 85.6853 76.7179 87.1051 75.4313C89.3384 73.4051 88.4953 70.669 86.6171 68.5985C84.7536 66.5427 82.0619 65.4039 79.8286 67.4301C78.7342 68.421 78.3201 69.3675 78.4384 70.6542L83.7183 76.4665H83.7331Z" fill="black"/>
<path d="M93.8334 70.6695L93.4341 70.1519C94.2475 69.5159 94.5729 68.8356 93.9517 68.0369L89.0563 61.7514C88.4943 61.0415 88.1246 60.9675 87.0745 61.7809L86.7344 61.5591L88.5387 58.542L90.5205 61.0858C90.9494 59.0153 91.3931 56.3236 92.739 55.2735C93.3305 54.815 94.1883 54.9334 94.5581 55.4066C94.9278 55.8799 94.8243 56.7081 94.2327 57.1814C93.5524 57.7138 92.9756 57.2701 92.5171 57.6399C91.9255 58.0983 91.4818 60.1541 91.1121 61.8253L95.2088 67.0904C95.83 67.889 96.3476 67.9186 97.4125 67.0904L97.8118 67.608L93.863 70.6843L93.8334 70.6695Z" fill="black"/>
<path d="M96.4519 46.4887C96.8217 47.0211 96.8069 47.8197 96.0674 48.3374C95.2983 48.8698 94.5884 48.574 94.2187 48.0416C93.849 47.5092 93.8194 46.7401 94.5884 46.2077C95.3279 45.69 96.097 45.9562 96.4667 46.4887H96.4519ZM103.418 63.3488L103.048 62.8164C104.024 62.1361 104.32 61.648 103.728 60.7902L99.2028 54.2828C98.8183 53.7208 98.3006 53.4841 97.1027 54.3124L96.8217 54.0314L98.9218 51.1474L105 59.888C105.592 60.7458 106.05 60.7163 107.16 59.9472L107.529 60.4796L103.418 63.334V63.3488Z" fill="black"/>
<path d="M109.497 59.1925L109.142 58.6453C110.221 57.965 110.325 57.3143 109.748 56.3973L102.309 44.6544C101.895 44.0036 101.333 43.8262 100.209 44.5361L99.9277 44.2846L102.146 41.4746L111.064 55.5543C111.641 56.4713 112.351 56.6192 113.445 55.924L113.8 56.4713L109.497 59.1925Z" fill="black"/>
<path d="M115.235 55.2142L114.939 54.6374C116.64 53.75 116.891 53.0401 116.3 51.9161L109.807 39.3449C109.334 38.428 108.624 38.354 106.968 39.2118L106.672 38.635L110.828 36.4905L123.724 48.1447L121.654 30.9001L125.943 28.6816L126.239 29.2584C124.39 30.205 124.212 30.767 124.686 31.6691L131.178 44.2403C131.696 45.2608 132.48 45.5861 134.21 44.684L134.506 45.2608L128.664 48.2779L128.368 47.7011C130.054 46.8285 130.261 45.9855 129.744 44.9798L122.704 31.3438L122.452 31.4769L124.73 50.5259L124.36 50.7181L110.384 38.1322L110.103 38.2801L116.98 51.5907C117.572 52.7147 118.311 52.9218 120.012 52.0344L120.308 52.6112L115.25 55.2142H115.235Z" fill="black"/>
<path d="M147.107 39.6257C146.856 40.4983 146.575 41.1934 145.628 41.5632C144.534 41.9921 144.016 41.2674 143.676 40.4244C143.025 41.7554 142.138 42.909 140.171 43.6781C137.819 44.595 136.281 43.7668 135.675 42.1991C134.847 40.0399 136.725 37.4221 141.443 34.7008L140.777 32.9852C140.215 31.5358 139.136 30.8407 137.686 31.4027C135.852 32.1126 135.32 32.9113 135.364 34.3015C135.364 34.9079 135.305 35.4994 134.699 35.7361C134.063 35.9875 133.575 35.7361 133.323 35.0705C132.85 33.8578 134.418 32.0091 137.583 30.7668C139.683 29.9533 141.502 30.5301 142.315 32.6303L144.918 39.33C145.199 40.0546 145.495 40.6019 145.88 40.454C146.19 40.3356 146.501 40.099 146.782 39.4631L147.092 39.6257H147.107ZM141.724 35.3368C138.618 36.9636 136.429 39.3447 137.272 41.5188C137.701 42.6132 138.825 43.0865 140.274 42.5245C142.034 41.8442 142.774 41.0751 143.41 39.7145L141.709 35.3368H141.724Z" fill="black"/>
<path d="M148.748 39.9957L148.556 39.3745C149.547 39.0639 150.094 38.5463 149.798 37.585L147.461 29.9683C147.195 29.0957 146.87 28.9035 145.598 29.288L145.361 28.9478L148.112 26.7738L149.059 29.85C150.198 28.0605 151.573 25.7089 153.2 25.2061C153.925 24.9842 154.679 25.4131 154.841 25.9751C155.004 26.5371 154.62 27.2914 153.895 27.5132C153.082 27.7647 152.697 27.1435 152.12 27.321C151.395 27.5428 150.257 29.3028 149.31 30.7374L151.262 37.1117C151.558 38.073 152.031 38.2801 153.318 37.8955L153.51 38.5167L148.719 39.9809L148.748 39.9957Z" fill="black"/>
<path d="M170.549 31.2848C169.78 33.1927 168.73 35.0266 166.201 35.6034C163.11 36.2985 160.019 34.2132 159.279 30.9151C158.362 26.8627 160.699 23.5351 163.879 22.8104C165.728 22.3963 168.227 22.8548 168.582 24.4225C168.715 24.9993 168.434 25.5021 167.813 25.6352C166.896 25.8423 166.674 25.088 166.201 24.5408C165.491 23.7421 164.84 23.2837 163.361 23.6238C161.365 24.0823 160.019 26.493 160.817 30.0277C161.542 33.2371 163.568 35.1301 166.408 34.4794C167.931 34.1392 168.981 33.3702 170.09 31.1369L170.519 31.2848H170.549Z" fill="black"/>
<path d="M173.299 33.6069L173.21 32.971C174.438 32.7935 174.852 32.3646 174.719 31.3885L172.767 17.7081C172.604 16.5989 172.131 16.4066 170.977 16.5693L170.814 16.17L173.876 14.4248L175.089 22.914C176.035 21.8344 177.322 20.3406 179.422 20.0449C181.507 19.7491 182.942 20.4885 183.282 22.8253L184.303 30.0278C184.436 30.9596 185.027 31.2849 186.21 31.1223L186.299 31.7582L181.285 32.4681L181.197 31.8322C182.528 31.6399 182.883 31.1666 182.75 30.2497L181.788 23.5204C181.566 21.9823 180.812 21.1097 178.89 21.3907C177.085 21.6421 176.05 22.633 175.192 23.8014L176.242 31.1814C176.375 32.1575 176.952 32.4385 178.209 32.2611L178.298 32.897L173.284 33.6069H173.299Z" fill="black"/>
<path d="M204.506 54.7256V354.437" stroke="black" stroke-width="1.8487" stroke-miterlimit="10"/>
<path d="M204.506 54.7256V354.437" stroke="black" stroke-width="1.8487" stroke-miterlimit="10"/>
<path d="M165.727 59.8281L243.298 349.334" stroke="black" stroke-width="1.8487" stroke-miterlimit="10"/>
<path d="M129.58 74.7949L279.443 334.367" stroke="black" stroke-width="1.8487" stroke-miterlimit="10"/>
<path d="M98.5371 98.6074L310.472 310.542" stroke="black" stroke-width="1.8487" stroke-miterlimit="10"/>
<path d="M74.7266 129.65L334.299 279.513" stroke="black" stroke-width="1.8487" stroke-miterlimit="10"/>
<path d="M59.7598 165.796L349.266 243.367" stroke="black" stroke-width="1.8487" stroke-miterlimit="10"/>
<path d="M54.6562 204.574H354.367" stroke="black" stroke-width="1.8487" stroke-miterlimit="10"/>
<path d="M59.7598 243.367L349.266 165.796" stroke="black" stroke-width="1.8487" stroke-miterlimit="10"/>
<path d="M74.7266 279.513L334.299 129.65" stroke="black" stroke-width="1.8487" stroke-miterlimit="10"/>
<path d="M98.5371 310.542L310.472 98.6074" stroke="black" stroke-width="1.8487" stroke-miterlimit="10"/>
<path d="M129.58 334.367L279.443 74.7949" stroke="black" stroke-width="1.8487" stroke-miterlimit="10"/>
<path d="M165.727 349.334L243.298 59.8281" stroke="black" stroke-width="1.8487" stroke-miterlimit="10"/>
</g>
<defs>
<clipPath id="clip0_575_13217">
<rect width="408.06" height="408.06" fill="white" transform="translate(0.482422 0.551758)"/>
</clipPath>
</defs>
</svg>
