<svg width="408" height="408" viewBox="0 0 408 408" fill="none" xmlns="http://www.w3.org/2000/svg">
<g clip-path="url(#clip0_575_54639)">
<path d="M203.756 407.513C316.288 407.513 407.513 316.288 407.513 203.756C407.513 91.2248 316.288 0 203.756 0C91.2248 0 0 91.2248 0 203.756C0 316.288 91.2248 407.513 203.756 407.513Z" fill="white"/>
<path d="M71.6702 301.235C52.1775 299.785 38.645 293.869 33.7645 283.177C19.4333 251.734 85.321 190.934 180.906 147.379C276.506 103.823 365.613 94.0177 379.93 125.46C387.606 142.321 372.239 167.611 341.61 194.158" stroke="black" stroke-width="1.73038" stroke-miterlimit="10"/>
<path d="M218.412 327.959C286.698 327.959 342.054 272.603 342.054 204.318C342.054 136.033 286.698 80.6768 218.412 80.6768C150.127 80.6768 94.7715 136.033 94.7715 204.318C94.7715 272.603 150.127 327.959 218.412 327.959Z" fill="black"/>
<path d="M221.799 181.098C254.928 181.098 281.771 158.618 281.771 130.887C281.771 103.157 254.913 80.6768 221.799 80.6768H71.6699V327.959H221.784C271.891 327.959 312.518 295.082 312.518 254.528C312.518 213.975 271.891 181.098 221.784 181.098" fill="black"/>
<path d="M202.544 170.583C170.776 175.508 142.025 160.083 138.313 136.153C134.601 112.209 157.347 88.8115 189.115 83.9014" fill="#0A9146"/>
<path d="M205.811 308.881C158.499 316.216 115.831 294.416 110.537 260.208C105.242 226 139.302 192.309 186.614 184.988" fill="white"/>
<path d="M134.393 295.008C110.152 300.347 88.6484 302.491 71.6699 301.234" stroke="white" stroke-width="1.73038" stroke-miterlimit="10"/>
<path d="M200.339 274.864C177.12 283.768 154.787 290.526 134.393 295.008" stroke="black" stroke-width="1.73038" stroke-miterlimit="10"/>
<path d="M341.625 194.158C315.107 217.141 277.157 241.056 232.803 261.259C221.859 266.243 211.003 270.783 200.34 274.88" stroke="white" stroke-width="1.73038" stroke-miterlimit="10"/>
</g>
<defs>
<clipPath id="clip0_575_54639">
<rect width="407.513" height="407.513" fill="white"/>
</clipPath>
</defs>
</svg>
