<svg width="93" height="80" viewBox="0 0 93 80" fill="none" xmlns="http://www.w3.org/2000/svg">
<path d="M28.1448 11.6558C24.9369 11.6558 22.3438 14.249 22.3438 17.4571V29.1397C22.3438 32.3477 24.9369 34.9408 28.1448 34.9408H60.2112C63.4191 34.9408 66.0122 32.3477 66.0122 29.1397V5.80116C66.0122 2.59312 63.4191 0 60.2112 0L22.3438 0V5.82792H58.3131C59.3557 5.82792 60.1978 6.66999 60.1978 7.71261V27.2416C60.1978 28.2842 59.3557 29.1263 58.3131 29.1263H30.0429C29.0003 29.1263 28.1582 28.2842 28.1582 27.2416V19.3551C28.1582 18.3125 29.0003 17.4705 30.0429 17.4705H54.37V11.6425H28.1448V11.6558Z" fill="#9C9C9C"/>
<path d="M21.645 47.7193H23.3292L23.1421 48.5748H21.4579L20.9232 51.061C20.7762 51.7427 20.8029 51.9566 20.9232 52.0902C21.0569 52.2239 21.3109 52.3175 21.9792 52.3175C22.1931 52.3175 22.3668 52.3175 22.5539 52.2908V52.7318C21.6985 53.0794 20.9232 53.3333 20.0678 53.3333C18.7178 53.3333 18.8514 52.1704 19.0386 51.3417L19.6267 48.5614H18.5306L18.6242 48.1069L20.0945 47.3316L21.4713 45.8212L22.0059 45.9014L21.6183 47.706L21.645 47.7193ZM28.7828 49.7377C28.7828 51.6358 27.3392 53.3467 25.4144 53.3467C24.1178 53.3467 23.1688 52.5447 23.1688 51.0209C23.1688 49.1228 24.6124 47.4118 26.5372 47.4118C27.8337 47.4118 28.7828 48.2138 28.7828 49.7377ZM27.005 49.203C27.005 48.4812 26.7911 48.0401 26.3367 48.0401C25.4411 48.0401 24.9599 50.4328 24.9599 51.5422C24.9599 52.264 25.1738 52.7051 25.6283 52.7051C26.5372 52.7051 27.005 50.3125 27.005 49.203ZM42.0958 51.6892L42.577 49.6842C42.8711 48.4678 42.577 47.4118 41.4275 47.4118C40.7324 47.4118 40.1577 47.7728 39.3958 48.4277L39.2755 48.401L40.1577 44.2305L39.9037 44.0701L37.2304 44.6182L37.1769 44.9925L38.0591 45.5405L36.4284 53.1997H38.2329L39.0884 49.1361C39.5428 48.8554 39.9438 48.7085 40.2379 48.7085C40.7725 48.7085 40.8928 49.0827 40.7191 49.8045L40.2245 51.9031C40.1711 52.117 40.1443 52.3041 40.1443 52.4645C40.1443 53.0393 40.4517 53.3601 41.2003 53.3601C41.8018 53.3601 42.4033 53.1329 42.9914 52.7853L42.9246 52.4645C41.9488 52.3977 41.9087 52.3443 42.0557 51.716L42.0958 51.6892ZM44.983 50.7536C44.9028 50.7536 44.8092 50.7536 44.729 50.7536C44.7424 51.7561 45.2904 52.1704 46.2662 52.1704C46.734 52.1704 47.242 51.9967 47.7365 51.716L47.9637 51.9566C47.4024 52.8254 46.5736 53.3467 45.4776 53.3467C43.8602 53.3467 43.0449 52.3576 43.0449 51.1279C43.0449 49.0159 44.7558 47.4118 46.6271 47.4118C47.8301 47.4118 48.5251 48.0133 48.5251 48.802C48.5251 50.0852 46.9613 50.7669 45.0097 50.7669L44.983 50.7536ZM44.7691 50.1788C46.4132 50.005 46.9078 49.3234 46.9078 48.5481C46.9078 48.2406 46.7608 48.0268 46.4533 48.0268C45.8518 48.0268 44.9696 48.9758 44.7691 50.1788ZM56.1173 44.8722C56.5718 45.5806 57.1867 45.8747 57.6278 45.8747C58.1892 45.8747 58.5099 45.4737 58.5099 44.9925C58.5099 44.431 58.0288 44.0568 57.2134 44.0568C56.5183 44.0568 55.9168 44.2573 55.3153 44.6583C54.393 45.2865 53.8183 46.2088 53.4975 47.4787L53.4708 47.5722L52.0673 48.0802L51.9603 48.5614H53.297L52.5618 52.9056C52.3212 54.3759 52.1341 54.8572 51.9336 55.0443C51.5727 54.4027 51.0113 54.0552 50.4767 54.0552C49.9821 54.0552 49.6346 54.4963 49.6346 54.924C49.6346 55.4854 50.1425 55.8865 50.9178 55.8865C51.4925 55.8865 52.1876 55.6993 52.8425 55.2047C53.6846 54.5631 54.2059 53.5205 54.5 51.8229L55.0614 48.5481H56.6119L56.799 47.7193H55.195L55.2485 47.4386C55.5559 45.6742 55.7965 45.1395 56.104 44.8722H56.1173ZM62.6135 51.6491L63.509 47.5188L63.2551 47.3584L60.6753 47.9064V48.2807L61.4238 48.802L60.8224 51.6224C60.3679 51.9031 59.9669 52.0502 59.6728 52.0502C59.1382 52.0502 59.0179 51.6893 59.1916 50.9541L59.9936 47.5188L59.7397 47.3584L57.1867 47.9064L57.1332 48.2807L57.8951 48.7887L57.3604 51.0477C57.0797 52.264 57.3604 53.32 58.5099 53.32C59.2718 53.32 59.9402 52.8522 60.662 52.1972L60.7823 52.224C60.7154 52.8121 60.8892 53.32 61.7313 53.32C62.3461 53.32 62.9476 53.0927 63.5358 52.7452L63.4689 52.4244C62.5065 52.3576 62.4531 52.3308 62.6001 51.6491H62.6135ZM64.7388 44.5915L64.6853 44.9657L65.5675 45.5138L64.2308 51.863C64.017 52.772 64.2308 53.3333 65.2333 53.3333C65.8348 53.3333 66.4363 53.1061 67.0645 52.7586L66.9977 52.4378C65.9551 52.371 65.915 52.3309 66.062 51.6892L67.6527 44.2172L67.3987 44.0568L64.7254 44.6048L64.7388 44.5915ZM79.6558 47.3851C77.9315 47.3851 77.0627 48.3743 77.0627 49.3634C77.0627 50.1521 77.584 50.5263 78.3459 50.8605L78.8806 51.1011C79.5756 51.4085 79.7627 51.6224 79.7627 51.97C79.7627 52.3977 79.5222 52.6918 79.0811 52.6918C78.787 52.6918 78.5464 52.6249 78.1989 52.4378C78.1588 51.5556 77.6776 51.0743 77.1696 51.0743C76.7419 51.0743 76.3676 51.462 76.3676 51.9432C76.3676 52.7853 77.4236 53.3067 78.8271 53.3067C80.5647 53.3067 81.3133 52.2373 81.3133 51.3149C81.3133 50.5129 80.8187 50.1521 80.0033 49.7644L79.4687 49.5238C78.8271 49.2298 78.6132 49.0426 78.6132 48.6951C78.6132 48.3476 78.8672 48.0134 79.2949 48.0134C79.4687 48.0134 79.6558 48.0535 79.8162 48.1203C79.8964 48.8421 80.3509 49.4035 80.9256 49.4035C81.34 49.4035 81.6742 49.1228 81.6742 48.6149C81.6742 47.9733 80.9123 47.3718 79.6558 47.3718V47.3851ZM16.0311 52.7185C16.0311 52.3844 15.7637 52.117 15.4296 52.117C15.0954 52.117 14.8147 52.3844 14.8147 52.7185C14.8147 53.0527 15.0821 53.32 15.4296 53.32C15.7771 53.32 16.0311 53.0527 16.0311 52.7185ZM0.512524 44.6449V44.939L1.62195 45.193L0.0313278 52.3976C-0.0355049 52.6917 0.0045949 52.9457 0.151627 53.1061C0.258559 53.2532 0.44569 53.32 0.659554 53.32C1.07392 53.32 1.74224 53.1062 2.23681 52.7987H2.26354L2.22344 52.5714H2.18334C1.52838 52.5714 1.20758 52.5447 1.11402 52.4244C1.07392 52.3709 1.06055 52.2773 1.10065 52.1437L2.8784 44.1503L2.7581 44.0033L0.512524 44.6583V44.6449ZM10.3102 44.5246C10.4305 45.1529 10.7647 45.5138 11.2325 45.5138C11.6335 45.5138 11.9276 45.2465 11.9276 44.8722C11.9276 44.4445 11.5399 43.9766 10.6711 43.9766C10.1231 43.9766 9.6285 44.1504 9.16068 44.4979C8.35868 45.1128 7.94432 45.8613 7.70372 47.198L7.63689 47.5856L6.28687 47.9332L6.20667 48.2941H7.50322L6.60767 53.3735C6.44727 54.2423 6.24677 54.8304 5.9928 55.1914C5.71211 54.7903 5.39131 54.5898 5.04378 54.5898C4.62942 54.5898 4.33535 54.8304 4.33535 55.178C4.33535 55.5255 4.64278 55.8731 5.23091 55.8731C5.68537 55.8731 6.1532 55.6592 6.5542 55.2716C7.30273 54.5497 7.57006 53.9215 7.89085 52.0769L8.54581 48.2941H9.92257L10.0562 47.6391H8.66611L8.77304 47.0777C9.06711 45.4469 9.60177 44.5647 10.3236 44.5246H10.3102ZM13.5716 51.8764L13.839 52.0502L13.8122 52.0902C13.3043 52.8789 12.4756 53.3333 11.5399 53.3333C10.2701 53.3333 9.45474 52.5046 9.45474 51.2347C9.45474 50.3926 9.7889 49.4436 10.3637 48.6951C11.0053 47.853 11.8206 47.3985 12.6894 47.3985C13.6385 47.3985 14.2533 47.893 14.2533 48.655C14.2533 49.858 13.0771 50.5397 11.032 50.5397C10.8983 50.5397 10.778 50.5397 10.631 50.5397C10.5508 51.2348 10.6845 51.7962 10.9919 52.1304C11.2459 52.4111 11.6068 52.5447 12.0612 52.5447C12.6092 52.5447 13.1038 52.3308 13.5583 51.9031L13.585 51.8764H13.5716ZM13.2375 48.6015C13.2375 48.147 12.93 47.8262 12.4756 47.8262C11.687 47.8262 10.9652 48.7352 10.6845 50.112C11.5399 50.2055 12.2483 50.0718 12.6894 49.7377C13.037 49.4703 13.2241 49.0827 13.2241 48.6149L13.2375 48.6015ZM5.47151 52.7987L5.43141 52.5848H5.39131C4.73635 52.5848 4.42892 52.5581 4.33535 52.4244C4.29525 52.3709 4.28189 52.2773 4.32199 52.1437L5.39131 47.452L5.25765 47.3183L3.119 47.9732V48.2673L4.13486 48.5213L3.26603 52.411C3.1992 52.6917 3.2393 52.9591 3.38633 53.1195C3.50663 53.2665 3.68039 53.3333 3.89426 53.3333C4.30862 53.3333 4.95021 53.1195 5.47151 52.812H5.49824L5.47151 52.7987ZM5.03041 46.3425C5.39131 46.3425 5.68537 46.0485 5.68537 45.7009C5.68537 45.3534 5.39131 45.0459 5.03041 45.0459C4.66952 45.0459 4.37545 45.34 4.37545 45.7009C4.37545 46.0618 4.66952 46.3425 5.03041 46.3425ZM35.2388 45.9014L34.7041 45.8212L33.3274 47.3316L31.8571 48.1069L31.7635 48.5614H32.8596L32.2714 51.3417C32.0843 52.1838 31.9506 53.3333 33.3006 53.3333C34.1427 53.3333 34.9314 53.0794 35.7868 52.7318V52.2908C35.5997 52.2908 35.4259 52.3175 35.2121 52.3175C34.5304 52.3175 34.2898 52.2239 34.1561 52.0902C34.0224 51.9566 33.9957 51.7293 34.1561 51.061L34.6908 48.5748H36.375L36.5621 47.7193H34.8779L35.2655 45.9148L35.2388 45.9014ZM68.2274 44.6048L68.174 44.9791L69.0562 45.5272L67.7195 51.8764C67.5056 52.7853 67.7195 53.3467 68.722 53.3467C69.3235 53.3467 69.925 53.1195 70.5532 52.772L70.4864 52.4512C69.4438 52.3843 69.4037 52.3442 69.5507 51.7026L71.1413 44.2305L70.8874 44.0701L68.2141 44.6182L68.2274 44.6048ZM72.8255 50.7536C72.7453 50.7536 72.6518 50.7536 72.5716 50.7536C72.5849 51.7561 73.1329 52.1704 74.1087 52.1704C74.5765 52.1704 75.0845 51.9967 75.579 51.716L75.8063 51.9566C75.2449 52.8254 74.4161 53.3467 73.3201 53.3467C71.7027 53.3467 70.8874 52.3576 70.8874 51.1279C70.8874 49.0159 72.5983 47.4118 74.4696 47.4118C75.6726 47.4118 76.3676 48.0133 76.3676 48.802C76.3676 50.0852 74.8038 50.7669 72.8522 50.7669L72.8255 50.7536ZM72.6116 50.1788C74.2557 50.005 74.7503 49.3234 74.7503 48.5481C74.7503 48.2406 74.6033 48.0268 74.2958 48.0268C73.6943 48.0268 72.8121 48.9758 72.6116 50.1788ZM85.4168 45.9014L84.8821 45.8212L83.5054 47.3316L82.0351 48.1069L81.9415 48.5614H83.0376L82.4494 51.3417C82.2623 52.1838 82.1286 53.3333 83.4786 53.3333C84.3207 53.3333 85.1094 53.0794 85.9648 52.7318V52.2908C85.7777 52.2908 85.6039 52.3175 85.3901 52.3175C84.7084 52.3175 84.4678 52.2239 84.3341 52.0902C84.2004 51.9566 84.1737 51.7293 84.3341 51.061L84.8688 48.5748H86.5529L86.7401 47.7193H85.0559L85.4435 45.9148L85.4168 45.9014ZM88.3173 52.7318C88.3173 52.3976 88.05 52.1304 87.7158 52.1304C87.3817 52.1304 87.101 52.3976 87.101 52.7318C87.101 53.066 87.3683 53.3333 87.7158 53.3333C88.0634 53.3333 88.3173 53.066 88.3173 52.7318Z" fill="#9C9C9C"/>
<path d="M54.6109 76.3983C54.6109 78.4435 53.2208 79.5796 51.3094 79.5796C49.398 79.5796 48.0078 78.4435 48.0078 76.3983C48.0078 74.3532 49.398 73.217 51.3094 73.217C53.2208 73.217 54.6109 74.3532 54.6109 76.3983ZM41.0038 79.3925H42.434L42.8082 78.5905C43.2493 79.299 43.9711 79.5796 44.7731 79.5796C46.6845 79.5796 47.4063 78.0826 47.4063 76.3983C47.4063 74.7141 46.6979 73.217 44.7731 73.217C44.1984 73.217 43.5969 73.5646 43.129 74.0993V70.918H39.9612V71.9339H40.5493C40.9236 71.9339 41.0038 72.121 41.0038 72.4819V79.3792V79.3925ZM33.8393 79.3925H35.2695L35.6438 78.5905C36.0849 79.299 36.8067 79.5796 37.6087 79.5796C39.5201 79.5796 40.2419 78.0826 40.2419 76.3983C40.2419 74.7141 39.5334 73.217 37.6087 73.217C37.0339 73.217 36.4324 73.5646 35.9646 74.0993V70.918H32.7967V71.9339H33.3848C33.7591 71.9339 33.8393 72.121 33.8393 72.4819V79.3792V79.3925ZM27.8645 72.816H27.8912L28.8135 75.5696H26.9555L27.8645 72.816ZM27.1026 70.918L24.9639 77.3073C24.71 78.0825 24.5228 78.2697 24.0817 78.2697H23.6406V79.3925H27.3966V78.2697H27.0357C26.6882 78.2697 26.2337 78.2296 26.2337 78.0291C26.2337 77.8554 26.2872 77.6548 26.4209 77.2137L26.5813 76.7058H29.1877L29.4551 77.6281C29.5085 77.8153 29.5219 77.9623 29.5219 78.0959C29.5219 78.2296 29.2011 78.2831 28.8135 78.2831H28.4258V79.4059H33.0908V78.2831H32.663C32.2219 78.2831 32.0348 78.1093 31.7808 77.3207L29.6422 70.9313H27.0892L27.1026 70.918ZM37.9829 76.3983C37.9829 77.7083 37.6889 78.4836 36.9671 78.4836C36.2453 78.4836 35.9646 77.7083 35.9646 76.3983C35.9646 75.0884 36.2586 74.3131 36.9671 74.3131C37.6755 74.3131 37.9829 75.0884 37.9829 76.3983ZM51.3227 74.2463C50.5608 74.2463 50.2935 74.9013 50.2935 76.3983C50.2935 77.8954 50.5608 78.5504 51.3227 78.5504C52.0846 78.5504 52.352 77.8954 52.352 76.3983C52.352 74.9013 52.0846 74.2463 51.3227 74.2463ZM63.7269 76.5053V77.4944C63.7269 78.0826 63.6066 78.4301 63.112 78.4301C62.818 78.4301 62.6843 78.2163 62.6843 77.9356V74.4201H64.2482V73.4042H62.6843V71.0249H61.4145C61.3075 72.0809 60.9734 73.4042 59.7036 73.4042H57.7119V71.0249H56.4555C56.3486 72.0809 56.0144 73.4042 54.7446 73.4042V74.4201H55.6V77.6281C55.6 78.9247 56.3218 79.5663 57.6451 79.5663C59.1823 79.5663 59.7971 78.8846 59.7971 77.6281V76.4919H58.7813V77.481C58.7813 78.0692 58.6476 78.4167 58.1664 78.4167C57.8723 78.4167 57.7253 78.2029 57.7253 77.9222V74.4067H60.5724V77.6148C60.5724 78.9113 61.2942 79.5529 62.6175 79.5529C64.1546 79.5529 64.7695 78.8712 64.7695 77.6148V76.4785H63.7403L63.7269 76.5053ZM45.1474 76.3983C45.1474 77.7083 44.8533 78.4836 44.1315 78.4836C43.4097 78.4836 43.129 77.7083 43.129 76.3983C43.129 75.0884 43.4231 74.3131 44.1315 74.3131C44.84 74.3131 45.1474 75.0884 45.1474 76.3983Z" fill="#9C9C9C"/>
<path d="M90.2212 45.8281C91.2505 45.8281 92.0925 46.6703 92.0925 47.6995C92.0925 48.7288 91.2505 49.5574 90.2212 49.5574C89.192 49.5574 88.3633 48.7288 88.3633 47.6995C88.3633 46.6703 89.192 45.8281 90.2212 45.8281ZM90.2212 49.1565C91.0232 49.1565 91.6782 48.5015 91.6782 47.6995C91.6782 46.8975 91.0366 46.2425 90.2212 46.2425C89.4059 46.2425 88.7643 46.8841 88.7643 47.6995C88.7643 48.5149 89.4192 49.1565 90.2212 49.1565ZM89.5262 46.844C89.5262 46.844 89.5663 46.7504 89.6197 46.7504H90.4217C90.7425 46.7504 91.0633 46.991 91.0633 47.392C91.0633 47.7396 90.8495 47.8866 90.6891 47.9668L90.9297 48.5015C90.9564 48.5683 90.9163 48.6351 90.8361 48.6351H90.5554C90.5554 48.6351 90.4752 48.595 90.4618 48.5683L90.2346 47.9935H89.9673V48.5549C89.9673 48.5549 89.9272 48.6485 89.8737 48.6485H89.6197C89.6197 48.6485 89.5262 48.595 89.5262 48.5549V46.8574V46.844ZM90.3683 47.6059C90.4886 47.6059 90.5821 47.5123 90.5821 47.392C90.5821 47.2717 90.4886 47.1782 90.3683 47.1782H89.9539V47.6059H90.3683Z" fill="#9C9C9C"/>
</svg>
