<svg width="90" height="51" viewBox="0 0 90 51" fill="none" xmlns="http://www.w3.org/2000/svg">
<path d="M28.1511 39.9314L30.9314 45.4786H25.3709L28.1511 39.9314ZM26.6942 37.3516C26.6541 37.4318 20.0109 50.0768 19.8906 50.304H22.9515C22.9916 50.2238 24.3417 47.5906 24.3417 47.5906H31.9071C31.9071 47.5906 33.2839 50.2238 33.324 50.304H36.425C36.3047 50.0902 29.675 37.4318 29.6215 37.3516H26.6675H26.6942Z" fill="#9C9C9C"/>
<path d="M46.3795 41.1719V47.7617L46.3394 47.7885C45.4037 48.2697 44.5751 48.5771 43.3854 48.5771C41.6478 48.5771 40.8859 47.8419 40.8859 46.1978V41.1719H38.1992V46.5587C38.1992 49.2722 39.6695 50.5821 42.7037 50.5821C44.0805 50.542 45.5775 50.0608 46.4464 49.3925L46.5399 49.3123C46.5399 49.3123 46.7137 50.1945 46.7271 50.3014H49.0662V41.1719H46.3795Z" fill="#9C9C9C"/>
<path d="M54.7167 45.7264C54.7167 43.9219 55.7994 42.9327 57.7509 42.9327C59.1945 42.9327 60.0767 43.2402 60.9722 43.708L61.0124 43.7347V47.7715L60.9722 47.7982C60.0767 48.2661 59.1945 48.5602 57.7509 48.5602C55.8261 48.5602 54.7167 47.5309 54.7167 45.7398M61.0124 37.3588V41.85L60.892 41.7698C60.0232 41.2084 58.6999 40.8742 57.3232 40.8742C53.9281 40.8742 51.9766 42.6386 51.9766 45.713C51.9766 48.7874 53.8746 50.5785 57.1895 50.5785C58.6732 50.5785 60.1836 50.0706 61.0524 49.2953L61.146 49.2018C61.146 49.2018 61.3332 50.1775 61.3599 50.2845H63.699V37.332H61.0124V37.3588Z" fill="#9C9C9C"/>
<path d="M67.3828 50.304H70.0694V41.1745H67.3828V50.304ZM67.3828 39.664H70.0694V37.3516H67.3828V39.664Z" fill="#9C9C9C"/>
<path d="M25.4904 45.4161H30.8102L28.1503 40.1095L25.4904 45.4161ZM26.6533 37.2891H29.6875L36.5579 50.3886H33.2831L31.8662 47.6751H24.3943L23.0042 50.3886H19.7695L26.6533 37.2891Z" fill="#9C9C9C"/>
<path d="M46.4807 49.4692C45.6253 50.1375 44.1148 50.6455 42.698 50.6722C40.292 50.6722 38.1133 49.8836 38.1133 46.5686V41.1016H40.9604V46.2077C40.9604 47.7582 41.6688 48.5068 43.3797 48.5068C44.5693 48.5068 45.3847 48.1993 46.2936 47.7315V41.1016H49.1407V50.3781H46.6545L46.4674 49.4558L46.4807 49.4692Z" fill="#9C9C9C"/>
<path d="M60.9264 47.7286V43.7853C59.9507 43.2774 59.0818 43.0234 57.7452 43.0234C55.8204 43.0234 54.7911 43.9992 54.7911 45.7369C54.7911 47.4746 55.8204 48.4905 57.7452 48.4905C59.0818 48.4905 59.9507 48.2365 60.9264 47.7286ZM51.8906 45.7369C51.8906 42.6759 53.8154 40.8179 57.3174 40.8179C58.6942 40.8179 60.0576 41.1655 60.9264 41.7269V37.2891H63.7735V50.3886H61.2873L61.0868 49.3727C60.218 50.148 58.6942 50.6693 57.1704 50.6693C53.8154 50.6693 51.8906 48.8246 51.8906 45.7235" fill="#9C9C9C"/>
<path d="M67.3008 41.112H70.1478V50.3886H67.3008V41.112ZM67.3008 37.2891H70.1478V39.7486H67.3008V37.2891Z" fill="#9C9C9C"/>
<path d="M25.478 22.7446C28.5389 19.0954 28.5256 12.2249 25.4513 8.82971C22.3636 12.1982 22.3769 19.4697 25.478 22.7446ZM64.4549 8.77624C61.3271 12.3719 61.3805 19.844 64.4682 22.7178C67.5024 19.0286 67.5158 12.7863 64.4549 8.77624ZM44.953 22.7312C48.0273 19.0687 48.0541 12.4789 44.953 8.84307C41.8654 12.158 41.8787 19.443 44.953 22.7312ZM61.7014 25.5383C57.3038 19.0019 57.3038 12.519 61.7014 6.04941C57.7449 2.76117 50.8477 3.12208 47.7199 6.11625C52.1175 12.6125 52.024 19.0954 47.6665 25.5383C51.6765 28.6126 57.7181 28.6126 61.7014 25.5383ZM42.2263 25.5516C37.8287 19.0152 37.8153 12.5323 42.1995 6.04941C38.5505 2.93494 31.3459 2.94831 28.2181 6.08951C32.589 12.5858 32.5623 19.0687 28.1914 25.5249C31.9875 28.5992 38.0827 28.6126 42.2263 25.5516ZM22.7245 6.04941C18.3536 2.4671 11.1491 3.09534 7.04555 7.38609C2.60786 12.0244 2.48753 19.0821 6.76483 23.8674C10.855 28.4522 17.966 29.2008 22.7379 25.5516C18.367 19.0954 18.3135 12.6125 22.7245 6.04941ZM67.1816 6.08951C71.5792 12.5724 71.5257 19.0553 67.1549 25.5249C71.8599 29.2943 79.2115 28.4121 83.3685 23.6C87.5121 18.8014 87.1112 11.4229 82.4997 7.05192C77.5674 2.3869 70.5232 3.16217 67.1816 6.08951ZM64.4549 3.34931C69.2134 -0.0726027 74.3327 -0.901349 79.7862 1.09031C86.3893 3.49634 90.6265 10.4471 89.8379 17.3577C88.9825 24.6828 83.5289 30.3637 76.4312 31.3395C72.3143 31.9142 68.545 31.0187 65.1499 28.6527C64.6152 28.2918 64.2811 28.2651 63.7464 28.6527C58.3062 32.4756 51.2621 32.5157 45.7951 28.7329C45.1402 28.2785 44.7526 28.3319 44.1243 28.7596C38.7911 32.4623 31.6132 32.4489 26.3335 28.7596C25.7052 28.3185 25.3176 28.3052 24.6626 28.7463C19.3829 32.1949 13.8224 32.5959 8.27525 29.6018C2.83507 26.6744 0.0281436 21.8757 0.0548767 15.727C0.0816098 9.52477 2.98208 4.73945 8.50246 1.87895C14.1431 -1.02166 19.717 -0.51371 24.9834 3.05523C25.1305 3.1488 25.2775 3.25573 25.4379 3.36267C31.9608 -1.06176 38.4703 -1.07511 44.9932 3.33595C50.8477 -1.02164 58.5602 -1.02166 64.4949 3.36267" fill="#9C9C9C"/>
</svg>
