<svg width="274" height="35" viewBox="0 0 274 35" fill="none" xmlns="http://www.w3.org/2000/svg">
<path d="M20.6332 22.4548H6.81828L3.95104 29.3088H0L11.8394 1.60156H15.8179L27.6161 29.3088H23.4867L20.6195 22.4548H20.6332ZM19.3025 19.2395L13.7463 5.84895L8.14902 19.2395H19.3025Z" fill="black"/>
<path d="M41.6423 1.25C49.1054 1.25 53.4817 5.0872 53.4817 10.8695C53.4817 16.6517 49.1054 20.4889 41.6423 20.4889H35.2219V28.9705H31.4492V1.26323H41.6423V1.25ZM49.709 10.8695C49.709 6.75439 46.5537 4.5447 41.3542 4.5447H35.2219V17.2075H41.3542C46.5537 17.2075 49.709 14.9978 49.709 10.8827V10.8695Z" fill="black"/>
<path d="M91.4055 28.9572H87.6328V1.25H91.4055V28.9572Z" fill="black"/>
<path d="M102.984 25.6758H119.68V28.9572H99.2109V1.25H102.984V25.6758Z" fill="black"/>
<path d="M76.5551 28.9572L70.0249 19.0996C69.4898 19.1393 68.9548 19.1658 68.406 19.1658H61.4094V28.9572H57.6367V1.25H68.3923C75.6359 1.25 79.9024 4.74317 79.9024 10.2079C79.9024 14.1112 77.7211 17.0222 73.7701 18.3719L80.9862 28.9572H76.5413H76.5551ZM76.1572 10.2079C76.1572 6.47653 73.1116 4.505 68.1179 4.505H61.4094V15.924H68.1179C73.0979 15.924 76.1572 13.9525 76.1572 10.2211V10.2079Z" fill="black"/>
<path d="M129.054 0.914062L140.139 20.4132L151.224 0.914062H154.53V29.6281H150.758V8.44223L141.497 24.7875H138.767L129.507 8.44223V29.6281H125.734V0.914062H129.041H129.054Z" fill="black"/>
<path d="M178.954 22.525H165.139L162.271 29.6281H158.32L170.16 0.914062H174.138L185.936 29.6281H181.807L178.94 22.525H178.954ZM177.623 19.1928L172.067 5.31578L166.469 19.1928H177.623Z" fill="black"/>
<path d="M202.169 19.4122C201.634 19.4534 201.099 19.4808 200.551 19.4808H193.554V29.6281H189.781V0.914062H200.537C207.78 0.914062 212.047 4.53417 212.047 10.1974C212.047 14.2426 209.866 17.2594 205.915 18.6581L202.142 19.4122H202.169ZM208.302 10.1974C208.302 6.33051 205.256 4.28734 200.262 4.28734H193.554V16.1212H200.262C205.242 16.1212 208.302 14.0781 208.302 10.2111V10.1974Z" fill="black"/>
<path d="M215.469 13.6354C215.469 5.88784 221.162 0.238281 228.913 0.238281C235.539 0.238281 240.108 4.07779 241.452 9.45309H238.023C236.939 5.83299 233.633 3.33731 228.968 3.33731C223.083 3.33731 218.83 7.62933 218.83 13.6354C218.83 19.6415 223.124 23.9335 228.968 23.9335C233.77 23.9335 237.35 21.1224 238.283 17.4749H241.713C240.588 22.8091 235.69 27.0325 228.913 27.0325C221.176 27.0325 215.469 21.3693 215.469 13.6354Z" fill="black"/>
<path d="M228.906 27.2605C220.99 27.2605 215.242 21.5286 215.242 13.6302C215.242 5.73183 220.99 0 228.906 0C235.327 0 240.224 3.59267 241.678 9.37935L241.747 9.66732H237.865L237.81 9.50277C236.712 5.84153 233.324 3.55154 228.975 3.55154C223.227 3.55154 219.056 7.78871 219.056 13.6165C219.056 19.4443 223.227 23.6815 228.975 23.6815C233.461 23.6815 237.11 21.1584 238.07 17.3875L238.112 17.2092H241.994L241.939 17.4834C240.718 23.3113 235.478 27.233 228.92 27.233L228.906 27.2605ZM228.906 0.452515C221.251 0.452515 215.695 5.99237 215.695 13.6302C215.695 21.2681 221.251 26.808 228.906 26.808C235.148 26.808 240.142 23.1604 241.418 17.7028H238.455C237.384 21.5698 233.598 24.1614 228.961 24.1614C222.952 24.1614 218.59 19.7323 218.59 13.6302C218.59 7.52817 222.952 3.09903 228.961 3.09903C233.447 3.09903 236.973 5.43015 238.18 9.20109H241.143C239.662 3.79836 234.997 0.452515 228.892 0.452515H228.906Z" fill="black"/>
<path d="M274.001 0.914062V29.6281H270.228V16.6423H253.546V29.6281H249.773V0.914062H253.546V13.2142H270.228V0.914062H274.001Z" fill="black"/>
<path d="M228.197 34.6479C226.564 34.6479 224.932 34.4971 223.299 34.1817C209.827 31.6449 201.802 19.5367 201.473 19.0294L204.546 17.0273C204.614 17.137 212.091 28.3539 224.013 30.589C230.9 31.878 238.006 29.9445 245.14 24.8435L247.28 27.8328C240.928 32.3717 234.535 34.6616 228.197 34.6616V34.6479Z" fill="black"/>
</svg>
