<svg width="1833" height="286" viewBox="0 0 1833 286" fill="none" xmlns="http://www.w3.org/2000/svg">
<path d="M971.011 194.007L1042.18 68.8113H1062.09V252.059H1039.55V116.434V113.074L1037.89 115.997L978.476 220.869H961.917L902.502 115.997L900.846 113.074V116.434V252.059H878.307V68.8113H898.299L969.471 194.007L970.241 195.361L971.011 194.007Z" fill="white" stroke="white" stroke-width="1.77111"/>
<path d="M1131.3 206.29H1130.7L1130.48 206.844L1112.23 252.059H1088.69L1164.25 68.8113H1188.7L1263.99 252.059H1239.3L1221.05 206.844L1220.32 207.14V206.29H1220.23H1218.92H1131.3ZM1211.74 186.591H1213.05L1212.57 185.376L1176.76 95.9591L1175.95 93.9134L1175.12 95.957L1139.05 185.374L1138.56 186.591H1139.88H1211.74Z" fill="white" stroke="white" stroke-width="1.77111"/>
<path d="M1369.54 186.257C1366.2 186.509 1362.87 186.675 1359.46 186.675H1314.37H1313.49V187.561V252.059H1290.95V68.8113H1359.37C1382.57 68.8113 1400.89 74.609 1413.39 84.8358C1425.88 95.0457 1432.65 109.739 1432.65 127.743C1432.65 140.612 1429.18 151.801 1422.61 160.877C1416.04 169.94 1406.34 176.947 1393.78 181.403L1369.54 186.251L1369.54 186.257ZM1314.37 88.776H1313.49V89.6615V165.913V166.799H1314.37H1357.6C1373.75 166.799 1386.9 163.49 1396.05 156.936C1405.24 150.353 1410.29 140.556 1410.29 127.832V127.743C1410.29 115.02 1405.26 105.223 1396.08 98.6392C1386.95 92.0852 1373.79 88.776 1357.6 88.776H1314.37Z" fill="white" stroke="white" stroke-width="1.77111"/>
<path d="M1456.52 149.84C1456.52 100.412 1492.81 64.4012 1542.27 64.4012C1584.12 64.4012 1613.02 88.357 1621.92 122.006H1601.62C1594.32 98.6045 1572.75 82.5987 1542.62 82.5987C1504.2 82.5987 1476.41 110.662 1476.41 149.84C1476.41 189.02 1504.47 217.081 1542.62 217.081C1573.62 217.081 1596.94 199.086 1603.33 175.466H1623.64C1616.06 208.893 1585.09 235.279 1542.27 235.279C1492.9 235.279 1456.52 199.18 1456.52 149.84Z" fill="white" stroke="white" stroke-width="1.77111"/>
<path d="M1624.01 175.183L1623.76 176.27C1615.43 211.895 1582.85 235.623 1542.28 235.623C1492.46 235.623 1456.26 199.533 1456.26 149.827C1456.26 100.15 1492.42 64.0729 1542.19 64.0302M1624.01 175.183L1542.19 64.0302M1624.01 175.183H1622.9H1603.8H1603.13L1602.95 175.832C1596.18 200.293 1572.19 216.799 1542.63 216.799C1504.41 216.799 1476.69 188.669 1476.69 149.827C1476.69 110.984 1504.41 82.8542 1542.63 82.8542C1571.22 82.8542 1593.55 97.6879 1601.19 121.557L1601.39 122.173H1602.03H1621.13H1622.29L1621.98 121.053C1612.32 85.8388 1581.92 64.0626 1542.28 64.0302L1624.01 175.183ZM1542.19 64.0302C1542.2 64.0302 1542.22 64.0302 1542.23 64.0302C1542.22 64.0302 1542.2 64.0302 1542.19 64.0302ZM1602.18 174.255L1602.19 174.245L1602.19 174.235L1602.3 173.773H1625.53L1625.39 174.473C1625.39 174.475 1625.39 174.476 1625.39 174.478C1617.62 211.559 1584.26 236.591 1542.36 236.591H1541.82L1541.73 236.766C1491.49 236.504 1455.12 200.047 1455.12 149.827C1455.12 99.4244 1491.76 62.8856 1542.28 62.8856C1583.28 62.8856 1614.45 85.7978 1623.71 122.646C1623.72 122.648 1623.72 122.65 1623.72 122.652L1623.9 123.406H1600.64L1600.49 122.964C1593.28 98.942 1571.06 83.9988 1542.72 83.9988C1505.18 83.9988 1477.92 111.71 1477.92 149.738C1477.92 187.766 1505.18 215.478 1542.72 215.478C1571.94 215.478 1595.88 199.023 1602.18 174.255Z" fill="white" stroke="white" stroke-width="1.77111"/>
<path d="M1809.38 147.182V68.8113H1831.92V252.059H1809.38V169.271V168.385H1808.49H1701H1700.12V169.271V252.059H1677.58V68.8113H1700.12V147.182V148.067H1701H1808.49H1809.38V147.182Z" fill="white" stroke="white" stroke-width="1.77111"/>
<path d="M1385.05 172.971C1384.76 172.558 1384.6 172.308 1384.55 172.237L1385.05 172.971ZM1385.05 172.971L1375.88 178.946M1385.05 172.971L1375.88 178.946M1375.88 178.946L1366.72 184.909M1375.88 178.946L1366.72 184.909M1366.72 184.909C1369.49 189.033 1382.61 207.782 1404.65 227.913C1428.63 249.806 1463.11 273.286 1506.3 281.418L1506.3 281.419C1516.77 283.44 1527.23 284.407 1537.69 284.407H1538.58V284.493C1578.67 284.282 1619.14 269.784 1659.42 241.173L1646.66 223.351L1366.72 184.909Z" fill="white" stroke="white" stroke-width="1.77111"/>
<path d="M43.9342 207.169H43.3367L43.1131 207.723L24.8614 252.938H1.32302L76.881 69.6902H101.33L176.626 252.938H151.936L133.685 207.723L132.952 208.019V207.169H132.864H131.551H43.9342ZM124.377 187.47H125.686L125.199 186.255L89.3978 96.838L88.5787 94.7923L87.7544 96.8359L51.6877 186.253L51.1969 187.47H52.5089H124.377Z" fill="white" stroke="white" stroke-width="1.77111"/>
<path d="M269.261 69.6932C292.736 69.8486 311.276 76.1924 323.976 87.1143C336.821 98.1608 343.778 113.964 343.778 133.04C343.778 152.116 336.821 167.919 323.976 178.966C311.117 190.025 292.27 196.39 268.376 196.39H227.005H226.119V197.275V253.026H203.581V69.7786H268.376H269.261V69.6932ZM227.005 89.9199H226.119V90.8055V175.363V176.248H227.005H266.519C283.384 176.248 297.06 172.537 306.54 165.252C316.054 157.942 321.24 147.11 321.24 133.128V133.04C321.24 119.058 316.054 108.226 306.54 100.916C297.06 93.6316 283.384 89.9199 266.519 89.9199H227.005Z" fill="white" stroke="white" stroke-width="1.77111"/>
<path d="M588.119 252.938H565.581V69.6902H588.119V252.938Z" fill="white" stroke="white" stroke-width="1.77111"/>
<path d="M662.725 231.911V232.797H663.61H770.306V252.938H640.186V69.6902H662.725V231.911Z" fill="white" stroke="white" stroke-width="1.77111"/>
<path d="M394.776 188.44V252.938H372.237V69.6902H440.656C463.856 69.6902 482.178 75.4879 494.682 85.7147C507.165 95.9246 513.937 110.618 513.937 128.622C513.937 141.491 510.47 152.679 503.896 161.756C497.32 170.833 487.6 177.848 475.013 182.303L473.948 182.681L474.569 183.625L520.164 252.938H493.739L451.922 187.521L451.636 187.074L451.108 187.115C447.675 187.379 444.251 187.554 440.745 187.554H395.661H394.776V188.44ZM395.661 89.6549H394.776V90.5404V166.792V167.678H395.661H438.888C455.035 167.678 468.193 164.368 477.338 157.815C486.525 151.232 491.576 141.435 491.576 128.711V128.622C491.576 115.899 486.548 106.102 477.372 99.518C468.237 92.9641 455.079 89.6549 438.888 89.6549H395.661Z" fill="white" stroke="white" stroke-width="1.77111"/>
<path d="M802.367 0V92.3553" stroke="white" stroke-width="10"/>
<path d="M756.191 46.1758L848.548 46.1758" stroke="white" stroke-width="10"/>
<path d="M769.715 13.5234L835.021 78.8285" stroke="white" stroke-width="10"/>
<path d="M835.047 13.5234L769.741 78.8285" stroke="white" stroke-width="10"/>
</svg>
