<svg width="775" height="230" viewBox="0 0 775 230" fill="none" xmlns="http://www.w3.org/2000/svg">
<path d="M66.7623 215.848C74.3635 215.848 81.4368 214.792 87.9822 212.68C94.5277 210.569 100.229 207.613 105.085 203.812C110.152 199.801 114.058 195.155 116.803 189.877C119.759 184.387 121.237 178.37 121.237 171.824V156.622C115.114 154.933 108.146 153.349 100.334 151.871C92.5218 150.393 83.5482 149.654 73.4133 149.654C58.211 149.654 46.387 152.716 37.9413 158.839C29.7067 164.751 25.5894 172.669 25.5894 182.592V183.226C25.5894 188.293 26.6451 192.938 28.7565 197.161C31.0791 201.173 34.1407 204.551 37.9413 207.296C41.7418 210.041 46.0703 212.153 50.9266 213.631C55.994 215.109 61.2726 215.848 66.7623 215.848ZM62.0116 235.484C54.4104 235.484 46.9148 234.428 39.5248 232.317C32.1348 230.205 25.5894 227.038 19.8885 222.815C14.1876 218.381 9.54248 212.997 5.95304 206.663C2.57475 200.329 0.885603 192.938 0.885603 184.493V183.859C0.885603 174.991 2.57475 167.285 5.95304 160.739C9.33133 153.983 14.0821 148.387 20.2052 143.953C26.5395 139.519 33.9295 136.141 42.3753 133.818C51.0321 131.496 60.5336 130.335 70.8796 130.335C81.4368 130.335 90.5159 130.968 98.1171 132.235C105.929 133.502 113.531 135.191 120.921 137.302V132.235C120.921 117.666 116.698 106.686 108.252 99.2964C99.8062 91.6953 87.8766 87.8947 72.4632 87.8947C62.7506 87.8947 53.8826 88.9504 45.8591 91.0618C38.0468 93.1733 30.3401 96.0237 22.7389 99.6132L15.4545 79.6601C24.5337 75.4372 33.7184 72.0589 43.0087 69.5252C52.299 66.9915 62.9617 65.7246 74.9969 65.7246C98.2227 65.7246 115.853 71.7422 127.888 83.7774C139.29 95.1791 144.991 111.226 144.991 131.918V232H120.921V207.613C115.22 215.003 107.513 221.548 97.8004 227.249C88.2989 232.739 76.3693 235.484 62.0116 235.484ZM247.639 213.631C255.451 213.631 262.841 212.258 269.809 209.513C276.988 206.557 283.111 202.44 288.178 197.161C293.457 191.672 297.574 185.021 300.53 177.208C303.697 169.396 305.281 160.528 305.281 150.604V149.971C305.281 140.258 303.697 131.496 300.53 123.683C297.574 115.871 293.457 109.22 288.178 103.73C282.9 98.2407 276.776 94.0179 269.809 91.0618C262.841 88.1058 255.451 86.6278 247.639 86.6278C240.038 86.6278 232.648 88.2114 225.469 91.3786C218.501 94.3346 212.167 98.663 206.466 104.364C200.976 109.854 196.542 116.505 193.164 124.317C189.997 131.918 188.413 140.364 188.413 149.654V150.288C188.413 159.789 189.997 168.446 193.164 176.258C196.542 184.07 200.976 190.721 206.466 196.211C212.167 201.701 218.501 206.029 225.469 209.197C232.648 212.153 240.038 213.631 247.639 213.631ZM164.976 68.2584H189.363V101.197C192.741 96.3404 196.436 91.6953 200.448 87.2613C204.671 82.8273 209.316 79.0267 214.384 75.8595C219.451 72.4812 225.046 69.842 231.17 67.9417C237.504 65.8302 244.472 64.7745 252.073 64.7745C261.785 64.7745 271.287 66.6748 280.577 70.4754C290.079 74.276 298.524 79.8713 305.914 87.2613C313.304 94.4401 319.216 103.308 323.65 113.865C328.084 124.211 330.301 136.141 330.301 149.654V150.288C330.301 163.59 328.084 175.519 323.65 186.076C319.216 196.633 313.304 205.607 305.914 212.997C298.735 220.176 290.395 225.771 280.894 229.783C271.603 233.584 261.996 235.484 252.073 235.484C244.472 235.484 237.504 234.534 231.17 232.633C224.835 230.733 219.134 228.199 214.067 225.032C208.999 221.865 204.354 218.17 200.131 213.947C196.12 209.724 192.53 205.29 189.363 200.645V282.674H164.976V68.2584ZM343.623 68.2584H368.01V111.015C370.966 104.258 374.661 98.0296 379.095 92.3287C383.529 86.6278 388.597 81.7715 394.297 77.7598C399.998 73.537 406.227 70.3698 412.984 68.2584C419.74 66.1469 427.025 65.1968 434.837 65.4079V91.6953H432.937C424.069 91.6953 415.623 93.2789 407.6 96.446C399.787 99.6131 392.925 104.364 387.013 110.698C381.101 117.032 376.456 124.95 373.078 134.452C369.699 143.742 368.01 154.51 368.01 166.757V232H343.623V68.2584ZM442.525 68.2584H466.912V232H442.525V68.2584ZM440.941 5.54881H468.812V32.4696H440.941V5.54881ZM494.053 0.798091H518.44V232H494.053V0.798091ZM543.364 68.2584H567.751V95.8126C570.496 91.8008 573.452 87.8947 576.619 84.0941C579.997 80.2935 583.798 77.0208 588.021 74.276C592.244 71.3199 596.994 68.9974 602.273 67.3082C607.551 65.6191 613.675 64.7745 620.642 64.7745C633.944 64.7745 644.924 67.9417 653.581 74.276C662.238 80.3991 668.783 88.1058 673.217 97.3961C676.173 92.9621 679.446 88.7393 683.035 84.7275C686.836 80.7158 691.059 77.232 695.704 74.276C700.349 71.3199 705.522 68.9974 711.223 67.3082C717.135 65.6191 723.68 64.7745 730.859 64.7745C749.862 64.7745 764.748 70.6865 775.516 82.5105C786.284 94.1234 791.668 110.17 791.668 130.651V232H767.281V136.352C767.281 120.516 763.481 108.376 755.88 99.9299C748.49 91.273 738.144 86.9445 724.841 86.9445C718.718 86.9445 712.912 88.1058 707.422 90.4284C701.932 92.5399 697.076 95.8126 692.853 100.247C688.842 104.469 685.569 109.748 683.035 116.082C680.713 122.417 679.551 129.595 679.551 137.619V232H655.481V135.719C655.481 120.305 651.68 108.376 644.079 99.9299C636.689 91.273 626.449 86.9445 613.358 86.9445C606.812 86.9445 600.795 88.2114 595.305 90.7451C589.815 93.2789 584.959 96.8683 580.736 101.513C576.724 106.159 573.557 111.648 571.235 117.983C568.912 124.106 567.751 130.968 567.751 138.569V232H543.364V68.2584ZM866.468 215.848C874.069 215.848 881.142 214.792 887.687 212.68C894.233 210.569 899.934 207.613 904.79 203.812C909.857 199.801 913.764 195.155 916.508 189.877C919.464 184.387 920.942 178.37 920.942 171.824V156.622C914.819 154.933 907.852 153.349 900.039 151.871C892.227 150.393 883.253 149.654 873.119 149.654C857.916 149.654 846.092 152.716 837.646 158.839C829.412 164.751 825.295 172.669 825.295 182.592V183.226C825.295 188.293 826.35 192.938 828.462 197.161C830.784 201.173 833.846 204.551 837.646 207.296C841.447 210.041 845.775 212.153 850.632 213.631C855.699 215.109 860.978 215.848 866.468 215.848ZM861.717 235.484C854.116 235.484 846.62 234.428 839.23 232.317C831.84 230.205 825.295 227.038 819.594 222.815C813.893 218.381 809.248 212.997 805.658 206.663C802.28 200.329 800.591 192.938 800.591 184.493V183.859C800.591 174.991 802.28 167.285 805.658 160.739C809.037 153.983 813.787 148.387 819.91 143.953C826.245 139.519 833.635 136.141 842.08 133.818C850.737 131.496 860.239 130.335 870.585 130.335C881.142 130.335 890.221 130.968 897.822 132.235C905.635 133.502 913.236 135.191 920.626 137.302V132.235C920.626 117.666 916.403 106.686 907.957 99.2964C899.511 91.6953 887.582 87.8947 872.168 87.8947C862.456 87.8947 853.588 88.9504 845.564 91.0618C837.752 93.1733 830.045 96.0237 822.444 99.6132L815.16 79.6601C824.239 75.4372 833.424 72.0589 842.714 69.5252C852.004 66.9915 862.667 65.7246 874.702 65.7246C897.928 65.7246 915.558 71.7422 927.593 83.7774C938.995 95.1791 944.696 111.226 944.696 131.918V232H920.626V207.613C914.925 215.003 907.218 221.548 897.506 227.249C888.004 232.739 876.075 235.484 861.717 235.484ZM964.681 68.2584H989.068V111.015C992.024 104.258 995.719 98.0296 1000.15 92.3287C1004.59 86.6278 1009.65 81.7715 1015.36 77.7598C1021.06 73.537 1027.29 70.3698 1034.04 68.2584C1040.8 66.1469 1048.08 65.1968 1055.9 65.4079V91.6953H1053.99C1045.13 91.6953 1036.68 93.2789 1028.66 96.446C1020.85 99.6131 1013.98 104.364 1008.07 110.698C1002.16 117.032 997.514 124.95 994.136 134.452C990.758 143.742 989.068 154.51 989.068 166.757V232H964.681V68.2584Z" fill="white"/>
<path d="M87.9822 212.68L88.2738 213.584L87.9822 212.68ZM105.085 203.812L105.67 204.56L105.674 204.557L105.085 203.812ZM116.803 189.877L115.967 189.427L115.961 189.439L116.803 189.877ZM121.237 156.622H122.187V155.899L121.49 155.706L121.237 156.622ZM100.334 151.871L100.511 150.938L100.334 151.871ZM37.9412 158.839L38.4952 159.61L38.4988 159.608L37.9412 158.839ZM28.7565 197.161L27.9069 197.586L27.9199 197.612L27.9345 197.637L28.7565 197.161ZM37.9412 207.296L37.3851 208.066L37.9412 207.296ZM50.9266 213.631L50.65 214.539L50.6606 214.542L50.9266 213.631ZM39.5248 232.317L39.7858 231.403L39.5248 232.317ZM19.8885 222.815L19.3053 223.565L19.3141 223.572L19.3231 223.579L19.8885 222.815ZM5.95304 206.663L5.1149 207.11L5.12062 207.121L5.12662 207.131L5.95304 206.663ZM5.95304 160.739L6.7972 161.175L6.80265 161.164L5.95304 160.739ZM20.2052 143.953L19.6605 143.175L19.6543 143.179L19.6481 143.184L20.2052 143.953ZM42.3753 133.818L42.1291 132.901L42.1234 132.902L42.3753 133.818ZM98.1171 132.235L97.9609 133.172L97.965 133.172L98.1171 132.235ZM120.921 137.302L120.66 138.216L121.87 138.562V137.302H120.921ZM108.252 99.2964L107.616 100.003L107.626 100.011L108.252 99.2964ZM45.8591 91.0618L45.6174 90.1432L45.6113 90.1449L45.8591 91.0618ZM22.7389 99.6132L21.8466 99.9389L22.2035 100.916L23.1445 100.472L22.7389 99.6132ZM15.4545 79.6601L15.0539 78.7988L14.2631 79.1666L14.5622 79.9859L15.4545 79.6601ZM43.0087 69.5252L43.2586 70.4417L43.0087 69.5252ZM127.888 83.7774L127.217 84.4491L127.888 83.7774ZM144.991 232V232.95H145.941V232H144.991ZM120.921 232H119.971V232.95H120.921V232ZM120.921 207.613H121.87V204.826L120.168 207.033L120.921 207.613ZM97.8004 227.249L98.2756 228.072L98.2812 228.068L97.8004 227.249ZM66.7623 216.797C74.4521 216.797 81.6248 215.729 88.2738 213.584L87.6906 211.776C81.2487 213.854 74.2748 214.898 66.7623 214.898V216.797ZM88.2738 213.584C94.9134 211.443 100.716 208.437 105.67 204.56L104.499 203.064C99.7407 206.789 94.1419 209.695 87.6906 211.776L88.2738 213.584ZM105.674 204.557C110.838 200.469 114.834 195.723 117.646 190.315L115.961 189.439C113.283 194.588 109.467 199.132 104.495 203.068L105.674 204.557ZM117.64 190.327C120.674 184.692 122.187 178.519 122.187 171.824H120.287C120.287 178.221 118.845 184.082 115.967 189.427L117.64 190.327ZM122.187 171.824V156.622H120.287V171.824H122.187ZM121.49 155.706C115.336 154.009 108.343 152.419 100.511 150.938L100.158 152.804C107.95 154.279 114.892 155.857 120.985 157.538L121.49 155.706ZM100.511 150.938C92.6269 149.446 83.5922 148.704 73.4133 148.704V150.604C83.5042 150.604 92.4167 151.34 100.158 152.804L100.511 150.938ZM73.4133 148.704C58.0984 148.704 46.0505 151.786 37.3837 158.07L38.4988 159.608C46.7235 153.645 58.3236 150.604 73.4133 150.604V148.704ZM37.3873 158.067C28.9105 164.153 24.6395 172.355 24.6395 182.592H26.5393C26.5393 172.982 30.5028 165.349 38.4952 159.61L37.3873 158.067ZM24.6395 182.592V183.226H26.5393V182.592H24.6395ZM24.6395 183.226C24.6395 188.43 25.7248 193.222 27.9069 197.586L29.6061 196.737C27.5654 192.655 26.5393 188.157 26.5393 183.226H24.6395ZM27.9345 197.637C30.3248 201.766 33.4775 205.244 37.3851 208.066L38.4974 206.526C34.8039 203.859 31.8334 200.58 29.5786 196.685L27.9345 197.637ZM37.3851 208.066C41.2773 210.877 45.7018 213.033 50.65 214.539L51.2031 212.722C46.4388 211.272 42.2063 209.205 38.4974 206.526L37.3851 208.066ZM50.6606 214.542C55.8179 216.047 61.1862 216.797 66.7623 216.797V214.898C61.359 214.898 56.1702 214.17 51.1925 212.719L50.6606 214.542ZM62.0116 234.534C54.4997 234.534 47.0919 233.491 39.7858 231.403L39.2639 233.23C46.7378 235.365 54.3212 236.434 62.0116 236.434V234.534ZM39.7858 231.403C32.4963 229.321 26.0558 226.202 20.4539 222.052L19.3231 223.579C25.123 227.875 31.7734 231.09 39.2639 233.23L39.7858 231.403ZM20.4717 222.065C14.8705 217.709 10.3077 212.421 6.77946 206.195L5.12662 207.131C8.77728 213.573 13.5048 219.054 19.3053 223.565L20.4717 222.065ZM6.79118 206.216C3.4982 200.041 1.83549 192.81 1.83549 184.493H-0.0642853C-0.0642853 193.067 1.65129 200.616 5.1149 207.11L6.79118 206.216ZM1.83549 184.493V183.859H-0.0642853V184.493H1.83549ZM1.83549 183.859C1.83549 175.112 3.50117 167.561 6.79713 161.175L5.10895 160.303C1.64833 167.008 -0.0642853 174.87 -0.0642853 183.859H1.83549ZM6.80265 161.164C10.1125 154.544 14.7629 149.067 20.7623 144.723L19.6481 143.184C13.4012 147.707 8.55014 153.421 5.10344 160.314L6.80265 161.164ZM20.7499 144.731C26.9842 140.367 34.2724 137.032 42.6271 134.734L42.1234 132.902C33.5866 135.25 26.0948 138.671 19.6605 143.175L20.7499 144.731ZM42.6214 134.736C51.1868 132.438 60.6042 131.284 70.8796 131.284V129.385C60.463 129.385 50.8775 130.554 42.1291 132.901L42.6214 134.736ZM70.8796 131.284C81.4022 131.284 90.4263 131.916 97.9609 133.172L98.2732 131.298C90.6056 130.02 81.4714 129.385 70.8796 129.385V131.284ZM97.965 133.172C105.742 134.434 113.306 136.115 120.66 138.216L121.182 136.389C113.755 134.267 106.117 132.57 98.2691 131.297L97.965 133.172ZM121.87 137.302V132.235H119.971V137.302H121.87ZM121.87 132.235C121.87 117.479 117.587 106.202 108.877 98.5816L107.626 100.011C115.809 107.171 119.971 117.853 119.971 132.235H121.87ZM108.887 98.5904C100.213 90.7836 88.0267 86.9448 72.4632 86.9448V88.8446C87.7265 88.8446 99.3992 92.6069 107.617 100.002L108.887 98.5904ZM72.4632 86.9448C62.6825 86.9448 53.7318 88.0079 45.6174 90.1432L46.1009 91.9805C54.0333 89.893 62.8187 88.8446 72.4632 88.8446V86.9448ZM45.6113 90.1449C37.7427 92.2715 29.9833 95.1417 22.3333 98.7542L23.1445 100.472C30.6969 96.9057 38.3509 94.0751 46.107 91.9788L45.6113 90.1449ZM23.6312 99.2874L16.3468 79.3344L14.5622 79.9859L21.8466 99.9389L23.6312 99.2874ZM15.8551 80.5214C24.8876 76.3202 34.022 72.9607 43.2586 70.4417L42.7588 68.6088C33.4148 71.1572 24.1797 74.5543 15.0539 78.7988L15.8551 80.5214ZM43.2586 70.4417C52.4502 67.9349 63.0261 66.6745 74.9969 66.6745V64.7748C62.8974 64.7748 52.1478 66.0482 42.7588 68.6088L43.2586 70.4417ZM74.9969 66.6745C98.0648 66.6745 115.417 72.6491 127.217 84.4491L128.56 83.1057C116.29 70.8354 98.3805 64.7748 74.9969 64.7748V66.6745ZM127.217 84.4491C138.394 95.626 144.041 111.403 144.041 131.918H145.941C145.941 111.049 140.187 94.7323 128.56 83.1057L127.217 84.4491ZM144.041 131.918V232H145.941V131.918H144.041ZM144.991 231.05H120.921V232.95H144.991V231.05ZM121.87 232V207.613H119.971V232H121.87ZM120.168 207.033C114.556 214.309 106.948 220.778 97.3195 226.43L98.2812 228.068C108.078 222.318 115.884 215.697 121.673 208.193L120.168 207.033ZM97.3252 226.427C88.0061 231.811 76.2526 234.534 62.0116 234.534V236.434C76.4861 236.434 88.5917 233.667 98.2756 228.072L97.3252 226.427ZM269.809 209.513L270.157 210.397L270.164 210.394L270.17 210.392L269.809 209.513ZM288.178 197.161L287.493 196.503L287.493 196.504L288.178 197.161ZM300.53 177.208L299.65 176.851L299.646 176.862L299.642 176.872L300.53 177.208ZM300.53 123.683L299.642 124.02L299.646 124.03L299.65 124.04L300.53 123.683ZM288.178 103.73L288.863 103.072L288.178 103.73ZM269.809 91.0618L270.18 90.1874L269.809 91.0618ZM225.469 91.3786L225.84 92.2531L225.852 92.2476L225.469 91.3786ZM206.466 104.364L205.794 103.692L206.466 104.364ZM193.164 124.317L192.292 123.94L192.287 123.952L193.164 124.317ZM193.164 176.258L192.283 176.615L192.288 176.625L192.292 176.635L193.164 176.258ZM206.466 196.211L205.794 196.883L205.8 196.889L205.807 196.895L206.466 196.211ZM225.469 209.197L225.076 210.061L225.091 210.068L225.107 210.075L225.469 209.197ZM164.976 68.2584V67.3085H164.026V68.2584H164.976ZM189.363 68.2584H190.313V67.3085H189.363V68.2584ZM189.363 101.197H188.413V104.226L190.143 101.739L189.363 101.197ZM200.448 87.2613L199.76 86.6062L199.752 86.615L199.744 86.624L200.448 87.2613ZM214.384 75.8595L214.887 76.665L214.899 76.6576L214.911 76.6499L214.384 75.8595ZM231.17 67.9417L231.451 68.8489L231.461 68.8459L231.47 68.8428L231.17 67.9417ZM280.577 70.4754L280.217 71.3546L280.224 71.3573L280.577 70.4754ZM305.914 87.2613L305.243 87.933L305.252 87.9426L305.914 87.2613ZM323.65 113.865L322.774 114.233L322.777 114.24L323.65 113.865ZM323.65 186.076L322.775 185.708V185.709L323.65 186.076ZM305.914 212.997L305.243 212.325L305.914 212.997ZM280.894 229.783L281.253 230.662L281.263 230.658L280.894 229.783ZM231.17 232.633L231.442 231.724L231.17 232.633ZM214.067 225.032L214.57 224.227L214.067 225.032ZM200.131 213.947L199.443 214.601L199.451 214.61L199.46 214.619L200.131 213.947ZM189.363 200.645L190.148 200.11L188.413 197.566V200.645H189.363ZM189.363 282.674V283.624H190.313V282.674H189.363ZM164.976 282.674H164.026V283.624H164.976V282.674ZM247.639 214.58C255.565 214.58 263.074 213.187 270.157 210.397L269.461 208.629C262.608 211.329 255.337 212.681 247.639 212.681V214.58ZM270.17 210.392C277.464 207.388 283.699 203.199 288.863 197.819L287.493 196.504C282.522 201.681 276.512 205.726 269.447 208.635L270.17 210.392ZM288.863 197.82C294.239 192.229 298.422 185.465 301.419 177.544L299.642 176.872C296.727 184.576 292.675 191.114 287.493 196.503L288.863 197.82ZM301.41 177.565C304.631 169.621 306.231 160.629 306.231 150.604H304.331C304.331 160.427 302.764 169.171 299.65 176.851L301.41 177.565ZM306.231 150.604V149.971H304.331V150.604H306.231ZM306.231 149.971C306.231 140.154 304.63 131.268 301.41 123.327L299.65 124.04C302.765 131.723 304.331 140.362 304.331 149.971H306.231ZM301.419 123.347C298.422 115.427 294.239 108.663 288.863 103.072L287.493 104.389C292.675 109.777 296.727 116.316 299.642 124.02L301.419 123.347ZM288.863 103.072C283.496 97.4905 277.266 93.1938 270.18 90.1874L269.438 91.9363C276.287 94.8419 282.303 98.991 287.493 104.389L288.863 103.072ZM270.18 90.1874C263.091 87.18 255.574 85.6779 247.639 85.6779V87.5777C255.328 87.5777 262.591 89.0317 269.438 91.9363L270.18 90.1874ZM247.639 85.6779C239.901 85.6779 232.381 87.2908 225.085 90.5095L225.852 92.2476C232.914 89.132 240.174 87.5777 247.639 87.5777V85.6779ZM225.098 90.5041C218.01 93.5108 211.576 97.9108 205.794 103.692L207.137 105.036C212.758 99.4153 218.991 95.1583 225.84 92.253L225.098 90.5041ZM205.794 103.692C200.212 109.274 195.713 116.028 192.292 123.94L194.036 124.694C197.371 116.981 201.74 110.433 207.137 105.036L205.794 103.692ZM192.287 123.952C189.066 131.682 187.463 140.254 187.463 149.654H189.363C189.363 140.473 190.927 132.154 194.041 124.682L192.287 123.952ZM187.463 149.654V150.288H189.363V149.654H187.463ZM187.463 150.288C187.463 159.896 189.065 168.676 192.283 176.615L194.044 175.901C190.928 168.216 189.363 159.682 189.363 150.288H187.463ZM192.292 176.635C195.713 184.547 200.212 191.301 205.794 196.883L207.137 195.54C201.74 190.142 197.371 183.594 194.036 175.881L192.292 176.635ZM205.807 196.895C211.583 202.457 218.006 206.848 225.076 210.061L225.862 208.332C218.996 205.211 212.75 200.944 207.125 195.527L205.807 196.895ZM225.107 210.075C232.398 213.077 239.911 214.58 247.639 214.58V212.681C240.164 212.681 232.897 211.228 225.83 208.318L225.107 210.075ZM164.976 69.2083H189.363V67.3085H164.976V69.2083ZM188.413 68.2584V101.197H190.313V68.2584H188.413ZM190.143 101.739C193.498 96.9164 197.168 92.3029 201.153 87.8986L199.744 86.624C195.705 91.0876 191.985 95.7644 188.583 100.654L190.143 101.739ZM201.136 87.9164C205.305 83.5386 209.889 79.7889 214.887 76.665L213.88 75.054C208.744 78.2644 204.037 82.1159 199.76 86.6062L201.136 87.9164ZM214.911 76.6499C219.898 73.3247 225.41 70.7236 231.451 68.8489L230.888 67.0345C224.682 68.9603 219.004 71.6378 213.857 75.0692L214.911 76.6499ZM231.47 68.8428C237.695 66.7678 244.56 65.7244 252.073 65.7244V63.8246C244.383 63.8246 237.313 64.8927 230.869 67.0405L231.47 68.8428ZM252.073 65.7244C261.658 65.7244 271.037 67.5991 280.217 71.3545L280.937 69.5962C271.536 65.7505 261.913 63.8246 252.073 63.8246V65.7244ZM280.224 71.3573C289.604 75.1091 297.942 80.6319 305.243 87.9329L306.586 86.5896C299.107 79.1106 290.553 73.4428 280.93 69.5934L280.224 71.3573ZM305.252 87.9426C312.541 95.023 318.384 103.781 322.775 114.233L324.526 113.497C320.048 102.836 314.068 93.8573 306.576 86.5799L305.252 87.9426ZM322.777 114.24C327.151 124.446 329.351 136.244 329.351 149.654H331.251C331.251 136.038 329.017 123.977 324.523 113.491L322.777 114.24ZM329.351 149.654V150.288H331.251V149.654H329.351ZM329.351 150.288C329.351 163.483 327.152 175.285 322.775 185.708L324.526 186.444C329.016 175.753 331.251 163.696 331.251 150.288H329.351ZM322.775 185.709C318.384 196.163 312.538 205.031 305.243 212.325L306.586 213.669C314.071 206.184 320.049 197.104 324.526 186.444L322.775 185.709ZM305.243 212.325C298.152 219.416 289.915 224.943 280.524 228.908L281.263 230.658C290.876 226.599 299.319 220.936 306.586 213.669L305.243 212.325ZM280.534 228.904C271.357 232.658 261.872 234.534 252.073 234.534V236.434C262.121 236.434 271.85 234.509 281.253 230.662L280.534 228.904ZM252.073 234.534C244.551 234.534 237.676 233.594 231.442 231.724L230.897 233.543C237.331 235.474 244.393 236.434 252.073 236.434V234.534ZM231.442 231.724C225.181 229.845 219.559 227.345 214.57 224.227L213.563 225.838C218.71 229.054 224.49 231.621 230.897 233.543L231.442 231.724ZM214.57 224.227C209.564 221.098 204.975 217.448 200.803 213.276L199.46 214.619C203.734 218.893 208.435 222.633 213.563 225.838L214.57 224.227ZM200.82 213.293C196.842 209.106 193.285 204.712 190.148 200.11L188.578 201.18C191.775 205.869 195.397 210.343 199.443 214.601L200.82 213.293ZM188.413 200.645V282.674H190.313V200.645H188.413ZM189.363 281.725H164.976V283.624H189.363V281.725ZM165.926 282.674V68.2584H164.026V282.674H165.926ZM343.623 68.2584V67.3085H342.673V68.2584H343.623ZM368.01 68.2584H368.96V67.3085H368.01V68.2584ZM368.01 111.015H367.06L368.88 111.396L368.01 111.015ZM379.095 92.3287L379.845 92.9119L379.095 92.3287ZM394.297 77.7598L394.844 78.5366L394.854 78.53L394.863 78.5231L394.297 77.7598ZM434.837 65.4079H435.787V64.4834L434.863 64.4584L434.837 65.4079ZM434.837 91.6953V92.6452H435.787V91.6953H434.837ZM407.6 96.446L407.251 95.5624L407.243 95.5657L407.6 96.446ZM387.013 110.698L386.319 110.05L387.013 110.698ZM373.078 134.452L373.97 134.776L373.973 134.77L373.078 134.452ZM368.01 232V232.95H368.96V232H368.01ZM343.623 232H342.673V232.95H343.623V232ZM343.623 69.2083H368.01V67.3085H343.623V69.2083ZM367.06 68.2584V111.015H368.96V68.2584H367.06ZM368.88 111.396C371.805 104.71 375.46 98.5492 379.845 92.9119L378.345 91.7455C373.862 97.5099 370.127 103.807 367.14 110.634L368.88 111.396ZM379.845 92.9119C384.223 87.2826 389.223 82.4923 394.844 78.5366L393.751 76.983C387.97 81.0508 382.835 85.9731 378.345 91.7455L379.845 92.9119ZM394.863 78.5231C400.479 74.3633 406.612 71.2447 413.267 69.165L412.7 67.3517C405.842 69.4949 399.518 72.7106 393.732 76.9965L394.863 78.5231ZM413.267 69.165C419.914 67.0879 427.093 66.1489 434.811 66.3575L434.863 64.4584C426.957 64.2447 419.567 65.206 412.7 67.3517L413.267 69.165ZM433.887 65.4079V91.6953H435.787V65.4079H433.887ZM434.837 90.7454H432.937V92.6452H434.837V90.7454ZM432.937 90.7454C423.953 90.7454 415.388 92.3502 407.251 95.5625L407.948 97.3295C415.858 94.2075 424.185 92.6452 432.937 92.6452V90.7454ZM407.243 95.5657C399.299 98.7862 392.322 103.618 386.319 110.05L387.707 111.346C393.528 105.11 400.276 100.44 407.956 97.3263L407.243 95.5657ZM386.319 110.05C380.305 116.494 375.597 124.529 372.183 134.134L373.973 134.77C377.314 125.371 381.898 117.571 387.707 111.346L386.319 110.05ZM372.185 134.127C368.761 143.543 367.06 154.425 367.06 166.757H368.96C368.96 154.596 370.638 143.941 373.97 134.776L372.185 134.127ZM367.06 166.757V232H368.96V166.757H367.06ZM368.01 231.05H343.623V232.95H368.01V231.05ZM344.573 232V68.2584H342.673V232H344.573ZM442.525 68.2584V67.3085H441.575V68.2584H442.525ZM466.912 68.2584H467.862V67.3085H466.912V68.2584ZM466.912 232V232.95H467.862V232H466.912ZM442.525 232H441.575V232.95H442.525V232ZM440.941 5.54881V4.59892H439.991V5.54881H440.941ZM468.812 5.54881H469.762V4.59892H468.812V5.54881ZM468.812 32.4696V33.4195H469.762V32.4696H468.812ZM440.941 32.4696H439.991V33.4195H440.941V32.4696ZM442.525 69.2083H466.912V67.3085H442.525V69.2083ZM465.962 68.2584V232H467.862V68.2584H465.962ZM466.912 231.05H442.525V232.95H466.912V231.05ZM443.475 232V68.2584H441.575V232H443.475ZM440.941 6.4987H468.812V4.59892H440.941V6.4987ZM467.862 5.54881V32.4696H469.762V5.54881H467.862ZM468.812 31.5197H440.941V33.4195H468.812V31.5197ZM441.891 32.4696V5.54881H439.991V32.4696H441.891ZM494.053 0.798091V-0.151796H493.103V0.798091H494.053ZM518.44 0.798091H519.39V-0.151796H518.44V0.798091ZM518.44 232V232.95H519.39V232H518.44ZM494.053 232H493.103V232.95H494.053V232ZM494.053 1.74798H518.44V-0.151796H494.053V1.74798ZM517.49 0.798091V232H519.39V0.798091H517.49ZM518.44 231.05H494.053V232.95H518.44V231.05ZM495.003 232V0.798091H493.103V232H495.003ZM543.364 68.2584V67.3085H542.414V68.2584H543.364ZM567.751 68.2584H568.701V67.3085H567.751V68.2584ZM567.751 95.8126H566.801V98.883L568.535 96.349L567.751 95.8126ZM576.619 84.0941L575.909 83.4631L575.899 83.4744L575.889 83.486L576.619 84.0941ZM588.021 74.276L588.538 75.0724L588.552 75.0635L588.565 75.0541L588.021 74.276ZM602.273 67.3082L601.983 66.4035H601.983L602.273 67.3082ZM653.581 74.276L653.02 75.0425L653.026 75.0471L653.032 75.0515L653.581 74.276ZM673.217 97.3961L672.36 97.8053L673.08 99.3142L674.007 97.923L673.217 97.3961ZM683.035 84.7275L682.346 84.0743L682.336 84.0841L682.327 84.0942L683.035 84.7275ZM695.704 74.276L696.214 75.0773L695.704 74.276ZM711.223 67.3082L710.962 66.3948L710.953 66.3975L711.223 67.3082ZM775.516 82.5105L774.814 83.1502L774.819 83.1564L775.516 82.5105ZM791.668 232V232.95H792.618V232H791.668ZM767.281 232H766.331V232.95H767.281V232ZM755.88 99.9299L755.157 100.547L755.165 100.556L755.174 100.565L755.88 99.9299ZM707.422 90.4284L707.763 91.315L707.778 91.3093L707.792 91.3032L707.422 90.4284ZM692.853 100.247L692.165 99.5915L692.165 99.5923L692.853 100.247ZM683.035 116.082L682.153 115.73L682.148 115.742L682.143 115.755L683.035 116.082ZM679.551 232V232.95H680.501V232H679.551ZM655.481 232H654.531V232.95H655.481V232ZM644.079 99.9299L643.357 100.547L643.365 100.556L643.373 100.565L644.079 99.9299ZM595.305 90.7451L595.703 91.6076L595.305 90.7451ZM580.736 101.513L580.033 100.874L580.025 100.883L580.017 100.893L580.736 101.513ZM571.235 117.983L572.123 118.32L572.127 118.31L571.235 117.983ZM567.751 232V232.95H568.701V232H567.751ZM543.364 232H542.414V232.95H543.364V232ZM543.364 69.2083H567.751V67.3085H543.364V69.2083ZM566.801 68.2584V95.8126H568.701V68.2584H566.801ZM568.535 96.349C571.262 92.3624 574.2 88.4802 577.349 84.7022L575.889 83.486C572.703 87.3092 569.729 91.2393 566.967 95.2762L568.535 96.349ZM577.329 84.7252C580.651 80.9875 584.387 77.7705 588.538 75.0724L587.503 73.4795C583.208 76.2711 579.343 79.5996 575.909 83.4631L577.329 84.7252ZM588.565 75.0541C592.704 72.1569 597.368 69.8751 602.562 68.2129L601.983 66.4035C596.621 68.1196 591.783 70.483 587.476 73.4978L588.565 75.0541ZM602.562 68.2129C607.727 66.5603 613.749 65.7244 620.642 65.7244V63.8246C613.6 63.8246 607.376 64.6779 601.983 66.4035L602.562 68.2129ZM620.642 65.7244C633.792 65.7244 644.561 68.8534 653.02 75.0425L654.142 73.5094C645.286 67.0299 634.097 63.8246 620.642 63.8246V65.7244ZM653.032 75.0515C661.561 81.0838 667.998 88.666 672.36 97.8053L674.074 96.987C669.568 87.5457 662.914 79.7144 654.129 73.5005L653.032 75.0515ZM674.007 97.923C676.938 93.5268 680.183 89.3395 683.743 85.3609L682.327 84.0942C678.708 88.139 675.408 92.3975 672.427 96.8692L674.007 97.923ZM683.725 85.3808C687.472 81.4254 691.635 77.9914 696.214 75.0773L695.194 73.4746C690.483 76.4725 686.2 80.0062 682.346 84.0743L683.725 85.3808ZM696.214 75.0773C700.779 72.1724 705.87 69.885 711.493 68.219L710.953 66.3975C705.174 68.1097 699.919 70.4675 695.194 73.4746L696.214 75.0773ZM711.484 68.2216C717.298 66.5603 723.754 65.7244 730.859 65.7244V63.8246C723.606 63.8246 716.971 64.6778 710.962 66.3949L711.484 68.2216ZM730.859 65.7244C749.649 65.7244 764.259 71.561 774.814 83.1501L776.218 81.8709C765.236 69.8121 750.074 63.8246 730.859 63.8246V65.7244ZM774.819 83.1564C785.381 94.5469 790.718 110.337 790.718 130.651H792.618C792.618 110.003 787.187 93.7 776.212 81.8647L774.819 83.1564ZM790.718 130.651V232H792.618V130.651H790.718ZM791.668 231.05H767.281V232.95H791.668V231.05ZM768.231 232V136.352H766.331V232H768.231ZM768.231 136.352C768.231 120.374 764.396 107.973 756.586 99.2944L755.174 100.565C762.565 108.778 766.331 120.659 766.331 136.352H768.231ZM756.602 99.3131C749 90.4083 738.37 85.9947 724.841 85.9947V87.8944C737.917 87.8944 747.979 92.1377 755.157 100.547L756.602 99.3131ZM724.841 85.9947C718.595 85.9947 712.662 87.1801 707.052 89.5536L707.792 91.3032C713.162 89.0316 718.842 87.8944 724.841 87.8944V85.9947ZM707.081 89.5418C701.455 91.7059 696.481 95.0599 692.165 99.5915L693.541 100.902C697.671 96.5653 702.41 93.3738 707.763 91.315L707.081 89.5418ZM692.165 99.5923C688.057 103.916 684.724 109.302 682.153 115.73L683.917 116.435C686.414 110.194 689.626 105.023 693.542 100.901L692.165 99.5923ZM682.143 115.755C679.776 122.212 678.601 129.505 678.601 137.619H680.501C680.501 129.686 681.649 122.621 683.927 116.409L682.143 115.755ZM678.601 137.619V232H680.501V137.619H678.601ZM679.551 231.05H655.481V232.95H679.551V231.05ZM656.431 232V135.719H654.531V232H656.431ZM656.431 135.719C656.431 120.155 652.592 107.969 644.785 99.2944L643.373 100.565C650.769 108.783 654.531 120.455 654.531 135.719H656.431ZM644.802 99.3131C637.203 90.4119 626.68 85.9947 613.358 85.9947V87.8944C626.217 87.8944 636.175 92.1341 643.357 100.547L644.802 99.3131ZM613.358 85.9947C606.686 85.9947 600.532 87.2867 594.907 89.8827L595.703 91.6076C601.058 89.1361 606.938 87.8944 613.358 87.8944V85.9947ZM594.907 89.8827C589.297 92.4718 584.338 96.1388 580.033 100.874L581.439 102.152C585.58 97.5977 590.333 94.0859 595.703 91.6076L594.907 89.8827ZM580.017 100.893C575.924 105.633 572.701 111.224 570.343 117.656L572.127 118.31C574.414 112.072 577.525 106.685 581.455 102.134L580.017 100.893ZM570.347 117.646C567.977 123.892 566.801 130.871 566.801 138.569H568.701C568.701 131.065 569.847 124.319 572.123 118.32L570.347 117.646ZM566.801 138.569V232H568.701V138.569H566.801ZM567.751 231.05H543.364V232.95H567.751V231.05ZM544.314 232V68.2584H542.414V232H544.314ZM887.687 212.68L887.979 213.584L887.687 212.68ZM904.79 203.812L905.375 204.56L905.38 204.557L904.79 203.812ZM916.508 189.877L915.672 189.427L915.666 189.439L916.508 189.877ZM920.943 156.622H921.892V155.899L921.195 155.706L920.943 156.622ZM900.039 151.871L900.216 150.938L900.039 151.871ZM837.646 158.839L838.2 159.61L838.204 159.608L837.646 158.839ZM828.462 197.161L827.612 197.586L827.625 197.612L827.64 197.637L828.462 197.161ZM837.646 207.296L837.09 208.066L837.646 207.296ZM850.632 213.631L850.355 214.539L850.366 214.542L850.632 213.631ZM839.23 232.317L839.491 231.403L839.23 232.317ZM819.594 222.815L819.01 223.565L819.019 223.572L819.028 223.579L819.594 222.815ZM805.658 206.663L804.82 207.11L804.826 207.121L804.832 207.131L805.658 206.663ZM805.658 160.739L806.502 161.175L806.508 161.164L805.658 160.739ZM819.91 143.953L819.366 143.175L819.359 143.179L819.353 143.184L819.91 143.953ZM842.08 133.818L841.834 132.901L841.829 132.902L842.08 133.818ZM897.822 132.235L897.666 133.172L897.67 133.172L897.822 132.235ZM920.626 137.302L920.365 138.216L921.576 138.562V137.302H920.626ZM907.957 99.2964L907.322 100.003L907.332 100.011L907.957 99.2964ZM845.564 91.0618L845.323 90.1432L845.316 90.1449L845.564 91.0618ZM822.444 99.6132L821.552 99.9389L821.909 100.916L822.85 100.472L822.444 99.6132ZM815.16 79.6601L814.759 78.7988L813.968 79.1666L814.267 79.9859L815.16 79.6601ZM842.714 69.5252L842.964 70.4417L842.714 69.5252ZM927.594 83.7774L926.922 84.4491L927.594 83.7774ZM944.696 232V232.95H945.646V232H944.696ZM920.626 232H919.676V232.95H920.626V232ZM920.626 207.613H921.576V204.826L919.874 207.033L920.626 207.613ZM897.506 227.249L897.981 228.072L897.986 228.068L897.506 227.249ZM866.468 216.797C874.157 216.797 881.33 215.729 887.979 213.584L887.396 211.776C880.954 213.854 873.98 214.898 866.468 214.898V216.797ZM887.979 213.584C894.619 211.443 900.422 208.437 905.375 204.56L904.205 203.064C899.446 206.789 893.847 209.695 887.396 211.776L887.979 213.584ZM905.38 204.557C910.543 200.469 914.539 195.723 917.351 190.315L915.666 189.439C912.988 194.588 909.172 199.132 904.2 203.068L905.38 204.557ZM917.345 190.327C920.379 184.692 921.892 178.519 921.892 171.824H919.993C919.993 178.221 918.55 184.082 915.672 189.427L917.345 190.327ZM921.892 171.824V156.622H919.993V171.824H921.892ZM921.195 155.706C915.042 154.009 908.048 152.419 900.216 150.938L899.863 152.804C907.656 154.279 914.597 155.857 920.69 157.538L921.195 155.706ZM900.216 150.938C892.332 149.446 883.297 148.704 873.119 148.704V150.604C883.209 150.604 892.122 151.34 899.863 152.804L900.216 150.938ZM873.119 148.704C857.804 148.704 845.756 151.786 837.089 158.07L838.204 159.608C846.429 153.645 858.029 150.604 873.119 150.604V148.704ZM837.092 158.067C828.616 164.153 824.345 172.355 824.345 182.592H826.244C826.244 172.982 830.208 165.349 838.2 159.61L837.092 158.067ZM824.345 182.592V183.226H826.244V182.592H824.345ZM824.345 183.226C824.345 188.43 825.43 193.222 827.612 197.586L829.311 196.737C827.271 192.655 826.244 188.157 826.244 183.226H824.345ZM827.64 197.637C830.03 201.766 833.183 205.244 837.09 208.066L838.203 206.526C834.509 203.859 831.539 200.58 829.284 196.685L827.64 197.637ZM837.09 208.066C840.983 210.877 845.407 213.033 850.355 214.539L850.908 212.722C846.144 211.272 841.911 209.205 838.203 206.526L837.09 208.066ZM850.366 214.542C855.523 216.047 860.891 216.797 866.468 216.797V214.898C861.064 214.898 855.875 214.17 850.898 212.719L850.366 214.542ZM861.717 234.534C854.205 234.534 846.797 233.491 839.491 231.403L838.969 233.23C846.443 235.365 854.026 236.434 861.717 236.434V234.534ZM839.491 231.403C832.201 229.321 825.761 226.202 820.159 222.052L819.028 223.579C824.828 227.875 831.479 231.09 838.969 233.23L839.491 231.403ZM820.177 222.065C814.576 217.709 810.013 212.421 806.485 206.195L804.832 207.131C808.482 213.573 813.21 219.054 819.01 223.565L820.177 222.065ZM806.496 206.216C803.203 200.041 801.541 192.81 801.541 184.493H799.641C799.641 193.067 801.357 200.616 804.82 207.11L806.496 206.216ZM801.541 184.493V183.859H799.641V184.493H801.541ZM801.541 183.859C801.541 175.112 803.206 167.561 806.502 161.175L804.814 160.303C801.354 167.008 799.641 174.87 799.641 183.859H801.541ZM806.508 161.164C809.818 154.544 814.468 149.067 820.468 144.723L819.353 143.184C813.106 147.707 808.255 153.421 804.809 160.314L806.508 161.164ZM820.455 144.731C826.689 140.367 833.978 137.032 842.332 134.734L841.829 132.902C833.292 135.25 825.8 138.671 819.366 143.175L820.455 144.731ZM842.327 134.736C850.892 132.438 860.309 131.284 870.585 131.284V129.385C860.168 129.385 850.583 130.554 841.834 132.901L842.327 134.736ZM870.585 131.284C881.107 131.284 890.132 131.916 897.666 133.172L897.978 131.298C890.311 130.02 881.177 129.385 870.585 129.385V131.284ZM897.67 133.172C905.447 134.434 913.012 136.115 920.365 138.216L920.887 136.389C913.46 134.267 905.822 132.57 897.974 131.297L897.67 133.172ZM921.576 137.302V132.235H919.676V137.302H921.576ZM921.576 132.235C921.576 117.479 917.292 106.202 908.583 98.5816L907.332 100.011C915.514 107.171 919.676 117.853 919.676 132.235H921.576ZM908.593 98.5904C899.918 90.7836 887.732 86.9448 872.168 86.9448V88.8446C887.432 88.8446 899.104 92.6069 907.322 100.002L908.593 98.5904ZM872.168 86.9448C862.388 86.9448 853.437 88.0079 845.323 90.1432L845.806 91.9805C853.739 89.893 862.524 88.8446 872.168 88.8446V86.9448ZM845.316 90.1449C837.448 92.2715 829.688 95.1417 822.039 98.7542L822.85 100.472C830.402 96.9057 838.056 94.0751 845.812 91.9788L845.316 90.1449ZM823.336 99.2874L816.052 79.3344L814.267 79.9859L821.552 99.9389L823.336 99.2874ZM815.56 80.5214C824.593 76.3202 833.727 72.9607 842.964 70.4417L842.464 68.6088C833.12 71.1572 823.885 74.5543 814.759 78.7988L815.56 80.5214ZM842.964 70.4417C852.155 67.9349 862.731 66.6745 874.702 66.6745V64.7748C862.603 64.7748 851.853 66.0482 842.464 68.6088L842.964 70.4417ZM874.702 66.6745C897.77 66.6745 915.122 72.6491 926.922 84.4491L928.265 83.1057C915.995 70.8354 898.086 64.7748 874.702 64.7748V66.6745ZM926.922 84.4491C938.099 95.626 943.746 111.403 943.746 131.918H945.646C945.646 111.049 939.892 94.7323 928.265 83.1057L926.922 84.4491ZM943.746 131.918V232H945.646V131.918H943.746ZM944.696 231.05H920.626V232.95H944.696V231.05ZM921.576 232V207.613H919.676V232H921.576ZM919.874 207.033C914.261 214.309 906.654 220.778 897.025 226.43L897.986 228.068C907.783 222.318 915.589 215.697 921.378 208.193L919.874 207.033ZM897.03 226.427C887.711 231.811 875.958 234.534 861.717 234.534V236.434C876.191 236.434 888.297 233.667 897.981 228.072L897.03 226.427ZM964.681 68.2584V67.3085H963.731V68.2584H964.681ZM989.068 68.2584H990.018V67.3085H989.068V68.2584ZM989.068 111.015H988.118L989.939 111.396L989.068 111.015ZM1000.15 92.3287L1000.9 92.9119L1000.15 92.3287ZM1015.36 77.7598L1015.9 78.5366L1015.91 78.53L1015.92 78.5231L1015.36 77.7598ZM1055.9 65.4079H1056.85V64.4834L1055.92 64.4584L1055.9 65.4079ZM1055.9 91.6953V92.6452H1056.85V91.6953H1055.9ZM1028.66 96.446L1028.31 95.5624L1028.3 95.5657L1028.66 96.446ZM1008.07 110.698L1007.38 110.05L1008.07 110.698ZM994.136 134.452L995.029 134.776L995.031 134.77L994.136 134.452ZM989.068 232V232.95H990.018V232H989.068ZM964.681 232H963.731V232.95H964.681V232ZM964.681 69.2083H989.068V67.3085H964.681V69.2083ZM988.118 68.2584V111.015H990.018V68.2584H988.118ZM989.939 111.396C992.864 104.71 996.519 98.5492 1000.9 92.9119L999.404 91.7455C994.92 97.5099 991.185 103.807 988.198 110.634L989.939 111.396ZM1000.9 92.9119C1005.28 87.2826 1010.28 82.4923 1015.9 78.5366L1014.81 76.983C1009.03 81.0508 1003.89 85.9731 999.404 91.7455L1000.9 92.9119ZM1015.92 78.5231C1021.54 74.3633 1027.67 71.2447 1034.33 69.165L1033.76 67.3517C1026.9 69.4949 1020.58 72.7106 1014.79 76.9965L1015.92 78.5231ZM1034.33 69.165C1040.97 67.0879 1048.15 66.1489 1055.87 66.3575L1055.92 64.4584C1048.01 64.2447 1040.62 65.206 1033.76 67.3517L1034.33 69.165ZM1054.95 65.4079V91.6953H1056.85V65.4079H1054.95ZM1055.9 90.7454H1053.99V92.6452H1055.9V90.7454ZM1053.99 90.7454C1045.01 90.7454 1036.45 92.3502 1028.31 95.5625L1029.01 97.3295C1036.92 94.2075 1045.24 92.6452 1053.99 92.6452V90.7454ZM1028.3 95.5657C1020.36 98.7862 1013.38 103.618 1007.38 110.05L1008.77 111.346C1014.59 105.11 1021.33 100.44 1029.01 97.3263L1028.3 95.5657ZM1007.38 110.05C1001.36 116.494 996.656 124.529 993.241 134.134L995.031 134.77C998.373 125.371 1002.96 117.571 1008.77 111.346L1007.38 110.05ZM993.243 134.127C989.819 143.543 988.118 154.425 988.118 166.757H990.018C990.018 154.596 991.696 143.941 995.029 134.776L993.243 134.127ZM988.118 166.757V232H990.018V166.757H988.118ZM989.068 231.05H964.681V232.95H989.068V231.05ZM965.631 232V68.2584H963.731V232H965.631Z" fill="white"/>
</svg>
