<svg width="267" height="267" viewBox="0 0 267 267" fill="none" xmlns="http://www.w3.org/2000/svg">
<circle cx="133.959" cy="133.881" r="132.99" fill="#2B2F34"/>
<path d="M38.299 142.883V126.619H45.0254C48.6626 126.619 50.5447 128.287 50.5447 130.748C50.5447 132.615 49.282 133.893 47.519 134.266V134.425C49.4647 134.505 51.18 135.982 51.18 138.348C51.18 140.969 49.1391 142.883 45.5257 142.883H38.299ZM42.1268 139.778H44.6363C46.3834 139.778 47.1775 139.079 47.1775 137.911C47.1775 136.641 46.2325 135.823 44.7078 135.823H42.1268V139.778ZM42.1268 133.329H44.3822C45.6925 133.329 46.6375 132.638 46.6375 131.471C46.6375 130.367 45.7957 129.668 44.4457 129.668H42.1268V133.329ZM53.0389 142.883V130.685H56.7158V132.893H56.8428C57.2876 131.296 58.3676 130.518 59.7018 130.518C60.0591 130.518 60.4641 130.574 60.7818 130.645V133.957C60.4244 133.83 59.7415 133.758 59.2809 133.758C57.8673 133.758 56.827 134.743 56.827 136.204V142.883H53.0389ZM61.3161 139.492C61.3161 136.784 63.4126 135.823 65.8348 135.672C66.7242 135.616 68.2728 135.561 68.7731 135.537L68.7651 134.56C68.7572 133.703 68.1298 133.218 67.1054 133.218C66.0968 133.218 65.4536 133.663 65.3027 134.457H61.7688C61.9435 132.297 63.762 130.526 67.1769 130.526C70.1946 130.526 72.5452 131.963 72.5452 134.608V142.883H68.9796V141.183H68.8843C68.2331 142.414 67.0498 143.097 65.3344 143.097C63.0076 143.097 61.3161 141.914 61.3161 139.492ZM64.9136 139.325C64.9136 140.151 65.5647 140.588 66.4939 140.588C67.7804 140.588 68.7969 139.754 68.789 138.539L68.781 137.761C68.3204 137.776 67.0498 137.84 66.478 137.904C65.5171 137.999 64.9136 138.523 64.9136 139.325ZM78.6574 135.91V142.883H74.8693V130.685H78.4747V132.908H78.6098C79.1498 131.439 80.4998 130.526 82.3104 130.526C84.8676 130.526 86.5432 132.345 86.5353 135.108V142.883H82.7472V135.839C82.7552 134.465 82.0087 133.639 80.7539 133.639C79.4992 133.639 78.6574 134.481 78.6574 135.91ZM93.3919 143.065C90.6839 143.065 88.5 140.929 88.5 136.792C88.5 132.511 90.803 130.526 93.3761 130.526C95.3217 130.526 96.37 131.67 96.8306 132.765H96.91V126.619H100.698V142.883H96.9497V140.913H96.8306C96.3382 142.017 95.2582 143.065 93.3919 143.065ZM92.3834 136.784C92.3834 138.785 93.2093 140.095 94.6864 140.095C96.1397 140.095 96.9973 138.793 96.9973 136.784C96.9973 134.751 96.1476 133.488 94.6864 133.488C93.2013 133.488 92.3834 134.791 92.3834 136.784ZM108.305 142.883V126.619H119.574V129.748H112.132V133.186H118.986V136.307H112.132V139.754H119.574V142.883H108.305ZM125.205 130.685L127.254 134.751L129.374 130.685H133.21L129.779 136.784L133.329 142.883H129.525L127.254 138.801L125.031 142.883H121.179L124.737 136.784L121.346 130.685H125.205ZM134.948 147.457V130.685H138.696V132.765H138.823C139.284 131.67 140.324 130.526 142.278 130.526C144.851 130.526 147.146 132.511 147.146 136.792C147.146 140.929 144.97 143.065 142.262 143.065C140.388 143.065 139.308 142.017 138.823 140.913H138.736V147.457H134.948ZM138.657 136.784C138.657 138.793 139.506 140.095 140.968 140.095C142.445 140.095 143.263 138.785 143.263 136.784C143.263 134.791 142.453 133.488 140.968 133.488C139.498 133.488 138.657 134.751 138.657 136.784ZM154.812 143.113C151.001 143.113 148.666 140.731 148.666 136.831C148.666 133.059 151.032 130.526 154.693 130.526C158.108 130.526 160.57 132.702 160.57 136.744V137.713H152.406V137.792C152.406 139.349 153.351 140.365 154.884 140.365C155.924 140.365 156.695 139.921 156.996 139.206H160.522C160.07 141.58 157.981 143.113 154.812 143.113ZM152.406 135.481H157.036C157.02 134.195 156.083 133.274 154.773 133.274C153.439 133.274 152.462 134.227 152.406 135.481ZM162.528 142.883V130.685H166.205V132.893H166.332C166.777 131.296 167.857 130.518 169.191 130.518C169.548 130.518 169.953 130.574 170.271 130.645V133.957C169.913 133.83 169.231 133.758 168.77 133.758C167.356 133.758 166.316 134.743 166.316 136.204V142.883H162.528ZM171.804 142.883V130.685H175.592V142.883H171.804ZM171.74 127.405C171.74 126.396 172.622 125.578 173.702 125.578C174.782 125.578 175.663 126.396 175.663 127.405C175.663 128.414 174.782 129.232 173.702 129.232C172.622 129.232 171.74 128.414 171.74 127.405ZM183.695 143.113C179.883 143.113 177.548 140.731 177.548 136.831C177.548 133.059 179.915 130.526 183.576 130.526C186.991 130.526 189.453 132.702 189.453 136.744V137.713H181.289V137.792C181.289 139.349 182.234 140.365 183.767 140.365C184.807 140.365 185.577 139.921 185.879 139.206H189.405C188.952 141.58 186.864 143.113 183.695 143.113ZM181.289 135.481H185.919C185.903 134.195 184.966 133.274 183.655 133.274C182.321 133.274 181.344 134.227 181.289 135.481ZM195.199 135.91V142.883H191.411V130.685H195.016V132.908H195.151C195.691 131.439 197.041 130.526 198.852 130.526C201.409 130.526 203.084 132.345 203.077 135.108V142.883H199.289V135.839C199.296 134.465 198.55 133.639 197.295 133.639C196.04 133.639 195.199 134.481 195.199 135.91ZM211.132 143.113C207.289 143.113 204.994 140.548 204.994 136.824C204.994 133.083 207.313 130.526 211.124 130.526C214.468 130.526 216.652 132.464 216.747 135.426H213.205C213.046 134.187 212.308 133.417 211.18 133.417C209.774 133.417 208.853 134.6 208.853 136.784C208.853 138.984 209.766 140.175 211.18 140.175C212.26 140.175 213.046 139.46 213.205 138.166H216.747C216.636 141.136 214.523 143.113 211.132 143.113ZM224.369 143.113C220.557 143.113 218.222 140.731 218.222 136.831C218.222 133.059 220.589 130.526 224.25 130.526C227.665 130.526 230.126 132.702 230.126 136.744V137.713H221.963V137.792C221.963 139.349 222.908 140.365 224.44 140.365C225.481 140.365 226.251 139.921 226.553 139.206H230.079C229.626 141.58 227.537 143.113 224.369 143.113ZM221.963 135.481H226.592C226.577 134.195 225.639 133.274 224.329 133.274C222.995 133.274 222.018 134.227 221.963 135.481Z" fill="#D2FF52"/>
</svg>
