<svg width="267" height="266" viewBox="0 0 267 266" fill="none" xmlns="http://www.w3.org/2000/svg">
<circle cx="133.971" cy="132.99" r="132.99" fill="#2B2F34"/>
<path d="M38.3069 125.728H45.0332C46.2191 125.728 47.2251 125.9 48.051 126.244C48.8822 126.583 49.5069 127.062 49.9251 127.682C50.3434 128.301 50.5525 129.027 50.5525 129.858C50.5525 130.467 50.4228 131.015 50.1634 131.502C49.9093 131.989 49.5545 132.391 49.0992 132.709C48.6439 133.026 48.1198 133.249 47.5268 133.376V133.535C48.1833 133.561 48.7895 133.738 49.3454 134.067C49.9066 134.395 50.354 134.853 50.6875 135.441C51.021 136.023 51.1878 136.695 51.1878 137.458C51.1878 138.336 50.9655 139.12 50.5207 139.808C50.076 140.491 49.4275 141.026 48.5751 141.412C47.7227 141.799 46.7089 141.992 45.5335 141.992H38.3069V125.728ZM44.6441 138.887C45.4965 138.887 46.1318 138.726 46.55 138.403C46.9736 138.08 47.1853 137.619 47.1853 137.021C47.1853 136.597 47.0848 136.229 46.8836 135.917C46.6877 135.605 46.4018 135.364 46.0259 135.194C45.6553 135.02 45.2185 134.932 44.7156 134.932H42.1346V138.887H44.6441ZM44.39 132.439C44.8294 132.439 45.2185 132.365 45.5574 132.216C45.9015 132.068 46.1688 131.854 46.3594 131.573C46.55 131.292 46.6453 130.962 46.6453 130.58C46.6453 130.215 46.5553 129.897 46.3753 129.627C46.2006 129.352 45.9465 129.143 45.6129 129C45.2847 128.852 44.8982 128.778 44.4535 128.778H42.1346V132.439H44.39ZM53.0467 129.794H56.7236V132.002H56.8507C57.0677 131.224 57.4277 130.633 57.9307 130.231C58.4336 129.829 59.0266 129.627 59.7096 129.627C60.0537 129.627 60.4137 129.67 60.7896 129.754V133.066C60.6202 133.008 60.3899 132.96 60.0987 132.923C59.8075 132.886 59.5375 132.868 59.2887 132.868C58.8228 132.868 58.4019 132.971 58.026 133.177C57.6554 133.378 57.3642 133.667 57.1524 134.043C56.9407 134.413 56.8348 134.837 56.8348 135.313V141.992H53.0467V129.794ZM61.3239 138.601C61.3239 137.341 61.7395 136.412 62.5707 135.814C63.4019 135.21 64.4925 134.866 65.8426 134.781C66.4038 134.744 67.1608 134.71 68.1138 134.678L68.7809 134.646L68.7729 133.67C68.7677 133.246 68.6168 132.918 68.3203 132.685C68.0291 132.447 67.6267 132.327 67.1132 132.327C66.6102 132.327 66.2026 132.436 65.8902 132.653C65.5779 132.865 65.3846 133.169 65.3105 133.566H61.7766C61.8348 132.83 62.0783 132.166 62.5072 131.573C62.9413 130.975 63.5528 130.504 64.3416 130.159C65.1358 129.81 66.0835 129.635 67.1847 129.635C68.2065 129.635 69.1224 129.794 69.9324 130.112C70.7424 130.429 71.3804 130.895 71.8463 131.51C72.3175 132.124 72.5531 132.86 72.5531 133.717V141.992H68.9874V140.293H68.8921C68.5638 140.917 68.1006 141.394 67.5023 141.722C66.9094 142.045 66.1893 142.207 65.3423 142.207C64.5534 142.207 63.8572 142.072 63.2537 141.802C62.6501 141.532 62.1763 141.127 61.8322 140.587C61.4933 140.047 61.3239 139.385 61.3239 138.601ZM64.9214 138.434C64.9214 138.837 65.0643 139.149 65.3502 139.372C65.6414 139.589 66.0252 139.697 66.5017 139.697C66.9305 139.697 67.3197 139.61 67.6691 139.435C68.0185 139.26 68.2938 139.019 68.495 138.712C68.6962 138.4 68.7968 138.045 68.7968 137.648L68.7888 136.87C68.4712 136.881 68.0715 136.902 67.5897 136.934C67.1079 136.96 66.7399 136.986 66.4858 137.013C66.004 137.061 65.6229 137.211 65.3423 137.466C65.0617 137.714 64.9214 138.037 64.9214 138.434ZM78.6652 141.992H74.8772V129.794H78.4826V132.018H78.6176C78.8876 131.277 79.3482 130.694 79.9994 130.271C80.6506 129.847 81.4235 129.635 82.3183 129.635C83.16 129.635 83.9012 129.826 84.5419 130.207C85.1825 130.583 85.6748 131.118 86.019 131.811C86.3684 132.505 86.5431 133.307 86.5431 134.218V141.992H82.755V134.948C82.7603 134.26 82.5856 133.723 82.2309 133.336C81.8762 132.944 81.3865 132.748 80.7617 132.748C80.3435 132.748 79.9755 132.838 79.6579 133.018C79.3455 133.198 79.102 133.46 78.9273 133.805C78.7526 134.143 78.6652 134.548 78.6652 135.02V141.992ZM93.3998 142.175C92.4785 142.175 91.6473 141.937 90.9061 141.46C90.1702 140.978 89.5852 140.266 89.1511 139.324C88.7223 138.376 88.5078 137.235 88.5078 135.901C88.5078 134.53 88.7276 133.376 89.167 132.439C89.6117 131.496 90.202 130.795 90.9379 130.334C91.6791 129.868 92.4944 129.635 93.3839 129.635C94.2786 129.635 95.0119 129.85 95.5836 130.279C96.1554 130.707 96.5737 131.24 96.8384 131.875H96.9178V125.728H100.706V141.992H96.9575V140.023H96.8384C96.5631 140.642 96.1369 141.156 95.5598 141.563C94.988 141.971 94.268 142.175 93.3998 142.175ZM92.3912 135.893C92.3912 136.56 92.4812 137.143 92.6612 137.64C92.8412 138.138 93.1033 138.524 93.4474 138.8C93.7915 139.07 94.2071 139.205 94.6942 139.205C95.1707 139.205 95.5836 139.07 95.9331 138.8C96.2825 138.53 96.5472 138.146 96.7272 137.648C96.9125 137.145 97.0052 136.56 97.0052 135.893C97.0052 135.216 96.9125 134.631 96.7272 134.138C96.5472 133.64 96.2825 133.259 95.9331 132.995C95.5889 132.73 95.176 132.598 94.6942 132.598C94.2071 132.598 93.7889 132.733 93.4395 133.003C93.0953 133.273 92.8333 133.656 92.6533 134.154C92.4785 134.646 92.3912 135.226 92.3912 135.893ZM108.312 125.728H119.581V128.857H112.14V132.296H118.994V135.417H112.14V138.863H119.581V141.992H108.312V125.728ZM127.262 133.86L129.382 129.794H133.218L129.787 135.893L133.337 141.992H129.533L127.262 137.91L125.038 141.992H121.187L124.744 135.893L121.354 129.794H125.213L127.262 133.86ZM134.956 129.794H138.704V131.875H138.831C139.096 131.24 139.514 130.707 140.086 130.279C140.658 129.85 141.391 129.635 142.286 129.635C143.175 129.635 143.988 129.868 144.724 130.334C145.46 130.795 146.047 131.496 146.487 132.439C146.931 133.376 147.154 134.53 147.154 135.901C147.154 137.235 146.939 138.376 146.511 139.324C146.082 140.266 145.497 140.978 144.755 141.46C144.02 141.937 143.191 142.175 142.27 142.175C141.402 142.175 140.679 141.971 140.102 141.563C139.525 141.156 139.101 140.642 138.831 140.023H138.744V146.566H134.956V129.794ZM138.664 135.893C138.664 136.56 138.754 137.145 138.934 137.648C139.12 138.146 139.384 138.53 139.729 138.8C140.078 139.07 140.494 139.205 140.975 139.205C141.462 139.205 141.878 139.07 142.222 138.8C142.566 138.524 142.826 138.138 143 137.64C143.18 137.143 143.27 136.56 143.27 135.893C143.27 135.226 143.18 134.646 143 134.154C142.826 133.656 142.566 133.273 142.222 133.003C141.878 132.733 141.462 132.598 140.975 132.598C140.488 132.598 140.073 132.73 139.729 132.995C139.384 133.259 139.12 133.64 138.934 134.138C138.754 134.631 138.664 135.216 138.664 135.893ZM154.82 142.222C153.56 142.222 152.467 141.971 151.54 141.468C150.619 140.96 149.91 140.234 149.412 139.292C148.92 138.35 148.674 137.233 148.674 135.941C148.674 134.691 148.92 133.59 149.412 132.637C149.91 131.684 150.614 130.946 151.525 130.422C152.435 129.897 153.494 129.635 154.701 129.635C155.85 129.635 156.866 129.876 157.751 130.358C158.64 130.835 159.334 131.541 159.831 132.478C160.329 133.41 160.578 134.535 160.578 135.853V136.822H152.414V136.902C152.414 137.415 152.515 137.868 152.716 138.26C152.917 138.646 153.203 138.945 153.573 139.157C153.949 139.369 154.389 139.475 154.892 139.475C155.405 139.475 155.847 139.372 156.218 139.165C156.589 138.959 156.851 138.675 157.004 138.315H160.53C160.377 139.109 160.048 139.8 159.545 140.388C159.048 140.97 158.396 141.423 157.592 141.746C156.787 142.064 155.863 142.222 154.82 142.222ZM157.044 134.591C157.039 134.167 156.938 133.789 156.742 133.455C156.551 133.116 156.284 132.854 155.94 132.669C155.596 132.478 155.209 132.383 154.781 132.383C154.341 132.383 153.944 132.481 153.589 132.677C153.24 132.868 152.959 133.132 152.748 133.471C152.541 133.805 152.43 134.178 152.414 134.591H157.044ZM162.536 129.794H166.213V132.002H166.34C166.557 131.224 166.917 130.633 167.42 130.231C167.923 129.829 168.516 129.627 169.199 129.627C169.543 129.627 169.903 129.67 170.279 129.754V133.066C170.109 133.008 169.879 132.96 169.588 132.923C169.297 132.886 169.027 132.868 168.778 132.868C168.312 132.868 167.891 132.971 167.515 133.177C167.144 133.378 166.853 133.667 166.641 134.043C166.43 134.413 166.324 134.837 166.324 135.313V141.992H162.536V129.794ZM171.811 129.794H175.6V141.992H171.811V129.794ZM173.709 128.341C173.355 128.341 173.027 128.259 172.725 128.095C172.428 127.931 172.19 127.708 172.01 127.428C171.835 127.147 171.748 126.843 171.748 126.514C171.748 126.186 171.835 125.882 172.01 125.601C172.19 125.321 172.428 125.098 172.725 124.934C173.027 124.77 173.355 124.688 173.709 124.688C174.064 124.688 174.39 124.77 174.686 124.934C174.988 125.098 175.226 125.321 175.401 125.601C175.581 125.882 175.671 126.186 175.671 126.514C175.671 126.843 175.581 127.147 175.401 127.428C175.226 127.708 174.988 127.931 174.686 128.095C174.39 128.259 174.064 128.341 173.709 128.341ZM183.703 142.222C182.443 142.222 181.35 141.971 180.423 141.468C179.502 140.96 178.792 140.234 178.295 139.292C177.802 138.35 177.556 137.233 177.556 135.941C177.556 134.691 177.802 133.59 178.295 132.637C178.792 131.684 179.497 130.946 180.407 130.422C181.318 129.897 182.377 129.635 183.584 129.635C184.733 129.635 185.749 129.876 186.633 130.358C187.523 130.835 188.216 131.541 188.714 132.478C189.212 133.41 189.46 134.535 189.46 135.853V136.822H181.297V136.902C181.297 137.415 181.397 137.868 181.598 138.26C181.8 138.646 182.085 138.945 182.456 139.157C182.832 139.369 183.271 139.475 183.774 139.475C184.288 139.475 184.73 139.372 185.101 139.165C185.471 138.959 185.733 138.675 185.887 138.315H189.413C189.259 139.109 188.931 139.8 188.428 140.388C187.93 140.97 187.279 141.423 186.474 141.746C185.67 142.064 184.746 142.222 183.703 142.222ZM185.926 134.591C185.921 134.167 185.821 133.789 185.625 133.455C185.434 133.116 185.167 132.854 184.823 132.669C184.478 132.478 184.092 132.383 183.663 132.383C183.224 132.383 182.827 132.481 182.472 132.677C182.123 132.868 181.842 133.132 181.63 133.471C181.424 133.805 181.312 134.178 181.297 134.591H185.926ZM195.206 141.992H191.418V129.794H195.024V132.018H195.159C195.429 131.277 195.889 130.694 196.541 130.271C197.192 129.847 197.965 129.635 198.86 129.635C199.701 129.635 200.443 129.826 201.083 130.207C201.724 130.583 202.216 131.118 202.56 131.811C202.91 132.505 203.084 133.307 203.084 134.218V141.992H199.296V134.948C199.302 134.26 199.127 133.723 198.772 133.336C198.417 132.944 197.928 132.748 197.303 132.748C196.885 132.748 196.517 132.838 196.199 133.018C195.887 133.198 195.643 133.46 195.469 133.805C195.294 134.143 195.206 134.548 195.206 135.02V141.992ZM211.14 142.222C209.88 142.222 208.787 141.96 207.86 141.436C206.939 140.907 206.232 140.168 205.74 139.221C205.248 138.268 205.001 137.172 205.001 135.933C205.001 134.689 205.248 133.593 205.74 132.645C206.238 131.692 206.947 130.954 207.868 130.429C208.795 129.9 209.883 129.635 211.132 129.635C212.233 129.635 213.202 129.839 214.039 130.247C214.881 130.649 215.534 131.221 216 131.962C216.472 132.698 216.723 133.556 216.755 134.535H213.213C213.133 133.91 212.916 133.421 212.562 133.066C212.207 132.706 211.749 132.526 211.188 132.526C210.717 132.526 210.306 132.656 209.957 132.915C209.608 133.175 209.337 133.558 209.147 134.067C208.956 134.57 208.861 135.178 208.861 135.893C208.861 136.613 208.956 137.227 209.147 137.736C209.337 138.244 209.608 138.63 209.957 138.895C210.306 139.154 210.717 139.284 211.188 139.284C211.738 139.284 212.194 139.109 212.554 138.76C212.914 138.411 213.133 137.916 213.213 137.275H216.755C216.718 138.265 216.466 139.133 216 139.88C215.54 140.621 214.894 141.198 214.063 141.611C213.231 142.019 212.257 142.222 211.14 142.222ZM224.377 142.222C223.117 142.222 222.023 141.971 221.097 141.468C220.176 140.96 219.466 140.234 218.969 139.292C218.476 138.35 218.23 137.233 218.23 135.941C218.23 134.691 218.476 133.59 218.969 132.637C219.466 131.684 220.17 130.946 221.081 130.422C221.992 129.897 223.05 129.635 224.258 129.635C225.406 129.635 226.423 129.876 227.307 130.358C228.196 130.835 228.89 131.541 229.388 132.478C229.885 133.41 230.134 134.535 230.134 135.853V136.822H221.97V136.902C221.97 137.415 222.071 137.868 222.272 138.26C222.473 138.646 222.759 138.945 223.13 139.157C223.506 139.369 223.945 139.475 224.448 139.475C224.962 139.475 225.404 139.372 225.774 139.165C226.145 138.959 226.407 138.675 226.561 138.315H230.087C229.933 139.109 229.605 139.8 229.102 140.388C228.604 140.97 227.953 141.423 227.148 141.746C226.343 142.064 225.42 142.222 224.377 142.222ZM226.6 134.591C226.595 134.167 226.494 133.789 226.298 133.455C226.108 133.116 225.841 132.854 225.496 132.669C225.152 132.478 224.766 132.383 224.337 132.383C223.898 132.383 223.5 132.481 223.146 132.677C222.796 132.868 222.516 133.132 222.304 133.471C222.097 133.805 221.986 134.178 221.97 134.591H226.6Z" fill="#FF5900"/>
</svg>
