<svg width="463" height="153" viewBox="0 0 463 153" fill="none" xmlns="http://www.w3.org/2000/svg">
<g clip-path="url(#clip0_782_21039)" filter="url(#filter0_f_782_21039)">
<path d="M48.8814 55.5391C51.4292 56.4941 53.7677 57.1035 55.8515 58.2041C63.1764 62.0696 66.3702 68.3454 65.9517 76.4858C65.5786 83.7803 62.13 89.2466 55.351 92.0389C51.775 93.5123 47.835 94.6856 44.0133 94.8585C34.9504 95.2677 25.8602 94.9858 16.2969 94.5219C16.7427 94.0762 17.134 93.3122 17.6527 93.2213C24.1223 92.0662 24.1223 92.0844 24.1223 85.472C24.1223 67.0357 24.1223 48.5993 24.1223 30.163C24.1223 25.1242 23.2578 24.2419 18.2987 23.8781C17.6618 23.8326 17.0703 23.1959 16.4516 22.8412C17.0521 22.5774 17.6527 22.0954 18.2532 22.0863C25.9057 22.059 33.5764 21.7771 41.1925 22.2409C45.4146 22.5047 49.7458 23.5597 53.6858 25.1242C60.3192 27.7527 63.5585 33.1827 63.0399 40.1588C62.5394 46.9167 58.9634 51.6918 52.603 54.2749C51.4929 54.7205 50.3373 55.048 48.8905 55.5391H48.8814ZM37.3435 57.1308C35.5965 57.1308 34.2316 57.1854 32.8758 57.1126C31.52 57.0399 31.0013 57.5401 31.0104 58.9317C31.0468 69.4187 31.0468 79.9056 31.0104 90.4017C31.0104 91.7933 31.52 92.2845 32.8667 92.2208C36.3426 92.0571 39.8458 92.1844 43.2853 91.766C48.5356 91.1202 53.2855 89.2557 56.3792 84.6171C61.766 76.5676 58.6904 64.2252 50.1644 59.6593C46.0424 57.4491 41.5474 57.0035 37.3435 57.1217V57.1308ZM31.0286 53.8747C36.9704 54.0475 42.5483 54.284 47.8805 52.0829C53.3674 49.8181 56.5976 44.752 56.4065 38.6581C56.2154 32.5733 53.1035 28.1165 46.9888 26.6613C42.3481 25.5607 37.4709 25.4516 32.7029 24.9331C30.9649 24.7421 31.0286 25.9791 31.0286 27.1615C31.0286 34.4742 31.0286 41.7869 31.0286 49.0996C31.0286 50.5912 31.0286 52.0829 31.0286 53.8656V53.8747Z" fill="#CFEC8A"/>
<path d="M268.217 49.0106C268.317 48.2012 268.417 47.7828 268.417 47.3553C268.417 39.4241 268.462 31.4929 268.408 23.5709C268.381 19.6962 266.825 18.2774 262.857 17.9772C261.811 17.8953 260.228 18.5866 260.027 16.7584C260.009 16.6129 261.902 16.0672 262.912 16.049C266.979 15.9671 271.047 16.0126 275.36 16.0126V18.9413C275.36 41.5251 275.36 64.0999 275.36 86.6837C275.36 91.8226 276.115 92.6048 281.274 93.196C281.966 93.2779 282.594 93.8418 283.258 94.1874C283.158 94.4239 283.058 94.6695 282.967 94.9059H268.417V88.5483C265.678 91.4224 262.876 93.7326 259.336 95.0787C248.499 99.1899 236.16 93.769 231.938 82.7727C228.599 74.0684 228.58 65.1458 231.72 56.4052C237.616 39.9334 257.616 37.6141 268.217 49.0197V49.0106ZM268.426 68.402C268.426 65.0003 268.308 61.5987 268.462 58.2061C268.617 54.8863 267.207 52.3759 264.85 50.2658C255.705 42.0891 241.993 45.8909 238.253 57.7968C235.987 65.0094 236.005 72.4494 237.925 79.7257C240.091 87.8843 246.843 92.4593 255.05 91.8499C261.219 91.3951 269.136 85.7469 268.453 77.6884C268.199 74.6141 268.408 71.4944 268.408 68.402H268.426Z" fill="#CFEC8A"/>
<path d="M179.539 43.2178V51.6129C180.322 50.6488 180.767 50.1212 181.195 49.5755C187.428 41.6534 198.529 39.4342 206.855 44.6276C212.105 47.902 214.344 53.059 214.462 59.0165C214.644 68.3848 214.517 77.753 214.526 87.1212C214.526 91.5234 215.645 92.7058 220.058 93.1151C221.068 93.2061 222.606 92.7968 222.096 94.916H199.539C200.404 94.0701 200.804 93.3152 201.341 93.2152C207.547 92.0782 207.82 91.7872 207.82 85.5205C207.82 77.5893 207.856 69.649 207.792 61.7179C207.774 59.8442 207.619 57.9251 207.228 56.0969C205.326 47.2562 195.745 44.6276 188.465 48.2203C185.854 49.5118 183.47 51.6584 181.614 53.9231C180.358 55.4602 179.703 57.8887 179.648 59.9443C179.439 68.8577 179.557 77.7712 179.557 86.6938C179.557 91.5416 180.595 92.6785 185.399 93.1151C186.473 93.2152 187.701 93.0787 187.119 94.9251H164.789C165.417 94.1156 165.699 93.5426 166.154 93.2333C166.472 93.0151 167.037 93.1333 167.492 93.0969C171.695 92.724 172.851 91.4597 172.86 87.1667C172.878 79.0082 172.86 70.8496 172.86 62.682C172.86 58.68 172.887 54.6689 172.851 50.667C172.815 46.8651 171.486 45.4735 167.755 45.2006C167.528 45.1824 167.264 45.2279 167.082 45.137C166.445 44.7913 165.835 44.4002 165.208 44.0273C165.817 43.7545 166.418 43.2542 167.037 43.2451C171.113 43.1724 175.199 43.2088 179.539 43.2088V43.2178Z" fill="#CFEC8A"/>
<path d="M120.493 60.9699H118.3C118.3 55.3853 118.282 49.8917 118.346 44.3981C118.346 44.007 118.973 43.3703 119.383 43.3067C119.71 43.2612 120.357 43.8524 120.475 44.2799C121.185 46.7265 121.612 46.9812 123.869 45.5714C130.175 41.6331 136.872 40.8418 143.869 43.1975C149.347 45.0439 152.222 49.2914 153.351 54.7032C153.896 57.3409 154.078 60.0968 154.106 62.8072C154.197 71.0385 154.115 79.2789 154.16 87.5193C154.169 89.3384 153.651 91.6577 155.98 92.4035C158.555 93.2221 159.447 90.9301 160.539 89.2293C160.621 89.111 160.748 89.0292 160.903 88.8836C162.495 89.0746 162.796 89.8477 162.104 91.3303C160.293 95.2049 156.326 97.1786 152.149 96.1872C148.819 95.3959 147.591 93.5132 147.172 88.5562C146.881 88.2561 146.581 87.965 146.289 87.6649C146.135 88.247 146.162 88.9837 145.807 89.4021C140.402 95.7961 132.176 98.1064 124.251 95.3595C119.774 93.8042 116.453 90.921 115.607 86.0368C114.588 80.2157 116.362 75.2769 120.975 71.5115C124.879 68.3281 129.583 66.8728 134.351 65.5904C137.563 64.7263 140.784 63.8804 143.96 62.9163C146.317 62.2069 147.4 60.7152 147.318 58.0412C147.099 50.6739 143.623 46.0808 137.008 44.9257C130.939 43.8706 123.842 48.1636 121.831 54.303C121.139 56.4131 120.93 58.687 120.484 60.979L120.493 60.9699ZM147.245 64.8082C142.723 66.227 138.473 67.464 134.278 68.892C130.666 70.129 127.327 71.8662 124.952 75.0314C121.321 79.8792 121.721 87.1191 125.989 90.1297C130.011 92.9675 134.451 92.8401 138.746 90.9301C143.15 88.9746 146.735 85.8458 147.154 80.7797C147.582 75.5316 147.254 70.229 147.254 64.8082H147.245Z" fill="#CFEC8A"/>
<path d="M87.6514 51.1122C95.4131 42.0441 104.03 39.461 111.091 43.9723C110.236 46.037 109.362 48.1562 108.462 50.3209C107.925 50.1845 107.524 50.2027 107.379 50.0208C103.948 45.6368 97.424 46.3098 93.2111 49.4841C89.717 52.1127 87.6151 55.4507 87.6788 60.0621C87.7971 69.0483 87.7061 78.0345 87.7152 87.0208C87.7152 91.4411 89.0073 92.76 93.4933 93.051C94.0938 93.0874 94.7397 93.0146 95.2948 93.1965C96.0227 93.433 96.6871 93.8696 97.3786 94.2243C96.6325 94.5063 95.8955 95.0065 95.1493 95.0247C89.7716 95.0975 84.403 95.0611 79.0253 95.0611C77.2145 95.0611 75.4129 95.0611 73.6021 95.0611C73.4565 94.8883 73.3019 94.7155 73.1562 94.5427C73.5748 94.097 73.9207 93.524 74.4393 93.242C74.8579 93.0055 75.4766 93.1329 76.0043 93.0783C79.6713 92.7327 80.9908 91.3957 80.9999 87.7302C81.0363 75.3423 81.0363 62.9635 80.9999 50.5756C80.9908 46.8465 79.5985 45.5094 75.7859 45.2184C75.331 45.182 74.8397 45.2184 74.4393 45.0456C74.0299 44.8728 73.7114 44.4817 73.3474 44.1906C73.7569 43.8723 74.1573 43.2902 74.5667 43.2902C78.8707 43.2265 83.1656 43.2447 87.6424 43.2447V51.1213L87.6514 51.1122Z" fill="#CFEC8A"/>
<path fill-rule="evenodd" clip-rule="evenodd" d="M73.5032 44.0596C73.5803 43.9893 73.6571 43.9134 73.7338 43.8376C74.0113 43.5635 74.2872 43.2909 74.5674 43.2909C78.0841 43.2389 81.5948 43.2415 85.2036 43.2443C86.0114 43.2449 86.8242 43.2455 87.6431 43.2455V51.1221L87.6522 51.113C87.7158 51.0387 87.7794 50.9649 87.8431 50.8914C95.5549 42.003 104.089 39.4987 111.092 43.9731C110.801 44.6746 110.509 45.3823 110.214 46.0961C109.64 47.483 109.057 48.8924 108.462 50.3217C108.274 50.2737 108.102 50.2448 107.952 50.2197C107.675 50.1733 107.474 50.1395 107.379 50.0215C103.949 45.6375 97.4248 46.3106 93.2119 49.4849C89.7177 52.1135 87.6158 55.4515 87.6795 60.0628C87.7595 66.1417 87.7438 72.2206 87.728 78.2996C87.7205 81.2069 87.7129 84.1142 87.7159 87.0215C87.7159 91.4419 89.008 92.7607 93.4939 93.0518C93.6741 93.0627 93.8584 93.0638 94.0432 93.0649C94.474 93.0674 94.9071 93.07 95.2956 93.1973C95.8111 93.3648 96.2947 93.6326 96.7787 93.9007C96.9011 93.9685 97.0235 94.0363 97.1465 94.1025C97.2238 94.1441 97.3014 94.1851 97.3793 94.2251C97.2982 94.2557 97.2173 94.2889 97.1364 94.3238C96.9836 94.3898 96.831 94.4617 96.6787 94.5335C96.1695 94.7736 95.6619 95.013 95.15 95.0255C91.117 95.08 87.0892 95.0732 83.0588 95.0664C81.7149 95.0641 80.3708 95.0619 79.0261 95.0619H73.6029C73.5301 94.9754 73.455 94.889 73.38 94.8026C73.3049 94.7162 73.2298 94.6298 73.157 94.5434C73.283 94.4093 73.4024 94.2636 73.5219 94.1178C73.7994 93.7792 74.0775 93.4399 74.44 93.2428C74.719 93.0851 75.087 93.0892 75.4576 93.0932C75.643 93.0952 75.8291 93.0973 76.0051 93.0791C79.6721 92.7334 80.9915 91.3964 81.0006 87.731C81.037 75.3431 81.037 62.9643 81.0006 50.5763C80.9915 46.8472 79.5993 45.5102 75.7867 45.2192C75.6691 45.2098 75.5491 45.2052 75.4288 45.2007C75.0838 45.1876 74.7369 45.1745 74.44 45.0464C74.1615 44.9288 73.925 44.7102 73.6877 44.4908C73.6267 44.4344 73.5656 44.378 73.5038 44.3232C73.4526 44.2778 73.4008 44.2335 73.3481 44.1914C73.3999 44.1511 73.4516 44.1066 73.5032 44.0596ZM74.3615 45.2303C74.592 45.3296 74.8409 45.3658 75.0781 45.3834C75.1928 45.3919 75.3086 45.3963 75.42 45.4005L75.4331 45.401C75.5499 45.4054 75.6619 45.4098 75.7708 45.4185C77.6645 45.5631 78.9044 45.9654 79.6776 46.749C80.4479 47.5295 80.7961 48.7302 80.8006 50.5768C80.837 62.9643 80.837 75.3429 80.8006 87.7304C80.7961 89.5462 80.4657 90.7329 79.7292 91.5126C78.9911 92.294 77.8061 92.7084 75.9863 92.8799L75.9845 92.8801C75.8193 92.8972 75.6533 92.8953 75.4756 92.8932C75.3804 92.8921 75.2819 92.891 75.1783 92.8927C74.9016 92.8973 74.5988 92.9239 74.3431 93.0678C74.0524 93.2262 73.8179 93.4614 73.6101 93.7005C73.5201 93.804 73.4385 93.9037 73.3592 94.0007C73.2447 94.1406 73.1349 94.2749 73.0112 94.4065C72.9418 94.4804 72.9387 94.5947 73.0041 94.6723C73.0778 94.7598 73.1537 94.8471 73.2284 94.9331C73.3037 95.0197 73.3783 95.1057 73.4499 95.1907C73.4879 95.2358 73.5439 95.2619 73.6029 95.2619H79.0261C80.37 95.2619 81.7136 95.2641 83.0572 95.2664C87.088 95.2732 91.118 95.28 95.1527 95.2255L95.1549 95.2254C95.5684 95.2153 95.9687 95.0723 96.345 94.9074C96.4942 94.8419 96.6366 94.7747 96.776 94.7089C97.0025 94.6019 97.2214 94.4986 97.45 94.4122C97.524 94.3842 97.5746 94.3153 97.579 94.2363C97.5835 94.1574 97.541 94.0832 97.4706 94.0471C97.2694 93.9439 97.0769 93.8372 96.8813 93.7289C96.7391 93.65 96.5952 93.5703 96.4452 93.4903C96.098 93.3054 95.738 93.1308 95.3576 93.0072C95.0525 92.9072 94.7294 92.8793 94.4178 92.87C94.2843 92.8661 94.1577 92.8654 94.0341 92.8648C93.8559 92.8638 93.6839 92.8629 93.5065 92.8522C91.269 92.707 89.8941 92.3064 89.0668 91.4465C88.241 90.5881 87.9159 89.2245 87.9159 87.0215C87.9129 84.1158 87.9205 81.2091 87.928 78.3022C87.9438 72.2223 87.9595 66.1407 87.8795 60.0602C87.8168 55.5257 89.8775 52.2435 93.3321 49.6447C95.4068 48.0815 98.05 47.1356 100.59 47.1189C103.127 47.1021 105.552 48.0106 107.222 50.1448L107.223 50.1465C107.289 50.229 107.377 50.2789 107.462 50.3122C107.546 50.3452 107.641 50.367 107.737 50.3851C107.799 50.397 107.862 50.4076 107.928 50.4186C108.075 50.4432 108.232 50.4696 108.413 50.5155C108.509 50.54 108.609 50.4902 108.647 50.3985C109.242 48.9691 109.825 47.5593 110.398 46.1721C110.694 45.4585 110.986 44.7509 111.277 44.0496C111.314 43.9601 111.281 43.8568 111.2 43.8046C107.618 41.5163 103.638 41.0277 99.5768 42.2594C95.6408 43.4532 91.6386 46.2594 87.8431 50.5872V43.2455C87.8431 43.135 87.7535 43.0455 87.6431 43.0455C86.8246 43.0455 86.012 43.0449 85.2043 43.0443C81.5959 43.0415 78.0838 43.0389 74.5658 43.0909C74.4162 43.0913 74.2797 43.1445 74.1605 43.2144C74.0411 43.2844 73.9278 43.3781 73.8227 43.4743C73.7451 43.5453 73.6664 43.623 73.5909 43.6976C73.5648 43.7234 73.5391 43.7488 73.5139 43.7734C73.4131 43.8721 73.3181 43.9614 73.2254 44.0335C73.177 44.0711 73.1485 44.1288 73.1481 44.19C73.1477 44.2513 73.1754 44.3093 73.2232 44.3476C73.3349 44.4369 73.4365 44.531 73.5436 44.6301C73.6075 44.6892 73.6734 44.7502 73.7446 44.8131C73.9248 44.9723 74.1263 45.1309 74.3615 45.2303Z" fill="#CFEC8A"/>
<mask id="mask0_782_21039" style="mask-type:luminance" maskUnits="userSpaceOnUse" x="290" y="29" width="157" height="108">
<path d="M446.825 29.0781H290.422V136.122H446.825V29.0781Z" fill="white"/>
</mask>
<g mask="url(#mask0_782_21039)">
<path fill-rule="evenodd" clip-rule="evenodd" d="M295.324 96.3077C292.591 96.3077 291.007 95.4062 290.579 93.589C290.151 91.7789 290.557 89.5468 291.792 86.9068C292.156 86.127 292.605 85.3186 293.14 84.4815C293.676 83.6516 294.246 82.7931 294.853 81.9131C297.75 77.9996 301.482 73.614 306.034 68.7634C310.587 63.9127 314.832 59.5772 318.764 55.7567C321.033 53.6033 322.931 52.0579 324.437 51.1279C325.942 50.1978 327.434 49.511 328.911 49.0674C329.971 48.7491 331.174 48.3976 332.518 48.0051C333.047 47.8506 333.597 47.6898 334.169 47.5221C334.747 47.3289 335.304 47.1787 335.839 47.0785C336.374 46.9855 336.952 46.8853 337.587 46.7852C334.719 48.7455 331.644 51.0992 328.368 53.8394C325.086 56.5795 321.154 60.357 316.573 65.1504C314.112 67.6974 311.543 70.5376 308.867 73.6713C306.184 76.8049 303.765 79.7453 301.61 82.4854C299.455 85.2256 297.957 87.3862 297.129 88.953C296.166 90.8131 295.795 92.1367 296.016 92.9165C296.237 93.7035 296.837 94.0898 297.814 94.0898C299.477 94.0898 301.332 93.5032 303.401 92.3298C305.463 91.1565 307.376 89.9331 309.145 88.6596C312.435 86.2128 315.717 83.5157 318.992 80.5824C322.124 77.7772 325.315 74.7823 328.571 71.6164C331.761 67.9 334.8 64.1837 337.689 60.4674C339.844 57.7273 341.821 55.0587 343.619 52.4617C345.417 49.8646 346.445 48.1762 346.716 47.3964L346.851 47.1031C347.215 46.3232 347.693 46.1229 348.3 46.5164C349.249 47.2032 349.663 48.2048 349.534 49.5284C349.406 50.8519 348.956 52.3472 348.179 54.007C347.308 55.8671 346.138 57.8561 344.668 59.9594C343.198 62.07 341.728 63.9516 340.273 65.6185C342.363 63.8586 344.561 62.07 346.873 60.2528C349.185 58.4427 351.604 56.7042 354.137 55.0372C357.148 52.9768 360.181 51.1953 363.234 49.6715C366.288 48.1547 369.178 47.3964 371.918 47.3964C374.658 47.3964 376.207 47.983 376.885 49.1564C377.555 50.3297 377.441 51.8965 376.528 53.8568C375.572 55.9172 373.888 58.2639 371.483 60.911C368.793 63.9516 365.839 66.985 362.621 70.0185C359.396 73.0591 356.392 75.9924 353.602 78.8326C353.038 79.4193 352.146 80.3279 350.94 81.5513C349.734 82.7747 348.543 84.1197 347.372 85.5935C346.859 86.2803 346.331 86.9886 345.795 87.7255C345.253 88.4624 344.804 89.2208 344.44 90.0006C343.983 90.9808 343.776 91.8894 343.833 92.7193C343.883 93.5563 344.547 93.9713 345.817 93.9713C347.479 93.9713 349.327 93.4061 351.368 92.2828C353.409 91.1596 355.257 89.9577 356.927 88.6842C360.316 86.2374 363.655 83.5188 366.959 80.5282C367.67 79.8845 368.384 79.2325 369.101 78.5723C377.307 67.5645 387.413 58.7802 399.405 52.2264C401.902 50.8527 404.707 49.751 407.832 48.9211C410.95 48.0912 413.883 47.669 416.623 47.669C420.433 47.669 423.366 48.5061 425.421 50.1659L426.063 49.7223C429.859 46.3956 433.406 43.5982 436.709 41.3446C440.006 39.091 443.374 37.6243 446.827 36.9375C441.818 40.5648 436.502 45.1436 430.901 50.6739C425.293 56.2113 419.805 62.0636 414.439 68.2307C409.074 74.4049 404.072 80.2572 399.441 85.7875C394.81 91.325 390.892 95.9467 387.696 99.6741C394.346 96.934 400.932 93.2352 407.447 88.5777C413.961 83.9273 420.012 78.8549 425.599 73.3675C426.919 71.9939 427.975 71.3071 428.753 71.3071C428.946 71.3071 428.974 71.4573 428.839 71.7506C428.653 72.1441 428.211 72.6807 427.497 73.3675C424.279 76.5011 420.968 79.5632 417.572 82.5537C414.175 85.5442 410.615 88.3058 406.89 90.8528C403.644 93.2066 400.218 95.36 396.622 97.3203C393.019 99.2806 389.266 100.991 385.362 102.464C380.46 107.952 375.623 112.996 370.835 117.596C366.054 122.196 361.216 126.067 356.335 129.2C351.455 132.334 346.367 134.437 341.08 135.517V135.532C339.331 135.925 337.676 136.118 336.113 136.118C333.181 136.118 331.318 135.403 330.512 133.986C329.706 132.563 329.784 130.824 330.747 128.771C331.568 127.011 333.038 125.122 335.143 123.112C337.255 121.101 339.845 119.313 342.921 117.746C346.909 115.686 350.434 114.047 353.495 112.824C356.557 111.6 359.839 110.377 363.342 109.154C366.846 107.93 371.27 106.292 376.629 104.231C379.654 101.098 382.836 97.5206 386.169 93.507C389.508 89.4934 392.798 85.5228 396.037 81.6093C399.277 77.6959 402.195 74.3119 404.792 71.4716C404.214 71.8651 402.959 72.8953 401.011 74.5551C399.063 76.2221 397.593 77.4956 396.594 78.3756C394.218 80.3359 391.299 82.7111 387.853 85.5013C384.399 88.2915 380.996 90.6668 377.642 92.6271C373.325 95.174 369.9 96.4475 367.36 96.4475C364.819 96.4475 363.514 95.4173 363.157 93.364C362.8 91.3035 363.349 88.7136 364.805 85.58C365.108 84.9323 365.437 84.2846 365.792 83.6367C362.706 86.3461 359.323 88.9636 355.642 91.4744C353.78 92.7479 351.789 93.8783 349.67 94.8513C347.551 95.8314 345.467 96.3179 343.419 96.3179L343.398 96.3036C340.565 96.3036 338.753 95.4236 337.961 93.6565C337.169 91.8965 337.39 89.693 338.624 87.0459C339.216 85.7724 340.144 84.3057 341.414 82.6388C344.789 78.3318 348.964 74.0464 353.93 69.7824C358.896 65.5184 363.334 61.283 367.252 57.0762C368.572 55.7026 369.485 54.4792 369.992 53.406C370.498 52.3329 370.555 51.5245 370.17 50.9807C369.785 50.4441 369.157 50.1723 368.272 50.1723C367.002 50.1723 365.175 50.6874 362.792 51.7176C360.409 52.7478 357.333 54.6795 353.566 57.5198C351.275 59.2798 348.614 61.4404 345.567 63.9873C342.52 66.5343 339.937 68.838 337.804 70.8913C334.293 74.2252 330.975 77.5735 327.835 80.9575C324.696 84.3343 321.877 87.4465 319.387 90.2868C317.361 92.5404 315.512 93.9856 313.85 94.6223C312.18 95.2591 310.739 95.5238 309.519 95.4308C308.291 95.3378 307.314 95.3378 306.586 95.4308C310.157 91.7622 313.772 87.9576 317.427 84.0169C314.47 86.6289 311.275 89.1052 307.847 91.4498C305.984 92.7233 303.965 93.8537 301.803 94.8267C299.634 95.8069 297.479 96.2933 295.331 96.2933L295.324 96.3077ZM340.192 38.4861C339.064 38.4861 338.322 38.0998 337.958 37.3271C337.595 36.5544 337.659 35.653 338.144 34.6299C338.815 33.1919 339.963 31.9327 341.598 30.8524C343.224 29.7721 344.737 29.1783 346.121 29.0781C347.249 29.0781 348.005 29.4358 348.383 30.1584C348.769 30.881 348.697 31.8039 348.169 32.9343C347.548 34.2722 346.421 35.5314 344.787 36.719C343.16 37.8995 341.626 38.4933 340.192 38.4933V38.4861ZM353.21 126.789C349.414 129.486 345.561 131.368 341.636 132.448C340.616 132.742 339.695 132.935 338.868 133.035C338.04 133.135 337.284 133.185 336.599 133.185C334.743 133.185 333.58 132.742 333.109 131.862C332.638 130.982 332.703 129.901 333.295 128.628C333.937 127.254 335.086 125.788 336.741 124.221C338.404 122.647 340.502 121.13 343.042 119.663C348.75 116.43 354.394 113.904 359.982 112.094C365.569 110.284 370.235 108.596 373.996 107.029C370.984 110.556 367.716 114.054 364.191 117.531C360.667 121.008 357.006 124.092 353.21 126.789ZM380.118 88.8853C377.035 90.8957 374.517 91.8973 372.561 91.8973L372.547 91.9045C371.377 91.9045 370.82 91.3679 370.885 90.2876C370.949 89.2073 371.32 87.9338 372.005 86.4671C372.875 84.607 373.96 82.7898 375.273 81.0298C377.613 77.8962 380.874 74.2475 385.063 70.0837C389.251 65.9198 393.854 62.0278 398.863 58.4006C402.295 55.8536 405.77 53.7932 409.288 52.2264C412.805 50.6596 415.981 49.8726 418.814 49.8726C420.961 49.8726 422.738 50.3591 424.137 51.3392C420.569 54.3798 417.365 57.17 414.518 59.717C412.968 61.1032 411.47 62.4449 410.019 63.7433C408.805 64.8305 407.624 65.8872 406.476 66.9143C404.914 68.3881 402.645 70.47 399.683 73.16C396.722 75.8572 393.49 78.6474 389.993 81.5378C386.49 84.4282 383.2 86.8821 380.118 88.8853Z" fill="#CFEC8A"/>
</g>
</g>
<defs>
<filter id="filter0_f_782_21039" x="0" y="0" width="463" height="153" filterUnits="userSpaceOnUse" color-interpolation-filters="sRGB">
<feFlood flood-opacity="0" result="BackgroundImageFix"/>
<feBlend mode="normal" in="SourceGraphic" in2="BackgroundImageFix" result="shape"/>
<feGaussianBlur stdDeviation="8" result="effect1_foregroundBlur_782_21039"/>
</filter>
<clipPath id="clip0_782_21039">
<rect width="431" height="121" fill="white" transform="translate(16 16)"/>
</clipPath>
</defs>
</svg>
