<svg width="114" height="35" viewBox="0 0 114 35" fill="none" xmlns="http://www.w3.org/2000/svg">
<path d="M6.5027 12.0154C8.09332 12.0154 9.32302 10.8258 9.32302 8.91432C9.32302 7.00287 8.17351 5.82659 6.66309 5.82659H5.09923V12.0154H6.5027ZM11.1276 13.9269C13.3865 14.8626 14.7766 17.3221 14.7766 20.343C14.7766 24.6337 12.0899 27.6814 6.81011 27.6814H0.207031V1.30859H6.8903C11.5151 1.30859 14.3355 3.74138 14.3355 8.01877C14.3355 10.6921 13.186 12.7506 11.1276 13.9269ZM5.09923 16.3329V23.1367H6.63634C8.64132 23.1367 9.73738 21.9202 9.73738 19.7682C9.73738 17.6161 8.57453 16.3329 6.59628 16.3329H5.09923Z" fill="#9C9C9C"/>
<path d="M92.6064 1.30859H87.6875V27.6814H92.6064V1.30859Z" fill="#9C9C9C"/>
<path d="M70.8134 12.3203H65.8945V16.1299H70.8134V12.3203Z" fill="#9C9C9C"/>
<path d="M54.0283 23.0832H55.2847C57.8511 23.0832 59.4818 20.1157 59.4818 14.3947C59.4818 8.32619 57.664 5.88007 55.0441 5.88007H54.0416V23.0832H54.0283ZM49.1094 1.30859H55.0441C61.567 1.30859 64.5745 6.20086 64.5745 14.2611C64.5745 22.3213 61.7809 27.668 55.3917 27.668H49.1094V1.30859Z" fill="#9C9C9C"/>
<path d="M21.4555 17.7827L23.2733 6.98231L24.8773 17.7827H21.4688H21.4555ZM26.3343 27.6875H31.5606L26.7219 1.32812H19.9584L14.7188 27.6875H19.798L20.6936 22.3141H25.5456L26.3477 27.6875H26.3343Z" fill="#9C9C9C"/>
<path d="M76.4532 17.7827L78.271 6.98231L79.875 17.7827H76.4666H76.4532ZM81.332 27.6875H86.5449L81.7063 1.32812H74.9428L69.7031 27.6875H74.7824L75.6779 22.3141H80.53L81.332 27.6875Z" fill="#9C9C9C"/>
<path d="M42.6698 14.622V1.30859H47.4952V27.668H43.151L37.4168 14.1408V27.668H32.5781V1.30859H36.9356L42.6698 14.622Z" fill="#9C9C9C"/>
<path d="M99.1159 23.0832H100.372C102.939 23.0832 104.569 20.1157 104.569 14.3947C104.569 8.32619 102.752 5.88007 100.132 5.88007H99.1292V23.0832H99.1159ZM94.1836 1.30859H100.118C106.641 1.30859 109.649 6.20086 109.649 14.2611C109.649 22.3213 106.855 27.668 100.466 27.668H94.1836V1.30859Z" fill="#9C9C9C"/>
<path d="M113.156 2.73304C113.156 1.55675 112.261 0.621094 111.004 0.621094C109.748 0.621094 108.879 1.55675 108.879 2.73304C108.879 3.90932 109.774 4.8584 111.031 4.8584C112.287 4.8584 113.156 3.92268 113.156 2.73304ZM112.902 2.73304C112.902 3.78901 112.14 4.63114 111.018 4.63114C109.895 4.63114 109.12 3.78901 109.12 2.73304C109.12 1.67706 109.855 0.848348 110.991 0.848348C112.127 0.848348 112.902 1.69042 112.902 2.73304ZM111.378 2.88009C111.686 2.82662 111.9 2.55929 111.9 2.25185C111.9 1.87758 111.659 1.61023 111.178 1.61023H110.176V3.78903H110.496V2.90681H111.031L111.566 3.78903H111.913L111.352 2.88009H111.378ZM111.566 2.26523C111.566 2.4791 111.445 2.62612 111.191 2.62612H110.51V1.9043H111.191C111.432 1.9043 111.552 2.05136 111.552 2.26523" fill="#9C9C9C"/>
<path d="M97.0472 33.1442H95.7239V32.77H97.5017V33.0373C97.5017 33.9463 96.8601 34.5344 95.7239 34.5344C94.5877 34.5344 93.8125 33.8661 93.8125 32.7833C93.8125 31.7006 94.561 30.9922 95.6971 30.9922C96.5526 30.9922 97.2744 31.4333 97.3813 32.0214H96.9002C96.7665 31.6471 96.2719 31.4066 95.6838 31.4066C94.8283 31.4066 94.2937 31.9279 94.2937 32.7833C94.2937 33.6388 94.8684 34.1467 95.7773 34.1467C96.6194 34.1467 97.0472 33.719 97.0472 33.1576" fill="#9C9C9C"/>
<path d="M2.34506 34.0462C2.86636 34.0462 3.06682 33.8457 3.06682 33.4848C3.06682 33.1773 2.82627 32.9234 2.35844 32.9234H0.647484V34.0462H2.34506ZM2.23811 32.5357C2.6792 32.5357 2.91981 32.3486 2.91981 32.0278C2.91981 31.707 2.71928 31.5199 2.30492 31.5199H0.647484V32.5357H2.23811ZM3.5347 33.5115C3.5347 34.1398 3.12028 34.4472 2.30492 34.4472H0.179688V31.1055H2.3183C2.98663 31.1055 3.38761 31.3996 3.38761 31.961C3.38761 32.2818 3.17377 32.5758 2.82624 32.6961C3.26733 32.8164 3.5347 33.1239 3.5347 33.5115Z" fill="#9C9C9C"/>
<path d="M71.0232 34.0462C71.5311 34.0462 71.7316 33.8457 71.7316 33.4848C71.7316 33.1773 71.491 32.9234 71.0232 32.9234H69.3256V34.0462H71.0232ZM70.9162 32.5357C71.3573 32.5357 71.5979 32.3486 71.5979 32.0278C71.5979 31.707 71.3974 31.5199 70.983 31.5199H69.3256V32.5357H70.9162ZM72.2127 33.5115C72.2127 34.1398 71.7984 34.4472 70.9964 34.4472H68.8711V31.1055H71.0098C71.6781 31.1055 72.0791 31.3996 72.0791 31.961C72.0791 32.2818 71.8653 32.5758 71.5177 32.6961C71.9722 32.8164 72.2261 33.1239 72.2261 33.5115" fill="#9C9C9C"/>
<path d="M7.26687 32.7095C7.74807 32.7095 7.98864 32.4823 7.98864 32.1214C7.98864 31.7605 7.7481 31.5199 7.29363 31.5199H5.80989V32.7095H7.26687ZM7.4807 33.0838L8.57677 34.4472H8.04216L6.98615 33.1105H5.80989V34.4472H5.35547V31.1055H7.36045C8.08224 31.1055 8.48319 31.4931 8.48319 32.108C8.48319 32.6293 8.10894 33.0169 7.49408 33.0838" fill="#9C9C9C"/>
<path d="M18.1016 31.1055H18.5427V34.4472H18.0882L15.7357 31.707V34.4472H15.2812V31.1055H15.749L18.1016 33.8457V31.1055Z" fill="#9C9C9C"/>
<path d="M20.9779 34.0328H22.1542C23.0097 34.0328 23.4373 33.5783 23.4373 32.7763C23.4373 31.9743 22.9829 31.5065 22.1274 31.5065H20.9646V34.0328H20.9779ZM20.5234 31.1055H22.1809C23.2769 31.1055 23.9319 31.7604 23.9319 32.7763C23.9319 33.7922 23.3037 34.4472 22.1943 34.4472H20.5234V31.1055Z" fill="#9C9C9C"/>
<path d="M33.8132 34.0328H34.9895C35.8449 34.0328 36.2727 33.5783 36.2727 32.7763C36.2727 31.9743 35.8182 31.5065 34.9627 31.5065H33.8132V34.0328ZM33.3454 31.1055H35.0028C36.0989 31.1055 36.7539 31.7604 36.7539 32.7763C36.7539 33.7922 36.1256 34.4472 35.0028 34.4472H33.332V31.1055H33.3454Z" fill="#9C9C9C"/>
<path d="M84.6107 34.0328H85.7869C86.6424 34.0328 87.0701 33.5783 87.0701 32.7763C87.0701 31.9743 86.6156 31.5065 85.7602 31.5065H84.5973V34.0328H84.6107ZM84.1562 31.1055H85.8137C86.9097 31.1055 87.5647 31.7604 87.5647 32.7763C87.5647 33.7922 86.9365 34.4472 85.8137 34.4472H84.1562V31.1055Z" fill="#9C9C9C"/>
<path d="M39.0343 32.9368V34.4472H38.5664V31.1055H39.0343V32.5224H41.4001V31.1055H41.868V34.4472H41.4001V32.9368H39.0343Z" fill="#9C9C9C"/>
<path d="M54.0503 31.1055H53.582V34.4472H54.0503V31.1055Z" fill="#9C9C9C"/>
<path d="M58.8225 31.1055H59.317L57.7664 34.4472H57.2185L55.668 31.1055H56.1758L57.4992 34.0729L58.8225 31.1055Z" fill="#9C9C9C"/>
<path d="M81.7172 31.1055H82.1716V34.4472H81.7038L79.3513 31.707V34.4472H78.9102V31.1055H79.3647L81.7172 33.8457V31.1055Z" fill="#9C9C9C"/>
<path d="M99.4648 34.4472V31.1055H102.392V31.5199H99.9327V32.5224H102.058V32.9234H99.9327V34.0328H102.432V34.4472H99.4648Z" fill="#9C9C9C"/>
<path d="M60.9453 34.4472V31.1055H63.8726V31.5199H61.4132V32.5224H63.525V32.9234H61.4132V34.0328H63.8993V34.4472H60.9453Z" fill="#9C9C9C"/>
<path d="M43.8555 34.4472V31.1055H46.7827V31.5199H44.3233V32.5224H46.4486V32.9234H44.3233V34.0328H46.8228V34.4472H43.8555Z" fill="#9C9C9C"/>
<path d="M106.791 31.9964C106.711 31.6221 106.337 31.3815 105.682 31.3815C105.027 31.3815 104.706 31.5953 104.706 31.9429C104.706 32.9588 107.379 32.0365 107.379 33.5068C107.379 34.1083 106.871 34.5361 105.789 34.5361C104.933 34.5361 104.211 34.1618 104.145 33.44H104.626C104.679 33.9345 105.214 34.1351 105.802 34.1351C106.47 34.1351 106.911 33.9212 106.911 33.5202C106.911 32.491 104.251 33.4266 104.251 31.9429C104.251 31.4082 104.719 30.9805 105.722 30.9805C106.591 30.9805 107.165 31.3681 107.246 31.9696H106.791V31.9964Z" fill="#9C9C9C"/>
<path d="M10.8931 33.2709L11.7218 31.3594L12.5773 33.2709H10.8931ZM13.0986 34.4472H13.5798L12.0427 31.1055H11.4144L9.89062 34.4472H10.3719L10.706 33.6719H12.7377L13.0852 34.4472H13.0986Z" fill="#9C9C9C"/>
<path d="M28.9869 33.2709L29.8156 31.3594L30.6711 33.2709H28.9869ZM31.1923 34.4472H31.6736L30.1364 31.1055H29.5082L27.9844 34.4472H28.4656L28.7997 33.6719H30.8315L31.179 34.4472H31.1923Z" fill="#9C9C9C"/>
<path d="M74.5298 33.2709L75.3719 31.3594L76.214 33.2709H74.5298ZM76.7353 34.4472H77.2164L75.6793 31.1055H75.0511L73.5273 34.4472H74.0085L74.3427 33.6719H76.3744L76.7219 34.4472H76.7353Z" fill="#9C9C9C"/>
<path d="M89.815 33.2709L90.6571 31.3594L91.4992 33.2709H89.815ZM92.0204 34.4472H92.5017L90.9645 31.1055H90.3362L88.8125 34.4472H89.2937L89.6278 33.6719H91.6596L92.007 34.4472H92.0204Z" fill="#9C9C9C"/>
<path d="M51.2013 31.9964C51.1211 31.6221 50.7468 31.3815 50.0919 31.3815C49.4369 31.3815 49.1161 31.5953 49.1161 31.9429C49.1161 32.9588 51.7894 32.0365 51.7894 33.5068C51.7894 34.1083 51.2815 34.5361 50.1988 34.5361C49.3434 34.5361 48.6215 34.1618 48.5547 33.44H49.0359C49.0894 33.9345 49.6241 34.1351 50.2122 34.1351C50.8805 34.1351 51.335 33.9212 51.335 33.5202C51.335 32.491 48.675 33.4266 48.675 31.9429C48.675 31.4082 49.1428 30.9805 50.1587 30.9805C51.0275 30.9805 51.6023 31.3681 51.6825 31.9696H51.228L51.2013 31.9964Z" fill="#9C9C9C"/>
</svg>
