<svg width="431" height="121" viewBox="0 0 431 121" fill="none" xmlns="http://www.w3.org/2000/svg">
<g clip-path="url(#clip0_782_21039)">
<path d="M32.8814 39.5391C35.4292 40.4941 37.7677 41.1035 39.8515 42.2041C47.1764 46.0696 50.3702 52.3454 49.9517 60.4858C49.5786 67.7803 46.13 73.2466 39.351 76.0389C35.775 77.5123 31.835 78.6856 28.0133 78.8585C18.9504 79.2677 9.86022 78.9858 0.296875 78.5219C0.74274 78.0762 1.13401 77.3122 1.65267 77.2213C8.12226 76.0662 8.12226 76.0844 8.12226 69.472C8.12226 51.0357 8.12226 32.5993 8.12226 14.163C8.12226 9.12416 7.25783 8.2419 2.29872 7.87809C1.66177 7.83261 1.07031 7.19594 0.451563 6.84122C1.05212 6.57745 1.65267 6.09539 2.25322 6.0863C9.90572 6.05901 17.5764 5.77706 25.1925 6.24092C29.4146 6.50469 33.7458 7.55975 37.6858 9.12416C44.3192 11.7527 47.5585 17.1827 47.0399 24.1588C46.5394 30.9167 42.9634 35.6918 36.603 38.2749C35.4929 38.7205 34.3373 39.048 32.8905 39.5391H32.8814ZM21.3435 41.1308C19.5965 41.1308 18.2316 41.1854 16.8758 41.1126C15.52 41.0399 15.0013 41.5401 15.0104 42.9317C15.0468 53.4187 15.0468 63.9056 15.0104 74.4017C15.0104 75.7933 15.52 76.2845 16.8667 76.2208C20.3426 76.0571 23.8458 76.1844 27.2853 75.766C32.5356 75.1202 37.2855 73.2557 40.3792 68.6171C45.766 60.5676 42.6904 48.2252 34.1644 43.6593C30.0424 41.4491 25.5474 41.0035 21.3435 41.1217V41.1308ZM15.0286 37.8747C20.9704 38.0475 26.5483 38.284 31.8805 36.0829C37.3674 33.8181 40.5976 28.752 40.4065 22.6581C40.2154 16.5733 37.1035 12.1165 30.9888 10.6613C26.3481 9.56073 21.4709 9.45159 16.7029 8.93315C14.9649 8.74215 15.0286 9.97912 15.0286 11.1615C15.0286 18.4742 15.0286 25.7869 15.0286 33.0996C15.0286 34.5912 15.0286 36.0829 15.0286 37.8656V37.8747Z" fill="#B7F524"/>
<path d="M252.217 33.0106C252.317 32.2012 252.417 31.7828 252.417 31.3553C252.417 23.4241 252.462 15.4929 252.408 7.57086C252.381 3.69623 250.825 2.27735 246.857 1.9772C245.811 1.89534 244.228 2.58659 244.027 0.758419C244.009 0.612893 245.902 0.0671698 246.912 0.048979C250.979 -0.0328794 255.047 0.0125975 259.36 0.0125975V2.94131C259.36 25.5251 259.36 48.0999 259.36 70.6837C259.36 75.8226 260.115 76.6048 265.274 77.196C265.966 77.2779 266.594 77.8418 267.258 78.1874C267.158 78.4239 267.058 78.6695 266.967 78.9059H252.417V72.5483C249.678 75.4224 246.876 77.7326 243.336 79.0787C232.499 83.1899 220.16 77.769 215.938 66.7727C212.599 58.0684 212.58 49.1458 215.72 40.4052C221.616 23.9334 241.616 21.6141 252.217 33.0197V33.0106ZM252.426 52.402C252.426 49.0003 252.308 45.5987 252.462 42.2061C252.617 38.8863 251.207 36.3759 248.85 34.2658C239.705 26.0891 225.993 29.8909 222.253 41.7968C219.987 49.0094 220.005 56.4494 221.925 63.7257C224.091 71.8843 230.843 76.4593 239.05 75.8499C245.219 75.3951 253.136 69.7469 252.453 61.6884C252.199 58.6141 252.408 55.4944 252.408 52.402H252.426Z" fill="#B7F524"/>
<path d="M163.539 27.2178V35.6129C164.322 34.6488 164.767 34.1212 165.195 33.5755C171.428 25.6534 182.529 23.4342 190.855 28.6276C196.105 31.902 198.344 37.059 198.462 43.0165C198.644 52.3848 198.517 61.753 198.526 71.1212C198.526 75.5234 199.645 76.7058 204.058 77.1151C205.068 77.2061 206.606 76.7968 206.096 78.916H183.539C184.404 78.0701 184.804 77.3152 185.341 77.2152C191.547 76.0782 191.82 75.7872 191.82 69.5205C191.82 61.5893 191.856 53.649 191.792 45.7179C191.774 43.8442 191.619 41.9251 191.228 40.0969C189.326 31.2562 179.745 28.6276 172.465 32.2203C169.854 33.5118 167.47 35.6584 165.614 37.9231C164.358 39.4602 163.703 41.8887 163.648 43.9443C163.439 52.8577 163.557 61.7712 163.557 70.6938C163.557 75.5416 164.595 76.6785 169.399 77.1151C170.473 77.2152 171.701 77.0787 171.119 78.9251H148.789C149.417 78.1156 149.699 77.5426 150.154 77.2333C150.472 77.0151 151.037 77.1333 151.492 77.0969C155.695 76.724 156.851 75.4597 156.86 71.1667C156.878 63.0082 156.86 54.8496 156.86 46.682C156.86 42.68 156.887 38.6689 156.851 34.667C156.815 30.8651 155.486 29.4735 151.755 29.2006C151.528 29.1824 151.264 29.2279 151.082 29.137C150.445 28.7913 149.835 28.4002 149.208 28.0273C149.817 27.7545 150.418 27.2542 151.037 27.2451C155.113 27.1724 159.199 27.2088 163.539 27.2088V27.2178Z" fill="#B7F524"/>
<path d="M104.493 44.9699H102.3C102.3 39.3853 102.282 33.8917 102.346 28.3981C102.346 28.007 102.973 27.3703 103.383 27.3067C103.71 27.2612 104.357 27.8524 104.475 28.2799C105.185 30.7265 105.612 30.9812 107.869 29.5714C114.175 25.6331 120.872 24.8418 127.869 27.1975C133.347 29.0439 136.222 33.2914 137.351 38.7032C137.896 41.3409 138.078 44.0968 138.106 46.8072C138.197 55.0385 138.115 63.2789 138.16 71.5193C138.169 73.3384 137.651 75.6577 139.98 76.4035C142.555 77.2221 143.447 74.9301 144.539 73.2293C144.621 73.111 144.748 73.0292 144.903 72.8836C146.495 73.0746 146.796 73.8477 146.104 75.3303C144.293 79.2049 140.326 81.1786 136.149 80.1872C132.819 79.3959 131.591 77.5132 131.172 72.5562C130.881 72.2561 130.581 71.965 130.289 71.6649C130.135 72.247 130.162 72.9837 129.807 73.4021C124.402 79.7961 116.176 82.1064 108.251 79.3595C103.774 77.8042 100.453 74.921 99.6067 70.0368C98.5876 64.2157 100.362 59.2769 104.975 55.5115C108.879 52.3281 113.583 50.8728 118.351 49.5904C121.563 48.7263 124.784 47.8804 127.96 46.9163C130.317 46.2069 131.4 44.7152 131.318 42.0412C131.099 34.6739 127.623 30.0808 121.008 28.9257C114.939 27.8706 107.842 32.1636 105.831 38.303C105.139 40.4131 104.93 42.687 104.484 44.979L104.493 44.9699ZM131.245 48.8082C126.723 50.227 122.473 51.464 118.278 52.892C114.666 54.129 111.327 55.8662 108.952 59.0314C105.321 63.8792 105.721 71.1191 109.989 74.1297C114.011 76.9675 118.451 76.8401 122.746 74.9301C127.15 72.9746 130.735 69.8458 131.154 64.7797C131.582 59.5316 131.254 54.229 131.254 48.8082H131.245Z" fill="#B7F524"/>
<path d="M71.6514 35.1122C79.4131 26.0441 88.0302 23.461 95.0913 27.9723C94.2359 30.037 93.3624 32.1562 92.4616 34.3209C91.9247 34.1845 91.5242 34.2027 91.3787 34.0208C87.9482 29.6368 81.424 30.3098 77.2111 33.4841C73.717 36.1127 71.6151 39.4507 71.6788 44.0621C71.7971 53.0483 71.7061 62.0345 71.7152 71.0208C71.7152 75.4411 73.0073 76.76 77.4933 77.051C78.0938 77.0874 78.7397 77.0146 79.2948 77.1965C80.0227 77.433 80.6871 77.8696 81.3786 78.2243C80.6325 78.5063 79.8955 79.0065 79.1493 79.0247C73.7716 79.0975 68.403 79.0611 63.0253 79.0611C61.2145 79.0611 59.4129 79.0611 57.6021 79.0611C57.4565 78.8883 57.3019 78.7155 57.1562 78.5427C57.5748 78.097 57.9207 77.524 58.4393 77.242C58.8579 77.0055 59.4766 77.1329 60.0043 77.0783C63.6713 76.7327 64.9908 75.3957 64.9999 71.7302C65.0363 59.3423 65.0363 46.9635 64.9999 34.5756C64.9908 30.8465 63.5985 29.5094 59.7859 29.2184C59.331 29.182 58.8397 29.2184 58.4393 29.0456C58.0299 28.8728 57.7114 28.4817 57.3474 28.1906C57.7569 27.8723 58.1573 27.2902 58.5667 27.2902C62.8707 27.2265 67.1656 27.2447 71.6424 27.2447V35.1213L71.6514 35.1122Z" fill="#B7F524"/>
<path fill-rule="evenodd" clip-rule="evenodd" d="M57.5032 28.0596C57.5803 27.9893 57.6571 27.9134 57.7338 27.8376C58.0113 27.5635 58.2872 27.2909 58.5674 27.2909C62.0841 27.2389 65.5948 27.2415 69.2036 27.2443C70.0114 27.2449 70.8242 27.2455 71.6431 27.2455V35.1221L71.6522 35.113C71.7158 35.0387 71.7794 34.9649 71.8431 34.8914C79.5549 26.003 88.0887 23.4987 95.0919 27.9731C94.8013 28.6746 94.5086 29.3823 94.2135 30.0961C93.6399 31.483 93.057 32.8924 92.4622 34.3217C92.2735 34.2737 92.1016 34.2448 91.9517 34.2197C91.6753 34.1733 91.4738 34.1395 91.3794 34.0215C87.949 29.6375 81.4248 30.3106 77.2119 33.4849C73.7177 36.1135 71.6158 39.4515 71.6795 44.0628C71.7595 50.1417 71.7438 56.2206 71.728 62.2996C71.7205 65.2069 71.7129 68.1142 71.7159 71.0215C71.7159 75.4419 73.008 76.7607 77.4939 77.0518C77.6741 77.0627 77.8584 77.0638 78.0432 77.0649C78.474 77.0674 78.9071 77.07 79.2956 77.1973C79.8111 77.3648 80.2947 77.6326 80.7787 77.9007C80.9011 77.9685 81.0235 78.0363 81.1465 78.1025C81.2238 78.1441 81.3014 78.1851 81.3793 78.2251C81.2982 78.2557 81.2173 78.2889 81.1364 78.3238C80.9836 78.3898 80.831 78.4617 80.6787 78.5335C80.1695 78.7736 79.6619 79.013 79.15 79.0255C75.117 79.08 71.0892 79.0732 67.0588 79.0664C65.7149 79.0641 64.3708 79.0619 63.0261 79.0619H57.6029C57.5301 78.9754 57.455 78.889 57.38 78.8026C57.3049 78.7162 57.2298 78.6298 57.157 78.5434C57.283 78.4093 57.4024 78.2636 57.5219 78.1178C57.7994 77.7792 58.0775 77.4399 58.44 77.2428C58.719 77.0851 59.087 77.0892 59.4576 77.0932C59.643 77.0952 59.8291 77.0973 60.0051 77.0791C63.6721 76.7334 64.9915 75.3964 65.0006 71.731C65.037 59.3431 65.037 46.9643 65.0006 34.5763C64.9915 30.8472 63.5993 29.5102 59.7867 29.2192C59.6691 29.2098 59.5491 29.2052 59.4288 29.2007C59.0838 29.1876 58.7369 29.1745 58.44 29.0464C58.1615 28.9288 57.925 28.7102 57.6877 28.4908C57.6267 28.4344 57.5656 28.378 57.5038 28.3232C57.4526 28.2778 57.4008 28.2335 57.3481 28.1914C57.3999 28.1511 57.4516 28.1066 57.5032 28.0596ZM58.3615 29.2303C58.592 29.3296 58.8409 29.3658 59.0781 29.3834C59.1928 29.3919 59.3086 29.3963 59.42 29.4005L59.4331 29.401C59.5499 29.4054 59.6619 29.4098 59.7708 29.4185C61.6645 29.5631 62.9044 29.9654 63.6776 30.749C64.4479 31.5295 64.7961 32.7302 64.8006 34.5768C64.837 46.9643 64.837 59.3429 64.8006 71.7304C64.7961 73.5462 64.4657 74.7329 63.7292 75.5126C62.9911 76.294 61.8061 76.7084 59.9863 76.8799L59.9845 76.8801C59.8193 76.8972 59.6533 76.8953 59.4756 76.8932C59.3804 76.8921 59.2819 76.891 59.1783 76.8927C58.9016 76.8973 58.5988 76.9239 58.3431 77.0678C58.0524 77.2262 57.8179 77.4614 57.6101 77.7005C57.5201 77.804 57.4385 77.9037 57.3592 78.0007C57.2447 78.1406 57.1349 78.2749 57.0112 78.4065C56.9418 78.4804 56.9387 78.5947 57.0041 78.6723C57.0778 78.7598 57.1537 78.8471 57.2284 78.9331C57.3037 79.0197 57.3783 79.1057 57.4499 79.1907C57.4879 79.2358 57.5439 79.2619 57.6029 79.2619H63.0261C64.37 79.2619 65.7136 79.2641 67.0572 79.2664C71.088 79.2732 75.118 79.28 79.1527 79.2255L79.1549 79.2254C79.5684 79.2153 79.9687 79.0723 80.345 78.9074C80.4942 78.8419 80.6366 78.7747 80.776 78.7089C81.0025 78.6019 81.2214 78.4986 81.45 78.4122C81.524 78.3842 81.5746 78.3153 81.579 78.2363C81.5835 78.1574 81.541 78.0832 81.4706 78.0471C81.2694 77.9439 81.0769 77.8372 80.8813 77.7289C80.7391 77.65 80.5952 77.5703 80.4452 77.4903C80.098 77.3054 79.738 77.1308 79.3576 77.0072C79.0525 76.9072 78.7294 76.8793 78.4178 76.87C78.2843 76.8661 78.1577 76.8654 78.0341 76.8648C77.8559 76.8638 77.6839 76.8629 77.5065 76.8522C75.269 76.707 73.8941 76.3064 73.0668 75.4465C72.241 74.5881 71.9159 73.2245 71.9159 71.0215C71.9129 68.1158 71.9205 65.2091 71.928 62.3022C71.9438 56.2223 71.9595 50.1407 71.8795 44.0602C71.8168 39.5257 73.8775 36.2435 77.3321 33.6447C79.4068 32.0815 82.05 31.1356 84.5904 31.1189C87.1274 31.1021 89.552 32.0106 91.2219 34.1448L91.2233 34.1465C91.2893 34.229 91.3765 34.2789 91.4616 34.3122C91.5459 34.3452 91.6413 34.367 91.7368 34.3851C91.7989 34.397 91.8623 34.4076 91.9279 34.4186C92.0746 34.4432 92.2324 34.4696 92.413 34.5155C92.5092 34.54 92.6088 34.4902 92.6469 34.3985C93.2418 32.9691 93.8248 31.5593 94.3984 30.1721C94.6936 29.4585 94.9862 28.7509 95.2767 28.0496C95.3138 27.9601 95.2813 27.8568 95.1996 27.8046C91.618 25.5163 87.6377 25.0277 83.5768 26.2594C79.6408 27.4532 75.6386 30.2594 71.8431 34.5872V27.2455C71.8431 27.135 71.7535 27.0455 71.6431 27.0455C70.8246 27.0455 70.012 27.0449 69.2043 27.0443C65.5959 27.0415 62.0838 27.0389 58.5658 27.0909C58.4162 27.0913 58.2797 27.1445 58.1605 27.2144C58.0411 27.2844 57.9278 27.3781 57.8227 27.4743C57.7451 27.5453 57.6664 27.623 57.5909 27.6976C57.5648 27.7234 57.5391 27.7488 57.5139 27.7734C57.4131 27.8721 57.3181 27.9614 57.2254 28.0335C57.177 28.0711 57.1485 28.1288 57.1481 28.19C57.1477 28.2513 57.1754 28.3093 57.2232 28.3476C57.3349 28.4369 57.4365 28.531 57.5436 28.6301C57.6075 28.6892 57.6734 28.7502 57.7446 28.8131C57.9248 28.9723 58.1263 29.1309 58.3615 29.2303Z" fill="#B7F524"/>
<mask id="mask0_782_21039" style="mask-type:luminance" maskUnits="userSpaceOnUse" x="274" y="13" width="157" height="108">
<path d="M430.825 13.0781H274.422V120.122H430.825V13.0781Z" fill="white"/>
</mask>
<g mask="url(#mask0_782_21039)">
<path fill-rule="evenodd" clip-rule="evenodd" d="M279.324 80.3077C276.591 80.3077 275.007 79.4062 274.579 77.589C274.151 75.7789 274.557 73.5468 275.792 70.9068C276.156 70.127 276.605 69.3186 277.14 68.4815C277.676 67.6516 278.246 66.7931 278.853 65.9131C281.75 61.9996 285.482 57.614 290.034 52.7634C294.587 47.9127 298.832 43.5772 302.764 39.7567C305.033 37.6033 306.931 36.0579 308.437 35.1279C309.942 34.1978 311.434 33.511 312.911 33.0674C313.971 32.7491 315.174 32.3976 316.518 32.0051C317.047 31.8506 317.597 31.6898 318.169 31.5221C318.747 31.3289 319.304 31.1787 319.839 31.0785C320.374 30.9855 320.952 30.8853 321.587 30.7852C318.719 32.7455 315.644 35.0992 312.368 37.8394C309.086 40.5795 305.154 44.357 300.573 49.1504C298.112 51.6974 295.543 54.5376 292.867 57.6713C290.184 60.8049 287.765 63.7453 285.61 66.4854C283.455 69.2256 281.957 71.3862 281.129 72.953C280.166 74.8131 279.795 76.1367 280.016 76.9165C280.237 77.7035 280.837 78.0898 281.814 78.0898C283.477 78.0898 285.332 77.5032 287.401 76.3298C289.463 75.1565 291.376 73.9331 293.145 72.6596C296.435 70.2128 299.717 67.5157 302.992 64.5824C306.124 61.7772 309.315 58.7823 312.571 55.6164C315.761 51.9 318.8 48.1837 321.689 44.4674C323.844 41.7273 325.821 39.0587 327.619 36.4617C329.417 33.8646 330.445 32.1762 330.716 31.3964L330.851 31.1031C331.215 30.3232 331.693 30.1229 332.3 30.5164C333.249 31.2032 333.663 32.2048 333.534 33.5284C333.406 34.8519 332.956 36.3472 332.179 38.007C331.308 39.8671 330.138 41.8561 328.668 43.9594C327.198 46.07 325.728 47.9516 324.273 49.6185C326.363 47.8586 328.561 46.07 330.873 44.2528C333.185 42.4427 335.604 40.7042 338.137 39.0372C341.148 36.9768 344.181 35.1953 347.234 33.6715C350.288 32.1547 353.178 31.3964 355.918 31.3964C358.658 31.3964 360.207 31.983 360.885 33.1564C361.555 34.3297 361.441 35.8965 360.528 37.8568C359.572 39.9172 357.888 42.2639 355.483 44.911C352.793 47.9516 349.839 50.985 346.621 54.0185C343.396 57.0591 340.392 59.9924 337.602 62.8326C337.038 63.4193 336.146 64.3279 334.94 65.5513C333.734 66.7747 332.543 68.1197 331.372 69.5935C330.859 70.2803 330.331 70.9886 329.795 71.7255C329.253 72.4624 328.804 73.2208 328.44 74.0006C327.983 74.9808 327.776 75.8894 327.833 76.7193C327.883 77.5563 328.547 77.9713 329.817 77.9713C331.479 77.9713 333.327 77.4061 335.368 76.2828C337.409 75.1596 339.257 73.9577 340.927 72.6842C344.316 70.2374 347.655 67.5188 350.959 64.5282C351.67 63.8845 352.384 63.2325 353.101 62.5723C361.307 51.5645 371.413 42.7802 383.405 36.2264C385.902 34.8527 388.707 33.751 391.832 32.9211C394.95 32.0912 397.883 31.669 400.623 31.669C404.433 31.669 407.366 32.5061 409.421 34.1659L410.063 33.7223C413.859 30.3956 417.406 27.5982 420.709 25.3446C424.006 23.091 427.374 21.6243 430.827 20.9375C425.818 24.5648 420.502 29.1436 414.901 34.6739C409.293 40.2113 403.805 46.0636 398.439 52.2307C393.074 58.4049 388.072 64.2572 383.441 69.7875C378.81 75.325 374.892 79.9467 371.696 83.6741C378.346 80.934 384.932 77.2352 391.447 72.5777C397.961 67.9273 404.012 62.8549 409.599 57.3675C410.919 55.9939 411.975 55.3071 412.753 55.3071C412.946 55.3071 412.974 55.4573 412.839 55.7506C412.653 56.1441 412.211 56.6807 411.497 57.3675C408.279 60.5011 404.968 63.5632 401.572 66.5537C398.175 69.5442 394.615 72.3058 390.89 74.8528C387.644 77.2066 384.218 79.36 380.622 81.3203C377.019 83.2806 373.266 84.9905 369.362 86.4643C364.46 91.9517 359.623 96.9955 354.835 101.596C350.054 106.196 345.216 110.067 340.335 113.2C335.455 116.334 330.367 118.437 325.08 119.517V119.532C323.331 119.925 321.676 120.118 320.113 120.118C317.181 120.118 315.318 119.403 314.512 117.986C313.706 116.563 313.784 114.824 314.747 112.771C315.568 111.011 317.038 109.122 319.143 107.112C321.255 105.101 323.845 103.313 326.921 101.746C330.909 99.6856 334.434 98.0472 337.495 96.8238C340.557 95.6004 343.839 94.377 347.342 93.1536C350.846 91.9302 355.27 90.2919 360.629 88.2314C363.654 85.0978 366.836 81.5206 370.169 77.507C373.508 73.4934 376.798 69.5228 380.037 65.6093C383.277 61.6959 386.195 58.3119 388.792 55.4716C388.214 55.8651 386.959 56.8953 385.011 58.5551C383.063 60.2221 381.593 61.4956 380.594 62.3756C378.218 64.3359 375.299 66.7111 371.853 69.5013C368.399 72.2915 364.996 74.6668 361.642 76.6271C357.325 79.174 353.9 80.4475 351.36 80.4475C348.819 80.4475 347.514 79.4173 347.157 77.364C346.8 75.3035 347.349 72.7136 348.805 69.58C349.108 68.9323 349.437 68.2846 349.792 67.6367C346.706 70.3461 343.323 72.9636 339.642 75.4744C337.78 76.7479 335.789 77.8783 333.67 78.8513C331.551 79.8314 329.467 80.3179 327.419 80.3179L327.398 80.3036C324.565 80.3036 322.753 79.4236 321.961 77.6565C321.169 75.8965 321.39 73.693 322.624 71.0459C323.216 69.7724 324.144 68.3057 325.414 66.6388C328.789 62.3318 332.964 58.0464 337.93 53.7824C342.896 49.5184 347.334 45.283 351.252 41.0762C352.572 39.7026 353.485 38.4792 353.992 37.406C354.498 36.3329 354.555 35.5245 354.17 34.9807C353.785 34.4441 353.157 34.1723 352.272 34.1723C351.002 34.1723 349.175 34.6874 346.792 35.7176C344.409 36.7478 341.333 38.6795 337.566 41.5198C335.275 43.2798 332.614 45.4404 329.567 47.9873C326.52 50.5343 323.937 52.838 321.804 54.8913C318.293 58.2252 314.975 61.5735 311.835 64.9575C308.696 68.3343 305.877 71.4465 303.387 74.2868C301.361 76.5404 299.512 77.9856 297.85 78.6223C296.18 79.2591 294.739 79.5238 293.519 79.4308C292.291 79.3378 291.314 79.3378 290.586 79.4308C294.157 75.7622 297.772 71.9576 301.427 68.0169C298.47 70.6289 295.275 73.1052 291.847 75.4498C289.984 76.7233 287.965 77.8537 285.803 78.8267C283.634 79.8069 281.479 80.2933 279.331 80.2933L279.324 80.3077ZM324.192 22.4861C323.064 22.4861 322.322 22.0998 321.958 21.3271C321.595 20.5544 321.659 19.653 322.144 18.6299C322.815 17.1919 323.963 15.9327 325.598 14.8524C327.224 13.7721 328.737 13.1783 330.121 13.0781C331.249 13.0781 332.005 13.4358 332.383 14.1584C332.769 14.881 332.697 15.8039 332.169 16.9343C331.548 18.2722 330.421 19.5314 328.787 20.719C327.16 21.8995 325.626 22.4933 324.192 22.4933V22.4861ZM337.21 110.789C333.414 113.486 329.561 115.368 325.636 116.448C324.616 116.742 323.695 116.935 322.868 117.035C322.04 117.135 321.284 117.185 320.599 117.185C318.743 117.185 317.58 116.742 317.109 115.862C316.638 114.982 316.703 113.901 317.295 112.628C317.937 111.254 319.086 109.788 320.741 108.221C322.404 106.647 324.502 105.13 327.042 103.663C332.75 100.43 338.394 97.9041 343.982 96.0941C349.569 94.284 354.235 92.5956 357.996 91.0288C354.984 94.5559 351.716 98.0544 348.191 101.531C344.667 105.008 341.006 108.092 337.21 110.789ZM364.118 72.8853C361.035 74.8957 358.517 75.8973 356.561 75.8973L356.547 75.9045C355.377 75.9045 354.82 75.3679 354.885 74.2876C354.949 73.2073 355.32 71.9338 356.005 70.4671C356.875 68.607 357.96 66.7898 359.273 65.0298C361.613 61.8962 364.874 58.2475 369.063 54.0837C373.251 49.9198 377.854 46.0278 382.863 42.4006C386.295 39.8536 389.77 37.7932 393.288 36.2264C396.805 34.6596 399.981 33.8726 402.814 33.8726C404.961 33.8726 406.738 34.3591 408.137 35.3392C404.569 38.3798 401.365 41.17 398.518 43.717C396.968 45.1032 395.47 46.4449 394.019 47.7433C392.805 48.8305 391.624 49.8872 390.476 50.9143C388.914 52.3881 386.645 54.47 383.683 57.16C380.722 59.8572 377.49 62.6474 373.993 65.5378C370.49 68.4282 367.2 70.8821 364.118 72.8853Z" fill="#B7F524"/>
</g>
</g>
<defs>
<clipPath id="clip0_782_21039">
<rect width="431" height="121" fill="white"/>
</clipPath>
</defs>
</svg>
