<svg width="144" height="24" viewBox="0 0 144 24" fill="none" xmlns="http://www.w3.org/2000/svg">
<path d="M143.653 23.1289C142.236 20.4421 140.832 17.7554 139.402 15.0687C139.188 14.6677 139.202 14.4805 139.656 14.28C143.051 12.8097 144.054 9.01348 142.851 5.93911C141.861 3.42615 139.415 1.90234 136.368 1.90234C132.037 1.90234 127.706 1.90234 123.362 1.90234C123.175 1.90234 122.988 1.92908 122.801 1.94244V23.7036C124.953 23.7036 127.038 23.6903 129.11 23.7036C129.631 23.7036 129.658 23.4631 129.658 23.0621C129.658 20.8565 129.658 18.6376 129.658 16.4321V15.6835C130.433 15.6835 131.115 15.6969 131.783 15.6835C132.184 15.6702 132.398 15.8038 132.572 16.1781C133.668 18.5039 134.817 20.8164 135.913 23.1556C136.114 23.57 136.341 23.717 136.809 23.717C138.974 23.6903 141.14 23.717 143.305 23.7036C143.465 23.7036 143.626 23.6769 143.866 23.6635C143.773 23.4363 143.706 23.2759 143.626 23.1289H143.653ZM134.323 10.8581C132.799 10.8581 131.275 10.8581 129.685 10.8581V6.94162C129.898 6.92826 130.099 6.88819 130.313 6.88819C131.649 6.88819 132.973 6.88819 134.309 6.88819C135.486 6.88819 136.301 7.70356 136.288 8.85311C136.288 10.0027 135.459 10.8448 134.323 10.8581Z" fill="#9C9C9C"/>
<path d="M107.037 17.135C107.037 17.135 107.037 17.1082 107.037 17.0949V16.8543C107.037 16.8543 107.037 16.8542 107.037 16.8409V15.3839V15.0364H117.222V10.0238H107.037V9.06142C107.037 9.06142 107.037 9.04803 107.037 9.03466V8.24602V7.37718V7.02963H107.625C107.625 7.02963 107.692 7.02963 107.732 7.02963C111.194 7.043 114.642 7.02963 118.104 7.02963H118.839V1.91016H100.18V23.6179C100.26 23.6446 100.3 23.658 100.34 23.658C106.422 23.658 112.504 23.658 118.585 23.658C118.719 23.658 118.813 23.6446 118.879 23.6045V18.4048H107.023V17.1216L107.037 17.135Z" fill="#9C9C9C"/>
<path d="M75.2305 7.4039H80.6707C80.9647 7.4039 81.2722 7.4039 81.5662 7.4039C81.6331 7.4039 81.6999 7.4039 81.7667 7.4039H82.2479V23.658H83.5712C83.6915 23.658 83.8252 23.658 83.9722 23.658H89.2119V22.5084C89.2119 19.8217 89.2119 17.1483 89.2119 14.4616V7.4039H89.8C89.8 7.4039 89.9203 7.4039 89.9871 7.4039C90.2545 7.4039 90.5084 7.4039 90.7758 7.4039H96.2694V1.91016H75.2305V7.4039Z" fill="#9C9C9C"/>
<path d="M50.6719 7.4039H56.112C56.4061 7.4039 56.7135 7.4039 57.0076 7.4039C57.0744 7.4039 57.1413 7.4039 57.2081 7.4039H57.6893V23.658H59.0126C59.1329 23.658 59.2665 23.658 59.4136 23.658H64.6533V22.5084C64.6533 19.8217 64.6533 17.1483 64.6533 14.4616V7.4039H65.2414C65.2414 7.4039 65.3617 7.4039 65.4285 7.4039C65.6958 7.4039 65.9498 7.4039 66.2171 7.4039H71.7108V1.91016H50.6719V7.4039Z" fill="#9C9C9C"/>
<path d="M19.2229 13.1277C18.7417 12.9005 18.2338 12.7134 17.659 12.4861C17.659 12.4861 17.6858 12.4861 17.6858 12.4728C17.8996 12.4059 18.5546 12.1921 19.2363 11.6975C21.5888 10.1603 21.8027 6.64482 20.6398 4.73336C19.4769 2.8219 17.7125 1.95306 15.5338 1.9397C10.8287 1.8996 6.12372 1.9397 1.4187 1.9397C1.27166 1.9397 1.12463 1.95305 0.9375 1.96642V23.7009C1.0578 23.7143 1.13799 23.741 1.21819 23.741C6.07024 23.741 10.9357 23.8078 15.7877 23.7143C18.0333 23.6742 19.9581 22.7786 21.1343 20.7067C21.9096 19.3433 21.9497 17.8596 21.6423 16.3759C21.3482 14.9323 20.573 13.7961 19.1962 13.1678L19.2229 13.1277ZM7.82126 7.68746V6.67157H10.1738C11.0426 6.67157 11.9114 6.67155 12.7936 6.69829C13.7293 6.72502 14.411 7.63399 14.3709 8.68997C14.3308 9.75932 13.6624 10.4811 12.6867 10.4811C11.0961 10.4811 9.50545 10.4811 7.82126 10.4811C7.82126 9.49198 7.82126 8.58304 7.82126 7.68746ZM14.7451 17.5521C14.558 18.2205 13.903 18.7017 13.0877 18.7017C11.5104 18.7151 9.93318 18.7017 8.3693 18.7017C8.26236 18.7017 8.18216 18.7017 8.11533 18.675H7.82126V18.3542C7.82126 18.3542 7.8079 18.2205 7.8079 18.127C7.83464 17.0843 7.8079 16.0417 7.8079 14.9055C9.75942 14.9055 11.5906 14.9055 13.4218 14.9055C13.6223 14.9055 13.8496 15.0125 14.0233 15.1194C14.7451 15.5605 15.0125 16.5095 14.7318 17.5254L14.7451 17.5521Z" fill="#9C9C9C"/>
<path d="M28.6714 9.55525C28.6714 9.55525 28.6981 9.55525 28.7115 9.55525C29.4867 9.39485 30.1417 8.95374 30.5828 8.29877C31.0372 7.63043 31.1977 6.82841 31.0373 6.03977C30.8902 5.25113 30.4357 4.56943 29.7674 4.12832C29.0991 3.67385 28.2971 3.51346 27.5218 3.67386C26.7466 3.82089 26.0515 4.27534 25.5971 4.94368C25.1426 5.61202 24.9822 6.41406 25.1426 7.18934C25.2896 7.97798 25.7441 8.65969 26.4124 9.11417C27.0808 9.56864 27.8827 9.72904 28.6714 9.56863V9.55525Z" fill="#9C9C9C"/>
<path d="M43.3372 6.69979C43.3372 6.69979 43.364 6.69979 43.3773 6.69979C44.1526 6.53938 44.8076 6.09827 45.2486 5.4433C45.7031 4.77496 45.8635 3.97295 45.7031 3.1843C45.5561 2.39566 45.1016 1.71396 44.4333 1.27286C43.765 0.818383 42.963 0.657986 42.1877 0.818388C41.3991 0.97879 40.7174 1.41991 40.2629 2.08825C39.8085 2.75659 39.6481 3.55859 39.7951 4.33387C39.9421 5.12251 40.3966 5.80423 41.0649 6.2587C41.7332 6.71317 42.5352 6.87357 43.3239 6.71317L43.3372 6.69979Z" fill="#9C9C9C"/>
<path d="M46.8293 12.8208L42.9931 12.7539C42.7926 12.7539 42.6188 12.901 42.6188 13.1148C42.6188 13.4356 42.5654 14.2644 42.4183 14.906C41.897 16.9511 40.5203 18.4482 38.649 19.0096L38.7024 19.2101L38.5821 19.0363C38.5153 19.0631 38.4351 19.0764 38.3683 19.0898L38.4217 19.2903L38.3282 19.1032C38.3282 19.1032 38.2346 19.1299 38.1811 19.1432C38.1276 19.1432 38.0609 19.17 38.0074 19.17C35.989 19.5175 33.984 18.6888 32.6474 16.9778C32.2464 16.4298 31.8721 15.6679 31.7251 15.3738C31.6315 15.1867 31.4177 15.1065 31.2439 15.2001L27.7552 16.7907C27.5815 16.8709 27.4879 17.0714 27.5681 17.2585C27.6884 17.5526 27.929 18.1541 28.2498 18.7556C28.2899 18.8358 28.33 18.916 28.3835 18.9962C28.4637 19.1433 28.5572 19.3037 28.6508 19.4373C31.0835 23.3404 35.6281 24.4231 39.0767 23.7815L39.1836 23.7548H39.2772C39.2772 23.7548 39.3841 23.7147 39.4242 23.7013L39.5178 23.6746C39.6782 23.6345 39.8252 23.5944 39.9856 23.5543L40.146 23.5008C43.0599 22.5785 46.4149 20.0255 47.0832 15.6411C47.11 15.4674 47.1367 15.2803 47.1501 15.1065V14.8926C47.2303 14.1574 47.2035 13.4624 47.2035 13.195C47.2035 12.9945 47.0298 12.8475 46.8427 12.8475L46.8293 12.8208Z" fill="#9C9C9C"/>
</svg>
