<svg width="151" height="12" viewBox="0 0 151 12" fill="none" xmlns="http://www.w3.org/2000/svg">
<path d="M70.6501 8.30383H62.5901V0.136719H59.8633V7.36814C59.8633 9.49346 61.5876 11.2178 63.7129 11.2178H69.5406C71.6659 11.2178 73.3902 9.49346 73.3902 7.36814V0.136719H70.6635V8.30383H70.6501Z" fill="#9C9C9C"/>
<path d="M137.332 10.97H150.324V8.25655H139.885V2.88305H150.324V0.15625H137.332V10.97Z" fill="#9C9C9C"/>
<path d="M103.055 10.9686H115.967V8.25514H105.781V0.261719H103.055V10.9686Z" fill="#9C9C9C"/>
<path d="M120.166 0.261719H117.453V11.0889H120.166V0.261719Z" fill="#9C9C9C"/>
<path d="M124.225 0.136719H121.512V11.0708H124.225V0.136719Z" fill="#9C9C9C"/>
<path d="M135.893 0.136719H133.18V11.0708H135.893V0.136719Z" fill="#9C9C9C"/>
<path d="M126.538 1.3962L124.418 3.08984L130.3 10.4525L132.42 8.75888L126.538 1.3962Z" fill="#9C9C9C"/>
<path d="M150.326 4.30078H139.539V7.01429H150.326V4.30078Z" fill="#9C9C9C"/>
<path d="M87.2091 5.04871V2.70952C87.2091 1.07876 85.7521 0.263388 84.8966 0.0361518L84.7229 -0.00390625H74.6445V11.0772H77.358V7.72208H84.4021C84.4422 7.85575 84.4823 8.05628 84.4823 8.33698V11.0772H87.1957V8.33698C87.1957 7.48151 86.9953 6.83988 86.7948 6.39878C87.022 5.9844 87.1556 5.50319 87.1957 5.04871M77.3446 2.70952H84.2951C84.2951 2.70952 84.4288 2.77638 84.4689 2.81648V4.86156C84.4689 4.86156 84.4422 4.96856 84.4289 5.00866H77.3312V2.70952H77.3446Z" fill="#9C9C9C"/>
<path d="M99.3396 11.2625H89.1543V8.54902H99.1792C99.2728 8.44209 99.4465 8.14808 99.4465 7.61341C99.4465 7.31934 99.2193 7.10543 99.0589 6.98513H91.2528C89.9028 6.98513 88.4727 5.82225 88.4727 3.68356C88.4727 1.67853 90.0365 0.756186 90.8652 0.555683L91.0256 0.515625H101.211V3.22905H91.4266C91.186 3.34935 91.186 3.58999 91.186 3.68356C91.186 4.0311 91.2662 4.21823 91.333 4.2717H99.6737L99.9277 4.37858C100.756 4.72612 102.173 5.79545 102.173 7.62671C102.173 9.87234 100.716 11.2759 99.353 11.2759" fill="#9C9C9C"/>
<path d="M3.38706 8.33924V2.99251H13.5189V0.265625H4.00191C1.87663 0.265625 0.152344 1.98995 0.152344 4.11528V7.22977C0.152344 9.3551 1.87663 11.0794 4.00191 11.0794H13.5189V8.35262H3.38706V8.33924Z" fill="#9C9C9C"/>
<path d="M18.6698 0.53579L13.9648 9.75L16.3815 10.984L21.0864 1.7698L18.6698 0.53579Z" fill="#9C9C9C"/>
<path d="M23.5802 0.550316L21.1641 1.78516L25.8722 10.9977L28.2883 9.76285L23.5802 0.550316Z" fill="#9C9C9C"/>
<path d="M31.5689 0.136719H28.8555V11.0708H31.5689V0.136719Z" fill="#9C9C9C"/>
<path d="M32.8845 0.401199L30.4141 1.52344L34.7481 11.0647L37.2186 9.94249L32.8845 0.401199Z" fill="#9C9C9C"/>
<path d="M44.1431 0.136719H41.4297V11.0708H44.1431V0.136719Z" fill="#9C9C9C"/>
<path d="M40.0896 0.396933L35.7539 9.9375L38.2242 11.0602L42.5599 1.51962L40.0896 0.396933Z" fill="#9C9C9C"/>
<path d="M45.5312 6.35933V7.02767V11.0778H48.2447V7.02767H58.0156V4.30078H45.5312V6.35933Z" fill="#9C9C9C"/>
<path d="M58.0156 0.15625H45.5312V2.86967H58.0156V0.15625Z" fill="#9C9C9C"/>
</svg>
