<svg width="56" height="49" viewBox="0 0 56 49" fill="none" xmlns="http://www.w3.org/2000/svg">
<path d="M29.4305 44.3206C29.1498 44.3206 28.8959 44.227 28.7088 44.0399C28.4414 43.7859 28.4414 43.5186 28.4414 42.9572C28.4414 42.3958 28.4414 42.1285 28.7088 41.8745C28.8959 41.6873 29.1498 41.5938 29.4305 41.5938C29.9384 41.5938 30.3261 41.8879 30.4197 42.3958H30.1122C30.032 42.0616 29.7914 41.8477 29.4439 41.8477C29.2568 41.8477 29.0696 41.9146 28.9493 42.0349C28.7756 42.2086 28.7489 42.3958 28.7489 42.9572C28.7489 43.5186 28.7622 43.7057 28.9493 43.8795C29.0696 43.9998 29.2568 44.0667 29.4439 44.0667C29.8048 44.0667 30.0454 43.8527 30.1256 43.5186H30.433C30.3394 44.0265 29.9518 44.3206 29.4439 44.3206" fill="#9C9C9C"/>
<path d="M31.856 42.0198L31.3213 43.4367H32.3906L31.8693 42.0198H31.856ZM32.698 44.2922L32.4708 43.6907H31.2277L31.0005 44.2922H30.6797L31.7223 41.6055H31.9762L33.0188 44.2922H32.698Z" fill="#9C9C9C"/>
<path d="M34.5403 41.8594H33.7784V42.8486H34.5403C34.8745 42.8486 35.1017 42.6882 35.1017 42.354C35.1017 42.0198 34.8611 41.8594 34.5403 41.8594ZM35.1151 44.2922L34.4735 43.1025H33.7918V44.2922H33.4844V41.6055H34.5804C35.075 41.6055 35.4225 41.8862 35.4225 42.354C35.4225 42.7416 35.1685 43.009 34.8076 43.0758L35.476 44.2922H35.1151Z" fill="#9C9C9C"/>
<path d="M36.0977 44.2922V41.6055H37.862V41.8594H36.4051V42.8085H37.6482V43.0625H36.4051V44.0382H37.862V44.2922H36.0977Z" fill="#9C9C9C"/>
<path d="M38.4844 44.2922V41.6055H40.2488V41.8594H38.7918V42.8085H40.0349V43.0625H38.7918V44.0382H40.2488V44.2922H38.4844Z" fill="#9C9C9C"/>
<path d="M41.9388 41.8633H41.1769V42.8525H41.9388C42.2729 42.8525 42.5002 42.6921 42.5002 42.3579C42.5002 42.0237 42.2596 41.8633 41.9388 41.8633ZM42.5135 44.2961L41.8719 43.1065H41.1902V44.2961H40.8828V41.6094H41.9789C42.4734 41.6094 42.8209 41.8901 42.8209 42.3579C42.8209 42.7456 42.567 43.0129 42.2061 43.0797L42.8744 44.2961H42.5135Z" fill="#9C9C9C"/>
<path d="M45.0979 42.6459C44.6698 42.6459 44.6029 42.9934 44.6029 43.3543C44.6029 43.7152 44.6698 44.0628 45.0979 44.0628C45.526 44.0628 45.5929 43.7152 45.5929 43.3543C45.5929 42.9934 45.526 42.6459 45.0979 42.6459ZM45.5929 44.2766V44.0494C45.4324 44.2499 45.2451 44.29 45.031 44.29C44.8303 44.29 44.6564 44.2231 44.5494 44.1296C44.3487 43.9424 44.3086 43.635 44.3086 43.3409C44.3086 43.0468 44.3487 42.7394 44.5494 42.5523C44.6564 42.4587 44.8303 42.3919 45.031 42.3919C45.2451 42.3919 45.4324 42.432 45.5929 42.6325V41.5898H45.8739V44.2766H45.5929Z" fill="#9C9C9C"/>
<path d="M47.7676 42.908C47.6874 42.7342 47.5135 42.6273 47.3128 42.6273C47.1121 42.6273 46.9248 42.7342 46.8579 42.908C46.8178 43.0149 46.8044 43.0684 46.8044 43.2155H47.8479C47.8479 43.0684 47.8346 43.0015 47.781 42.908M46.8044 43.4159C46.8044 43.8169 47.005 44.0576 47.3797 44.0576C47.6071 44.0576 47.7409 43.9907 47.9014 43.8437L48.1021 44.0041C47.9014 44.1912 47.7141 44.2848 47.3797 44.2848C46.8579 44.2848 46.5234 43.9907 46.5234 43.3357C46.5234 42.7342 46.8312 42.3867 47.3262 42.3867C47.8212 42.3867 48.1289 42.7342 48.1289 43.2823V43.4025H46.8044V43.4159Z" fill="#9C9C9C"/>
<path d="M49.3457 44.3178C49.0112 44.3178 48.757 44.2509 48.543 44.0504L48.7303 43.8633C48.8908 44.0237 49.0915 44.0771 49.3457 44.0771C49.6668 44.0771 49.8675 43.9702 49.8675 43.7429C49.8675 43.5825 49.7738 43.489 49.533 43.4757L49.2119 43.4489C48.8239 43.4222 48.6233 43.2618 48.6233 42.9543C48.6233 42.6202 48.931 42.4062 49.3457 42.4062C49.6267 42.4062 49.8808 42.4731 50.0548 42.6068L49.8675 42.7806C49.7337 42.6736 49.5464 42.6335 49.3457 42.6335C49.0647 42.6335 48.9042 42.7538 48.9042 42.941C48.9042 43.1014 48.9978 43.1949 49.252 43.2083L49.5732 43.2351C49.921 43.2618 50.1484 43.3954 50.1484 43.7429C50.1484 44.0905 49.8273 44.3044 49.3457 44.3044" fill="#9C9C9C"/>
<path d="M50.7087 44.2922H50.9896V42.4342H50.7087V44.2922ZM50.6953 41.9129H51.0164V41.6055H50.6953V41.9129Z" fill="#9C9C9C"/>
<path d="M52.3948 42.6446C51.9667 42.6446 51.8998 42.9921 51.8998 43.3396C51.8998 43.6872 51.9667 44.0347 52.3948 44.0347C52.823 44.0347 52.8765 43.6872 52.8765 43.3396C52.8765 42.9921 52.8096 42.6446 52.3948 42.6446ZM52.3547 45.1308C52.0604 45.1308 51.8998 45.064 51.6858 44.8768L51.8731 44.7031C52.0202 44.8234 52.1139 44.8902 52.3413 44.8902C52.7159 44.8902 52.8765 44.6363 52.8765 44.3155V44.0213C52.7159 44.2085 52.542 44.2619 52.3279 44.2619C52.1272 44.2619 51.9533 44.1951 51.8463 44.1015C51.6456 43.9144 51.6055 43.6337 51.6055 43.3262C51.6055 43.0188 51.6456 42.7382 51.8463 42.551C51.9533 42.4575 52.1272 42.3906 52.3279 42.3906C52.542 42.3906 52.7159 42.4307 52.8765 42.6312V42.4173H53.1574V44.3288C53.1574 44.7832 52.8497 45.1174 52.3413 45.1174" fill="#9C9C9C"/>
<path d="M55.2911 44.2949V43.1588C55.2911 42.8246 55.1038 42.6641 54.8095 42.6641C54.5151 42.6641 54.3278 42.838 54.3278 43.1588V44.2949H54.0469V42.4369H54.3278V42.6375C54.4616 42.4904 54.6623 42.4102 54.8763 42.4102C55.0904 42.4102 55.2643 42.4636 55.3847 42.5839C55.5185 42.7176 55.5854 42.8914 55.5854 43.1053V44.2949H55.3045H55.2911Z" fill="#9C9C9C"/>
<path d="M47.1421 0.484375C45.5248 0.484375 44.2148 1.72751 44.2148 3.2647C44.2148 4.80188 45.5248 6.04502 47.1421 6.04502C48.7595 6.04502 50.0694 4.80188 50.0694 3.2647C50.0694 1.72751 48.7595 0.484375 47.1421 0.484375Z" fill="#9C9C9C"/>
<path d="M4.42904 41.0457C4.22854 40.9121 4.02804 40.765 3.8409 40.618C3.73397 40.5378 3.58694 40.5511 3.50674 40.658L0.860151 43.7725C0.779952 43.8661 0.793317 44.0131 0.900249 44.0933C3.61366 46.1652 6.87509 47.4752 10.337 47.8762C11.0989 47.9697 11.8742 48.0098 12.6495 48.0098C13.4247 48.0098 14.2 47.9697 14.9619 47.8762C18.4238 47.4752 21.6852 46.1652 24.3987 44.0933C24.5056 44.0131 24.519 43.8661 24.4388 43.7725L21.7922 40.658C21.712 40.5645 21.5649 40.5511 21.458 40.618C21.2709 40.765 21.0704 40.9121 20.8699 41.0457C18.9585 42.3557 16.7396 43.171 14.4005 43.4517C13.8257 43.5186 13.2376 43.5587 12.6628 43.5587C12.0881 43.5587 11.4999 43.5186 10.9252 43.4517C8.58601 43.1844 6.36717 42.3557 4.45575 41.0457" fill="#9C9C9C"/>
<path d="M5.13843 26.9275C5.0716 26.5532 5.04485 26.1789 5.04485 25.818C5.04485 25.4571 5.0716 25.0694 5.13843 24.6952C5.71319 21.4337 8.69391 19.041 12.1826 19.041C14.0806 19.041 15.8851 19.7494 17.2351 21.0193L17.7832 21.5272C17.8767 21.6208 18.0238 21.6208 18.1173 21.5272L21.0981 18.7069C21.1916 18.6133 21.1916 18.4796 21.0981 18.3861L20.5501 17.8781C18.3178 15.7662 15.3237 14.5898 12.1826 14.5898C6.2211 14.5898 1.16854 18.8004 0.433379 24.4145C0.366546 24.869 0.339844 25.3368 0.339844 25.8046C0.339844 26.2725 0.366546 26.727 0.433379 27.1948C1.16854 32.8089 6.2211 37.0194 12.1826 37.0194C15.3371 37.0194 18.3312 35.8431 20.5501 33.7312L21.0981 33.2232C21.1916 33.1296 21.1916 32.996 21.0981 32.9024L18.1173 30.082C18.0238 29.9885 17.8767 29.9885 17.7832 30.082L17.2351 30.59C15.8851 31.8598 14.0806 32.5682 12.1826 32.5682C8.69391 32.5682 5.71319 30.1756 5.13843 26.9141" fill="#9C9C9C"/>
<path d="M36.138 14.6835C30.2167 15.3785 25.7656 20.1639 25.7656 25.8047C25.7656 31.4455 30.2167 36.2442 36.138 36.9259C36.6192 36.9793 37.1138 37.0061 37.6084 37.0061C38.1029 37.0061 38.5841 36.9793 39.0787 36.9259C45.0001 36.2308 49.4511 31.4455 49.4511 25.8047V8.82878C49.4511 8.70847 49.3442 8.60156 49.2105 8.60156H44.9867C44.8531 8.60156 44.7461 8.70847 44.7461 8.82878V25.8047C44.7461 29.1063 42.2198 31.94 38.7846 32.4747C38.397 32.5415 37.996 32.5683 37.6084 32.5683C37.2207 32.5683 36.8197 32.5415 36.4321 32.4747H36.3386C32.9435 31.8866 30.4706 29.0662 30.4706 25.8047C30.4706 22.5432 32.9969 19.6693 36.4321 19.1346C36.8197 19.0678 37.2207 19.0411 37.6084 19.0411C37.996 19.0411 38.397 19.0678 38.7846 19.1346H38.8782C39.9876 19.3351 41.0302 19.7763 41.9258 20.4179C42.006 20.4713 42.0862 20.4847 42.1797 20.4446C42.2599 20.4045 42.3134 20.3377 42.3134 20.2441V15.6726C42.3134 15.579 42.2599 15.4989 42.1664 15.4588C41.1772 15.0711 40.148 14.8171 39.0787 14.6835C38.5975 14.63 38.1029 14.6033 37.6084 14.6033C37.1138 14.6033 36.6326 14.63 36.138 14.6835Z" fill="#9C9C9C"/>
</svg>
