<svg width="129" height="129" viewBox="0 0 129 129" fill="none" xmlns="http://www.w3.org/2000/svg">
<circle cx="64.5591" cy="64.4068" r="64.0279" fill="#D2FF52"/>
<path d="M4.38105 55.2025L4.50251 54.023L14.0823 51.7435L13.973 52.805L11.7027 53.3222L11.2873 57.356L13.4046 58.3249L13.2941 59.3982L4.38105 55.2025ZM10.7735 53.5483L5.5033 54.7221L10.4213 56.9688L10.7735 53.5483Z" fill="#333333"/>
<path d="M14.8305 45.5784L18.4889 46.9994L18.1369 47.9057L9.25061 44.4542L9.60263 43.5479L10.5753 43.9257C10.0084 43.3875 9.81525 42.5747 10.193 41.6021C10.8198 39.9884 12.2593 39.4917 14.4145 40.3289C16.5698 41.166 17.2966 42.504 16.6699 44.1177C16.2921 45.0903 15.601 45.5597 14.8305 45.5784ZM12.6974 44.7499C14.2447 45.3509 15.3577 45.2362 15.8557 43.9541C16.3494 42.6831 15.6056 41.8472 14.0582 41.2462C12.5219 40.6495 11.3978 40.7599 10.9041 42.0309C10.4062 43.313 11.161 44.1532 12.6974 44.7499Z" fill="#333333"/>
<path d="M16.679 31.5155C16.0323 32.4377 16.2956 33.5492 17.7129 34.5431L20.4798 36.4832L19.9147 37.289L14.4782 33.4768L15.0432 32.671L16.0043 33.345C15.4648 32.6481 15.414 31.8738 16.0198 31.0098C16.1287 30.8545 16.2542 30.6963 16.3446 30.6293L16.9979 31.1019C16.9269 31.1825 16.8015 31.3407 16.679 31.5155Z" fill="#333333"/>
<path d="M26.8376 28.9636L26.1202 29.6372L21.5752 24.7966L22.2927 24.1229L26.8376 28.9636ZM21.3593 23.1289L20.6419 23.8025L19.7572 22.8603L20.4747 22.1867L21.3593 23.1289Z" fill="#333333"/>
<path d="M32.8057 24.281L31.9659 24.7942L27.1187 16.8621L27.9584 16.3489L32.8057 24.281Z" fill="#333333"/>
<path d="M40.1135 15.1727L41.8344 18.1222L40.9946 18.6122L38.8076 14.8639C38.2579 13.9217 37.5324 13.7135 36.7336 14.1796C35.8733 14.6815 35.66 15.8218 36.5025 17.2658L38.2294 20.2255L37.3794 20.7215L34.0332 14.9863L34.8832 14.4904L35.4628 15.4838C35.3066 14.6278 35.6453 13.8673 36.5056 13.3653C37.3659 12.8634 38.2561 12.9069 38.9679 13.5623C38.8287 12.6414 39.1479 11.8237 40.1208 11.2561C41.3498 10.539 42.4738 10.9128 43.2745 12.2851L45.4495 16.0129L44.5995 16.5089L42.4125 12.7606C41.8628 11.8184 41.1476 11.6042 40.3488 12.0703C39.4885 12.5722 39.2709 13.7287 40.1135 15.1727Z" fill="#333333"/>
<path d="M53.8075 13.3008C53.6843 13.898 53.0877 14.3759 52.0679 14.6475C50.5441 15.0534 49.3917 14.5505 49.0499 13.2673C48.7112 11.9955 49.4577 10.9745 50.9815 10.5687C51.9783 10.3032 52.7451 10.418 53.1605 10.8718L52.8706 9.78329C52.6142 8.82085 51.8995 8.34862 50.8225 8.63548C49.8142 8.90403 49.4497 9.51647 49.5648 10.2711L48.5909 10.5305C48.3706 9.28855 49.0193 8.2691 50.6119 7.84491C52.3191 7.39021 53.4256 8.08939 53.8132 9.54451L54.6921 12.8443C54.7744 13.1536 54.9347 13.4791 55.076 13.6868L54.1135 13.9432C53.9845 13.7812 53.8777 13.5643 53.8075 13.3008ZM53.484 12.0863C53.2795 11.3186 52.567 10.993 51.4098 11.3012C50.2526 11.6095 49.7964 12.2463 50.0009 13.014C50.2084 13.7931 50.9179 14.1072 52.0751 13.799C53.2323 13.4908 53.6915 12.8654 53.484 12.0863Z" fill="#333333"/>
<path d="M61.3124 7.74587C60.1862 7.76753 59.4439 8.63567 59.4772 10.3665L59.5421 13.7451L58.5582 13.764L58.4305 7.12533L59.4144 7.1064L59.437 8.28003C59.6816 7.43332 60.2769 6.93564 61.332 6.91535C61.5216 6.9117 61.7234 6.91968 61.8308 6.95319L61.8344 7.75954C61.7275 7.74974 61.5257 7.74176 61.3124 7.74587Z" fill="#333333"/>
<path d="M66.3924 10.0625C66.7983 7.90679 67.9441 6.81949 69.8435 7.17714C71.4282 7.47554 72.2301 8.47112 72.135 9.93726L71.1562 9.75295C71.2086 8.83379 70.7175 8.17423 69.6921 7.98114C68.3404 7.72662 67.6645 8.62491 67.3595 10.2446C67.0523 11.8759 67.3574 12.9468 68.7091 13.2013C69.7345 13.3944 70.4319 12.9587 70.7173 12.0834L71.6961 12.2677C71.2515 13.668 70.1424 14.3038 68.5577 14.0053C66.6584 13.6477 65.9865 12.2181 66.3924 10.0625Z" fill="#333333"/>
<path d="M82.3127 13.9686L80.7383 17.7826L79.8396 17.4116L81.3235 13.8168C81.8891 12.4468 81.6156 11.6797 80.6512 11.2816C79.6428 10.8654 78.5337 11.4081 77.9094 12.9206L76.6064 16.077L75.6968 15.7015L79.2437 7.1089L80.1534 7.4844L78.6921 11.0245C79.2911 10.4123 80.1304 10.1815 81.1825 10.6158C82.5744 11.1904 82.9552 12.4122 82.3127 13.9686Z" fill="#333333"/>
<path d="M123.558 74.8405L123.437 76.0199L113.857 78.2995L113.966 77.2379L116.237 76.7208L116.652 72.687L114.535 71.718L114.645 70.6447L123.558 74.8405ZM117.166 76.4946L122.436 75.3209L117.518 73.0742L117.166 76.4946Z" fill="#333333"/>
<path d="M113.109 84.4645L109.451 83.0436L109.803 82.1373L118.689 85.5888L118.337 86.4951L117.364 86.1173C117.931 86.6555 118.124 87.4683 117.746 88.4409C117.12 90.0546 115.68 90.5512 113.525 89.7141C111.37 88.877 110.643 87.5389 111.27 85.9253C111.647 84.9526 112.338 84.4833 113.109 84.4645ZM115.242 85.2931C113.695 84.6921 112.582 84.8067 112.084 86.0888C111.59 87.3599 112.334 88.1957 113.881 88.7968C115.418 89.3935 116.542 89.2831 117.035 88.012C117.533 86.7299 116.778 85.8898 115.242 85.2931Z" fill="#333333"/>
<path d="M111.26 98.5275C111.907 97.6052 111.644 96.4938 110.227 95.4999L107.46 93.5597L108.025 92.754L113.461 96.5662L112.896 97.3719L111.935 96.698C112.475 97.3949 112.525 98.1691 111.92 99.0331C111.811 99.1885 111.685 99.3467 111.595 99.4137L110.942 98.941C111.013 98.8605 111.138 98.7022 111.26 98.5275Z" fill="#333333"/>
<path d="M101.102 101.079L101.819 100.406L106.364 105.246L105.647 105.92L101.102 101.079ZM106.58 106.914L107.298 106.24L108.182 107.183L107.465 107.856L106.58 106.914Z" fill="#333333"/>
<path d="M95.1338 105.762L95.9735 105.249L100.821 113.181L99.981 113.694L95.1338 105.762Z" fill="#333333"/>
<path d="M87.826 114.87L86.1051 111.921L86.9449 111.431L89.1318 115.179C89.6816 116.121 90.4071 116.329 91.2059 115.863C92.0662 115.361 92.2794 114.221 91.4369 112.777L89.71 109.817L90.5601 109.321L93.9062 115.057L93.0562 115.553L92.4766 114.559C92.6329 115.415 92.2941 116.176 91.4338 116.678C90.5736 117.18 89.6834 117.136 88.9715 116.481C89.1107 117.402 88.7916 118.219 87.8186 118.787C86.5897 119.504 85.4656 119.13 84.6649 117.758L82.4899 114.03L83.3399 113.534L85.5269 117.282C86.0766 118.225 86.7919 118.439 87.5907 117.973C88.451 117.471 88.6685 116.314 87.826 114.87Z" fill="#333333"/>
<path d="M74.132 116.742C74.2551 116.145 74.8518 115.667 75.8715 115.395C77.3954 114.99 78.5478 115.492 78.8896 116.776C79.2283 118.047 78.4818 119.068 76.9579 119.474C75.9611 119.74 75.1943 119.625 74.779 119.171L75.0689 120.26C75.3252 121.222 76.04 121.694 77.117 121.407C78.1252 121.139 78.4897 120.526 78.3746 119.772L79.3485 119.512C79.5689 120.754 78.9201 121.774 77.3275 122.198C75.6204 122.653 74.5139 121.954 74.1263 120.498L73.2474 117.199C73.165 116.889 73.0047 116.564 72.8635 116.356L73.8259 116.1C73.9549 116.262 74.0618 116.479 74.132 116.742ZM74.4555 117.957C74.6599 118.724 75.3724 119.05 76.5297 118.742C77.6869 118.434 78.143 117.797 77.9386 117.029C77.7311 116.25 77.0216 115.936 75.8644 116.244C74.7072 116.552 74.248 117.178 74.4555 117.957Z" fill="#333333"/>
<path d="M66.6271 122.297C67.7533 122.275 68.4956 121.407 68.4623 119.676L68.3973 116.298L69.3813 116.279L69.509 122.918L68.525 122.937L68.5024 121.763C68.2578 122.61 67.6626 123.107 66.6075 123.128C66.4178 123.131 66.2161 123.123 66.1087 123.09L66.105 122.283C66.2119 122.293 66.4137 122.301 66.6271 122.297Z" fill="#333333"/>
<path d="M61.5471 119.981C61.1411 122.136 59.9953 123.223 58.096 122.866C56.5113 122.567 55.7094 121.572 55.8045 120.106L56.7833 120.29C56.7309 121.209 57.222 121.869 58.2474 122.062C59.599 122.316 60.2749 121.418 60.5799 119.798C60.8871 118.167 60.582 117.096 59.2304 116.842C58.205 116.649 57.5076 117.084 57.2221 117.96L56.2433 117.775C56.688 116.375 57.7971 115.739 59.3818 116.038C61.2811 116.395 61.953 117.825 61.5471 119.981Z" fill="#333333"/>
<path d="M45.6267 116.074L47.2011 112.26L48.0998 112.631L46.6159 116.226C46.0504 117.596 46.3238 118.363 47.2883 118.761C48.2966 119.178 49.4057 118.635 50.0301 117.122L51.333 113.966L52.2427 114.341L48.6958 122.934L47.7861 122.559L49.2474 119.018C48.6483 119.631 47.8091 119.861 46.7569 119.427C45.365 118.853 44.9843 117.631 45.6267 116.074Z" fill="#333333"/>
<path d="M89.1654 15.6502C107.632 25.0045 119.559 44.0766 119.687 64.9648M8.2217 66.5382C8.64128 87.3587 20.7708 106.269 39.3672 115.391" stroke="#333333" stroke-width="0.592851"/>
</svg>
