<svg width="68" height="35" viewBox="0 0 68 35" fill="none" xmlns="http://www.w3.org/2000/svg">
<path d="M1.51144 18.8672L6.55791 27.7443L11.6044 18.8672H13.1096V31.9395H11.392V22.2944L7.17623 29.7358H5.93334L1.71755 22.2944V31.9395H0V18.8672H1.5052H1.51144Z" fill="#333333"/>
<path d="M24.2294 28.7057H17.94L16.6347 31.9395H14.8359L20.2259 18.8672H22.0371L27.4084 31.9395H25.5284L24.2231 28.7057H24.2294ZM23.6235 27.1887L21.0941 20.8711L18.5458 27.1887H23.6235Z" fill="#333333"/>
<path d="M34.7961 27.2886C34.5525 27.3074 34.3089 27.3198 34.0591 27.3198H30.8738V31.9395H29.1562V18.8672H34.0528C37.3505 18.8672 39.2929 20.5153 39.2929 23.0935C39.2929 24.9351 38.2998 26.3085 36.5011 26.9453L34.7836 27.2886H34.7961ZM37.5878 23.0935C37.5878 21.3331 36.2013 20.4029 33.9279 20.4029H30.8738V25.7904H33.9279C36.1951 25.7904 37.5878 24.8602 37.5878 23.0998V23.0935Z" fill="#333333"/>
<path d="M40.8594 24.6538C40.8594 21.1267 43.4513 18.5547 46.9801 18.5547C49.9967 18.5547 52.0765 20.3027 52.6886 22.7498H51.1272C50.6338 21.1017 49.1286 19.9655 47.0051 19.9655C44.3257 19.9655 42.3896 21.9195 42.3896 24.6538C42.3896 27.3881 44.3444 29.3421 47.0051 29.3421C49.191 29.3421 50.8211 28.0624 51.2459 26.4018H52.8073C52.2951 28.8302 50.0654 30.753 46.9801 30.753C43.4576 30.753 40.8594 28.1747 40.8594 24.6538Z" fill="#333333"/>
<path d="M46.9785 30.8598C43.3747 30.8598 40.7578 28.2503 40.7578 24.6545C40.7578 21.0587 43.3747 18.4492 46.9785 18.4492C49.9014 18.4492 52.1311 20.0848 52.7931 22.7192L52.8244 22.8503H51.0569L51.0319 22.7754C50.5322 21.1086 48.9896 20.0661 47.0097 20.0661C44.3928 20.0661 42.4941 21.9951 42.4941 24.6482C42.4941 27.3014 44.3928 29.2304 47.0097 29.2304C49.052 29.2304 50.7133 28.0817 51.1505 26.365L51.1693 26.2838H52.9368L52.9118 26.4087C52.3559 29.0619 49.9701 30.8473 46.9847 30.8473L46.9785 30.8598ZM46.9785 18.6552C43.4934 18.6552 40.9639 21.1773 40.9639 24.6545C40.9639 28.1317 43.4934 30.6538 46.9785 30.6538C49.8202 30.6538 52.0936 28.9932 52.6745 26.5086H51.3254C50.8383 28.269 49.1145 29.4489 47.0034 29.4489C44.2679 29.4489 42.2817 27.4325 42.2817 24.6545C42.2817 21.8765 44.2679 19.8601 47.0034 19.8601C49.0458 19.8601 50.6509 20.9213 51.2005 22.6381H52.5496C51.875 20.1785 49.7515 18.6552 46.9722 18.6552H46.9785Z" fill="#333333"/>
<path d="M67.4985 18.8672V31.9395H65.781V26.0276H58.1863V31.9395H56.4688V18.8672H58.1863V24.4669H65.781V18.8672H67.4985Z" fill="#333333"/>
<path d="M46.6508 34.225C45.9076 34.225 45.1644 34.1564 44.4212 34.0128C38.288 32.8579 34.6343 27.3455 34.4844 27.1146L35.8834 26.2031C35.9146 26.2531 39.3185 31.3596 44.7459 32.3772C47.8812 32.964 51.1165 32.0838 54.3642 29.7615L55.3385 31.1224C52.4468 33.1887 49.5363 34.2313 46.6508 34.2313V34.225Z" fill="#333333"/>
<path d="M15.909 14.1276H9.6197L8.31437 17.3613H6.51562L11.9056 4.28906H13.7168L19.0881 17.3613H17.2081L15.9028 14.1276H15.909ZM15.3032 12.6106L12.7737 6.29298L10.2255 12.6106H15.3032Z" fill="#333333"/>
<path d="M25.4764 4.28906C28.8741 4.28906 30.8664 6.09945 30.8664 8.82752C30.8664 11.5556 28.8741 13.366 25.4764 13.366H22.5535V17.3676H20.8359V4.2953H25.4764V4.28906ZM29.1489 8.82752C29.1489 6.88603 27.7124 5.8435 25.3453 5.8435H22.5535V11.8178H25.3453C27.7124 11.8178 29.1489 10.7753 29.1489 8.83377V8.82752Z" fill="#333333"/>
<path d="M48.1316 17.3613H46.4141V4.28906H48.1316V17.3613Z" fill="#333333"/>
<path d="M53.3972 15.8131H60.9982V17.3613H51.6797V4.28906H53.3972V15.8131Z" fill="#333333"/>
<path d="M41.3627 17.3613L38.3898 12.7105C38.1462 12.7292 37.9026 12.7417 37.6528 12.7417H34.4675V17.3613H32.75V4.28906H37.6466C40.9443 4.28906 42.8866 5.93714 42.8866 8.51539C42.8866 10.357 41.8936 11.7304 40.0949 12.3672L43.3801 17.3613H41.3565H41.3627ZM41.1816 8.51539C41.1816 6.75494 39.7951 5.82477 37.5217 5.82477H34.4675V11.2122H37.5217C39.7888 11.2122 41.1816 10.2821 41.1816 8.52163V8.51539Z" fill="#333333"/>
<path d="M61.1719 0V6.52524" stroke="#333333" stroke-width="0.8"/>
<path d="M57.9062 3.26172L64.4315 3.26172" stroke="#333333" stroke-width="0.8"/>
<path d="M58.8594 0.953125L63.4734 5.56717" stroke="#333333" stroke-width="0.8"/>
<path d="M63.4766 0.953125L58.8625 5.56717" stroke="#333333" stroke-width="0.8"/>
</svg>
