<svg width="63" height="54" viewBox="0 0 63 54" fill="none" xmlns="http://www.w3.org/2000/svg">
<path d="M42.8371 40.9791C41.9149 34.1352 38.5465 28.5345 35.1113 28.5078C31.6628 28.5078 26.6102 34.0951 23.6962 40.9924C20.769 47.8763 24.0839 53.4503 31.4622 53.4503C38.894 53.3701 43.7461 47.8362 42.8505 40.9791" fill="#9C9C9C"/>
<path d="M7.62676 22.7338C3.22917 22.7338 0.0078125 26.2225 0.0078125 30.6336C0.0078125 35.0446 3.22917 38.4131 7.62676 38.4131C10.0862 38.4131 12.3986 37.3036 13.9223 35.3922C13.7753 35.2451 13.3342 34.3362 11.9174 34.3362C10.5807 34.3362 10.2733 35.6729 7.62676 35.6729C4.98018 35.6729 2.88165 33.4673 2.88165 30.6068C2.88165 27.7463 5.03365 25.4472 7.62676 25.4472C9.99264 25.4472 10.5674 26.8641 11.7837 26.8641C13.0001 26.8641 13.7085 25.8883 13.8689 25.7279C12.3451 23.8165 10.0728 22.707 7.62676 22.707" fill="#9C9C9C"/>
<path d="M23.1788 23.1914H16.9767C15.9342 23.1914 15.199 23.8196 15.199 24.8355V25.7445H17.9659C17.9659 25.7445 18.0594 35.0879 17.9391 36.0904C17.899 36.8657 17.5782 38.6969 15.8005 39.5257C14.3435 40.2074 14.3168 40.8624 14.25 41.8782C14.2767 41.9451 14.3034 41.9985 14.3435 41.9985H14.3703C14.3703 41.9985 15.8138 41.6376 16.0143 41.5574C17.3242 41.1431 19.3292 40.2608 20.2782 38.3895C20.2782 38.3895 21.1872 37.0127 21.1471 34.0586V25.7311H21.2807C22.3233 25.7311 23.1655 25.1029 23.1655 24.1004V23.1914H23.1788Z" fill="#9C9C9C"/>
<path d="M55.1458 18.2882C48.6764 15.7485 42.1401 16.0158 40.4827 19.0234C38.8653 22.0844 41.2847 29.1421 45.8694 35.0502C50.4542 40.945 56.9503 40.7445 60.5325 34.2883C64.0746 27.8588 61.5885 20.8279 55.1458 18.2882Z" fill="#9C9C9C"/>
<path d="M22.2713 20.3605C28.0189 24.2636 34.4482 25.4533 36.7071 22.9136C39.0062 20.3605 38.2175 12.8751 35.0363 6.09811C31.8684 -0.678876 25.4926 -1.93536 20.5737 3.55841C15.7083 9.05218 16.5504 16.444 22.2579 20.3605" fill="#9C9C9C"/>
</svg>
