<svg width="140" height="40" viewBox="0 0 140 40" fill="none" xmlns="http://www.w3.org/2000/svg">
<rect width="140" height="40" rx="20" fill="#171717"/>
<circle cx="19.2593" cy="19.9996" r="2.22222" fill="#CFFF5D"/>
<path d="M28.8364 19.2324C28.8364 18.1444 29.0818 17.1684 29.5724 16.3044C30.0631 15.4297 30.7298 14.7471 31.5724 14.2564C32.4258 13.7657 33.3698 13.5204 34.4044 13.5204C35.6204 13.5204 36.6818 13.8137 37.5884 14.4004C38.4951 14.9871 39.1564 15.8191 39.5724 16.8964H37.8284C37.5191 16.2244 37.0711 15.7071 36.4844 15.3444C35.9084 14.9817 35.2151 14.8004 34.4044 14.8004C33.6258 14.8004 32.9271 14.9817 32.3084 15.3444C31.6898 15.7071 31.2044 16.2244 30.8524 16.8964C30.5004 17.5577 30.3244 18.3364 30.3244 19.2324C30.3244 20.1177 30.5004 20.8964 30.8524 21.5684C31.2044 22.2297 31.6898 22.7417 32.3084 23.1044C32.9271 23.4671 33.6258 23.6484 34.4044 23.6484C35.2151 23.6484 35.9084 23.4724 36.4844 23.1204C37.0711 22.7577 37.5191 22.2404 37.8284 21.5684H39.5724C39.1564 22.6351 38.4951 23.4617 37.5884 24.0484C36.6818 24.6244 35.6204 24.9124 34.4044 24.9124C33.3698 24.9124 32.4258 24.6724 31.5724 24.1924C30.7298 23.7017 30.0631 23.0244 29.5724 22.1604C29.0818 21.2964 28.8364 20.3204 28.8364 19.2324ZM45.5638 24.9604C44.7425 24.9604 43.9958 24.7737 43.3238 24.4004C42.6625 24.0271 42.1398 23.4991 41.7558 22.8164C41.3825 22.1231 41.1958 21.3231 41.1958 20.4164C41.1958 19.5204 41.3878 18.7311 41.7718 18.0484C42.1665 17.3551 42.6998 16.8271 43.3718 16.4644C44.0438 16.0911 44.7958 15.9044 45.6278 15.9044C46.4598 15.9044 47.2118 16.0911 47.8838 16.4644C48.5558 16.8271 49.0838 17.3497 49.4678 18.0324C49.8625 18.7151 50.0598 19.5097 50.0598 20.4164C50.0598 21.3231 49.8571 22.1231 49.4518 22.8164C49.0571 23.4991 48.5185 24.0271 47.8358 24.4004C47.1531 24.7737 46.3958 24.9604 45.5638 24.9604ZM45.5638 23.6804C46.0865 23.6804 46.5771 23.5577 47.0358 23.3124C47.4945 23.0671 47.8625 22.6991 48.1398 22.2084C48.4278 21.7177 48.5718 21.1204 48.5718 20.4164C48.5718 19.7124 48.4331 19.1151 48.1558 18.6244C47.8785 18.1337 47.5158 17.7711 47.0678 17.5364C46.6198 17.2911 46.1345 17.1684 45.6118 17.1684C45.0785 17.1684 44.5878 17.2911 44.1398 17.5364C43.7025 17.7711 43.3505 18.1337 43.0838 18.6244C42.8171 19.1151 42.6838 19.7124 42.6838 20.4164C42.6838 21.1311 42.8118 21.7337 43.0678 22.2244C43.3345 22.7151 43.6865 23.0831 44.1238 23.3284C44.5611 23.5631 45.0411 23.6804 45.5638 23.6804ZM56.2462 15.8884C57.3129 15.8884 58.1769 16.2137 58.8382 16.8644C59.4995 17.5044 59.8302 18.4324 59.8302 19.6484V24.8164H58.3902V19.8564C58.3902 18.9817 58.1715 18.3151 57.7342 17.8564C57.2969 17.3871 56.6995 17.1524 55.9422 17.1524C55.1742 17.1524 54.5609 17.3924 54.1022 17.8724C53.6542 18.3524 53.4302 19.0511 53.4302 19.9684V24.8164H51.9742V16.0484H53.4302V17.2964C53.7182 16.8484 54.1075 16.5017 54.5982 16.2564C55.0995 16.0111 55.6489 15.8884 56.2462 15.8884ZM63.9846 17.2484V22.4164C63.9846 22.8431 64.0752 23.1471 64.2566 23.3284C64.4379 23.4991 64.7526 23.5844 65.2006 23.5844H66.2726V24.8164H64.9606C64.1499 24.8164 63.5419 24.6297 63.1366 24.2564C62.7312 23.8831 62.5286 23.2697 62.5286 22.4164V17.2484H61.3926V16.0484H62.5286V13.8404H63.9846V16.0484H66.2726V17.2484H63.9846ZM67.4927 20.4004C67.4927 19.5044 67.674 18.7204 68.0367 18.0484C68.3994 17.3657 68.8954 16.8377 69.5247 16.4644C70.1647 16.0911 70.874 15.9044 71.6527 15.9044C72.4207 15.9044 73.0874 16.0697 73.6527 16.4004C74.218 16.7311 74.6394 17.1471 74.9167 17.6484V16.0484H76.3887V24.8164H74.9167V23.1844C74.6287 23.6964 74.1967 24.1231 73.6207 24.4644C73.0554 24.7951 72.394 24.9604 71.6367 24.9604C70.858 24.9604 70.154 24.7684 69.5247 24.3844C68.8954 24.0004 68.3994 23.4617 68.0367 22.7684C67.674 22.0751 67.4927 21.2857 67.4927 20.4004ZM74.9167 20.4164C74.9167 19.7551 74.7834 19.1791 74.5167 18.6884C74.25 18.1977 73.8874 17.8244 73.4287 17.5684C72.9807 17.3017 72.4847 17.1684 71.9407 17.1684C71.3967 17.1684 70.9007 17.2964 70.4527 17.5524C70.0047 17.8084 69.6474 18.1817 69.3807 18.6724C69.114 19.1631 68.9807 19.7391 68.9807 20.4004C68.9807 21.0724 69.114 21.6591 69.3807 22.1604C69.6474 22.6511 70.0047 23.0297 70.4527 23.2964C70.9007 23.5524 71.3967 23.6804 71.9407 23.6804C72.4847 23.6804 72.9807 23.5524 73.4287 23.2964C73.8874 23.0297 74.25 22.6511 74.5167 22.1604C74.7834 21.6591 74.9167 21.0777 74.9167 20.4164ZM78.3052 20.4164C78.3052 19.5097 78.4865 18.7204 78.8492 18.0484C79.2119 17.3657 79.7132 16.8377 80.3532 16.4644C81.0039 16.0911 81.7452 15.9044 82.5772 15.9044C83.6545 15.9044 84.5399 16.1657 85.2332 16.6884C85.9372 17.2111 86.4012 17.9364 86.6252 18.8644H85.0572C84.9079 18.3311 84.6145 17.9097 84.1772 17.6004C83.7505 17.2911 83.2172 17.1364 82.5772 17.1364C81.7452 17.1364 81.0732 17.4244 80.5612 18.0004C80.0492 18.5657 79.7932 19.3711 79.7932 20.4164C79.7932 21.4724 80.0492 22.2884 80.5612 22.8644C81.0732 23.4404 81.7452 23.7284 82.5772 23.7284C83.2172 23.7284 83.7505 23.5791 84.1772 23.2804C84.6039 22.9817 84.8972 22.5551 85.0572 22.0004H86.6252C86.3905 22.8964 85.9212 23.6164 85.2172 24.1604C84.5132 24.6937 83.6332 24.9604 82.5772 24.9604C81.7452 24.9604 81.0039 24.7737 80.3532 24.4004C79.7132 24.0271 79.2119 23.4991 78.8492 22.8164C78.4865 22.1337 78.3052 21.3337 78.3052 20.4164ZM90.3439 17.2484V22.4164C90.3439 22.8431 90.4346 23.1471 90.6159 23.3284C90.7973 23.4991 91.1119 23.5844 91.5599 23.5844H92.6319V24.8164H91.3199C90.5093 24.8164 89.9013 24.6297 89.4959 24.2564C89.0906 23.8831 88.8879 23.2697 88.8879 22.4164V17.2484H87.7519V16.0484H88.8879V13.8404H90.3439V16.0484H92.6319V17.2484H90.3439Z" fill="white"/>
<path d="M127.112 20.0001C127.112 25.646 122.535 30.2229 116.889 30.2229C111.243 30.2229 106.666 25.646 106.666 20.0001C106.666 14.3542 111.243 9.77734 116.889 9.77734C122.535 9.77734 127.112 14.3542 127.112 20.0001Z" fill="#CFFF5D"/>
<mask id="mask0_782_20778" style="mask-type:alpha" maskUnits="userSpaceOnUse" x="111" y="14" width="13" height="13">
<rect x="111.314" y="14.4219" width="12.193" height="12.193" fill="#D9D9D9"/>
</mask>
<g mask="url(#mask0_782_20778)">
<path d="M114.513 23.3866L113.982 22.8561L118.982 17.8519H114.437V17.0898H120.279V22.9323H119.517V18.3873L114.513 23.3866Z" fill="black"/>
</g>
</svg>
