<svg width="122" height="17" viewBox="0 0 122 17" fill="none" xmlns="http://www.w3.org/2000/svg">
<path d="M0.256364 8.351C0.256364 6.8285 0.59634 5.4686 1.27629 4.27129C1.97103 3.0592 2.90966 2.12057 4.09218 1.4554C5.28949 0.775446 6.62722 0.43547 8.10538 0.43547C9.83482 0.43547 11.3499 0.878917 12.6507 1.76581C13.9515 2.65271 14.8606 3.87958 15.3779 5.44642H11.8082C11.4534 4.70734 10.9508 4.15303 10.3004 3.7835C9.66484 3.41396 8.92576 3.22919 8.08321 3.22919C7.18153 3.22919 6.37594 3.44352 5.66642 3.87218C4.97169 4.28607 4.42477 4.87733 4.02567 5.64597C3.64134 6.41462 3.44918 7.31629 3.44918 8.351C3.44918 9.37093 3.64134 10.2726 4.02567 11.056C4.42477 11.8247 4.97169 12.4233 5.66642 12.852C6.37594 13.2659 7.18153 13.4728 8.08321 13.4728C8.92576 13.4728 9.66484 13.288 10.3004 12.9185C10.9508 12.5342 11.4534 11.9725 11.8082 11.2334H15.3779C14.8606 12.815 13.9515 14.0493 12.6507 14.9362C11.3647 15.8083 9.84961 16.2444 8.10538 16.2444C6.62722 16.2444 5.28949 15.9118 4.09218 15.2466C2.90966 14.5667 1.97103 13.628 1.27629 12.4307C0.59634 11.2334 0.256364 9.8735 0.256364 8.351ZM23.4836 16.3109C22.3011 16.3109 21.2368 16.0522 20.2908 15.5348C19.3448 15.0027 18.5983 14.2562 18.0514 13.2954C17.5193 12.3346 17.2532 11.226 17.2532 9.96958C17.2532 8.71315 17.5267 7.60453 18.0736 6.64373C18.6353 5.68293 19.3965 4.94385 20.3573 4.42649C21.3181 3.89436 22.3898 3.62829 23.5723 3.62829C24.7549 3.62829 25.8265 3.89436 26.7873 4.42649C27.7481 4.94385 28.502 5.68293 29.0489 6.64373C29.6106 7.60453 29.8915 8.71315 29.8915 9.96958C29.8915 11.226 29.6032 12.3346 29.0267 13.2954C28.465 14.2562 27.6964 15.0027 26.7208 15.5348C25.76 16.0522 24.681 16.3109 23.4836 16.3109ZM23.4836 13.6059C24.0453 13.6059 24.5701 13.4728 25.0579 13.2067C25.5605 12.9259 25.9596 12.512 26.2552 11.9651C26.5508 11.4182 26.6986 10.753 26.6986 9.96958C26.6986 8.80184 26.3882 7.90755 25.7674 7.28673C25.1614 6.65112 24.4149 6.33332 23.528 6.33332C22.6411 6.33332 21.8946 6.65112 21.2886 7.28673C20.6973 7.90755 20.4017 8.80184 20.4017 9.96958C20.4017 11.1373 20.6899 12.039 21.2664 12.6746C21.8577 13.2954 22.5967 13.6059 23.4836 13.6059ZM38.9754 3.65046C40.4387 3.65046 41.6213 4.11608 42.5229 5.04732C43.4246 5.96378 43.8755 7.24977 43.8755 8.90531V16.1113H40.7713V9.32659C40.7713 8.351 40.5274 7.60453 40.0396 7.08718C39.5518 6.55504 38.8867 6.28897 38.0441 6.28897C37.1868 6.28897 36.5068 6.55504 36.0043 7.08718C35.5165 7.60453 35.2726 8.351 35.2726 9.32659V16.1113H32.1685V3.82784H35.2726V5.35773C35.6865 4.8256 36.2112 4.41171 36.8468 4.11608C37.4972 3.80567 38.2067 3.65046 38.9754 3.65046ZM50.4414 6.37766V12.3199C50.4414 12.7337 50.5375 13.0368 50.7297 13.2289C50.9366 13.4063 51.2766 13.495 51.7496 13.495H53.1908V16.1113H51.2396C48.6233 16.1113 47.3151 14.8401 47.3151 12.2977V6.37766H45.8517V3.82784H47.3151V0.790227H50.4414V3.82784H53.1908V6.37766H50.4414ZM54.6252 9.92524C54.6252 8.68359 54.8691 7.58236 55.3569 6.62156C55.8595 5.66076 56.5321 4.92168 57.3746 4.40432C58.2319 3.88697 59.1854 3.62829 60.2348 3.62829C61.1513 3.62829 61.9495 3.81306 62.6295 4.1826C63.3242 4.55214 63.8785 5.01776 64.2924 5.57946V3.82784H67.4187V16.1113H64.2924V14.3154C63.8933 14.8918 63.339 15.3722 62.6295 15.7566C61.9347 16.1261 61.1291 16.3109 60.2127 16.3109C59.178 16.3109 58.2319 16.0448 57.3746 15.5127C56.5321 14.9805 55.8595 14.2341 55.3569 13.2733C54.8691 12.2977 54.6252 11.1817 54.6252 9.92524ZM64.2924 9.96958C64.2924 9.21572 64.1446 8.57273 63.8489 8.04059C63.5533 7.49367 63.1542 7.07979 62.6516 6.79894C62.1491 6.50331 61.6095 6.35549 61.0331 6.35549C60.4566 6.35549 59.9244 6.49591 59.4366 6.77676C58.9489 7.05761 58.5498 7.4715 58.2393 8.01842C57.9437 8.55055 57.7959 9.18616 57.7959 9.92524C57.7959 10.6643 57.9437 11.3147 58.2393 11.8764C58.5498 12.4233 58.9489 12.8446 59.4366 13.1402C59.9392 13.4359 60.4714 13.5837 61.0331 13.5837C61.6095 13.5837 62.1491 13.4433 62.6516 13.1624C63.1542 12.8668 63.5533 12.4529 63.8489 11.9208C64.1446 11.3738 64.2924 10.7234 64.2924 9.96958ZM69.6522 9.96958C69.6522 8.69837 69.9109 7.58975 70.4282 6.64373C70.9456 5.68293 71.6625 4.94385 72.579 4.42649C73.4954 3.89436 74.5449 3.62829 75.7274 3.62829C77.2499 3.62829 78.5064 4.01261 79.4967 4.78125C80.5019 5.53511 81.1744 6.59939 81.5144 7.97407H78.1664C77.989 7.44194 77.686 7.02805 77.2573 6.73242C76.8434 6.42201 76.3261 6.2668 75.7053 6.2668C74.8184 6.2668 74.1162 6.59199 73.5989 7.24238C73.0815 7.87799 72.8229 8.78706 72.8229 9.96958C72.8229 11.1373 73.0815 12.0464 73.5989 12.6968C74.1162 13.3324 74.8184 13.6502 75.7053 13.6502C76.9617 13.6502 77.7821 13.0885 78.1664 11.9651H81.5144C81.1744 13.2954 80.5019 14.3523 79.4967 15.1357C78.4916 15.9192 77.2352 16.3109 75.7274 16.3109C74.5449 16.3109 73.4954 16.0522 72.579 15.5348C71.6625 15.0027 70.9456 14.2636 70.4282 13.3176C69.9109 12.3568 69.6522 11.2408 69.6522 9.96958ZM87.4026 6.37766V12.3199C87.4026 12.7337 87.4987 13.0368 87.6908 13.2289C87.8978 13.4063 88.2377 13.495 88.7107 13.495H90.1519V16.1113H88.2008C85.5844 16.1113 84.2763 14.8401 84.2763 12.2977V6.37766H82.8129V3.82784H84.2763V0.790227H87.4026V3.82784H90.1519V6.37766H87.4026ZM109.264 3.82784V16.1113H106.138V14.5593C105.739 15.0914 105.214 15.5127 104.563 15.8231C103.928 16.1187 103.233 16.2665 102.479 16.2665C101.518 16.2665 100.669 16.067 99.9294 15.6679C99.1904 15.254 98.6065 14.6553 98.1778 13.8719C97.7639 13.0737 97.557 12.1277 97.557 11.0339V3.82784H100.661V10.5904C100.661 11.566 100.905 12.3199 101.393 12.852C101.881 13.3693 102.546 13.628 103.388 13.628C104.246 13.628 104.918 13.3693 105.406 12.852C105.894 12.3199 106.138 11.566 106.138 10.5904V3.82784H109.264ZM117.027 16.3109C116.022 16.3109 115.12 16.1335 114.322 15.7787C113.524 15.4092 112.888 14.914 112.415 14.2932C111.957 13.6724 111.706 12.985 111.662 12.2312H114.788C114.847 12.7042 115.076 13.0959 115.475 13.4063C115.889 13.7167 116.399 13.8719 117.005 13.8719C117.596 13.8719 118.055 13.7537 118.38 13.5172C118.72 13.2807 118.89 12.9776 118.89 12.6081C118.89 12.209 118.683 11.9134 118.269 11.7212C117.87 11.5143 117.227 11.2925 116.34 11.056C115.423 10.8343 114.67 10.6052 114.078 10.3687C113.502 10.1322 112.999 9.77003 112.571 9.28224C112.157 8.79445 111.95 8.13667 111.95 7.3089C111.95 6.62895 112.142 6.00812 112.526 5.44642C112.925 4.88472 113.487 4.44128 114.211 4.11608C114.95 3.79089 115.815 3.62829 116.806 3.62829C118.269 3.62829 119.437 3.99783 120.309 4.73691C121.181 5.4612 121.661 6.44418 121.75 7.68583H118.779C118.735 7.19804 118.528 6.81372 118.158 6.53287C117.803 6.23724 117.323 6.08942 116.717 6.08942C116.155 6.08942 115.719 6.19289 115.409 6.39983C115.113 6.60678 114.965 6.89502 114.965 7.26456C114.965 7.67844 115.172 7.99624 115.586 8.21797C116 8.42491 116.643 8.63924 117.515 8.86097C118.402 9.08269 119.134 9.3118 119.71 9.54831C120.287 9.78481 120.782 10.1544 121.196 10.6569C121.624 11.1447 121.846 11.7951 121.861 12.6081C121.861 13.3176 121.661 13.9532 121.262 14.5149C120.878 15.0766 120.316 15.5201 119.577 15.8453C118.853 16.1557 118.003 16.3109 117.027 16.3109Z" fill="#333333"/>
</svg>
