<svg width="53" height="10" viewBox="0 0 53 10" fill="none" xmlns="http://www.w3.org/2000/svg">
<path d="M0.483003 4.6996C0.483003 3.8149 0.680557 3.02468 1.07567 2.32895C1.47936 1.62462 2.02478 1.0792 2.71193 0.692684C3.40766 0.297575 4.185 0.100021 5.04393 0.100021C6.04888 0.100021 6.92928 0.357701 7.68514 0.873059C8.441 1.38842 8.96924 2.10133 9.26987 3.0118H7.19555C6.98941 2.58233 6.69737 2.26023 6.31944 2.0455C5.9501 1.83077 5.52063 1.7234 5.03104 1.7234C4.5071 1.7234 4.03898 1.84795 3.62669 2.09704C3.22299 2.33754 2.90519 2.68111 2.67328 3.12775C2.44996 3.5744 2.33829 4.09834 2.33829 4.6996C2.33829 5.29226 2.44996 5.81621 2.67328 6.27144C2.90519 6.71808 3.22299 7.06595 3.62669 7.31504C4.03898 7.55554 4.5071 7.67579 5.03104 7.67579C5.52063 7.67579 5.9501 7.56843 6.31944 7.35369C6.69737 7.13037 6.98941 6.80398 7.19555 6.37451H9.26987C8.96924 7.29357 8.441 8.01078 7.68514 8.52613C6.93787 9.0329 6.05747 9.28629 5.04393 9.28629C4.185 9.28629 3.40766 9.09303 2.71193 8.70651C2.02478 8.3114 1.47936 7.76598 1.07567 7.07025C0.680557 6.37451 0.483003 5.5843 0.483003 4.6996ZM13.98 9.32494C13.2928 9.32494 12.6744 9.17463 12.1247 8.874C11.575 8.56479 11.1412 8.13103 10.8234 7.57272C10.5142 7.01442 10.3596 6.37022 10.3596 5.64013C10.3596 4.91003 10.5185 4.26584 10.8363 3.70753C11.1627 3.14923 11.605 2.71976 12.1633 2.41913C12.7216 2.10992 13.3444 1.95531 14.0315 1.95531C14.7186 1.95531 15.3414 2.10992 15.8997 2.41913C16.458 2.71976 16.896 3.14923 17.2138 3.70753C17.5402 4.26584 17.7034 4.91003 17.7034 5.64013C17.7034 6.37022 17.5359 7.01442 17.201 7.57272C16.8746 8.13103 16.4279 8.56479 15.861 8.874C15.3027 9.17463 14.6757 9.32494 13.98 9.32494ZM13.98 7.7531C14.3064 7.7531 14.6113 7.67579 14.8947 7.52118C15.1868 7.35799 15.4187 7.11749 15.5905 6.79968C15.7622 6.48188 15.8481 6.09536 15.8481 5.64013C15.8481 4.96157 15.6678 4.44192 15.307 4.08117C14.9548 3.71183 14.5211 3.52716 14.0057 3.52716C13.4904 3.52716 13.0566 3.71183 12.7044 4.08117C12.3609 4.44192 12.1891 4.96157 12.1891 5.64013C12.1891 6.31868 12.3566 6.84263 12.6916 7.21197C13.0351 7.57272 13.4646 7.7531 13.98 7.7531ZM22.9819 1.9682C23.8323 1.9682 24.5194 2.23876 25.0434 2.77989C25.5673 3.31242 25.8293 4.05969 25.8293 5.0217V9.20898H24.0255V5.26649C24.0255 4.6996 23.8838 4.26584 23.6004 3.96521C23.3169 3.656 22.9304 3.50139 22.4408 3.50139C21.9426 3.50139 21.5475 3.656 21.2555 3.96521C20.972 4.26584 20.8303 4.6996 20.8303 5.26649V9.20898H19.0265V2.07127H20.8303V2.96026C21.0708 2.65105 21.3757 2.41055 21.7451 2.23876C22.123 2.05838 22.5353 1.9682 22.9819 1.9682ZM29.6446 3.55292V7.00583C29.6446 7.24633 29.7005 7.42241 29.8121 7.53407C29.9324 7.63714 30.1299 7.68868 30.4048 7.68868H31.2423V9.20898H30.1085C28.5882 9.20898 27.828 8.4703 27.828 6.99294V3.55292H26.9777V2.07127H27.828V0.306164H29.6446V2.07127H31.2423V3.55292H29.6446ZM32.0758 5.61436C32.0758 4.89286 32.2175 4.25295 32.501 3.69465C32.793 3.13634 33.1838 2.70688 33.6734 2.40625C34.1716 2.10563 34.7256 1.95531 35.3354 1.95531C35.868 1.95531 36.3318 2.06268 36.7269 2.27741C37.1306 2.49214 37.4527 2.76271 37.6932 3.0891V2.07127H39.5098V9.20898H37.6932V8.16538C37.4613 8.50037 37.1392 8.77952 36.7269 9.00284C36.3232 9.21757 35.8551 9.32494 35.3225 9.32494C34.7213 9.32494 34.1716 9.17033 33.6734 8.86112C33.1838 8.5519 32.793 8.11814 32.501 7.55984C32.2175 6.99294 32.0758 6.34445 32.0758 5.61436ZM37.6932 5.64013C37.6932 5.20207 37.6073 4.82844 37.4355 4.51922C37.2637 4.20142 37.0318 3.96092 36.7398 3.79772C36.4477 3.62593 36.1342 3.54004 35.7993 3.54004C35.4643 3.54004 35.1551 3.62164 34.8716 3.78483C34.5882 3.94803 34.3563 4.18853 34.1759 4.50634C34.0041 4.81555 33.9182 5.18489 33.9182 5.61436C33.9182 6.04382 34.0041 6.42175 34.1759 6.74815C34.3563 7.06595 34.5882 7.31075 34.8716 7.48253C35.1636 7.65432 35.4729 7.74021 35.7993 7.74021C36.1342 7.74021 36.4477 7.65861 36.7398 7.49542C37.0318 7.32363 37.2637 7.08313 37.4355 6.77391C37.6073 6.45611 37.6932 6.07818 37.6932 5.64013ZM40.8077 5.64013C40.8077 4.90145 40.958 4.25725 41.2586 3.70753C41.5593 3.14923 41.9758 2.71976 42.5084 2.41913C43.0409 2.10992 43.6508 1.95531 44.3379 1.95531C45.2226 1.95531 45.9527 2.17863 46.5282 2.62528C47.1123 3.06333 47.5031 3.68176 47.7006 4.48057H45.7551C45.6521 4.17135 45.476 3.93085 45.2269 3.75907C44.9864 3.57869 44.6858 3.4885 44.325 3.4885C43.8097 3.4885 43.4017 3.67747 43.101 4.0554C42.8004 4.42474 42.6501 4.95298 42.6501 5.64013C42.6501 6.31868 42.8004 6.84692 43.101 7.22485C43.4017 7.59419 43.8097 7.77886 44.325 7.77886C45.0551 7.77886 45.5318 7.45247 45.7551 6.79968H47.7006C47.5031 7.57272 47.1123 8.18686 46.5282 8.64209C45.9441 9.09732 45.214 9.32494 44.3379 9.32494C43.6508 9.32494 43.0409 9.17463 42.5084 8.874C41.9758 8.56479 41.5593 8.13532 41.2586 7.5856C40.958 7.0273 40.8077 6.37881 40.8077 5.64013ZM51.1221 3.55292V7.00583C51.1221 7.24633 51.178 7.42241 51.2896 7.53407C51.4099 7.63714 51.6074 7.68868 51.8823 7.68868H52.7197V9.20898H51.5859C50.0656 9.20898 49.3055 8.4703 49.3055 6.99294V3.55292H48.4551V2.07127H49.3055V0.306164H51.1221V2.07127H52.7197V3.55292H51.1221Z" fill="#333333"/>
</svg>
