<svg width="267" height="266" viewBox="0 0 267 266" fill="none" xmlns="http://www.w3.org/2000/svg">
<g clip-path="url(#clip0_619_8525)">
<circle cx="133.886" cy="132.989" r="132.984" fill="#FF5900"/>
<path d="M56.3043 130.592C56.0797 128.93 54.8894 127.875 53.0703 127.875C50.6673 127.875 49.2075 129.694 49.2075 132.86C49.2075 136.139 50.7122 137.846 53.0478 137.846C54.7996 137.846 56.0123 136.903 56.3043 135.308L60.1671 135.331C59.8527 138.228 57.3823 141.215 52.9805 141.215C48.5787 141.215 45.2998 138.205 45.2998 132.86C45.2998 127.493 48.646 124.506 52.9805 124.506C56.8882 124.506 59.7628 126.707 60.1671 130.592H56.3043ZM62.368 140.99V128.795H66.0511V130.996H66.1634C66.6126 129.402 67.6905 128.616 69.038 128.616C69.3974 128.616 69.8016 128.683 70.116 128.751V132.052C69.7567 131.94 69.083 131.872 68.6113 131.872C67.1965 131.872 66.1634 132.86 66.1634 134.32V140.99H62.368ZM76.9433 141.215C73.1254 141.215 70.7898 138.834 70.7898 134.949C70.7898 131.176 73.1479 128.638 76.8086 128.638C80.2222 128.638 82.6926 130.817 82.6926 134.859V135.825H74.5178V135.892C74.5178 137.464 75.4835 138.475 77.0107 138.475C78.0438 138.475 78.8073 138.026 79.1218 137.307H82.6477C82.1985 139.688 80.1099 141.215 76.9433 141.215ZM74.5178 133.601H79.1667C79.1442 132.299 78.201 131.378 76.8984 131.378C75.5509 131.378 74.574 132.333 74.5178 133.601ZM84.085 137.599C84.085 134.904 86.1736 133.938 88.5991 133.781C89.475 133.725 91.0021 133.669 91.5187 133.646V132.658C91.5187 131.805 90.8898 131.333 89.8568 131.333C88.8461 131.333 88.2173 131.76 88.0601 132.568H84.5342C84.6914 130.412 86.5329 128.638 89.9466 128.638C92.956 128.638 95.3141 130.076 95.3141 132.703V140.99H91.7432V139.283H91.6534C90.9797 140.519 89.8118 141.215 88.105 141.215C85.7694 141.215 84.085 140.025 84.085 137.599ZM87.6783 137.442C87.6783 138.273 88.3296 138.7 89.2504 138.7C90.5305 138.7 91.5636 137.869 91.5411 136.656V135.87C91.0807 135.892 89.7894 135.948 89.2279 136.005C88.2847 136.117 87.6783 136.633 87.6783 137.442ZM104.432 128.795V131.58H102.209V137.172C102.209 137.936 102.591 138.161 103.242 138.183C103.556 138.205 104.163 138.161 104.589 138.138V141.035C104.23 141.08 103.601 141.17 102.703 141.17C100.03 141.17 98.4133 140.069 98.4358 137.599V131.58H96.7963V128.795H98.4358V125.876H102.209V128.795H104.432ZM106.386 140.99V128.795H110.181V140.99H106.386ZM108.295 127.336C107.217 127.336 106.341 126.527 106.341 125.517C106.341 124.506 107.217 123.697 108.295 123.697C109.373 123.697 110.271 124.506 110.271 125.517C110.271 126.527 109.373 127.336 108.295 127.336ZM124.352 128.795L120.153 140.99H115.818L111.641 128.795H115.616L117.929 137.262H118.064L120.355 128.795H124.352ZM131.09 141.215C127.272 141.215 124.936 138.834 124.936 134.949C124.936 131.176 127.295 128.638 130.955 128.638C134.369 128.638 136.839 130.817 136.839 134.859V135.825H128.664V135.892C128.664 137.464 129.63 138.475 131.157 138.475C132.19 138.475 132.954 138.026 133.268 137.307H136.794C136.345 139.688 134.257 141.215 131.09 141.215ZM128.664 133.601H133.313C133.291 132.299 132.348 131.378 131.045 131.378C129.698 131.378 128.721 132.333 128.664 133.601ZM149.91 140.99H143.958V124.731H149.91C154.873 124.731 157.927 127.785 157.927 132.86C157.927 137.936 154.873 140.99 149.91 140.99ZM147.776 137.711H149.775C152.56 137.711 154.087 136.386 154.087 132.86C154.087 129.334 152.56 127.987 149.73 127.987H147.776V137.711ZM165.855 141.215C162.037 141.215 159.702 138.834 159.702 134.949C159.702 131.176 162.06 128.638 165.72 128.638C169.134 128.638 171.604 130.817 171.604 134.859V135.825H163.43V135.892C163.43 137.464 164.395 138.475 165.923 138.475C166.956 138.475 167.719 138.026 168.034 137.307H171.56C171.11 139.688 169.022 141.215 165.855 141.215ZM163.43 133.601H168.079C168.056 132.299 167.113 131.378 165.81 131.378C164.463 131.378 163.486 132.333 163.43 133.601ZM180.588 132.568C180.475 131.76 179.757 131.243 178.746 131.243C177.803 131.243 177.062 131.67 177.084 132.299C177.062 132.771 177.421 133.152 178.477 133.354L180.79 133.804C183.215 134.275 184.383 135.331 184.406 137.105C184.383 139.598 182.092 141.215 178.791 141.215C175.31 141.215 173.266 139.665 173.019 137.24H176.792C176.927 138.116 177.691 138.587 178.814 138.587C179.847 138.587 180.543 138.183 180.565 137.509C180.543 136.97 180.071 136.633 179.016 136.409L176.927 136.027C174.524 135.578 173.311 134.365 173.334 132.501C173.311 130.076 175.377 128.638 178.679 128.638C181.958 128.638 183.956 130.143 184.114 132.568H180.588ZM186.27 140.99V128.795H190.065V140.99H186.27ZM188.179 127.336C187.101 127.336 186.225 126.527 186.225 125.517C186.225 124.506 187.101 123.697 188.179 123.697C189.257 123.697 190.155 124.506 190.155 125.517C190.155 126.527 189.257 127.336 188.179 127.336ZM198.15 145.819C194.647 145.819 192.558 144.224 192.378 141.911H196.061C196.219 142.787 197.05 143.169 198.24 143.169C199.61 143.169 200.553 142.607 200.553 141.013V138.857H200.418C199.947 139.957 198.779 140.833 196.96 140.833C194.265 140.833 192.064 138.969 192.064 134.859C192.064 130.592 194.377 128.638 196.937 128.638C198.891 128.638 199.947 129.784 200.396 130.884H200.508V128.795H204.281V141.058C204.281 144.157 201.788 145.819 198.15 145.819ZM198.24 138.048C199.7 138.048 200.553 136.858 200.553 134.859C200.553 132.86 199.722 131.603 198.24 131.603C196.758 131.603 195.949 132.905 195.949 134.859C195.949 136.858 196.78 138.048 198.24 138.048ZM210.502 134.006V140.99H206.707V128.795H210.3V131.019H210.435C210.996 129.537 212.344 128.638 214.14 128.638C216.7 128.638 218.385 130.457 218.362 133.22V140.99H214.589V133.938C214.589 132.568 213.848 131.737 212.591 131.737C211.333 131.737 210.502 132.591 210.502 134.006Z" fill="black"/>
</g>
<defs>
<clipPath id="clip0_619_8525">
<rect width="265.967" height="265.967" fill="white" transform="translate(0.902344 0.00585938)"/>
</clipPath>
</defs>
</svg>
