<svg width="267" height="267" viewBox="0 0 267 267" fill="none" xmlns="http://www.w3.org/2000/svg">
<g clip-path="url(#clip0_762_17588)">
<circle cx="133.89" cy="133.874" r="132.984" fill="#1C46F5"/>
<path d="M56.288 131.472C56.0816 129.805 54.8745 128.756 53.064 128.756C50.6658 128.756 49.1967 130.583 49.1967 133.743C49.1967 137.023 50.6976 138.73 53.0402 138.73C54.7951 138.73 56.0022 137.785 56.288 136.189L60.1632 136.213C59.8535 139.112 57.376 142.097 52.9687 142.097C48.5694 142.097 45.2818 139.088 45.2818 133.743C45.2818 128.383 48.6408 125.389 52.9687 125.389C56.8677 125.389 59.7503 127.597 60.1632 131.472H56.288ZM62.3609 141.875V129.678H66.0376V131.885H66.1647C66.6094 130.289 67.6893 129.511 69.0234 129.511C69.3808 129.511 69.7858 129.566 70.1034 129.638V132.949C69.7461 132.822 69.0631 132.751 68.6026 132.751C67.1891 132.751 66.1488 133.735 66.1488 135.197V141.875H62.3609ZM76.9242 142.105C73.1125 142.105 70.7779 139.723 70.7779 135.824C70.7779 132.052 73.1443 129.519 76.8051 129.519C80.2198 129.519 82.6815 131.695 82.6815 135.737V136.705H74.5181V136.785C74.5181 138.341 75.4631 139.358 76.9957 139.358C78.036 139.358 78.8063 138.913 79.108 138.198H82.6338C82.1812 140.573 80.0927 142.105 76.9242 142.105ZM74.5181 134.474H79.1477C79.1318 133.188 78.1948 132.266 76.8845 132.266C75.5504 132.266 74.5737 133.219 74.5181 134.474ZM84.0677 138.484C84.0677 135.776 86.1641 134.815 88.5861 134.665C89.4755 134.609 91.024 134.553 91.5243 134.53L91.5163 133.553C91.5084 132.695 90.8811 132.211 89.8567 132.211C88.8482 132.211 88.2049 132.655 88.0541 133.45H84.5203C84.695 131.29 86.5135 129.519 89.9281 129.519C92.9457 129.519 95.2963 130.956 95.2963 133.6V141.875H91.7307V140.176H91.6354C90.9843 141.406 89.8011 142.089 88.0858 142.089C85.7591 142.089 84.0677 140.906 84.0677 138.484ZM87.6649 138.317C87.6649 139.143 88.3161 139.58 89.2452 139.58C90.5316 139.58 91.5481 138.746 91.5402 137.531L91.5322 136.753C91.0716 136.769 89.8011 136.832 89.2293 136.896C88.2685 136.991 87.6649 137.515 87.6649 138.317ZM104.418 129.678V132.473H102.21V138.055C102.21 138.826 102.591 139.056 103.227 139.08C103.544 139.088 104.148 139.048 104.585 139.016V141.915C104.211 141.97 103.584 142.05 102.695 142.05C100.01 142.05 98.3985 140.946 98.4223 138.492V132.473H96.7944V129.678H98.4223V126.755H102.21V129.678H104.418ZM106.379 141.875V129.678H110.167V141.875H106.379ZM106.315 126.398C106.315 125.389 107.197 124.572 108.277 124.572C109.357 124.572 110.238 125.389 110.238 126.398C110.238 127.406 109.357 128.224 108.277 128.224C107.197 128.224 106.315 127.406 106.315 126.398ZM124.345 129.678L120.144 141.875H115.816L111.623 129.678H115.617L117.92 138.143H118.047L120.35 129.678H124.345ZM131.071 142.105C127.259 142.105 124.925 139.723 124.925 135.824C124.925 132.052 127.291 129.519 130.952 129.519C134.366 129.519 136.828 131.695 136.828 135.737V136.705H128.665V136.785C128.665 138.341 129.61 139.358 131.142 139.358C132.183 139.358 132.953 138.913 133.255 138.198H136.78C136.328 140.573 134.239 142.105 131.071 142.105ZM128.665 134.474H133.294C133.278 133.188 132.341 132.266 131.031 132.266C129.697 132.266 128.72 133.219 128.665 134.474ZM149.909 141.875H143.945V125.612H149.909C154.864 125.612 157.921 128.661 157.921 133.735C157.921 138.818 154.864 141.875 149.909 141.875ZM147.772 138.603H149.758C152.553 138.603 154.086 137.269 154.086 133.735C154.086 130.21 152.553 128.884 149.71 128.884H147.772V138.603ZM165.836 142.105C162.024 142.105 159.69 139.723 159.69 135.824C159.69 132.052 162.056 129.519 165.717 129.519C169.132 129.519 171.593 131.695 171.593 135.737V136.705H163.43V136.785C163.43 138.341 164.375 139.358 165.908 139.358C166.948 139.358 167.718 138.913 168.02 138.198H171.546C171.093 140.573 169.005 142.105 165.836 142.105ZM163.43 134.474H168.06C168.044 133.188 167.107 132.266 165.796 132.266C164.462 132.266 163.486 133.219 163.43 134.474ZM180.587 133.45C180.476 132.64 179.737 132.131 178.737 132.131C177.8 132.131 177.061 132.544 177.077 133.18C177.061 133.648 177.419 134.029 178.475 134.244L180.786 134.688C183.208 135.157 184.375 136.213 184.391 137.992C184.375 140.485 182.08 142.105 178.784 142.105C175.298 142.105 173.265 140.549 173.003 138.119H176.783C176.926 139 177.673 139.461 178.8 139.461C179.825 139.461 180.531 139.064 180.547 138.405C180.531 137.849 180.055 137.515 178.999 137.301L176.918 136.912C174.52 136.459 173.305 135.244 173.313 133.394C173.305 130.964 175.378 129.519 178.665 129.519C181.945 129.519 183.954 131.02 184.097 133.45H180.587ZM186.263 141.875V129.678H190.05V141.875H186.263ZM186.199 126.398C186.199 125.389 187.081 124.572 188.161 124.572C189.24 124.572 190.122 125.389 190.122 126.398C190.122 127.406 189.24 128.224 188.161 128.224C187.081 128.224 186.199 127.406 186.199 126.398ZM198.138 146.703C194.643 146.703 192.539 145.115 192.356 142.788H196.049C196.208 143.678 197.05 144.059 198.233 144.059C199.599 144.059 200.544 143.487 200.544 141.907V139.739H200.409C199.948 140.843 198.773 141.708 196.946 141.708C194.254 141.708 192.055 139.866 192.055 135.737C192.055 131.48 194.358 129.519 196.93 129.519C198.876 129.519 199.924 130.662 200.393 131.758H200.504V129.678H204.276V141.931C204.276 145.043 201.775 146.703 198.138 146.703ZM195.938 135.752C195.938 137.738 196.764 138.937 198.241 138.937C199.694 138.937 200.552 137.754 200.552 135.752C200.552 133.743 199.702 132.481 198.241 132.481C196.756 132.481 195.938 133.783 195.938 135.752ZM210.487 134.903V141.875H206.7V129.678H210.305V131.901H210.44C210.98 130.432 212.33 129.519 214.14 129.519C216.697 129.519 218.373 131.337 218.365 134.101V141.875H214.577V134.831C214.585 133.458 213.838 132.632 212.584 132.632C211.329 132.632 210.487 133.473 210.487 134.903Z" fill="black"/>
</g>
<defs>
<clipPath id="clip0_762_17588">
<rect width="265.967" height="265.967" fill="white" transform="translate(0.90625 0.890625)"/>
</clipPath>
</defs>
</svg>
