<svg width="235" height="23" viewBox="0 0 235 23" fill="none" xmlns="http://www.w3.org/2000/svg">
<path d="M232.163 21.6786H234.531V5.02734H232.163L223.222 17.9015V5.02734H220.853V21.6786H223.222L232.163 8.80438V21.6786Z" fill="black"/>
<path fill-rule="evenodd" clip-rule="evenodd" d="M232.05 21.7953H234.656V4.90625H232.107L223.347 17.5196V4.90625H220.741V21.7953H223.29L232.05 9.18198V21.7953ZM232.169 8.80223V21.6764H234.537V5.02519H232.169L223.228 17.8994V5.02519H220.86V21.6764H223.228L232.169 8.80223Z" fill="black"/>
<path d="M209.153 6.62692C207.156 6.62692 205.581 7.24788 204.428 8.4898C203.275 9.73171 202.698 11.3876 202.698 13.4575C202.698 15.5114 203.283 17.1275 204.454 18.3057C205.641 19.468 207.216 20.0492 209.178 20.0492C210.865 20.0492 212.242 19.6352 213.309 18.8072C214.376 17.9634 214.91 16.7135 214.91 15.0576V14.5561H208.662V12.4783H217.285V22.0076H215.168L214.987 19.667C214.471 20.4472 213.671 21.0761 212.586 21.5538C211.519 22.0314 210.314 22.2703 208.972 22.2703C206.321 22.2703 204.17 21.4583 202.518 19.8342C200.865 18.2102 200.039 16.0687 200.039 13.4097C200.039 10.7666 200.882 8.60921 202.569 6.9374C204.256 5.26559 206.468 4.42969 209.204 4.42969C211.252 4.42969 212.999 4.93123 214.445 5.93431C215.891 6.9374 216.769 8.26689 217.078 9.92277H214.393C214.049 8.856 213.404 8.04398 212.457 7.48671C211.528 6.91352 210.426 6.62692 209.153 6.62692Z" fill="black"/>
<path fill-rule="evenodd" clip-rule="evenodd" d="M214.395 9.92452C214.051 8.85775 213.406 8.04573 212.459 7.48846C211.529 6.91527 210.428 6.62867 209.154 6.62867C207.158 6.62867 205.583 7.24963 204.43 8.49155C203.277 9.73346 202.7 11.3893 202.7 13.4592C202.7 15.5131 203.285 17.1292 204.456 18.3075C205.643 19.4698 207.218 20.0509 209.18 20.0509C210.867 20.0509 212.244 19.6369 213.311 18.809C214.378 17.9651 214.912 16.7153 214.912 15.0594V14.5578H208.664V12.48H217.287V22.0093H215.17L214.989 19.6688C214.954 19.7209 214.919 19.7724 214.882 19.8232C214.364 20.5324 213.6 21.1098 212.588 21.5555C211.521 22.0332 210.316 22.272 208.974 22.272C206.323 22.272 204.172 21.46 202.519 19.836C200.867 18.2119 200.041 16.0704 200.041 13.4114C200.041 10.7684 200.884 8.61096 202.571 6.93915C204.258 5.26734 206.469 4.43144 209.206 4.43144C211.254 4.43144 213.001 4.93298 214.447 5.93606C215.858 6.91502 216.728 8.20486 217.057 9.80559C217.065 9.84504 217.073 9.88469 217.08 9.92452H214.395ZM212.636 21.6643C211.552 22.1496 210.33 22.391 208.974 22.391C206.297 22.391 204.114 21.5699 202.436 19.9208C200.757 18.271 199.922 16.0972 199.922 13.4114C199.922 10.7406 200.775 8.55144 202.487 6.85468C204.2 5.1574 206.443 4.3125 209.206 4.3125C211.274 4.3125 213.046 4.81928 214.515 5.83834C215.985 6.85838 216.881 8.21451 217.197 9.90265L217.223 10.0435H214.309L214.282 9.96105C213.947 8.92137 213.32 8.13312 212.399 7.59095L212.396 7.58971C211.489 7.02991 210.41 6.74761 209.154 6.74761C207.184 6.74761 205.644 7.35913 204.517 8.57247C203.388 9.78775 202.819 11.4124 202.819 13.4592C202.819 15.4893 203.396 17.0722 204.539 18.223C205.701 19.3593 207.243 19.932 209.18 19.932C210.847 19.932 212.196 19.5232 213.238 18.7153C214.27 17.899 214.793 16.6874 214.793 15.0594V14.6768H208.545V12.3611H217.406V22.1283H215.06L214.895 20.0024C214.366 20.682 213.611 21.235 212.636 21.6643Z" fill="black"/>
<path d="M197.823 6.93732C197.535 7.22121 197.184 7.36315 196.768 7.36315C196.352 7.36315 196.001 7.22121 195.713 6.93732C195.425 6.63767 195.281 6.2907 195.281 5.89642C195.281 5.48636 195.425 5.1394 195.713 4.85551C196.001 4.57163 196.352 4.42969 196.768 4.42969C197.184 4.42969 197.535 4.57163 197.823 4.85551C198.111 5.1394 198.255 5.48636 198.255 5.89642C198.255 6.2907 198.111 6.63767 197.823 6.93732ZM195.665 21.6756V10.1074H197.919V21.6756H195.665Z" fill="black"/>
<path fill-rule="evenodd" clip-rule="evenodd" d="M197.908 7.02374C197.598 7.33027 197.216 7.48383 196.77 7.48383C196.324 7.48383 195.942 7.33026 195.631 7.02374L195.629 7.02148C195.321 6.70099 195.164 6.32493 195.164 5.89817C195.164 5.45681 195.32 5.07919 195.631 4.77259C195.942 4.46607 196.324 4.3125 196.77 4.3125C197.216 4.3125 197.598 4.46607 197.908 4.77259C198.219 5.07919 198.375 5.45681 198.375 5.89817C198.375 6.32493 198.218 6.70096 197.911 7.02145L197.908 7.02374ZM195.548 21.7963V9.99016H198.04V21.7963H195.548ZM197.825 6.93907C198.113 6.63942 198.256 6.29245 198.256 5.89817C198.256 5.48811 198.113 5.14115 197.825 4.85726C197.537 4.57338 197.185 4.43144 196.77 4.43144C196.354 4.43144 196.002 4.57338 195.715 4.85726C195.427 5.14115 195.283 5.48811 195.283 5.89817C195.283 6.29245 195.427 6.63942 195.715 6.93907C196.002 7.22296 196.354 7.3649 196.77 7.3649C197.185 7.3649 197.537 7.22296 197.825 6.93907ZM195.667 21.6773H197.921V10.1091H195.667V21.6773Z" fill="black"/>
<path d="M180.067 9.39071C180.067 7.91194 180.627 6.71939 181.745 5.81305C182.881 4.89081 184.37 4.42969 186.213 4.42969C187.907 4.42969 189.273 4.85901 190.31 5.71764C191.346 6.57628 191.914 7.75293 192.013 9.2476H189.569C189.503 8.38896 189.174 7.72113 188.582 7.24411C187.99 6.76709 187.192 6.52858 186.188 6.52858C185.069 6.52858 184.172 6.78299 183.498 7.29181C182.823 7.80064 182.486 8.47642 182.486 9.31915C182.486 10.6707 183.317 11.5373 184.979 11.9189L187.916 12.5867C190.844 13.2387 192.309 14.7731 192.309 17.19C192.309 18.7324 191.733 19.9647 190.581 20.8869C189.446 21.8092 187.924 22.2703 186.015 22.2703C184.189 22.2703 182.716 21.841 181.597 20.9823C180.478 20.1237 179.886 18.955 179.82 17.4762H182.288C182.321 18.3031 182.667 18.9629 183.325 19.4559C184 19.9329 184.896 20.1714 186.015 20.1714C187.2 20.1714 188.138 19.9249 188.829 19.432C189.536 18.9232 189.89 18.2394 189.89 17.3808C189.89 16.0134 189.067 15.1468 187.422 14.781L184.485 14.1371C181.54 13.4851 180.067 11.903 180.067 9.39071Z" fill="black"/>
<path fill-rule="evenodd" clip-rule="evenodd" d="M184.484 14.1388C181.539 13.4869 180.066 11.9048 180.066 9.39246C180.066 7.91369 180.626 6.72114 181.745 5.8148C182.88 4.89256 184.369 4.43144 186.212 4.43144C187.907 4.43144 189.272 4.86076 190.309 5.71939C191.318 6.55513 191.883 7.69213 192.003 9.13041C192.006 9.16983 192.009 9.20948 192.012 9.24935H189.569C189.503 8.39071 189.174 7.72288 188.581 7.24586C187.989 6.76884 187.191 6.53033 186.187 6.53033C185.068 6.53033 184.172 6.78474 183.497 7.29356C182.822 7.80239 182.485 8.47817 182.485 9.3209C182.485 10.6725 183.316 11.5391 184.978 11.9207L187.915 12.5885C190.844 13.2404 192.308 14.7748 192.308 17.1918C192.308 18.7341 191.732 19.9664 190.58 20.8887C189.445 21.8109 187.923 22.272 186.015 22.272C184.188 22.272 182.716 21.8427 181.597 20.9841C180.508 20.1486 179.918 19.0195 179.826 17.5969C179.824 17.5575 179.821 17.5178 179.82 17.478H182.288C182.321 18.3048 182.666 18.9647 183.324 19.4576C183.999 19.9346 184.896 20.1731 186.015 20.1731C187.199 20.1731 188.137 19.9267 188.828 19.4338C189.536 18.9249 189.889 18.2412 189.889 17.3826C189.889 16.0151 189.067 15.1485 187.421 14.7828L184.484 14.1388ZM187.395 14.8989C187.395 14.8989 187.396 14.8989 187.395 14.8989L184.459 14.255C182.972 13.9258 181.842 13.3587 181.084 12.5443C180.324 11.7277 179.948 10.6735 179.948 9.39246C179.948 7.87899 180.522 6.65209 181.67 5.72248M187.395 14.8989C188.204 15.0787 188.797 15.3785 189.186 15.7889C189.573 16.1969 189.77 16.7246 189.77 17.3826C189.77 18.2021 189.436 18.8501 188.759 19.337C188.095 19.8108 187.184 20.0542 186.015 20.0542C184.912 20.0542 184.043 19.8194 183.394 19.3614C182.766 18.8902 182.438 18.264 182.407 17.4732L182.402 17.359H179.695L179.701 17.4833C179.768 18.9951 180.376 20.1972 181.524 21.0784C182.669 21.9572 184.17 22.391 186.015 22.391C187.942 22.391 189.493 21.9252 190.655 20.9813C191.836 20.0354 192.427 18.7682 192.427 17.1918C192.427 15.9573 192.052 14.9386 191.296 14.1461C190.542 13.3562 189.419 12.8015 187.941 12.4725C187.941 12.4724 187.941 12.4725 187.941 12.4725L185.005 11.8047C185.004 11.8047 185.005 11.8048 185.005 11.8047C184.187 11.617 183.588 11.3131 183.194 10.9022C182.803 10.4939 182.604 9.97019 182.604 9.3209C182.604 8.51561 182.924 7.87494 183.569 7.38852C184.217 6.89963 185.086 6.64927 186.187 6.64927C187.173 6.64927 187.941 6.88326 188.507 7.3385C189.07 7.79211 189.386 8.42776 189.45 9.25844L189.458 9.36829H192.139L192.131 9.24151C192.03 7.7183 191.45 6.50975 190.385 5.6278C189.322 4.7473 187.927 4.3125 186.212 4.3125C184.349 4.3125 182.831 4.77898 181.67 5.72248" fill="black"/>
<path d="M168.211 22.2703C165.66 22.2703 163.581 21.4504 161.975 19.8107C160.393 18.171 159.602 16.0347 159.602 13.4019C159.602 10.7461 160.381 8.58672 161.94 6.92391C163.522 5.26109 165.565 4.42969 168.069 4.42969C170.525 4.42969 172.497 5.19181 173.985 6.71605C175.473 8.2403 176.217 10.2611 176.217 12.7784V13.9909L162.826 14.0255C162.944 15.8038 163.463 17.1779 164.384 18.1479C165.329 19.0948 166.628 19.5682 168.281 19.5682C170.927 19.5682 172.545 18.5751 173.135 16.589H176.253C175.828 18.4135 174.918 19.8222 173.525 20.8153C172.131 21.7853 170.36 22.2703 168.211 22.2703ZM168.069 7.1664C166.628 7.1664 165.459 7.57056 164.561 8.37887C163.664 9.18718 163.109 10.3419 162.896 11.8431H172.887C172.887 10.4343 172.45 9.30265 171.576 8.44815C170.702 7.59365 169.533 7.1664 168.069 7.1664Z" fill="black"/>
<path d="M146.763 22.2729H139.383V0.269531H146.64C149.975 0.269531 152.671 1.28398 154.73 3.31288C156.789 5.34178 157.818 7.99963 157.818 11.2864C157.818 14.553 156.799 17.2007 154.761 19.2296C152.723 21.2585 150.057 22.2729 146.763 22.2729ZM146.423 3.00854H142.409V19.5035H146.547C149.038 19.5035 151.014 18.7629 152.476 17.2818C153.938 15.8007 154.668 13.8023 154.668 11.2864C154.668 8.73003 153.927 6.71128 152.445 5.23019C150.983 3.74909 148.976 3.00854 146.423 3.00854Z" fill="black"/>
<path d="M121.234 22.2703C118.683 22.2703 116.605 21.4504 114.999 19.8107C113.416 18.171 112.625 16.0347 112.625 13.4019C112.625 10.7461 113.404 8.58672 114.963 6.92391C116.546 5.26109 118.589 4.42969 121.092 4.42969C123.549 4.42969 125.521 5.19181 127.009 6.71605C128.497 8.2403 129.241 10.2611 129.241 12.7784V13.9909L115.849 14.0255C115.967 15.8038 116.487 17.1779 117.408 18.1479C118.353 19.0948 119.652 19.5682 121.305 19.5682C123.95 19.5682 125.568 18.5751 126.159 16.589H129.276C128.851 18.4135 127.942 19.8222 126.548 20.8153C125.155 21.7853 123.383 22.2703 121.234 22.2703ZM121.092 7.1664C119.652 7.1664 118.482 7.57056 117.585 8.37887C116.687 9.18718 116.132 10.3419 115.92 11.8431H125.911C125.911 10.4343 125.474 9.30265 124.6 8.44815C123.726 7.59365 122.557 7.1664 121.092 7.1664Z" fill="black"/>
<path d="M102.772 22.2703L95.9688 4.42969H98.5665L102.921 15.8299C103.333 16.8827 103.704 18.0014 104.034 19.1858C104.38 18.0343 104.76 16.9074 105.172 15.8052L109.502 4.42969H112.025L105.296 22.2703H102.772Z" fill="black"/>
<path fill-rule="evenodd" clip-rule="evenodd" d="M102.691 22.391L95.7969 4.3125H98.6492L103.032 15.7883C103.032 15.7881 103.032 15.7884 103.032 15.7883C103.401 16.7289 103.736 17.7219 104.039 18.7664C104.354 17.7466 104.695 16.7462 105.062 15.7653L105.062 15.7647L109.421 4.3125H112.198L105.379 22.391H102.691ZM104.099 18.976C104.078 19.0464 104.056 19.1169 104.035 19.1876C104.015 19.1164 103.995 19.0455 103.975 18.9748C103.66 17.869 103.309 16.8212 102.922 15.8316L98.5673 4.43144H95.9695L102.773 22.272H105.297L112.026 4.43144H109.503L105.173 15.807C104.786 16.8416 104.428 17.8979 104.099 18.976Z" fill="black"/>
<path d="M93.7527 7.02379C93.465 7.31747 93.1133 7.4643 92.6977 7.4643C92.282 7.4643 91.9303 7.31747 91.6426 7.02379C91.3548 6.71381 91.2109 6.35487 91.2109 5.94699C91.2109 5.5228 91.3548 5.16387 91.6426 4.8702C91.9303 4.57652 92.282 4.42969 92.6977 4.42969C93.1133 4.42969 93.465 4.57652 93.7527 4.8702C94.0405 5.16387 94.1844 5.5228 94.1844 5.94699C94.1844 6.35487 94.0405 6.71381 93.7527 7.02379ZM91.5946 22.2703V10.3031H93.8487V22.2703H91.5946Z" fill="black"/>
<path fill-rule="evenodd" clip-rule="evenodd" d="M93.8394 7.10878C93.529 7.42557 93.1466 7.58499 92.6994 7.58499C92.2522 7.58499 91.8698 7.42557 91.5594 7.10878L91.5571 7.10649C91.2498 6.7754 91.0938 6.38784 91.0938 5.94874C91.0938 5.49453 91.2491 5.10538 91.5594 4.78871C91.8698 4.47192 92.2522 4.3125 92.6994 4.3125C93.1466 4.3125 93.529 4.47192 93.8394 4.78871C94.1497 5.10538 94.3051 5.49453 94.3051 5.94874C94.3051 6.38784 94.149 6.77537 93.8417 7.10646L93.8394 7.10878ZM91.4774 22.391V10.1859H93.9693V22.391H91.4774ZM91.6443 7.02554C91.3566 6.71555 91.2127 6.35662 91.2127 5.94874C91.2127 5.52455 91.3566 5.16562 91.6443 4.87195C91.9321 4.57827 92.2838 4.43144 92.6994 4.43144C93.115 4.43144 93.4667 4.57827 93.7545 4.87195C94.0422 5.16562 94.1861 5.52455 94.1861 5.94874C94.1861 6.35662 94.0422 6.71555 93.7545 7.02554C93.4667 7.31921 93.115 7.46605 92.6994 7.46605C92.2838 7.46605 91.9321 7.31921 91.6443 7.02554ZM91.5964 22.272H93.8504V10.3049H91.5964V22.272Z" fill="black"/>
<path d="M76.3438 6.65051V4.42969H90.0215V6.65051H84.4529V22.2703H81.938V6.65051H76.3438Z" fill="black"/>
<path fill-rule="evenodd" clip-rule="evenodd" d="M76.2266 6.7712V4.3125H90.1422V6.7712H84.5736V22.391H81.8209V6.7712H76.2266ZM81.9398 6.65226V22.272H84.4547V6.65226H90.0233V4.43144H76.3455V6.65226H81.9398Z" fill="black"/>
<path d="M65.7283 22.2703C63.8498 22.2703 62.3686 21.8084 61.2848 20.8846C60.2252 19.9377 59.6953 18.6906 59.6953 17.1433C59.6953 15.5959 60.2613 14.3604 61.3932 13.4366C62.5492 12.4897 64.1749 11.9354 66.2702 11.7738L71.8336 11.3581V10.8731C71.8336 8.30958 70.4488 7.02783 67.6791 7.02783C66.2582 7.02783 65.1503 7.31651 64.3555 7.89388C63.5849 8.47125 63.1995 9.26801 63.1995 10.2842H60.2372C60.2372 8.52898 60.9236 7.12021 62.2964 6.05786C63.6932 4.97241 65.5356 4.42969 67.8236 4.42969C70.0875 4.42969 71.8697 5.00705 73.1702 6.16178C74.4949 7.31651 75.1572 9.00242 75.1572 11.2195V21.8546H72.2671L71.9058 19.1179C71.4482 20.0878 70.6535 20.8615 69.5215 21.4389C68.4137 21.9931 67.1493 22.2703 65.7283 22.2703ZM66.7037 19.7414C68.3173 19.7414 69.5817 19.2795 70.4969 18.3557C71.4121 17.4089 71.8697 16.1387 71.8697 14.5451V13.6444L67.354 13.9909C64.5362 14.2449 63.1273 15.2611 63.1273 17.0393C63.1273 17.9169 63.4404 18.5867 64.0665 19.0486C64.6927 19.5105 65.5718 19.7414 66.7037 19.7414Z" fill="black"/>
<path d="M48.6793 22.2703C46.1285 22.2703 44.0501 21.4504 42.444 19.8107C40.8615 18.171 40.0703 16.0347 40.0703 13.4019C40.0703 10.7461 40.8497 8.58672 42.4086 6.92391C43.991 5.26109 46.034 4.42969 48.5376 4.42969C50.994 4.42969 52.9661 5.19181 54.4541 6.71605C55.9421 8.2403 56.6861 10.2611 56.6861 12.7784V13.9909L43.2943 14.0255C43.4124 15.8038 43.932 17.1779 44.8531 18.1479C45.7979 19.0948 47.0969 19.5682 48.7502 19.5682C51.3955 19.5682 53.0134 18.5751 53.6039 16.589H56.7215C56.2964 18.4135 55.3871 19.8222 53.9936 20.8153C52.6001 21.7853 50.8287 22.2703 48.6793 22.2703ZM48.5376 7.1664C47.0969 7.1664 45.9278 7.57056 45.0303 8.37887C44.1327 9.18718 43.5777 10.3419 43.3651 11.8431H53.3559C53.3559 10.4343 52.9189 9.30265 52.045 8.44815C51.1711 7.59365 50.002 7.1664 48.5376 7.1664Z" fill="black"/>
<path d="M34.5503 22.2703H37.0938V4.42969H30.0083C28.0012 4.42969 26.4353 4.90675 25.3106 5.86088C24.1686 6.81501 23.5976 8.12283 23.5976 9.78433C23.5976 11.0181 23.9177 12.0627 24.5579 12.9182C25.1808 13.7736 26.0719 14.3823 27.2312 14.7442L23.416 22.2703H26.245L29.7488 15.213H34.5503V22.2703ZM34.5503 6.60116V13.0662H29.9823C28.8058 13.0662 27.8974 12.7783 27.2572 12.2026C26.5997 11.6268 26.2709 10.8289 26.2709 9.80901C26.2709 8.77263 26.5997 7.983 27.2572 7.44013C27.9147 6.88082 28.8317 6.60116 30.0083 6.60116H34.5503Z" fill="black"/>
<path fill-rule="evenodd" clip-rule="evenodd" d="M34.4374 22.391H37.2188V4.3125H30.0144C27.9894 4.3125 26.3929 4.79382 25.2401 5.77165C24.0679 6.75116 23.4848 8.09413 23.4848 9.78608C23.4848 11.0411 23.8107 12.1116 24.4683 12.9906C25.084 13.8358 25.953 14.4435 27.0683 14.8163L23.2284 22.391H26.3248L29.8286 15.3337H34.4374V22.391ZM29.7548 15.2148L26.251 22.272H23.422L27.2373 14.7459C27.1988 14.7339 27.1605 14.7216 27.1226 14.709C26.0191 14.3433 25.1662 13.7469 24.564 12.9199C23.9238 12.0645 23.6037 11.0199 23.6037 9.78608C23.6037 8.12458 24.1747 6.81676 25.3167 5.86263C26.4413 4.9085 28.0072 4.43144 30.0144 4.43144H37.0998V22.272H34.5563V15.2148H29.7548ZM27.3428 12.1159L27.3416 12.1148C26.7143 11.5655 26.3959 10.8027 26.3959 9.81076C26.3959 8.80145 26.7147 8.04901 27.339 7.5336L27.3403 7.53249C27.9696 6.99717 28.8557 6.72184 30.0144 6.72184H34.4374V12.949H29.9884C28.8303 12.949 27.9542 12.6658 27.3428 12.1159ZM34.5563 13.068V6.60291H30.0144C28.8378 6.60291 27.9207 6.88257 27.2632 7.44188C26.6057 7.98475 26.277 8.77438 26.277 9.81076C26.277 10.8307 26.6057 11.6285 27.2632 12.2043C27.9034 12.7801 28.8118 13.068 29.9884 13.068H34.5563Z" fill="black"/>
<path d="M11.5398 22.8676C8.31045 22.8676 5.7165 21.8377 3.75803 19.7778C1.79955 17.7179 0.820312 14.9916 0.820312 11.5989C0.820312 8.22632 1.82039 5.50001 3.82053 3.41993C5.84151 1.31966 8.46671 0.269531 11.6961 0.269531C14.238 0.269531 16.4048 0.94606 18.1966 2.29912C20.0092 3.65217 21.1239 5.44952 21.5406 7.69115H18.2591C17.8424 6.27751 17.0403 5.16679 15.8527 4.359C14.6651 3.53101 13.2483 3.11701 11.6024 3.11701C9.31052 3.11701 7.47705 3.88442 6.10195 5.41923C4.72685 6.95404 4.0393 9.00382 4.0393 11.5686C4.0393 14.1333 4.72685 16.1831 6.10195 17.7179C7.47705 19.2527 9.31052 20.0201 11.6024 20.0201C13.2483 20.0201 14.6859 19.6263 15.9152 18.8387C17.1444 18.0309 17.9674 16.9505 18.3841 15.5975H21.6343C21.1551 17.7785 19.9884 19.5355 18.1341 20.8683C16.2798 22.2012 14.0817 22.8676 11.5398 22.8676Z" fill="black"/>
</svg>
