<svg width="418" height="160" viewBox="0 0 418 160" fill="none" xmlns="http://www.w3.org/2000/svg">
<g filter="url(#filter0_f_775_20955)">
<path d="M353.125 30.1172H364.743V111.781H353.125V30.1172Z" fill="#CFEC8A"/>
<path d="M330.746 82.6805C330.746 89.2603 329.844 94.8437 328.039 99.4307C326.272 104.018 323.678 107.496 320.256 109.864C316.872 112.195 312.774 113.361 307.961 113.361C302.735 113.361 298.017 112.026 293.806 109.357C289.632 106.687 286.342 103.003 283.936 98.3027C281.567 93.6029 280.383 88.3955 280.383 82.6805C280.383 76.8903 281.567 71.6641 283.936 67.0019C286.342 62.3396 289.632 58.6738 293.806 56.0043C298.017 53.3348 302.735 52 307.961 52C312.774 52 316.872 53.1844 320.256 55.5531C323.678 57.8842 326.272 61.3433 328.039 65.9303C329.844 70.5173 330.746 76.1007 330.746 82.6805L324.994 62.3208H332.1V103.04H324.994L330.746 82.6805ZM309.766 102.476C313.15 102.476 316.158 101.63 318.79 99.9383C321.459 98.2464 323.527 95.9152 324.994 92.9449C326.498 89.937 327.25 86.5156 327.25 82.6805C327.25 78.8454 326.498 75.4428 324.994 72.4725C323.527 69.4646 321.459 67.1147 318.79 65.4227C316.158 63.7308 313.15 62.8848 309.766 62.8848C306.345 62.8848 303.318 63.7308 300.686 65.4227C298.054 67.1147 295.986 69.4646 294.482 72.4725C292.978 75.4428 292.226 78.8454 292.226 82.6805C292.226 86.4404 292.978 89.8431 294.482 92.8885C295.986 95.8964 298.054 98.2464 300.686 99.9383C303.318 101.63 306.345 102.476 309.766 102.476ZM326.798 111.782V100.051L329.28 82.6805L326.798 67.2275V53.5791H338.473V111.782H326.798Z" fill="#CFEC8A"/>
<path d="M236.273 53.5785H271.917V62.997H236.273V53.5785ZM264.021 113.36C260.337 113.36 257.141 112.59 254.434 111.048C251.726 109.469 249.659 107.213 248.23 104.28C246.801 101.348 246.087 97.8697 246.087 93.8467V39.1406H257.761V93.2827C257.761 96.3282 258.419 98.5653 259.735 99.9941C261.089 101.423 263.175 102.137 265.995 102.137C267.95 102.137 269.943 101.836 271.973 101.235V112.007C269.229 112.909 266.578 113.36 264.021 113.36Z" fill="#CFEC8A"/>
<path d="M213.484 53.5781H225.102V111.781H213.484V53.5781Z" fill="#CFEC8A"/>
<path d="M191.098 81.7781C191.098 88.1323 190.195 93.5465 188.391 98.0208C186.624 102.495 184.029 105.879 180.608 108.172C177.224 110.428 173.126 111.556 168.313 111.556C163.087 111.556 158.368 110.259 154.157 107.665C149.984 105.071 146.694 101.499 144.287 96.9492C141.919 92.3998 140.734 87.3427 140.734 81.7781C140.734 76.2135 141.919 71.1565 144.287 66.6071C146.694 62.0576 149.984 58.4858 154.157 55.8915C158.368 53.2972 163.087 52 168.313 52C173.126 52 177.224 53.1468 180.608 55.4403C184.029 57.6962 186.624 61.0425 188.391 65.4791C190.195 69.9158 191.098 75.3488 191.098 81.7781L185.345 61.9824H192.564V101.574H185.345L191.098 81.7781ZM170.118 100.784C173.502 100.784 176.509 99.9759 179.141 98.3591C181.811 96.7424 183.879 94.4865 185.345 91.5914C186.849 88.6963 187.601 85.4252 187.601 81.7781C187.601 78.0559 186.849 74.766 185.345 71.9085C183.879 69.051 181.811 66.8139 179.141 65.1971C176.509 63.5804 173.502 62.772 170.118 62.772C166.696 62.772 163.67 63.5804 161.038 65.1971C158.406 66.8139 156.338 69.0698 154.834 71.9649C153.33 74.86 152.578 78.1311 152.578 81.7781C152.578 85.4252 153.33 88.6963 154.834 91.5914C156.338 94.4865 158.406 96.7424 161.038 98.3591C163.67 99.9759 166.696 100.784 170.118 100.784ZM168.821 137.725C163.068 137.725 158.011 136.541 153.65 134.172C149.288 131.841 145.378 128.288 141.919 123.513L150.66 117.027C153.18 120.561 155.849 123.118 158.669 124.697C161.526 126.276 164.835 127.066 168.595 127.066C174.611 127.066 179.198 125.242 182.356 121.595C185.552 117.986 187.15 112.759 187.15 105.916V98.1336L189.744 82.6805L187.15 65.3099V53.5791H198.768V105.916C198.768 112.496 197.565 118.174 195.158 122.949C192.752 127.724 189.293 131.371 184.781 133.89C180.307 136.447 174.987 137.725 168.821 137.725Z" fill="#CFEC8A"/>
<path d="M117.266 53.5781H128.884V111.781H117.266V53.5781Z" fill="#CFEC8A"/>
<path d="M117.062 29.8672H128.849V42.2425H117.062V29.8672Z" fill="#CFEC8A"/>
<path d="M213.703 29.8672H225.489V42.2425H213.703V29.8672Z" fill="#CFEC8A"/>
<path d="M102.549 30.1172V111.781H90.9312V100.051L93.4127 82.6801L90.9312 67.2271V30.1172H102.549ZM89.1264 103.04L94.879 82.6801C94.879 89.2599 93.9767 94.8433 92.1719 99.4303C90.3672 104.017 87.7541 107.495 84.3326 109.864C80.9487 112.195 76.8693 113.361 72.0942 113.361C66.7552 113.361 61.999 112.026 57.8256 109.356C53.6521 106.687 50.381 103.002 48.0123 98.3024C45.6812 93.6025 44.5156 88.3951 44.5156 82.6801C44.5156 76.8899 45.6812 71.6637 48.0123 67.0015C50.381 62.3392 53.6521 58.6734 57.8256 56.0039C61.999 53.3344 66.7552 51.9996 72.0942 51.9996C76.8693 51.9996 80.9487 53.184 84.3326 55.5527C87.7541 57.8838 90.3672 61.3429 92.1719 65.9299C93.9767 70.517 94.879 76.1003 94.879 82.6801L89.1264 62.3204H96.2326V103.04H89.1264ZM64.7625 99.9379C67.432 101.63 70.4587 102.476 73.8426 102.476C77.1889 102.476 80.1968 101.63 82.8663 99.9379C85.5358 98.246 87.6225 95.9149 89.1264 92.9446C90.6304 89.9367 91.3824 86.5152 91.3824 82.6801C91.3824 78.8451 90.6304 75.4424 89.1264 72.4721C87.6225 69.4642 85.5358 67.1143 82.8663 65.4223C80.1968 63.7304 77.1889 62.8844 73.8426 62.8844C70.4587 62.8844 67.432 63.7304 64.7625 65.4223C62.093 67.1143 60.0251 69.4642 58.5587 72.4721C57.0924 75.4424 56.3592 78.8451 56.3592 82.6801C56.3592 86.44 57.0924 89.8427 58.5587 92.8882C60.0251 95.8961 62.093 98.246 64.7625 99.9379Z" fill="#CFEC8A"/>
<path d="M73.0873 16C73.0873 16 26.3203 43.784 17.9241 79.3285C9.52793 114.873 31.3296 140.289 31.3296 140.289C31.3296 140.289 19.0902 105.838 29.697 76.1211C40.3037 46.4046 56.0009 30.8026 73.0873 16Z" fill="#CFEC8A"/>
<path d="M344.858 143.266C344.858 143.266 391.625 115.482 400.021 79.9371C408.417 44.3926 386.616 18.9762 386.616 18.9762C386.616 18.9762 398.855 53.4279 388.248 83.1445C377.642 112.861 361.944 128.463 344.858 143.266Z" fill="#CFEC8A"/>
</g>
<defs>
<filter id="filter0_f_775_20955" x="0" y="0" width="417.945" height="159.266" filterUnits="userSpaceOnUse" color-interpolation-filters="sRGB">
<feFlood flood-opacity="0" result="BackgroundImageFix"/>
<feBlend mode="normal" in="SourceGraphic" in2="BackgroundImageFix" result="shape"/>
<feGaussianBlur stdDeviation="8" result="effect1_foregroundBlur_775_20955"/>
</filter>
</defs>
</svg>
