<svg width="267" height="266" viewBox="0 0 267 266" fill="none" xmlns="http://www.w3.org/2000/svg">
<circle cx="133.842" cy="132.99" r="132.99" fill="white"/>
<path d="M100.149 127.992V111.728H106.113C107.754 111.728 109.176 112.054 110.378 112.705C111.585 113.351 112.511 114.285 113.157 115.508C113.803 116.726 114.126 118.174 114.126 119.852C114.126 121.531 113.803 122.981 113.157 124.204C112.511 125.427 111.585 126.364 110.378 127.015C109.176 127.667 107.754 127.992 106.113 127.992H100.149ZM105.962 124.72C106.92 124.72 107.717 124.559 108.353 124.236C108.988 123.908 109.47 123.386 109.798 122.671C110.126 121.951 110.29 121.012 110.29 119.852C110.29 118.693 110.123 117.756 109.79 117.041C109.462 116.326 108.977 115.807 108.337 115.484C107.696 115.162 106.889 115 105.914 115H103.977V124.72H105.962ZM116.371 115.794H120.159V127.992H116.371V115.794ZM118.269 114.341C117.915 114.341 117.586 114.259 117.284 114.095C116.988 113.931 116.75 113.708 116.57 113.428C116.395 113.147 116.308 112.843 116.308 112.514C116.308 112.186 116.395 111.882 116.57 111.601C116.75 111.321 116.988 111.098 117.284 110.934C117.586 110.77 117.915 110.688 118.269 110.688C118.624 110.688 118.95 110.77 119.246 110.934C119.548 111.098 119.786 111.321 119.961 111.601C120.141 111.882 120.231 112.186 120.231 112.514C120.231 112.843 120.141 113.147 119.961 113.428C119.786 113.708 119.548 113.931 119.246 114.095C118.95 114.259 118.624 114.341 118.269 114.341ZM128.247 132.821C127.103 132.821 126.105 132.656 125.253 132.328C124.406 132.005 123.744 131.547 123.267 130.954C122.796 130.367 122.529 129.684 122.465 128.905H126.158C126.238 129.334 126.468 129.652 126.849 129.858C127.23 130.07 127.728 130.176 128.342 130.176C129.883 130.176 130.653 129.459 130.653 128.024V125.856H130.518C130.274 126.438 129.854 126.912 129.255 127.277C128.662 127.643 127.929 127.825 127.056 127.825C126.129 127.825 125.295 127.608 124.554 127.174C123.818 126.74 123.236 126.078 122.807 125.189C122.378 124.294 122.164 123.182 122.164 121.853C122.164 120.493 122.383 119.347 122.823 118.415C123.267 117.478 123.858 116.782 124.594 116.326C125.335 115.866 126.15 115.635 127.04 115.635C127.934 115.635 128.668 115.85 129.239 116.279C129.811 116.707 130.232 117.24 130.502 117.875H130.613V115.794H134.385V128.048C134.385 129.064 134.129 129.93 133.615 130.645C133.107 131.359 132.389 131.899 131.463 132.265C130.542 132.635 129.47 132.821 128.247 132.821ZM126.047 121.869C126.047 122.87 126.245 123.651 126.643 124.212C127.045 124.773 127.614 125.054 128.35 125.054C128.832 125.054 129.245 124.929 129.589 124.681C129.938 124.426 130.203 124.061 130.383 123.585C130.568 123.103 130.661 122.531 130.661 121.869C130.661 121.202 130.568 120.623 130.383 120.13C130.203 119.638 129.938 119.259 129.589 118.995C129.245 118.73 128.832 118.598 128.35 118.598C127.863 118.598 127.447 118.733 127.103 119.003C126.759 119.273 126.497 119.654 126.317 120.146C126.137 120.633 126.047 121.208 126.047 121.869ZM136.809 115.794H140.597V127.992H136.809V115.794ZM138.707 114.341C138.352 114.341 138.024 114.259 137.722 114.095C137.426 113.931 137.188 113.708 137.008 113.428C136.833 113.147 136.746 112.843 136.746 112.514C136.746 112.186 136.833 111.882 137.008 111.601C137.188 111.321 137.426 111.098 137.722 110.934C138.024 110.77 138.352 110.688 138.707 110.688C139.062 110.688 139.387 110.77 139.684 110.934C139.986 111.098 140.224 111.321 140.399 111.601C140.579 111.882 140.669 112.186 140.669 112.514C140.669 112.843 140.579 113.147 140.399 113.428C140.224 113.708 139.986 113.931 139.684 114.095C139.387 114.259 139.062 114.341 138.707 114.341ZM149.828 118.59H147.621V124.172C147.621 124.554 147.713 124.821 147.898 124.974C148.084 125.123 148.359 125.197 148.724 125.197C149.042 125.197 149.466 125.176 149.995 125.133V128.032C149.391 128.122 148.761 128.167 148.105 128.167C146.728 128.167 145.67 127.873 144.928 127.285C144.187 126.698 143.822 125.806 143.832 124.609V118.59H142.205V115.794H143.832V112.872H147.621V115.794H149.828V118.59ZM151.218 124.601C151.218 123.341 151.633 122.412 152.465 121.814C153.296 121.21 154.386 120.866 155.736 120.781C156.298 120.744 157.055 120.71 158.008 120.678L158.675 120.646L158.667 119.67C158.661 119.246 158.511 118.918 158.214 118.685C157.923 118.447 157.521 118.327 157.007 118.327C156.504 118.327 156.096 118.436 155.784 118.653C155.472 118.865 155.278 119.169 155.204 119.566H151.67C151.729 118.83 151.972 118.166 152.401 117.573C152.835 116.975 153.447 116.504 154.235 116.159C155.03 115.81 155.977 115.635 157.079 115.635C158.1 115.635 159.016 115.794 159.826 116.112C160.636 116.429 161.274 116.895 161.74 117.51C162.211 118.124 162.447 118.86 162.447 119.717V127.992H158.881V126.293H158.786C158.458 126.917 157.994 127.394 157.396 127.722C156.803 128.045 156.083 128.207 155.236 128.207C154.447 128.207 153.751 128.072 153.148 127.802C152.544 127.532 152.07 127.127 151.726 126.587C151.387 126.047 151.218 125.385 151.218 124.601ZM154.815 124.434C154.815 124.837 154.958 125.149 155.244 125.372C155.535 125.589 155.919 125.697 156.396 125.697C156.824 125.697 157.214 125.61 157.563 125.435C157.912 125.26 158.188 125.019 158.389 124.712C158.59 124.4 158.691 124.045 158.691 123.648L158.683 122.87C158.365 122.881 157.965 122.902 157.484 122.934C157.002 122.96 156.634 122.986 156.38 123.013C155.898 123.061 155.517 123.211 155.236 123.466C154.956 123.714 154.815 124.037 154.815 124.434ZM168.559 127.992H164.771V111.728H168.559V127.992ZM84.2837 138.728L88.4847 148.965H88.6753L92.8683 138.728H97.6173V154.992H93.8848V144.883H93.7498L89.7791 154.897H87.3729L83.4022 144.835H83.2672V154.992H79.5426V138.728H84.2837ZM99.4828 151.601C99.4828 150.341 99.8984 149.412 100.73 148.814C101.561 148.21 102.651 147.866 104.001 147.781C104.563 147.744 105.32 147.71 106.273 147.678L106.94 147.646L106.932 146.67C106.927 146.246 106.776 145.918 106.479 145.685C106.188 145.447 105.786 145.327 105.272 145.327C104.769 145.327 104.361 145.436 104.049 145.653C103.737 145.865 103.543 146.169 103.469 146.566H99.9354C99.9937 145.83 100.237 145.166 100.666 144.573C101.1 143.975 101.712 143.504 102.5 143.159C103.295 142.81 104.242 142.635 105.344 142.635C106.365 142.635 107.281 142.794 108.091 143.112C108.901 143.429 109.539 143.895 110.005 144.51C110.476 145.124 110.712 145.86 110.712 146.717V154.992H107.146V153.293H107.051C106.723 153.917 106.259 154.394 105.661 154.722C105.068 155.045 104.348 155.207 103.501 155.207C102.712 155.207 102.016 155.072 101.413 154.802C100.809 154.532 100.335 154.127 99.991 153.587C99.6522 153.047 99.4828 152.385 99.4828 151.601ZM103.08 151.434C103.08 151.837 103.223 152.149 103.509 152.372C103.8 152.589 104.184 152.697 104.661 152.697C105.089 152.697 105.479 152.61 105.828 152.435C106.177 152.26 106.453 152.019 106.654 151.712C106.855 151.4 106.956 151.045 106.956 150.648L106.948 149.87C106.63 149.881 106.23 149.902 105.749 149.934C105.267 149.96 104.899 149.986 104.645 150.013C104.163 150.061 103.782 150.211 103.501 150.466C103.221 150.714 103.08 151.037 103.08 151.434ZM113.036 142.794H116.713V145.002H116.84C117.057 144.224 117.417 143.633 117.92 143.231C118.423 142.829 119.016 142.627 119.699 142.627C120.043 142.627 120.403 142.67 120.779 142.754V146.066C120.609 146.008 120.379 145.96 120.088 145.923C119.797 145.886 119.527 145.868 119.278 145.868C118.812 145.868 118.391 145.971 118.015 146.177C117.645 146.378 117.353 146.667 117.142 147.043C116.93 147.413 116.824 147.837 116.824 148.313V154.992H113.036V142.794ZM122.312 138.728H126.1V147.21H126.274L129.793 142.794H134.097L129.729 148.107L134.287 154.992H129.896L126.91 150.315L126.1 151.291V154.992H122.312V138.728ZM140.626 155.222C139.366 155.222 138.273 154.971 137.347 154.468C136.425 153.96 135.716 153.234 135.218 152.292C134.726 151.35 134.48 150.233 134.48 148.941C134.48 147.691 134.726 146.59 135.218 145.637C135.716 144.684 136.42 143.946 137.331 143.422C138.241 142.897 139.3 142.635 140.507 142.635C141.656 142.635 142.673 142.876 143.557 143.358C144.446 143.835 145.14 144.541 145.637 145.478C146.135 146.41 146.384 147.535 146.384 148.853V149.822H138.22V149.902C138.22 150.415 138.321 150.868 138.522 151.26C138.723 151.646 139.009 151.945 139.38 152.157C139.756 152.369 140.195 152.475 140.698 152.475C141.211 152.475 141.654 152.372 142.024 152.165C142.395 151.959 142.657 151.675 142.81 151.315H146.336C146.183 152.109 145.855 152.8 145.352 153.388C144.854 153.97 144.203 154.423 143.398 154.746C142.593 155.064 141.669 155.222 140.626 155.222ZM142.85 147.591C142.845 147.167 142.744 146.789 142.548 146.455C142.358 146.116 142.09 145.854 141.746 145.669C141.402 145.478 141.016 145.383 140.587 145.383C140.147 145.383 139.75 145.481 139.396 145.677C139.046 145.868 138.766 146.132 138.554 146.471C138.347 146.805 138.236 147.178 138.22 147.591H142.85ZM155.14 145.59H152.932V151.172C152.932 151.554 153.025 151.821 153.21 151.974C153.395 152.123 153.671 152.197 154.036 152.197C154.354 152.197 154.777 152.176 155.307 152.133V155.032C154.703 155.122 154.073 155.167 153.417 155.167C152.04 155.167 150.981 154.873 150.24 154.285C149.499 153.698 149.134 152.806 149.144 151.609V145.59H147.516V142.794H149.144V139.872H152.932V142.794H155.14V145.59ZM157.101 142.794H160.889V154.992H157.101V142.794ZM158.999 141.341C158.644 141.341 158.316 141.259 158.014 141.095C157.718 140.931 157.48 140.708 157.3 140.428C157.125 140.147 157.038 139.843 157.038 139.514C157.038 139.186 157.125 138.882 157.3 138.601C157.48 138.321 157.718 138.098 158.014 137.934C158.316 137.77 158.644 137.688 158.999 137.688C159.354 137.688 159.679 137.77 159.976 137.934C160.278 138.098 160.516 138.321 160.691 138.601C160.871 138.882 160.961 139.186 160.961 139.514C160.961 139.843 160.871 140.147 160.691 140.428C160.516 140.708 160.278 140.931 159.976 141.095C159.679 141.259 159.354 141.341 158.999 141.341ZM167.11 154.992H163.322V142.794H166.928V145.018H167.063C167.333 144.277 167.793 143.694 168.445 143.271C169.096 142.847 169.869 142.635 170.763 142.635C171.605 142.635 172.346 142.826 172.987 143.207C173.628 143.583 174.12 144.118 174.464 144.811C174.814 145.505 174.988 146.307 174.988 147.218V154.992H171.2V147.948C171.206 147.26 171.031 146.723 170.676 146.336C170.321 145.944 169.832 145.748 169.207 145.748C168.789 145.748 168.421 145.838 168.103 146.018C167.791 146.198 167.547 146.46 167.372 146.805C167.198 147.143 167.11 147.548 167.11 148.02V154.992ZM183.036 159.821C181.893 159.821 180.895 159.656 180.042 159.328C179.195 159.005 178.533 158.547 178.057 157.954C177.586 157.367 177.318 156.684 177.255 155.905H180.948C181.027 156.334 181.257 156.652 181.638 156.858C182.02 157.07 182.517 157.176 183.131 157.176C184.672 157.176 185.442 156.459 185.442 155.024V152.856H185.307C185.064 153.438 184.643 153.912 184.045 154.277C183.452 154.643 182.719 154.825 181.845 154.825C180.918 154.825 180.085 154.608 179.343 154.174C178.608 153.74 178.025 153.078 177.596 152.189C177.167 151.294 176.953 150.182 176.953 148.853C176.953 147.493 177.173 146.347 177.612 145.415C178.057 144.478 178.647 143.782 179.383 143.326C180.124 142.866 180.94 142.635 181.829 142.635C182.724 142.635 183.457 142.85 184.029 143.279C184.601 143.707 185.022 144.24 185.292 144.875H185.403V142.794H189.175V155.048C189.175 156.064 188.918 156.93 188.405 157.645C187.896 158.359 187.179 158.899 186.252 159.265C185.331 159.635 184.259 159.821 183.036 159.821ZM180.836 148.869C180.836 149.87 181.035 150.651 181.432 151.212C181.834 151.773 182.404 152.054 183.139 152.054C183.621 152.054 184.034 151.929 184.378 151.681C184.728 151.426 184.992 151.061 185.172 150.585C185.358 150.103 185.45 149.531 185.45 148.869C185.45 148.202 185.358 147.623 185.172 147.13C184.992 146.638 184.728 146.259 184.378 145.995C184.034 145.73 183.621 145.598 183.139 145.598C182.652 145.598 182.237 145.733 181.893 146.003C181.548 146.273 181.286 146.654 181.106 147.146C180.926 147.633 180.836 148.208 180.836 148.869Z" fill="#FF5900"/>
</svg>
