<svg width="386" height="128" viewBox="0 0 386 128" fill="none" xmlns="http://www.w3.org/2000/svg">
<path d="M337.125 14.1172H348.743V95.7815H337.125V14.1172Z" fill="#B7F524"/>
<path d="M314.746 66.6805C314.746 73.2603 313.844 78.8437 312.039 83.4307C310.272 88.0177 307.678 91.4956 304.256 93.8643C300.872 96.1955 296.774 97.361 291.961 97.361C286.735 97.361 282.017 96.0263 277.806 93.3568C273.632 90.6873 270.342 87.0026 267.936 82.3028C265.567 77.6029 264.383 72.3955 264.383 66.6805C264.383 60.8903 265.567 55.6641 267.936 51.0019C270.342 46.3396 273.632 42.6738 277.806 40.0043C282.017 37.3348 286.735 36 291.961 36C296.774 36 300.872 37.1844 304.256 39.5531C307.678 41.8842 310.272 45.3433 312.039 49.9303C313.844 54.5173 314.746 60.1007 314.746 66.6805L308.994 46.3208H316.1V87.0402H308.994L314.746 66.6805ZM293.766 86.4762C297.15 86.4762 300.158 85.6302 302.79 83.9383C305.459 82.2464 307.527 79.9152 308.994 76.9449C310.498 73.937 311.25 70.5156 311.25 66.6805C311.25 62.8454 310.498 59.4428 308.994 56.4725C307.527 53.4646 305.459 51.1147 302.79 49.4227C300.158 47.7308 297.15 46.8848 293.766 46.8848C290.345 46.8848 287.318 47.7308 284.686 49.4227C282.054 51.1147 279.986 53.4646 278.482 56.4725C276.978 59.4428 276.226 62.8454 276.226 66.6805C276.226 70.4404 276.978 73.8431 278.482 76.8885C279.986 79.8964 282.054 82.2464 284.686 83.9383C287.318 85.6302 290.345 86.4762 293.766 86.4762ZM310.798 95.7819V84.0511L313.28 66.6805L310.798 51.2275V37.5791H322.473V95.7819H310.798Z" fill="#B7F524"/>
<path d="M220.273 37.5785H255.917V46.997H220.273V37.5785ZM248.021 97.3604C244.337 97.3604 241.141 96.5896 238.434 95.0481C235.726 93.4689 233.659 91.213 232.23 88.2803C230.801 85.3476 230.087 81.8697 230.087 77.8467V23.1406H241.761V77.2827C241.761 80.3282 242.419 82.5653 243.735 83.9941C245.089 85.4228 247.175 86.1372 249.995 86.1372C251.95 86.1372 253.943 85.8364 255.973 85.2348V96.0068C253.229 96.9092 250.578 97.3604 248.021 97.3604Z" fill="#B7F524"/>
<path d="M197.484 37.5781H209.102V95.7809H197.484V37.5781Z" fill="#B7F524"/>
<path d="M175.098 65.7781C175.098 72.1323 174.195 77.5465 172.391 82.0208C170.624 86.495 168.029 89.8789 164.608 92.1724C161.224 94.4283 157.126 95.5563 152.313 95.5563C147.087 95.5563 142.368 94.2591 138.157 91.6648C133.984 89.0705 130.694 85.4986 128.287 80.9492C125.919 76.3998 124.734 71.3427 124.734 65.7781C124.734 60.2135 125.919 55.1565 128.287 50.6071C130.694 46.0576 133.984 42.4858 138.157 39.8915C142.368 37.2972 147.087 36 152.313 36C157.126 36 161.224 37.1468 164.608 39.4403C168.029 41.6962 170.624 45.0425 172.391 49.4791C174.195 53.9158 175.098 59.3488 175.098 65.7781L169.345 45.9824H176.564V85.5738H169.345L175.098 65.7781ZM154.118 84.7843C157.502 84.7843 160.509 83.9759 163.141 82.3591C165.811 80.7424 167.879 78.4865 169.345 75.5914C170.849 72.6963 171.601 69.4252 171.601 65.7781C171.601 62.0559 170.849 58.766 169.345 55.9085C167.879 53.051 165.811 50.8139 163.141 49.1971C160.509 47.5804 157.502 46.772 154.118 46.772C150.696 46.772 147.67 47.5804 145.038 49.1971C142.406 50.8139 140.338 53.0698 138.834 55.9649C137.33 58.86 136.578 62.1311 136.578 65.7781C136.578 69.4252 137.33 72.6963 138.834 75.5914C140.338 78.4865 142.406 80.7424 145.038 82.3591C147.67 83.9759 150.696 84.7843 154.118 84.7843ZM152.821 121.725C147.068 121.725 142.011 120.541 137.65 118.172C133.288 115.841 129.378 112.288 125.919 107.513L134.66 101.027C137.18 104.561 139.849 107.118 142.669 108.697C145.526 110.276 148.835 111.066 152.595 111.066C158.611 111.066 163.198 109.242 166.356 105.595C169.552 101.986 171.15 96.7594 171.15 89.9165V82.1336L173.744 66.6805L171.15 49.3099V37.5791H182.768V89.9165C182.768 96.4962 181.565 102.174 179.158 106.949C176.752 111.724 173.293 115.371 168.781 117.89C164.307 120.447 158.987 121.725 152.821 121.725Z" fill="#B7F524"/>
<path d="M101.266 37.5781H112.884V95.7809H101.266V37.5781Z" fill="#B7F524"/>
<path d="M101.062 13.8672H112.849V26.2425H101.062V13.8672Z" fill="#B7F524"/>
<path d="M197.703 13.8672H209.489V26.2425H197.703V13.8672Z" fill="#B7F524"/>
<path d="M86.5492 14.1172V95.7815H74.9312V84.0507L77.4127 66.6801L74.9312 51.2271V14.1172H86.5492ZM73.1264 87.0398L78.879 66.6801C78.879 73.2599 77.9767 78.8433 76.1719 83.4303C74.3672 88.0174 71.7541 91.4952 68.3326 93.864C64.9487 96.1951 60.8693 97.3606 56.0942 97.3606C50.7552 97.3606 45.999 96.0259 41.8256 93.3564C37.6521 90.6869 34.381 87.0022 32.0123 82.3024C29.6812 77.6025 28.5156 72.3951 28.5156 66.6801C28.5156 60.8899 29.6812 55.6637 32.0123 51.0015C34.381 46.3392 37.6521 42.6734 41.8256 40.0039C45.999 37.3344 50.7552 35.9996 56.0942 35.9996C60.8693 35.9996 64.9487 37.184 68.3326 39.5527C71.7541 41.8838 74.3672 45.3429 76.1719 49.9299C77.9767 54.517 78.879 60.1003 78.879 66.6801L73.1264 46.3204H80.2326V87.0398H73.1264ZM48.7625 83.9379C51.432 85.6299 54.4587 86.4758 57.8426 86.4758C61.1889 86.4758 64.1968 85.6299 66.8663 83.9379C69.5358 82.246 71.6225 79.9149 73.1264 76.9446C74.6304 73.9367 75.3824 70.5152 75.3824 66.6801C75.3824 62.8451 74.6304 59.4424 73.1264 56.4721C71.6225 53.4642 69.5358 51.1143 66.8663 49.4223C64.1968 47.7304 61.1889 46.8844 57.8426 46.8844C54.4587 46.8844 51.432 47.7304 48.7625 49.4223C46.093 51.1143 44.0251 53.4642 42.5587 56.4721C41.0924 59.4424 40.3592 62.8451 40.3592 66.6801C40.3592 70.44 41.0924 73.8427 42.5587 76.8882C44.0251 79.8961 46.093 82.246 48.7625 83.9379Z" fill="#B7F524"/>
<path d="M57.0873 0C57.0873 0 10.3203 27.784 1.9241 63.3285C-6.47207 98.8731 15.3296 124.289 15.3296 124.289C15.3296 124.289 3.09023 89.8377 13.697 60.1211C24.3037 30.4046 40.0009 14.8026 57.0873 0Z" fill="#B7F524"/>
<path d="M328.858 127.266C328.858 127.266 375.625 99.4816 384.021 63.9371C392.417 28.3926 370.616 2.97617 370.616 2.97617C370.616 2.97617 382.855 37.4279 372.248 67.1445C361.642 96.861 345.944 112.463 328.858 127.266Z" fill="#B7F524"/>
</svg>
