<svg width="386" height="128" viewBox="0 0 386 128" fill="none" xmlns="http://www.w3.org/2000/svg">
<path d="M337.125 14.4141H348.743V96.0784H337.125V14.4141Z" fill="black"/>
<path d="M314.746 66.9774C314.746 73.5571 313.844 79.1405 312.039 83.7276C310.272 88.3146 307.678 91.7925 304.256 94.1612C300.872 96.4923 296.774 97.6579 291.961 97.6579C286.735 97.6579 282.017 96.3231 277.806 93.6536C273.632 90.9841 270.342 87.2995 267.936 82.5996C265.567 77.8998 264.383 72.6924 264.383 66.9774C264.383 61.1872 265.567 55.961 267.936 51.2987C270.342 46.6365 273.632 42.9706 277.806 40.3011C282.017 37.6316 286.735 36.2969 291.961 36.2969C296.774 36.2969 300.872 37.4812 304.256 39.8499C307.678 42.1811 310.272 45.6401 312.039 50.2272C313.844 54.8142 314.746 60.3976 314.746 66.9774L308.994 46.6177H316.1V87.3371H308.994L314.746 66.9774ZM293.766 86.7731C297.15 86.7731 300.158 85.9271 302.79 84.2352C305.459 82.5432 307.527 80.2121 308.994 77.2418C310.498 74.2339 311.25 70.8124 311.25 66.9774C311.25 63.1423 310.498 59.7396 308.994 56.7693C307.527 53.7615 305.459 51.4115 302.79 49.7196C300.158 48.0277 297.15 47.1817 293.766 47.1817C290.345 47.1817 287.318 48.0277 284.686 49.7196C282.054 51.4115 279.986 53.7615 278.482 56.7693C276.978 59.7396 276.226 63.1423 276.226 66.9774C276.226 70.7372 276.978 74.1399 278.482 77.1854C279.986 80.1933 282.054 82.5432 284.686 84.2352C287.318 85.9271 290.345 86.7731 293.766 86.7731ZM310.798 96.0787V84.348L313.28 66.9774L310.798 51.5243V37.876H322.473V96.0787H310.798Z" fill="black"/>
<path d="M220.273 37.8754H255.917V47.2938H220.273V37.8754ZM248.021 97.6573C244.337 97.6573 241.141 96.8865 238.434 95.3449C235.726 93.7658 233.659 91.5099 232.23 88.5772C230.801 85.6445 230.087 82.1666 230.087 78.1436V23.4375H241.761V77.5796C241.761 80.6251 242.419 82.8622 243.735 84.2909C245.089 85.7197 247.175 86.4341 249.995 86.4341C251.95 86.4341 253.943 86.1333 255.973 85.5317V96.3037C253.229 97.2061 250.578 97.6573 248.021 97.6573Z" fill="black"/>
<path d="M197.484 37.875H209.102V96.0777H197.484V37.875Z" fill="black"/>
<path d="M175.098 66.075C175.098 72.4292 174.195 77.8434 172.391 82.3176C170.624 86.7919 168.029 90.1758 164.608 92.4693C161.224 94.7252 157.126 95.8532 152.313 95.8532C147.087 95.8532 142.368 94.556 138.157 91.9617C133.984 89.3674 130.694 85.7955 128.287 81.2461C125.919 76.6966 124.734 71.6396 124.734 66.075C124.734 60.5104 125.919 55.4534 128.287 50.904C130.694 46.3545 133.984 42.7826 138.157 40.1883C142.368 37.594 147.087 36.2969 152.313 36.2969C157.126 36.2969 161.224 37.4436 164.608 39.7372C168.029 41.9931 170.624 45.3394 172.391 49.776C174.195 54.2126 175.098 59.6456 175.098 66.075L169.345 46.2793H176.564V85.8707H169.345L175.098 66.075ZM154.118 85.0811C157.502 85.0811 160.509 84.2728 163.141 82.656C165.811 81.0393 167.879 78.7834 169.345 75.8883C170.849 72.9932 171.601 69.7221 171.601 66.075C171.601 62.3527 170.849 59.0629 169.345 56.2054C167.879 53.3479 165.811 51.1107 163.141 49.494C160.509 47.8773 157.502 47.0689 154.118 47.0689C150.696 47.0689 147.67 47.8773 145.038 49.494C142.406 51.1107 140.338 53.3667 138.834 56.2618C137.33 59.1569 136.578 62.4279 136.578 66.075C136.578 69.7221 137.33 72.9932 138.834 75.8883C140.338 78.7834 142.406 81.0393 145.038 82.656C147.67 84.2728 150.696 85.0811 154.118 85.0811ZM152.821 122.022C147.068 122.022 142.011 120.837 137.65 118.469C133.288 116.138 129.378 112.585 125.919 107.81L134.66 101.324C137.18 104.858 139.849 107.415 142.669 108.994C145.526 110.573 148.835 111.363 152.595 111.363C158.611 111.363 163.198 109.539 166.356 105.892C169.552 102.283 171.15 97.0563 171.15 90.2134V82.4304L173.744 66.9774L171.15 49.6068V37.876H182.768V90.2134C182.768 96.7931 181.565 102.471 179.158 107.246C176.752 112.021 173.293 115.668 168.781 118.187C164.307 120.743 158.987 122.022 152.821 122.022Z" fill="black"/>
<path d="M101.266 37.875H112.884V96.0777H101.266V37.875Z" fill="black"/>
<path d="M101.062 14.168H112.849V26.5433H101.062V14.168Z" fill="black"/>
<path d="M197.703 14.168H209.489V26.5433H197.703V14.168Z" fill="black"/>
<path d="M86.5492 14.4141V96.0784H74.9312V84.3476L77.4127 66.977L74.9312 51.5239V14.4141H86.5492ZM73.1264 87.3367L78.879 66.977C78.879 73.5568 77.9767 79.1402 76.1719 83.7272C74.3672 88.3142 71.7541 91.7921 68.3326 94.1608C64.9487 96.492 60.8693 97.6575 56.0942 97.6575C50.7552 97.6575 45.999 96.3228 41.8256 93.6533C37.6521 90.9837 34.381 87.2991 32.0123 82.5992C29.6812 77.8994 28.5156 72.692 28.5156 66.977C28.5156 61.1868 29.6812 55.9606 32.0123 51.2984C34.381 46.6361 37.6521 42.9702 41.8256 40.3007C45.999 37.6312 50.7552 36.2965 56.0942 36.2965C60.8693 36.2965 64.9487 37.4808 68.3326 39.8496C71.7541 42.1807 74.3672 45.6398 76.1719 50.2268C77.9767 54.8138 78.879 60.3972 78.879 66.977L73.1264 46.6173H80.2326V87.3367H73.1264ZM48.7625 84.2348C51.432 85.9267 54.4587 86.7727 57.8426 86.7727C61.1889 86.7727 64.1968 85.9267 66.8663 84.2348C69.5358 82.5428 71.6225 80.2117 73.1264 77.2414C74.6304 74.2335 75.3824 70.8121 75.3824 66.977C75.3824 63.1419 74.6304 59.7393 73.1264 56.769C71.6225 53.7611 69.5358 51.4111 66.8663 49.7192C64.1968 48.0273 61.1889 47.1813 57.8426 47.1813C54.4587 47.1813 51.432 48.0273 48.7625 49.7192C46.093 51.4111 44.0251 53.7611 42.5587 56.769C41.0924 59.7393 40.3592 63.1419 40.3592 66.977C40.3592 70.7369 41.0924 74.1395 42.5587 77.185C44.0251 80.1929 46.093 82.5428 48.7625 84.2348Z" fill="black"/>
<path d="M57.0873 0.300781C57.0873 0.300781 10.3203 28.0848 1.9241 63.6293C-6.47207 99.1738 15.3296 124.59 15.3296 124.59C15.3296 124.59 3.09023 90.1385 13.697 60.4219C24.3037 30.7054 40.0009 15.1034 57.0873 0.300781Z" fill="black"/>
<path d="M328.858 127.566C328.858 127.566 375.625 99.7824 384.021 64.2379C392.417 28.6933 370.616 3.27695 370.616 3.27695C370.616 3.27695 382.855 37.7287 372.248 67.4453C361.642 97.1618 345.944 112.764 328.858 127.566Z" fill="black"/>
</svg>
