<svg width="151" height="48" viewBox="0 0 151 48" fill="none" xmlns="http://www.w3.org/2000/svg">
<path d="M117.775 25.8327V22.892L106.347 9.09746C105.504 8.09495 104.596 8.26872 104.195 9.5252L102.697 14.4576C102.323 15.6739 102.47 17.0908 103.673 18.2671L112.923 27.2229L117.561 25.8728C117.641 25.8595 117.708 25.8461 117.788 25.8461" fill="#9C9C9C"/>
<path d="M149.055 29.4983L127.335 28.9102C127.081 29.7924 126.653 30.5676 126.078 31.2093C126.078 31.2093 126.105 31.2226 126.118 31.236C126.118 31.236 127.695 33.0138 129.286 34.8049L142.679 37.0907C144.35 37.3714 145.433 36.9303 146.422 35.7005L149.937 31.3429C150.739 30.3538 150.352 29.525 149.069 29.4983" fill="#9C9C9C"/>
<path d="M146.99 20.0435L142.137 17.1562L127.809 28.7186L146.722 22.1421C147.965 21.6609 148.193 20.7252 146.99 20.0435Z" fill="#9C9C9C"/>
<path d="M126.141 20.1305L130.485 8.341C131.033 6.85729 130.779 5.82804 129.603 4.59829L125.794 0.775379C124.871 -0.146933 123.909 0.213972 123.682 1.45709L122.746 6.44291C122.893 6.50975 122.987 6.56322 122.987 6.56322C124.27 7.28502 124.871 8.55487 124.764 10.3327L124.003 21.24C124.27 21.3469 124.51 21.4672 124.751 21.6009L126.128 20.1172L126.141 20.1305Z" fill="#9C9C9C"/>
<path d="M113.577 27.8681L101.841 31.3034C100.612 31.6643 100.385 32.6401 101.347 33.4822L104.929 36.6501C106.186 37.7462 107.322 37.8799 108.752 37.1982L117.774 32.9876V26.625L113.577 27.8547V27.8681Z" fill="#9C9C9C"/>
<path d="M146.129 10.2513L144.699 4.46347C144.391 3.23372 143.429 2.99312 142.547 3.91543L125.438 22.081C125.798 22.375 126.106 22.7092 126.387 23.0835C127.162 24.1261 127.59 25.4761 127.59 26.9598C127.59 27.294 127.563 27.6015 127.523 27.9223L144.873 13.9406C146.182 12.8846 146.503 11.8687 146.116 10.2513" fill="#9C9C9C"/>
<path d="M116.293 6.0163L117.777 20.8668H121.934C122.401 20.8668 122.843 20.9203 123.257 21.0139L123.992 10.2937C124.072 8.957 123.711 7.88765 122.629 7.28615L118.138 4.82665C117.001 4.22514 116.186 4.77318 116.32 6.02966" fill="#9C9C9C"/>
<path d="M118.887 33.0244L128.043 46.2843C128.765 47.3269 129.807 47.3536 130.475 46.1773L132.36 42.7955C133.189 41.2717 132.988 40.1623 131.946 39.0528L125.503 31.7812C124.554 32.5699 123.338 33.0377 121.934 33.0377H118.887V33.0244Z" fill="#9C9C9C"/>
<path d="M6.50387 37.8718C6.50387 37.0831 6.41032 36.495 6.22319 36.1073C5.96922 35.586 5.50137 35.3187 4.85977 35.3187C4.21818 35.3187 3.75036 35.586 3.4964 36.1073C3.2959 36.495 3.20233 37.0831 3.20233 37.8718C3.20233 38.6604 3.2959 39.2352 3.4964 39.6228C3.75036 40.1441 4.21818 40.4115 4.85977 40.4115C5.50137 40.4115 5.96922 40.1575 6.22319 39.6228C6.41032 39.2352 6.50387 38.647 6.50387 37.8718ZM7.46627 41.2001H6.50387V40.3981C6.06278 40.9729 5.43456 41.2669 4.63256 41.2669C3.95087 41.2669 3.41619 41.0664 3.02856 40.6788C2.4939 40.1441 2.22656 39.1951 2.22656 37.8584C2.22656 36.5217 2.4939 35.5727 3.02856 35.038C3.41619 34.6503 3.95087 34.4632 4.63256 34.4632C5.43456 34.4632 6.06276 34.7439 6.49049 35.3187V32.7656H7.45289V41.1867L7.46627 41.2001Z" fill="#9C9C9C"/>
<path d="M12.9618 37.8639C12.9618 36.848 12.788 36.153 12.4405 35.8054C12.1197 35.4846 11.7187 35.3242 11.2375 35.3242C10.7563 35.3242 10.3687 35.4846 10.0345 35.8054C9.67359 36.1663 9.49979 36.848 9.49979 37.8639C9.49979 38.8798 9.67359 39.5615 10.0345 39.909C10.3553 40.2299 10.7563 40.4036 11.2375 40.4036C11.7187 40.4036 12.133 40.2299 12.4672 39.8957C12.8013 39.5615 12.9751 38.8798 12.9751 37.8639M13.9242 37.8639C13.9242 39.0803 13.6568 39.9625 13.1222 40.5106C12.641 41.0185 11.9994 41.2591 11.2375 41.2591C10.4756 41.2591 9.84734 41.0051 9.35278 40.5106C8.81812 39.9625 8.55078 39.0803 8.55078 37.8639C8.55078 36.6475 8.81812 35.7653 9.35278 35.2173C9.84734 34.7094 10.4756 34.4688 11.2375 34.4688C11.9994 34.4688 12.641 34.7227 13.1222 35.2173C13.6568 35.7653 13.9242 36.6475 13.9242 37.8639Z" fill="#9C9C9C"/>
<path d="M20.1237 41.1799H19.1747V37.0897C19.1747 35.9134 18.6267 35.3119 17.544 35.3119C17.0361 35.3119 16.635 35.4589 16.341 35.7664C16.0469 36.0738 15.8999 36.5149 15.8999 37.0763V41.1666H14.9375V34.5233H15.8999V35.2451C16.3677 34.697 16.9826 34.4297 17.7445 34.4297C18.4529 34.4297 19.0143 34.6436 19.4286 35.0579C19.8831 35.5124 20.1103 36.1273 20.1103 36.9159V41.1666L20.1237 41.1799Z" fill="#9C9C9C"/>
<path d="M25.4436 37.6517C25.4436 36.8898 25.35 36.4888 25.1629 36.1012C24.9089 35.5932 24.4545 35.3259 23.7995 35.3259C23.1446 35.3259 22.6901 35.5798 22.4228 36.1012C22.2356 36.4888 22.1421 36.8898 22.1421 37.6517C22.1421 38.4136 22.2356 38.8146 22.4228 39.1889C22.6767 39.7102 23.1446 39.9775 23.7995 39.9775C24.4545 39.9775 24.9089 39.7102 25.1629 39.1889C25.35 38.8146 25.4436 38.4136 25.4436 37.6517ZM26.3926 40.3785C26.3926 41.2206 26.1521 41.9024 25.6575 42.437C25.1629 42.9717 24.4946 43.239 23.6391 43.239C23.1579 43.239 22.7569 43.1722 22.4361 43.0385C22.1153 42.9049 21.7678 42.6643 21.4069 42.3435L22.0351 41.7152C22.3025 41.9558 22.5297 42.1296 22.7168 42.2232C22.9574 42.3301 23.2649 42.3836 23.6124 42.3836C24.2273 42.3836 24.6817 42.1831 25.0025 41.7821C25.2832 41.4211 25.4302 40.9399 25.4302 40.3251V39.9642C24.9891 40.5389 24.3609 40.8196 23.5723 40.8196C22.904 40.8196 22.3693 40.6191 21.9817 40.2181C21.447 39.6835 21.1797 38.9216 21.1797 37.625C21.1797 36.3284 21.447 35.5665 21.9817 35.0318C22.3693 34.6442 22.904 34.457 23.5856 34.457C24.3743 34.457 24.9891 34.7377 25.4302 35.3125V34.5506H26.3793V40.3785H26.3926Z" fill="#9C9C9C"/>
<path d="M31.7031 37.6439C31.7031 36.882 31.6095 36.481 31.4224 36.0933C31.1684 35.5854 30.714 35.3181 30.059 35.3181C29.404 35.3181 28.9496 35.572 28.6822 36.0933C28.4951 36.481 28.4016 36.882 28.4016 37.6439C28.4016 38.4058 28.4951 38.8068 28.6822 39.1811C28.9496 39.7024 29.404 39.9697 30.059 39.9697C30.714 39.9697 31.1684 39.7024 31.4224 39.1811C31.6095 38.8068 31.7031 38.4058 31.7031 37.6439ZM32.6655 40.3707C32.6655 41.2128 32.4249 41.8945 31.9303 42.4292C31.4357 42.9639 30.7674 43.2312 29.912 43.2312C29.4308 43.2312 29.0298 43.1644 28.6956 43.0307C28.3615 42.8971 28.0273 42.6565 27.6664 42.3356L28.2946 41.7074C28.5619 41.948 28.7892 42.1218 28.9763 42.2153C29.2169 42.3223 29.5243 42.3757 29.8718 42.3757C30.4867 42.3757 30.9412 42.1752 31.2486 41.7742C31.5427 41.4133 31.6763 40.9321 31.6763 40.3173V39.9564C31.2219 40.5311 30.607 40.8118 29.8184 40.8118C29.1501 40.8118 28.6154 40.6113 28.2278 40.2103C27.6931 39.6756 27.4258 38.9137 27.4258 37.6172C27.4258 36.3206 27.6931 35.5587 28.2278 35.024C28.6154 34.6364 29.15 34.4492 29.8317 34.4492C30.6204 34.4492 31.2486 34.7299 31.6763 35.3047V34.5428H32.6387V40.3707H32.6655Z" fill="#9C9C9C"/>
<path d="M39.1549 41.1768H38.1925V40.4416C37.7247 40.9897 37.0965 41.257 36.3346 41.257C35.6262 41.257 35.0648 41.0565 34.6371 40.6421C34.196 40.201 33.9688 39.5862 33.9688 38.7842V34.5469H34.9178V38.6371C34.9178 39.8134 35.4524 40.4015 36.5351 40.4015C37.043 40.4015 37.444 40.2545 37.7381 39.9471C38.0321 39.6396 38.1792 39.2119 38.1792 38.6371V34.5469H39.1416V41.1902L39.1549 41.1768Z" fill="#9C9C9C"/>
<path d="M45.9774 41.1867H44.7878L42.6893 37.7916L41.406 39.2753V41.1867H40.457V32.7656H41.406V38.0054L44.3868 34.5568H45.5898L43.3576 37.0965L45.9774 41.1867Z" fill="#9C9C9C"/>
<path d="M54.4284 41.1768H53.466V40.4416C52.9982 40.9897 52.3699 41.257 51.6081 41.257C50.8996 41.257 50.3249 41.0565 49.9105 40.6421C49.4694 40.201 49.2422 39.5862 49.2422 38.7842V34.5469H50.1912V38.6371C50.1912 39.8134 50.7259 40.4015 51.8085 40.4015C52.3165 40.4015 52.7175 40.2545 53.0116 39.9471C53.3056 39.6396 53.4526 39.2119 53.4526 38.6371V34.5469H54.415V41.1902L54.4284 41.1768Z" fill="#9C9C9C"/>
<path d="M60.9228 41.1799H59.9605V37.0897C59.9605 35.9134 59.4258 35.3119 58.3431 35.3119C57.8352 35.3119 57.4342 35.4589 57.1401 35.7664C56.8461 36.0738 56.6991 36.5149 56.6991 37.0763V41.1666H55.75V34.5233H56.6991V35.2451C57.1669 34.697 57.7817 34.4297 58.5436 34.4297C59.252 34.4297 59.8134 34.6436 60.2278 35.0579C60.6823 35.5124 60.9095 36.1273 60.9095 36.9159V41.1666L60.9228 41.1799Z" fill="#9C9C9C"/>
<path d="M62.2254 41.1923H63.1887V34.549H62.2254V41.1923ZM62.1719 33.8539H63.2555V32.7578H62.1719V33.8539Z" fill="#9C9C9C"/>
<path d="M69.534 34.5469L67.1146 41.1768H66.2592L63.8398 34.5469H64.8958L66.6736 39.8669L68.4914 34.5469H69.534Z" fill="#9C9C9C"/>
<path d="M74.1368 37.3971C74.1101 36.9293 74.0433 36.555 73.9364 36.2877C73.6557 35.6193 73.1477 35.2852 72.3858 35.2852C71.6239 35.2852 71.1294 35.6193 70.8487 36.2877C70.7418 36.555 70.6749 36.9293 70.6482 37.3971H74.1368ZM75.0993 38.1323H70.6482C70.6482 38.8541 70.8086 39.4289 71.1561 39.8165C71.4903 40.2175 71.9715 40.418 72.5997 40.418C73.228 40.418 73.8294 40.1641 74.324 39.6561L74.9789 40.2309C74.618 40.5918 74.2839 40.8458 73.9498 40.9928C73.5621 41.1666 73.1076 41.2468 72.573 41.2468C71.6641 41.2468 70.9824 40.9794 70.4878 40.418C69.9665 39.8433 69.6992 38.9878 69.6992 37.8382C69.6992 36.7689 69.9398 35.9268 70.421 35.3253C70.9022 34.7238 71.5705 34.4297 72.3992 34.4297C73.2279 34.4297 73.9096 34.7104 74.3908 35.2985C74.872 35.8733 75.1127 36.6619 75.1127 37.6511V38.1056L75.0993 38.1323Z" fill="#9C9C9C"/>
<path d="M79.5931 35.6121C79.3258 35.4116 79.0184 35.3181 78.6842 35.3181C78.2164 35.3181 77.8288 35.4918 77.5347 35.826C77.2406 36.1602 77.0936 36.5879 77.0936 37.1092V41.1861H76.1445V34.5428H77.0936V35.3448C77.4812 34.7433 78.0961 34.4492 78.9382 34.4492C79.3258 34.4492 79.6734 34.5161 79.9808 34.6765L79.5797 35.6121H79.5931Z" fill="#9C9C9C"/>
<path d="M84.9335 39.229C84.9335 39.8572 84.693 40.3518 84.1984 40.7127C83.7172 41.0736 83.0622 41.2474 82.2469 41.2474C81.0973 41.2474 80.2018 40.9266 79.5469 40.2983L80.1884 39.6567C80.6696 40.1647 81.3514 40.4186 82.2336 40.4186C83.3965 40.4186 83.9846 40.031 83.9846 39.2424C83.9846 38.6542 83.6237 38.3334 82.8885 38.2799L81.8058 38.1864C80.4959 38.0661 79.8543 37.4779 79.8543 36.4086C79.8543 35.8071 80.0815 35.3392 80.5226 34.9917C80.9771 34.6442 81.5518 34.457 82.2736 34.457C83.2761 34.457 84.0514 34.6976 84.6395 35.1788L84.0113 35.8204C83.5568 35.4729 82.982 35.2858 82.2736 35.2858C81.2979 35.2858 80.8033 35.6467 80.8033 36.3819C80.8033 36.9566 81.1909 37.2774 81.9528 37.3576L83.0088 37.4512C84.292 37.5715 84.9335 38.1596 84.9335 39.2424" fill="#9C9C9C"/>
<path d="M85.9793 41.1923H86.9426V34.549H85.9793V41.1923ZM85.9258 33.8539H87.0095V32.7578H85.9258V33.8539Z" fill="#9C9C9C"/>
<path d="M90.9367 41.1923H90.2551C89.7071 41.1923 89.2927 41.0185 88.9986 40.671C88.7179 40.3502 88.5709 39.9358 88.5709 39.4145V35.3376H87.7422V34.5891H88.5709V32.7578H89.5333V34.5891H90.9501V35.3376H89.5333V39.3744C89.5333 40.016 89.8407 40.3502 90.4422 40.3502H90.9501V41.1923H90.9367Z" fill="#9C9C9C"/>
<path d="M96.6417 34.5938L93.9417 41.9856C93.8214 42.3331 93.6609 42.5871 93.4738 42.7609C93.153 43.0683 92.7252 43.2287 92.1906 43.2287H91.7762V42.3732H92.0703C92.3911 42.3732 92.6184 42.3198 92.7654 42.1995C92.8991 42.0792 93.0327 41.8653 93.153 41.5579L93.447 40.7425L91.2148 34.6071H92.2441L93.9283 39.5662L95.5991 34.6071H96.6283L96.6417 34.5938Z" fill="#9C9C9C"/>
<path d="M9.45285 29.0724C8.00926 29.0724 6.87311 28.0565 6.87311 26.7733C6.87311 25.4901 8.00926 24.4742 9.45285 24.4742C10.8964 24.4742 12.0593 25.5034 12.0593 26.7733C12.0593 28.0431 10.8697 29.0724 9.45285 29.0724ZM9.42613 22.4023C6.55232 22.4023 4.22656 24.3673 4.22656 26.7733C4.22656 29.1793 6.65925 31.1443 9.42613 31.1443C12.193 31.1443 14.6792 29.1392 14.6792 26.7733C14.6792 24.4074 12.2732 22.4023 9.42613 22.4023Z" fill="#9C9C9C"/>
<path d="M18.3566 22.4047V20.2393H10.8313V18.7021H16.5388V16.5634H5.36436V14.2509H16.5388V12.1523H2.55742V17.9001C2.55742 18.3679 2.77128 18.6887 3.30595 18.6887H8.03767V20.2259H0.539062V22.3913H18.3433L18.3566 22.4047Z" fill="#9C9C9C"/>
<path d="M53.0816 29.4285C53.1886 28.8403 53.2554 28.1051 53.2554 27.2764V20.0583H54.6054V30.3641H57.0515H57.0649C57.1718 29.7894 57.2386 28.974 57.2386 28.1452V12.1719H54.6054V17.679H53.2554V12.1719H50.6222V21.6356C48.8044 21.9698 47.6949 21.9564 47.3875 21.9564H44.0592V15.3264H48.8712V13.0541H41.2656V23.0926C41.2656 23.9481 41.9339 24.2555 42.3483 24.2555H47.3875C47.7617 24.2555 48.8445 24.2956 50.6222 23.801V29.4285H53.0683H53.0816Z" fill="#9C9C9C"/>
<path d="M78.5168 17.8394V15.6473H76.2444V12.1719H73.4375V22.5178H76.0573C76.1642 21.943 76.2444 21.1544 76.2444 20.3256V17.8394H78.5168Z" fill="#9C9C9C"/>
<path d="M66.0928 15.2569C67.4562 15.2569 68.4319 16.3396 68.4319 17.6095C68.4319 18.8793 67.3759 19.9754 66.1194 19.9754C64.863 19.9754 63.8338 18.9462 63.8338 17.6095C63.8338 16.2728 64.8229 15.2569 66.0928 15.2569ZM71.7067 15.2569V13.0648H67.4962V11.3672H64.7427C64.7427 11.4474 64.7427 13.0648 64.7427 13.0648H60.4922V15.2569H62.1362C61.7085 15.952 61.4412 16.8075 61.4412 17.6095C61.4412 20.0022 63.6066 22.1008 66.0794 22.1008C68.5522 22.1008 70.7577 20.0423 70.7711 17.6095C70.7711 16.8209 70.4903 15.9654 70.0492 15.2569H71.6934H71.7067Z" fill="#9C9C9C"/>
<path d="M81.6875 15.0736H93.0758V20.0728C93.0758 21.7704 92.9822 23.7353 92.8887 24.5373H95.5218C95.7357 23.6551 95.8427 22.3986 95.8828 20.0728V13.8706C95.8828 13.0284 95.2947 12.7344 94.7466 12.7344H81.7009V15.0736H81.6875Z" fill="#9C9C9C"/>
<path d="M91.1426 18.8203H88.349V26.2924H86.0098V18.8203H83.2029V26.2924H79.6875V28.6316H97.3982V26.2924H91.1426V18.8203Z" fill="#9C9C9C"/>
<path d="M76.0745 30.3912C76.1948 29.8431 76.2483 29.0278 76.2483 28.1589V24.1221C76.2082 23.7078 75.9275 23.2266 75.2726 23.2266H62.0664V25.5123H73.4547V30.3778H76.0611L76.0745 30.3912Z" fill="#9C9C9C"/>
<path d="M33.1773 30.3915V25.526H22.6044V23.2402H27.8574V20.9144H20.332V18.642H33.0703C33.204 17.7598 33.1773 17.3187 33.1906 16.9043V14.2978H22.6177V12.1992H34.7679C35.4763 12.1992 35.9842 12.6136 35.9842 13.4824V16.5167C35.9842 16.8509 35.9842 17.2385 35.7704 18.6554H38.1363V20.9278H30.6644V23.2536H34.808C35.6902 23.2536 35.9709 23.6813 35.9709 24.2427V28.1859C35.9709 29.0414 35.9041 29.8568 35.7971 30.4048H33.1773V30.3915Z" fill="#9C9C9C"/>
</svg>
