<svg width="2292" height="187" viewBox="0 0 2292 187" fill="none" xmlns="http://www.w3.org/2000/svg">
<path d="M2192.4 39.3008H2191.9V39.8008V147.001V147.501H2192.4H2222.8H2223.3V147.001V87.2008C2223.3 80.0689 2224.96 74.8131 2228.17 71.3408C2231.53 67.7253 2236.05 65.9008 2241.8 65.9008C2247.56 65.9008 2251.94 67.7252 2255.02 71.3262L2255.02 71.3262L2255.03 71.333C2258.12 74.8053 2259.7 80.0643 2259.7 87.2008V147.001V147.501H2260.2H2290.6H2291.1V147.001V77.6008C2291.1 65.116 2287.88 55.2502 2281.38 48.0668C2274.99 40.8708 2265.91 37.3008 2254.2 37.3008C2250.3 37.3008 2246.78 37.7721 2243.66 38.7224C2240.55 39.6679 2237.71 40.9526 2235.14 42.578C2232.57 44.198 2230.21 46.0879 2228.05 48.2472C2226.38 49.9223 2224.79 51.69 2223.3 53.5504V39.8008V39.3008H2222.8H2192.4Z" stroke="#222222"/>
<path d="M2127.29 70.3543L2127.3 70.3647L2127.31 70.3745C2129.66 72.4576 2131.48 74.9972 2132.79 78.0001C2134.09 80.9992 2134.74 84.2641 2134.74 87.8008V88.2008C2134.74 91.7375 2134.09 95.0024 2132.79 98.0014C2131.48 101.007 2129.65 103.618 2127.3 105.837C2125.09 107.921 2122.41 109.554 2119.27 110.733C2116.13 111.91 2112.72 112.501 2109.04 112.501C2101.69 112.501 2095.61 110.271 2090.78 105.833C2085.96 101.405 2083.54 95.5453 2083.54 88.2008V87.8008C2083.54 84.2641 2084.2 80.9992 2085.5 78.0001C2086.81 74.991 2088.57 72.4484 2090.79 70.3649L2090.79 70.3643C2093.14 68.1424 2095.82 66.4442 2098.82 65.2677C2101.96 64.0914 2105.37 63.5008 2109.04 63.5008C2112.72 63.5008 2116.13 64.0919 2119.27 65.2689C2122.41 66.4456 2125.08 68.1414 2127.29 70.3543ZM2134.34 52.5302C2130.39 48.3681 2125.9 44.8468 2120.89 41.9673C2115.46 38.8446 2108.57 37.3008 2100.24 37.3008C2094.05 37.3008 2088.06 38.4455 2082.27 40.7339C2076.47 42.8914 2071.34 46.1282 2066.9 50.4418C2062.44 54.7594 2058.87 60.0828 2056.19 66.4032C2053.49 72.6101 2052.14 79.7462 2052.14 87.8008V88.2008C2052.14 96.2534 2053.42 103.452 2055.98 109.788L2055.98 109.788L2055.99 109.8C2058.68 115.988 2062.25 121.244 2066.7 125.56C2071.14 129.872 2076.27 133.175 2082.06 135.466L2082.06 135.466L2082.07 135.469C2087.86 137.624 2093.92 138.701 2100.24 138.701C2108.44 138.701 2115.26 137.156 2120.69 134.034C2125.74 131.133 2130.42 127.174 2134.74 122.166V126.001C2134.74 135.516 2132.24 142.633 2127.3 147.443L2127.29 147.447C2122.49 152.249 2114.98 154.701 2104.64 154.701C2097.48 154.701 2091.07 153.839 2085.39 152.123C2079.83 150.4 2074.26 148.014 2068.68 144.962L2068.21 144.704L2067.99 145.193L2057.59 167.993L2057.39 168.422L2057.81 168.643C2064.65 172.264 2072.09 175.011 2080.13 176.887C2088.17 178.897 2096.61 179.901 2105.44 179.901C2115.88 179.901 2124.93 178.764 2132.59 176.48C2140.39 174.193 2146.87 170.487 2152 165.354C2161.2 156.157 2165.74 141.936 2165.74 122.801V39.8008V39.3008H2165.24H2134.84H2134.34V39.8008V52.5302Z" stroke="#222222"/>
<path d="M1998.49 39.3H1997.99V39.8V147V147.5H1998.49H2028.89H2029.39V147V39.8V39.3H2028.89H1998.49ZM1997.69 0.5H1997.19V1V28V28.5H1997.69H2029.69H2030.19V28V1V0.5H2029.69H1997.69Z" stroke="#222222"/>
<path d="M1910.74 145.673L1910.74 145.673L1910.75 145.676C1918.79 148.223 1926.64 149.499 1934.3 149.499C1940.07 149.499 1945.45 148.828 1950.43 147.482L1950.43 147.482L1950.44 147.48C1955.56 145.998 1960.01 143.84 1963.8 140.999C1967.6 138.15 1970.52 134.553 1972.55 130.214C1974.72 125.733 1975.8 120.457 1975.8 114.399V113.999C1975.8 108.998 1974.79 104.708 1972.73 101.149C1970.7 97.6287 1968.13 94.6461 1965.01 92.2055C1961.91 89.7769 1958.4 87.7556 1954.5 86.14C1950.62 84.401 1946.8 82.9286 1943.05 81.7232L1943.05 81.7228C1940.12 80.7912 1937.33 79.8598 1934.67 78.9287C1932.15 78.0015 1929.91 77.0758 1927.92 76.1518C1925.96 75.1022 1924.4 74.0623 1923.24 73.0353C1922.13 71.9161 1921.6 70.7083 1921.6 69.3992V68.9992C1921.6 67.0411 1922.44 65.4539 1924.19 64.2061L1924.2 64.1994L1924.21 64.1924C1925.95 62.8247 1928.62 62.0992 1932.3 62.0992C1936.09 62.0992 1940.5 63.0146 1945.53 64.8684L1945.53 64.8685L1945.54 64.8723C1950.57 66.5939 1955.74 68.9797 1961.05 72.0327L1961.49 72.2862L1961.74 71.841L1973.34 50.841L1973.56 50.4362L1973.18 50.1817C1967.27 46.2882 1960.76 43.2687 1953.65 41.1222C1946.67 38.8415 1939.76 37.6992 1932.9 37.6992C1927.39 37.6992 1922.21 38.4387 1917.35 39.921L1917.35 39.921L1917.35 39.9222C1912.63 41.4069 1908.44 43.6361 1904.78 46.6116L1904.78 46.6115L1904.78 46.6175C1901.26 49.5968 1898.42 53.2515 1896.25 57.5756L1896.25 57.5756L1896.25 57.5814C1894.21 61.7944 1893.2 66.6714 1893.2 72.1992V72.5992C1893.2 77.8574 1894.14 82.341 1896.06 86.0294L1896.06 86.0358L1896.06 86.042C1898.09 89.6946 1900.67 92.8102 1903.78 95.3847L1903.78 95.3848L1903.79 95.393C1906.89 97.8208 1910.33 99.8425 1914.1 101.459L1914.11 101.463L1914.12 101.467C1918 102.937 1921.81 104.208 1925.56 105.278C1928.49 106.211 1931.29 107.078 1933.96 107.878C1936.61 108.673 1938.92 109.531 1940.89 110.452L1940.91 110.461L1940.93 110.467C1943.01 111.25 1944.61 112.217 1945.75 113.353C1946.86 114.465 1947.4 115.741 1947.4 117.199V117.599C1947.4 119.82 1946.43 121.605 1944.42 122.987L1944.41 122.992L1944.41 122.996C1942.54 124.367 1939.47 125.099 1935.1 125.099C1930.1 125.099 1924.7 124.047 1918.87 121.93C1913.19 119.815 1907.43 116.639 1901.59 112.395L1901.17 112.085L1900.88 112.527L1887.88 132.527L1887.63 132.912L1887.99 133.194C1895.23 138.825 1902.82 142.986 1910.74 145.673Z" stroke="#222222"/>
<path d="M1836.88 68.9366L1836.88 68.9424C1840.56 72.8707 1842.89 78.0461 1843.87 84.5008H1799.24C1800.47 77.9172 1802.93 72.676 1806.61 68.7455C1810.5 64.7229 1815.57 62.7008 1821.85 62.7008C1828.12 62.7008 1833.11 64.7868 1836.88 68.9365L1836.88 68.9366ZM1802.26 145.866L1802.27 145.867C1809.26 148.558 1816.79 149.901 1824.85 149.901C1834.64 149.901 1843.18 148.157 1850.46 144.651L1850.46 144.651L1850.47 144.648C1857.73 141.016 1863.92 136.037 1869.03 129.715L1869.34 129.343L1868.98 129.026L1851.58 113.626L1851.24 113.33L1850.91 113.63C1846.67 117.471 1842.58 120.236 1838.65 121.942C1834.72 123.644 1830.25 124.501 1825.25 124.501C1818.54 124.501 1812.92 122.793 1808.35 119.404C1804.06 115.996 1801.16 111.044 1799.67 104.501H1873.65H1874.1L1874.14 104.046C1874.28 102.575 1874.34 101.168 1874.35 99.8257C1874.48 98.4868 1874.55 97.2117 1874.55 96.0008C1874.55 88.3553 1873.47 81.0407 1871.33 74.0591C1869.31 66.9346 1866.08 60.6752 1861.64 55.2877C1857.32 49.761 1851.86 45.3823 1845.27 42.1517C1838.65 38.9114 1830.84 37.3008 1821.85 37.3008C1813.92 37.3008 1806.64 38.7797 1800.04 41.7446L1800.04 41.7446L1800.04 41.7462C1793.58 44.7066 1787.99 48.7455 1783.28 53.862C1778.57 58.977 1774.87 64.9641 1772.18 71.8182L1772.18 71.8182L1772.18 71.8262C1769.62 78.6847 1768.35 85.944 1768.35 93.6008V94.0008C1768.35 102.325 1769.76 109.924 1772.58 116.791L1772.58 116.794C1775.41 123.519 1779.31 129.373 1784.29 134.354L1784.3 134.359C1789.41 139.34 1795.4 143.176 1802.26 145.866Z" stroke="#222222"/>
<path d="M1708.71 114.866L1708.71 114.867C1706.49 117.346 1703.82 119.305 1700.68 120.743C1697.68 122.046 1694.42 122.7 1690.89 122.7C1687.35 122.7 1684.02 122.047 1680.89 120.743C1677.89 119.305 1675.21 117.345 1672.85 114.861C1670.5 112.244 1668.6 109.166 1667.15 105.621C1665.84 101.951 1665.19 97.9449 1665.19 93.6V93.2C1665.19 88.7186 1665.84 84.7147 1667.15 81.1812C1668.6 77.6354 1670.5 74.6255 1672.85 72.1439L1672.85 72.144L1672.86 72.1345C1675.21 69.5171 1677.89 67.5613 1680.88 66.2585L1680.88 66.2586L1680.89 66.2545C1684.03 64.8185 1687.36 64.1 1690.89 64.1C1694.41 64.1 1697.67 64.8185 1700.67 66.2511L1700.68 66.2566L1700.69 66.2615C1703.82 67.5642 1706.49 69.5167 1708.7 72.1238L1708.71 72.1341L1708.72 72.1439C1711.07 74.6203 1712.9 77.6914 1714.21 81.3682L1714.22 81.3785L1714.22 81.3886C1715.66 84.9214 1716.39 88.8562 1716.39 93.2V93.6C1716.39 97.9435 1715.66 101.947 1714.22 105.617L1714.22 105.617L1714.22 105.626C1712.9 109.171 1711.07 112.249 1708.71 114.866ZM1648.92 135.143L1648.93 135.148C1653.51 139.863 1658.76 143.436 1664.7 145.863C1670.62 148.287 1676.75 149.5 1683.09 149.5C1691.15 149.5 1697.85 147.887 1703.15 144.626L1703.15 144.624C1708.11 141.521 1712.39 137.674 1715.99 133.085V147V147.5H1716.49H1746.89H1747.39V147V1V0.5H1746.89H1716.49H1715.99V1V52.4618C1712.51 48.5708 1708.29 45.1418 1703.34 42.1728C1698.04 38.9116 1691.28 37.3 1683.09 37.3C1676.62 37.3 1670.42 38.5124 1664.5 40.9372C1658.56 43.3653 1653.3 47.0071 1648.72 51.8567L1648.72 51.857C1644.27 56.5758 1640.64 62.4312 1637.82 69.4128L1637.82 69.4175C1635.13 76.287 1633.79 84.2177 1633.79 93.2V93.6C1633.79 102.583 1635.13 110.579 1637.82 117.579L1637.82 117.58L1637.82 117.59C1640.64 124.441 1644.34 130.294 1648.92 135.143Z" stroke="#222222"/>
<path d="M1580.66 114.5H1580.16V115V147V147.5H1580.66H1613.06H1613.56V147V115V114.5H1613.06H1580.66Z" stroke="#222222"/>
<path d="M1457.25 0.5H1456.75V1V147V147.5H1457.25H1487.65H1488.15V147V87.2C1488.15 80.0679 1489.8 74.8121 1493.01 71.3397C1496.37 67.7244 1500.9 65.9 1506.65 65.9C1512.4 65.9 1516.78 67.7244 1519.87 71.3254L1519.87 71.3254L1519.87 71.3322C1522.96 74.8045 1524.55 80.0635 1524.55 87.2V147V147.5H1525.05H1555.45H1555.95V147V77.6C1555.95 65.1152 1552.72 55.2495 1546.22 48.0661C1539.84 40.87 1530.75 37.3 1519.05 37.3C1515.14 37.3 1511.62 37.7714 1508.5 38.7217C1505.4 39.6671 1502.55 40.9518 1499.98 42.5773C1497.42 44.1972 1495.05 46.0871 1492.89 48.2464C1491.22 49.9215 1489.64 51.6893 1488.15 53.5496V1V0.5H1487.65H1457.25Z" stroke="#222222"/>
<path d="M1370.99 145.46L1371 145.461C1377.99 148.422 1385.53 149.901 1393.59 149.901C1404.31 149.901 1413.07 148.093 1419.83 144.441L1419.83 144.441L1419.84 144.437C1426.55 140.677 1432.53 135.91 1437.76 130.137L1438.08 129.786L1437.75 129.449L1419.95 111.449L1419.61 111.105L1419.25 111.434C1415.54 114.877 1411.78 117.651 1407.95 119.761C1404.31 121.715 1399.99 122.701 1394.99 122.701C1390.92 122.701 1387.26 121.979 1384 120.546C1380.73 118.974 1377.92 116.881 1375.56 114.266C1373.21 111.652 1371.38 108.576 1370.06 105.035C1368.88 101.492 1368.29 97.6821 1368.29 93.6008V93.2008C1368.29 89.2534 1368.88 85.5775 1370.06 82.1695C1371.38 78.6235 1373.15 75.5456 1375.37 72.9299C1377.72 70.3118 1380.4 68.2877 1383.41 66.8518L1383.41 66.8519L1383.41 66.848C1386.54 65.2855 1390 64.5008 1393.79 64.5008C1399.19 64.5008 1403.63 65.5553 1407.14 67.6309L1407.14 67.631L1407.14 67.6349C1410.83 69.7412 1414.39 72.5765 1417.83 76.1476L1418.2 76.5282L1418.56 76.1413L1437.16 56.1413L1437.47 55.8054L1437.16 55.4653C1432.05 49.8183 1426.13 45.3787 1419.41 42.15C1412.65 38.9079 1404.17 37.3008 1393.99 37.3008C1385.66 37.3008 1378 38.7784 1371 41.7403L1370.99 41.7417C1364.14 44.6997 1358.21 48.7362 1353.23 53.852C1348.25 58.9661 1344.35 64.9538 1341.53 71.8104C1338.7 78.6728 1337.29 85.9377 1337.29 93.6008V94.0008C1337.29 101.664 1338.7 108.929 1341.53 115.791L1341.53 115.794C1344.35 122.517 1348.25 128.437 1353.23 133.55L1353.24 133.554C1358.22 138.535 1364.14 142.503 1370.99 145.46Z" stroke="#222222"/>
<path d="M1259.4 39.3H1258.9V39.8V147V147.5H1259.4H1289.8H1290.3V147V107.4C1290.3 94.5286 1293.15 85.1451 1298.76 79.1435C1304.51 73.1291 1312.37 70.1 1322.4 70.1H1324H1324.5V69.6V37.8V37.3216L1324.02 37.3005C1314.87 36.8968 1307.53 38.9136 1302.08 43.4143C1297.21 47.4279 1293.29 52.639 1290.3 59.0345V39.8V39.3H1289.8H1259.4Z" stroke="#222222"/>
<path d="M1197.53 122.407L1197.52 122.412C1193.37 125.786 1187.76 127.5 1180.64 127.5C1175.78 127.5 1171.89 126.384 1168.93 124.198C1166.01 122.034 1164.54 118.99 1164.54 115V114.6C1164.54 109.953 1166.33 106.447 1169.92 104.013C1173.54 101.556 1178.56 100.3 1185.04 100.3C1188.73 100.3 1192.16 100.696 1195.32 101.485L1195.33 101.488L1195.34 101.49C1198.52 102.126 1201.38 103.005 1203.94 104.125V109.2C1203.94 114.646 1201.81 119.035 1197.53 122.407ZM1156.88 147.474L1156.89 147.477L1156.9 147.479C1161.48 148.827 1166.33 149.5 1171.44 149.5C1178.95 149.5 1185.36 148.292 1190.65 145.854L1190.65 145.854L1190.66 145.849C1195.51 143.483 1199.74 140.423 1203.34 136.671V147V147.5H1203.84H1233.24H1233.74V147V84.7996C1233.74 77.5578 1232.8 71.0382 1230.91 65.2468C1229.02 59.3114 1226.05 54.3072 1221.99 50.2461C1218.06 46.3179 1213.06 43.3481 1207 41.3274C1201.07 39.1701 1193.87 38.0996 1185.44 38.0996C1176.34 38.0996 1168.57 38.9017 1162.12 40.5145C1155.69 42.1209 1149.53 44.1962 1143.64 46.7406L1143.22 46.9215L1143.36 47.3553L1150.96 70.5553L1151.12 71.0524L1151.61 70.8673C1156.53 69.0081 1161.17 67.616 1165.54 66.6887L1165.54 66.6889L1165.55 66.6863C1170.04 65.6304 1175.2 65.0996 1181.04 65.0996C1188.57 65.0996 1194.17 66.7537 1197.91 69.9783C1201.64 73.1934 1203.54 77.9052 1203.54 84.1996V85.3013C1199.85 84.0651 1196.05 83.0677 1192.13 82.3091C1188.09 81.501 1183.33 81.0996 1177.84 81.0996C1171.4 81.0996 1165.49 81.8369 1160.11 83.3163C1154.86 84.6634 1150.27 86.7542 1146.34 89.5946L1146.34 89.5946L1146.34 89.5996C1142.54 92.4473 1139.56 96.0415 1137.39 100.376C1135.21 104.726 1134.14 109.873 1134.14 115.8V116.2C1134.14 121.592 1135.08 126.397 1136.98 130.605L1136.99 130.614L1136.99 130.623C1139.02 134.683 1141.73 138.137 1145.12 140.982C1148.5 143.826 1152.42 145.989 1156.88 147.474Z" stroke="#222222"/>
<path d="M950.998 39.3008H950.498V39.8008V147.001V147.501H950.998H981.398H981.898V147.001V87.2008C981.898 80.0649 983.485 74.8062 986.571 71.3338C989.795 67.7227 994.184 65.9008 999.798 65.9008C1005.41 65.9008 1009.66 67.7224 1012.61 71.3181L1012.61 71.3182L1012.62 71.325C1015.58 74.7977 1017.1 80.06 1017.1 87.2008V147.001V147.501H1017.6H1048H1048.5V147.001V87.2008C1048.5 80.0649 1050.09 74.8062 1053.17 71.3338C1056.4 67.7227 1060.78 65.9008 1066.4 65.9008C1072.01 65.9008 1076.26 67.7224 1079.21 71.3182L1079.22 71.325C1082.18 74.7977 1083.7 80.06 1083.7 87.2008V147.001V147.501H1084.2H1114.6H1115.1V147.001V77.2008C1115.1 64.1904 1111.88 54.2461 1105.36 47.4545C1098.84 40.6681 1089.83 37.3008 1078.4 37.3008C1071 37.3008 1064.39 38.7808 1058.57 41.7535C1052.97 44.4923 1047.88 48.5488 1043.29 53.9107C1040.47 48.6816 1036.52 44.6299 1031.45 41.7667C1026.29 38.7819 1020.13 37.3008 1013 37.3008C1009.09 37.3008 1005.51 37.7723 1002.26 38.7208L1002.26 38.7207L1002.25 38.7224C999.146 39.6679 996.305 40.9526 993.731 42.578C991.166 44.198 988.804 46.0879 986.644 48.2472C984.969 49.9223 983.387 51.69 981.898 53.5504V39.8008V39.3008H981.398H950.998Z" stroke="#222222"/>
<path d="M892.047 0.5H891.547V1V147V147.5H892.047H922.447H922.947V147V1V0.5H922.447H892.047Z" stroke="#222222"/>
<path d="M831.695 39.3H831.195V39.8V147V147.5H831.695H862.095H862.595V147V39.8V39.3H862.095H831.695ZM830.895 0.5H830.395V1V28V28.5H830.895H862.895H863.395V28V1V0.5H862.895H830.895Z" stroke="#222222"/>
<path d="M746.701 39.3H746.201V39.8V147V147.5H746.701H777.101H777.601V147V107.4C777.601 94.5286 780.456 85.1451 786.065 79.1435C791.819 73.1291 799.677 70.1 809.701 70.1H811.301H811.801V69.6V37.8V37.3216L811.323 37.3005C802.173 36.8968 794.838 38.9136 789.383 43.4143C784.518 47.4279 780.593 52.639 777.601 59.0345V39.8V39.3H777.101H746.701Z" stroke="#222222"/>
<path d="M691.277 105.612L691.274 105.62L691.271 105.627C689.959 109.17 688.126 112.246 685.773 114.862C683.419 117.345 680.675 119.305 677.537 120.744C674.539 122.047 671.275 122.701 667.74 122.701C664.208 122.701 660.878 122.048 657.744 120.744C654.743 119.307 652.066 117.349 649.712 114.867C647.49 112.249 645.654 109.17 644.207 105.622C642.898 101.951 642.24 97.9456 642.24 93.6008V93.2008C642.24 88.8533 642.899 84.9147 644.207 81.3789C645.656 77.6938 647.493 74.6159 649.712 72.1353C652.068 69.5179 654.743 67.5621 657.74 66.2593L657.74 66.2594L657.749 66.2553C660.882 64.8193 664.21 64.1008 667.74 64.1008C671.27 64.1008 674.529 64.8193 677.525 66.2518L677.536 66.2574L677.548 66.2623C680.677 67.5661 683.416 69.5217 685.769 72.1353L685.768 72.1354L685.777 72.1446C688.123 74.6211 689.956 77.6922 691.269 81.3689L691.273 81.3793L691.277 81.3894C692.716 84.9221 693.44 88.857 693.44 93.2008V93.6008C693.44 98.08 692.716 102.081 691.277 105.612ZM611.74 39.3008H611.24V39.8008V179.001V179.501H611.74H642.14H642.64V179.001V134.34C646.106 138.229 650.254 141.658 655.078 144.627L655.083 144.63C660.514 147.888 667.344 149.501 675.54 149.501C682.005 149.501 688.202 148.288 694.13 145.864C700.063 143.436 705.255 139.862 709.704 135.144C714.285 130.293 717.917 124.438 720.605 117.586C723.432 110.583 724.84 102.585 724.84 93.6008V93.2008C724.84 84.2182 723.433 76.2864 720.605 69.4158C717.918 62.432 714.286 56.5748 709.701 51.855C705.122 47.0066 699.864 43.3657 693.93 40.938C688.004 38.5137 681.873 37.3008 675.54 37.3008C667.473 37.3008 660.708 38.9816 655.277 42.3758C650.434 45.3562 646.222 49.1371 642.64 53.7154V39.8008V39.3008H642.14H611.74Z" stroke="#222222"/>
<path d="M549.871 122.407L549.865 122.412C545.712 125.786 540.102 127.5 532.98 127.5C528.123 127.5 524.236 126.384 521.278 124.198C518.35 122.034 516.88 118.99 516.88 115V114.6C516.88 109.953 518.675 106.447 522.261 104.013C525.882 101.556 530.904 100.3 537.38 100.3C541.078 100.3 544.504 100.696 547.659 101.485L547.671 101.488L547.682 101.49C550.862 102.126 553.727 103.005 556.28 104.125V109.2C556.28 114.646 554.151 119.035 549.871 122.407ZM509.222 147.474L509.231 147.477L509.239 147.479C513.822 148.827 518.669 149.5 523.78 149.5C531.298 149.5 537.708 148.292 542.99 145.854L542.99 145.854L542.999 145.849C547.857 143.483 552.085 140.423 555.68 136.671V147V147.5H556.18H585.58H586.08V147V84.7996C586.08 77.5578 585.142 71.0382 583.257 65.2468C581.368 59.3114 578.395 54.3072 574.334 50.2461C570.406 46.3179 565.404 43.3481 559.345 41.3274C553.41 39.1701 546.217 38.0996 537.78 38.0996C528.687 38.0996 520.91 38.9017 514.459 40.5145C508.034 42.1209 501.875 44.1962 495.982 46.7406L495.563 46.9215L495.705 47.3553L503.305 70.5553L503.468 71.0524L503.957 70.8673C508.871 69.0081 513.513 67.616 517.884 66.6887L517.884 66.6889L517.895 66.6863C522.383 65.6304 527.543 65.0996 533.38 65.0996C540.917 65.0996 546.513 66.7537 550.254 69.9783C553.983 73.1934 555.88 77.9052 555.88 84.1996V85.3013C552.198 84.0651 548.397 83.0677 544.477 82.3091C540.436 81.501 535.669 81.0996 530.18 81.0996C523.744 81.0996 517.834 81.8369 512.452 83.3163C507.201 84.6634 502.61 86.7542 498.687 89.5946L498.687 89.5946L498.68 89.5996C494.884 92.4473 491.9 96.0415 489.733 100.376C487.558 104.726 486.48 109.873 486.48 115.8V116.2C486.48 121.592 487.424 126.397 489.325 130.605L489.329 130.614L489.333 130.623C491.363 134.683 494.072 138.137 497.459 140.982C500.844 143.826 504.767 145.989 509.222 147.474Z" stroke="#222222"/>
<path d="M405.835 73.4757L404.546 81.065C400.888 74.9093 394.464 71.8695 385.418 71.8695C377.832 71.8695 370.985 74.1133 364.892 78.5967C358.811 83.0709 354.057 89.0329 350.625 96.4689C347.193 103.79 345.478 111.626 345.478 119.969C345.478 128.79 347.886 135.836 352.753 141.051L352.753 141.051L352.761 141.059C357.747 146.161 364.516 148.689 373.008 148.689C378.971 148.689 384.485 147.485 389.543 145.071L389.544 145.071L389.552 145.067C394.315 142.685 398.268 139.433 401.403 135.314C402.869 139.298 405.447 142.433 409.125 144.705L409.131 144.708C413.195 147.147 418.277 148.349 424.348 148.349C433.398 148.349 441.213 145.884 447.769 140.939L447.77 140.938C454.421 135.892 459.404 129.186 462.722 120.836C466.148 112.499 467.858 103.482 467.858 93.7895C467.858 81.8119 465.12 71.2384 459.629 62.0854C454.251 52.8187 446.528 45.6706 436.474 40.6432C426.418 35.5015 414.664 32.9395 401.228 32.9395C383.696 32.9395 367.801 36.9248 353.554 44.9029C339.423 52.7667 328.307 63.7109 320.216 77.7285C312.122 91.6367 308.078 107.194 308.078 124.389C308.078 136.704 310.758 147.503 316.136 156.77C321.512 166.036 329.121 173.186 338.95 178.215L338.952 178.216C348.893 183.243 360.363 185.749 373.348 185.749C387.234 185.749 399.771 183.302 410.949 178.397L411.335 178.228L411.233 177.819L406.643 159.289L406.498 158.702L405.949 158.955C397.184 163.001 387.227 165.029 376.068 165.029C361.763 165.029 350.681 161.258 342.752 153.777C334.942 146.3 331.008 135.792 331.008 122.179C331.008 109.567 333.935 98.035 339.785 87.5735L339.786 87.5715C345.636 76.995 353.677 68.6739 363.912 62.6C374.258 56.5278 385.73 53.4895 398.338 53.4895C413.105 53.4895 424.473 57.1522 432.513 64.4106L432.516 64.4129C440.663 71.6677 444.758 81.7212 444.758 94.6395C444.758 103.652 443.294 111.631 440.377 118.586L440.375 118.59C438.978 121.999 437.277 124.513 435.29 126.173C433.313 127.826 431.032 128.649 428.428 128.649C426.312 128.649 424.811 128.055 423.83 126.948C422.838 125.829 422.298 124.1 422.298 121.669C422.298 120.118 422.464 118.334 422.801 116.314C422.801 116.313 422.801 116.313 422.801 116.312L430.281 73.6458L430.383 73.0595H429.788H406.328H405.906L405.835 73.4757ZM391.087 123.976L391.087 123.976L391.079 123.981C388.439 125.851 385.593 126.779 382.528 126.779C378.894 126.779 376.217 125.683 374.409 123.556C372.577 121.401 371.638 118.522 371.638 114.869C371.638 109.076 373.251 104.085 376.466 99.8728C379.667 95.6777 383.662 93.6095 388.478 93.6095C392.095 93.6095 394.895 94.8085 396.94 97.1763L396.94 97.1764L396.947 97.1849C399.001 99.4552 400.048 102.444 400.048 106.199C400.048 109.86 399.217 113.295 397.554 116.51L397.551 116.516C396.001 119.616 393.847 122.099 391.087 123.976Z" stroke="#222222"/>
<path d="M128.703 39.3004H128.028L128.225 39.9465L161.225 147.947L161.333 148.3H161.703H188.903H189.268L189.379 147.952L209.899 83.6593L230.026 147.95L230.136 148.3H230.503H257.903H258.272L258.381 147.948L291.781 39.9481L291.981 39.3004H291.303H261.103H260.72L260.62 39.6701L243.469 103.208L223.581 39.2519L223.471 38.9004H223.103H196.903H196.534L196.425 39.2528L176.74 102.986L159.986 39.6725L159.888 39.3004H159.503H128.703Z" stroke="#222222"/>
<path d="M60.8516 178.4V178.815L61.2594 178.891C63.4028 179.293 65.4167 179.562 67.3006 179.698C69.326 179.967 71.7442 180.1 74.5516 180.1C85.9582 180.1 94.6372 177.282 100.497 171.562C106.502 165.963 109.452 157.136 109.452 145.2V39.8V39.3H108.952H78.5516H78.0516V39.8V142.8C78.0516 147.282 77.0593 150.309 75.2104 152.034C73.3185 153.8 70.8479 154.7 67.7516 154.7C65.9192 154.7 63.8143 154.504 61.4338 154.107L60.8516 154.01V154.6V178.4ZM77.7516 0.5H77.2516V1V28V28.5H77.7516H109.752H110.252V28V1V0.5H109.752H77.7516Z" stroke="#222222"/>
<path d="M0.5 178.4V178.815L0.907856 178.891C3.05121 179.293 5.0651 179.562 6.94905 179.698C8.97443 179.967 11.3927 180.1 14.2 180.1C25.6067 180.1 34.2856 177.282 40.1451 171.562C46.1507 165.963 49.1 157.136 49.1 145.2V39.8V39.3H48.6H18.2H17.7V39.8V142.8C17.7 147.282 16.7077 150.309 14.8588 152.034C12.9669 153.8 10.4963 154.7 7.4 154.7C5.56769 154.7 3.4627 154.504 1.0822 154.107L0.5 154.01V154.6V178.4ZM17.4 0.5H16.9V1V28V28.5H17.4H49.4H49.9V28V1V0.5H49.4H17.4Z" stroke="#222222"/>
</svg>
