<svg width="126" height="23" viewBox="0 0 126 23" fill="none" xmlns="http://www.w3.org/2000/svg">
<path d="M52.269 10.09C52.3893 6.72154 50.3576 3.92789 47.3501 3.35311C44.5565 2.81844 41.9099 4.43582 40.8673 7.33642C39.5173 11.039 41.3619 15.4768 44.6233 16.359C48.6066 17.4417 52.0953 14.5946 52.2557 10.1034M48.9675 19.4067C50.6116 19.7676 52.2556 20.1285 53.8462 20.476C52.7769 22.6682 52.1354 22.9623 49.7294 22.1736C49.0209 21.9464 48.3259 21.6389 47.6709 21.2914C45.813 20.2755 43.955 19.2329 42.1238 18.1636C36.3628 14.7818 36.3895 4.95713 42.1505 1.61542C47.457 -1.45895 54.0468 2.09663 54.7284 8.40577C55.2497 13.1777 53.6591 16.1452 48.9541 19.42" fill="#9C9C9C"/>
<path d="M96.5214 8.71002C98.4194 8.54961 100.478 9.31152 101.561 7.37333C101.988 6.58469 101.935 4.99404 101.4 4.3257C100.17 2.78851 98.2724 3.32318 96.5348 3.33654V8.71002H96.5214ZM101.681 10.7284C103.325 13.4151 104.942 16.0484 106.573 18.695C104.287 19.4169 103.726 19.1896 102.576 17.3183C101.574 15.6875 100.625 14.0033 99.4219 12.5196C98.8338 11.7978 97.7511 11.477 96.508 10.7418V18.8955H93.7812V0.930511C96.4813 0.903777 99.2347 0.382473 101.895 1.37162C103.606 2.01323 104.635 3.34991 104.822 5.23463C105.022 7.30649 104.461 9.0442 102.59 10.1804C102.282 10.3675 101.975 10.568 101.694 10.7418" fill="#9C9C9C"/>
<path d="M7.19993 8.8801H14.2575V10.8851H7.17317V16.3522H14.8456V18.8517H4.36623V10.9653H0.583477C0.543377 10.2435 0.516662 9.69548 0.476562 8.98704C1.77312 8.93357 2.96275 8.88009 4.28604 8.81326V0.886719H14.5382V3.31949H7.18655V8.86672L7.19993 8.8801Z" fill="#9C9C9C"/>
<path d="M125.186 8.87453V10.8796H115.468V16.4134H123.101V18.8729H112.621V0.894531H122.806V3.28718H115.495V8.87453H125.186Z" fill="#9C9C9C"/>
<path d="M61.1836 0.886719H63.8034C63.8034 2.67787 63.7767 4.41556 63.8034 6.15325C63.8301 8.45235 63.7633 10.7515 63.9905 13.0372C64.2445 15.5635 66.1693 16.8868 68.8827 16.6997C71.3823 16.5259 72.9595 14.962 72.9996 12.4624C73.053 8.98702 73.013 5.51164 73.0263 2.03627C73.0263 1.71546 73.0664 1.39466 73.0931 0.953557H75.5392C75.5793 1.22089 75.6596 1.52834 75.6596 1.82241C75.6596 5.40472 75.6997 8.98702 75.6596 12.5693C75.5928 16.6462 72.8259 19.226 68.6288 19.2394C64.1109 19.2528 61.3039 16.8066 61.2237 12.6362C61.1568 8.78653 61.2103 4.95025 61.2103 0.900099" fill="#9C9C9C"/>
<path d="M31.9228 4.52364C30.3723 4.0558 28.942 3.50776 27.4584 3.22705C26.2955 3.01318 25.1059 3.40082 24.6648 4.60383C24.1836 5.90042 25.1727 6.68908 26.135 7.31732C27.1643 7.98566 28.3272 8.4535 29.3029 9.17531C30.3455 9.96395 31.495 10.7927 32.15 11.8888C33.8609 14.6824 32.3104 18.2113 29.1158 18.9331C27.993 19.187 26.7766 19.2138 25.6271 19.0668C22.1117 18.5989 21.577 17.8504 21.8711 14.0275C22.3924 14.4953 22.7667 14.8829 23.1944 15.2171C24.7316 16.4201 26.4158 17.1419 28.3807 16.4201C30.0247 15.8186 30.4391 14.2681 29.2762 12.9848C28.648 12.2898 27.8059 11.7685 27.0039 11.2472C25.988 10.5654 24.8652 10.0308 23.8761 9.32234C21.978 7.95893 21.283 6.1143 21.8711 4.17611C22.5261 2.03741 24.1434 1.02153 26.2286 0.700723C27.0172 0.580421 27.8326 0.60717 28.6212 0.674004C31.6688 0.927974 32.2302 1.64978 31.8827 4.53702" fill="#9C9C9C"/>
<path d="M85.8717 18.9163H83.0781V17.1519C83.0781 12.5136 83.0781 7.87531 83.0781 3.22365C83.0781 1.47705 84.0093 0.706236 85.8717 0.911194V18.903V18.9163Z" fill="#9C9C9C"/>
</svg>
