<svg width="2143" height="115" viewBox="0 0 2143 115" fill="none" xmlns="http://www.w3.org/2000/svg">
<path d="M54.8697 94.56C48.3697 94.56 42.3463 93.3467 36.7996 90.92C31.253 88.4933 26.443 85.2 22.3696 81.04C18.383 76.7933 15.263 71.81 13.0096 66.09C10.7563 60.37 9.62965 54.26 9.62965 47.76V47.5C9.62965 41.0867 10.7563 35.02 13.0096 29.3C15.3496 23.58 18.513 18.5967 22.4996 14.35C26.573 10.0167 31.383 6.63666 36.9297 4.21C42.4763 1.69666 48.543 0.439998 55.1296 0.439998C59.203 0.439998 62.8863 0.786663 66.1797 1.47999C69.473 2.17333 72.5063 3.16999 75.2796 4.46999C78.1396 5.77 80.783 7.33 83.2097 9.14999C85.723 10.8833 88.1497 12.8333 90.4897 15L85.6797 19.94C83.6863 18.0333 81.6063 16.2567 79.4397 14.61C77.273 12.9633 74.933 11.5767 72.4197 10.45C69.993 9.23666 67.3063 8.28333 64.3597 7.59C61.4997 6.89666 58.3797 6.55 54.9997 6.55C49.5397 6.55 44.4697 7.59 39.7896 9.67C35.1097 11.75 31.0363 14.6533 27.5696 18.38C24.1896 22.02 21.503 26.31 19.5096 31.25C17.603 36.19 16.6496 41.52 16.6496 47.24V47.5C16.6496 53.22 17.6463 58.5933 19.6396 63.62C21.633 68.56 24.3196 72.8933 27.6997 76.62C31.1663 80.26 35.2396 83.1633 39.9197 85.33C44.5997 87.41 49.6697 88.45 55.1296 88.45C61.7163 88.45 67.4363 87.2367 72.2896 84.81C77.143 82.3833 81.8663 78.8733 86.4597 74.28L91.0097 78.7C88.583 81.04 86.0697 83.2067 83.4697 85.2C80.9563 87.1067 78.2263 88.7533 75.2796 90.14C72.4197 91.5267 69.2997 92.61 65.9197 93.39C62.5397 94.17 58.8563 94.56 54.8697 94.56ZM108.206 26.7H114.576V45.55C115.876 42.6033 117.523 39.8733 119.516 37.36C121.51 34.8467 123.763 32.7233 126.276 30.99C128.79 29.17 131.52 27.8267 134.466 26.96C137.5 26.0067 140.663 25.5733 143.956 25.66V32.68H143.306C139.493 32.68 135.853 33.4167 132.386 34.89C128.92 36.2767 125.843 38.4 123.156 41.26C120.556 44.0333 118.476 47.5 116.916 51.66C115.356 55.7333 114.576 60.4567 114.576 65.83V93H108.206V26.7ZM210.697 56.73C210.437 53.35 209.744 50.1433 208.617 47.11C207.577 43.99 206.06 41.26 204.067 38.92C202.16 36.4933 199.777 34.5867 196.917 33.2C194.057 31.7267 190.72 30.99 186.907 30.99C183.614 30.99 180.537 31.64 177.677 32.94C174.817 34.24 172.304 36.06 170.137 38.4C168.057 40.6533 166.324 43.3833 164.937 46.59C163.55 49.71 162.727 53.09 162.467 56.73H210.697ZM188.207 94.56C183.874 94.56 179.714 93.7367 175.727 92.09C171.827 90.4433 168.36 88.1033 165.327 85.07C162.38 82.0367 160.04 78.3967 158.307 74.15C156.574 69.9033 155.707 65.18 155.707 59.98V59.72C155.707 54.9533 156.487 50.49 158.047 46.33C159.694 42.0833 161.904 38.4 164.677 35.28C167.537 32.16 170.874 29.69 174.687 27.87C178.5 26.05 182.66 25.14 187.167 25.14C191.847 25.14 196.05 26.05 199.777 27.87C203.504 29.6033 206.667 32.03 209.267 35.15C211.954 38.27 213.99 41.9533 215.377 46.2C216.85 50.36 217.587 54.91 217.587 59.85C217.587 60.4567 217.587 60.9333 217.587 61.28C217.587 61.54 217.544 61.93 217.457 62.45H162.467C162.727 66.61 163.637 70.2933 165.197 73.5C166.757 76.7067 168.707 79.4367 171.047 81.69C173.387 83.9433 176.03 85.6767 178.977 86.89C182.01 88.0167 185.174 88.58 188.467 88.58C193.667 88.58 198.044 87.5833 201.597 85.59C205.237 83.5967 208.444 81.1267 211.217 78.18L215.637 82.08C212.257 85.72 208.4 88.71 204.067 91.05C199.82 93.39 194.534 94.56 188.207 94.56ZM256.715 88.58C260.095 88.58 263.302 88.1033 266.335 87.15C269.368 86.11 272.012 84.7233 274.265 82.99C276.605 81.17 278.425 79.0033 279.725 76.49C281.112 73.9767 281.805 71.2033 281.805 68.17V60.63C279.032 59.9367 275.782 59.2867 272.055 58.68C268.328 57.9867 264.082 57.64 259.315 57.64C252.295 57.64 246.878 59.07 243.065 61.93C239.338 64.7033 237.475 68.43 237.475 73.11V73.37C237.475 75.7967 237.995 77.9633 239.035 79.87C240.075 81.69 241.462 83.25 243.195 84.55C245.015 85.85 247.095 86.8467 249.435 87.54C251.775 88.2333 254.202 88.58 256.715 88.58ZM256.325 94.56C253.205 94.56 250.128 94.1267 247.095 93.26C244.062 92.3933 241.332 91.0933 238.905 89.36C236.478 87.6267 234.485 85.46 232.925 82.86C231.452 80.26 230.715 77.2267 230.715 73.76V73.5C230.715 70.0333 231.408 66.9567 232.795 64.27C234.268 61.5833 236.262 59.33 238.775 57.51C241.288 55.69 244.322 54.3033 247.875 53.35C251.428 52.3967 255.372 51.92 259.705 51.92C264.385 51.92 268.415 52.18 271.795 52.7C275.175 53.22 278.468 53.9133 281.675 54.78V51.92C281.675 45.16 279.725 40.09 275.825 36.71C272.012 33.33 266.682 31.64 259.835 31.64C255.762 31.64 252.035 32.16 248.655 33.2C245.275 34.1533 242.068 35.41 239.035 36.97L236.695 31.38C240.335 29.6467 244.018 28.26 247.745 27.22C251.472 26.18 255.632 25.66 260.225 25.66C269.325 25.66 276.302 28.0867 281.155 32.94C285.662 37.4467 287.915 43.6867 287.915 51.66V93H281.675V81.95C280.548 83.51 279.162 85.07 277.515 86.63C275.955 88.1033 274.135 89.4467 272.055 90.66C269.975 91.7867 267.592 92.6967 264.905 93.39C262.305 94.17 259.445 94.56 256.325 94.56ZM332.923 94.17C330.323 94.17 327.897 93.8233 325.643 93.13C323.39 92.4367 321.397 91.3533 319.663 89.88C318.017 88.32 316.717 86.4133 315.763 84.16C314.81 81.82 314.333 79.09 314.333 75.97V32.55H304.713V26.7H314.333V5.51H320.703V26.7H343.973V32.55H320.703V75.32C320.703 80.0867 321.917 83.4233 324.343 85.33C326.857 87.2367 330.063 88.19 333.963 88.19C335.61 88.19 337.17 88.0167 338.643 87.67C340.117 87.3233 341.807 86.7167 343.713 85.85V91.83C341.98 92.61 340.247 93.1733 338.513 93.52C336.867 93.9533 335.003 94.17 332.923 94.17ZM363.784 26.7H370.154V93H363.784V26.7ZM363.004 0.699995H370.934V9.41H363.004V0.699995ZM388.487 26.7H395.897L420.987 85.85L446.337 26.7H453.487L423.717 93.52H418.257L388.487 26.7ZM521.351 56.73C521.091 53.35 520.398 50.1433 519.271 47.11C518.231 43.99 516.715 41.26 514.721 38.92C512.815 36.4933 510.431 34.5867 507.571 33.2C504.711 31.7267 501.375 30.99 497.561 30.99C494.268 30.99 491.191 31.64 488.331 32.94C485.471 34.24 482.958 36.06 480.791 38.4C478.711 40.6533 476.978 43.3833 475.591 46.59C474.205 49.71 473.381 53.09 473.121 56.73H521.351ZM498.861 94.56C494.528 94.56 490.368 93.7367 486.381 92.09C482.481 90.4433 479.015 88.1033 475.981 85.07C473.035 82.0367 470.695 78.3967 468.961 74.15C467.228 69.9033 466.361 65.18 466.361 59.98V59.72C466.361 54.9533 467.141 50.49 468.701 46.33C470.348 42.0833 472.558 38.4 475.331 35.28C478.191 32.16 481.528 29.69 485.341 27.87C489.155 26.05 493.315 25.14 497.821 25.14C502.501 25.14 506.705 26.05 510.431 27.87C514.158 29.6033 517.321 32.03 519.921 35.15C522.608 38.27 524.645 41.9533 526.031 46.2C527.505 50.36 528.241 54.91 528.241 59.85C528.241 60.4567 528.241 60.9333 528.241 61.28C528.241 61.54 528.198 61.93 528.111 62.45H473.121C473.381 66.61 474.291 70.2933 475.851 73.5C477.411 76.7067 479.361 79.4367 481.701 81.69C484.041 83.9433 486.685 85.6767 489.631 86.89C492.665 88.0167 495.828 88.58 499.121 88.58C504.321 88.58 508.698 87.5833 512.251 85.59C515.891 83.5967 519.098 81.1267 521.871 78.18L526.291 82.08C522.911 85.72 519.055 88.71 514.721 91.05C510.475 93.39 505.188 94.56 498.861 94.56ZM617.524 86.76C623.851 86.76 629.571 85.7633 634.684 83.77C639.797 81.69 644.131 78.9167 647.684 75.45C651.237 71.8967 653.967 67.78 655.874 63.1C657.867 58.3333 658.864 53.22 658.864 47.76V47.5C658.864 42.1267 657.867 37.0567 655.874 32.29C653.967 27.5233 651.237 23.3633 647.684 19.81C644.131 16.2567 639.797 13.44 634.684 11.36C629.571 9.28 623.851 8.24 617.524 8.24H593.994V86.76H617.524ZM587.234 1.99999H617.524C624.631 1.99999 631.131 3.16999 637.024 5.51C643.004 7.76333 648.117 10.9267 652.364 15C656.697 19.0733 660.034 23.8833 662.374 29.43C664.714 34.89 665.884 40.8267 665.884 47.24V47.5C665.884 53.9133 664.714 59.8933 662.374 65.44C660.034 70.9867 656.697 75.7967 652.364 79.87C648.117 83.9433 643.004 87.15 637.024 89.49C631.131 91.83 624.631 93 617.524 93H587.234V1.99999ZM737.933 56.73C737.673 53.35 736.98 50.1433 735.853 47.11C734.813 43.99 733.297 41.26 731.303 38.92C729.397 36.4933 727.013 34.5867 724.153 33.2C721.293 31.7267 717.957 30.99 714.143 30.99C710.85 30.99 707.773 31.64 704.913 32.94C702.053 34.24 699.54 36.06 697.373 38.4C695.293 40.6533 693.56 43.3833 692.173 46.59C690.787 49.71 689.963 53.09 689.703 56.73H737.933ZM715.443 94.56C711.11 94.56 706.95 93.7367 702.963 92.09C699.063 90.4433 695.597 88.1033 692.563 85.07C689.617 82.0367 687.277 78.3967 685.543 74.15C683.81 69.9033 682.943 65.18 682.943 59.98V59.72C682.943 54.9533 683.723 50.49 685.283 46.33C686.93 42.0833 689.14 38.4 691.913 35.28C694.773 32.16 698.11 29.69 701.923 27.87C705.737 26.05 709.897 25.14 714.403 25.14C719.083 25.14 723.287 26.05 727.013 27.87C730.74 29.6033 733.903 32.03 736.503 35.15C739.19 38.27 741.227 41.9533 742.613 46.2C744.087 50.36 744.823 54.91 744.823 59.85C744.823 60.4567 744.823 60.9333 744.823 61.28C744.823 61.54 744.78 61.93 744.693 62.45H689.703C689.963 66.61 690.873 70.2933 692.433 73.5C693.993 76.7067 695.943 79.4367 698.283 81.69C700.623 83.9433 703.267 85.6767 706.213 86.89C709.247 88.0167 712.41 88.58 715.703 88.58C720.903 88.58 725.28 87.5833 728.833 85.59C732.473 83.5967 735.68 81.1267 738.453 78.18L742.873 82.08C739.493 85.72 735.637 88.71 731.303 91.05C727.057 93.39 721.77 94.56 715.443 94.56ZM784.861 94.3C780.008 94.3 775.155 93.4333 770.301 91.7C765.448 89.88 761.245 87.54 757.691 84.68L761.461 79.61C765.101 82.3833 768.915 84.55 772.901 86.11C776.888 87.5833 781.005 88.32 785.251 88.32C789.758 88.32 793.528 87.1933 796.561 84.94C799.681 82.6867 801.241 79.61 801.241 75.71V75.45C801.241 73.5433 800.765 71.8967 799.811 70.51C798.858 69.1233 797.558 67.91 795.911 66.87C794.265 65.83 792.401 64.9633 790.321 64.27C788.241 63.5767 786.031 62.8833 783.691 62.19C781.005 61.41 778.275 60.5867 775.501 59.72C772.815 58.8533 770.388 57.77 768.221 56.47C766.055 55.0833 764.278 53.3933 762.891 51.4C761.591 49.4067 760.941 46.9367 760.941 43.99V43.73C760.941 41.0433 761.461 38.6167 762.501 36.45C763.628 34.1967 765.145 32.2467 767.051 30.6C768.958 28.9533 771.255 27.6967 773.941 26.83C776.628 25.8767 779.575 25.4 782.781 25.4C786.768 25.4 790.841 26.05 795.001 27.35C799.248 28.65 803.018 30.4267 806.311 32.68L802.931 38.01C799.898 36.0167 796.605 34.4133 793.051 33.2C789.585 31.9867 786.075 31.38 782.521 31.38C777.928 31.38 774.245 32.5067 771.471 34.76C768.785 36.9267 767.441 39.6567 767.441 42.95V43.21C767.441 45.03 767.961 46.6333 769.001 48.02C770.041 49.32 771.385 50.4467 773.031 51.4C774.765 52.3533 776.758 53.22 779.011 54C781.265 54.6933 783.561 55.3867 785.901 56.08C788.588 56.86 791.231 57.7267 793.831 58.68C796.431 59.5467 798.771 60.7167 800.851 62.19C802.931 63.5767 804.578 65.2667 805.791 67.26C807.091 69.2533 807.741 71.7233 807.741 74.67V74.93C807.741 77.8767 807.135 80.5633 805.921 82.99C804.795 85.33 803.191 87.3667 801.111 89.1C799.031 90.7467 796.605 92.0467 793.831 93C791.058 93.8667 788.068 94.3 784.861 94.3ZM828.94 26.7H835.31V93H828.94V26.7ZM828.16 0.699995H836.09V9.41H828.16V0.699995ZM888.613 81.95C892.08 81.95 895.46 81.3433 898.753 80.13C902.047 78.9167 904.95 77.2267 907.463 75.06C910.063 72.8067 912.143 70.1633 913.703 67.13C915.263 64.01 916.043 60.5433 916.043 56.73V56.47C916.043 52.6567 915.263 49.19 913.703 46.07C912.143 42.95 910.063 40.3067 907.463 38.14C904.95 35.8867 902.047 34.1967 898.753 33.07C895.46 31.8567 892.08 31.25 888.613 31.25C885.147 31.25 881.853 31.8567 878.733 33.07C875.613 34.1967 872.883 35.8433 870.543 38.01C868.203 40.1767 866.34 42.82 864.953 45.94C863.653 48.9733 863.003 52.44 863.003 56.34V56.6C863.003 60.3267 863.697 63.75 865.083 66.87C866.47 69.99 868.333 72.6767 870.673 74.93C873.013 77.0967 875.743 78.83 878.863 80.13C881.983 81.3433 885.233 81.95 888.613 81.95ZM889.523 114.06C878.343 114.06 868.203 110.68 859.103 103.92L862.873 98.72C870.933 104.96 879.86 108.08 889.653 108.08C893.467 108.08 896.933 107.517 900.053 106.39C903.26 105.35 905.99 103.747 908.243 101.58C910.583 99.4133 912.403 96.7267 913.703 93.52C915.003 90.3133 915.653 86.5867 915.653 82.34V72.72C914.18 74.8 912.533 76.75 910.713 78.57C908.893 80.39 906.857 82.0367 904.603 83.51C902.35 84.8967 899.837 86.0233 897.063 86.89C894.29 87.67 891.257 88.06 887.963 88.06C883.977 88.06 880.077 87.3233 876.263 85.85C872.45 84.3767 869.027 82.2967 865.993 79.61C863.047 76.8367 860.663 73.5433 858.843 69.73C857.023 65.9167 856.113 61.6267 856.113 56.86V56.6C856.113 51.8333 857.023 47.5 858.843 43.6C860.663 39.7 863.047 36.4067 865.993 33.72C869.027 30.9467 872.45 28.8233 876.263 27.35C880.077 25.8767 883.977 25.14 887.963 25.14C891.257 25.14 894.29 25.5733 897.063 26.44C899.923 27.22 902.48 28.3033 904.733 29.69C906.987 30.99 909.023 32.55 910.843 34.37C912.663 36.19 914.267 38.0533 915.653 39.96V26.7H922.023V82.73C922.023 87.5833 921.287 91.8733 919.813 95.6C918.34 99.3267 916.26 102.533 913.573 105.22C910.713 108.08 907.203 110.247 903.043 111.72C898.97 113.28 894.463 114.06 889.523 114.06ZM946.224 26.7H952.594V39.05C954.847 35.15 957.88 31.8567 961.694 29.17C965.507 26.4833 970.447 25.14 976.514 25.14C980.674 25.14 984.4 25.8333 987.694 27.22C990.987 28.52 993.76 30.3833 996.014 32.81C998.354 35.2367 1000.09 38.14 1001.21 41.52C1002.43 44.8133 1003.03 48.4533 1003.03 52.44V93H996.664V53.61C996.664 46.7633 994.844 41.3033 991.204 37.23C987.564 33.07 982.364 30.99 975.604 30.99C972.31 30.99 969.277 31.5967 966.504 32.81C963.73 33.9367 961.304 35.54 959.224 37.62C957.144 39.7 955.497 42.2133 954.284 45.16C953.157 48.02 952.594 51.1833 952.594 54.65V93H946.224V26.7Z" fill="#1C46F5"/>
<path d="M1314.19 61.41L1290.27 8.76L1266.22 61.41H1314.19ZM1287.15 1.34999H1293.65L1336.03 93H1328.62L1317.05 67.52H1263.36L1251.79 93H1244.77L1287.15 1.34999ZM1386.99 52.83C1391.24 52.83 1395.1 52.31 1398.56 51.27C1402.03 50.23 1404.98 48.7567 1407.4 46.85C1409.92 44.8567 1411.87 42.4733 1413.25 39.7C1414.64 36.9267 1415.33 33.85 1415.33 30.47V30.21C1415.33 26.57 1414.64 23.4067 1413.25 20.72C1411.95 17.9467 1410.09 15.65 1407.66 13.83C1405.24 12.01 1402.33 10.6233 1398.95 9.67C1395.57 8.71666 1391.85 8.24 1387.77 8.24H1362.03V52.83H1386.99ZM1355.27 1.99999H1388.29C1393.32 1.99999 1397.87 2.64999 1401.94 3.94999C1406.1 5.16333 1409.66 6.98333 1412.6 9.41C1415.64 11.75 1417.98 14.6533 1419.62 18.12C1421.27 21.5 1422.09 25.4 1422.09 29.82V30.08C1422.09 34.8467 1421.14 39.05 1419.23 42.69C1417.33 46.33 1414.73 49.3633 1411.43 51.79C1408.23 54.2167 1404.46 56.0367 1400.12 57.25C1395.88 58.4633 1391.37 59.07 1386.6 59.07H1362.03V93H1355.27V1.99999ZM1479.55 49.19C1483.36 49.19 1486.87 48.7133 1490.08 47.76C1493.37 46.8067 1496.19 45.4633 1498.53 43.73C1500.87 41.91 1502.69 39.7433 1503.99 37.23C1505.37 34.63 1506.07 31.6833 1506.07 28.39V28.13C1506.07 21.9767 1503.77 17.1233 1499.18 13.57C1494.67 10.0167 1488.26 8.24 1479.94 8.24H1448.87V49.19H1479.55ZM1442.11 1.99999H1480.33C1485.96 1.99999 1490.94 2.82333 1495.28 4.46999C1499.61 6.02999 1503.16 8.19666 1505.94 10.97C1508.1 13.1367 1509.79 15.6933 1511.01 18.64C1512.22 21.5 1512.83 24.5767 1512.83 27.87V28.13C1512.83 31.9433 1512.13 35.3667 1510.75 38.4C1509.45 41.3467 1507.58 43.9033 1505.16 46.07C1502.82 48.2367 1500 50.0133 1496.71 51.4C1493.5 52.7 1489.99 53.61 1486.18 54.13L1516.21 93H1507.63L1478.64 55.3H1478.38H1448.87V93H1442.11V1.99999ZM1536.96 1.99999H1543.72V93H1536.96V1.99999ZM1571.73 1.99999H1578.49V86.76H1631.92V93H1571.73V1.99999ZM1652.22 1.99999H1658.59L1695.12 55.82L1731.65 1.99999H1738.02V93H1731.26V13.96L1695.25 66.35H1694.73L1658.72 13.96V93H1652.22V1.99999ZM1826.7 61.41L1802.78 8.76L1778.73 61.41H1826.7ZM1799.66 1.34999H1806.16L1848.54 93H1841.13L1829.56 67.52H1775.87L1764.3 93H1757.28L1799.66 1.34999ZM1905.22 49.19C1909.04 49.19 1912.55 48.7133 1915.75 47.76C1919.05 46.8067 1921.86 45.4633 1924.2 43.73C1926.54 41.91 1928.36 39.7433 1929.66 37.23C1931.05 34.63 1931.74 31.6833 1931.74 28.39V28.13C1931.74 21.9767 1929.45 17.1233 1924.85 13.57C1920.35 10.0167 1913.93 8.24 1905.61 8.24H1874.54V49.19H1905.22ZM1867.78 1.99999H1906C1911.64 1.99999 1916.62 2.82333 1920.95 4.46999C1925.29 6.02999 1928.84 8.19666 1931.61 10.97C1933.78 13.1367 1935.47 15.6933 1936.68 18.64C1937.9 21.5 1938.5 24.5767 1938.5 27.87V28.13C1938.5 31.9433 1937.81 35.3667 1936.42 38.4C1935.12 41.3467 1933.26 43.9033 1930.83 46.07C1928.49 48.2367 1925.68 50.0133 1922.38 51.4C1919.18 52.7 1915.67 53.61 1911.85 54.13L1941.88 93H1933.3L1904.31 55.3H1904.05H1874.54V93H1867.78V1.99999ZM2002.94 94.56C1996.44 94.56 1990.41 93.3467 1984.87 90.92C1979.32 88.4933 1974.51 85.2 1970.44 81.04C1966.45 76.7933 1963.33 71.81 1961.08 66.09C1958.82 60.37 1957.7 54.26 1957.7 47.76V47.5C1957.7 41.0867 1958.82 35.02 1961.08 29.3C1963.42 23.58 1966.58 18.5967 1970.57 14.35C1974.64 10.0167 1979.45 6.63666 1985 4.21C1990.54 1.69666 1996.61 0.439998 2003.2 0.439998C2007.27 0.439998 2010.95 0.786663 2014.25 1.47999C2017.54 2.17333 2020.57 3.16999 2023.35 4.46999C2026.21 5.77 2028.85 7.33 2031.28 9.14999C2033.79 10.8833 2036.22 12.8333 2038.56 15L2033.75 19.94C2031.75 18.0333 2029.67 16.2567 2027.51 14.61C2025.34 12.9633 2023 11.5767 2020.49 10.45C2018.06 9.23666 2015.37 8.28333 2012.43 7.59C2009.57 6.89666 2006.45 6.55 2003.07 6.55C1997.61 6.55 1992.54 7.59 1987.86 9.67C1983.18 11.75 1979.1 14.6533 1975.64 18.38C1972.26 22.02 1969.57 26.31 1967.58 31.25C1965.67 36.19 1964.72 41.52 1964.72 47.24V47.5C1964.72 53.22 1965.71 58.5933 1967.71 63.62C1969.7 68.56 1972.39 72.8933 1975.77 76.62C1979.23 80.26 1983.31 83.1633 1987.99 85.33C1992.67 87.41 1997.74 88.45 2003.2 88.45C2009.78 88.45 2015.5 87.2367 2020.36 84.81C2025.21 82.3833 2029.93 78.8733 2034.53 74.28L2039.08 78.7C2036.65 81.04 2034.14 83.2067 2031.54 85.2C2029.02 87.1067 2026.29 88.7533 2023.35 90.14C2020.49 91.5267 2017.37 92.61 2013.99 93.39C2010.61 94.17 2006.92 94.56 2002.94 94.56ZM2057.7 1.99999H2064.46V44.12H2122.7V1.99999H2129.46V93H2122.7V50.36H2064.46V93H2057.7V1.99999Z" fill="#1C46F5"/>
<line x1="1208" y1="51.2" x2="1041" y2="51.2" stroke="#1C46F5" stroke-width="2.4"/>
<line x1="1098.99" y1="75.5712" x2="1051.61" y2="28.195" stroke="#1C46F5" stroke-width="2.4"/>
<line x1="1099" y1="28.346" x2="1051.55" y2="75.6427" stroke="#1C46F5" stroke-width="2.4"/>
<line x1="1075.22" y1="86" x2="1075.22" y2="19" stroke="#1C46F5" stroke-width="2.4"/>
</svg>
