<svg width="313" height="113" viewBox="0 0 313 113" fill="none" xmlns="http://www.w3.org/2000/svg">
<path d="M250.402 108.128C247.81 108.128 246.215 106.294 246.215 103.265C246.215 100.236 247.81 98.4023 250.402 98.4023C251.718 98.4023 252.515 98.7212 253.552 99.8771L252.874 100.515C252.077 99.5981 251.439 99.3191 250.442 99.3191C249.365 99.3191 248.488 99.7576 247.93 100.595C247.451 101.272 247.292 102.03 247.292 103.305C247.292 104.58 247.451 105.338 247.93 106.015C248.488 106.852 249.405 107.291 250.442 107.291C251.439 107.291 252.077 107.012 252.874 106.095L253.552 106.733C252.515 107.849 251.718 108.208 250.402 108.208V108.128Z" fill="#FF5900"/>
<path d="M261.844 99.9955C261.285 99.4375 260.847 99.2382 260.049 99.2382C258.414 99.2382 257.497 100.593 257.497 102.108V107.967H256.5V98.4809H257.497V99.7564C258.055 98.8795 259.172 98.3613 260.288 98.3613C261.206 98.3613 261.923 98.6005 262.561 99.2781L261.844 99.9955Z" fill="#FF5900"/>
<path d="M265.035 103.464C265.035 105.856 266.112 107.211 268.146 107.211C269.262 107.211 269.98 106.852 270.778 106.055L271.535 106.653C270.578 107.61 269.701 108.128 268.106 108.128C265.474 108.128 264.078 106.454 264.078 103.265C264.078 100.076 265.514 98.4023 267.866 98.4023C270.219 98.4023 271.655 100.116 271.655 103.026V103.464H265.035ZM270.299 100.874C269.9 99.8771 268.903 99.2792 267.827 99.2792C266.75 99.2792 265.793 99.8771 265.354 100.874C265.115 101.471 265.075 101.751 265.035 102.667H270.618C270.618 101.751 270.538 101.471 270.299 100.874Z" fill="#FF5900"/>
<path d="M280.47 108.007V107.051C279.673 107.848 278.915 108.127 277.559 108.127C276.203 108.127 275.366 107.888 274.768 107.25C274.329 106.811 274.09 106.094 274.09 105.416C274.09 103.663 275.326 102.666 277.4 102.666H280.47V101.59C280.47 100.075 279.713 99.2781 277.798 99.2781C276.443 99.2781 275.765 99.597 275.166 100.474L274.449 99.8361C275.246 98.72 276.243 98.3613 277.798 98.3613C280.311 98.3613 281.467 99.4774 281.467 101.47V107.967H280.47V108.007ZM280.47 103.463H277.519C275.884 103.463 275.087 104.101 275.087 105.377C275.087 106.652 275.844 107.21 277.559 107.21C278.436 107.21 279.234 107.13 279.912 106.493C280.271 106.174 280.43 105.576 280.43 104.699V103.463H280.47Z" fill="#FF5900"/>
<path d="M287.769 108.002C286.253 108.002 285.496 106.966 285.496 105.531V99.2729H284.18V98.5156H285.496V95.4863H286.493V98.5156H288.646V99.2729H286.493V105.571C286.493 106.567 286.931 107.165 287.968 107.165H288.646V108.042H287.769V108.002Z" fill="#FF5900"/>
<path d="M291.562 95.2102V93.9746H292.799V95.2102H291.562ZM291.682 108.005V98.5185H292.679V108.005H291.682Z" fill="#FF5900"/>
<path d="M299.333 108H298.337L294.867 98.5137H295.984L298.855 106.844L301.726 98.5137H302.843L299.373 108H299.333Z" fill="#FF5900"/>
<path d="M305.43 103.464C305.43 105.856 306.506 107.211 308.54 107.211C309.657 107.211 310.375 106.852 311.172 106.055L311.93 106.653C310.973 107.61 310.095 108.128 308.5 108.128C305.868 108.128 304.473 106.454 304.473 103.265C304.473 100.076 305.908 98.4023 308.261 98.4023C310.614 98.4023 312.049 100.116 312.049 103.026V103.464H305.43ZM310.694 100.874C310.295 99.8771 309.298 99.2792 308.221 99.2792C307.144 99.2792 306.187 99.8771 305.749 100.874C305.509 101.471 305.47 101.751 305.43 102.667H311.013C311.013 101.751 310.933 101.471 310.694 100.874Z" fill="#FF5900"/>
<path d="M13.4959 108.008V102.109C13.4959 100.276 12.5787 99.2792 10.8639 99.2792C9.14919 99.2792 8.19214 100.316 8.19214 101.95V108.008H7.1952V102.109C7.1952 100.276 6.27803 99.2792 4.56329 99.2792C2.84856 99.2792 1.89147 100.316 1.89147 102.109V108.008H0.894531V98.5219H1.89147V99.638C2.56939 98.8408 3.56636 98.4023 4.72281 98.4023C6.11852 98.4023 7.19521 99.0003 7.79337 100.116C8.51117 99.0003 9.62773 98.4023 11.0234 98.4023C12.0603 98.4023 12.9376 98.7212 13.5358 99.3191C14.1738 99.917 14.5327 100.834 14.5327 101.95V108.008H13.5358H13.4959Z" fill="#FF5900"/>
<path d="M23.7789 108.007V107.051C22.9813 107.848 22.2236 108.127 20.8678 108.127C19.512 108.127 18.6745 107.888 18.0764 107.25C17.6377 106.811 17.3984 106.094 17.3984 105.416C17.3984 103.663 18.6347 102.666 20.7083 102.666H23.7789V101.59C23.7789 100.075 23.0212 99.2781 21.1071 99.2781C19.7512 99.2781 19.0733 99.597 18.4751 100.474L17.7574 99.8361C18.5549 98.72 19.5518 98.3613 21.1071 98.3613C23.6193 98.3613 24.7758 99.4774 24.7758 101.47V107.967H23.7789V108.007ZM23.7789 103.463H20.8279C19.1929 103.463 18.3954 104.101 18.3954 105.377C18.3954 106.652 19.1531 107.21 20.8678 107.21C21.7451 107.21 22.5826 107.13 23.2206 106.493C23.5795 106.174 23.739 105.576 23.739 104.699V103.463H23.7789Z" fill="#FF5900"/>
<path d="M33.91 99.9955C33.3517 99.4375 32.9131 99.2382 32.1155 99.2382C30.4805 99.2382 29.5633 100.593 29.5633 102.108V107.967H28.5664V98.4809H29.5633V99.7564C30.1216 98.8795 31.2382 98.3613 32.3548 98.3613C33.272 98.3613 33.9898 98.6005 34.6278 99.2781L33.91 99.9955Z" fill="#FF5900"/>
<path d="M43.0844 108.005L39.8144 102.783L37.661 105.295V108.005H36.6641V93.9746H37.661V103.86L42.3666 98.5185H43.6426L40.4923 102.066L44.3206 108.005H43.0844Z" fill="#FF5900"/>
<path d="M47.4727 103.464C47.4727 105.856 48.5494 107.211 50.5832 107.211C51.6997 107.211 52.3776 106.852 53.2151 106.055L53.9727 106.653C53.0157 107.61 52.1384 108.128 50.5433 108.128C47.9113 108.128 46.5156 106.454 46.5156 103.265C46.5156 100.076 47.9512 98.4023 50.304 98.4023C52.6568 98.4023 54.0924 100.116 54.0924 103.026V103.464H47.4727ZM52.7365 100.874C52.3377 99.8771 51.3408 99.2792 50.2641 99.2792C49.1874 99.2792 48.2304 99.8771 47.7917 100.874C47.5524 101.471 47.5126 101.751 47.4727 102.667H53.0555C53.0157 101.751 52.9758 101.471 52.7365 100.874Z" fill="#FF5900"/>
<path d="M59.8781 108.002C58.3627 108.002 57.605 106.966 57.605 105.531V99.2729H56.2891V98.5156H57.605V95.4863H58.602V98.5156H60.7554V99.2729H58.602V105.571C58.602 106.567 59.0406 107.165 60.0775 107.165H60.7554V108.042H59.8781V108.002Z" fill="#FF5900"/>
<path d="M63.6602 95.2102V93.9746H64.8964V95.2102H63.6602ZM63.7798 108.005V98.5185H64.7767V108.005H63.7798Z" fill="#FF5900"/>
<path d="M74.91 108.008V102.109C74.91 100.276 73.9928 99.2792 72.2781 99.2792C70.5634 99.2792 69.6063 100.316 69.6063 102.109V108.008H68.6094V98.5219H69.6063V99.638C70.3241 98.8009 71.2812 98.4023 72.3977 98.4023C73.4744 98.4023 74.3119 98.7212 74.91 99.3191C75.5481 99.917 75.907 100.834 75.907 101.95V108.008H74.91Z" fill="#FF5900"/>
<path d="M82.5639 112.63C81.1283 112.63 80.4504 112.271 79.4136 111.354L80.0915 110.677C80.8492 111.354 81.3676 111.713 82.5639 111.713C84.5578 111.713 85.4351 110.278 85.4351 108.405V106.691C84.5977 107.807 83.6805 108.046 82.6038 108.046C81.6069 108.046 80.7694 107.727 80.2909 107.209C79.3338 106.252 79.0547 104.658 79.0547 103.183C79.0547 101.708 79.2939 100.114 80.2909 99.1574C80.7694 98.6791 81.6467 98.3203 82.6038 98.3203C83.6805 98.3203 84.5977 98.5595 85.4351 99.6756V98.4399H86.432V108.484C86.432 110.876 84.9964 112.59 82.5639 112.59V112.63ZM82.7633 99.2371C80.4504 99.2371 80.0915 101.23 80.0915 103.223C80.0915 105.216 80.4504 107.209 82.7633 107.209C85.0762 107.209 85.4351 105.216 85.4351 103.223C85.4351 101.23 85.0762 99.2371 82.7633 99.2371Z" fill="#FF5900"/>
<path d="M239.277 102.973H93.8828V103.531H239.277V102.973Z" fill="#FF5900"/>
<path d="M99.028 40.25L109.529 58.7227L120.031 40.25H123.163V67.4524H119.589V47.3819L110.816 62.8667H108.23L99.4569 47.3819V67.4524H95.8828V40.25H99.015H99.028Z" fill="#FF5900"/>
<path d="M146.297 60.7232H133.209L130.493 67.4524H126.75L137.966 40.25H141.735L152.912 67.4524H149L146.284 60.7232H146.297ZM145.036 57.5665L139.773 44.42L134.47 57.5665H145.036Z" fill="#FF5900"/>
<path d="M168.287 57.7744C167.78 57.8133 167.273 57.8393 166.753 57.8393H160.125V67.4524H156.551V40.25H166.74C173.602 40.25 177.644 43.6795 177.644 49.0447C177.644 52.8769 175.578 55.7348 171.835 57.0599L168.261 57.7744H168.287ZM174.096 49.0447C174.096 45.3813 171.211 43.4457 166.48 43.4457H160.125V54.6566H166.48C171.198 54.6566 174.096 52.721 174.096 49.0576V49.0447Z" fill="#FF5900"/>
<path d="M180.895 52.2934C180.895 44.9537 186.288 39.6016 193.631 39.6016C199.909 39.6016 204.237 43.2389 205.51 48.3313H202.261C201.234 44.9017 198.102 42.5374 193.683 42.5374C188.108 42.5374 184.079 46.6035 184.079 52.2934C184.079 57.9833 188.147 62.0494 193.683 62.0494C198.232 62.0494 201.624 59.3863 202.508 55.9308H205.757C204.691 60.9841 200.052 64.9853 193.631 64.9853C186.301 64.9853 180.895 59.6201 180.895 52.2934Z" fill="#FF5900"/>
<path d="M193.632 65.2062C186.133 65.2062 180.688 59.7762 180.688 52.2935C180.688 44.8109 186.133 39.3809 193.632 39.3809C199.715 39.3809 204.354 42.7844 205.732 48.2664L205.797 48.5393H202.119L202.067 48.3834C201.027 44.9149 197.817 42.7454 193.697 42.7454C188.252 42.7454 184.301 46.7595 184.301 52.2806C184.301 57.8016 188.252 61.8157 193.697 61.8157C197.947 61.8157 201.404 59.4254 202.314 55.853L202.353 55.6841H206.031L205.979 55.9439C204.822 61.4649 199.858 65.1803 193.645 65.1803L193.632 65.2062ZM193.632 39.8096C186.38 39.8096 181.116 45.0578 181.116 52.2935C181.116 59.5293 186.38 64.7775 193.632 64.7775C199.546 64.7775 204.276 61.322 205.485 56.1518H202.678C201.664 59.8151 198.077 62.2704 193.684 62.2704C187.992 62.2704 183.859 58.0744 183.859 52.2935C183.859 46.5127 187.992 42.3167 193.684 42.3167C197.934 42.3167 201.274 44.5251 202.418 48.0976H205.225C203.822 42.9793 199.403 39.8096 193.619 39.8096H193.632Z" fill="#FF5900"/>
<path d="M236.347 40.25V67.4524H232.773V55.1503H216.969V67.4524H213.395V40.25H216.969V51.9026H232.773V40.25H236.347Z" fill="#FF5900"/>
<path d="M192.958 72.2047C191.412 72.2047 189.865 72.0618 188.318 71.763C175.556 69.3597 167.953 57.889 167.641 57.4083L170.552 55.5117C170.617 55.6156 177.7 66.242 188.994 68.3595C195.518 69.5806 202.251 67.7489 209.009 62.9164L211.036 65.7483C205.019 70.0482 198.963 72.2177 192.958 72.2177V72.2047Z" fill="#FF5900"/>
<path d="M128.992 30.3873H115.905L113.188 37.1164H109.445L120.661 9.91406H124.43L135.608 37.1164H131.696L128.979 30.3873H128.992ZM127.732 27.2306L122.468 14.0841L117.165 27.2306H127.732Z" fill="#FF5900"/>
<path d="M148.903 9.91406C155.973 9.91406 160.119 13.6813 160.119 19.3582C160.119 25.0352 155.973 28.8024 148.903 28.8024H142.82V37.1294H139.246V9.92705H148.903V9.91406ZM156.545 19.3582C156.545 15.3182 153.555 13.1487 148.63 13.1487H142.82V25.5808H148.63C153.555 25.5808 156.545 23.4113 156.545 19.3712V19.3582Z" fill="#FF5900"/>
<path d="M196.043 37.1164H192.469V9.91406H196.043V37.1164Z" fill="#FF5900"/>
<path d="M207.012 33.8948H222.829V37.1164H203.438V9.91406H207.012V33.8948Z" fill="#FF5900"/>
<path d="M181.965 37.1164L175.779 27.4384C175.272 27.4774 174.765 27.5034 174.245 27.5034H167.617V37.1164H164.043V9.91406H174.232C181.095 9.91406 185.137 13.3436 185.137 18.7087C185.137 22.541 183.07 25.3989 179.327 26.7239L186.163 37.1164H181.952H181.965ZM181.588 18.7087C181.588 15.0454 178.703 13.1098 173.972 13.1098H167.617V24.3207H173.972C178.69 24.3207 181.588 22.3851 181.588 18.7217V18.7087Z" fill="#FF5900"/>
<path d="M223.16 0.986328V14.5649" stroke="#FF5900" stroke-width="2.089"/>
<path d="M216.371 7.77539L229.95 7.77539" stroke="#FF5900" stroke-width="2.089"/>
<path d="M218.359 2.97461L227.961 12.5761" stroke="#FF5900" stroke-width="2.089"/>
<path d="M227.965 2.97461L218.363 12.5761" stroke="#FF5900" stroke-width="2.089"/>
</svg>
