<svg width="116" height="50" viewBox="0 0 116 50" fill="none" xmlns="http://www.w3.org/2000/svg">
<path d="M63.6325 13.8275C63.8464 13.8275 64.0602 13.8275 64.234 13.8007C64.4211 13.774 64.5949 13.7473 64.7553 13.7072C64.9157 13.6671 65.0761 13.6136 65.2232 13.5601C65.3702 13.5067 65.5172 13.4399 65.6509 13.3597V11.5551H64.3811C64.3142 11.5551 64.2474 11.5284 64.2073 11.4883C64.1672 11.4482 64.1405 11.3947 64.1405 11.3413V10.713H66.6534V13.8542C66.4529 14.0013 66.239 14.1349 66.0118 14.2418C65.7846 14.3488 65.544 14.4424 65.3034 14.5226C65.0494 14.6028 64.782 14.6562 64.488 14.683C64.1939 14.7231 63.8865 14.7364 63.5523 14.7364C62.9642 14.7364 62.4162 14.6295 61.9216 14.429C61.4271 14.2285 60.9993 13.9478 60.6384 13.5735C60.2775 13.2126 59.9968 12.7715 59.8097 12.2502C59.6092 11.7423 59.5156 11.1675 59.5156 10.5526C59.5156 9.93772 59.6092 9.36299 59.8097 8.84168C60.0102 8.33374 60.2909 7.89265 60.6518 7.51838C61.0127 7.14411 61.4538 6.86338 61.9751 6.66288C62.483 6.46238 63.0711 6.35547 63.6994 6.35547C64.0202 6.35547 64.3276 6.38219 64.5949 6.42229C64.8756 6.47575 65.1296 6.54254 65.3702 6.62274C65.6108 6.71631 65.8246 6.82331 66.0251 6.94361C66.2256 7.07728 66.4128 7.21088 66.5865 7.37128L66.2791 7.87923C66.2123 7.98616 66.1321 8.03962 66.0251 8.03962C65.9583 8.03962 65.8915 8.0129 65.8246 7.9728C65.7311 7.91934 65.6242 7.85248 65.5039 7.78565C65.3836 7.70545 65.2365 7.63865 65.0761 7.57181C64.9023 7.50498 64.7019 7.43814 64.4746 7.39804C64.2474 7.34457 63.9667 7.31784 63.6593 7.31784C63.2048 7.31784 62.7771 7.39802 62.4162 7.54505C62.0419 7.69209 61.7211 7.90601 61.4672 8.18672C61.1998 8.46742 60.9993 8.80161 60.8657 9.20261C60.7186 9.60362 60.6518 10.0447 60.6518 10.5393C60.6518 11.0339 60.7186 11.515 60.8657 11.916C61.0127 12.317 61.2132 12.6646 61.4805 12.9453C61.7478 13.226 62.0553 13.4399 62.4295 13.5869C62.7904 13.7339 63.1914 13.8141 63.6325 13.8141" fill="#9C9C9C"/>
<path d="M68.2517 14.6353V8.86086H68.8264C68.9333 8.86086 69.0136 8.88758 69.0537 8.92768C69.0938 8.96778 69.1205 9.04795 69.1339 9.14151L69.2007 10.0371C69.4012 9.63606 69.6418 9.31531 69.9359 9.08808C70.2299 8.86084 70.5641 8.75391 70.9651 8.75391C71.1255 8.75391 71.2725 8.76724 71.3928 8.80734C71.5265 8.84744 71.6468 8.88753 71.7537 8.95436L71.62 9.71628C71.5933 9.80985 71.5398 9.86338 71.4462 9.86338C71.3928 9.86338 71.3126 9.84996 71.2057 9.80986C71.0987 9.76976 70.9383 9.75642 70.7378 9.75642C70.3903 9.75642 70.0963 9.86333 69.8557 10.0638C69.6151 10.2643 69.4145 10.5717 69.2542 10.9594V14.6353H68.2383H68.2517Z" fill="#9C9C9C"/>
<path d="M75.2418 13.9196C75.8165 13.9196 76.2443 13.7325 76.525 13.3449C76.8057 12.9706 76.9527 12.4359 76.9527 11.7408C76.9527 11.0458 76.8057 10.5111 76.525 10.1368C76.2443 9.74916 75.8165 9.56203 75.2418 9.56203C74.9477 9.56203 74.7071 9.61548 74.4933 9.70905C74.2794 9.81598 74.1056 9.94966 73.9586 10.1368C73.8115 10.3239 73.7046 10.5512 73.6378 10.8319C73.571 11.0992 73.5309 11.4067 73.5309 11.7542C73.5309 12.1018 73.571 12.3958 73.6378 12.6765C73.7046 12.9439 73.8115 13.1711 73.9586 13.3583C74.1056 13.5454 74.2794 13.6924 74.4933 13.786C74.7071 13.8796 74.9611 13.933 75.2418 13.933M75.2418 8.77344C75.6561 8.77344 76.0438 8.84024 76.3913 8.98727C76.7255 9.13431 77.0195 9.33482 77.2601 9.58879C77.5007 9.84276 77.6745 10.1636 77.8081 10.5245C77.9418 10.8988 77.9953 11.2997 77.9953 11.7542C77.9953 12.2087 77.9284 12.623 77.8081 12.9839C77.6745 13.3448 77.5007 13.6657 77.2601 13.9196C77.0195 14.1736 76.7388 14.3741 76.3913 14.5212C76.0438 14.6548 75.6695 14.735 75.2418 14.735C74.8141 14.735 74.4398 14.6682 74.0922 14.5212C73.7581 14.3875 73.464 14.187 73.2234 13.9196C72.9828 13.6657 72.7957 13.3448 72.6754 12.9839C72.5417 12.623 72.4883 12.2087 72.4883 11.7542C72.4883 11.2997 72.5551 10.8854 72.6754 10.5245C72.8091 10.1636 72.9828 9.84276 73.2234 9.58879C73.464 9.33482 73.7581 9.13431 74.0922 8.98727C74.4264 8.8536 74.8141 8.77344 75.2418 8.77344Z" fill="#9C9C9C"/>
<path d="M78.5267 8.84932H79.3287C79.4089 8.84932 79.4757 8.87603 79.5292 8.91614C79.5827 8.95624 79.6228 9.00968 79.6361 9.06315L80.7456 12.7792C80.7723 12.9128 80.799 13.0465 80.8258 13.1802C80.8525 13.3005 80.8792 13.4341 80.8926 13.5678C80.9193 13.4341 80.9594 13.3138 80.9995 13.1802C81.0396 13.0465 81.0797 12.9262 81.1198 12.7792L82.3362 9.03639C82.3362 9.03639 82.3896 8.92948 82.4431 8.88938C82.4966 8.84927 82.55 8.83594 82.6169 8.83594H83.058C83.1382 8.83594 83.1916 8.84927 83.2451 8.88938C83.2986 8.92948 83.3253 8.96956 83.352 9.03639L84.5417 12.7792C84.5818 12.9128 84.6218 13.0465 84.6486 13.1668C84.6753 13.3004 84.7154 13.4207 84.7422 13.5544C84.7555 13.4341 84.7823 13.3004 84.8223 13.1668C84.8624 13.0331 84.8892 12.8995 84.9159 12.7792L86.0387 9.06315C86.0387 9.06315 86.0922 8.95624 86.1456 8.91614C86.1991 8.87603 86.2659 8.8627 86.3328 8.8627H87.0947L85.2234 14.6371H84.4214C84.3278 14.6371 84.2476 14.5703 84.2209 14.45L82.9377 10.5336C82.9109 10.44 82.8842 10.3598 82.8575 10.2662C82.8441 10.1726 82.8174 10.0924 82.804 9.99885C82.7906 10.0924 82.7639 10.1726 82.7506 10.2662C82.7372 10.3598 82.7105 10.4533 82.6704 10.5336L81.3738 14.45C81.3337 14.5837 81.2535 14.6371 81.1332 14.6371H80.3713L78.5 8.8627L78.5267 8.84932Z" fill="#9C9C9C"/>
<path d="M89.8431 14.731C89.3886 14.731 89.041 14.6107 88.7871 14.3434C88.5465 14.0894 88.4128 13.7151 88.4128 13.2473V9.70511H87.7178C87.7178 9.70511 87.6109 9.69169 87.5708 9.65159C87.5307 9.61149 87.5039 9.55802 87.5039 9.47781V9.07683L88.4529 8.95657L88.6935 7.16538C88.6935 7.16538 88.7203 7.05846 88.7737 7.01836C88.8138 6.97826 88.8673 6.96484 88.9341 6.96484H89.4421V8.95657H91.0995V9.69173H89.4421V13.1537C89.4421 13.3943 89.4955 13.5815 89.6158 13.7018C89.7361 13.8221 89.8832 13.8756 90.0703 13.8756C90.1772 13.8756 90.2708 13.8621 90.351 13.8354C90.4312 13.8087 90.498 13.7819 90.5515 13.7418C90.6049 13.7017 90.6584 13.675 90.6985 13.6483C90.7386 13.6215 90.7787 13.6082 90.8054 13.6082C90.8589 13.6082 90.9124 13.6349 90.9525 13.7018L91.2466 14.183C91.0728 14.3434 90.8589 14.477 90.6183 14.5706C90.3777 14.6641 90.1238 14.7177 89.8564 14.7177" fill="#9C9C9C"/>
<path d="M92.3884 14.646V6.23828H93.4043V9.63343C93.6582 9.36609 93.9255 9.16563 94.233 9.00522C94.527 8.84482 94.8746 8.76463 95.2756 8.76463C95.5964 8.76463 95.8637 8.81809 96.1043 8.92503C96.3449 9.03196 96.5454 9.17902 96.7058 9.36616C96.8662 9.55329 96.9865 9.79384 97.0667 10.0612C97.1469 10.3285 97.187 10.636 97.187 10.9568V14.6327H96.1711V10.9568C96.1711 10.5157 96.0776 10.1815 95.8771 9.94092C95.6766 9.70032 95.3691 9.57999 94.9548 9.57999C94.6473 9.57999 94.38 9.64679 94.1127 9.79382C93.8453 9.94086 93.6047 10.128 93.3909 10.382V14.6327H92.375L92.3884 14.646Z" fill="#9C9C9C"/>
<path d="M60.059 28.8086V23.903L59.4174 23.8228C59.3372 23.8094 59.2704 23.7694 59.2169 23.7293C59.1634 23.6892 59.1367 23.6357 59.1367 23.5555V23.1411H60.0456V22.5797C60.0456 22.2455 60.0857 21.9514 60.1793 21.6975C60.2729 21.4435 60.4066 21.2297 60.5803 21.0425C60.7541 20.8687 60.9546 20.7351 61.2086 20.6415C61.4492 20.548 61.7298 20.5078 62.0239 20.5078C62.2779 20.5078 62.5185 20.5479 62.7457 20.6281L62.7189 21.1361C62.7189 21.2163 62.6789 21.2564 62.6254 21.2697C62.5586 21.2831 62.4784 21.2965 62.3714 21.2965H62.1977C62.0239 21.2965 61.8635 21.3232 61.7165 21.3633C61.5694 21.4034 61.4491 21.4836 61.3422 21.5905C61.2353 21.6975 61.1551 21.8311 61.1016 21.9915C61.0481 22.1653 61.0214 22.3658 61.0214 22.6064V23.1411H62.6922V23.8763H61.0615V28.8086H60.0456H60.059Z" fill="#9C9C9C"/>
<path d="M63.7438 28.8033V23.0288H64.3186C64.4255 23.0288 64.5057 23.0555 64.5458 23.0957C64.5859 23.1358 64.6127 23.216 64.626 23.3096L64.6929 24.2051C64.8934 23.8041 65.134 23.4833 65.428 23.256C65.7221 23.0288 66.0563 22.9219 66.4573 22.9219C66.6177 22.9219 66.7647 22.9353 66.885 22.9754C67.0187 23.0155 67.1389 23.0556 67.2459 23.1224L67.1122 23.8843C67.0855 23.9779 67.032 24.0313 66.9385 24.0313C66.885 24.0313 66.8048 24.018 66.6978 23.9779C66.5909 23.9378 66.4305 23.9244 66.23 23.9244C65.8825 23.9244 65.5884 24.0314 65.3478 24.2319C65.1073 24.4324 64.9067 24.7398 64.7463 25.1274V28.8033H63.7305H63.7438Z" fill="#9C9C9C"/>
<path d="M70.72 28.0876C71.2948 28.0876 71.7225 27.9005 72.0032 27.5128C72.2839 27.1386 72.4309 26.604 72.4309 25.9089C72.4309 25.2138 72.2839 24.6791 72.0032 24.3048C71.7225 23.9172 71.2948 23.7301 70.72 23.7301C70.4259 23.7301 70.1854 23.7835 69.9715 23.8771C69.7576 23.9707 69.5839 24.1177 69.4368 24.3048C69.2898 24.492 69.1828 24.7192 69.116 24.9999C69.0492 25.2672 69.0091 25.5746 69.0091 25.9222C69.0091 26.2697 69.0492 26.5638 69.116 26.8445C69.1828 27.1118 69.2898 27.3391 69.4368 27.5262C69.5839 27.7134 69.7576 27.8604 69.9715 27.954C70.1854 28.0475 70.4393 28.101 70.72 28.101M70.72 22.9414C71.1477 22.9414 71.522 23.0082 71.8696 23.1552C72.2037 23.3023 72.4978 23.4894 72.7384 23.7568C72.979 24.0107 73.1527 24.3316 73.2864 24.6925C73.4067 25.0667 73.4735 25.4677 73.4735 25.9222C73.4735 26.3767 73.4067 26.7911 73.2864 27.152C73.1661 27.5129 72.979 27.8336 72.7384 28.0876C72.4978 28.3416 72.2171 28.5421 71.8696 28.6891C71.5354 28.8228 71.1477 28.903 70.72 28.903C70.2923 28.903 69.918 28.8362 69.5705 28.6891C69.2363 28.5555 68.9422 28.3549 68.7016 28.0876C68.4611 27.8336 68.274 27.5129 68.1537 27.152C68.02 26.7911 67.9531 26.3767 67.9531 25.9222C67.9531 25.4677 68.02 25.0534 68.1537 24.6925C68.2873 24.3316 68.4611 24.0107 68.7016 23.7568C68.9422 23.5028 69.2363 23.3023 69.5705 23.1552C69.918 23.0216 70.2923 22.9414 70.72 22.9414Z" fill="#9C9C9C"/>
<path d="M74.7617 28.8095V23.035H75.3632C75.5103 23.035 75.6038 23.1018 75.6305 23.2488L75.7107 23.837C75.9246 23.5696 76.1652 23.3558 76.4325 23.1954C76.6999 23.0216 77.0073 22.9414 77.3548 22.9414C77.7425 22.9414 78.0632 23.0483 78.3038 23.2622C78.5444 23.4761 78.7182 23.7702 78.8252 24.1445C78.9054 23.9306 79.0123 23.7568 79.1459 23.6097C79.2796 23.4627 79.4267 23.3291 79.5871 23.2355C79.7475 23.142 79.9212 23.0617 80.1083 23.0216C80.2955 22.9815 80.4826 22.9548 80.6697 22.9548C80.9772 22.9548 81.2445 23.0082 81.4851 23.1018C81.7257 23.1954 81.9262 23.3424 82.0866 23.5295C82.247 23.7167 82.3807 23.9439 82.4609 24.2113C82.5544 24.4786 82.5945 24.7994 82.5945 25.147V28.8228H81.5787V25.147C81.5787 24.6925 81.4851 24.3449 81.2846 24.1177C81.0841 23.8771 80.8034 23.7701 80.4291 23.7701C80.2554 23.7701 80.1083 23.7969 79.9479 23.8637C79.8009 23.9172 79.6673 24.0108 79.547 24.1177C79.4267 24.238 79.3464 24.3717 79.2796 24.5454C79.2128 24.7192 79.186 24.9197 79.186 25.147V28.8228H78.1702V25.147C78.1702 24.6791 78.0766 24.3315 77.8895 24.1043C77.7024 23.8771 77.435 23.7568 77.0741 23.7568C76.8202 23.7568 76.5929 23.8236 76.3791 23.9573C76.1652 24.091 75.9647 24.2781 75.7909 24.5053V28.8095H74.7751H74.7617Z" fill="#9C9C9C"/>
<path d="M61.2205 38.397H61.6348C61.7819 38.397 61.8888 38.3837 61.9823 38.3436C62.0625 38.3035 62.1428 38.25 62.223 38.1565L64.9364 35.0821C65.0166 34.9885 65.0968 34.9217 65.177 34.8816C65.2572 34.8415 65.3507 34.8281 65.471 34.8281H66.4067L63.2923 38.3436C63.2121 38.4372 63.1319 38.504 63.065 38.5708C62.9982 38.6377 62.918 38.6777 62.8378 38.7178C62.9448 38.7579 63.0383 38.798 63.1185 38.8649C63.1987 38.9317 63.2789 39.0253 63.3725 39.1188L66.6205 42.9952H65.6581C65.5913 42.9952 65.5245 42.9952 65.471 42.9819C65.4176 42.9819 65.3775 42.9552 65.3374 42.9418C65.2973 42.9284 65.2705 42.9017 65.2438 42.8616C65.217 42.8215 65.177 42.7948 65.1502 42.768L62.3299 39.5199C62.3299 39.5199 62.2497 39.4397 62.2096 39.3996C62.1695 39.3728 62.1294 39.3461 62.0893 39.3194C62.0358 39.2926 61.9824 39.2793 61.9289 39.2659C61.8621 39.2659 61.7952 39.2525 61.7017 39.2525H61.1937V42.9952H60.0977V34.8281H61.1937V38.4104L61.2205 38.397Z" fill="#9C9C9C"/>
<path d="M67.654 42.9758V37.2013H68.2555C68.4025 37.2013 68.4961 37.2682 68.5362 37.4152L68.6164 38.0434C68.8703 37.7627 69.151 37.5355 69.4585 37.3751C69.7659 37.2013 70.1268 37.1211 70.5278 37.1211C70.8486 37.1211 71.1159 37.1746 71.3565 37.2815C71.5971 37.3884 71.7976 37.5355 71.958 37.7226C72.1184 37.9098 72.2387 38.1504 72.3189 38.4177C72.3991 38.6851 72.4392 38.9791 72.4392 39.3133V42.9892H71.4233V39.3133C71.4233 38.8722 71.3298 38.538 71.1293 38.2974C70.9288 38.0568 70.6214 37.9365 70.2204 37.9365C69.9129 37.9365 69.6456 38.0033 69.3783 38.1504C69.1109 38.2974 68.8703 38.4845 68.6565 38.7385V42.9892H67.6406L67.654 42.9758Z" fill="#9C9C9C"/>
<path d="M76.3941 42.269C76.9689 42.269 77.3966 42.0819 77.6773 41.6943C77.958 41.32 78.105 40.7853 78.105 40.0902C78.105 39.3952 77.958 38.8605 77.6773 38.4862C77.3966 38.0986 76.9689 37.9114 76.3941 37.9114C76.1001 37.9114 75.8595 37.9649 75.6456 38.0584C75.4317 38.152 75.258 38.2991 75.111 38.4862C74.9639 38.6733 74.857 38.9006 74.7902 39.1679C74.7233 39.4353 74.6832 39.7427 74.6832 40.0902C74.6832 40.4378 74.7233 40.7452 74.7902 41.0125C74.857 41.2799 74.9639 41.5071 75.111 41.6943C75.258 41.8814 75.4317 42.0284 75.6456 42.1219C75.8595 42.2155 76.1134 42.269 76.3941 42.269ZM76.3941 37.1094C76.8085 37.1094 77.1961 37.1763 77.5437 37.3233C77.8778 37.4703 78.1719 37.6708 78.4125 37.9248C78.6531 38.1788 78.8269 38.4995 78.9605 38.8604C79.0942 39.2347 79.1476 39.6358 79.1476 40.0902C79.1476 40.5447 79.0808 40.9591 78.9605 41.32C78.8269 41.6809 78.6531 42.0017 78.4125 42.2557C78.1719 42.5096 77.8912 42.7101 77.5437 42.8572C77.1961 42.9908 76.8219 43.071 76.3941 43.071C75.9664 43.071 75.5922 43.0042 75.2446 42.8572C74.9105 42.7235 74.6164 42.523 74.3758 42.2557C74.1352 42.0017 73.9481 41.6809 73.8278 41.32C73.6941 40.9591 73.6406 40.5447 73.6406 40.0902C73.6406 39.6358 73.7075 39.2213 73.8278 38.8604C73.9614 38.4995 74.1352 38.1788 74.3758 37.9248C74.6164 37.6708 74.9105 37.4703 75.2446 37.3233C75.5788 37.1896 75.9664 37.1094 76.3941 37.1094Z" fill="#9C9C9C"/>
<path d="M79.6931 37.197H80.4951C80.5753 37.197 80.6421 37.2238 80.6956 37.2639C80.749 37.304 80.7891 37.3574 80.8025 37.4109L81.9119 41.1268C81.9387 41.2605 81.9654 41.3941 81.9921 41.5278C82.0188 41.6615 82.0456 41.7818 82.0589 41.9155C82.0857 41.7818 82.1258 41.6615 82.1659 41.5278C82.206 41.3941 82.2461 41.2739 82.2862 41.1268L83.5025 37.3841C83.5025 37.3841 83.556 37.2772 83.6095 37.2371C83.6629 37.197 83.7164 37.1836 83.7832 37.1836H84.2243C84.3045 37.1836 84.358 37.197 84.4115 37.2371C84.4649 37.2772 84.4917 37.3173 84.5184 37.3841L85.708 41.1268C85.7481 41.2605 85.7882 41.3942 85.8149 41.5145C85.8417 41.6482 85.8818 41.7685 85.9085 41.9021C85.9219 41.7818 85.9486 41.6482 85.9887 41.5145C86.0288 41.3808 86.0555 41.2471 86.0823 41.1268L87.2051 37.4109C87.2051 37.4109 87.2585 37.304 87.312 37.2639C87.3655 37.2238 87.4323 37.2104 87.4991 37.2104H88.261L86.3897 42.9848H85.5877C85.4942 42.9848 85.414 42.918 85.3872 42.7977L84.104 38.8812C84.0773 38.801 84.0505 38.7074 84.0238 38.6139C84.0104 38.5203 83.9837 38.4402 83.9704 38.3466C83.957 38.4402 83.9303 38.5203 83.9169 38.6139C83.9035 38.7074 83.8768 38.801 83.8367 38.8812L82.5401 42.7977C82.5 42.9313 82.4198 42.9848 82.3129 42.9848H81.551L79.6797 37.2104L79.6931 37.197Z" fill="#9C9C9C"/>
<path d="M90.3605 34.5859H89.3438V42.9936H90.3605V34.5859Z" fill="#9C9C9C"/>
<path d="M94.5175 37.8579C94.0229 37.8579 93.6353 38.005 93.3546 38.2857C93.0739 38.5664 92.9001 38.9674 92.8333 39.462H95.9744C95.9744 39.2213 95.9477 39.0075 95.8809 38.8204C95.814 38.6199 95.7205 38.4595 95.6002 38.3124C95.4799 38.1654 95.3195 38.0585 95.1457 37.9783C94.9586 37.8981 94.7581 37.8579 94.5308 37.8579M94.5041 37.1094C94.8516 37.1094 95.1724 37.1628 95.4665 37.2832C95.7605 37.4035 96.0145 37.5639 96.2284 37.7911C96.4422 38.005 96.6026 38.2857 96.7229 38.6065C96.8432 38.9273 96.8967 39.2882 96.8967 39.7025C96.8967 39.8629 96.8833 39.9699 96.8432 40.0234C96.8031 40.0769 96.7497 40.1036 96.6427 40.1036H92.7932C92.7932 40.4645 92.8467 40.7853 92.9402 41.0526C93.0338 41.3199 93.1541 41.5472 93.3145 41.7343C93.4749 41.9215 93.662 42.0551 93.8892 42.1353C94.1165 42.2289 94.3571 42.269 94.6244 42.269C94.8784 42.269 95.1056 42.2423 95.2794 42.1755C95.4665 42.122 95.6269 42.0551 95.7605 41.9883C95.8942 41.9215 96.0011 41.8546 96.0947 41.8011C96.1883 41.7477 96.2551 41.7076 96.322 41.7076C96.4022 41.7076 96.469 41.7343 96.5091 41.8011L96.7898 42.1755C96.6695 42.3225 96.5091 42.4561 96.3353 42.5764C96.1616 42.6834 95.9744 42.777 95.7739 42.8572C95.5734 42.924 95.3729 42.9775 95.1591 43.0176C94.9452 43.0577 94.7313 43.071 94.5308 43.071C94.1299 43.071 93.7689 43.0041 93.4214 42.8705C93.0872 42.7368 92.7932 42.5364 92.5526 42.2824C92.312 42.0284 92.1115 41.6942 91.9778 41.32C91.8442 40.9323 91.7773 40.4912 91.7773 39.9967C91.7773 39.5957 91.8442 39.2213 91.9645 38.8604C92.0848 38.5129 92.2719 38.2055 92.4991 37.9515C92.7263 37.6975 93.0204 37.4971 93.3546 37.35C93.6887 37.203 94.063 37.1361 94.4774 37.1361" fill="#9C9C9C"/>
<path d="M100.327 42.2451C100.661 42.2451 100.942 42.1649 101.196 42.0179C101.45 41.8709 101.677 41.6436 101.878 41.3762V38.5826C101.69 38.3286 101.49 38.1548 101.263 38.0613C101.036 37.9543 100.795 37.9143 100.528 37.9143C99.9929 37.9143 99.5786 38.1014 99.2845 38.489C98.9904 38.8767 98.8567 39.4247 98.8567 40.1331C98.8567 40.5074 98.8835 40.8282 98.9503 41.0956C99.0172 41.3629 99.1107 41.5768 99.231 41.7639C99.3513 41.9377 99.5117 42.0579 99.6988 42.1381C99.886 42.2183 100.086 42.2585 100.327 42.2585M102.292 42.9936C102.145 42.9936 102.051 42.9268 102.025 42.7798L101.931 42.0713C101.677 42.3788 101.396 42.606 101.089 42.7931C100.768 42.9669 100.407 43.0605 99.9929 43.0605C99.6588 43.0605 99.3647 42.9936 99.0973 42.8733C98.83 42.753 98.6028 42.5525 98.4023 42.3119C98.2152 42.058 98.0681 41.7505 97.9612 41.3896C97.8543 41.0153 97.8008 40.6009 97.8008 40.1197C97.8008 39.692 97.8543 39.2911 97.9746 38.9302C98.0949 38.5693 98.2552 38.2484 98.4691 37.9811C98.683 37.7137 98.9503 37.4999 99.2578 37.3395C99.5652 37.1925 99.9127 37.1122 100.314 37.1122C100.675 37.1122 100.969 37.1657 101.223 37.286C101.477 37.4063 101.69 37.5801 101.891 37.7939V34.5859H102.907V42.9936H102.305H102.292Z" fill="#9C9C9C"/>
<path d="M106.62 40.1571C106.82 40.1571 107.007 40.1303 107.168 40.0769C107.328 40.0234 107.462 39.9432 107.569 39.8363C107.676 39.7293 107.756 39.609 107.809 39.462C107.863 39.3149 107.889 39.1679 107.889 38.9941C107.889 38.6466 107.783 38.3525 107.569 38.152C107.355 37.9382 107.034 37.8312 106.633 37.8312C106.232 37.8312 105.911 37.9382 105.697 38.152C105.483 38.3659 105.377 38.6466 105.377 38.9941C105.377 39.1679 105.403 39.3283 105.457 39.462C105.51 39.609 105.59 39.7293 105.697 39.8363C105.804 39.9432 105.938 40.0234 106.098 40.0769C106.259 40.1303 106.432 40.1571 106.633 40.1571M108.437 43.2715C108.437 43.1245 108.397 43.0042 108.317 42.924C108.237 42.8304 108.13 42.7636 107.996 42.7235C107.863 42.67 107.702 42.6433 107.529 42.6166C107.355 42.5899 107.168 42.5764 106.967 42.5764H106.366C106.165 42.5764 105.965 42.5497 105.778 42.4962C105.564 42.6032 105.39 42.7234 105.243 42.8705C105.109 43.0175 105.042 43.1913 105.042 43.4052C105.042 43.5388 105.069 43.6592 105.136 43.7661C105.203 43.873 105.31 43.9799 105.443 44.0601C105.577 44.1403 105.751 44.2072 105.965 44.2607C106.165 44.3008 106.419 44.3275 106.7 44.3275C106.981 44.3275 107.221 44.3008 107.435 44.2473C107.649 44.1938 107.836 44.127 107.983 44.0335C108.13 43.9399 108.25 43.833 108.331 43.6993C108.411 43.5656 108.451 43.4319 108.451 43.2715M106.646 37.1094C106.9 37.1094 107.128 37.1361 107.355 37.1896C107.582 37.243 107.769 37.3233 107.956 37.4302H109.52V37.8045C109.52 37.9248 109.44 38.005 109.28 38.0451L108.625 38.1386C108.758 38.3792 108.812 38.6599 108.812 38.9674C108.812 39.2481 108.758 39.5021 108.651 39.7293C108.544 39.9565 108.397 40.157 108.197 40.3174C108.01 40.4778 107.783 40.6116 107.515 40.6918C107.248 40.772 106.954 40.8254 106.646 40.8254C106.379 40.8254 106.125 40.7986 105.884 40.7318C105.764 40.812 105.671 40.8922 105.604 40.9858C105.537 41.0794 105.51 41.1596 105.51 41.2531C105.51 41.4002 105.564 41.5071 105.684 41.5739C105.791 41.6541 105.938 41.6942 106.125 41.7343C106.312 41.7611 106.513 41.7878 106.753 41.7878H107.462C107.702 41.7878 107.943 41.8146 108.17 41.8547C108.397 41.8948 108.611 41.9616 108.798 42.0685C108.985 42.1621 109.133 42.2957 109.239 42.4695C109.346 42.6433 109.4 42.8571 109.4 43.1244C109.4 43.3784 109.333 43.6191 109.213 43.8463C109.092 44.0869 108.905 44.2874 108.678 44.4745C108.451 44.6616 108.157 44.8087 107.823 44.9156C107.488 45.0226 107.114 45.076 106.686 45.076C106.259 45.076 105.898 45.036 105.577 44.9558C105.256 44.8756 105.002 44.7553 104.788 44.6216C104.575 44.4746 104.428 44.3141 104.321 44.1403C104.214 43.9532 104.16 43.7661 104.16 43.5656C104.16 43.2849 104.254 43.0309 104.428 42.8438C104.601 42.6433 104.855 42.4829 105.176 42.3626C105.016 42.2824 104.882 42.1888 104.788 42.0551C104.695 41.9215 104.641 41.761 104.641 41.5472C104.641 41.467 104.655 41.3734 104.681 41.2932C104.708 41.1996 104.762 41.1195 104.815 41.0259C104.882 40.9324 104.949 40.8522 105.042 40.772C105.136 40.6918 105.243 40.6249 105.363 40.558C105.082 40.3976 104.855 40.1838 104.695 39.9165C104.534 39.6491 104.454 39.3417 104.454 38.9941C104.454 38.7134 104.508 38.4595 104.615 38.2322C104.722 38.005 104.869 37.8045 105.069 37.6441C105.27 37.4837 105.497 37.3634 105.764 37.2699C106.031 37.1763 106.326 37.1361 106.646 37.1361" fill="#9C9C9C"/>
<path d="M112.87 37.8579C112.375 37.8579 111.987 38.005 111.707 38.2857C111.426 38.5664 111.252 38.9674 111.185 39.462H114.327C114.327 39.2213 114.3 39.0075 114.233 38.8204C114.166 38.6199 114.073 38.4595 113.952 38.3124C113.832 38.1654 113.672 38.0585 113.498 37.9783C113.311 37.8981 113.11 37.8579 112.883 37.8579M112.856 37.1094C113.204 37.1094 113.525 37.1628 113.819 37.2832C114.113 37.4035 114.367 37.5639 114.581 37.7911C114.794 38.005 114.955 38.2857 115.075 38.6065C115.195 38.9273 115.262 39.2882 115.262 39.7025C115.262 39.8629 115.249 39.9699 115.209 40.0234C115.169 40.0769 115.115 40.1036 115.008 40.1036H111.159C111.159 40.4645 111.212 40.7853 111.306 41.0526C111.399 41.3199 111.52 41.5472 111.68 41.7343C111.84 41.9215 112.028 42.0551 112.255 42.1353C112.482 42.2289 112.723 42.269 112.99 42.269C113.244 42.269 113.458 42.2423 113.645 42.1755C113.832 42.122 113.992 42.0551 114.126 41.9883C114.26 41.9215 114.367 41.8546 114.46 41.8011C114.554 41.7477 114.621 41.7076 114.687 41.7076C114.768 41.7076 114.835 41.7343 114.875 41.8011L115.155 42.1755C115.035 42.3225 114.875 42.4561 114.701 42.5764C114.527 42.6834 114.34 42.777 114.139 42.8572C113.939 42.924 113.738 42.9775 113.525 43.0176C113.311 43.0577 113.097 43.071 112.896 43.071C112.495 43.071 112.134 43.0041 111.8 42.8705C111.466 42.7368 111.172 42.5364 110.931 42.2824C110.691 42.0284 110.49 41.6942 110.357 41.32C110.223 40.9323 110.156 40.4912 110.156 39.9967C110.156 39.5957 110.223 39.2213 110.343 38.8604C110.464 38.5129 110.651 38.2055 110.878 37.9515C111.105 37.6975 111.399 37.4971 111.733 37.35C112.068 37.203 112.442 37.1361 112.856 37.1361" fill="#9C9C9C"/>
<path d="M49.1129 0.484375L35.1716 14.426L44.2876 0.484375H0.445312V49.1797H49.1396V0.484375H49.1129ZM17.4074 32.5648C17.4074 33.6475 16.5119 34.7034 12.7024 34.7034C7.93057 34.7034 4.12111 31.7227 4.12111 25.0526C4.12111 18.3826 8.46524 14.974 14.1059 14.974H14.6807C16.0441 14.974 16.5119 15.1611 16.5119 15.9899C16.5119 16.6849 16.3248 17.1127 15.8302 17.1127H14.4267C9.57465 17.1127 6.74094 19.9732 6.74094 25.0259C6.74094 30.0785 9.03999 32.6717 12.7425 32.6717C14.5737 32.6717 14.9747 32.3108 14.9747 31.4019V25.5606C14.9747 25.1195 15.3356 24.9056 16.1911 24.9056C17.0466 24.9056 17.4074 25.1195 17.4074 25.5606V32.5648ZM24.7724 26.1754C24.0373 26.1754 23.4358 25.5739 23.4358 24.8387C23.4358 24.1035 24.0373 23.502 24.7724 23.502C25.5076 23.502 26.1091 24.1035 26.1091 24.8387C26.1091 25.5739 25.5076 26.1754 24.7724 26.1754ZM27.9269 17.1127H27.2853C23.7967 17.1127 22.5402 18.436 22.5402 21.6307V33.8747C22.5402 34.3024 22.1793 34.5163 21.3238 34.5163C20.4684 34.5163 20.1075 34.3024 20.1075 33.8747V21.4168C20.1075 16.7117 22.9011 14.9874 26.7908 14.9874C28.1542 14.9874 28.622 15.1611 28.622 15.9899C28.622 16.6716 28.4482 17.0993 27.9403 17.0993L27.9269 17.1127ZM33.4874 33.8747C33.4874 34.3024 33.1265 34.5163 32.271 34.5163C31.4156 34.5163 31.0547 34.3024 31.0547 33.8747V15.629C31.0547 15.2013 31.4156 14.9874 32.271 14.9874C33.1265 14.9874 33.4874 15.2013 33.4874 15.629V33.8747ZM37.8984 25.4402L44.8222 33.0861C45.0762 33.3668 45.25 33.5806 45.25 33.8079C45.25 34.2356 44.3143 34.6767 43.6994 34.6767C43.2717 34.6767 42.9108 34.3559 42.59 33.995L35.0112 25.5872C34.6503 25.1862 34.5835 24.9724 34.5835 24.7585C34.5835 24.5446 34.6637 24.3308 35.0112 23.9298L42.59 15.5221C42.9108 15.1612 43.2717 14.8403 43.6994 14.8403C44.3143 14.8403 45.25 15.2815 45.25 15.7092C45.25 15.9231 45.0762 16.1369 44.8222 16.431L37.8984 24.0768C37.5776 24.4377 37.3904 24.6115 37.3904 24.7585C37.3904 24.9055 37.5642 25.0793 37.8984 25.4402Z" fill="#9C9C9C"/>
</svg>
