<svg width="146" height="14" viewBox="0 0 146 14" fill="none" xmlns="http://www.w3.org/2000/svg">
<path d="M4.4261 1.16016H0.335938V13.4309H4.4261V1.16016Z" fill="#9C9C9C"/>
<path d="M20.7894 1.16016H16.6992V13.4309H20.7894V1.16016Z" fill="#9C9C9C"/>
<path d="M28.9573 1.16016H24.8672V13.4309H28.9573V1.16016Z" fill="#9C9C9C"/>
<path d="M37.1448 1.16016H33.0547V13.4309H37.1448V1.16016Z" fill="#9C9C9C"/>
<path d="M45.3245 1.16016H41.2344V13.4309H45.3245V1.16016Z" fill="#9C9C9C"/>
<path d="M53.512 1.16016H49.4219V13.4309H53.512V1.16016Z" fill="#9C9C9C"/>
<path d="M69.8753 1.16016H65.7852V13.4309H69.8753V1.16016Z" fill="#9C9C9C"/>
<path d="M14.6608 5.25H6.48047V9.34025H14.6608V5.25Z" fill="#9C9C9C"/>
<path d="M56.7505 1.16534L53.8594 4.05859L59.6458 9.84106L62.5369 6.94781L56.7505 1.16534Z" fill="#9C9C9C"/>
<path d="M110.138 9.90394C110.165 11.2273 111.141 12.3501 112.437 12.3501C113.734 12.3501 114.817 11.3476 114.817 9.95746C114.817 9.30248 114.509 8.64745 114.028 8.23308C113.493 7.76524 112.905 7.60487 112.25 7.4311C111.542 7.2306 110.807 7.04346 110.232 6.50879C109.59 5.93402 109.27 5.11864 109.27 4.24979C109.27 2.29823 110.726 0.988281 112.531 0.988281C114.335 0.988281 115.699 2.41856 115.685 4.27655H114.482C114.402 3.0468 113.56 2.15119 112.384 2.15119C111.261 2.15119 110.419 3.127 110.419 4.27655C110.419 5.73354 111.569 6.08104 112.691 6.41521C113.507 6.65582 114.228 6.80288 114.897 7.44448C115.578 8.07273 115.966 9.02172 115.966 9.98413C115.966 11.9892 114.335 13.5398 112.477 13.5398C110.526 13.5398 108.909 12.0427 108.922 9.9307H110.152L110.138 9.90394Z" fill="#9C9C9C"/>
<path d="M139.484 11.466L143.453 1.16016H145.311V13.4309H144.122V2.75081L140.018 13.4309H138.935L134.818 2.76419V13.4309H133.629V1.16016H135.447L139.484 11.466Z" fill="#9C9C9C"/>
<path d="M125.605 1.16016H131.955V2.25625H126.795V6.49351H131.888V7.65642H126.795V12.308H131.955V13.4309H125.605V1.16016Z" fill="#9C9C9C"/>
<path d="M97.7773 13.4309H98.9536V2.64385L106.105 13.4309H107.281V1.16016H106.105V11.2253L99.3546 1.16016H97.7773V13.4309Z" fill="#9C9C9C"/>
<path d="M83.3633 1.16016H84.6198V13.4309H83.3633V7.6698H77.2014V13.4309H76.0117V1.16016H77.2014V6.56033H83.3633V1.16016Z" fill="#9C9C9C"/>
<path d="M118.013 9.90394C118.04 11.2273 119.016 12.3501 120.312 12.3501C121.609 12.3501 122.692 11.3476 122.692 9.95746C122.692 9.30248 122.384 8.64745 121.903 8.23308C121.368 7.76524 120.78 7.60487 120.125 7.4311C119.417 7.2306 118.682 7.04346 118.107 6.50879C117.465 5.93402 117.144 5.11864 117.144 4.24979C117.144 2.29823 118.601 0.988281 120.406 0.988281C122.21 0.988281 123.574 2.41856 123.56 4.27655H122.357C122.277 3.0468 121.435 2.15119 120.259 2.15119C119.149 2.15119 118.294 3.127 118.294 4.27655C118.294 5.73354 119.444 6.08104 120.566 6.41521C121.382 6.65582 122.103 6.80288 122.772 7.44448C123.453 8.07273 123.841 9.02172 123.841 9.98413C123.841 11.9892 122.21 13.5398 120.352 13.5398C118.401 13.5398 116.784 12.0427 116.797 9.9307H118.027L118.013 9.90394Z" fill="#9C9C9C"/>
<path d="M96.925 13.4309H95.6417L93.8907 9.22031H88.4639L86.7129 13.4309H85.4297L90.5357 1.16016H91.8456L96.925 13.4309ZM91.1907 2.57704L88.905 8.15098H93.4362L91.1907 2.57704Z" fill="#9C9C9C"/>
</svg>
