<svg width="70" height="51" viewBox="0 0 70 51" fill="none" xmlns="http://www.w3.org/2000/svg">
<path d="M51.5798 11.2422H50.7645C50.0026 11.2422 49.7087 11.71 49.7087 12.1645V19.396C48.7195 19.8504 47.7705 20.0509 45.164 20.0509H39.1892C38.8951 20.0509 38.748 19.944 38.748 19.5965V18.7945C38.748 18.4603 38.9085 18.34 39.1892 18.34H45.5383C46.1264 18.34 46.4338 18.0459 46.4338 17.4444V12.8195C46.4338 12.218 46.1131 11.9239 45.5383 11.9239H36.6495C36.1951 11.9239 35.7539 12.1779 35.7539 12.8729V13.4344C35.7539 14.1294 36.2084 14.3834 36.6495 14.3834H43.0654C43.3594 14.3834 43.5199 14.4903 43.5199 14.8379V15.4929C43.5199 15.827 43.3594 15.934 43.0654 15.934H36.7163C36.1281 15.934 35.8208 16.228 35.8208 16.8296V20.1312C35.8208 21.6015 36.7563 22.5105 38.6945 22.5105H45.1506C47.7972 22.5105 48.8263 22.203 49.7219 21.7218V22.1896C49.7219 22.6441 50.016 23.1119 50.7779 23.1119H51.5932C52.3819 23.1119 52.676 22.6441 52.676 22.1896V12.1645C52.676 11.71 52.3819 11.2422 51.5932 11.2422H51.5798Z" fill="#9C9C9C"/>
<path d="M51.7629 23.9062H39.7197C39.1315 23.9062 38.8242 24.2003 38.8242 24.8018V29.1327C38.8242 30.603 39.9871 31.4585 41.6445 31.4585H49.8516C51.5091 31.4585 52.6719 30.603 52.6719 29.1327V24.8018C52.6719 24.2003 52.3645 23.9062 51.7763 23.9062H51.7629ZM49.7178 28.5178C49.7178 28.852 49.5575 28.9723 49.2634 28.9723H42.1926C41.8986 28.9723 41.7514 28.8654 41.7514 28.5178V26.8737C41.7514 26.5395 41.9119 26.4192 42.1926 26.4192H49.2634C49.5575 26.4192 49.7178 26.5262 49.7178 26.8737V28.5178Z" fill="#9C9C9C"/>
<path d="M33.9862 17.9387H31.4733C31.1792 17.9387 31.0187 17.8318 31.0187 17.4843V12.3247C31.0187 11.8702 30.7247 11.4023 29.9495 11.4023H29.1341C28.3722 11.4023 28.0781 11.8702 28.0781 12.3247V30.3031C28.0781 30.7575 28.3722 31.2254 29.1341 31.2254H29.9495C30.7381 31.2254 31.0187 30.7575 31.0187 30.3031V20.9864C31.0187 20.6522 31.1792 20.5319 31.4733 20.5319H33.9862C34.4407 20.5319 34.8816 20.2379 34.8816 19.5428V18.9145C34.8816 18.2195 34.4273 17.9254 33.9862 17.9254V17.9387Z" fill="#9C9C9C"/>
<path d="M25.8956 14.2089H22.1263C21.7921 14.2089 21.6717 14.0485 21.6717 13.7678V11.7895C21.6717 11.335 21.3777 10.8672 20.5891 10.8672H19.7871C19.0252 10.8672 18.7311 11.335 18.7311 11.7895V13.7678C18.7311 14.0619 18.6242 14.2089 18.2901 14.2089H14.5206C14.0662 14.2089 13.625 14.4495 13.625 15.158V15.7862C13.625 16.4813 14.0795 16.7352 14.5206 16.7352H16.4589C15.3093 17.6843 14.5875 19.0611 14.5875 20.5849C14.5875 23.4187 17.1004 25.7445 20.2014 25.7445C23.3024 25.7445 25.8287 23.3385 25.8287 20.5314C25.8287 18.9942 25.1202 17.6575 23.9975 16.7219H25.8956C26.35 16.7219 26.7912 16.4679 26.7912 15.7728V15.1446C26.7912 14.4495 26.3367 14.1956 25.8956 14.1956V14.2089ZM20.2014 23.2315C18.7177 23.2315 17.5281 22.0152 17.5281 20.5849C17.5281 19.1546 18.7177 17.9115 20.2014 17.9115C21.6851 17.9115 22.8881 19.0343 22.8881 20.5581C22.8881 21.9884 21.6717 23.2315 20.2014 23.2315Z" fill="#9C9C9C"/>
<path d="M34.8772 0.375C17.7947 0.375 0.00390625 8.32829 0.00390625 21.5347C0.00390625 31.747 10.8576 37.9358 19.2384 40.5022C15.4289 42.4672 13.5041 45.6618 13.8115 49.859C13.8516 50.1932 14.1858 50.2333 14.3729 49.9659C15.2418 48.8298 16.2175 48.1213 17.5007 47.5465C20.7755 46.1163 25.8681 45.3544 31.6825 44.4989C39.7158 43.2959 48.872 41.8924 56.3439 38.3903C63.0539 35.2223 69.7638 29.234 69.7638 21.5347C69.7638 8.34165 51.973 0.375 34.8906 0.375H34.8772ZM56.0631 37.7754C41.1327 44.7529 18.9577 43.2825 14.3997 48.8565C14.3997 46.3302 15.6428 42.8281 20.2409 40.7428C32.5648 35.1288 66.9569 38.1363 66.9569 21.508C66.9569 11.924 53.2294 3.03503 34.8638 3.03503C16.4982 3.03503 2.77071 11.9373 2.77071 21.508C2.77071 29.0068 11.1784 36.1045 23.6226 38.8581C22.3395 39.1923 21.2032 39.6066 20.1874 40.0611C8.65203 36.7461 0.658854 29.6885 0.658854 21.508C0.658854 10.1997 15.9635 1.03 34.8638 1.03C53.7641 1.03 69.0555 10.1863 69.0555 21.508C69.0555 28.8196 62.653 34.6342 56.0499 37.762L56.0631 37.7754ZM25.1465 38.4571C12.368 36.0778 3.54607 28.9533 3.54607 21.5213C3.54607 11.7502 18.0621 3.73009 34.8772 3.73009C51.6923 3.73009 66.2084 11.7635 66.2084 21.5213C66.2084 25.9324 63.4951 28.8731 59.7257 30.838C50.984 35.3961 35.3318 35.9709 25.1465 38.4571Z" fill="#9C9C9C"/>
<path d="M34.8846 1.04688C15.9977 1.04688 0.679688 10.2032 0.679688 21.5249H2.79154C2.79154 11.9409 16.519 3.0519 34.8846 3.0519C53.2503 3.0519 66.9777 11.9542 66.9777 21.5249C66.9777 38.1532 32.5857 35.1323 20.2617 40.7598C15.6636 42.8316 14.4205 46.3337 14.4205 48.8734C18.9785 43.2995 41.1535 44.7698 56.0839 37.7923C62.687 34.6645 69.0897 28.8499 69.0897 21.5382C69.0897 10.2299 53.7849 1.06025 34.898 1.06025L34.8846 1.04688Z" fill="#9C9C9C"/>
<path d="M0.679688 21.5156C0.679688 29.6961 8.67286 36.7538 20.2082 40.0688C21.224 39.6143 22.3603 39.2 23.6435 38.8658C11.1992 36.1122 2.79154 29.0278 2.79154 21.5156H0.679688Z" fill="#9C9C9C"/>
</svg>
