<svg width="267" height="267" viewBox="0 0 267 267" fill="none" xmlns="http://www.w3.org/2000/svg">
<circle cx="133.967" cy="133.936" r="132.99" fill="white"/>
<path d="M96.0794 142.992H92.2516V126.728H96.0794V142.992ZM102.987 143.175C102.066 143.175 101.235 142.937 100.494 142.46C99.7579 141.978 99.1729 141.266 98.7387 140.324C98.3099 139.376 98.0955 138.235 98.0955 136.901C98.0955 135.53 98.3152 134.376 98.7546 133.439C99.1993 132.496 99.7897 131.795 100.526 131.334C101.267 130.868 102.082 130.635 102.972 130.635C103.866 130.635 104.599 130.85 105.171 131.279C105.743 131.707 106.161 132.24 106.426 132.875H106.505V126.728H110.293V142.992H106.545V141.023H106.426C106.151 141.642 105.725 142.156 105.147 142.563C104.576 142.971 103.856 143.175 102.987 143.175ZM101.979 136.893C101.979 137.56 102.069 138.143 102.249 138.64C102.429 139.138 102.691 139.524 103.035 139.8C103.379 140.07 103.795 140.205 104.282 140.205C104.758 140.205 105.171 140.07 105.521 139.8C105.87 139.53 106.135 139.146 106.315 138.648C106.5 138.145 106.593 137.56 106.593 136.893C106.593 136.216 106.5 135.631 106.315 135.138C106.135 134.64 105.87 134.259 105.521 133.995C105.177 133.73 104.764 133.598 104.282 133.598C103.795 133.598 103.377 133.733 103.027 134.003C102.683 134.273 102.421 134.656 102.241 135.154C102.066 135.646 101.979 136.226 101.979 136.893ZM118.411 143.222C117.151 143.222 116.058 142.971 115.131 142.468C114.21 141.96 113.501 141.234 113.003 140.292C112.511 139.35 112.265 138.233 112.265 136.941C112.265 135.691 112.511 134.59 113.003 133.637C113.501 132.684 114.205 131.946 115.116 131.422C116.026 130.897 117.085 130.635 118.292 130.635C119.441 130.635 120.457 130.876 121.342 131.358C122.231 131.835 122.925 132.541 123.422 133.478C123.92 134.41 124.169 135.535 124.169 136.853V137.822H116.005V137.902C116.005 138.415 116.106 138.868 116.307 139.26C116.508 139.646 116.794 139.945 117.164 140.157C117.54 140.369 117.98 140.475 118.483 140.475C118.996 140.475 119.438 140.372 119.809 140.165C120.18 139.959 120.442 139.675 120.595 139.315H124.121C123.968 140.109 123.639 140.8 123.136 141.388C122.639 141.97 121.988 142.423 121.183 142.746C120.378 143.064 119.454 143.222 118.411 143.222ZM120.635 135.591C120.63 135.167 120.529 134.789 120.333 134.455C120.142 134.116 119.875 133.854 119.531 133.669C119.187 133.478 118.8 133.383 118.372 133.383C117.932 133.383 117.535 133.481 117.18 133.677C116.831 133.868 116.55 134.132 116.339 134.471C116.132 134.805 116.021 135.178 116.005 135.591H120.635ZM129.915 142.992H126.127V130.794H129.732V133.018H129.867C130.137 132.277 130.598 131.694 131.249 131.271C131.9 130.847 132.673 130.635 133.568 130.635C134.41 130.635 135.151 130.826 135.791 131.207C136.432 131.583 136.924 132.118 137.269 132.811C137.618 133.505 137.793 134.307 137.793 135.218V142.992H134.005V135.948C134.01 135.26 133.835 134.723 133.481 134.336C133.126 133.944 132.636 133.748 132.011 133.748C131.593 133.748 131.225 133.838 130.908 134.018C130.595 134.198 130.352 134.46 130.177 134.805C130.002 135.143 129.915 135.548 129.915 136.02V142.992ZM146.984 133.59H144.776V139.172C144.776 139.554 144.869 139.821 145.054 139.974C145.24 140.123 145.515 140.197 145.88 140.197C146.198 140.197 146.622 140.176 147.151 140.133V143.032C146.547 143.122 145.917 143.167 145.261 143.167C143.884 143.167 142.826 142.873 142.084 142.285C141.343 141.698 140.978 140.806 140.988 139.609V133.59H139.36V130.794H140.988V127.872H144.776V130.794H146.984V133.59ZM148.945 130.794H152.733V142.992H148.945V130.794ZM150.843 129.341C150.489 129.341 150.16 129.259 149.859 129.095C149.562 128.931 149.324 128.708 149.144 128.428C148.969 128.147 148.882 127.843 148.882 127.514C148.882 127.186 148.969 126.882 149.144 126.601C149.324 126.321 149.562 126.098 149.859 125.934C150.16 125.77 150.489 125.688 150.843 125.688C151.198 125.688 151.524 125.77 151.82 125.934C152.122 126.098 152.36 126.321 152.535 126.601C152.715 126.882 152.805 127.186 152.805 127.514C152.805 127.843 152.715 128.147 152.535 128.428C152.36 128.708 152.122 128.931 151.82 129.095C151.524 129.259 151.198 129.341 150.843 129.341ZM161.965 133.59H159.757V139.172C159.757 139.554 159.849 139.821 160.035 139.974C160.22 140.123 160.495 140.197 160.861 140.197C161.178 140.197 161.602 140.176 162.131 140.133V143.032C161.528 143.122 160.898 143.167 160.241 143.167C158.865 143.167 157.806 142.873 157.065 142.285C156.323 141.698 155.958 140.806 155.969 139.609V133.59H154.341V130.794H155.969V127.872H159.757V130.794H161.965V133.59ZM166.126 147.566C165.305 147.566 164.672 147.545 164.228 147.503L164.236 144.628C164.638 144.66 165.13 144.676 165.713 144.676C165.961 144.676 166.168 144.657 166.332 144.62C166.496 144.583 166.647 144.501 166.785 144.374C166.928 144.247 167.049 144.054 167.15 143.794L167.293 143.421L162.949 130.794H166.92L169.223 139.546H169.35L171.677 130.794H175.671L171.049 144.191C170.679 145.266 170.104 146.097 169.326 146.685C168.548 147.273 167.481 147.566 166.126 147.566Z" fill="#1C46F5"/>
</svg>
