<svg width="266" height="266" viewBox="0 0 266 266" fill="none" xmlns="http://www.w3.org/2000/svg">
<circle cx="132.99" cy="132.99" r="132.99" fill="white"/>
<path d="M95.0989 142.047H91.2711V125.783H95.0989V142.047ZM102.007 142.23C101.086 142.23 100.255 141.991 99.5133 141.515C98.7774 141.033 98.1924 140.321 97.7583 139.379C97.3294 138.431 97.115 137.29 97.115 135.956C97.115 134.585 97.3347 133.43 97.7742 132.493C98.2189 131.551 98.8092 130.849 99.5451 130.389C100.286 129.923 101.102 129.69 101.991 129.69C102.886 129.69 103.619 129.904 104.191 130.333C104.763 130.762 105.181 131.294 105.446 131.93H105.525V125.783H109.313V142.047H105.565V140.077H105.446C105.17 140.697 104.744 141.21 104.167 141.618C103.595 142.026 102.875 142.23 102.007 142.23ZM100.998 135.948C100.998 136.615 101.088 137.197 101.268 137.695C101.448 138.193 101.71 138.579 102.055 138.854C102.399 139.124 102.814 139.259 103.301 139.259C103.778 139.259 104.191 139.124 104.54 138.854C104.89 138.584 105.154 138.201 105.334 137.703C105.52 137.2 105.612 136.615 105.612 135.948C105.612 135.27 105.52 134.685 105.334 134.193C105.154 133.695 104.89 133.314 104.54 133.049C104.196 132.785 103.783 132.652 103.301 132.652C102.814 132.652 102.396 132.787 102.047 133.057C101.703 133.327 101.44 133.711 101.26 134.209C101.086 134.701 100.998 135.281 100.998 135.948ZM117.431 142.277C116.171 142.277 115.077 142.026 114.151 141.523C113.23 141.014 112.52 140.289 112.023 139.347C111.53 138.404 111.284 137.287 111.284 135.996C111.284 134.746 111.53 133.645 112.023 132.692C112.52 131.739 113.224 131 114.135 130.476C115.046 129.952 116.105 129.69 117.312 129.69C118.46 129.69 119.477 129.931 120.361 130.413C121.251 130.889 121.944 131.596 122.442 132.533C122.939 133.465 123.188 134.59 123.188 135.908V136.877H115.025V136.956C115.025 137.47 115.125 137.923 115.326 138.314C115.527 138.701 115.813 139 116.184 139.212C116.56 139.424 116.999 139.529 117.502 139.529C118.016 139.529 118.458 139.426 118.828 139.22C119.199 139.013 119.461 138.73 119.615 138.37H123.141C122.987 139.164 122.659 139.855 122.156 140.443C121.658 141.025 121.007 141.478 120.202 141.801C119.398 142.118 118.474 142.277 117.431 142.277ZM119.654 134.645C119.649 134.222 119.548 133.843 119.353 133.51C119.162 133.171 118.895 132.909 118.55 132.724C118.206 132.533 117.82 132.438 117.391 132.438C116.952 132.438 116.555 132.536 116.2 132.732C115.85 132.922 115.57 133.187 115.358 133.526C115.152 133.859 115.04 134.233 115.025 134.645H119.654ZM128.934 142.047H125.146V129.849H128.752V132.072H128.887C129.157 131.331 129.617 130.749 130.269 130.325C130.92 129.902 131.693 129.69 132.587 129.69C133.429 129.69 134.17 129.881 134.811 130.262C135.452 130.638 135.944 131.172 136.288 131.866C136.638 132.56 136.812 133.362 136.812 134.272V142.047H133.024V135.003C133.029 134.315 132.855 133.777 132.5 133.391C132.145 132.999 131.656 132.803 131.031 132.803C130.613 132.803 130.245 132.893 129.927 133.073C129.615 133.253 129.371 133.515 129.196 133.859C129.022 134.198 128.934 134.603 128.934 135.074V142.047ZM146.004 132.644H143.796V138.227C143.796 138.608 143.889 138.876 144.074 139.029C144.259 139.177 144.535 139.251 144.9 139.251C145.217 139.251 145.641 139.23 146.17 139.188V142.087C145.567 142.177 144.937 142.222 144.28 142.222C142.904 142.222 141.845 141.928 141.104 141.34C140.363 140.752 139.997 139.86 140.008 138.664V132.644H138.38V129.849H140.008V126.926H143.796V129.849H146.004V132.644ZM147.965 129.849H151.753V142.047H147.965V129.849ZM149.863 128.396C149.508 128.396 149.18 128.314 148.878 128.149C148.582 127.985 148.344 127.763 148.164 127.482C147.989 127.202 147.901 126.897 147.901 126.569C147.901 126.241 147.989 125.936 148.164 125.656C148.344 125.375 148.582 125.153 148.878 124.989C149.18 124.825 149.508 124.743 149.863 124.743C150.218 124.743 150.543 124.825 150.84 124.989C151.142 125.153 151.38 125.375 151.554 125.656C151.734 125.936 151.824 126.241 151.824 126.569C151.824 126.897 151.734 127.202 151.554 127.482C151.38 127.763 151.142 127.985 150.84 128.149C150.543 128.314 150.218 128.396 149.863 128.396ZM160.984 132.644H158.776V138.227C158.776 138.608 158.869 138.876 159.054 139.029C159.24 139.177 159.515 139.251 159.88 139.251C160.198 139.251 160.621 139.23 161.151 139.188V142.087C160.547 142.177 159.917 142.222 159.261 142.222C157.884 142.222 156.825 141.928 156.084 141.34C155.343 140.752 154.978 139.86 154.988 138.664V132.644H153.36V129.849H154.988V126.926H158.776V129.849H160.984V132.644ZM165.145 146.621C164.324 146.621 163.692 146.6 163.247 146.558L163.255 143.683C163.657 143.715 164.15 143.73 164.732 143.73C164.981 143.73 165.187 143.712 165.352 143.675C165.516 143.638 165.667 143.556 165.804 143.429C165.947 143.302 166.069 143.108 166.17 142.849L166.312 142.476L161.969 129.849H165.939L168.242 138.6H168.369L170.696 129.849H174.691L170.069 143.246C169.698 144.321 169.124 145.152 168.345 145.74C167.567 146.327 166.5 146.621 165.145 146.621Z" fill="#FF5900"/>
</svg>
