<svg width="805" height="118" viewBox="0 0 805 118" fill="none" xmlns="http://www.w3.org/2000/svg">
<g filter="url(#filter0_f_780_20925)">
<path d="M200.312 16.4073V92.2305H213.231V16.4073H200.312Z" fill="#CFEC8A"/>
<path d="M16 16.5971L16 92.3672H29.5362L29.5362 16.5971H16Z" fill="#CFEC8A"/>
<path d="M77.25 92.1208V30.2734H64.1669V92.1208H77.25Z" fill="#CFEC8A"/>
<path d="M99.2534 17.1875H77.25V30.2706H99.2534V17.1875Z" fill="#CFEC8A"/>
<path d="M56.4425 17.1875H43.3594V30.2706H56.4425V17.1875Z" fill="#CFEC8A"/>
<path d="M138.407 47.9844H101.875V60.9341H138.407V47.9844Z" fill="#CFEC8A"/>
<path d="M234.805 101.057V76.1484H221.886V101.057H234.805Z" fill="#CFEC8A"/>
<path d="M291.188 101.057V76.1484H278.269V101.057H291.188Z" fill="#CFEC8A"/>
<path d="M283.938 76.1477V22.0312H271.019V76.1477H283.938Z" fill="#CFEC8A"/>
<path d="M291.189 72.0781H221.867V85.0279H291.189V72.0781Z" fill="#CFEC8A"/>
<path d="M283.932 16H237.164V28.9497H283.932V16Z" fill="#CFEC8A"/>
<path d="M180.819 93.0631C194.514 93.0631 205.615 78.7689 205.615 61.1488C205.615 43.5286 194.514 29.2344 180.819 29.2344C167.124 29.2344 156.023 43.5286 156.023 61.1488C156.023 78.7689 167.124 93.0631 180.819 93.0631ZM184.331 40.5742C193.155 40.5742 200.321 49.7912 200.321 61.1488C200.321 72.5063 193.155 81.7233 184.331 81.7233C175.507 81.7233 168.342 72.5063 168.342 61.1488C168.342 49.7912 175.507 40.5742 184.331 40.5742Z" fill="#CFEC8A"/>
<path d="M775.578 16.4073V92.2305H788.497V16.4073H775.578Z" fill="#CFEC8A"/>
<path d="M756.077 93.0631C769.772 93.0631 780.873 78.7689 780.873 61.1488C780.873 43.5286 769.772 29.2344 756.077 29.2344C742.382 29.2344 731.281 43.5286 731.281 61.1488C731.281 78.7689 742.382 93.0631 756.077 93.0631ZM759.589 40.5742C768.413 40.5742 775.578 49.7912 775.578 61.1488C775.578 72.5063 768.413 81.7233 759.589 81.7233C750.765 81.7233 743.6 72.5063 743.6 61.1488C743.6 49.7912 750.765 40.5742 759.589 40.5742Z" fill="#CFEC8A"/>
<path d="M450.18 16.4073V92.2305H463.098V16.4073H450.18Z" fill="#CFEC8A"/>
<path d="M507.396 61.1488C507.396 43.5286 496.295 29.2344 482.6 29.2344C468.905 29.2344 457.805 43.5286 457.805 61.1488C457.805 78.7689 468.905 93.0631 482.6 93.0631C496.295 93.0631 507.396 78.7689 507.396 61.1488ZM495.078 61.1488C495.078 72.5063 487.913 81.7233 479.088 81.7233C470.264 81.7233 463.099 72.5063 463.099 61.1488C463.099 49.7912 470.264 40.5742 479.088 40.5742C487.913 40.5742 495.078 49.7912 495.078 61.1488Z" fill="#CFEC8A"/>
<path d="M237.166 22.0312V53.6803C237.166 59.3414 234.907 64.8786 230.619 68.5583C228.289 70.5397 225.377 72.0788 221.883 72.0788H242.249C242.249 72.0788 248.461 69.0183 248.461 59.589V22.0312H237.166Z" fill="#CFEC8A"/>
<path d="M600.875 101.057V76.1484H587.956V101.057H600.875Z" fill="#CFEC8A"/>
<path d="M657.281 101.042V76.1328H644.363V101.042H657.281Z" fill="#CFEC8A"/>
<path d="M650.031 76.1477V22.0312H637.113V76.1477H650.031Z" fill="#CFEC8A"/>
<path d="M657.283 72.0781H587.961V85.0279H657.283V72.0781Z" fill="#CFEC8A"/>
<path d="M650.01 16H603.242V28.9497H650.01V16Z" fill="#CFEC8A"/>
<path d="M603.244 22.0312V53.6803C603.244 59.3414 600.985 64.8786 596.697 68.5583C594.367 70.5397 591.455 72.0788 587.961 72.0788H608.327C608.327 72.0788 614.539 69.0183 614.539 59.589V22.0312H603.244Z" fill="#CFEC8A"/>
<path d="M513.852 54.3188C513.852 74.9818 529.417 91.7881 548.548 91.7881C567.679 91.7881 583.244 74.9818 583.244 54.3188C583.244 33.6559 567.696 16.8672 548.566 16.8672C529.435 16.8672 513.869 33.6735 513.869 54.3365L513.852 54.3188ZM569.285 54.3188C569.285 68.4715 559.984 79.9706 548.566 79.9706C537.147 79.9706 527.847 68.4539 527.847 54.3188C527.847 40.1838 537.147 28.667 548.566 28.667C559.984 28.667 569.285 40.1838 569.285 54.3188Z" fill="#CFEC8A"/>
<path d="M312.473 79.1929C316.567 80.5197 320.503 81.1919 324.28 81.1919C328.921 81.1919 332.557 80.2366 335.151 78.3437C337.745 76.4508 339.033 73.8325 339.033 70.5066C339.033 68.3837 338.098 66.5085 336.245 64.9163C334.392 63.3241 331.762 62.1565 328.374 61.4135C325.056 60.6174 322.126 59.9452 319.603 59.4144C312.826 57.8753 307.62 55.3809 303.949 51.9135C300.296 48.4461 298.46 44.218 298.46 39.2291C298.46 34.771 299.625 30.8083 301.955 27.3408C304.284 23.8734 307.514 21.2021 311.679 19.3092C315.826 17.4162 320.573 16.4609 325.886 16.4609C330.739 16.4609 335.292 17.204 339.545 18.7077C343.799 20.2114 347.187 22.2282 349.711 24.758L345.916 34.2403C342.863 32.1174 339.581 30.4367 336.104 29.1984C332.61 27.96 329.203 27.3585 325.886 27.3585C321.297 27.3585 317.732 28.4023 315.173 30.5075C312.614 32.6127 311.343 35.514 311.343 39.2468C311.343 41.5113 312.279 43.4749 314.132 45.1379C315.985 46.8008 318.579 48.0038 321.897 48.7291L330.668 50.6221C337.516 52.2142 342.757 54.744 346.41 58.1584C350.064 61.5904 351.899 65.6947 351.899 70.4889C351.899 74.6817 350.734 78.4322 348.405 81.7227C346.075 85.0132 342.846 87.5784 338.681 89.4182C334.533 91.2581 329.733 92.1603 324.28 92.1603C318.826 92.1603 313.744 91.3996 308.837 89.8605C303.931 88.3214 300.031 86.3046 297.172 83.7748L301.054 73.5849C304.584 75.9731 308.379 77.8484 312.473 79.1752V79.1929Z" fill="#CFEC8A"/>
<path d="M375.814 48.4253H411.587V17.5547H424.347V91.0781H411.587V59.4114H375.814V91.0781H363.055V17.5547H375.814V48.4253Z" fill="#CFEC8A"/>
<path d="M667.375 16.4062H697.095C702.407 16.4062 707.013 17.3616 710.931 19.2722C714.849 21.1828 717.849 23.8895 719.914 27.41C721.979 30.9305 723.02 34.9994 723.02 39.6344C723.02 44.2694 721.961 48.3029 719.861 51.7173C717.761 55.1316 714.743 57.7499 710.825 59.6074C706.907 61.465 702.336 62.3672 697.095 62.3672H680.452V91.7518H667.375V16.4062ZM706.889 49.0637C709.201 46.8877 710.366 43.7387 710.366 39.6521C710.366 35.8309 709.184 32.8765 706.836 30.789C704.489 28.7014 701.242 27.6754 697.077 27.6754H680.435V52.3542H697.077C701.295 52.3542 704.56 51.2573 706.889 49.0813V49.0637ZM696.989 61.5534L707.719 55.7154L727.114 91.7518H713.225L696.989 61.5534Z" fill="#CFEC8A"/>
</g>
<defs>
<filter id="filter0_f_780_20925" x="0" y="0" width="804.496" height="117.059" filterUnits="userSpaceOnUse" color-interpolation-filters="sRGB">
<feFlood flood-opacity="0" result="BackgroundImageFix"/>
<feBlend mode="normal" in="SourceGraphic" in2="BackgroundImageFix" result="shape"/>
<feGaussianBlur stdDeviation="8" result="effect1_foregroundBlur_780_20925"/>
</filter>
</defs>
</svg>
