<svg width="773" height="86" viewBox="0 0 773 86" fill="none" xmlns="http://www.w3.org/2000/svg">
<path d="M184.312 0.977585V76.8008H197.231V0.977585H184.312Z" fill="#B7F524"/>
<path d="M0 1.16737L0 76.9375H13.5362L13.5362 1.16737H0Z" fill="#B7F524"/>
<path d="M61.25 76.6911L61.25 14.8438H48.1669V76.6911H61.25Z" fill="#B7F524"/>
<path d="M83.2534 1.75781H61.25V14.8409H83.2534V1.75781Z" fill="#B7F524"/>
<path d="M40.4425 1.75781H27.3594V14.8409H40.4425V1.75781Z" fill="#B7F524"/>
<path d="M122.407 32.5547H85.875V45.5044H122.407V32.5547Z" fill="#B7F524"/>
<path d="M218.805 85.6275V60.7188H205.886V85.6275H218.805Z" fill="#B7F524"/>
<path d="M275.188 85.6275V60.7188H262.269V85.6275H275.188Z" fill="#B7F524"/>
<path d="M267.938 60.718V6.60156L255.019 6.60156V60.718H267.938Z" fill="#B7F524"/>
<path d="M275.189 56.6484H205.867V69.5982H275.189V56.6484Z" fill="#B7F524"/>
<path d="M267.932 0.570312H221.164V13.5201H267.932V0.570312Z" fill="#B7F524"/>
<path d="M164.819 77.6335C178.514 77.6335 189.615 63.3392 189.615 45.7191C189.615 28.0989 178.514 13.8047 164.819 13.8047C151.124 13.8047 140.023 28.0989 140.023 45.7191C140.023 63.3392 151.124 77.6335 164.819 77.6335ZM168.331 25.1446C177.155 25.1446 184.321 34.3615 184.321 45.7191C184.321 57.0766 177.155 66.2936 168.331 66.2936C159.507 66.2936 152.342 57.0766 152.342 45.7191C152.342 34.3615 159.507 25.1446 168.331 25.1446Z" fill="#B7F524"/>
<path d="M759.578 0.977615V76.8008H772.497V0.977615H759.578Z" fill="#B7F524"/>
<path d="M740.077 77.6335C753.772 77.6335 764.873 63.3392 764.873 45.7191C764.873 28.0989 753.772 13.8047 740.077 13.8047C726.382 13.8047 715.281 28.0989 715.281 45.7191C715.281 63.3392 726.382 77.6335 740.077 77.6335ZM743.589 25.1446C752.413 25.1446 759.578 34.3615 759.578 45.7191C759.578 57.0766 752.413 66.2936 743.589 66.2936C734.765 66.2936 727.6 57.0766 727.6 45.7191C727.6 34.3615 734.765 25.1446 743.589 25.1446Z" fill="#B7F524"/>
<path d="M434.18 0.977615V76.8008H447.098V0.977615H434.18Z" fill="#B7F524"/>
<path d="M491.396 45.7191C491.396 28.0989 480.295 13.8047 466.6 13.8047C452.905 13.8047 441.805 28.0989 441.805 45.7191C441.805 63.3392 452.905 77.6335 466.6 77.6335C480.295 77.6335 491.396 63.3392 491.396 45.7191ZM479.078 45.7191C479.078 57.0766 471.913 66.2936 463.088 66.2936C454.264 66.2936 447.099 57.0766 447.099 45.7191C447.099 34.3615 454.264 25.1446 463.088 25.1446C471.913 25.1446 479.078 34.3615 479.078 45.7191Z" fill="#B7F524"/>
<path d="M221.166 6.60156V38.2506C221.166 43.9117 218.907 49.4489 214.619 53.1286C212.289 55.11 209.377 56.6491 205.883 56.6491H226.249C226.249 56.6491 232.461 53.5886 232.461 44.1593V6.60156H221.166Z" fill="#B7F524"/>
<path d="M584.875 85.6276V60.7188H571.956V85.6276H584.875Z" fill="#B7F524"/>
<path d="M641.281 85.6119V60.7031H628.363V85.6119H641.281Z" fill="#B7F524"/>
<path d="M634.031 60.718V6.60156L621.113 6.60156V60.718H634.031Z" fill="#B7F524"/>
<path d="M641.283 56.6484H571.961V69.5982H641.283V56.6484Z" fill="#B7F524"/>
<path d="M634.01 0.570312H587.242V13.5201H634.01V0.570312Z" fill="#B7F524"/>
<path d="M587.244 6.60156V38.2506C587.244 43.9117 584.985 49.4489 580.697 53.1286C578.367 55.11 575.455 56.6491 571.961 56.6491H592.327C592.327 56.6491 598.539 53.5886 598.539 44.1593V6.60156H587.244Z" fill="#B7F524"/>
<path d="M497.852 38.8891C497.852 59.5521 513.417 76.3585 532.548 76.3585C551.679 76.3585 567.244 59.5521 567.244 38.8891C567.244 18.2262 551.696 1.4375 532.566 1.4375C513.435 1.4375 497.869 18.2439 497.869 38.9068L497.852 38.8891ZM553.285 38.8891C553.285 53.0419 543.984 64.5409 532.566 64.5409C521.147 64.5409 511.847 53.0242 511.847 38.8891C511.847 24.7541 521.147 13.2373 532.566 13.2373C543.984 13.2373 553.285 24.7541 553.285 38.8891Z" fill="#B7F524"/>
<path d="M296.473 63.7632C300.567 65.09 304.503 65.7623 308.28 65.7623C312.921 65.7623 316.557 64.807 319.151 62.914C321.745 61.0211 323.033 58.4028 323.033 55.077C323.033 52.954 322.098 51.0788 320.245 49.4866C318.392 47.8944 315.762 46.7268 312.374 45.9838C309.056 45.1877 306.126 44.5155 303.603 43.9848C296.826 42.4456 291.62 39.9512 287.949 36.4838C284.296 33.0164 282.46 28.7883 282.46 23.7994C282.46 19.3413 283.625 15.3786 285.955 11.9112C288.284 8.44374 291.514 5.77241 295.679 3.87949C299.826 1.98656 304.573 1.03125 309.886 1.03125C314.739 1.03125 319.292 1.77427 323.545 3.27799C327.799 4.78172 331.187 6.79848 333.711 9.32828L329.916 18.8106C326.863 16.6877 323.581 15.0071 320.104 13.7687C316.61 12.5303 313.203 11.9288 309.886 11.9288C305.297 11.9288 301.732 12.9726 299.173 15.0778C296.614 17.183 295.343 20.0844 295.343 23.8171C295.343 26.0816 296.279 28.0453 298.132 29.7082C299.985 31.3711 302.579 32.5741 305.897 33.2995L314.668 35.1924C321.516 36.7846 326.757 39.3144 330.41 42.7287C334.064 46.1607 335.899 50.265 335.899 55.0593C335.899 59.252 334.734 63.0025 332.405 66.293C330.075 69.5835 326.846 72.1487 322.681 73.9885C318.533 75.8284 313.733 76.7306 308.28 76.7306C302.826 76.7306 297.744 75.9699 292.837 74.4308C287.931 72.8917 284.031 70.8749 281.172 68.3451L285.054 58.1552C288.584 60.5434 292.379 62.4187 296.473 63.7455V63.7632Z" fill="#B7F524"/>
<path d="M359.814 32.9956H395.587V2.125H408.347V75.6484H395.587V43.9817H359.814V75.6484H347.055V2.125H359.814V32.9956Z" fill="#B7F524"/>
<path d="M651.375 0.976562H681.095C686.407 0.976562 691.013 1.93187 694.931 3.84249C698.849 5.75311 701.849 8.45981 703.914 11.9803C705.979 15.5008 707.02 19.5697 707.02 24.2047C707.02 28.8397 705.961 32.8733 703.861 36.2876C701.761 39.7019 698.743 42.3202 694.825 44.1777C690.907 46.0353 686.336 46.9375 681.095 46.9375H664.452V76.3221H651.375V0.976562ZM690.889 33.634C693.201 31.458 694.366 28.309 694.366 24.2224C694.366 20.4012 693.184 17.4468 690.836 15.3593C688.489 13.2717 685.242 12.2457 681.077 12.2457H664.435V36.9245H681.077C685.295 36.9245 688.56 35.8276 690.889 33.6517V33.634ZM680.989 46.1237L691.719 40.2857L711.114 76.3221H697.225L680.989 46.1237Z" fill="#B7F524"/>
</svg>
