<svg width="289" height="70" viewBox="0 0 289 70" fill="none" xmlns="http://www.w3.org/2000/svg">
<path fill-rule="evenodd" clip-rule="evenodd" d="M20.2266 42.6126V31.1855H26.1259V65.8108H20.2266V60.6219C18.1533 64.0129 14.9359 66.1912 11.3232 66.1912C5.06924 66.1912 0 59.6636 0 51.6172C0 43.5709 5.06924 37.0433 11.3232 37.0433C14.9359 37.0433 18.1533 39.2216 20.2266 42.6126ZM20.2266 51.3916C20.1333 46.3092 16.898 42.2217 12.927 42.2217C8.89738 42.2217 5.62533 46.4307 5.62533 51.6172C5.62533 56.8038 8.89738 61.0128 12.927 61.0128C16.898 61.0128 20.1333 56.9253 20.2266 51.8428V51.3916Z" fill="#B7F524"/>
<path d="M282.926 31.1853V65.8105H288.825V31.1853H282.926Z" fill="#B7F524"/>
<path d="M274.019 66.1909C280.272 66.1909 285.342 59.6633 285.342 51.6169C285.342 43.5706 280.272 37.043 274.019 37.043C267.765 37.043 262.695 43.5706 262.695 51.6169C262.695 59.6633 267.765 66.1909 274.019 66.1909ZM275.622 42.2214C279.652 42.2214 282.924 46.4304 282.924 51.6169C282.924 56.8035 279.652 61.0125 275.622 61.0125C271.593 61.0125 268.321 56.8035 268.321 51.6169C268.321 46.4304 271.593 42.2214 275.622 42.2214Z" fill="#B7F524"/>
<path fill-rule="evenodd" clip-rule="evenodd" d="M134.326 65.8128V31.1875H140.226V42.6199C142.299 39.2253 145.518 37.0443 149.133 37.0443C155.387 37.0443 160.456 43.5719 160.456 51.6183C160.456 59.6647 155.387 66.1923 149.133 66.1923C145.518 66.1923 142.299 64.0113 140.226 60.6167V65.8128H134.326ZM147.529 61.0138C151.559 61.0138 154.831 56.8048 154.831 51.6183C154.831 46.4318 151.559 42.2228 147.529 42.2228C143.499 42.2228 140.227 46.4318 140.227 51.6183C140.227 56.8048 143.499 61.0138 147.529 61.0138Z" fill="#B7F524"/>
<path fill-rule="evenodd" clip-rule="evenodd" d="M58.4136 31H37.0566V33.7539H37.0535V48.2067C37.0535 50.7919 36.0219 53.3205 34.0635 55.0009C33.0405 55.871 31.7716 56.5543 30.2567 56.6055H30.0684V62.5191H30.0772V69.8416H35.9766V62.5191H55.8252V69.8416H61.7245V62.5191H61.725V56.6055H58.4141V33.7539H58.4136V31ZM39.3806 56.6055H52.5147V36.9136H42.2114V50.905C42.2114 55.0949 39.5254 56.5311 39.3806 56.6055Z" fill="#B7F524"/>
<path fill-rule="evenodd" clip-rule="evenodd" d="M225.579 31H204.222V36.9136H204.224V48.2067C204.224 50.7919 203.193 53.3205 201.234 55.0009C200.211 55.871 198.942 56.5543 197.428 56.6055H197.245V56.6085V58.4668H197.24V69.8416H203.14V62.5191H223.004V69.8357H228.903V58.4609H228.902V56.6055H225.593V33.7539H225.579V31ZM206.551 56.6055H219.693V36.9136H209.382V50.905C209.382 55.0949 206.696 56.5311 206.551 56.6055Z" fill="#B7F524"/>
<path d="M163.404 48.4971C163.404 57.9331 170.513 65.6078 179.249 65.6078C187.985 65.6078 195.093 57.9331 195.093 48.4971C195.093 39.0612 187.993 31.3945 179.257 31.3945C170.521 31.3945 163.412 39.0693 163.412 48.5052L163.404 48.4971ZM188.718 48.4971C188.718 54.9601 184.471 60.2112 179.257 60.2112C174.042 60.2112 169.795 54.952 169.795 48.4971C169.795 42.0423 174.042 36.783 179.257 36.783C184.471 36.783 188.718 42.0423 188.718 48.4971Z" fill="#B7F524"/>
<path d="M71.4405 59.858C73.3102 60.4639 75.1074 60.7709 76.8321 60.7709C78.9517 60.7709 80.6119 60.3346 81.7966 59.4702C82.9813 58.6058 83.5696 57.4102 83.5696 55.8914C83.5696 54.9219 83.1424 54.0656 82.2962 53.3385C81.45 52.6114 80.2492 52.0782 78.7018 51.7389C77.1867 51.3754 75.8489 51.0684 74.6964 50.826C71.6017 50.1232 69.2242 48.9841 67.5479 47.4006C65.8796 45.8172 65.0414 43.8864 65.0414 41.6082C65.0414 39.5724 65.5734 37.7628 66.6372 36.1793C67.701 34.5959 69.1758 33.376 71.0778 32.5116C72.9717 31.6472 75.1396 31.2109 77.5655 31.2109C79.7818 31.2109 81.861 31.5502 83.8033 32.2369C85.7456 32.9236 87.2929 33.8446 88.4454 34.9998L86.7127 39.33C85.3184 38.3606 83.8194 37.5931 82.2318 37.0276C80.636 36.4621 79.0806 36.1874 77.5655 36.1874C75.4701 36.1874 73.8421 36.6641 72.6735 37.6254C71.5049 38.5868 70.9247 39.9117 70.9247 41.6163C70.9247 42.6504 71.3518 43.5471 72.198 44.3065C73.0442 45.0659 74.229 45.6153 75.7441 45.9465L79.7495 46.8109C82.8765 47.538 85.2701 48.6932 86.9383 50.2524C88.6066 51.8197 89.4448 53.6939 89.4448 55.8833C89.4448 57.7979 88.9128 59.5106 87.849 61.0133C86.7852 62.5159 85.3104 63.6873 83.4084 64.5275C81.5145 65.3677 79.3224 65.7797 76.8321 65.7797C74.3418 65.7797 72.0207 65.4323 69.7803 64.7295C67.5398 64.0266 65.7587 63.1056 64.4531 61.9504L66.2262 57.297C67.838 58.3877 69.5707 59.244 71.4405 59.8499V59.858Z" fill="#B7F524"/>
<path d="M100.366 45.8102H116.702V31.7129H122.529V65.288H116.702V50.8271H100.366V65.288H94.5391V31.7129H100.366V45.8102Z" fill="#B7F524"/>
<path d="M233.512 31.1855H247.083C249.509 31.1855 251.613 31.6218 253.402 32.4943C255.191 33.3668 256.561 34.6028 257.504 36.2105C258.447 37.8182 258.922 39.6763 258.922 41.7929C258.922 43.9095 258.439 45.7514 257.48 47.3106C256.521 48.8698 255.143 50.0655 253.354 50.9137C251.564 51.762 249.477 52.174 247.083 52.174H239.484V65.5927H233.512V31.1855ZM251.556 46.0988C252.612 45.1051 253.144 43.6671 253.144 41.801C253.144 40.056 252.604 38.7068 251.532 37.7535C250.46 36.8002 248.977 36.3317 247.075 36.3317H239.476V47.6015H247.075C249.002 47.6015 250.492 47.1006 251.556 46.1069V46.0988ZM247.035 51.8024L251.935 49.1364L260.792 65.5927H254.45L247.035 51.8024Z" fill="#B7F524"/>
<path d="M80.729 2.32984C82.061 2.32984 83.225 2.58784 84.221 3.10384C85.229 3.60784 86.003 4.33984 86.543 5.29984C87.095 6.24784 87.371 7.35784 87.371 8.62984C87.371 9.90184 87.095 11.0058 86.543 11.9418C86.003 12.8778 85.229 13.5978 84.221 14.1018C83.225 14.5938 82.061 14.8398 80.729 14.8398H76.643V2.32984H80.729ZM80.729 13.1658C82.193 13.1658 83.315 12.7698 84.095 11.9778C84.875 11.1858 85.265 10.0698 85.265 8.62984C85.265 7.17784 84.875 6.04384 84.095 5.22784C83.315 4.41184 82.193 4.00384 80.729 4.00384H78.695V13.1658H80.729ZM88.7207 9.83584C88.7207 8.83984 88.9247 7.95784 89.3327 7.18984C89.7527 6.42184 90.3167 5.82784 91.0247 5.40784C91.7447 4.97584 92.5367 4.75984 93.4007 4.75984C94.1807 4.75984 94.8587 4.91584 95.4347 5.22784C96.0227 5.52784 96.4907 5.90584 96.8387 6.36184V4.92184H98.9087V14.8398H96.8387V13.3638C96.4907 13.8318 96.0167 14.2218 95.4167 14.5338C94.8167 14.8458 94.1327 15.0018 93.3647 15.0018C92.5127 15.0018 91.7327 14.7858 91.0247 14.3538C90.3167 13.9098 89.7527 13.2978 89.3327 12.5178C88.9247 11.7258 88.7207 10.8318 88.7207 9.83584ZM96.8387 9.87184C96.8387 9.18784 96.6947 8.59384 96.4067 8.08984C96.1307 7.58584 95.7647 7.20184 95.3087 6.93784C94.8527 6.67384 94.3607 6.54184 93.8327 6.54184C93.3047 6.54184 92.8127 6.67384 92.3567 6.93784C91.9007 7.18984 91.5287 7.56784 91.2407 8.07184C90.9647 8.56384 90.8267 9.15184 90.8267 9.83584C90.8267 10.5198 90.9647 11.1198 91.2407 11.6358C91.5287 12.1518 91.9007 12.5478 92.3567 12.8238C92.8247 13.0878 93.3167 13.2198 93.8327 13.2198C94.3607 13.2198 94.8527 13.0878 95.3087 12.8238C95.7647 12.5598 96.1307 12.1758 96.4067 11.6718C96.6947 11.1558 96.8387 10.5558 96.8387 9.87184ZM103.998 6.59584V12.0858C103.998 12.4578 104.082 12.7278 104.25 12.8958C104.43 13.0518 104.73 13.1298 105.15 13.1298H106.41V14.8398H104.79C103.866 14.8398 103.158 14.6238 102.666 14.1918C102.174 13.7598 101.928 13.0578 101.928 12.0858V6.59584H100.758V4.92184H101.928V2.45584H103.998V4.92184H106.41V6.59584H103.998ZM107.617 9.83584C107.617 8.83984 107.821 7.95784 108.229 7.18984C108.649 6.42184 109.213 5.82784 109.921 5.40784C110.641 4.97584 111.433 4.75984 112.297 4.75984C113.077 4.75984 113.755 4.91584 114.331 5.22784C114.919 5.52784 115.387 5.90584 115.735 6.36184V4.92184H117.805V14.8398H115.735V13.3638C115.387 13.8318 114.913 14.2218 114.313 14.5338C113.713 14.8458 113.029 15.0018 112.261 15.0018C111.409 15.0018 110.629 14.7858 109.921 14.3538C109.213 13.9098 108.649 13.2978 108.229 12.5178C107.821 11.7258 107.617 10.8318 107.617 9.83584ZM115.735 9.87184C115.735 9.18784 115.591 8.59384 115.303 8.08984C115.027 7.58584 114.661 7.20184 114.205 6.93784C113.749 6.67384 113.257 6.54184 112.729 6.54184C112.201 6.54184 111.709 6.67384 111.253 6.93784C110.797 7.18984 110.425 7.56784 110.137 8.07184C109.861 8.56384 109.723 9.15184 109.723 9.83584C109.723 10.5198 109.861 11.1198 110.137 11.6358C110.425 12.1518 110.797 12.5478 111.253 12.8238C111.721 13.0878 112.213 13.2198 112.729 13.2198C113.257 13.2198 113.749 13.0878 114.205 12.8238C114.661 12.5598 115.027 12.1758 115.303 11.6718C115.591 11.1558 115.735 10.5558 115.735 9.87184ZM129.01 13.0038L131.818 4.92184H133.996L130.216 14.8398H127.768L124.006 4.92184H126.202L129.01 13.0038ZM136.591 3.60784C136.219 3.60784 135.907 3.48184 135.655 3.22984C135.403 2.97784 135.277 2.66584 135.277 2.29384C135.277 1.92184 135.403 1.60984 135.655 1.35784C135.907 1.10584 136.219 0.979843 136.591 0.979843C136.951 0.979843 137.257 1.10584 137.509 1.35784C137.761 1.60984 137.887 1.92184 137.887 2.29384C137.887 2.66584 137.761 2.97784 137.509 3.22984C137.257 3.48184 136.951 3.60784 136.591 3.60784ZM137.599 4.92184V14.8398H135.547V4.92184H137.599ZM143.893 15.0018C143.113 15.0018 142.411 14.8638 141.787 14.5878C141.175 14.2998 140.689 13.9158 140.329 13.4358C139.969 12.9438 139.777 12.3978 139.753 11.7978H141.877C141.913 12.2178 142.111 12.5718 142.471 12.8598C142.843 13.1358 143.305 13.2738 143.857 13.2738C144.433 13.2738 144.877 13.1658 145.189 12.9498C145.513 12.7218 145.675 12.4338 145.675 12.0858C145.675 11.7138 145.495 11.4378 145.135 11.2578C144.787 11.0778 144.229 10.8798 143.461 10.6638C142.717 10.4598 142.111 10.2618 141.643 10.0698C141.175 9.87784 140.767 9.58384 140.419 9.18784C140.083 8.79184 139.915 8.26984 139.915 7.62184C139.915 7.09384 140.071 6.61384 140.383 6.18184C140.695 5.73784 141.139 5.38984 141.715 5.13784C142.303 4.88584 142.975 4.75984 143.731 4.75984C144.859 4.75984 145.765 5.04784 146.449 5.62384C147.145 6.18784 147.517 6.96184 147.565 7.94584H145.513C145.477 7.50184 145.297 7.14784 144.973 6.88384C144.649 6.61984 144.211 6.48784 143.659 6.48784C143.119 6.48784 142.705 6.58984 142.417 6.79384C142.129 6.99784 141.985 7.26784 141.985 7.60384C141.985 7.86784 142.081 8.08984 142.273 8.26984C142.465 8.44984 142.699 8.59384 142.975 8.70184C143.251 8.79784 143.659 8.92384 144.199 9.07984C144.919 9.27184 145.507 9.46984 145.963 9.67384C146.431 9.86584 146.833 10.1538 147.169 10.5378C147.505 10.9218 147.679 11.4318 147.691 12.0678C147.691 12.6318 147.535 13.1358 147.223 13.5798C146.911 14.0238 146.467 14.3718 145.891 14.6238C145.327 14.8758 144.661 15.0018 143.893 15.0018ZM158.891 4.92184V14.8398H156.839V13.6698C156.515 14.0778 156.089 14.4018 155.561 14.6418C155.045 14.8698 154.493 14.9838 153.905 14.9838C153.125 14.9838 152.423 14.8218 151.799 14.4978C151.187 14.1738 150.701 13.6938 150.341 13.0578C149.993 12.4218 149.819 11.6538 149.819 10.7538V4.92184H151.853V10.4478C151.853 11.3358 152.075 12.0198 152.519 12.4998C152.963 12.9678 153.569 13.2018 154.337 13.2018C155.105 13.2018 155.711 12.9678 156.155 12.4998C156.611 12.0198 156.839 11.3358 156.839 10.4478V4.92184H158.891ZM160.914 9.83584C160.914 8.83984 161.118 7.95784 161.526 7.18984C161.946 6.42184 162.51 5.82784 163.218 5.40784C163.938 4.97584 164.73 4.75984 165.594 4.75984C166.374 4.75984 167.052 4.91584 167.628 5.22784C168.216 5.52784 168.684 5.90584 169.032 6.36184V4.92184H171.102V14.8398H169.032V13.3638C168.684 13.8318 168.21 14.2218 167.61 14.5338C167.01 14.8458 166.326 15.0018 165.558 15.0018C164.706 15.0018 163.926 14.7858 163.218 14.3538C162.51 13.9098 161.946 13.2978 161.526 12.5178C161.118 11.7258 160.914 10.8318 160.914 9.83584ZM169.032 9.87184C169.032 9.18784 168.888 8.59384 168.6 8.08984C168.324 7.58584 167.958 7.20184 167.502 6.93784C167.046 6.67384 166.554 6.54184 166.026 6.54184C165.498 6.54184 165.006 6.67384 164.55 6.93784C164.094 7.18984 163.722 7.56784 163.434 8.07184C163.158 8.56384 163.02 9.15184 163.02 9.83584C163.02 10.5198 163.158 11.1198 163.434 11.6358C163.722 12.1518 164.094 12.5478 164.55 12.8238C165.018 13.0878 165.51 13.2198 166.026 13.2198C166.554 13.2198 167.046 13.0878 167.502 12.8238C167.958 12.5598 168.324 12.1758 168.6 11.6718C168.888 11.1558 169.032 10.5558 169.032 9.87184ZM175.849 1.51984V14.8398H173.797V1.51984H175.849ZM179.587 3.60784C179.215 3.60784 178.903 3.48184 178.651 3.22984C178.399 2.97784 178.273 2.66584 178.273 2.29384C178.273 1.92184 178.399 1.60984 178.651 1.35784C178.903 1.10584 179.215 0.979843 179.587 0.979843C179.947 0.979843 180.253 1.10584 180.505 1.35784C180.757 1.60984 180.883 1.92184 180.883 2.29384C180.883 2.66584 180.757 2.97784 180.505 3.22984C180.253 3.48184 179.947 3.60784 179.587 3.60784ZM180.595 4.92184V14.8398H178.543V4.92184H180.595ZM185.107 13.1658H189.607V14.8398H182.731V13.1658L187.249 6.59584H182.731V4.92184H189.607V6.59584L185.107 13.1658ZM191.078 9.83584C191.078 8.83984 191.282 7.95784 191.69 7.18984C192.11 6.42184 192.674 5.82784 193.382 5.40784C194.102 4.97584 194.894 4.75984 195.758 4.75984C196.538 4.75984 197.216 4.91584 197.792 5.22784C198.38 5.52784 198.848 5.90584 199.196 6.36184V4.92184H201.266V14.8398H199.196V13.3638C198.848 13.8318 198.374 14.2218 197.774 14.5338C197.174 14.8458 196.49 15.0018 195.722 15.0018C194.87 15.0018 194.09 14.7858 193.382 14.3538C192.674 13.9098 192.11 13.2978 191.69 12.5178C191.282 11.7258 191.078 10.8318 191.078 9.83584ZM199.196 9.87184C199.196 9.18784 199.052 8.59384 198.764 8.08984C198.488 7.58584 198.122 7.20184 197.666 6.93784C197.21 6.67384 196.718 6.54184 196.19 6.54184C195.662 6.54184 195.17 6.67384 194.714 6.93784C194.258 7.18984 193.886 7.56784 193.598 8.07184C193.322 8.56384 193.184 9.15184 193.184 9.83584C193.184 10.5198 193.322 11.1198 193.598 11.6358C193.886 12.1518 194.258 12.5478 194.714 12.8238C195.182 13.0878 195.674 13.2198 196.19 13.2198C196.718 13.2198 197.21 13.0878 197.666 12.8238C198.122 12.5598 198.488 12.1758 198.764 11.6718C199.052 11.1558 199.196 10.5558 199.196 9.87184ZM206.355 6.59584V12.0858C206.355 12.4578 206.439 12.7278 206.607 12.8958C206.787 13.0518 207.087 13.1298 207.507 13.1298H208.767V14.8398H207.147C206.223 14.8398 205.515 14.6238 205.023 14.1918C204.531 13.7598 204.285 13.0578 204.285 12.0858V6.59584H203.115V4.92184H204.285V2.45584H206.355V4.92184H208.767V6.59584H206.355ZM211.703 3.60784C211.331 3.60784 211.019 3.48184 210.767 3.22984C210.515 2.97784 210.389 2.66584 210.389 2.29384C210.389 1.92184 210.515 1.60984 210.767 1.35784C211.019 1.10584 211.331 0.979843 211.703 0.979843C212.063 0.979843 212.369 1.10584 212.621 1.35784C212.873 1.60984 212.999 1.92184 212.999 2.29384C212.999 2.66584 212.873 2.97784 212.621 3.22984C212.369 3.48184 212.063 3.60784 211.703 3.60784ZM212.711 4.92184V14.8398H210.659V4.92184H212.711ZM219.707 15.0018C218.771 15.0018 217.925 14.7918 217.169 14.3718C216.413 13.9398 215.819 13.3398 215.387 12.5718C214.955 11.7918 214.739 10.8918 214.739 9.87184C214.739 8.86384 214.961 7.96984 215.405 7.18984C215.849 6.40984 216.455 5.80984 217.223 5.38984C217.991 4.96984 218.849 4.75984 219.797 4.75984C220.745 4.75984 221.603 4.96984 222.371 5.38984C223.139 5.80984 223.745 6.40984 224.189 7.18984C224.633 7.96984 224.855 8.86384 224.855 9.87184C224.855 10.8798 224.627 11.7738 224.171 12.5538C223.715 13.3338 223.091 13.9398 222.299 14.3718C221.519 14.7918 220.655 15.0018 219.707 15.0018ZM219.707 13.2198C220.235 13.2198 220.727 13.0938 221.183 12.8418C221.651 12.5898 222.029 12.2118 222.317 11.7078C222.605 11.2038 222.749 10.5918 222.749 9.87184C222.749 9.15184 222.611 8.54584 222.335 8.05384C222.059 7.54984 221.693 7.17184 221.237 6.91984C220.781 6.66784 220.289 6.54184 219.761 6.54184C219.233 6.54184 218.741 6.66784 218.285 6.91984C217.841 7.17184 217.487 7.54984 217.223 8.05384C216.959 8.54584 216.827 9.15184 216.827 9.87184C216.827 10.9398 217.097 11.7678 217.637 12.3558C218.189 12.9318 218.879 13.2198 219.707 13.2198ZM231.887 4.75984C232.667 4.75984 233.363 4.92184 233.975 5.24584C234.599 5.56984 235.085 6.04984 235.433 6.68584C235.781 7.32184 235.955 8.08984 235.955 8.98984V14.8398H233.921V9.29584C233.921 8.40784 233.699 7.72984 233.255 7.26184C232.811 6.78184 232.205 6.54184 231.437 6.54184C230.669 6.54184 230.057 6.78184 229.601 7.26184C229.157 7.72984 228.935 8.40784 228.935 9.29584V14.8398H226.883V4.92184H228.935V6.05584C229.271 5.64784 229.697 5.32984 230.213 5.10184C230.741 4.87384 231.299 4.75984 231.887 4.75984Z" fill="#B7F524"/>
<path d="M51.2578 1.84049V16.0762H53.801V1.84049H51.2578Z" fill="#B7F524"/>
<path d="M62.7676 16.03V4.41016H60.3095V16.03H62.7676Z" fill="#B7F524"/>
<path d="M66.9016 1.94727H62.7676V4.40532H66.9016V1.94727Z" fill="#B7F524"/>
<path d="M58.8565 1.94727H56.3984V4.40532H58.8565V1.94727Z" fill="#B7F524"/>
<path d="M74.2581 7.73633H67.3945V10.1693H74.2581V7.73633Z" fill="#B7F524"/>
</svg>
