<svg width="773" height="86" viewBox="0 0 773 86" fill="none" xmlns="http://www.w3.org/2000/svg">
<path d="M184.312 1.0479V76.8711H197.231V1.0479H184.312Z" fill="black"/>
<path d="M0 1.23769L0 77.0078H13.5362L13.5362 1.23769H0Z" fill="black"/>
<path d="M61.25 76.7614L61.25 14.9141H48.1669V76.7614H61.25Z" fill="black"/>
<path d="M83.2534 1.82812H61.25V14.9112H83.2534V1.82812Z" fill="black"/>
<path d="M40.4425 1.82812H27.3594V14.9112H40.4425V1.82812Z" fill="black"/>
<path d="M122.407 32.625H85.875V45.5747H122.407V32.625Z" fill="black"/>
<path d="M218.805 85.6979V60.7891H205.886V85.6979H218.805Z" fill="black"/>
<path d="M275.188 85.6979V60.7891H262.269V85.6979H275.188Z" fill="black"/>
<path d="M267.938 60.7883V6.67188L255.019 6.67188V60.7883H267.938Z" fill="black"/>
<path d="M275.189 56.7188H205.867V69.6685H275.189V56.7188Z" fill="black"/>
<path d="M267.932 0.640625H221.164V13.5904H267.932V0.640625Z" fill="black"/>
<path d="M164.819 77.7038C178.514 77.7038 189.615 63.4095 189.615 45.7894C189.615 28.1692 178.514 13.875 164.819 13.875C151.124 13.875 140.023 28.1692 140.023 45.7894C140.023 63.4095 151.124 77.7038 164.819 77.7038ZM168.331 25.2149C177.155 25.2149 184.321 34.4318 184.321 45.7894C184.321 57.1469 177.155 66.3639 168.331 66.3639C159.507 66.3639 152.342 57.1469 152.342 45.7894C152.342 34.4318 159.507 25.2149 168.331 25.2149Z" fill="black"/>
<path d="M759.578 1.04793V76.8711H772.497V1.04793H759.578Z" fill="black"/>
<path d="M740.077 77.7038C753.772 77.7038 764.873 63.4095 764.873 45.7894C764.873 28.1692 753.772 13.875 740.077 13.875C726.382 13.875 715.281 28.1692 715.281 45.7894C715.281 63.4095 726.382 77.7038 740.077 77.7038ZM743.589 25.2149C752.413 25.2149 759.578 34.4318 759.578 45.7894C759.578 57.1469 752.413 66.3639 743.589 66.3639C734.765 66.3639 727.6 57.1469 727.6 45.7894C727.6 34.4318 734.765 25.2149 743.589 25.2149Z" fill="black"/>
<path d="M434.18 1.04793V76.8711H447.098V1.04793H434.18Z" fill="black"/>
<path d="M491.396 45.7894C491.396 28.1692 480.295 13.875 466.6 13.875C452.905 13.875 441.805 28.1692 441.805 45.7894C441.805 63.4095 452.905 77.7038 466.6 77.7038C480.295 77.7038 491.396 63.4095 491.396 45.7894ZM479.078 45.7894C479.078 57.1469 471.913 66.3639 463.088 66.3639C454.264 66.3639 447.099 57.1469 447.099 45.7894C447.099 34.4318 454.264 25.2149 463.088 25.2149C471.913 25.2149 479.078 34.4318 479.078 45.7894Z" fill="black"/>
<path d="M221.166 6.67188V38.3209C221.166 43.982 218.907 49.5192 214.619 53.1989C212.289 55.1803 209.377 56.7194 205.883 56.7194H226.249C226.249 56.7194 232.461 53.6589 232.461 44.2297V6.67188H221.166Z" fill="black"/>
<path d="M584.875 85.6979V60.7891H571.956V85.6979H584.875Z" fill="black"/>
<path d="M641.281 85.6822V60.7734H628.363V85.6822H641.281Z" fill="black"/>
<path d="M634.031 60.7883V6.67188L621.113 6.67188V60.7883H634.031Z" fill="black"/>
<path d="M641.283 56.7188H571.961V69.6685H641.283V56.7188Z" fill="black"/>
<path d="M634.01 0.640625H587.242V13.5904H634.01V0.640625Z" fill="black"/>
<path d="M587.244 6.67188V38.3209C587.244 43.982 584.985 49.5192 580.697 53.1989C578.367 55.1803 575.455 56.7194 571.961 56.7194H592.327C592.327 56.7194 598.539 53.6589 598.539 44.2297V6.67188H587.244Z" fill="black"/>
<path d="M497.852 38.9594C497.852 59.6224 513.417 76.4288 532.548 76.4288C551.679 76.4288 567.244 59.6224 567.244 38.9594C567.244 18.2965 551.696 1.50781 532.566 1.50781C513.435 1.50781 497.869 18.3142 497.869 38.9771L497.852 38.9594ZM553.285 38.9594C553.285 53.1122 543.984 64.6113 532.566 64.6113C521.147 64.6113 511.847 53.0945 511.847 38.9594C511.847 24.8244 521.147 13.3076 532.566 13.3076C543.984 13.3076 553.285 24.8244 553.285 38.9594Z" fill="black"/>
<path d="M296.473 63.8335C300.567 65.1603 304.503 65.8326 308.28 65.8326C312.921 65.8326 316.557 64.8773 319.151 62.9843C321.745 61.0914 323.033 58.4732 323.033 55.1473C323.033 53.0244 322.098 51.1491 320.245 49.5569C318.392 47.9648 315.762 46.7972 312.374 46.0541C309.056 45.258 306.126 44.5858 303.603 44.0551C296.826 42.516 291.62 40.0215 287.949 36.5541C284.296 33.0867 282.46 28.8586 282.46 23.8698C282.46 19.4116 283.625 15.4489 285.955 11.9815C288.284 8.51405 291.514 5.84272 295.679 3.9498C299.826 2.05687 304.573 1.10156 309.886 1.10156C314.739 1.10156 319.292 1.84458 323.545 3.34831C327.799 4.85203 331.187 6.8688 333.711 9.39859L329.916 18.8809C326.863 16.758 323.581 15.0774 320.104 13.839C316.61 12.6006 313.203 11.9992 309.886 11.9992C305.297 11.9992 301.732 13.0429 299.173 15.1481C296.614 17.2534 295.343 20.1547 295.343 23.8874C295.343 26.1519 296.279 28.1156 298.132 29.7785C299.985 31.4415 302.579 32.6444 305.897 33.3698L314.668 35.2627C321.516 36.8549 326.757 39.3847 330.41 42.799C334.064 46.231 335.899 50.3353 335.899 55.1296C335.899 59.3223 334.734 63.0728 332.405 66.3633C330.075 69.6538 326.846 72.219 322.681 74.0588C318.533 75.8987 313.733 76.8009 308.28 76.8009C302.826 76.8009 297.744 76.0402 292.837 74.5011C287.931 72.962 284.031 70.9452 281.172 68.4154L285.054 58.2255C288.584 60.6138 292.379 62.489 296.473 63.8158V63.8335Z" fill="black"/>
<path d="M359.814 33.0659H395.587V2.19531H408.347V75.7187H395.587V44.052H359.814V75.7187H347.055V2.19531H359.814V33.0659Z" fill="black"/>
<path d="M651.375 1.04688H681.095C686.407 1.04688 691.013 2.00218 694.931 3.9128C698.849 5.82342 701.849 8.53013 703.914 12.0506C705.979 15.5711 707.02 19.64 707.02 24.275C707.02 28.91 705.961 32.9436 703.861 36.3579C701.761 39.7723 698.743 42.3905 694.825 44.2481C690.907 46.1056 686.336 47.0078 681.095 47.0078H664.452V76.3924H651.375V1.04688ZM690.889 33.7043C693.201 31.5283 694.366 28.3793 694.366 24.2927C694.366 20.4715 693.184 17.5171 690.836 15.4296C688.489 13.3421 685.242 12.316 681.077 12.316H664.435V36.9948H681.077C685.295 36.9948 688.56 35.8979 690.889 33.722V33.7043ZM680.989 46.194L691.719 40.3561L711.114 76.3924H697.225L680.989 46.194Z" fill="black"/>
</svg>
