<svg width="313" height="94" viewBox="0 0 313 94" fill="none" xmlns="http://www.w3.org/2000/svg">
<g filter="url(#filter0_f_1227_11770)">
<path fill-rule="evenodd" clip-rule="evenodd" d="M32.2266 54.6126V43.1855H38.1259V77.8108H32.2266V72.6219C30.1533 76.0129 26.9359 78.1912 23.3232 78.1912C17.0692 78.1912 12 71.6636 12 63.6172C12 55.5709 17.0692 49.0433 23.3232 49.0433C26.9359 49.0433 30.1533 51.2216 32.2266 54.6126ZM32.2266 63.3916C32.1333 58.3092 28.898 54.2217 24.927 54.2217C20.8974 54.2217 17.6253 58.4307 17.6253 63.6172C17.6253 68.8038 20.8974 73.0128 24.927 73.0128C28.898 73.0128 32.1333 68.9253 32.2266 63.8428V63.3916Z" fill="#B7F524"/>
<path d="M294.926 43.1853V77.8105H300.825V43.1853H294.926Z" fill="#B7F524"/>
<path d="M286.019 78.1909C292.272 78.1909 297.342 71.6633 297.342 63.6169C297.342 55.5706 292.272 49.043 286.019 49.043C279.765 49.043 274.695 55.5706 274.695 63.6169C274.695 71.6633 279.765 78.1909 286.019 78.1909ZM287.622 54.2214C291.652 54.2214 294.924 58.4304 294.924 63.6169C294.924 68.8035 291.652 73.0125 287.622 73.0125C283.593 73.0125 280.321 68.8035 280.321 63.6169C280.321 58.4304 283.593 54.2214 287.622 54.2214Z" fill="#B7F524"/>
<path fill-rule="evenodd" clip-rule="evenodd" d="M146.326 77.8128V43.1875H152.226V54.6199C154.299 51.2253 157.518 49.0443 161.133 49.0443C167.387 49.0443 172.456 55.5719 172.456 63.6183C172.456 71.6647 167.387 78.1923 161.133 78.1923C157.518 78.1923 154.299 76.0113 152.226 72.6167V77.8128H146.326ZM159.529 73.0138C163.559 73.0138 166.831 68.8048 166.831 63.6183C166.831 58.4318 163.559 54.2228 159.529 54.2228C155.499 54.2228 152.227 58.4318 152.227 63.6183C152.227 68.8048 155.499 73.0138 159.529 73.0138Z" fill="#B7F524"/>
<path fill-rule="evenodd" clip-rule="evenodd" d="M70.4136 43H49.0566V45.7539H49.0535V60.2067C49.0535 62.7919 48.0219 65.3205 46.0635 67.0009C45.0405 67.871 43.7716 68.5543 42.2567 68.6055H42.0684V74.5191H42.0772V81.8416H47.9766V74.5191H67.8252V81.8416H73.7245V74.5191H73.725V68.6055H70.4141V45.7539H70.4136V43ZM51.3806 68.6055H64.5147V48.9136H54.2114V62.905C54.2114 67.0949 51.5254 68.5311 51.3806 68.6055Z" fill="#B7F524"/>
<path fill-rule="evenodd" clip-rule="evenodd" d="M237.579 43H216.222V48.9136H216.224V60.2067C216.224 62.7919 215.193 65.3205 213.234 67.0009C212.211 67.871 210.942 68.5543 209.428 68.6055H209.245V68.6085V70.4668H209.24V81.8416H215.14V74.5191H235.004V81.8357H240.903V70.4609H240.902V68.6055H237.593V45.7539H237.579V43ZM218.551 68.6055H231.693V48.9136H221.382V62.905C221.382 67.0949 218.696 68.5311 218.551 68.6055Z" fill="#B7F524"/>
<path d="M175.404 60.4971C175.404 69.9331 182.513 77.6078 191.249 77.6078C199.985 77.6078 207.093 69.9331 207.093 60.4971C207.093 51.0612 199.993 43.3945 191.257 43.3945C182.521 43.3945 175.412 51.0693 175.412 60.5052L175.404 60.4971ZM200.718 60.4971C200.718 66.9601 196.471 72.2112 191.257 72.2112C186.042 72.2112 181.795 66.952 181.795 60.4971C181.795 54.0423 186.042 48.783 191.257 48.783C196.471 48.783 200.718 54.0423 200.718 60.4971Z" fill="#B7F524"/>
<path d="M83.4405 71.858C85.3102 72.4639 87.1074 72.7709 88.8321 72.7709C90.9517 72.7709 92.6119 72.3346 93.7966 71.4702C94.9813 70.6058 95.5696 69.4102 95.5696 67.8914C95.5696 66.9219 95.1424 66.0656 94.2962 65.3385C93.45 64.6114 92.2492 64.0782 90.7018 63.7389C89.1867 63.3754 87.8489 63.0684 86.6964 62.826C83.6017 62.1232 81.2242 60.9841 79.5479 59.4006C77.8796 57.8172 77.0414 55.8864 77.0414 53.6082C77.0414 51.5724 77.5734 49.7628 78.6372 48.1793C79.701 46.5959 81.1758 45.376 83.0778 44.5116C84.9717 43.6472 87.1396 43.2109 89.5655 43.2109C91.7818 43.2109 93.861 43.5502 95.8033 44.2369C97.7456 44.9236 99.2929 45.8446 100.445 46.9998L98.7127 51.33C97.3184 50.3606 95.8194 49.5931 94.2318 49.0276C92.636 48.4621 91.0806 48.1874 89.5655 48.1874C87.4701 48.1874 85.8421 48.6641 84.6735 49.6254C83.5049 50.5868 82.9247 51.9117 82.9247 53.6163C82.9247 54.6504 83.3518 55.5471 84.198 56.3065C85.0442 57.0659 86.229 57.6153 87.7441 57.9465L91.7495 58.8109C94.8765 59.538 97.2701 60.6932 98.9383 62.2524C100.607 63.8197 101.445 65.6939 101.445 67.8833C101.445 69.7979 100.913 71.5106 99.849 73.0133C98.7852 74.5159 97.3104 75.6873 95.4084 76.5275C93.5145 77.3677 91.3224 77.7797 88.8321 77.7797C86.3418 77.7797 84.0207 77.4323 81.7803 76.7295C79.5398 76.0266 77.7587 75.1056 76.4531 73.9504L78.2262 69.297C79.838 70.3877 81.5707 71.244 83.4405 71.8499V71.858Z" fill="#B7F524"/>
<path d="M112.366 57.8102H128.702V43.7129H134.529V77.288H128.702V62.8271H112.366V77.288H106.539V43.7129H112.366V57.8102Z" fill="#B7F524"/>
<path d="M245.512 43.1855H259.083C261.509 43.1855 263.613 43.6218 265.402 44.4943C267.191 45.3668 268.561 46.6028 269.504 48.2105C270.447 49.8182 270.922 51.6763 270.922 53.7929C270.922 55.9095 270.439 57.7514 269.48 59.3106C268.521 60.8698 267.143 62.0655 265.354 62.9137C263.564 63.762 261.477 64.174 259.083 64.174H251.484V77.5927H245.512V43.1855ZM263.556 58.0988C264.612 57.1051 265.144 55.6671 265.144 53.801C265.144 52.056 264.604 50.7068 263.532 49.7535C262.46 48.8002 260.977 48.3317 259.075 48.3317H251.476V59.6015H259.075C261.002 59.6015 262.492 59.1006 263.556 58.1069V58.0988ZM259.035 63.8024L263.935 61.1364L272.792 77.5927H266.45L259.035 63.8024Z" fill="#B7F524"/>
<path d="M92.729 14.3298C94.061 14.3298 95.225 14.5878 96.221 15.1038C97.229 15.6078 98.003 16.3398 98.543 17.2998C99.095 18.2478 99.371 19.3578 99.371 20.6298C99.371 21.9018 99.095 23.0058 98.543 23.9418C98.003 24.8778 97.229 25.5978 96.221 26.1018C95.225 26.5938 94.061 26.8398 92.729 26.8398H88.643V14.3298H92.729ZM92.729 25.1658C94.193 25.1658 95.315 24.7698 96.095 23.9778C96.875 23.1858 97.265 22.0698 97.265 20.6298C97.265 19.1778 96.875 18.0438 96.095 17.2278C95.315 16.4118 94.193 16.0038 92.729 16.0038H90.695V25.1658H92.729ZM100.721 21.8358C100.721 20.8398 100.925 19.9578 101.333 19.1898C101.753 18.4218 102.317 17.8278 103.025 17.4078C103.745 16.9758 104.537 16.7598 105.401 16.7598C106.181 16.7598 106.859 16.9158 107.435 17.2278C108.023 17.5278 108.491 17.9058 108.839 18.3618V16.9218H110.909V26.8398H108.839V25.3638C108.491 25.8318 108.017 26.2218 107.417 26.5338C106.817 26.8458 106.133 27.0018 105.365 27.0018C104.513 27.0018 103.733 26.7858 103.025 26.3538C102.317 25.9098 101.753 25.2978 101.333 24.5178C100.925 23.7258 100.721 22.8318 100.721 21.8358ZM108.839 21.8718C108.839 21.1878 108.695 20.5938 108.407 20.0898C108.131 19.5858 107.765 19.2018 107.309 18.9378C106.853 18.6738 106.361 18.5418 105.833 18.5418C105.305 18.5418 104.813 18.6738 104.357 18.9378C103.901 19.1898 103.529 19.5678 103.241 20.0718C102.965 20.5638 102.827 21.1518 102.827 21.8358C102.827 22.5198 102.965 23.1198 103.241 23.6358C103.529 24.1518 103.901 24.5478 104.357 24.8238C104.825 25.0878 105.317 25.2198 105.833 25.2198C106.361 25.2198 106.853 25.0878 107.309 24.8238C107.765 24.5598 108.131 24.1758 108.407 23.6718C108.695 23.1558 108.839 22.5558 108.839 21.8718ZM115.998 18.5958V24.0858C115.998 24.4578 116.082 24.7278 116.25 24.8958C116.43 25.0518 116.73 25.1298 117.15 25.1298H118.41V26.8398H116.79C115.866 26.8398 115.158 26.6238 114.666 26.1918C114.174 25.7598 113.928 25.0578 113.928 24.0858V18.5958H112.758V16.9218H113.928V14.4558H115.998V16.9218H118.41V18.5958H115.998ZM119.617 21.8358C119.617 20.8398 119.821 19.9578 120.229 19.1898C120.649 18.4218 121.213 17.8278 121.921 17.4078C122.641 16.9758 123.433 16.7598 124.297 16.7598C125.077 16.7598 125.755 16.9158 126.331 17.2278C126.919 17.5278 127.387 17.9058 127.735 18.3618V16.9218H129.805V26.8398H127.735V25.3638C127.387 25.8318 126.913 26.2218 126.313 26.5338C125.713 26.8458 125.029 27.0018 124.261 27.0018C123.409 27.0018 122.629 26.7858 121.921 26.3538C121.213 25.9098 120.649 25.2978 120.229 24.5178C119.821 23.7258 119.617 22.8318 119.617 21.8358ZM127.735 21.8718C127.735 21.1878 127.591 20.5938 127.303 20.0898C127.027 19.5858 126.661 19.2018 126.205 18.9378C125.749 18.6738 125.257 18.5418 124.729 18.5418C124.201 18.5418 123.709 18.6738 123.253 18.9378C122.797 19.1898 122.425 19.5678 122.137 20.0718C121.861 20.5638 121.723 21.1518 121.723 21.8358C121.723 22.5198 121.861 23.1198 122.137 23.6358C122.425 24.1518 122.797 24.5478 123.253 24.8238C123.721 25.0878 124.213 25.2198 124.729 25.2198C125.257 25.2198 125.749 25.0878 126.205 24.8238C126.661 24.5598 127.027 24.1758 127.303 23.6718C127.591 23.1558 127.735 22.5558 127.735 21.8718ZM141.01 25.0038L143.818 16.9218H145.996L142.216 26.8398H139.768L136.006 16.9218H138.202L141.01 25.0038ZM148.591 15.6078C148.219 15.6078 147.907 15.4818 147.655 15.2298C147.403 14.9778 147.277 14.6658 147.277 14.2938C147.277 13.9218 147.403 13.6098 147.655 13.3578C147.907 13.1058 148.219 12.9798 148.591 12.9798C148.951 12.9798 149.257 13.1058 149.509 13.3578C149.761 13.6098 149.887 13.9218 149.887 14.2938C149.887 14.6658 149.761 14.9778 149.509 15.2298C149.257 15.4818 148.951 15.6078 148.591 15.6078ZM149.599 16.9218V26.8398H147.547V16.9218H149.599ZM155.893 27.0018C155.113 27.0018 154.411 26.8638 153.787 26.5878C153.175 26.2998 152.689 25.9158 152.329 25.4358C151.969 24.9438 151.777 24.3978 151.753 23.7978H153.877C153.913 24.2178 154.111 24.5718 154.471 24.8598C154.843 25.1358 155.305 25.2738 155.857 25.2738C156.433 25.2738 156.877 25.1658 157.189 24.9498C157.513 24.7218 157.675 24.4338 157.675 24.0858C157.675 23.7138 157.495 23.4378 157.135 23.2578C156.787 23.0778 156.229 22.8798 155.461 22.6638C154.717 22.4598 154.111 22.2618 153.643 22.0698C153.175 21.8778 152.767 21.5838 152.419 21.1878C152.083 20.7918 151.915 20.2698 151.915 19.6218C151.915 19.0938 152.071 18.6138 152.383 18.1818C152.695 17.7378 153.139 17.3898 153.715 17.1378C154.303 16.8858 154.975 16.7598 155.731 16.7598C156.859 16.7598 157.765 17.0478 158.449 17.6238C159.145 18.1878 159.517 18.9618 159.565 19.9458H157.513C157.477 19.5018 157.297 19.1478 156.973 18.8838C156.649 18.6198 156.211 18.4878 155.659 18.4878C155.119 18.4878 154.705 18.5898 154.417 18.7938C154.129 18.9978 153.985 19.2678 153.985 19.6038C153.985 19.8678 154.081 20.0898 154.273 20.2698C154.465 20.4498 154.699 20.5938 154.975 20.7018C155.251 20.7978 155.659 20.9238 156.199 21.0798C156.919 21.2718 157.507 21.4698 157.963 21.6738C158.431 21.8658 158.833 22.1538 159.169 22.5378C159.505 22.9218 159.679 23.4318 159.691 24.0678C159.691 24.6318 159.535 25.1358 159.223 25.5798C158.911 26.0238 158.467 26.3718 157.891 26.6238C157.327 26.8758 156.661 27.0018 155.893 27.0018ZM170.891 16.9218V26.8398H168.839V25.6698C168.515 26.0778 168.089 26.4018 167.561 26.6418C167.045 26.8698 166.493 26.9838 165.905 26.9838C165.125 26.9838 164.423 26.8218 163.799 26.4978C163.187 26.1738 162.701 25.6938 162.341 25.0578C161.993 24.4218 161.819 23.6538 161.819 22.7538V16.9218H163.853V22.4478C163.853 23.3358 164.075 24.0198 164.519 24.4998C164.963 24.9678 165.569 25.2018 166.337 25.2018C167.105 25.2018 167.711 24.9678 168.155 24.4998C168.611 24.0198 168.839 23.3358 168.839 22.4478V16.9218H170.891ZM172.914 21.8358C172.914 20.8398 173.118 19.9578 173.526 19.1898C173.946 18.4218 174.51 17.8278 175.218 17.4078C175.938 16.9758 176.73 16.7598 177.594 16.7598C178.374 16.7598 179.052 16.9158 179.628 17.2278C180.216 17.5278 180.684 17.9058 181.032 18.3618V16.9218H183.102V26.8398H181.032V25.3638C180.684 25.8318 180.21 26.2218 179.61 26.5338C179.01 26.8458 178.326 27.0018 177.558 27.0018C176.706 27.0018 175.926 26.7858 175.218 26.3538C174.51 25.9098 173.946 25.2978 173.526 24.5178C173.118 23.7258 172.914 22.8318 172.914 21.8358ZM181.032 21.8718C181.032 21.1878 180.888 20.5938 180.6 20.0898C180.324 19.5858 179.958 19.2018 179.502 18.9378C179.046 18.6738 178.554 18.5418 178.026 18.5418C177.498 18.5418 177.006 18.6738 176.55 18.9378C176.094 19.1898 175.722 19.5678 175.434 20.0718C175.158 20.5638 175.02 21.1518 175.02 21.8358C175.02 22.5198 175.158 23.1198 175.434 23.6358C175.722 24.1518 176.094 24.5478 176.55 24.8238C177.018 25.0878 177.51 25.2198 178.026 25.2198C178.554 25.2198 179.046 25.0878 179.502 24.8238C179.958 24.5598 180.324 24.1758 180.6 23.6718C180.888 23.1558 181.032 22.5558 181.032 21.8718ZM187.849 13.5198V26.8398H185.797V13.5198H187.849ZM191.587 15.6078C191.215 15.6078 190.903 15.4818 190.651 15.2298C190.399 14.9778 190.273 14.6658 190.273 14.2938C190.273 13.9218 190.399 13.6098 190.651 13.3578C190.903 13.1058 191.215 12.9798 191.587 12.9798C191.947 12.9798 192.253 13.1058 192.505 13.3578C192.757 13.6098 192.883 13.9218 192.883 14.2938C192.883 14.6658 192.757 14.9778 192.505 15.2298C192.253 15.4818 191.947 15.6078 191.587 15.6078ZM192.595 16.9218V26.8398H190.543V16.9218H192.595ZM197.107 25.1658H201.607V26.8398H194.731V25.1658L199.249 18.5958H194.731V16.9218H201.607V18.5958L197.107 25.1658ZM203.078 21.8358C203.078 20.8398 203.282 19.9578 203.69 19.1898C204.11 18.4218 204.674 17.8278 205.382 17.4078C206.102 16.9758 206.894 16.7598 207.758 16.7598C208.538 16.7598 209.216 16.9158 209.792 17.2278C210.38 17.5278 210.848 17.9058 211.196 18.3618V16.9218H213.266V26.8398H211.196V25.3638C210.848 25.8318 210.374 26.2218 209.774 26.5338C209.174 26.8458 208.49 27.0018 207.722 27.0018C206.87 27.0018 206.09 26.7858 205.382 26.3538C204.674 25.9098 204.11 25.2978 203.69 24.5178C203.282 23.7258 203.078 22.8318 203.078 21.8358ZM211.196 21.8718C211.196 21.1878 211.052 20.5938 210.764 20.0898C210.488 19.5858 210.122 19.2018 209.666 18.9378C209.21 18.6738 208.718 18.5418 208.19 18.5418C207.662 18.5418 207.17 18.6738 206.714 18.9378C206.258 19.1898 205.886 19.5678 205.598 20.0718C205.322 20.5638 205.184 21.1518 205.184 21.8358C205.184 22.5198 205.322 23.1198 205.598 23.6358C205.886 24.1518 206.258 24.5478 206.714 24.8238C207.182 25.0878 207.674 25.2198 208.19 25.2198C208.718 25.2198 209.21 25.0878 209.666 24.8238C210.122 24.5598 210.488 24.1758 210.764 23.6718C211.052 23.1558 211.196 22.5558 211.196 21.8718ZM218.355 18.5958V24.0858C218.355 24.4578 218.439 24.7278 218.607 24.8958C218.787 25.0518 219.087 25.1298 219.507 25.1298H220.767V26.8398H219.147C218.223 26.8398 217.515 26.6238 217.023 26.1918C216.531 25.7598 216.285 25.0578 216.285 24.0858V18.5958H215.115V16.9218H216.285V14.4558H218.355V16.9218H220.767V18.5958H218.355ZM223.703 15.6078C223.331 15.6078 223.019 15.4818 222.767 15.2298C222.515 14.9778 222.389 14.6658 222.389 14.2938C222.389 13.9218 222.515 13.6098 222.767 13.3578C223.019 13.1058 223.331 12.9798 223.703 12.9798C224.063 12.9798 224.369 13.1058 224.621 13.3578C224.873 13.6098 224.999 13.9218 224.999 14.2938C224.999 14.6658 224.873 14.9778 224.621 15.2298C224.369 15.4818 224.063 15.6078 223.703 15.6078ZM224.711 16.9218V26.8398H222.659V16.9218H224.711ZM231.707 27.0018C230.771 27.0018 229.925 26.7918 229.169 26.3718C228.413 25.9398 227.819 25.3398 227.387 24.5718C226.955 23.7918 226.739 22.8918 226.739 21.8718C226.739 20.8638 226.961 19.9698 227.405 19.1898C227.849 18.4098 228.455 17.8098 229.223 17.3898C229.991 16.9698 230.849 16.7598 231.797 16.7598C232.745 16.7598 233.603 16.9698 234.371 17.3898C235.139 17.8098 235.745 18.4098 236.189 19.1898C236.633 19.9698 236.855 20.8638 236.855 21.8718C236.855 22.8798 236.627 23.7738 236.171 24.5538C235.715 25.3338 235.091 25.9398 234.299 26.3718C233.519 26.7918 232.655 27.0018 231.707 27.0018ZM231.707 25.2198C232.235 25.2198 232.727 25.0938 233.183 24.8418C233.651 24.5898 234.029 24.2118 234.317 23.7078C234.605 23.2038 234.749 22.5918 234.749 21.8718C234.749 21.1518 234.611 20.5458 234.335 20.0538C234.059 19.5498 233.693 19.1718 233.237 18.9198C232.781 18.6678 232.289 18.5418 231.761 18.5418C231.233 18.5418 230.741 18.6678 230.285 18.9198C229.841 19.1718 229.487 19.5498 229.223 20.0538C228.959 20.5458 228.827 21.1518 228.827 21.8718C228.827 22.9398 229.097 23.7678 229.637 24.3558C230.189 24.9318 230.879 25.2198 231.707 25.2198ZM243.887 16.7598C244.667 16.7598 245.363 16.9218 245.975 17.2458C246.599 17.5698 247.085 18.0498 247.433 18.6858C247.781 19.3218 247.955 20.0898 247.955 20.9898V26.8398H245.921V21.2958C245.921 20.4078 245.699 19.7298 245.255 19.2618C244.811 18.7818 244.205 18.5418 243.437 18.5418C242.669 18.5418 242.057 18.7818 241.601 19.2618C241.157 19.7298 240.935 20.4078 240.935 21.2958V26.8398H238.883V16.9218H240.935V18.0558C241.271 17.6478 241.697 17.3298 242.213 17.1018C242.741 16.8738 243.299 16.7598 243.887 16.7598Z" fill="#B7F524"/>
<path d="M63.2578 13.8405V28.0762H65.801V13.8405H63.2578Z" fill="#B7F524"/>
<path d="M74.7676 28.03V16.4102H72.3095V28.03H74.7676Z" fill="#B7F524"/>
<path d="M78.9016 13.9473H74.7676V16.4053H78.9016V13.9473Z" fill="#B7F524"/>
<path d="M70.8565 13.9473H68.3984V16.4053H70.8565V13.9473Z" fill="#B7F524"/>
<path d="M86.2581 19.7363H79.3945V22.1693H86.2581V19.7363Z" fill="#B7F524"/>
</g>
<defs>
<filter id="filter0_f_1227_11770" x="0" y="0.980469" width="312.824" height="92.8613" filterUnits="userSpaceOnUse" color-interpolation-filters="sRGB">
<feFlood flood-opacity="0" result="BackgroundImageFix"/>
<feBlend mode="normal" in="SourceGraphic" in2="BackgroundImageFix" result="shape"/>
<feGaussianBlur stdDeviation="6" result="effect1_foregroundBlur_1227_11770"/>
</filter>
</defs>
</svg>
