<svg width="112" height="31" viewBox="0 0 112 31" fill="none" xmlns="http://www.w3.org/2000/svg">
<path d="M23.2503 10.54C21.927 10.54 20.7641 10.54 19.4408 10.54V17.063L23.0765 10.8207L23.2503 10.5534V10.54ZM19.4408 17.063C18.4116 17.063 16.7007 17.063 15.6046 17.063V23.6396L19.4408 17.063ZM15.6046 23.6396H11.8219V30.2695C12.3432 29.3739 12.664 28.8125 13.0249 28.211L15.5912 23.6396H15.6046ZM34.9193 30.2695H24.6003H12.3164H0.433594L7.9723 17.1968L15.4175 4.31111L17.5027 0.742188H17.5561L26.7122 16.4482L34.7856 30.0423L34.9193 30.2561V30.2695Z" fill="#9C9C9C"/>
<path d="M40.4865 8.67814C40.4865 6.23201 40.2593 5.96461 38.9628 5.85768L38.4147 5.81762C38.2811 5.72405 38.3212 5.33637 38.4548 5.26953C39.738 5.30963 40.4865 5.33643 41.4088 5.33643C42.3311 5.33643 43.0395 5.30963 43.9217 5.26953C44.0554 5.33637 44.0955 5.73742 43.9618 5.81762L43.6277 5.85768C42.3311 6.03144 42.2776 6.33894 42.2776 8.67814V16.8586C42.2776 18.5963 42.1841 20.1202 41.7697 21.136C41.0479 22.9005 39.4707 24.3173 37.4256 24.3173C37.1582 24.3173 36.4766 24.2906 36.4766 23.8495C36.4766 23.4752 36.8107 22.8336 37.2652 22.8336C37.5325 22.8336 37.7999 22.8737 38.0806 22.9673C38.388 23.0609 38.6954 23.1277 39.0029 23.1277C39.4707 23.1277 39.7246 22.8604 39.885 22.5529C40.3929 21.5103 40.4598 18.2087 40.4598 17.019V8.67814H40.4865Z" fill="#9C9C9C"/>
<path d="M53.0577 14.7767C52.8973 14.2955 52.8171 14.2286 52.1487 14.2286H48.8205C48.2725 14.2286 48.1388 14.2955 47.9784 14.7633L47.2031 17.0758C46.8689 18.0649 46.7219 18.6664 46.7219 18.907C46.7219 19.1744 46.8288 19.3081 47.3635 19.3482L48.0853 19.415C48.2457 19.5219 48.2457 19.8829 48.0452 19.9631C47.4704 19.923 46.7887 19.9229 45.7461 19.8962C45.0243 19.8962 44.2224 19.9363 43.6343 19.9631C43.5006 19.8695 43.4605 19.5219 43.5941 19.415L44.3159 19.3482C44.8506 19.3081 45.3318 19.0675 45.6392 18.2654C46.0402 17.2496 46.6551 15.8193 47.5774 13.3465L49.823 7.3982C50.1304 6.60956 50.264 6.18184 50.1972 5.8343C50.7319 5.6739 51.1061 5.28626 51.3467 4.99219C51.4804 4.99219 51.6274 5.03224 51.6809 5.19264C51.9616 6.16842 52.3225 7.17096 52.6567 8.14674L55.6775 17.009C56.3191 18.907 56.5998 19.2412 57.5488 19.3482L58.1369 19.415C58.2973 19.5219 58.2439 19.8829 58.1369 19.9631C57.228 19.923 56.4661 19.8962 55.4636 19.8962C54.4077 19.8962 53.5656 19.9363 52.924 19.9631C52.7503 19.8695 52.7235 19.5219 52.8839 19.415L53.5255 19.3482C53.9933 19.3081 54.3007 19.1744 54.3007 18.9472C54.3007 18.7066 54.1938 18.3056 54.02 17.7843L53.0443 14.7901L53.0577 14.7767ZM48.6868 12.8118C48.513 13.3197 48.5264 13.3465 49.1547 13.3465H51.868C52.5096 13.3465 52.5497 13.2529 52.3492 12.6647L51.1596 9.06905C50.9859 8.53438 50.7854 7.94627 50.6517 7.67893H50.6116C50.5447 7.78587 50.3309 8.3205 50.0769 8.97548L48.6868 12.8118Z" fill="#9C9C9C"/>
<path d="M64.4342 8.638C64.4342 6.32554 64.3941 5.96461 63.1109 5.85768L62.5629 5.81762C62.4292 5.72405 62.4693 5.33637 62.603 5.26953C63.6857 5.30963 64.3941 5.33643 65.3832 5.33643C66.2387 5.33643 66.9872 5.30963 67.9363 5.26953C68.0699 5.33637 68.11 5.73742 67.9763 5.81762L67.562 5.85768C66.2788 5.99134 66.2387 6.32554 66.2387 8.638V11.1777C66.2387 11.5921 66.2788 12.0198 66.5194 12.0198C66.7199 12.0198 66.9872 11.8862 67.1342 11.7793C67.4416 11.5119 68.0164 10.9371 68.257 10.7232L70.6363 8.35735C71.0507 7.95634 72.1333 6.83345 72.3606 6.52602C72.4675 6.36561 72.521 6.25875 72.521 6.17855C72.521 6.09835 72.4274 6.0181 72.1467 5.96463L71.5452 5.831C71.3848 5.67059 71.4115 5.38985 71.5853 5.28291C72.3606 5.32301 73.2427 5.34981 74.0046 5.34981C74.7665 5.34981 75.5284 5.32301 76.1834 5.28291C76.3438 5.38985 76.3572 5.69733 76.2235 5.831C75.6488 5.8711 74.7933 6.09828 74.1784 6.44582C73.5635 6.79336 72.3205 7.83601 71.0907 8.99893L69.1125 10.8702C68.8051 11.1777 68.6046 11.3782 68.6046 11.552C68.6046 11.7124 68.7382 11.8861 69.0189 12.2337C71.1175 14.6397 72.815 16.618 74.5259 18.4359C75.0606 18.9706 75.5418 19.2513 76.2903 19.3448L76.8919 19.4117C77.0523 19.5186 76.9987 19.8929 76.8517 19.9597C76.277 19.9196 75.4215 19.8928 74.3789 19.8928C73.47 19.8928 72.7081 19.9196 71.6922 19.9597C71.5319 19.9196 71.465 19.5453 71.5987 19.4117L72.1066 19.3181C72.414 19.278 72.6413 19.2112 72.6413 19.1042C72.6413 18.9706 72.4808 18.7968 72.3338 18.5963C71.9195 18.0616 71.3447 17.4735 70.5026 16.5245L68.7382 14.5461C67.4818 13.1292 67.1343 12.6882 66.5996 12.6882C66.2654 12.6882 66.2253 12.9689 66.2253 13.7441V16.5913C66.2253 18.9037 66.2654 19.2112 67.5085 19.3448L68.11 19.4117C68.2437 19.5052 68.2036 19.8929 68.0699 19.9597C66.9872 19.9196 66.2387 19.8928 65.3832 19.8928C64.4743 19.8928 63.7258 19.9196 62.8302 19.9597C62.6966 19.8929 62.6564 19.5587 62.7901 19.4117L63.2312 19.3448C64.3941 19.1711 64.4476 18.9037 64.4476 16.5913V8.65138L64.4342 8.638Z" fill="#9C9C9C"/>
<path d="M86.0327 15.4683C86.0327 18.2219 84.1347 20.2135 81.3812 20.2135C78.8415 20.2135 76.8633 18.4223 76.8633 15.6687C76.8633 12.9152 78.9618 10.9102 81.555 10.9102C84.1481 10.9102 86.0327 12.7682 86.0327 15.4683ZM81.2876 11.5651C79.8307 11.5651 78.7479 12.9553 78.7479 15.3747C78.7479 17.3797 79.6569 19.5452 81.595 19.5452C83.5332 19.5452 84.1347 17.5133 84.1347 15.8158C84.1347 13.9444 83.3862 11.5651 81.2876 11.5651Z" fill="#9C9C9C"/>
<path d="M88.9796 13.5589C88.9796 12.7034 88.9796 12.5832 88.3781 12.1955L88.1777 12.0618C88.0841 11.9683 88.0841 11.7277 88.2044 11.6608C88.7123 11.4871 89.8752 10.9123 90.4366 10.5781C90.5436 10.6049 90.6104 10.645 90.6104 10.7385V12.0218C90.6104 12.1287 90.6371 12.1955 90.6772 12.2222C91.4525 11.5806 92.2812 10.8989 93.0966 10.8989C93.6446 10.8989 94.0857 11.2465 94.0857 11.7812C94.0857 12.503 93.4975 12.797 93.1366 12.797C92.9228 12.797 92.8025 12.7302 92.6554 12.6366C92.3213 12.4227 91.9871 12.289 91.6797 12.289C91.3322 12.289 91.0648 12.4896 90.8911 12.7302C90.6772 13.0376 90.6104 13.6792 90.6104 14.4278V17.4219C90.6104 19.0126 90.6505 19.2799 91.4926 19.3334L92.2812 19.4002C92.4416 19.5071 92.3881 19.8815 92.2411 19.9483C91.1985 19.9082 90.5702 19.8815 89.795 19.8815C89.0197 19.8815 88.3381 19.9082 87.7633 19.9483C87.6029 19.8815 87.5628 19.5071 87.7232 19.4002L88.1375 19.3334C88.9529 19.1997 88.9796 18.9992 88.9796 17.4219V13.5589Z" fill="#9C9C9C"/>
<path d="M96.7844 14.2519C96.2096 14.2519 96.1829 14.292 96.1829 14.8534C96.1829 17.0856 97.4794 18.9837 99.8453 18.9837C100.567 18.9837 101.195 18.7565 101.877 17.901C102.091 17.8341 102.251 17.9678 102.278 18.1683C101.556 19.6654 99.9656 20.2135 98.8161 20.2135C97.3858 20.2135 96.2631 19.5986 95.6215 18.7565C94.9532 17.901 94.6992 16.8584 94.6992 15.896C94.6992 13.1825 96.4903 10.9102 99.1368 10.9102C101.035 10.9102 102.265 12.2068 102.265 13.5301C102.265 13.8375 102.225 14.0113 102.171 14.1048C102.104 14.2385 101.797 14.2652 100.875 14.2652H96.7977L96.7844 14.2519ZM98.1477 13.5969C99.7784 13.5969 100.26 13.5034 100.447 13.3831C100.514 13.343 100.58 13.2493 100.58 12.9686C100.58 12.3537 100.166 11.5785 98.8829 11.5785C97.5997 11.5785 96.4636 12.7681 96.4369 13.4899C96.4369 13.53 96.4368 13.5969 96.5972 13.5969H98.1611H98.1477Z" fill="#9C9C9C"/>
<path d="M107.866 15.3145C108.2 15.2075 108.24 15.007 108.24 14.6729L108.267 13.657C108.293 12.8416 108.026 11.7322 106.663 11.7322C106.048 11.7322 105.299 12.0396 105.246 12.7213C105.219 13.0688 105.206 13.3362 105.032 13.4698C104.698 13.7372 104.11 13.8842 103.776 13.8842C103.575 13.8842 103.468 13.7773 103.468 13.5768C103.468 12.4272 105.954 10.8633 107.572 10.8633C109.189 10.8633 109.938 11.7857 109.871 13.4432L109.737 17.2794C109.697 18.2953 109.897 19.1909 110.753 19.1909C110.98 19.1909 111.167 19.124 111.301 19.0572C111.408 18.9903 111.515 18.8968 111.582 18.8968C111.675 18.8968 111.742 19.0305 111.742 19.1775C111.742 19.2844 110.967 20.1532 109.884 20.1532C109.349 20.1532 108.828 19.9527 108.454 19.4715C108.36 19.3379 108.24 19.1641 108.106 19.1641C107.946 19.1641 107.692 19.3646 107.251 19.6052C106.77 19.8726 106.275 20.1532 105.66 20.1532C105.045 20.1532 104.497 19.9795 104.123 19.6453C103.709 19.271 103.441 18.723 103.441 18.1082C103.441 17.2527 103.856 16.7447 105.273 16.2368L107.892 15.2877L107.866 15.3145ZM106.502 19.1909C106.943 19.1909 107.625 18.8567 107.852 18.6428C108.12 18.3754 108.12 18.0681 108.133 17.6002L108.173 16.3036C108.173 16.063 108.08 16.0229 107.959 16.0229C107.839 16.0229 107.451 16.1165 107.05 16.2502C105.754 16.6913 105.112 17.0254 105.112 17.8809C105.112 18.2551 105.38 19.2043 106.502 19.2043" fill="#9C9C9C"/>
</svg>
