<svg width="1180" height="278" viewBox="0 0 1180 278" fill="none" xmlns="http://www.w3.org/2000/svg">
<path d="M1097.96 99.224C1097.51 99.5227 1097.06 100.045 1096.62 100.792C1096.17 101.539 1095.94 102.211 1095.94 102.808L1097.29 174.712C1097.29 175.16 1097.29 175.757 1097.29 176.504C1097.44 177.251 1097.51 178.072 1097.51 178.968C1097.51 179.715 1097.36 180.387 1097.06 180.984C1096.77 181.432 1096.17 181.656 1095.27 181.656L1043.08 181.432C1042.48 181.432 1041.96 181.357 1041.51 181.208C1041.21 180.909 1041.21 180.387 1041.51 179.64C1041.96 178.595 1042.93 177.848 1044.42 177.4C1045.92 176.803 1047.56 176.429 1049.35 176.28C1051.29 175.981 1053.16 175.832 1054.95 175.832C1056.74 175.683 1058.09 175.608 1058.98 175.608C1060.63 175.608 1061.45 174.787 1061.45 173.144V26.872C1061.45 25.976 1061.22 25.4533 1060.78 25.304C1060.48 25.0053 1059.95 24.7067 1059.21 24.408C1058.31 24.2587 1057.04 24.1093 1055.4 23.96C1053.91 23.8107 1052.34 23.6613 1050.7 23.512C1049.05 23.3627 1047.49 23.2133 1045.99 23.064C1044.65 22.7653 1043.68 22.4667 1043.08 22.168C1042.33 21.5707 1042.03 20.8987 1042.18 20.152C1042.33 19.256 1042.86 18.808 1043.75 18.808H1131.78C1137.16 18.808 1142.46 19.6293 1147.69 21.272C1152.91 22.7653 1157.54 25.08 1161.58 28.216C1165.61 31.2027 1168.89 35.0107 1171.43 39.64C1173.97 44.12 1175.24 49.3467 1175.24 55.32C1175.24 64.5787 1171.73 72.344 1164.71 78.616C1162.32 80.7067 1159.78 82.648 1157.1 84.44C1154.41 86.0827 1151.57 87.5013 1148.58 88.696C1147.39 89.2933 1146.12 89.7413 1144.78 90.04C1143.58 90.3387 1142.39 90.8613 1141.19 91.608C1140.45 92.056 1139.62 92.728 1138.73 93.624C1137.98 94.52 1137.83 95.416 1138.28 96.312C1138.43 96.9093 1139.62 97.656 1141.86 98.552C1144.25 99.2987 1146.87 100.12 1149.7 101.016C1152.54 101.763 1155.23 102.509 1157.77 103.256C1160.46 104.003 1162.25 104.525 1163.14 104.824C1170.91 107.811 1176.58 111.992 1180.17 117.368C1183.75 122.595 1185.54 129.315 1185.54 137.528C1185.54 145.144 1183.6 151.715 1179.72 157.24C1175.99 162.765 1171.13 167.32 1165.16 170.904C1159.34 174.488 1152.91 177.176 1145.9 178.968C1138.88 180.611 1132.16 181.432 1125.74 181.432H1106.02C1104.53 181.432 1103.71 180.835 1103.56 179.64C1103.41 178.445 1104.16 177.624 1105.8 177.176C1106.55 176.877 1107.29 176.803 1108.04 176.952C1108.94 176.952 1109.76 176.952 1110.5 176.952C1112 176.653 1113.49 176.429 1114.98 176.28C1116.48 175.981 1117.97 175.683 1119.46 175.384C1129.32 173.144 1136.79 168.888 1141.86 162.616C1147.09 156.195 1149.7 147.832 1149.7 137.528C1149.7 131.555 1148.81 126.104 1147.02 121.176C1145.37 116.099 1142.16 111.619 1137.38 107.736C1134.7 105.496 1131.71 103.853 1128.42 102.808C1125.29 101.613 1122 100.792 1118.57 100.344C1115.13 99.7467 1111.62 99.448 1108.04 99.448C1104.61 99.2987 1101.25 99.224 1097.96 99.224ZM1097.29 90.936C1097.29 91.2347 1097.29 91.5333 1097.29 91.832C1097.44 92.1307 1097.66 92.3547 1097.96 92.504C1099.15 93.2507 1100.05 93.624 1100.65 93.624C1101.39 93.624 1102.37 93.624 1103.56 93.624C1115.21 93.624 1124.54 90.5627 1131.56 84.44C1138.73 78.168 1142.31 68.984 1142.31 56.888C1142.31 50.616 1141.27 45.3147 1139.18 40.984C1137.09 36.6533 1134.17 33.144 1130.44 30.456C1126.86 27.768 1122.6 25.9013 1117.67 24.856C1112.74 23.6613 1107.44 23.064 1101.77 23.064C1101.02 23.064 1100.05 23.3627 1098.86 23.96C1097.81 24.5573 1097.29 25.304 1097.29 26.2V90.936ZM1353.45 180.536C1353 181.133 1352.4 181.432 1351.65 181.432H1279.08C1277.44 181.432 1276.84 180.76 1277.29 179.416C1277.44 178.371 1278.33 177.699 1279.97 177.4C1281.77 176.952 1283.63 176.728 1285.57 176.728C1287.66 176.728 1289.68 176.877 1291.62 177.176C1293.56 177.325 1294.91 177.4 1295.65 177.4C1297.45 177.4 1298.57 176.504 1299.01 174.712C1299.01 174.413 1298.86 173.965 1298.57 173.368C1295.58 168.589 1292.59 163.811 1289.61 159.032C1286.77 154.104 1284.08 149.101 1281.54 144.024L1270.57 121.848C1269.22 119.011 1267.58 116.323 1265.64 113.784C1263.85 111.245 1262.28 108.557 1260.93 105.72C1254.36 92.728 1247.64 79.96 1240.77 67.416C1233.9 54.872 1227.11 42.104 1220.39 29.112C1219.64 27.6187 1218.82 26.4987 1217.93 25.752C1217.18 25.1547 1215.84 24.7067 1213.89 24.408C1212.1 24.1093 1210.16 23.8853 1208.07 23.736C1206.13 23.4373 1204.34 23.064 1202.69 22.616C1201.2 22.0187 1200.45 21.1973 1200.45 20.152C1200.45 19.256 1200.98 18.808 1202.02 18.808H1275.27C1276.17 18.808 1276.61 19.256 1276.61 20.152C1276.61 21.1973 1276.24 21.8693 1275.49 22.168C1274.6 22.616 1273.33 22.9147 1271.69 23.064C1270.19 23.2133 1268.55 23.3627 1266.76 23.512C1265.12 23.512 1263.47 23.512 1261.83 23.512C1260.19 23.3627 1258.84 23.288 1257.8 23.288C1256.75 23.288 1256.01 23.8107 1255.56 24.856C1255.41 26.648 1256.16 29.1867 1257.8 32.472C1259.44 35.608 1261.31 38.968 1263.4 42.552C1265.64 45.9867 1267.8 49.4213 1269.89 52.856C1272.13 56.1413 1273.7 58.7547 1274.6 60.696C1275.05 61.592 1275.72 63.16 1276.61 65.4C1277.51 67.64 1278.56 69.9547 1279.75 72.344C1280.94 74.7333 1282.06 76.8987 1283.11 78.84C1284.3 80.632 1285.35 81.528 1286.25 81.528C1286.54 81.528 1286.84 81.304 1287.14 80.856C1288.34 78.7653 1289.46 76.7493 1290.5 74.808C1291.7 72.8667 1292.97 70.8507 1294.31 68.76C1295.8 66.52 1297.82 63.5333 1300.36 59.8C1303.05 55.9173 1305.58 51.96 1307.97 47.928C1310.51 43.7467 1312.68 39.7147 1314.47 35.832C1316.26 31.9493 1317.16 28.7387 1317.16 26.2C1317.16 25.4533 1317.01 25.08 1316.71 25.08C1316.41 24.9307 1315.96 24.7813 1315.37 24.632C1314.47 24.4827 1313.05 24.3333 1311.11 24.184C1309.17 24.0347 1307.15 23.8853 1305.06 23.736C1302.97 23.4373 1301.1 23.064 1299.46 22.616C1297.82 22.168 1296.85 21.496 1296.55 20.6C1296.1 19.4053 1296.62 18.808 1298.12 18.808C1299.16 18.808 1301.03 18.808 1303.72 18.808C1306.56 18.808 1309.77 18.808 1313.35 18.808C1316.93 18.808 1320.67 18.808 1324.55 18.808C1328.43 18.808 1332.02 18.808 1335.3 18.808C1338.59 18.808 1341.35 18.8827 1343.59 19.032C1345.98 19.1813 1347.4 19.3307 1347.85 19.48V19.704C1348.74 20.6 1348.67 21.3467 1347.62 21.944C1346.88 22.392 1345.68 22.7653 1344.04 23.064C1342.4 23.2133 1340.6 23.4373 1338.66 23.736C1336.87 23.8853 1335 24.1093 1333.06 24.408C1331.12 24.7067 1329.48 25.2293 1328.13 25.976C1326.94 26.5733 1325.89 27.32 1325 28.216C1324.25 28.9627 1323.5 29.784 1322.76 30.68C1321.56 32.1733 1320.52 33.7413 1319.62 35.384C1318.73 37.0267 1317.76 38.6693 1316.71 40.312L1307.3 55.32C1304.76 59.5013 1302.08 63.608 1299.24 67.64C1296.55 71.672 1293.94 75.7787 1291.4 79.96C1289.76 82.7973 1289.31 85.8587 1290.05 89.144C1290.2 90.04 1290.65 91.2347 1291.4 92.728C1292.29 94.2213 1293.19 95.864 1294.09 97.656C1295.13 99.2987 1296.1 100.941 1297 102.584C1298.04 104.077 1298.79 105.272 1299.24 106.168C1303.72 114.68 1308.27 123.192 1312.9 131.704C1317.53 140.067 1322.09 148.504 1326.57 157.016C1327.01 157.763 1327.69 159.181 1328.58 161.272C1329.63 163.363 1330.75 165.453 1331.94 167.544C1333.14 169.635 1334.33 171.501 1335.53 173.144C1336.72 174.787 1337.77 175.608 1338.66 175.608C1339.11 175.608 1340.38 175.757 1342.47 176.056C1344.71 176.205 1346.88 176.504 1348.97 176.952C1351.06 177.251 1352.7 177.699 1353.89 178.296C1355.09 178.893 1354.94 179.64 1353.45 180.536ZM1228.68 174.04C1228.98 174.787 1229.5 175.309 1230.25 175.608C1231.29 175.907 1232.64 176.131 1234.28 176.28C1236.07 176.28 1237.94 176.355 1239.88 176.504C1241.82 176.504 1243.61 176.653 1245.25 176.952C1246.9 177.101 1248.17 177.475 1249.06 178.072C1249.81 178.52 1250.33 179.192 1250.63 180.088C1250.93 180.984 1250.33 181.432 1248.84 181.432H1204.04C1202.54 181.432 1201.8 180.611 1201.8 178.968C1201.8 177.773 1202.54 177.101 1204.04 176.952C1205.68 176.653 1207.55 176.429 1209.64 176.28C1211.73 175.981 1213.89 175.533 1216.13 174.936C1218.37 174.339 1220.09 173.069 1221.29 171.128L1253.99 120.504C1255.18 118.563 1256.23 118.115 1257.13 119.16C1258.17 120.056 1258.32 121.325 1257.57 122.968L1255.56 126.328C1250.78 134.243 1246.22 142.157 1241.89 150.072C1237.56 157.987 1233.16 165.976 1228.68 174.04Z" fill="#E0E0E0"/>
<path d="M75.4032 91.5104C81.2996 93.7206 86.7117 95.131 91.5341 97.678C108.486 106.624 115.878 121.148 114.909 139.988C114.046 156.87 106.065 169.52 90.3759 175.983C82.0999 179.393 72.9815 182.108 64.1368 182.508C43.1624 183.455 22.1248 182.803 -0.0078125 181.729C1.02406 180.698 1.92958 178.93 3.12993 178.719C18.1026 176.046 18.1026 176.088 18.1026 160.785C18.1026 118.117 18.1026 75.4496 18.1026 32.782C18.1026 21.1205 16.1021 19.0787 4.62509 18.2367C3.15099 18.1314 1.78217 16.658 0.350185 15.837C1.74006 15.2266 3.12993 14.111 4.5198 14.0899C22.2301 14.0268 39.9826 13.3742 57.6087 14.4477C67.3799 15.0582 77.4038 17.4999 86.5222 21.1205C101.874 27.2038 109.371 39.7704 108.17 55.9155C107.012 71.5554 98.7362 82.6064 84.0162 88.5845C81.4471 89.616 78.7726 90.3737 75.4243 91.5104H75.4032ZM48.7008 95.1941C44.6576 95.1941 41.4988 95.3204 38.361 95.152C35.2233 94.9836 34.023 96.1413 34.044 99.3619C34.1283 123.632 34.1283 147.902 34.044 172.194C34.044 175.414 35.2233 176.551 38.34 176.404C46.3844 176.025 54.492 176.319 62.4521 175.351C74.603 173.857 85.5956 169.541 92.7555 158.806C105.222 140.177 98.1045 111.613 78.3725 101.046C68.8329 95.9308 58.4299 94.8994 48.7008 95.1731V95.1941ZM34.0861 87.6583C47.8374 88.0583 60.7464 88.6056 73.0868 83.5116C85.7851 78.2702 93.261 66.5456 92.8187 52.4423C92.3765 38.3601 85.1744 28.0458 71.023 24.6779C60.2831 22.1309 48.9957 21.8783 37.9609 20.6784C33.9387 20.2364 34.0861 23.0991 34.0861 25.8356C34.0861 42.7595 34.0861 59.6834 34.0861 76.6073C34.0861 80.0594 34.0861 83.5116 34.0861 87.6373V87.6583Z" fill="#E0E0E0"/>
<path d="M583.018 76.3972C583.249 74.5238 583.481 73.5555 583.481 72.5662C583.481 54.2109 583.586 35.8556 583.46 17.5214C583.397 8.55425 579.796 5.27051 570.614 4.57587C568.192 4.38643 564.528 5.9862 564.065 1.75522C564.023 1.41843 568.403 0.155452 570.741 0.113353C580.154 -0.0760935 589.567 0.0291546 599.549 0.0291546V6.80713C599.549 59.0733 599.549 111.319 599.549 163.585C599.549 175.478 601.297 177.288 613.237 178.656C614.837 178.846 616.29 180.151 617.828 180.951C617.596 181.498 617.364 182.066 617.154 182.614H583.481V167.9C577.142 174.552 570.656 179.898 562.465 183.014C537.384 192.528 508.828 179.982 499.057 154.533C491.328 134.389 491.286 113.739 498.552 93.5105C512.198 55.3897 558.484 50.022 583.018 76.4182V76.3972ZM583.502 121.275C583.502 113.402 583.228 105.53 583.586 97.6784C583.944 89.9952 580.68 84.1855 575.226 79.302C554.062 60.3784 522.327 69.1772 513.672 96.7311C508.428 113.423 508.47 130.642 512.914 147.482C517.925 166.363 533.551 176.951 552.546 175.541C566.824 174.488 585.145 161.417 583.565 142.767C582.976 135.652 583.46 128.432 583.46 121.275H583.502Z" fill="#E0E0E0"/>
<path d="M377.792 62.9882V82.417C379.603 80.1858 380.635 78.9649 381.625 77.7019C396.05 59.3677 421.742 54.2316 441.01 66.2509C453.161 73.8288 458.342 85.7639 458.615 99.5514C459.037 121.233 458.742 142.914 458.763 164.595C458.763 174.783 461.353 177.519 471.566 178.466C473.904 178.677 477.463 177.73 476.284 182.634H424.079C426.08 180.677 427.006 178.93 428.249 178.698C442.611 176.067 443.243 175.393 443.243 160.89C443.243 142.535 443.327 124.158 443.179 105.803C443.137 101.467 442.779 97.0255 441.874 92.7945C437.473 72.3343 415.298 66.2509 398.451 74.5655C392.407 77.5546 386.89 82.5223 382.594 87.7637C379.688 91.321 378.171 96.9413 378.045 101.699C377.561 122.327 377.834 142.956 377.834 163.605C377.834 174.825 380.235 177.456 391.354 178.466C393.839 178.698 396.682 178.382 395.334 182.655H343.656C345.109 180.782 345.762 179.456 346.815 178.74C347.552 178.235 348.858 178.509 349.911 178.424C359.64 177.561 362.314 174.635 362.335 164.7C362.377 145.819 362.335 126.937 362.335 108.034C362.335 98.7726 362.398 89.4897 362.314 80.2279C362.23 71.4291 359.155 68.2086 350.521 67.5771C349.995 67.535 349.384 67.6402 348.963 67.4297C347.489 66.6298 346.078 65.7247 344.625 64.8617C346.036 64.2302 347.426 63.0724 348.858 63.0514C358.292 62.883 367.747 62.9672 377.792 62.9672V62.9882Z" fill="#E0E0E0"/>
<path d="M241.141 104.075H236.066C236.066 91.1501 236.023 78.4361 236.171 65.7221C236.171 64.817 237.624 63.3435 238.572 63.1962C239.33 63.0909 240.825 64.4591 241.099 65.4485C242.741 71.1108 243.731 71.7002 248.953 68.4375C263.547 59.323 279.046 57.4917 295.24 62.9436C307.918 67.2166 314.572 77.0468 317.183 89.5713C318.447 95.6757 318.868 102.054 318.931 108.327C319.142 127.376 318.952 146.447 319.058 165.518C319.079 169.728 317.878 175.096 323.269 176.822C329.229 178.717 331.293 173.412 333.82 169.476C334.009 169.202 334.304 169.013 334.662 168.676C338.347 169.118 339.042 170.907 337.442 174.338C333.251 183.305 324.07 187.873 314.404 185.579C306.696 183.747 303.853 179.39 302.885 167.918C302.211 167.223 301.516 166.55 300.842 165.855C300.484 167.202 300.547 168.907 299.726 169.876C287.217 184.674 268.18 190.02 249.838 183.663C239.477 180.064 231.791 173.391 229.832 162.087C227.474 148.616 231.58 137.186 242.257 128.471C251.291 121.104 262.178 117.736 273.213 114.768C280.647 112.768 288.102 110.81 295.451 108.579C300.905 106.937 303.411 103.485 303.222 97.2966C302.716 80.2464 294.672 69.6163 279.362 66.943C265.316 64.5012 248.89 74.4367 244.236 88.6452C242.636 93.5287 242.152 98.7911 241.12 104.096L241.141 104.075ZM303.053 112.957C292.587 116.241 282.753 119.104 273.045 122.409C264.684 125.272 256.956 129.292 251.459 136.617C243.057 147.837 243.984 164.592 253.86 171.56C263.168 178.127 273.445 177.832 283.384 173.412C293.577 168.886 301.874 161.645 302.843 149.921C303.832 137.775 303.074 125.503 303.074 112.957H303.053Z" fill="#E0E0E0"/>
<path d="M165.125 81.2605C183.088 60.2741 203.03 54.296 219.372 64.7366C217.392 69.5149 215.37 74.4194 213.286 79.4292C212.043 79.1135 211.117 79.1556 210.78 78.7346C202.841 68.5887 187.742 70.1463 177.991 77.4927C169.905 83.576 165.04 91.3012 165.188 101.973C165.462 122.77 165.251 143.567 165.272 164.364C165.272 174.595 168.262 177.647 178.644 178.32C180.034 178.405 181.529 178.236 182.814 178.657C184.499 179.204 186.036 180.215 187.636 181.036C185.909 181.688 184.204 182.846 182.477 182.888C170.031 183.057 157.607 182.972 145.161 182.972C140.97 182.972 136.801 182.972 132.61 182.972C132.273 182.572 131.915 182.172 131.578 181.773C132.547 180.741 133.347 179.415 134.547 178.762C135.516 178.215 136.948 178.51 138.169 178.384C146.656 177.584 149.71 174.489 149.731 166.006C149.815 137.337 149.815 108.688 149.731 80.0186C149.71 71.3883 146.488 68.294 137.664 67.6204C136.611 67.5362 135.474 67.6204 134.547 67.2204C133.6 66.8205 132.863 65.9154 132.02 65.2418C132.968 64.505 133.895 63.1579 134.842 63.1579C144.803 63.0105 154.743 63.0526 165.104 63.0526V81.2816L165.125 81.2605Z" fill="#E0E0E0"/>
<g clip-path="url(#clip0_826_24183)">
<path fill-rule="evenodd" clip-rule="evenodd" d="M645.754 185.856C639.429 185.856 635.763 183.77 634.772 179.564C633.781 175.375 634.722 170.209 637.579 164.1C638.422 162.295 639.462 160.424 640.7 158.487C641.939 156.566 643.26 154.579 644.664 152.543C651.368 143.486 660.005 133.336 670.541 122.11C681.077 110.884 690.902 100.85 700.001 92.0085C705.253 87.0247 709.645 83.4482 713.13 81.2958C716.614 79.1433 720.066 77.5538 723.484 76.5272C725.937 75.7906 728.721 74.9773 731.831 74.0689L731.832 74.0686L731.837 74.0673C733.059 73.7102 734.332 73.3384 735.655 72.9508C736.992 72.5038 738.28 72.156 739.519 71.9242C740.757 71.709 742.095 71.4772 743.565 71.2454C736.926 75.7821 729.809 81.2295 722.229 87.5711C714.633 93.9126 705.534 102.655 694.932 113.748C689.234 119.643 683.289 126.216 677.097 133.468C670.888 140.721 665.289 147.526 660.302 153.867C655.315 160.209 651.847 165.209 649.932 168.835C647.702 173.14 646.844 176.203 647.355 178.008C647.867 179.829 649.255 180.723 651.517 180.723C655.365 180.723 659.658 179.366 664.447 176.65C669.22 173.935 673.645 171.104 677.741 168.156C685.354 162.494 692.95 156.251 700.53 149.463C707.788 142.963 715.182 136.022 722.727 128.685C730.1 120.094 737.124 111.503 743.804 102.913C748.791 96.5713 753.365 90.3953 757.527 84.3849C761.688 78.3746 764.066 74.467 764.694 72.6622L765.008 71.9834C765.85 70.1786 766.956 69.715 768.36 70.6257C770.556 72.2152 771.514 74.5332 771.217 77.5964C770.919 80.6595 769.879 84.12 768.079 87.9614C766.064 92.2663 763.356 96.8693 759.954 101.737C756.552 106.622 753.151 110.976 749.782 114.834C754.62 110.761 759.707 106.622 765.057 102.416C770.408 98.227 776.006 94.2035 781.868 90.3456C788.837 85.5771 795.855 81.4543 802.923 77.9275C809.991 74.4173 816.679 72.6622 823.02 72.6622C829.362 72.6622 832.945 74.02 834.514 76.7354C836.066 79.4508 835.802 83.0769 833.688 87.6137C831.476 92.3822 827.578 97.8131 822.013 103.939C815.787 110.976 808.951 117.997 801.503 125.017C794.039 132.054 787.086 138.843 780.63 145.416C779.325 146.774 777.261 148.876 774.47 151.708C771.679 154.539 768.921 157.652 766.213 161.063C765.024 162.652 763.802 164.291 762.564 165.997C761.308 167.702 760.268 169.457 759.426 171.262C758.369 173.53 757.89 175.633 758.022 177.554C758.138 179.491 759.674 180.451 762.613 180.451C766.461 180.451 770.738 179.143 775.461 176.544C780.184 173.944 784.461 171.163 788.325 168.215C796.169 162.553 803.898 156.261 811.543 149.34C813.189 147.851 814.841 146.342 816.498 144.815C835.49 119.34 858.878 99.0116 886.63 83.8443C892.41 80.6652 898.9 78.1154 906.133 76.1947C913.349 74.2741 920.136 73.2972 926.478 73.2972C935.296 73.2972 942.083 75.2344 946.839 79.0757L948.325 78.0492C957.111 70.3499 965.318 63.876 972.964 58.6603C980.593 53.4447 988.388 50.0505 996.381 48.4609C984.788 56.8556 972.485 67.4524 959.522 80.2513C946.542 93.0668 933.843 106.611 921.424 120.883C909.006 135.172 897.43 148.716 886.713 161.515C875.995 174.331 866.929 185.027 859.531 193.653C874.922 187.312 890.164 178.752 905.241 167.973C920.318 157.21 934.322 145.471 947.252 132.772C950.307 129.593 952.751 128.003 954.551 128.003C954.997 128.003 955.063 128.351 954.749 129.03C954.32 129.94 953.296 131.182 951.645 132.772C944.197 140.024 936.535 147.11 928.674 154.031C920.813 160.952 912.573 167.344 903.953 173.238C896.439 178.686 888.513 183.669 880.19 188.206C871.85 192.743 863.164 196.7 854.131 200.111C842.786 212.811 831.59 224.484 820.509 235.13C809.445 245.776 798.248 254.734 786.953 261.986C775.657 269.238 763.883 274.106 751.646 276.606V276.64C747.6 277.55 743.769 277.997 740.153 277.997C733.366 277.997 729.056 276.342 727.189 273.063C725.323 269.768 725.505 265.745 727.734 260.993C729.633 256.92 733.035 252.548 737.907 247.896C742.795 243.243 748.789 239.104 755.907 235.478C765.138 230.709 773.296 226.917 780.38 224.086C787.465 221.255 795.061 218.423 803.169 215.592C811.278 212.761 821.516 208.969 833.918 204.201C840.92 196.948 848.285 188.67 855.997 179.381C863.725 170.092 871.338 160.903 878.835 151.846C886.333 142.789 893.087 134.957 899.098 128.384C897.76 129.295 894.854 131.679 890.346 135.52C885.837 139.378 882.435 142.325 880.124 144.362C874.624 148.899 867.87 154.396 859.894 160.853C851.901 167.311 844.024 172.808 836.263 177.344C826.272 183.239 818.346 186.186 812.467 186.186C806.588 186.186 803.566 183.802 802.74 179.05C801.914 174.281 803.186 168.287 806.555 161.035C807.255 159.536 808.017 158.036 808.84 156.536C801.698 162.806 793.869 168.863 785.353 174.673C781.042 177.62 776.435 180.236 771.531 182.488C766.626 184.756 761.804 185.882 757.064 185.882L757.015 185.849C750.459 185.849 746.264 183.813 744.431 179.723C742.598 175.65 743.11 170.55 745.967 164.424C747.338 161.477 749.485 158.082 752.424 154.224C760.235 144.257 769.896 134.339 781.389 124.471C792.883 114.602 803.154 104.8 812.22 95.0645C815.275 91.8855 817.389 89.0541 818.562 86.5705C819.734 84.0869 819.866 82.2159 818.975 80.9575C818.083 79.7157 816.63 79.0865 814.582 79.0865C811.642 79.0865 807.415 80.2787 801.899 82.663C796.384 85.0472 789.266 89.5178 780.547 96.0911C775.246 100.164 769.086 105.165 762.035 111.059C754.984 116.954 749.006 122.285 744.068 127.037C735.943 134.753 728.264 142.502 720.998 150.333C713.732 158.149 707.209 165.351 701.446 171.924C696.756 177.14 692.479 180.485 688.631 181.958C684.767 183.432 681.431 184.044 678.607 183.829C675.767 183.614 673.505 183.614 671.82 183.829C680.094 175.331 688.467 166.517 696.935 157.387C690.083 163.441 682.68 169.18 674.735 174.614C670.425 177.561 665.752 180.177 660.748 182.429C655.728 184.697 650.741 185.823 645.77 185.823L645.754 185.856ZM749.592 52.0387C746.983 52.0387 745.266 51.1446 744.423 49.3564C743.581 47.5682 743.73 45.4819 744.853 43.1142C746.405 39.7862 749.064 36.8721 752.845 34.3719C756.611 31.8717 760.112 30.4974 763.315 30.2656C765.924 30.2656 767.675 31.0935 768.55 32.7658C769.442 34.4381 769.277 36.574 768.055 39.1901C766.618 42.2864 764.009 45.2005 760.227 47.949C756.462 50.681 752.912 52.0553 749.592 52.0553V52.0387ZM779.72 256.406C770.934 262.649 762.017 267.003 752.934 269.503C750.573 270.182 748.443 270.629 746.527 270.861C744.611 271.093 742.861 271.209 741.276 271.209C736.982 271.209 734.29 270.182 733.2 268.146C732.111 266.109 732.259 263.609 733.63 260.662C735.116 257.483 737.775 254.088 741.606 250.462C745.454 246.82 750.309 243.309 756.188 239.915C769.399 232.431 782.461 226.586 795.391 222.397C808.322 218.208 819.122 214.301 827.824 210.675C820.856 218.837 813.292 226.934 805.134 234.981C796.977 243.028 788.505 250.164 779.72 256.406ZM841.993 168.685C834.859 173.337 829.03 175.656 824.505 175.656L824.472 175.672C821.764 175.672 820.476 174.43 820.624 171.93C820.773 169.43 821.632 166.483 823.217 163.088C825.232 158.783 827.742 154.578 830.78 150.505C836.197 143.253 843.744 134.808 853.437 125.172C863.131 115.535 873.782 106.528 885.375 98.1334C893.318 92.2389 901.36 87.4704 909.502 83.8443C917.643 80.2182 924.991 78.3969 931.547 78.3969C936.518 78.3969 940.63 79.5228 943.867 81.7911C935.61 88.8281 928.195 95.2855 921.606 101.18C918.025 104.383 914.562 107.484 911.209 110.485C908.394 113.005 905.656 115.456 902.995 117.837C899.379 121.248 894.127 126.066 887.274 132.291C880.421 138.534 872.94 144.991 864.848 151.68C856.74 158.37 849.127 164.049 841.993 168.685Z" fill="#E0E0E0"/>
</g>
<defs>
<clipPath id="clip0_826_24183">
<rect width="361.965" height="247.733" fill="white" transform="translate(634.414 30.2656)"/>
</clipPath>
</defs>
</svg>
