<svg width="1407" height="242" viewBox="0 0 1407 242" fill="none" xmlns="http://www.w3.org/2000/svg">
<path d="M1490.25 120.677C1490.25 136.891 1476.45 152.572 1450.9 166.995C1425.4 181.383 1388.46 194.365 1342.75 205.277C1251.33 227.098 1125.01 240.601 985.441 240.601C845.876 240.601 719.548 227.098 628.132 205.277C582.418 194.365 545.477 181.383 519.982 166.995C494.426 152.572 480.635 136.891 480.635 120.677C480.635 104.462 494.426 88.7816 519.982 74.3592C545.477 59.9712 582.418 46.9892 628.132 36.0773C719.548 14.2563 845.876 0.752378 985.441 0.752378C1125.01 0.752378 1251.33 14.2563 1342.75 36.0773C1388.46 46.9892 1425.4 59.9712 1450.9 74.3592C1476.45 88.7816 1490.25 104.462 1490.25 120.677Z" stroke="#E0E0E0" stroke-width="1.50476"/>
<path d="M832.318 28.5813V94.7155C833.433 94.2538 834.145 94.1384 834.568 93.7537C860.303 69.6507 898.328 79.1726 907.964 112.74C913.619 132.438 912.753 152.251 900.482 169.756C886.749 189.339 864.496 193.628 840.704 186.722C839.492 186.376 838.319 185.818 837.145 185.337C820.066 178.528 819.373 177.528 819.373 159.388C819.373 122.089 819.373 84.7896 819.373 47.4906C819.373 36.5836 817.123 34.0252 806.506 32.4093C805.14 32.1977 803.909 31.1398 802.602 30.4665C803.871 29.8317 805.121 28.6775 806.41 28.6583C814.796 28.4851 823.182 28.5813 832.318 28.5813ZM896.212 134.361C896.212 131.861 896.328 128.764 896.193 125.686C895.135 102.66 879.94 88.2714 858.437 89.8295C842.858 90.9645 832.472 102.083 832.472 117.626C832.472 133.246 832.702 148.885 832.356 164.505C832.222 170.833 834.895 174.834 840.03 177.758C856.052 186.857 876.478 182.644 887.634 167.967C895.097 158.157 896.77 146.846 896.212 134.361Z" fill="#E0E0E0"/>
<path d="M575.543 167.141C578.004 156.791 580.505 146.462 582.948 136.113C590.026 106.046 597.181 75.9993 604.047 45.8946C605.028 41.5857 606.913 40.0468 611.087 40.6431C612.337 40.8162 613.664 40.8355 614.914 40.6431C619.126 39.9891 620.876 41.7011 621.934 45.8946C631.763 85.0019 641.822 124.071 651.843 163.139C652.227 164.64 652.785 166.083 654.228 167.621C656.267 159.042 658.363 150.482 660.344 141.903C666.884 113.587 673.385 85.2519 679.866 56.917C681.732 48.7608 679.789 45.9715 671.48 44.4519C669.999 44.1826 668.615 43.4516 667.191 42.9322C667.307 42.3936 667.422 41.8742 667.537 41.3356H706.101C706.274 41.6819 706.447 42.0281 706.62 42.3744C705.543 43.0284 704.447 44.2403 703.37 44.221C693.888 44.0864 689.656 49.8573 687.598 57.9749C682.117 79.8273 676.693 101.68 671.327 123.551C666.172 144.538 661.133 165.544 656.074 186.377C655.516 186.685 655.209 186.973 654.901 186.992C642.899 187.704 642.841 187.723 639.86 176.182C630.205 138.902 620.607 101.583 610.971 64.3037C610.49 62.4378 609.932 60.5911 608.144 58.7252C602.989 80.0966 597.796 101.449 592.661 122.82C587.525 144.173 582.428 165.525 577.312 186.935H563.868C560.694 174.066 557.501 161.216 554.347 148.385C547.077 118.935 539.787 89.4839 532.555 60.014C530.478 51.5693 527.458 44.2403 516.86 44.1249C516.168 44.1249 515.495 42.9322 514.148 41.6819C516.11 41.201 517.226 40.7008 518.341 40.7008C530.574 40.6431 542.807 40.6046 555.02 40.7393C556.347 40.7393 557.655 41.855 558.963 42.4321C557.694 43.0861 556.463 44.1441 555.116 44.3365C547.115 45.5099 545.096 47.5104 546.73 54.3008C555.636 91.3883 564.714 128.437 573.754 165.505C573.869 166.025 574.139 166.506 574.35 166.987C574.754 167.025 575.139 167.064 575.543 167.102V167.141Z" fill="#E0E0E0"/>
<path d="M1179.44 186.877H1137.47L1136.7 185.473C1138.05 184.704 1139.34 183.434 1140.78 183.261C1148.92 182.241 1150.38 180.452 1148.13 172.642C1145.3 162.87 1142.32 153.137 1139.05 143.5C1138.55 142.057 1136.11 140.345 1134.55 140.326C1119.95 140.075 1105.35 140.249 1090.75 140.114C1087.93 140.095 1086.5 140.98 1085.67 143.73C1082.73 153.656 1079.46 163.486 1076.56 173.431C1074.71 179.76 1077.14 182.261 1085.14 183.165C1087.1 183.395 1088.98 184.28 1090.91 184.877C1090.73 185.492 1090.56 186.127 1090.39 186.743H1050.52C1052.13 185.088 1053.04 183.376 1053.94 183.376C1062.88 183.415 1066.31 177.144 1068.77 170.296C1072.83 159.023 1076.5 147.597 1080.15 136.17C1089.83 106.066 1099.52 75.9611 1108.89 45.7602C1110.31 41.2012 1112.74 40.5664 1116.8 40.5664C1120.99 40.5664 1123.57 41.0858 1125.05 45.9526C1137.18 85.9447 1149.65 125.841 1162.05 165.756C1162.98 168.699 1164.05 171.604 1165.17 174.489C1167.17 179.702 1170.73 182.838 1176.55 183.28C1177.84 183.376 1179.05 184.55 1180.3 185.223L1179.46 186.896L1179.44 186.877ZM1136.38 133.593C1128.62 107.759 1121.12 82.7322 1113.62 57.7059C1113.14 57.7059 1112.68 57.7059 1112.2 57.7059C1104.47 82.8669 1096.73 108.009 1088.89 133.574H1136.36L1136.38 133.593Z" fill="#E0E0E0"/>
<path d="M0.403908 41.2569C1.4233 41.0645 2.46192 40.6991 3.48131 40.6991C16.2525 40.6606 29.0429 40.6221 41.8141 40.7375C43.1605 40.7375 44.4876 41.7955 45.8148 42.3726C44.5453 43.0074 43.3336 44.0846 42.0257 44.2193C31.4279 45.2003 29.62 47.0855 29.6007 57.8385C29.6007 84.4038 29.543 110.988 29.6584 137.554C29.6777 142.632 30.0431 147.749 30.8701 152.75C34.1207 172.467 48.6614 183.836 68.8375 182.759C90.8986 181.585 103.901 169.659 106.42 147.768C107.247 140.554 107.209 133.245 107.209 125.973C107.228 103.044 107.132 80.1141 106.978 57.1653C106.92 47.3356 104.516 44.931 94.8416 44.3155C93.9376 44.2578 92.9182 44.4694 92.1296 44.1423C91.3025 43.7961 90.6871 42.9497 89.9754 42.3341C90.764 41.7955 91.4949 41.0068 92.3796 40.7568C93.399 40.4682 94.553 40.6414 95.6494 40.6414C105.324 40.6414 114.999 40.6029 124.673 40.6606C126.539 40.6606 128.404 40.9684 130.251 41.1415C130.347 41.6993 130.424 42.2572 130.52 42.815C129.116 43.296 127.75 44.0846 126.308 44.2193C116.46 45.1619 114.306 47.2201 114.268 57.1845C114.133 84.1152 114.364 111.065 114.018 137.996C113.921 144.825 112.979 151.865 111.036 158.386C105.093 178.43 90.1485 189.588 69.203 189.318C60.2208 189.203 50.7386 188.568 42.4104 185.606C24.8885 179.373 17.4065 164.503 16.6564 147.172C15.4447 119.01 15.8294 90.7902 15.5216 62.5899C15.5024 60.2238 15.5216 57.8578 15.5216 55.4917C15.4832 47.1624 13.4251 45.0657 4.94307 44.277C3.26974 44.1231 1.63487 43.3921 0 42.9112C0.134636 42.3534 0.269272 41.7955 0.384675 41.2377L0.403908 41.2569Z" fill="#E0E0E0"/>
<path d="M277.953 41.2967C279.146 41.0851 280.338 40.7003 281.511 40.7003C294.109 40.6619 306.708 40.6234 319.306 40.758C320.633 40.758 321.96 41.8353 323.287 42.4124C321.998 43.0472 320.767 44.1051 319.44 44.2206C309.285 45.2016 307.458 46.9906 307.496 57.1281C307.612 87.5213 307.169 117.934 308.246 148.289C309.016 169.795 322.422 181.798 343.713 182.779C364.967 183.76 380.219 171.815 383.662 151.174C384.547 145.826 384.816 140.325 384.835 134.9C384.931 108.874 384.835 82.8469 384.797 56.8203C384.797 47.6254 382.142 44.9131 372.852 44.336C371.948 44.2783 370.929 44.5091 370.14 44.1821C369.198 43.7589 368.448 42.8933 367.621 42.22C368.448 41.7199 369.275 40.7965 370.121 40.7773C381.988 40.6811 393.856 40.6811 405.723 40.7773C406.492 40.7773 407.242 41.8737 408.012 42.4508C407.242 43.0472 406.569 43.9897 405.704 44.1629C396.715 46.125 392.208 51.774 392.182 61.11C392.163 86.598 392.702 112.086 391.875 137.536C391.567 147.115 388.951 156.887 385.797 166.024C382.45 175.681 374.757 182.221 365.101 185.838C351.118 191.089 336.77 191.224 322.691 186.761C305.457 181.298 294.552 165.447 294.109 144.961C293.513 117.318 293.686 89.6373 293.513 61.9756C293.513 59.4364 293.571 56.878 293.456 54.3388C293.129 47.2984 290.897 45.067 283.858 44.336C281.781 44.1244 279.761 43.605 277.703 43.2395L278.011 41.2582L277.953 41.2967Z" fill="#E0E0E0"/>
<path d="M263.418 186.913H215.372L214.583 185.47C215.833 184.681 216.968 183.431 218.334 183.162C227.316 181.276 228.47 178.545 223.835 170.446C216.18 157.02 208.659 143.496 201.081 130.031C199.754 127.684 198.369 125.357 196.58 122.26C195.253 124.318 194.253 125.761 193.368 127.261C185.175 141.438 177.039 155.635 168.788 169.773C164.152 177.718 165.691 181.315 174.615 183.162C176 183.45 177.212 184.547 178.501 185.258C178.27 185.778 178.02 186.316 177.789 186.836H135.109C137.09 185.008 138.052 183.354 139.052 183.315C148.611 183.008 154.478 177.237 159.017 169.889C169.653 152.711 180.078 135.417 190.349 118.047C191.291 116.431 191.349 113.373 190.445 111.737C180.482 93.54 170.288 75.4964 160.113 57.4143C156.113 50.3162 151.093 44.5838 142.053 44.2375C141.187 44.199 140.36 43.1026 139.918 41.2751H188.945C187.983 42.5832 187.541 43.7566 186.733 44.1413C185.636 44.6607 184.232 44.4876 182.982 44.7184C174.654 46.2381 172.788 50.0661 176.924 57.2989C183.059 68.0327 189.291 78.7281 195.484 89.4234C197.369 92.6744 199.292 95.8868 201.793 100.1C207.332 90.6353 212.333 82.056 217.353 73.5151C220.661 67.8596 223.912 62.1849 227.335 56.6064C231.97 49.0273 230.759 46.1611 222.084 44.3337C220.95 44.0836 219.988 42.9872 218.949 42.2754C219.949 41.7368 220.93 40.7558 221.93 40.7558C234.163 40.6596 246.377 40.7173 258.609 40.7558C259.263 40.7558 259.917 41.179 262.206 41.9676C259.686 43.1795 258.417 44.276 257.09 44.3529C247.704 44.9493 240.914 49.7391 236.144 57.3951C226.431 72.9957 216.872 88.6925 207.486 104.485C206.601 105.967 206.659 108.814 207.486 110.352C218.68 130.551 230.086 150.633 241.491 170.735C245.626 178.006 251.647 182.45 260.244 183.2C261.667 183.316 263.014 184.47 264.399 185.143C264.072 185.739 263.764 186.336 263.437 186.932L263.418 186.913Z" fill="#E0E0E0"/>
<path d="M465.063 186.803H418.268C418.056 186.264 417.844 185.745 417.633 185.206C418.979 184.552 420.306 183.494 421.71 183.34C433.597 181.994 434.866 180.666 434.866 168.759C434.866 131.826 434.866 94.9112 434.866 57.9776C434.866 47.34 432.866 45.1855 422.403 44.3007C420.845 44.166 419.306 43.5697 417.767 43.185C417.825 42.6271 417.902 42.05 417.96 41.4922H465.082C465.256 41.8384 465.429 42.2039 465.583 42.5502C464.332 43.1273 463.121 44.0891 461.832 44.243C450.196 45.5318 448.811 46.9745 448.811 58.4393C448.811 95.546 448.811 132.653 448.811 169.759C448.811 180.609 450.465 182.282 461.216 183.321C462.755 183.475 464.217 184.571 465.698 185.225L465.044 186.803H465.063Z" fill="#E0E0E0"/>
<path d="M715.102 129.211C714.294 142.099 714.756 153.948 721.487 164.663C735.316 186.65 765.09 187.246 782.824 165.933C785.036 163.278 786.786 160.239 789.113 157.699C789.979 156.738 791.883 156.718 794.345 155.949C780.939 190.228 742.721 200.75 717.141 178.744C710.447 172.992 705.831 165.779 703.523 157.411C697.599 135.963 697.83 114.957 712.505 96.7975C732.72 71.8097 774.919 76.0032 787.959 104.223C790.825 110.417 791.133 117.88 792.152 124.825C792.748 128.903 789.632 129.268 786.382 129.249C765.033 129.191 743.664 129.211 722.314 129.211C720.141 129.211 717.987 129.211 715.102 129.211ZM715.833 123.209C717.718 123.305 719.66 123.478 721.583 123.478C735.259 123.497 748.934 123.478 762.609 123.478C779.285 123.478 780.573 121.689 775.515 105.588C771.553 92.9888 759.185 84.9288 745.972 86.3523C728.854 88.1797 715.852 103.819 715.833 123.19V123.209Z" fill="#E0E0E0"/>
<path d="M1187.54 83.7707H1215.62V97.2937C1217.05 96.3511 1217.74 96.1203 1218.07 95.6586C1233.68 73.4985 1274.15 74.4026 1288.35 104.931C1297.87 125.398 1297.71 146.904 1287.14 167.102C1273.71 192.763 1240.24 197.688 1219.12 177.836C1218.49 177.24 1217.84 176.643 1216.59 175.508C1216.28 177.259 1215.93 178.355 1215.91 179.452C1215.87 194.552 1215.84 209.672 1215.91 224.772C1215.95 234.256 1219.05 237.257 1228.76 237.891C1230.76 238.026 1232.74 238.815 1234.72 239.296C1234.61 239.95 1234.49 240.623 1234.38 241.277H1187.79C1187.54 240.873 1187.29 240.469 1187.02 240.065C1188.27 239.353 1189.45 238.161 1190.75 238.007C1201.06 236.68 1202.66 234.967 1202.66 224.464C1202.66 183.145 1202.66 141.826 1202.66 100.506C1202.66 90.0801 1201.22 88.5028 1190.72 86.8677C1189.5 86.6753 1188.35 86.0982 1187.16 85.7135C1187.27 85.0787 1187.39 84.4439 1187.5 83.8284L1187.54 83.7707ZM1215.89 136.92C1215.89 143.461 1216.07 150.001 1215.84 156.541C1215.64 162.389 1217.84 167.121 1221.72 171.276C1237.7 188.358 1265.54 184.184 1274.88 162.639C1282.31 145.519 1282.12 127.437 1276.04 109.97C1270.77 94.8123 1256.63 87.3871 1240.84 89.907C1229.11 91.7922 1214.89 102.122 1215.82 118.954C1216.14 124.936 1215.87 130.938 1215.87 136.94L1215.89 136.92Z" fill="#E0E0E0"/>
<path d="M1338.16 175.104V186.319C1338.16 198.688 1338.16 211.076 1338.16 223.445C1338.16 234.736 1340.49 237.122 1351.72 237.872C1353.53 237.987 1355.3 238.911 1357.07 239.449C1356.92 240.084 1356.76 240.7 1356.61 241.335H1309.58C1309.39 240.796 1309.18 240.257 1308.99 239.719C1310.39 239.103 1311.74 238.084 1313.18 237.93C1322.91 236.852 1324.62 235.102 1324.62 225.118C1324.64 183.799 1324.62 142.499 1324.62 101.179C1324.62 89.6568 1323.68 88.5796 1312.39 86.7906C1311.3 86.6175 1310.26 86.0212 1308.93 85.521C1312.03 82.8664 1329.63 82.1547 1338.07 84.0783V96.7934C1339.03 96.3318 1339.63 96.2548 1339.86 95.9086C1356.4 72.5173 1397.48 75.4412 1410.66 105.604C1419.72 126.36 1419.45 147.596 1408.87 167.756C1396.19 191.936 1363.19 197.284 1342.59 179.182C1341.42 178.143 1340.28 177.066 1338.15 175.104H1338.16ZM1338.16 136.786C1338.16 143.691 1337.65 150.655 1338.36 157.484C1338.8 161.754 1340.17 166.602 1342.78 169.853C1350.4 179.336 1361.01 183.145 1372.96 181.298C1386.02 179.278 1394.65 171.065 1398.62 158.753C1403.56 143.384 1403.71 127.629 1399 112.144C1394.1 96.0432 1379.67 87.3869 1363.09 89.8684C1351.9 91.542 1336.74 101.853 1338.09 118.8C1338.57 124.763 1338.16 130.784 1338.16 136.786Z" fill="#E0E0E0"/>
<path d="M998.535 165.052C1004.94 156.711 1008.34 147.593 1008.95 137.462C1009.12 134.423 1007.46 132.957 1003.84 132.698C1001.88 132.569 1000.76 132.138 1001.68 129.745H1026.1C1026.62 131.319 1026.9 132.547 1024.53 132.677C1019.94 132.914 1017.37 135.608 1015.76 139.747C1013.26 146.213 1010.71 152.701 1007.78 158.974C1006.27 162.207 1003.88 165.031 1001.4 168.76C1005.73 172.144 1009.96 175.744 1014.48 178.891C1017.03 180.658 1020.22 179.882 1022.54 177.619C1023.39 176.8 1024.1 175.873 1025.71 175.011C1025.67 175.787 1025.93 176.973 1025.5 177.296C1022.82 179.43 1020.15 181.628 1017.22 183.331C1011.96 186.371 1006.75 184.991 1001.88 182.232C999.182 180.702 996.833 178.568 994.268 176.649C991.574 178.395 988.837 180.486 985.841 182.038C978.664 185.789 970.927 186.909 962.995 185.379C947.585 182.383 940.408 166.303 948.189 152.55C952.025 145.782 957.737 140.889 964.159 136.815C966.336 135.436 966.659 134.272 965.646 131.922C963.168 126.21 961.551 120.282 962.543 113.923C964.095 104.008 973.492 97.1104 983.255 98.7917C991.833 100.279 996.617 108.75 993.751 117.394C991.596 123.882 986.725 127.891 981.056 131.06C978.858 132.289 978.255 133.323 979.397 135.802C984.031 145.955 989.548 155.504 997.135 163.738C997.458 164.082 997.824 164.406 998.535 165.052ZM990.647 172.877C981.574 162.854 975.194 151.085 969.224 138.647C962.37 144.187 957.219 150.416 956.487 159.405C956.077 164.492 957.176 169.148 960.732 173.006C967.608 180.464 982.22 180.486 990.626 172.877H990.647ZM976.078 129.271C980.259 125.93 983.772 122.546 984.936 117.739C985.712 114.527 985.669 111.014 985.41 107.672C985.173 104.827 983.233 102.758 980.281 102.413C977.349 102.068 975.194 103.62 973.879 106.164C973.168 107.543 972.565 109.03 972.328 110.561C971.272 117.135 973.772 122.977 976.099 129.292L976.078 129.271Z" fill="#E0E0E0"/>
</svg>
