<svg width="1782" height="240" viewBox="0 0 1782 240" fill="none" xmlns="http://www.w3.org/2000/svg">
<path fill-rule="evenodd" clip-rule="evenodd" d="M1087.52 20.0977H1166.37V30.2695H1166.38V114.641H1178.6V136.472H1178.6V163.493H1156.82V136.472H1083.55V163.493H1061.77V136.472H1061.73V114.641H1062.08C1067.83 114.55 1072.64 111.989 1076.49 108.708C1083.72 102.505 1087.53 93.1694 1087.53 83.6256V41.9292H1087.52V20.0977ZM1106.57 41.9292V93.587C1106.57 109.283 1096.36 114.511 1096.11 114.641H1144.6V41.9292H1106.57ZM1025.39 20.7834V62.9422C1017.74 50.4374 1005.87 42.4062 992.537 42.4062C969.449 42.4062 950.734 66.5045 950.734 96.2097C950.734 125.915 969.449 150.013 992.537 150.013C1005.87 150.013 1017.74 141.982 1025.39 129.477V148.611H1047.17V20.7834H1025.39ZM998.458 61.5238C1012.96 61.5238 1024.8 76.2907 1025.39 94.7723V97.6471C1024.8 116.129 1012.96 130.896 998.458 130.896C983.581 130.896 971.502 115.357 971.502 96.2097C971.502 77.0623 983.581 61.5238 998.458 61.5238ZM714.672 21.0995V148.838H737.492V21.0995H714.672ZM817.93 44.1602V148.427H795.873V44.1602H817.93ZM855.025 22.1016H817.93V44.1579H855.025V22.1016ZM760.797 22.1016H782.853V44.1579H760.797V22.1016ZM921.033 74.0195H859.445V95.8511H921.033V74.0195ZM1995.22 148.613V129.441C1987.57 141.967 1975.68 150.015 1962.34 150.015C1939.25 150.015 1920.54 125.917 1920.54 96.2116C1920.54 66.5064 1939.25 42.4082 1962.34 42.4082C1975.68 42.4082 1987.57 50.4558 1995.22 62.9824V20.7855H2017V148.613H1995.22ZM1968.26 61.5257C1983.14 61.5257 1995.22 77.0643 1995.22 96.2116C1995.22 115.359 1983.14 130.898 1968.26 130.898C1953.39 130.898 1941.31 115.359 1941.31 96.2116C1941.31 77.0643 1953.39 61.5257 1968.26 61.5257ZM1446.64 148.611V20.7835H1468.42V62.9896C1476.07 50.4578 1487.96 42.4062 1501.3 42.4062C1524.39 42.4062 1543.1 66.5045 1543.1 96.2097C1543.1 125.915 1524.39 150.013 1501.3 150.013C1487.96 150.013 1476.07 141.962 1468.42 129.43V148.611H1446.64ZM1522.34 96.2097C1522.34 115.357 1510.26 130.896 1495.38 130.896C1480.51 130.896 1468.43 115.357 1468.43 96.2097C1468.43 77.0623 1480.51 61.5238 1495.38 61.5238C1510.26 61.5238 1522.34 77.0623 1522.34 96.2097ZM1700.7 136.472V163.493H1678.92V121.5H1678.92V114.643V114.641H1679.24C1684.99 114.55 1689.79 111.989 1693.65 108.708C1700.88 102.505 1704.69 93.1694 1704.69 83.6256V41.9292H1704.68V20.0977H1783.52V30.2695H1783.56V114.641H1795.79V136.472H1795.79V163.466H1774.01V136.472H1700.7ZM1723.73 41.9292H1761.78V114.641H1713.26C1713.52 114.511 1723.73 109.283 1723.73 93.587V41.9292ZM1553.99 84.6971C1553.99 119.532 1580.23 147.865 1612.49 147.865C1644.74 147.865 1670.98 119.532 1670.98 84.6971C1670.98 49.8621 1644.77 21.5586 1612.52 21.5586C1580.26 21.5586 1554.02 49.8919 1554.02 84.7269L1553.99 84.6971ZM1647.45 84.6971C1647.45 108.557 1631.77 127.943 1612.52 127.943C1593.27 127.943 1577.59 108.527 1577.59 84.6971C1577.59 60.8673 1593.27 41.4515 1612.52 41.4515C1631.77 41.4515 1647.45 60.8673 1647.45 84.6971ZM1234.4 129.999C1228.04 129.999 1221.4 128.866 1214.5 126.629V126.599C1207.6 124.362 1201.2 121.201 1195.25 117.174L1188.7 134.353C1193.52 138.618 1200.1 142.018 1208.37 144.613C1216.64 147.208 1225.21 148.49 1234.4 148.49C1243.6 148.49 1251.69 146.969 1258.68 143.867C1265.7 140.766 1271.15 136.441 1275.07 130.894C1279 125.346 1280.97 119.024 1280.97 111.955C1280.97 103.873 1277.87 96.9534 1271.71 91.1675C1265.55 85.4113 1256.72 81.1464 1245.17 78.4622L1230.39 75.271C1224.79 74.0482 1220.42 72.0201 1217.3 69.2166C1214.17 66.4131 1212.59 63.1026 1212.59 59.2851C1212.59 52.9921 1214.74 48.1009 1219.05 44.5518C1223.36 41.0026 1229.37 39.243 1237.11 39.243C1242.7 39.243 1248.45 40.257 1254.34 42.3447C1260.2 44.4325 1265.73 47.2658 1270.88 50.8447L1277.28 34.8588C1273.02 30.5939 1267.31 27.1939 1260.14 24.6588C1252.97 22.1237 1245.29 20.8711 1237.11 20.8711C1228.16 20.8711 1220.15 22.4816 1213.16 25.6728C1206.14 28.8641 1200.69 33.3676 1196.77 39.2132C1192.84 45.0588 1190.88 51.7395 1190.88 59.2552C1190.88 67.6658 1193.97 74.7938 1200.13 80.6394C1206.32 86.485 1215.09 90.6903 1226.52 93.285C1230.77 94.1798 1235.71 95.3131 1241.31 96.6552C1247.02 97.9078 1251.45 99.8762 1254.58 102.56C1257.7 105.245 1259.28 108.406 1259.28 111.985C1259.28 117.592 1257.1 122.006 1252.73 125.197C1248.36 128.388 1242.23 129.999 1234.4 129.999ZM1321.28 74.7625H1381.59V22.7188H1403.1V146.669H1381.59V93.2836H1321.28V146.669H1299.77V22.7188H1321.28V74.7625ZM1862.91 20.7812H1812.8V147.804H1834.85V98.2653H1862.91C1863.09 98.2653 1863.28 98.2647 1863.47 98.2633L1890.1 147.804H1913.52L1884.68 94.2329C1885.15 94.0337 1885.6 93.827 1886.06 93.6127C1892.66 90.4811 1897.75 86.0671 1901.29 80.311C1904.83 74.5549 1906.61 67.7549 1906.61 59.9408C1906.61 52.1268 1904.86 45.2672 1901.38 39.3321C1897.9 33.397 1892.84 28.8339 1886.23 25.6128C1879.63 22.3918 1871.86 20.7812 1862.91 20.7812ZM1885.28 59.9707C1885.28 66.8601 1883.32 72.1689 1879.42 75.8373V75.8671C1875.49 79.5355 1869.99 81.3847 1862.88 81.3847H1834.82V39.7795H1862.88C1869.9 39.7795 1875.37 41.5093 1879.33 45.0286C1883.29 48.5479 1885.28 53.5286 1885.28 59.9707Z" fill="#1C46F5"/>
<path fill-rule="evenodd" clip-rule="evenodd" d="M3.35719 110.848C18.0069 48.8295 99.6067 0.351562 99.6067 0.351562C69.7941 26.1794 42.4055 53.4018 23.8987 105.252C5.39188 157.101 26.7472 217.213 26.7472 217.213C26.7472 217.213 -11.2925 172.866 3.35719 110.848ZM176.336 24.5469H196.9V46.1395H176.336V24.5469ZM608.49 24.9805H588.219V167.469H608.49V24.9805ZM542.291 152.218V167.47H562.661V65.9174H542.291V81.17H541.505C538.707 76.2188 535.164 72.2826 530.876 69.3616C524.972 65.2286 517.821 63.1621 509.424 63.1621C500.305 63.1621 492.072 65.491 484.725 70.1488C477.443 74.8066 471.703 81.2028 467.504 89.3375C463.371 97.4723 461.305 106.591 461.305 116.694C461.305 126.665 463.371 135.751 467.504 143.952C471.703 152.152 477.443 158.581 484.725 163.239C492.072 167.897 500.305 170.226 509.424 170.226C517.821 170.226 524.972 168.192 530.876 164.125C535.166 161.155 538.71 157.186 541.51 152.218H542.291ZM528.318 146.805C523.726 149.758 518.477 151.234 512.573 151.234C506.603 151.234 501.322 149.758 496.73 146.805C492.138 143.853 488.53 139.753 485.906 134.505C483.282 129.191 481.97 123.254 481.97 116.694C481.97 110.002 483.282 104.065 485.906 98.8827C488.53 93.6345 492.138 89.5344 496.73 86.5822C501.322 83.6301 506.603 82.1541 512.573 82.1541C518.477 82.1541 523.726 83.6301 528.318 86.5822C532.976 89.5344 536.584 93.6345 539.142 98.8827C541.766 104.065 543.078 110.002 543.078 116.694C543.078 123.385 541.766 129.355 539.142 134.603C536.584 139.786 532.976 143.853 528.318 146.805ZM384.336 65.9141H401.458V40.7227H421.828V65.9141H446.527V82.3475H421.828V135.19C421.828 140.504 422.976 144.408 425.272 146.9C427.634 149.393 431.275 150.64 436.195 150.64C439.606 150.64 443.083 150.115 446.626 149.065V167.861C441.837 169.435 437.212 170.222 432.751 170.222C426.322 170.222 420.745 168.877 416.022 166.188C411.299 163.432 407.69 159.496 405.198 154.379C402.705 149.262 401.458 143.194 401.458 136.174V82.3475H384.336V65.9141ZM364.842 65.9141H344.57V167.467H364.842V65.9141ZM298.627 65.9174V80.5796H297.836C295.038 75.7947 291.497 71.9897 287.212 69.1647C281.308 65.163 274.157 63.1621 265.76 63.1621C256.641 63.1621 248.408 65.4254 241.061 69.952C233.779 74.4786 228.039 80.7108 223.84 88.6487C219.707 96.5866 217.641 105.41 217.641 115.119C217.641 124.829 219.707 133.652 223.84 141.59C228.039 149.528 233.779 155.76 241.061 160.287C248.408 164.813 256.641 167.077 265.76 167.077C274.157 167.077 281.308 165.109 287.212 161.172C291.484 158.309 295.017 154.471 297.811 149.659H298.627V157.236C298.627 169.176 295.839 178.295 290.263 184.593C284.752 190.956 276.749 194.138 266.252 194.138C259.692 194.138 253.919 192.76 248.933 190.005C244.013 187.249 239.355 182.788 234.96 176.622L219.707 187.938C225.743 196.27 232.565 202.469 240.175 206.537C247.785 210.67 256.609 212.736 266.646 212.736C277.405 212.736 286.687 210.506 294.494 206.045C302.366 201.649 308.402 195.286 312.6 186.954C316.799 178.623 318.898 168.717 318.898 157.236V65.9174H298.627ZM268.909 148.281C274.813 148.281 280.061 146.871 284.654 144.05C289.311 141.229 292.92 137.293 295.478 132.242C298.102 127.19 299.414 121.483 299.414 115.119C299.414 108.625 298.102 102.884 295.478 97.8987C292.92 92.9129 289.311 89.0095 284.654 86.1886C280.061 83.3677 274.813 81.9573 268.909 81.9573C262.939 81.9573 257.658 83.3677 253.066 86.1886C248.474 89.0095 244.866 92.9457 242.242 97.9971C239.617 103.048 238.305 108.756 238.305 115.119C238.305 121.483 239.617 127.19 242.242 132.242C244.866 137.293 248.474 141.229 253.066 144.05C257.658 146.871 262.939 148.281 268.909 148.281ZM196.959 65.9141H176.688V167.467H196.959V65.9141ZM365.518 24.5469H344.953V46.1395H365.518V24.5469ZM151.015 24.9805V167.469H130.744V152.217H129.915C127.082 157.185 123.521 161.154 119.231 164.124C113.327 168.191 106.209 170.225 97.8773 170.225C88.5618 170.225 80.263 167.896 72.9811 163.238C65.6992 158.58 59.9918 152.151 55.8589 143.951C51.7915 135.75 49.7578 126.665 49.7578 116.693C49.7578 106.59 51.7915 97.4714 55.8589 89.3366C59.9918 81.2019 65.6992 74.8056 72.9811 70.1479C80.263 65.4901 88.5618 63.1612 97.8773 63.1612C106.209 63.1612 113.327 65.2277 119.231 69.3606C123.518 72.2817 127.078 76.2179 129.911 81.1691H130.744V24.9805H151.015ZM85.0848 146.805C89.7426 149.757 95.0236 151.233 100.928 151.233C106.766 151.233 112.015 149.757 116.672 146.805C121.33 143.852 124.971 139.785 127.595 134.602C130.219 129.354 131.531 123.384 131.531 116.693C131.531 110.001 130.219 104.064 127.595 98.8818C124.971 93.6336 121.33 89.5334 116.672 86.5813C112.015 83.6292 106.766 82.1531 100.928 82.1531C95.0236 82.1531 89.7426 83.6292 85.0848 86.5813C80.427 89.5334 76.8189 93.6336 74.2604 98.8818C71.7019 104.064 70.4226 110.001 70.4226 116.693C70.4226 123.253 71.7019 129.19 74.2604 134.504C76.8189 139.752 80.427 143.852 85.0848 146.805Z" fill="#1C46F5"/>
<path d="M573.8 222.406C573.8 222.406 655.399 173.928 670.049 111.91C684.699 49.8913 646.659 5.54445 646.659 5.54445C646.659 5.54445 668.014 65.6563 649.508 117.506C631.001 169.356 603.612 196.578 573.8 222.406Z" fill="#1C46F5"/>
<path fill-rule="evenodd" clip-rule="evenodd" d="M763.48 236.109C765.8 238.549 768.873 239.769 772.698 239.769C775.709 239.769 778.313 238.98 780.51 237.401C782.706 235.822 784.088 233.741 784.656 231.157H780.806C780.312 232.76 779.337 234.04 777.881 234.997C776.425 235.93 774.722 236.396 772.772 236.396C770.057 236.396 767.886 235.487 766.257 233.669C764.628 231.851 763.813 229.423 763.813 226.385C763.813 223.347 764.628 220.918 766.257 219.1C767.886 217.282 770.057 216.373 772.772 216.373C774.722 216.373 776.4 216.864 777.807 217.844C779.214 218.801 780.164 220.117 780.658 221.792H784.545C784.051 219.136 782.731 217.007 780.584 215.404C778.461 213.801 775.894 213 772.883 213C769.058 213 765.948 214.244 763.554 216.732C761.185 219.196 760 222.426 760 226.421C760 230.44 761.16 233.669 763.48 236.109ZM924.141 239.065H932.883C936.785 239.065 939.943 237.863 942.357 235.46C944.772 233.056 945.979 229.92 945.979 226.051C945.979 222.157 944.76 219.009 942.321 216.605C939.882 214.202 936.688 213 932.737 213H924.141V239.065ZM927.725 216.245H932.481C935.505 216.245 937.883 217.122 939.614 218.876C941.37 220.631 942.248 223.022 942.248 226.051C942.248 229.031 941.382 231.398 939.651 233.153C937.919 234.907 935.578 235.784 932.627 235.784H927.725V216.245ZM993.47 221.005C993.102 221.368 992.649 221.55 992.121 221.55C991.593 221.55 991.14 221.368 990.772 221.005L990.769 221.002C990.405 220.622 990.219 220.177 990.219 219.671C990.219 219.149 990.404 218.701 990.772 218.338C991.14 217.975 991.593 217.793 992.121 217.793C992.649 217.793 993.102 217.975 993.47 218.338C993.838 218.701 994.023 219.149 994.023 219.671C994.023 220.177 993.837 220.622 993.472 221.002L993.47 221.005ZM990.673 238.504V224.519H993.625V238.504H990.673ZM993.371 220.904C993.712 220.549 993.882 220.138 993.882 219.671C993.882 219.629 993.881 219.587 993.878 219.545C993.88 219.585 993.882 219.626 993.882 219.667C993.882 220.134 993.711 220.545 993.37 220.9C993.03 221.236 992.613 221.405 992.121 221.405C991.628 221.405 991.212 221.236 990.871 220.9C990.561 220.578 990.392 220.209 990.364 219.794C990.391 220.211 990.56 220.581 990.871 220.904C991.212 221.241 991.628 221.409 992.121 221.409C992.613 221.409 993.03 221.241 993.371 220.904ZM990.814 238.363H993.484V224.66H993.484V238.359H990.814V238.363ZM1013 224.441C1012.59 223.177 1011.82 222.215 1010.7 221.555C1009.6 220.876 1008.3 220.537 1006.79 220.537C1004.42 220.537 1002.56 221.272 1001.19 222.743C999.826 224.215 999.142 226.176 999.142 228.628C999.142 228.771 999.145 228.912 999.15 229.051C999.145 228.91 999.142 228.768 999.142 228.624C999.142 226.172 999.825 224.21 1001.19 222.739C1002.56 221.268 1004.42 220.533 1006.79 220.533C1008.3 220.533 1009.6 220.872 1010.7 221.551C1011.82 222.211 1012.59 223.173 1013 224.437H1016.18L1016.18 224.441H1013ZM1006.21 229.925H1013.61V229.929H1006.21V229.925ZM1016.42 238.752V227.468H1016.42V238.756H1013.91L1013.91 238.752H1016.42ZM1013.7 235.98L1013.7 235.984C1013.66 236.046 1013.62 236.107 1013.57 236.167C1012.96 237.007 1012.05 237.691 1010.86 238.219C1009.59 238.785 1008.16 239.068 1006.57 239.068C1003.43 239.068 1000.89 238.106 998.928 236.182C997.244 234.527 996.285 232.418 996.05 229.855C996.286 232.416 997.245 234.523 998.928 236.178C1000.89 238.102 1003.43 239.063 1006.57 239.063C1008.16 239.063 1009.59 238.781 1010.86 238.215C1012.14 237.649 1013.09 236.904 1013.7 235.98ZM1010.91 238.348C1009.63 238.923 1008.18 239.209 1006.57 239.209C1003.4 239.209 1000.82 238.236 998.83 236.282C996.841 234.328 995.852 231.753 995.852 228.571C995.852 225.408 996.862 222.814 998.89 220.804C1000.92 218.794 1003.58 217.793 1006.85 217.793C1009.3 217.793 1011.4 218.393 1013.14 219.6C1014.88 220.809 1015.94 222.415 1016.32 224.415L1016.35 224.582H1012.89L1012.86 224.484C1012.47 223.253 1011.72 222.319 1010.63 221.677L1010.63 221.675C1009.55 221.012 1008.28 220.678 1006.79 220.678C1004.45 220.678 1002.63 221.402 1001.29 222.839C999.958 224.279 999.283 226.203 999.283 228.628C999.283 231.033 999.968 232.908 1001.32 234.271C1002.7 235.617 1004.52 236.296 1006.82 236.296C1008.79 236.296 1010.39 235.811 1011.63 234.854C1012.85 233.887 1013.47 232.452 1013.47 230.524V230.07H1006.07V227.327H1016.56V238.897H1013.78L1013.59 236.379C1012.96 237.184 1012.07 237.839 1010.91 238.348ZM1033.91 238.503H1037V218.496H1033.98L1023.6 233.438V218.496H1020.52V238.503H1023.54L1033.91 223.561V238.503ZM1034.05 238.362V238.362H1036.85V218.637H1036.86V238.362H1034.05ZM1034.05 223.111V223.122L1023.46 238.362H1020.66V238.362H1023.45L1034.05 223.111ZM1023.46 233.877V218.637H1023.45V233.887L1023.46 233.877ZM974.32 219.568C972.994 220.642 972.331 222.055 972.331 223.806C972.331 226.783 974.076 228.657 977.565 229.429L981.044 230.192C982.993 230.625 983.968 231.652 983.968 233.271C983.968 234.289 983.548 235.099 982.71 235.701C981.892 236.285 980.781 236.577 979.377 236.577C978.052 236.577 976.99 236.295 976.191 235.73C975.411 235.146 975.002 234.364 974.963 233.384H972.039C972.117 235.136 972.819 236.521 974.144 237.538C975.469 238.555 977.214 239.063 979.377 239.063C981.638 239.063 983.441 238.517 984.786 237.425C986.151 236.332 986.833 234.873 986.833 233.045C986.833 230.182 985.098 228.365 981.629 227.592L978.149 226.801C976.181 226.349 975.197 225.323 975.197 223.722C975.197 222.723 975.596 221.923 976.395 221.32C977.194 220.717 978.257 220.416 979.582 220.416C980.771 220.416 981.716 220.699 982.418 221.264C983.12 221.829 983.51 222.62 983.587 223.637H986.482C986.365 221.866 985.693 220.473 984.465 219.455C983.237 218.438 981.619 217.93 979.611 217.93C977.428 217.93 975.664 218.476 974.32 219.568ZM958.292 239.063C955.27 239.063 952.808 238.092 950.906 236.15C949.031 234.208 948.094 231.677 948.094 228.558C948.094 225.412 949.017 222.854 950.864 220.884C952.738 218.915 955.158 217.93 958.124 217.93C961.034 217.93 963.37 218.832 965.133 220.638C966.895 222.444 967.777 224.838 967.777 227.819V229.256L951.913 229.297C952.053 231.403 952.668 233.031 953.759 234.18C954.879 235.302 956.417 235.863 958.376 235.863C961.509 235.863 963.426 234.686 964.125 232.334H967.819C967.315 234.495 966.238 236.164 964.587 237.34C962.936 238.489 960.838 239.063 958.292 239.063ZM958.124 221.172C956.417 221.172 955.032 221.65 953.969 222.608C952.906 223.565 952.249 224.933 951.997 226.712H963.832C963.832 225.043 963.314 223.702 962.279 222.69C961.244 221.678 959.859 221.172 958.124 221.172ZM902.643 239.063C899.622 239.063 897.16 238.092 895.257 236.15C893.383 234.208 892.445 231.677 892.445 228.558C892.445 225.412 893.369 222.854 895.215 220.884C897.09 218.915 899.51 217.93 902.476 217.93C905.385 217.93 907.722 218.832 909.484 220.638C911.247 222.444 912.128 224.838 912.128 227.819V229.256L896.264 229.297C896.404 231.403 897.02 233.031 898.111 234.18C899.23 235.302 900.769 235.863 902.727 235.863C905.861 235.863 907.778 234.686 908.477 232.334H912.17C911.667 234.495 910.589 236.164 908.939 237.34C907.288 238.489 905.19 239.063 902.643 239.063ZM902.476 221.172C900.769 221.172 899.384 221.65 898.321 222.608C897.258 223.565 896.6 224.933 896.348 226.712H908.183C908.183 225.043 907.666 223.702 906.63 222.69C905.595 221.678 904.21 221.172 902.476 221.172ZM880.77 239.063L872.713 217.934H872.712L880.772 239.068H883.761L891.733 217.934H891.73L883.76 239.063H880.77ZM882.265 235.41C882.111 234.858 881.95 234.318 881.781 233.79C881.925 234.239 882.063 234.696 882.196 235.162C882.219 235.244 882.242 235.327 882.265 235.409L882.265 235.41ZM880.675 239.209L872.508 217.793H875.887L881.079 231.387C881.515 232.501 881.913 233.678 882.271 234.915C882.644 233.707 883.048 232.522 883.483 231.36L883.483 231.359L888.646 217.793H891.936L883.859 239.209H880.675ZM868.839 221.524C869.332 221.524 869.748 221.351 870.089 221.003C870.43 220.635 870.6 220.21 870.6 219.727C870.6 219.682 870.599 219.637 870.596 219.593C870.599 219.638 870.601 219.684 870.601 219.731C870.601 220.214 870.43 220.64 870.089 221.007C869.749 221.355 869.332 221.529 868.84 221.529C868.347 221.529 867.931 221.355 867.59 221.007C867.279 220.672 867.11 220.289 867.082 219.858C867.111 220.287 867.28 220.669 867.589 221.003C867.93 221.351 868.347 221.524 868.839 221.524ZM870.203 239.063H867.533V239.068H870.203V224.891H870.203V239.063ZM870.19 221.105C869.822 221.481 869.369 221.67 868.84 221.67C868.31 221.67 867.857 221.481 867.489 221.105L867.486 221.103C867.122 220.71 866.938 220.251 866.938 219.731C866.938 219.193 867.121 218.732 867.489 218.357C867.857 217.982 868.31 217.793 868.84 217.793C869.369 217.793 869.822 217.982 870.19 218.357C870.558 218.732 870.742 219.193 870.742 219.731C870.742 220.251 870.557 220.71 870.193 221.103L870.19 221.105ZM867.392 239.209V224.751H870.344V239.209H867.392ZM865.672 217.934H865.664V220.56H859.067V239.063H856.096V239.068H859.075V220.565H865.672V217.934ZM849.469 220.565V220.56H856.088V220.565H849.469ZM849.328 220.706V217.793H865.812V220.706H859.216V239.209H855.955V220.706H849.328ZM831.625 237.422C832.909 238.516 834.664 239.063 836.889 239.063C838.572 239.063 840.07 238.735 841.382 238.079C842.723 237.395 843.665 236.478 844.207 235.329L844.635 238.571H848.058V225.973C848.058 223.347 847.274 221.349 845.704 219.982C844.164 218.614 842.053 217.93 839.371 217.93C836.661 217.93 834.478 218.573 832.823 219.858C831.197 221.117 830.384 222.786 830.384 224.865H833.893C833.893 223.661 834.35 222.717 835.263 222.033C836.204 221.349 837.516 221.007 839.2 221.007C842.481 221.007 844.121 222.526 844.121 225.562V226.137L837.531 226.629C835.049 226.821 833.123 227.478 831.754 228.599C830.413 229.693 829.742 231.157 829.742 232.99C829.742 234.823 830.37 236.3 831.625 237.422ZM842.538 234.426C841.454 235.521 839.956 236.068 838.044 236.068C836.703 236.068 835.662 235.794 834.92 235.247C834.179 234.7 833.808 233.907 833.808 232.867C833.808 230.76 835.477 229.557 838.815 229.256L844.164 228.845V229.912C844.164 231.8 843.622 233.305 842.538 234.426ZM816.69 239.063C813.669 239.063 811.207 238.092 809.304 236.15C807.429 234.208 806.492 231.677 806.492 228.558C806.492 225.412 807.415 222.854 809.262 220.884C811.137 218.915 813.557 217.93 816.522 217.93C819.432 217.93 821.768 218.832 823.531 220.638C825.294 222.444 826.175 224.838 826.175 227.819V229.256L810.311 229.297C810.451 231.403 811.067 233.031 812.158 234.18C813.277 235.302 814.816 235.863 816.774 235.863C819.908 235.863 821.824 234.686 822.524 232.334H826.217C825.713 234.495 824.636 236.164 822.986 237.34C821.335 238.489 819.236 239.063 816.69 239.063ZM816.522 221.172C814.816 221.172 813.431 221.65 812.368 222.608C811.305 223.565 810.647 224.933 810.395 226.712H822.23C822.23 225.043 821.713 223.702 820.677 222.69C819.642 221.678 818.257 221.172 816.522 221.172ZM802.969 239.063H799.963V239.066H802.976V217.932H802.969V239.063ZM799.956 230.706V230.704H794.268L790.117 239.063H786.775L786.774 239.066H790.125L794.275 230.706H799.956ZM799.956 220.502V220.504H794.583C793.189 220.504 792.103 220.835 791.324 221.498C790.545 222.141 790.156 223.077 790.156 224.304C790.156 225.512 790.545 226.458 791.324 227.14C791.724 227.499 792.211 227.764 792.787 227.934C792.208 227.764 791.718 227.498 791.316 227.137C790.538 226.455 790.148 225.51 790.148 224.302C790.148 223.074 790.538 222.139 791.316 221.496C792.095 220.833 793.182 220.502 794.575 220.502H799.956ZM799.822 239.207H803.117V217.791H794.583C792.184 217.791 790.293 218.361 788.927 219.52C787.539 220.68 786.848 222.271 786.848 224.275C786.848 225.762 787.234 227.03 788.013 228.071C788.743 229.072 789.772 229.792 791.093 230.234L786.544 239.207H790.212L794.363 230.847H799.822V239.207ZM791.418 227.035L791.417 227.034C790.674 226.383 790.297 225.479 790.297 224.304C790.297 223.109 790.674 222.217 791.414 221.607L791.415 221.605C792.161 220.971 793.21 220.645 794.583 220.645H799.822V228.022H794.552C793.18 228.022 792.143 227.686 791.418 227.035Z" fill="#1C46F5"/>
</svg>
