<svg width="1372" height="243" viewBox="0 0 1372 243" fill="none" xmlns="http://www.w3.org/2000/svg">
<path d="M30.77 177.316C31.0713 177.617 32.2013 177.693 34.16 177.542C36.1187 177.391 38.3033 177.391 40.714 177.542C43.1247 177.542 45.3093 177.843 47.268 178.446C49.3773 178.898 50.658 179.877 51.11 181.384C51.562 182.74 50.9593 183.418 49.302 183.418H3.424C1.76667 183.418 1.164 182.74 1.616 181.384C1.91733 180.48 2.746 179.802 4.102 179.35C5.60867 178.898 7.266 178.597 9.074 178.446C10.882 178.145 12.6147 177.994 14.272 177.994C16.08 177.843 17.436 177.617 18.34 177.316C19.696 176.864 20.5247 176.337 20.826 175.734C21.278 175.131 21.73 174.227 22.182 173.022C28.51 152.833 34.9133 132.869 41.392 113.132C47.8707 93.244 54.3493 73.2053 60.828 53.016C61.28 51.5093 61.5813 50.0027 61.732 48.496C62.0333 46.9893 62.5607 45.558 63.314 44.202C64.0673 42.6953 64.7453 42.4693 65.348 43.524C65.9507 44.428 66.3273 45.2567 66.478 46.01C64.3687 55.502 61.8073 64.8433 58.794 74.034C55.7807 83.074 52.918 92.2647 50.206 101.606C49.9047 102.661 49.4527 104.243 48.85 106.352C48.2473 108.311 47.5693 110.42 46.816 112.68C46.2133 114.94 45.686 117.125 45.234 119.234C44.782 121.343 44.556 122.85 44.556 123.754C44.556 124.658 44.6313 125.336 44.782 125.788C45.0833 126.089 45.7613 126.24 46.816 126.24H93.372C94.1253 126.24 94.728 126.014 95.18 125.562V125.336C95.632 124.884 95.7073 124.357 95.406 123.754C94.6527 121.645 93.8993 119.611 93.146 117.652C92.5433 115.693 91.8653 113.659 91.112 111.55C89.4547 106.427 88.0987 101.305 87.044 96.182C85.9893 90.9087 84.784 85.7107 83.428 80.588C82.3733 76.6707 81.3187 72.8287 80.264 69.062C79.2093 65.2953 78.0793 61.4533 76.874 57.536C75.97 54.6733 74.9907 51.8107 73.936 48.948C72.8813 46.0853 71.5253 43.3733 69.868 40.812C69.1147 39.6067 68.4367 38.7027 67.834 38.1C67.382 37.3467 67.0053 36.292 66.704 34.936C66.5533 35.2373 66.5533 35.0867 66.704 34.484C66.8547 33.8813 66.93 33.4293 66.93 33.128L67.834 30.19C68.4367 28.382 68.964 26.574 69.416 24.766C70.0187 22.8073 70.6967 20.9993 71.45 19.342C71.7513 18.7393 71.9773 18.3627 72.128 18.212C72.2787 17.9107 72.7307 17.76 73.484 17.76H91.338C92.0913 17.76 92.5433 17.9107 92.694 18.212C92.8447 18.3627 93.0707 18.7393 93.372 19.342L145.578 173.022C146.181 174.529 147.009 175.809 148.064 176.864C148.516 177.316 149.42 177.542 150.776 177.542C152.283 177.542 153.865 177.617 155.522 177.768C157.33 177.919 159.063 178.22 160.72 178.672C162.377 179.124 163.658 179.953 164.562 181.158C165.014 181.761 165.014 182.288 164.562 182.74C164.11 183.192 163.507 183.418 162.754 183.418H92.242C90.7353 183.418 90.1327 182.966 90.434 182.062C90.7353 181.158 91.2627 180.48 92.016 180.028C92.468 179.727 93.4473 179.501 94.954 179.35C96.6113 179.049 98.344 178.823 100.152 178.672C101.96 178.371 103.693 178.145 105.35 177.994C107.007 177.843 108.288 177.693 109.192 177.542C109.795 177.391 110.247 177.241 110.548 177.09C110.849 176.939 111.075 176.487 111.226 175.734V173.7C111.226 172.796 110.774 171.44 109.87 169.632C108.966 167.824 108.363 166.393 108.062 165.338C107.459 163.831 106.631 161.345 105.576 157.88C104.672 154.415 103.693 150.874 102.638 147.258C101.583 143.491 100.453 140.101 99.248 137.088C98.1933 134.075 97.2893 132.191 96.536 131.438C96.084 130.986 95.5567 130.76 94.954 130.76H45.686C44.9327 130.76 44.104 131.212 43.2 132.116C42.296 133.02 41.6933 133.773 41.392 134.376C40.7893 135.581 40.4127 136.787 40.262 137.992C40.1113 139.197 39.8853 140.403 39.584 141.608C38.8307 144.621 38.002 147.559 37.098 150.422C36.3447 153.285 35.516 156.223 34.612 159.236C34.4613 159.688 34.0847 160.667 33.482 162.174C33.03 163.53 32.5027 165.037 31.9 166.694C31.2973 168.201 30.77 169.632 30.318 170.988C29.866 172.193 29.64 172.871 29.64 173.022C29.64 173.625 29.64 174.227 29.64 174.83C29.7907 175.433 29.866 176.035 29.866 176.638L30.77 177.316ZM227.784 175.282C227.332 175.734 227.106 176.261 227.106 176.864C227.106 177.919 227.106 180.103 227.106 183.418C227.106 186.733 227.106 190.499 227.106 194.718C227.106 198.937 227.03 203.381 226.88 208.052C226.88 212.873 226.88 217.243 226.88 221.16C227.03 225.077 227.106 228.392 227.106 231.104C227.256 233.816 227.407 235.247 227.558 235.398C227.859 235.699 228.16 236.076 228.462 236.528C228.914 236.98 229.29 237.357 229.592 237.658C230.345 238.411 231.475 238.788 232.982 238.788C234.639 238.788 236.221 238.713 237.728 238.562C239.385 238.411 240.816 238.411 242.022 238.562C243.227 238.713 243.83 239.315 243.83 240.37C243.83 241.575 243.227 242.178 242.022 242.178H180.776C179.57 242.178 178.968 241.575 178.968 240.37C178.968 239.165 179.721 238.487 181.228 238.336C182.885 238.336 184.618 238.411 186.426 238.562C188.384 238.863 190.117 238.939 191.624 238.788C193.281 238.637 194.11 237.809 194.11 236.302V81.944C194.11 81.1907 193.959 80.6633 193.658 80.362C193.356 80.0607 192.98 79.684 192.528 79.232C192.226 78.78 191.925 78.4033 191.624 78.102C191.172 77.65 190.343 77.3487 189.138 77.198C187.932 77.0473 186.576 76.972 185.07 76.972C183.714 76.972 182.358 77.0473 181.002 77.198C179.646 77.198 178.666 77.198 178.064 77.198C177.16 77.198 176.858 76.6707 177.16 75.616C177.461 75.0133 177.762 74.6367 178.064 74.486C178.214 74.034 178.666 73.6573 179.42 73.356L219.648 61.378C221.456 60.7753 222.887 60.8507 223.942 61.604C224.996 62.3573 225.75 63.412 226.202 64.768C226.654 66.124 226.88 67.6307 226.88 69.288C227.03 70.7947 227.106 72.1507 227.106 73.356C227.106 74.5613 227.633 75.164 228.688 75.164C230.797 75.164 233.208 74.486 235.92 73.13C238.632 71.6233 241.57 70.0413 244.734 68.384C247.898 66.576 251.288 64.994 254.904 63.638C258.52 62.1313 262.362 61.378 266.43 61.378C277.428 61.378 286.393 64.1653 293.324 69.74C300.254 75.3147 305.452 82.3207 308.918 90.758C312.534 99.1953 314.492 108.386 314.794 118.33C315.095 128.123 314.04 137.389 311.63 146.128C309.972 152.155 307.637 157.654 304.624 162.626C301.61 167.598 297.994 171.892 293.776 175.508C289.557 178.973 284.736 181.685 279.312 183.644C273.888 185.603 268.012 186.582 261.684 186.582C257.766 186.582 254.075 185.753 250.61 184.096C247.144 182.288 243.679 180.405 240.214 178.446C239.46 177.994 238.632 177.617 237.728 177.316C236.824 176.864 236.07 176.412 235.468 175.96C234.714 175.357 234.413 174.755 234.564 174.152C234.714 173.549 235.242 173.173 236.146 173.022C245.186 175.282 252.493 175.357 258.068 173.248C263.642 170.988 267.936 167.372 270.95 162.4C273.963 157.428 275.997 151.552 277.052 144.772C278.106 137.992 278.634 131.061 278.634 123.98C278.634 118.857 278.332 113.358 277.73 107.482C277.278 101.455 276.072 95.956 274.114 90.984C272.155 85.8613 269.217 81.6427 265.3 78.328C261.382 75.0133 255.958 73.356 249.028 73.356C247.822 73.356 246.09 73.5067 243.83 73.808C241.57 73.9587 239.31 74.3353 237.05 74.938C234.79 75.39 232.831 76.1433 231.174 77.198C229.516 78.2527 228.688 79.5333 228.688 81.04V168.502C228.688 169.255 228.688 169.933 228.688 170.536C228.838 171.139 228.914 171.817 228.914 172.57L227.784 175.282ZM403.488 180.48C403.789 181.083 404.015 181.761 404.166 182.514C404.317 183.117 403.865 183.418 402.81 183.418H336.592C335.387 183.418 334.784 182.815 334.784 181.61C334.784 180.405 335.462 179.802 336.818 179.802C338.325 179.651 339.907 179.651 341.564 179.802C343.221 179.953 344.728 179.953 346.084 179.802C347.591 179.651 348.344 178.898 348.344 177.542V79.458C348.344 77.9513 347.515 77.198 345.858 77.198C344.201 77.0473 342.317 77.0473 340.208 77.198C338.249 77.3487 336.441 77.424 334.784 77.424C333.277 77.424 332.675 76.8213 332.976 75.616C333.277 75.0133 333.579 74.6367 333.88 74.486C334.031 74.034 334.483 73.6573 335.236 73.356L375.238 61.378C375.991 61.0767 376.895 61.0767 377.95 61.378C379.155 61.5287 379.984 61.9807 380.436 62.734C380.888 63.4873 381.189 64.9187 381.34 67.028C381.641 69.1373 381.867 71.548 382.018 74.26C382.169 76.8213 382.244 79.3073 382.244 81.718C382.395 84.1287 382.621 85.8613 382.922 86.916C383.073 87.6693 383.148 88.1213 383.148 88.272C383.299 88.4227 383.751 88.5733 384.504 88.724C386.011 88.8747 387.743 87.5187 389.702 84.656C391.661 81.7933 393.996 78.6293 396.708 75.164C399.571 71.6987 402.885 68.5347 406.652 65.672C410.569 62.6587 415.165 61.152 420.438 61.152C422.849 61.152 425.259 61.4533 427.67 62.056C430.081 62.508 432.19 63.3367 433.998 64.542C435.957 65.7473 437.463 67.3293 438.518 69.288C439.723 71.2467 440.326 73.6573 440.326 76.52C440.326 86.6147 435.279 91.662 425.184 91.662C423.075 91.662 421.191 91.5113 419.534 91.21C417.877 90.9087 416.219 90.1553 414.562 88.95C414.11 88.498 413.357 87.82 412.302 86.916C411.398 85.8613 410.419 84.8067 409.364 83.752C408.309 82.5467 407.33 81.492 406.426 80.588C405.673 79.684 405.145 79.232 404.844 79.232C403.639 78.9307 402.509 79.006 401.454 79.458C399.194 80.2113 396.934 82.0193 394.674 84.882C392.414 87.7447 390.38 90.984 388.572 94.6C386.915 98.216 385.559 101.832 384.504 105.448C383.449 109.064 382.922 112.002 382.922 114.262V175.056C382.922 175.809 383.449 176.789 384.504 177.994C385.559 179.199 386.463 179.802 387.216 179.802H402.584L403.488 180.48ZM467.114 17.76C467.114 12.1853 468.847 7.96666 472.312 5.10399C475.778 2.24132 479.62 0.809987 483.838 0.809987C488.057 0.809987 491.899 2.24132 495.364 5.10399C498.83 7.96666 500.562 12.1853 500.562 17.76C500.562 23.3347 498.83 27.5533 495.364 30.416C491.899 33.128 488.057 34.484 483.838 34.484C479.62 34.484 475.778 33.128 472.312 30.416C468.847 27.5533 467.114 23.3347 467.114 17.76ZM453.102 182.74C452.349 182.288 452.274 181.685 452.876 180.932C453.63 180.179 454.308 179.802 454.91 179.802H465.08C466.587 179.802 467.34 179.049 467.34 177.542V79.458C467.34 77.9513 466.587 77.198 465.08 77.198H452.198C451.897 76.8967 451.445 76.294 450.842 75.39C450.39 74.3353 450.541 73.6573 451.294 73.356L498.302 61.152C500.261 60.7 501.24 61.4533 501.24 63.412V177.542C501.24 178.597 501.843 179.199 503.048 179.35C504.254 179.501 505.61 179.576 507.116 179.576C508.774 179.576 510.356 179.651 511.862 179.802C513.369 179.802 514.424 180.254 515.026 181.158C515.478 181.911 515.328 182.514 514.574 182.966C514.273 183.117 512.616 183.267 509.602 183.418C506.589 183.418 502.822 183.493 498.302 183.644C493.933 183.644 489.112 183.644 483.838 183.644C478.716 183.644 473.894 183.644 469.374 183.644C465.005 183.644 461.238 183.569 458.074 183.418C455.061 183.267 453.404 183.117 453.102 182.966V182.74ZM535.004 183.418C533.799 183.418 533.196 182.815 533.196 181.61C533.196 180.254 533.95 179.576 535.456 179.576C537.114 179.576 538.846 179.727 540.654 180.028C542.613 180.179 544.346 180.179 545.852 180.028C547.51 179.877 548.338 179.049 548.338 177.542V16.178C548.338 14.6713 547.585 13.918 546.078 13.918H535.004C533.799 13.918 533.196 13.3153 533.196 12.11C533.196 10.9047 533.799 10.1513 535.004 9.84999L579.526 0.809987C581.334 0.357993 582.238 1.11133 582.238 3.06998V176.638C582.238 177.391 582.54 178.145 583.142 178.898C583.896 179.501 584.649 179.802 585.402 179.802H595.346C596.552 179.802 597.305 180.405 597.606 181.61C597.908 182.815 597.23 183.418 595.572 183.418H535.004ZM664.776 178.22C665.379 178.521 666.358 178.823 667.714 179.124C669.07 179.275 670.351 179.501 671.556 179.802C672.761 179.953 673.816 180.179 674.72 180.48C675.775 180.781 676.302 181.233 676.302 181.836C676.302 182.891 675.85 183.418 674.946 183.418H617.768C616.563 183.418 615.96 182.815 615.96 181.61C615.96 180.405 616.638 179.802 617.994 179.802C619.501 179.651 621.083 179.651 622.74 179.802C624.397 179.953 625.904 179.953 627.26 179.802C628.767 179.651 629.52 178.898 629.52 177.542V79.458C629.52 77.9513 628.767 77.198 627.26 77.198H615.056C614.453 77.198 614.152 77.0473 614.152 76.746C614.152 76.294 614.152 75.9173 614.152 75.616C614.453 75.0133 614.755 74.6367 615.056 74.486C615.207 74.034 615.659 73.6573 616.412 73.356L656.64 61.378C657.243 61.2273 658.147 61.152 659.352 61.152C660.557 61.152 661.386 61.378 661.838 61.83C661.989 61.9807 662.139 62.8847 662.29 64.542C662.591 66.1993 662.817 68.0827 662.968 70.192C663.269 72.1507 663.495 74.1093 663.646 76.068C663.947 77.876 664.098 79.006 664.098 79.458C664.399 81.1153 664.475 82.9233 664.324 84.882C664.324 86.69 664.324 88.4227 664.324 90.08V177.316L664.776 178.22ZM740.938 177.542C741.842 178.295 742.972 178.823 744.328 179.124C745.835 179.425 747.191 179.727 748.396 180.028C749.752 180.179 750.882 180.405 751.786 180.706C752.69 180.857 753.142 181.233 753.142 181.836C753.142 182.891 752.69 183.418 751.786 183.418H694.608C693.101 183.418 692.574 182.815 693.026 181.61C693.327 180.405 694.156 179.802 695.512 179.802C697.019 179.651 698.525 179.651 700.032 179.802C701.689 179.953 703.121 179.953 704.326 179.802C705.682 179.651 706.36 178.898 706.36 177.542V88.498C706.36 86.238 705.833 84.2793 704.778 82.622C703.271 80.362 701.388 78.7047 699.128 77.65C696.868 76.4447 694.457 75.7667 691.896 75.616C689.485 75.3147 686.999 75.4653 684.438 76.068C681.877 76.6707 679.466 77.424 677.206 78.328C676.302 78.78 675.172 79.458 673.816 80.362C672.611 81.1153 671.631 81.6427 670.878 81.944C669.673 82.396 668.769 82.396 668.166 81.944C667.714 81.492 667.94 80.6633 668.844 79.458C669.597 78.554 670.501 77.5747 671.556 76.52C672.761 75.4653 673.741 74.5613 674.494 73.808C679.466 69.4387 684.363 66.2747 689.184 64.316C694.005 62.3573 699.731 61.378 706.36 61.378C711.784 61.378 716.304 62.508 719.92 64.768C723.536 66.8773 726.625 69.288 729.186 72C731.747 74.712 733.932 77.198 735.74 79.458C737.548 81.5673 739.356 82.622 741.164 82.622C741.767 82.622 742.52 82.17 743.424 81.266C744.479 80.362 745.232 79.684 745.684 79.232C748.697 76.2187 751.861 73.5067 755.176 71.096C758.641 68.5347 762.333 66.35 766.25 64.542C770.619 62.4327 775.591 61.378 781.166 61.378C785.535 61.378 789.679 61.83 793.596 62.734C797.513 63.638 800.979 65.1447 803.992 67.254C807.005 69.2127 809.416 71.8493 811.224 75.164C813.183 78.4787 814.388 82.4713 814.84 87.142C816.045 101.907 816.573 116.673 816.422 131.438C816.422 146.053 816.422 160.743 816.422 175.508C816.422 175.96 816.497 176.261 816.648 176.412C816.799 176.713 816.874 177.015 816.874 177.316C817.025 177.617 817.175 177.919 817.326 178.22C817.778 179.275 818.682 179.877 820.038 180.028C821.545 180.028 822.976 179.953 824.332 179.802C825.839 179.651 827.119 179.651 828.174 179.802C829.379 179.953 829.982 180.555 829.982 181.61C829.982 182.815 829.379 183.418 828.174 183.418H771.448C770.243 183.418 769.64 182.815 769.64 181.61C769.64 180.405 770.318 179.802 771.674 179.802C773.181 179.651 774.763 179.651 776.42 179.802C778.077 179.953 779.584 179.953 780.94 179.802C782.447 179.651 783.2 178.898 783.2 177.542V94.6C783.2 89.176 782.07 84.9573 779.81 81.944C777.701 78.9307 775.064 76.972 771.9 76.068C768.736 75.0133 765.195 74.7873 761.278 75.39C757.511 75.842 754.046 76.8967 750.882 78.554C747.718 80.0607 745.006 81.944 742.746 84.204C740.637 86.3133 739.582 88.498 739.582 90.758C739.582 105.373 739.808 119.837 740.26 134.15C740.712 148.463 740.938 162.927 740.938 177.542ZM934.708 186.356C932.9 185.753 931.017 184.774 929.058 183.418C927.1 182.062 925.292 180.48 923.634 178.672C921.977 176.864 920.546 174.981 919.34 173.022C918.286 170.913 917.758 168.879 917.758 166.92V162.4L918.436 118.104C918.436 116.899 917.834 116.07 916.628 115.618C915.724 115.317 914.594 115.241 913.238 115.392C911.882 115.543 910.451 115.844 908.944 116.296C907.588 116.748 906.232 117.2 904.876 117.652C903.52 118.104 902.466 118.556 901.712 119.008C892.522 123.528 885.968 130.609 882.05 140.252C880.544 143.717 879.564 147.484 879.112 151.552C878.811 155.469 879.188 159.161 880.242 162.626C881.448 166.091 883.406 168.954 886.118 171.214C888.83 173.474 892.597 174.604 897.418 174.604C898.021 174.604 899.151 174.378 900.808 173.926C902.616 173.323 904.349 172.871 906.006 172.57C907.664 172.118 908.944 171.967 909.848 172.118C910.903 172.269 911.054 173.097 910.3 174.604C908.342 178.371 905.027 181.233 900.356 183.192C895.836 185 890.864 185.979 885.44 186.13C880.167 186.431 874.969 186.055 869.846 185C864.874 183.795 860.882 181.987 857.868 179.576C854.403 176.864 852.068 173.625 850.862 169.858C849.657 166.091 849.054 162.099 849.054 157.88C849.054 151.251 850.712 145.601 854.026 140.93C857.341 136.109 861.56 132.041 866.682 128.726C871.805 125.411 877.304 122.775 883.18 120.816C889.207 118.857 894.932 117.275 900.356 116.07C901.26 115.919 902.466 115.769 903.972 115.618C905.479 115.317 907.061 115.015 908.718 114.714C910.376 114.413 911.882 114.111 913.238 113.81C914.745 113.509 915.8 113.207 916.402 112.906C918.06 112.153 918.813 110.947 918.662 109.29C918.662 107.482 918.662 105.9 918.662 104.544C918.662 101.983 918.662 99.1953 918.662 96.182C918.662 93.1687 918.512 90.1553 918.21 87.142C917.909 83.978 917.306 81.04 916.402 78.328C915.649 75.4653 914.444 72.904 912.786 70.644C910.526 67.48 907.438 65.898 903.52 65.898C902.616 65.898 901.185 65.898 899.226 65.898C897.418 65.7473 895.535 65.672 893.576 65.672C891.618 65.672 889.81 65.7473 888.152 65.898C886.495 66.0487 885.365 66.2747 884.762 66.576C884.16 66.8773 883.783 68.0073 883.632 69.966C883.482 71.774 883.256 74.034 882.954 76.746C882.804 79.458 882.427 82.3207 881.824 85.334C881.372 88.1967 880.544 90.9087 879.338 93.47C878.133 96.0313 876.4 98.1407 874.14 99.798C872.031 101.455 869.244 102.284 865.778 102.284C861.861 102.284 858.848 101.38 856.738 99.572C854.78 97.6133 853.574 95.278 853.122 92.566C852.821 89.7033 853.198 86.7653 854.252 83.752C855.307 80.7387 856.889 78.102 858.998 75.842C861.861 72.8287 865.1 70.3427 868.716 68.384C872.483 66.4253 876.476 64.9187 880.694 63.864C884.913 62.8093 889.132 62.1313 893.35 61.83C897.72 61.378 901.863 61.152 905.78 61.152C907.89 61.152 909.999 61.2273 912.108 61.378C914.218 61.378 916.327 61.378 918.436 61.378C922.956 61.378 927.175 62.3573 931.092 64.316C935.16 66.2747 938.626 68.9113 941.488 72.226C944.502 75.39 946.837 79.0813 948.494 83.3C950.152 87.5187 950.98 91.8127 950.98 96.182V171.44C950.98 172.495 951.282 173.399 951.884 174.152C952.638 174.755 953.391 175.282 954.144 175.734C955.5 176.638 956.63 177.241 957.534 177.542C958.589 177.693 959.493 177.693 960.246 177.542C961.15 177.391 962.054 177.09 962.958 176.638C963.862 176.186 964.992 175.734 966.348 175.282C967.554 174.83 968.382 174.604 968.834 174.604C969.437 174.604 969.588 175.433 969.286 177.09C969.136 177.843 968.834 178.521 968.382 179.124C967.93 179.727 967.478 180.254 967.026 180.706C965.218 182.514 962.958 183.87 960.246 184.774C957.685 185.527 954.973 186.055 952.11 186.356C949.248 186.657 946.385 186.733 943.522 186.582C940.66 186.582 938.023 186.582 935.612 186.582C935.16 186.582 934.859 186.507 934.708 186.356ZM1051.69 180.48C1051.99 181.083 1052.22 181.761 1052.37 182.514C1052.52 183.117 1052.07 183.418 1051.02 183.418H984.797C983.592 183.418 982.989 182.815 982.989 181.61C982.989 180.405 983.667 179.802 985.023 179.802C986.53 179.651 988.112 179.651 989.769 179.802C991.427 179.953 992.933 179.953 994.289 179.802C995.796 179.651 996.549 178.898 996.549 177.542V79.458C996.549 77.9513 995.721 77.198 994.063 77.198C992.406 77.0473 990.523 77.0473 988.413 77.198C986.455 77.3487 984.647 77.424 982.989 77.424C981.483 77.424 980.88 76.8213 981.181 75.616C981.483 75.0133 981.784 74.6367 982.085 74.486C982.236 74.034 982.688 73.6573 983.441 73.356L1023.44 61.378C1024.2 61.0767 1025.1 61.0767 1026.16 61.378C1027.36 61.5287 1028.19 61.9807 1028.64 62.734C1029.09 63.4873 1029.39 64.9187 1029.55 67.028C1029.85 69.1373 1030.07 71.548 1030.22 74.26C1030.37 76.8213 1030.45 79.3073 1030.45 81.718C1030.6 84.1287 1030.83 85.8613 1031.13 86.916C1031.28 87.6693 1031.35 88.1213 1031.35 88.272C1031.5 88.4227 1031.96 88.5733 1032.71 88.724C1034.22 88.8747 1035.95 87.5187 1037.91 84.656C1039.87 81.7933 1042.2 78.6293 1044.91 75.164C1047.78 71.6987 1051.09 68.5347 1054.86 65.672C1058.77 62.6587 1063.37 61.152 1068.64 61.152C1071.05 61.152 1073.46 61.4533 1075.88 62.056C1078.29 62.508 1080.4 63.3367 1082.2 64.542C1084.16 65.7473 1085.67 67.3293 1086.72 69.288C1087.93 71.2467 1088.53 73.6573 1088.53 76.52C1088.53 86.6147 1083.48 91.662 1073.39 91.662C1071.28 91.662 1069.4 91.5113 1067.74 91.21C1066.08 90.9087 1064.42 90.1553 1062.77 88.95C1062.32 88.498 1061.56 87.82 1060.51 86.916C1059.6 85.8613 1058.62 84.8067 1057.57 83.752C1056.51 82.5467 1055.54 81.492 1054.63 80.588C1053.88 79.684 1053.35 79.232 1053.05 79.232C1051.84 78.9307 1050.71 79.006 1049.66 79.458C1047.4 80.2113 1045.14 82.0193 1042.88 84.882C1040.62 87.7447 1038.59 90.984 1036.78 94.6C1035.12 98.216 1033.76 101.832 1032.71 105.448C1031.65 109.064 1031.13 112.002 1031.13 114.262V175.056C1031.13 175.809 1031.65 176.789 1032.71 177.994C1033.76 179.199 1034.67 179.802 1035.42 179.802H1050.79L1051.69 180.48ZM1209.11 161.496C1209.11 164.359 1208.73 166.769 1207.98 168.728C1207.23 170.536 1205.79 172.344 1203.69 174.152C1201.88 175.809 1199.77 177.241 1197.36 178.446C1195.1 179.651 1192.69 180.706 1190.13 181.61C1187.56 182.514 1184.93 183.343 1182.22 184.096C1179.65 184.699 1177.24 185.151 1174.98 185.452C1164.59 186.959 1154.79 186.657 1145.6 184.548C1136.56 182.439 1128.65 178.747 1121.87 173.474C1115.24 168.05 1109.97 161.195 1106.05 152.908C1102.29 144.471 1100.4 134.828 1100.4 123.98C1100.4 114.488 1102.06 105.9 1105.38 98.216C1108.69 90.3813 1113.29 83.752 1119.16 78.328C1125.04 72.904 1131.97 68.7607 1139.95 65.898C1147.94 62.8847 1156.6 61.378 1165.94 61.378C1166.4 61.378 1167.3 61.378 1168.66 61.378C1170.01 61.378 1171.37 61.378 1172.72 61.378C1174.23 61.378 1175.59 61.378 1176.79 61.378C1178 61.378 1178.67 61.378 1178.83 61.378C1180.63 62.1313 1182.44 62.8847 1184.25 63.638C1186.21 64.2407 1188.09 64.9187 1189.9 65.672C1192.61 66.7267 1195.17 68.2333 1197.58 70.192C1200.14 72 1202.33 74.1847 1204.14 76.746C1206.1 79.1567 1207.68 81.7933 1208.88 84.656C1210.09 87.5187 1210.69 90.3813 1210.69 93.244C1210.69 95.956 1209.86 98.216 1208.21 100.024C1206.7 101.681 1204.82 102.887 1202.56 103.64C1200.3 104.243 1197.88 104.393 1195.32 104.092C1192.91 103.64 1190.8 102.736 1189 101.38C1186.13 99.2707 1184.4 96.634 1183.8 93.47C1183.19 90.1553 1182.82 86.7653 1182.67 83.3C1182.67 79.8347 1182.44 76.5953 1181.99 73.582C1181.69 70.418 1180.26 67.932 1177.7 66.124C1177.54 65.9733 1177.17 65.898 1176.57 65.898C1172.2 65.898 1168.2 66.124 1164.59 66.576C1161.12 66.8773 1157.51 68.384 1153.74 71.096C1149.82 73.9587 1146.73 77.4993 1144.47 81.718C1142.21 85.786 1140.48 90.1553 1139.28 94.826C1138.07 99.4967 1137.32 104.318 1137.02 109.29C1136.71 114.111 1136.56 118.707 1136.56 123.076C1136.56 125.185 1136.49 127.219 1136.34 129.178C1136.34 131.137 1136.41 133.171 1136.56 135.28C1136.71 137.239 1137.32 139.8 1138.37 142.964C1139.58 145.977 1140.63 148.388 1141.54 150.196C1145 157.579 1149.67 163.53 1155.55 168.05C1161.57 172.419 1168.81 174.604 1177.24 174.604C1180.26 174.604 1183.19 174.303 1186.06 173.7C1188.92 173.097 1191.63 172.118 1194.19 170.762C1196.75 169.557 1199.17 168.125 1201.43 166.468C1203.69 164.66 1205.95 162.927 1208.21 161.27C1208.51 160.969 1208.81 161.044 1209.11 161.496ZM1276.25 1.26199C1276.56 1.26199 1276.93 1.26199 1277.38 1.26199C1277.84 1.26199 1278.21 1.33733 1278.51 1.48799C1279.12 1.63866 1279.42 2.01532 1279.42 2.61799C1279.57 4.42599 1279.64 7.74066 1279.64 12.562C1279.64 17.2327 1279.57 22.5813 1279.42 28.608C1279.27 34.484 1279.04 40.7367 1278.74 47.366C1278.59 53.8447 1278.36 59.8713 1278.06 65.446C1277.91 70.87 1277.84 75.4653 1277.84 79.232C1277.84 82.848 1277.99 84.8067 1278.29 85.108C1278.74 85.7107 1279.19 86.1627 1279.64 86.464C1280.1 86.7653 1280.32 87.368 1280.32 88.272V177.542C1280.32 179.049 1281.08 179.802 1282.58 179.802H1291.17C1292.38 179.802 1292.98 180.405 1292.98 181.61C1292.98 182.815 1292.38 183.418 1291.17 183.418H1233.09C1231.88 183.418 1231.28 183.041 1231.28 182.288C1231.28 181.384 1231.66 180.631 1232.41 180.028C1233.01 179.576 1234.07 179.425 1235.57 179.576C1237.08 179.727 1238.59 179.877 1240.09 180.028C1241.75 180.179 1243.18 180.179 1244.39 180.028C1245.74 179.727 1246.42 178.898 1246.42 177.542V16.178C1246.42 14.6713 1245.59 13.918 1243.94 13.918C1242.43 13.7673 1240.7 13.7673 1238.74 13.918C1236.93 14.0687 1235.2 14.144 1233.54 14.144C1232.03 14.144 1231.28 13.466 1231.28 12.11C1231.28 10.9047 1231.88 10.1513 1233.09 9.84999L1276.25 1.26199ZM1310.15 181.158C1310.91 180.254 1312.04 179.802 1313.54 179.802C1315.2 179.802 1316.86 179.877 1318.52 180.028C1320.17 180.028 1321.6 179.953 1322.81 179.802C1324.02 179.651 1324.62 178.898 1324.62 177.542V99.12C1324.62 95.3533 1324.17 91.8127 1323.26 88.498C1322.36 85.0327 1320.93 82.17 1318.97 79.91C1317.01 77.65 1314.45 76.1433 1311.28 75.39C1308.27 74.486 1304.65 74.712 1300.44 76.068C1300.13 76.068 1298.93 76.6707 1296.82 77.876C1294.86 78.9307 1292.83 79.91 1290.72 80.814C1288.61 81.5673 1286.88 82.0193 1285.52 82.17C1284.31 82.17 1284.47 81.1153 1285.97 79.006C1290.34 73.13 1295.69 68.7607 1302.02 65.898C1308.5 62.8847 1315.35 61.378 1322.58 61.378C1333.43 61.378 1342.1 64.4667 1348.57 70.644C1355.2 76.6707 1358.52 85.1833 1358.52 96.182V177.542C1358.52 178.898 1359.2 179.651 1360.55 179.802C1361.91 179.953 1363.34 179.953 1364.85 179.802C1366.5 179.651 1368.01 179.651 1369.37 179.802C1370.72 179.802 1371.4 180.405 1371.4 181.61C1371.4 182.815 1370.8 183.418 1369.59 183.418H1311.96C1310.3 183.418 1309.7 182.665 1310.15 181.158Z" fill="#E0E0E0"/>
</svg>
