<svg width="144" height="23" viewBox="0 0 144 23" fill="none" xmlns="http://www.w3.org/2000/svg">
<path d="M85.8027 14.6407H77.3149V6.7944H85.8027V14.6407ZM74 3.51953V15.1487C74 16.6725 75.2431 17.9156 76.7669 17.9156H89.0507V3.51953H74.0134H74Z" fill="#9C9C9C"/>
<path d="M112.163 17.9156H100.079C98.5556 17.9156 97.3125 16.6725 97.3125 15.1487V3.51953H112.176V6.7543H100.668V14.6006H112.176V17.929L112.163 17.9156Z" fill="#9C9C9C"/>
<path d="M95.6656 3.50781H92.4844V19.1604H95.6656V3.50781Z" fill="#9C9C9C"/>
<path d="M118.646 3.50781H115.465V19.1604H118.646V3.50781Z" fill="#9C9C9C"/>
<path d="M128.686 14.8536C126.079 14.8536 123.954 12.9957 123.954 10.7099C123.954 8.4242 126.066 6.57956 128.686 6.57956C131.292 6.57956 133.417 8.4242 133.417 10.7099C133.417 12.9957 131.306 14.8536 128.686 14.8536ZM128.565 3.30469C124.061 3.30469 120.398 6.61967 120.398 10.7099C120.398 14.8002 124.061 18.1151 128.565 18.1151C133.083 18.1151 136.732 14.8002 136.732 10.7099C136.732 6.61967 133.083 3.30469 128.565 3.30469Z" fill="#9C9C9C"/>
<path d="M140.17 3.50781V9.00158H135.719V12.2364H140.17V12.3433V19.1604H143.351V3.50781H140.17Z" fill="#9C9C9C"/>
<path d="M9.61847 3.50781L3.68372 10.9531V3.50781H0.355469V19.1604H3.68372V11.1135L9.49818 19.1604H14.2299L7.77388 11.0333L14.0027 3.50781H9.61847Z" fill="#9C9C9C"/>
<path d="M37.9102 9.62591C38.8726 9.62591 43.0029 10.2542 43.0029 14.3444C43.0029 18.6753 38.8459 19.1431 38.8459 19.1431H29.1284V16.6034H36.9478C39.2201 16.6034 39.1934 14.438 39.1934 14.438C39.1934 12.072 36.5067 12.1656 36.5067 12.1656H33.5126C32.1359 12.1656 28.5938 11.671 28.5938 8.00853C28.5938 3.61084 32.9913 3.50391 32.9913 3.50391H41.8935V6.00351H34.582C32.2161 6.00351 32.2562 7.83476 32.2562 7.83476C32.2562 7.83476 32.2695 9.62591 34.328 9.62591H37.9236H37.9102Z" fill="#9C9C9C"/>
<path d="M21.6211 16.5972H17.6913V12.1996H22.53C22.53 12.1996 24.9761 12.2931 24.9761 14.365C24.9761 16.4502 23.1449 16.5839 21.6077 16.5839M17.6779 6.02408H21.982C21.982 6.02408 24.3211 5.91714 24.3211 7.85533C24.3211 9.52619 22.8508 9.63312 22.3696 9.67322H17.6779V6.02408ZM23.9335 19.1236C26.286 19.1236 28.4246 17.3993 28.4246 14.7526C28.4246 11.7317 26.1924 10.796 26.1924 10.796C26.1924 10.796 27.9702 10.1812 27.7964 7.48106C27.5558 3.55122 23.1181 3.48438 23.1181 3.48438H14.5234V19.1102C14.5234 19.1102 21.9552 19.1102 23.9335 19.1102" fill="#9C9C9C"/>
<path d="M68.2628 11.2176C68.2628 11.2176 68.236 11.2176 68.2227 11.1775C68.2227 11.1642 68.2227 11.1508 68.2227 11.1241C67.942 10.0146 67.3672 9.05222 66.5652 8.26357C64.2662 5.97785 60.1091 5.06889 55.7116 6.12487C55.3774 6.20507 55.0432 6.29865 54.7224 6.40559C54.0274 6.63282 53.3591 6.90015 52.7308 7.19422C52.8645 7.44819 53.0249 7.67544 53.212 7.8893C54.5219 7.27443 55.9923 6.81994 57.5294 6.61944C58.5586 6.48577 59.5745 6.45905 60.5369 6.55262C63.1434 6.79322 65.4023 7.8091 66.7924 9.34628C67.6746 10.3354 68.2093 11.5384 68.2227 12.8751V12.9821C68.2227 12.9821 68.2227 13.0489 68.2227 13.0756C68.2227 13.1291 68.1826 13.1291 68.1558 13.1291C68.1425 13.1291 68.1157 13.1157 68.1157 13.1024C68.1157 13.0756 68.1157 13.0355 68.1157 13.0088C67.9687 11.9395 67.5409 10.977 66.8726 10.1617C66.0038 9.07895 64.734 8.26357 63.2102 7.75563C61.3924 7.15412 59.1869 7.02046 56.8344 7.47494C55.7517 7.67544 54.7224 7.99623 53.76 8.38387C54.014 8.59774 54.2947 8.78487 54.5888 8.94528C55.6715 8.46407 56.9012 8.12991 58.2378 7.99624C60.8844 7.72891 63.3706 8.27693 65.1484 9.39974C65.8301 9.82748 66.4182 10.3354 66.8593 10.9102C67.4741 11.6988 67.8216 12.6212 67.835 13.6237C67.835 14.1851 67.7548 14.7331 67.5677 15.2544C67.5677 15.2678 67.5543 15.2945 67.5543 15.3079C67.541 15.3346 67.5142 15.348 67.5009 15.3346C67.4875 15.3346 67.4741 15.3079 67.4741 15.2812C67.4741 15.2678 67.4741 15.241 67.4741 15.2277C67.5677 14.8133 67.5944 14.3722 67.5677 13.9311C67.5009 13.1157 67.2068 12.3672 66.7523 11.6988C66.6454 11.5518 66.5518 11.4181 66.4315 11.2845C64.7206 9.29281 61.3389 8.25019 57.77 8.91854C57.1017 9.02547 56.4467 9.18588 55.8452 9.38638C56.4066 9.50668 56.9947 9.53342 57.5962 9.45322C57.5962 9.45322 58.572 9.31955 58.973 9.23935C59.0532 9.23935 59.1735 9.21261 59.227 9.21261H59.2537C59.8285 9.15914 61.5928 9.05221 63.4508 9.72055C63.4508 9.72055 65.536 10.429 66.4315 12.0063C66.4315 12.0063 66.632 12.3003 66.338 12.7014C66.0573 13.0489 65.7632 13.3831 65.4291 13.7039C65.1083 13.9979 64.5469 14.3856 64.5469 14.3856C64.0389 14.7331 63.5043 15.0406 62.9295 15.3213C62.9295 15.3213 62.8493 15.348 62.8092 15.3747C62.836 15.4148 62.8493 15.4549 62.876 15.495C62.9429 15.6287 63.0097 15.7757 63.0631 15.9228C62.1141 16.3772 61.0715 16.7515 59.9755 17.0189C55.7249 18.0882 51.6882 17.3396 49.3357 15.2544C48.2263 14.2786 47.4778 12.9954 47.2639 11.485C47.2639 11.4583 47.2639 11.4315 47.2639 11.4048C47.2639 11.3647 47.2773 11.3513 47.2906 11.3513C47.304 11.3513 47.3174 11.3513 47.3307 11.3914C47.3307 11.4048 47.3307 11.4181 47.3307 11.4449C47.6114 12.5543 48.1862 13.5167 48.9882 14.3054C51.2872 16.5911 55.4443 17.5001 59.8418 16.4307C60.176 16.3505 60.4968 16.2569 60.8176 16.15C61.5126 15.9228 62.181 15.6688 62.8092 15.3614C62.6756 15.1074 62.5151 14.8801 62.328 14.6663C61.0181 15.2812 59.5478 15.7356 58.0106 15.9361C56.9814 16.0698 55.9655 16.0965 55.0031 16.003C52.3966 15.7624 50.1377 14.7465 48.761 13.2093C47.8788 12.2202 47.3441 11.0171 47.3307 9.68046V9.57352C47.3307 9.57352 47.3307 9.50669 47.3307 9.47996C47.3307 9.42649 47.3709 9.42648 47.3976 9.42648C47.411 9.42648 47.4377 9.43985 47.4377 9.45322C47.4377 9.47996 47.4377 9.52005 47.4377 9.54678C47.5847 10.6161 48.0124 11.5785 48.6808 12.3939C49.5496 13.4633 50.8194 14.292 52.3432 14.8C54.1744 15.4015 56.3665 15.5351 58.719 15.0806C59.8017 14.8801 60.8443 14.5727 61.7934 14.1717C61.5394 13.9578 61.2587 13.7573 60.9646 13.6103C59.8819 14.0915 58.6522 14.4257 57.3156 14.5593C54.669 14.8267 52.1828 14.2786 50.4051 13.1692C49.7234 12.7415 49.1352 12.2335 48.6941 11.6454C48.0793 10.8567 47.7318 9.93443 47.7184 8.93192C47.7184 8.37051 47.7986 7.82247 47.9857 7.30116C47.9857 7.28779 47.9857 7.26105 47.9991 7.24768C48.0124 7.22095 48.0258 7.2076 48.0525 7.22096C48.0659 7.22096 48.0793 7.24769 48.0793 7.27442C48.0793 7.28779 48.0793 7.31453 48.0793 7.3279C47.9857 7.75564 47.959 8.18336 47.9857 8.62446C48.0525 9.43984 48.3466 10.1884 48.8011 10.8434C48.8946 10.9904 49.0016 11.1241 49.1219 11.2577C50.8328 13.2494 54.2145 14.2786 57.7834 13.6237C58.4651 13.5167 59.1067 13.3563 59.7082 13.1692C59.1468 13.0489 58.5587 13.0222 57.9572 13.1024C57.9572 13.1024 56.9814 13.236 56.5804 13.3162C56.5002 13.3162 56.3799 13.343 56.3131 13.3563H56.2863C55.7116 13.4098 53.9472 13.5167 52.0892 12.8484C52.0892 12.8484 50.0174 12.14 49.1085 10.5627C49.1085 10.5627 48.908 10.2686 49.2021 9.86759C49.4827 9.52005 49.7768 9.18588 50.111 8.86508C50.4318 8.57101 50.9798 8.18338 50.9798 8.18338C51.4878 7.83584 52.0224 7.52839 52.5972 7.24768C52.5972 7.24768 52.6774 7.22096 52.7175 7.19422C52.7041 7.15412 52.6774 7.11403 52.6506 7.07393C52.5838 6.94026 52.517 6.79321 52.4635 6.64618C53.4259 6.19171 54.4551 5.81744 55.5512 5.5501C59.8017 4.48075 63.8384 5.22929 66.191 7.31452C67.3004 8.2903 68.0489 9.57352 68.2628 11.084C68.2628 11.1107 68.2628 11.1374 68.2628 11.1642C68.2628 11.2043 68.2494 11.2043 68.236 11.2176M63.2503 17.5134C62.2478 17.9679 61.1918 18.3422 60.0557 18.6229C56.4333 19.5184 53.1719 19.0773 50.8328 17.7407C49.2021 16.805 48.0258 15.4416 47.451 13.7974C47.451 13.7707 47.4377 13.7573 47.4243 13.7306C47.3976 13.6504 47.4243 13.6237 47.4644 13.6103C47.4778 13.6103 47.5045 13.6103 47.5179 13.637C47.5179 13.6504 47.5179 13.6771 47.5446 13.6905C48.0525 14.9203 48.9348 15.9762 50.0709 16.7916C52.4635 18.4758 56.0457 19.1041 60.0691 18.0481C61.1785 17.7406 62.2344 17.353 63.2102 16.8852C63.2102 16.9253 63.2102 16.9654 63.2236 17.0055C63.2369 17.1792 63.2503 17.3397 63.2503 17.5134ZM62.7958 19.3313C61.927 19.7323 60.9646 20.0531 59.8819 20.2536C58.2646 20.5744 56.6873 20.6279 55.2438 20.4408C52.0492 20.013 49.4694 18.4224 48.2397 15.9896C48.2397 15.9762 48.2129 15.9495 48.2129 15.9228C48.2129 15.896 48.213 15.8693 48.2263 15.8559C48.2397 15.8559 48.2798 15.8559 48.3065 15.8827C48.3065 15.896 48.3332 15.9228 48.3466 15.9495C49.3491 17.5268 50.9531 18.7164 52.9046 19.3981C54.8829 20.0932 57.2354 20.2804 59.6948 19.8393C60.9379 19.6254 62.0473 19.2645 63.0097 18.7833C62.9429 18.9704 62.876 19.1575 62.7825 19.3313M52.1962 5.13573C53.1853 4.68126 54.2546 4.30698 55.3774 4.02628C58.9997 3.1307 62.2612 3.57181 64.6003 4.9085C66.2311 5.84417 67.4207 7.2076 67.9821 8.85172C67.9821 8.87845 67.9954 8.8918 68.0088 8.91854C68.0355 9.0121 68.0088 9.03885 67.9687 9.03885C67.9553 9.03885 67.9286 9.03885 67.9286 9.01211C67.9286 8.99875 67.9152 8.972 67.9019 8.95864C67.3939 7.72889 66.5251 6.67292 65.3756 5.85754C62.983 4.15995 59.4007 3.54507 55.3774 4.60105C54.268 4.90849 53.212 5.29613 52.2363 5.76397C52.2363 5.72387 52.2363 5.68377 52.2229 5.64367C52.2095 5.4699 52.1962 5.3095 52.2095 5.13573M52.664 3.31784C53.5328 2.91683 54.4952 2.59603 55.5779 2.39553C57.1953 2.07472 58.7725 2.02125 60.2161 2.20839C63.4107 2.63613 65.9904 4.22679 67.2202 6.65956C67.2202 6.67293 67.2469 6.69965 67.2469 6.71302C67.2469 6.73975 67.2469 6.76649 67.2335 6.77986C67.2068 6.77986 67.1801 6.77985 67.1533 6.75312C67.1533 6.72638 67.1266 6.71301 67.1133 6.68628C66.1108 5.12236 64.5068 3.91935 62.5553 3.23764C60.577 2.54257 58.2245 2.35543 55.765 2.79653C54.5219 3.0104 53.4125 3.37131 52.4502 3.85252C52.517 3.66538 52.5838 3.49161 52.6774 3.30447M68.4098 10.9904C68.3964 10.576 68.3563 10.1617 68.2895 9.74729C68.2226 9.29282 68.1157 8.8517 67.9821 8.39723C67.7281 7.51502 67.3405 6.64618 66.8459 5.80407C65.4291 3.42478 63.3305 1.79402 61.1384 1.12568C61.1384 1.12568 56.1527 -0.53181 53.4526 2.20839C53.3992 2.26186 53.3591 2.31533 53.3056 2.3688C51.5679 2.98367 50.0709 4.02629 48.9882 5.3496C48.1595 6.36548 47.5714 7.55512 47.304 8.83834C47.2773 8.94527 47.2238 9.26607 47.2238 9.29281C47.0233 10.5092 47.0768 11.5117 47.0768 11.5117C47.0768 11.5117 47.0768 11.5785 47.0768 11.6186C47.1035 12.4875 47.2372 13.3831 47.5045 14.2786C47.7585 15.1475 48.1461 16.0163 48.6407 16.8584C50.0575 19.2377 52.1561 20.8685 54.3482 21.5368C54.3482 21.5368 59.3339 23.1943 62.0339 20.4541C62.0874 20.4007 62.1275 20.3472 62.181 20.2937C63.9186 19.6788 65.4157 18.6362 66.4984 17.3129C66.9929 16.698 67.4073 16.0297 67.7147 15.3213C68.383 13.8108 68.4632 12.1533 68.4231 11.0038" fill="#9C9C9C"/>
</svg>
