<svg width="147" height="33" viewBox="0 0 147 33" fill="none" xmlns="http://www.w3.org/2000/svg">
<path d="M11.9548 21.9931C11.9548 21.9931 12.0083 22.0732 12.0351 22.1133C12.0083 22.0732 11.9815 22.0198 11.9548 21.9797V21.9931ZM11.9414 9.18763L11.9815 9.14753C14.0266 6.08652 17.5019 4.06813 21.4316 4.06813C27.7273 4.06813 32.8333 9.22773 32.8333 15.577C32.8333 21.9262 27.7273 27.0858 21.4316 27.0858C17.542 27.0858 14.1067 25.1075 12.0483 22.1C14.3206 26.2303 18.6916 29.0106 23.6906 29.0106C31.0556 29.0106 37.0171 22.9822 37.0171 15.5502C37.0171 8.11827 31.0422 2.08984 23.6906 2.08984C18.6114 2.08984 14.187 4.96371 11.9414 9.18763Z" fill="#9C9C9C"/>
<mask id="mask0_588_20770" style="mask-type:luminance" maskUnits="userSpaceOnUse" x="11" y="2" width="27" height="27">
<path d="M11.947 21.9774C11.947 21.9774 12.0005 22.0576 12.0273 22.0977C12.0005 22.0576 11.9737 22.0041 11.947 21.964V21.9774ZM11.9336 9.172L11.9737 9.1319C14.0188 6.0709 17.494 4.0525 21.4238 4.0525C27.7194 4.0525 32.8255 9.2121 32.8255 15.5613C32.8255 21.9106 27.7194 27.0702 21.4238 27.0702C17.5341 27.0702 14.0989 25.0919 12.0405 22.0844C14.3128 26.2147 18.6838 28.995 23.6828 28.995C31.0478 28.995 37.0092 22.9666 37.0092 15.5346C37.0092 8.10265 31.0344 2.07422 23.6828 2.07422C18.6036 2.07422 14.1792 4.94808 11.9336 9.172Z" fill="white"/>
</mask>
<g mask="url(#mask0_588_20770)">
<path d="M37.0014 2.10156H11.9258V29.0357H37.0014V2.10156Z" fill="#9C9C9C"/>
</g>
<path d="M6.61947 14.4836L8.97199 19.2823C9.33289 19.6566 9.78733 19.8303 9.78733 19.8303C10.2418 20.0977 9.82747 20.1378 9.82747 20.1378H9.38627H7.20751H6.79324C6.79324 20.1378 6.37891 20.0977 6.83338 19.8303C6.83338 19.8303 6.98031 19.6967 6.90011 19.5095L6.87335 19.4695C6.87335 19.4695 6.84674 19.4293 6.83338 19.416L6.86013 19.4427L5.20253 16.0475C5.04213 15.7267 4.85515 16.0475 4.85515 16.0475L3.94616 17.1303C3.94616 17.1303 3.81252 17.3575 3.81252 17.5847V19.3625C3.90609 19.7502 4.24018 19.8571 4.24018 19.8571C4.69464 20.1244 4.28032 20.1645 4.28032 20.1645H1.03218C1.03218 20.1645 0.617854 20.1244 1.07232 19.8571C1.07232 19.8571 1.40657 19.7635 1.50014 19.3625V11.73C1.40657 11.3424 1.07232 11.2488 1.07232 11.2488C0.617854 10.9815 1.03218 10.9414 1.03218 10.9414H4.28032C4.28032 10.9414 4.69464 10.9815 4.24018 11.2488C4.24018 11.2488 3.90609 11.3424 3.81252 11.73V14.6841C3.81252 14.6841 3.83918 14.898 4.06641 14.6841L6.61947 11.6231L6.57933 11.6766C6.76646 11.436 6.57933 11.2622 6.57933 11.2622C6.12486 10.9949 6.53919 10.9548 6.53919 10.9548H7.24765H8.55755H9.26601C9.26601 10.9548 9.68034 10.9949 9.22588 11.2622C9.22588 11.2622 8.78481 11.436 8.42392 11.7969L6.64622 13.9222C6.64622 13.9222 6.43236 14.096 6.64622 14.497" fill="#9C9C9C"/>
<path d="M20.8066 19.8497C20.8066 19.8497 20.4725 19.7561 20.3789 19.3551V11.7226C20.4725 11.335 20.8066 11.2414 20.8066 11.2414C21.2477 10.9741 20.8467 10.934 20.8467 10.934H17.8125C17.8125 10.934 17.4784 10.9073 17.3447 11.2815L15.6204 16.3476C15.5001 16.7218 15.3263 16.3476 15.3263 16.3476L13.7223 11.2281C13.6287 10.934 13.3214 10.934 13.3214 10.934H12.2921H11.2093H10.501C10.501 10.934 10.0866 10.9741 10.541 11.2414C10.541 11.2414 10.8753 11.335 10.9688 11.7226V19.3551C10.8753 19.7427 10.541 19.8497 10.541 19.8497C10.0866 20.117 10.501 20.1571 10.501 20.1571H12.7465C12.7465 20.1571 13.1609 20.117 12.7064 19.8497C12.7064 19.8497 12.3723 19.7561 12.2787 19.3551V13.7544C12.2787 13.4737 12.4391 13.7544 12.4391 13.7544L14.3506 19.863C14.3506 19.863 14.4173 20.1571 14.7248 20.1571H15.5135C15.7808 20.1571 15.8343 19.863 15.8343 19.863L15.9813 19.4219L17.9194 13.7678C17.9194 13.7678 18.0664 13.5004 18.0664 13.7678V19.3685C17.9728 19.7561 17.6387 19.863 17.6387 19.863C17.1976 20.1304 17.5986 20.1705 17.5986 20.1705H20.8467C20.8467 20.1705 21.2611 20.1304 20.8066 19.863" fill="#9C9C9C"/>
<path d="M25.2247 19.8493C25.2247 19.8493 24.8904 19.7557 24.7969 19.3547V11.7222C24.8904 11.3346 25.2247 11.241 25.2247 11.241C25.6791 10.9737 25.2646 10.9336 25.2646 10.9336H22.0167C22.0167 10.9336 21.6022 10.9737 22.0566 11.241C22.0566 11.241 22.3909 11.3346 22.4845 11.7222V19.3547C22.3909 19.7423 22.0566 19.8493 22.0566 19.8493C21.6022 20.1166 22.0167 20.1567 22.0167 20.1567H25.2646C25.2646 20.1567 25.6791 20.1166 25.2247 19.8493Z" fill="#9C9C9C"/>
<path d="M53.3735 8.79775V4.03916C53.5072 3.81192 53.6809 3.78519 53.6809 3.78519H54.67C55.0844 3.78519 54.9642 3.37082 54.9642 3.37082C54.9375 3.18368 54.6834 3.22378 54.6834 3.22378H53.7211C53.5473 3.19705 53.427 2.96981 53.3735 2.78267V0.577155C53.3468 0.39002 53.1596 0.363281 53.1596 0.363281H51.3819C51.1547 0.443482 51.3685 0.563776 51.3685 0.563776C51.7562 0.67071 51.9433 1.20538 52.0235 1.49945V8.77101C52.0235 8.77101 51.9835 9.03836 52.2508 9.03836H53.173C53.173 9.03836 53.427 9.11855 53.3735 8.77101" fill="#9C9C9C"/>
<path d="M53.0617 11.9668H47.9156C47.675 11.8598 47.4478 11.5925 47.4478 10.991V7.8498C47.4478 7.66266 47.3008 7.51562 47.1136 7.51562H46.4319C46.4319 7.51562 46.3784 7.51562 46.3517 7.51562H45.4294C45.1487 7.63593 45.4294 7.78298 45.4294 7.78298C45.8705 7.90328 46.0309 8.41122 46.0844 8.63845V11.392C46.0844 11.392 45.8704 12.849 47.8219 12.6886H53.0617C53.1954 12.6886 53.3156 12.5683 53.3156 12.4346V12.2208C53.3156 12.0737 53.1954 11.9668 53.0617 11.9668Z" fill="#9C9C9C"/>
<path d="M50.2883 2.41743H50.2615C50.2482 2.21692 50.3417 2.08326 50.4487 2.00306H50.9031C50.9031 2.00306 51.2105 2.12337 51.2105 1.72237C51.2105 1.72237 51.1838 1.44165 50.9566 1.44165H48.8045C48.8045 1.44165 48.3902 1.44166 48.3902 1.02728V0.679754C48.3902 0.679754 48.4704 0.425781 48.1229 0.425781H46.5857C46.5857 0.425781 46.1848 0.65301 46.4387 0.773312C46.4387 0.773312 46.7194 0.773306 46.7461 1.08074C46.7461 1.08074 46.9199 1.38819 46.4387 1.38819H44.4337C44.4337 1.38819 44.2064 1.44166 44.2064 1.61543C44.2064 1.61543 44.1263 1.9897 44.407 2.01644H44.8748C44.9683 2.08327 45.0753 2.21693 45.0753 2.40407C44.6877 2.73824 44.1797 3.64718 44.1797 4.19522C44.1797 5.67894 45.7302 6.86858 47.655 6.86858C49.5797 6.86858 51.1304 5.66557 51.1304 4.19522C51.1304 3.52688 50.8096 2.912 50.2749 2.44417M47.6817 6.22698C46.7327 6.22698 45.9708 5.31804 45.9708 4.2086C45.9708 3.09915 46.7327 2.19019 47.6817 2.19019C48.6307 2.19019 49.3927 3.09915 49.3927 4.2086C49.3927 5.31804 48.6307 6.22698 47.6817 6.22698Z" fill="#9C9C9C"/>
<path d="M65.4922 4.69079H65.0777L65.158 4.66405C64.904 4.66405 64.8104 4.55711 64.7703 4.46354V0.974796C64.7703 0.801027 64.6501 0.667359 64.4763 0.640625H64.4495C64.4495 0.640625 64.4495 0.640625 64.4362 0.640625H56.6567C56.5097 0.640625 56.4028 0.76093 56.4028 0.894598V1.08173C56.4028 1.22877 56.5097 1.33571 56.6567 1.33571H62.899C63.0727 1.37581 63.1529 1.46937 63.1796 1.66988V3.98233C63.1796 4.12937 63.1128 4.59721 62.538 4.67741H55.7345C55.6009 4.67741 55.4805 4.79772 55.4805 4.93139V5.30566C55.4805 5.45269 55.6009 5.55963 55.7345 5.55963H59.5841C59.7178 5.6532 59.8648 5.81361 59.8915 6.06758V6.90967C59.8915 6.90967 59.9984 7.20375 59.3969 7.41762H56.6701C56.5231 7.41762 56.4162 7.53792 56.4162 7.67159V7.84535C56.4162 7.99238 56.5364 8.09932 56.6701 8.09932H62.9391C63.2064 8.25972 63.2599 8.46023 63.2599 8.54043V12.4034C63.2599 12.5906 63.4069 12.7376 63.5941 12.7376H64.3559C64.543 12.7376 64.69 12.5906 64.69 12.4034V7.68495C64.69 7.55128 64.5698 7.43098 64.4362 7.43098H61.8563C61.8563 7.43098 61.3485 7.41762 61.3218 6.96315V6.0542C61.3218 6.0542 61.2415 5.77349 61.6826 5.57299H65.4788C65.6124 5.57299 65.7327 5.45268 65.7327 5.31902V4.94475C65.7327 4.81108 65.6124 4.69079 65.4788 4.69079" fill="#9C9C9C"/>
<path d="M76.5747 0.355469H75.3851C75.3851 0.355469 75.1981 0.449028 75.3585 0.555963C75.3585 0.555963 75.5455 0.716369 75.5589 0.956972V4.165C75.4787 4.35214 75.3851 4.33878 75.3851 4.33878H75.2381C75.1044 4.32541 75.0109 4.23184 74.9574 4.165V0.68964C74.9574 0.502504 74.8104 0.355469 74.6233 0.355469H73.2866C73.046 0.449037 73.2866 0.609442 73.2866 0.609442C73.447 0.716376 73.594 0.783203 73.6074 0.956972V12.3054C73.6074 12.4926 73.7544 12.6396 73.9416 12.6396H74.6233C74.8104 12.6396 74.9574 12.4926 74.9574 12.3054V5.54181C74.9842 5.3012 75.1979 5.30119 75.1979 5.30119H75.4119C75.5723 5.34129 75.5589 5.47497 75.5589 5.47497V12.3054C75.5589 12.4926 75.7059 12.6396 75.893 12.6396H76.5747C76.7619 12.6396 76.9089 12.4926 76.9089 12.3054V0.68964C76.9089 0.502504 76.7619 0.355469 76.5747 0.355469Z" fill="#9C9C9C"/>
<path d="M122.362 0.363281H121.186C121.186 0.363281 120.999 0.456841 121.159 0.563776C121.159 0.563776 121.346 0.724182 121.36 0.964785V4.17282C121.279 4.35995 121.172 4.34659 121.172 4.34659H121.039C120.905 4.33322 120.812 4.23965 120.758 4.17282V0.697452C120.758 0.510316 120.611 0.363281 120.424 0.363281H119.087C118.847 0.456849 119.087 0.617254 119.087 0.617254C119.248 0.724189 119.395 0.791016 119.408 0.964785V12.3132C119.408 12.5004 119.555 12.6474 119.742 12.6474H120.424C120.611 12.6474 120.758 12.5004 120.758 12.3132V5.54962C120.785 5.30901 120.999 5.309 120.999 5.309H121.213C121.373 5.3491 121.36 5.48278 121.36 5.48278V12.3132C121.36 12.5004 121.507 12.6474 121.694 12.6474H122.376C122.563 12.6474 122.71 12.5004 122.71 12.3132V0.697452C122.71 0.510316 122.563 0.363281 122.376 0.363281" fill="#9C9C9C"/>
<path d="M71.1364 2.33589C70.0003 1.86805 69.1448 2.54976 69.1448 2.54976C68.1958 3.19137 67.5273 4.60825 67.5273 6.239C67.5273 8.48463 68.7839 10.3025 70.3211 10.3025C71.8582 10.3025 73.1146 8.48463 73.1146 6.239C73.1146 4.39438 72.2726 2.84384 71.123 2.34927M70.2274 9.40695C69.4655 9.40695 68.864 7.99005 68.864 6.239C68.864 4.48795 69.4789 3.07107 70.2274 3.07107C70.9759 3.07107 71.5908 4.48795 71.5908 6.239C71.5908 7.99005 70.9759 9.40695 70.2274 9.40695Z" fill="#9C9C9C"/>
<path d="M82.1383 0.335938C80.3873 0.335938 78.957 1.69935 78.957 3.38357C78.957 5.06779 80.3739 6.43121 82.1383 6.43121C83.9027 6.43121 85.3195 5.06779 85.3195 3.38357C85.3195 1.69935 83.9027 0.335938 82.1383 0.335938ZM82.1115 5.84307C81.1892 5.84307 80.4407 4.77372 80.4407 3.46377C80.4407 2.15382 81.1892 1.08448 82.1115 1.08448C83.0338 1.08448 83.7823 2.15382 83.7823 3.46377C83.7823 4.77372 83.0338 5.84307 82.1115 5.84307Z" fill="#9C9C9C"/>
<path d="M84.2241 7.00391C81.9918 7.00391 80.1875 8.32722 80.1875 9.9446C80.1875 11.562 81.9918 12.8853 84.2241 12.8853C86.4563 12.8853 88.2608 11.562 88.2608 9.9446C88.2608 8.32722 86.4563 7.00391 84.2241 7.00391ZM84.1841 12.1902C82.8474 12.1902 81.7647 11.1476 81.7647 9.86441C81.7647 8.58119 82.8474 7.53857 84.1841 7.53857C85.5207 7.53857 86.6033 8.58119 86.6033 9.86441C86.6033 11.1476 85.5207 12.1902 84.1841 12.1902Z" fill="#9C9C9C"/>
<path d="M88.0875 2.72244H89.5979C89.6915 2.72244 89.7717 2.64223 89.7717 2.54866V2.18775C89.7717 2.09419 89.6915 2.014 89.5979 2.014H88.0875C88.0875 2.014 88.0609 2.014 88.0475 2.014V0.570379C88.0475 0.423344 87.9405 0.316406 87.7935 0.316406H86.2295C86.2295 0.316406 86.0158 0.396605 86.1494 0.54364C86.1494 0.54364 86.6173 0.784248 86.6574 1.09168V6.70575C86.6574 6.83942 86.7776 6.95972 86.9113 6.95972H87.8069C87.9539 6.95972 88.0609 6.85278 88.0609 6.70575V4.44675C88.0609 4.44675 88.0875 4.44675 88.1009 4.44675H89.6113C89.7049 4.44675 89.7851 4.36654 89.7851 4.27298V3.91209C89.7851 3.81852 89.7049 3.73831 89.6113 3.73831H88.1009C88.1009 3.73831 88.0743 3.73831 88.0609 3.73831V2.6556C88.0609 2.6556 88.0875 2.6556 88.1009 2.6556" fill="#9C9C9C"/>
<path d="M100.305 6.87891H90.3066C90.213 6.87891 90.1328 6.95909 90.1328 7.05266V7.38683C90.1328 7.4804 90.213 7.56061 90.3066 7.56061H94.4234C94.4234 7.56061 94.3968 7.62744 94.3968 7.66754V12.493C94.3968 12.64 94.517 12.7469 94.6507 12.7469H95.7067C95.8538 12.7469 95.9606 12.6266 95.9606 12.493V7.66754C95.9606 7.66754 95.9606 7.60071 95.9338 7.56061H100.305C100.398 7.56061 100.479 7.4804 100.479 7.38683V7.05266C100.479 6.95909 100.398 6.87891 100.305 6.87891Z" fill="#9C9C9C"/>
<path d="M95.8343 0.265625H94.0298C94.0298 0.265625 93.4683 0.372566 93.9094 0.773571C93.9094 0.773571 94.8719 1.40182 94.3105 2.24393C94.3105 2.24393 93.0674 4.85046 90.6347 5.18463C90.6347 5.18463 90.0065 5.58563 90.6347 5.86633C90.6347 5.86633 93.1209 5.7594 95.3264 3.66081C95.3264 3.66081 96.9705 5.41187 99.8978 5.91981C99.8978 5.91981 100.406 5.58564 99.8442 5.29157C99.8442 5.29157 96.5694 3.99498 96.2887 2.07016L96.1818 0.827029C96.1818 0.827029 96.4625 0.37256 95.8477 0.265625" fill="#9C9C9C"/>
<path d="M104.924 0.390625H103.293C103.293 0.390625 102.919 0.497555 103.427 0.845092C103.427 0.845092 103.935 1.17926 103.707 2.93031C103.707 2.93031 103.533 4.45414 101.114 5.69726C101.114 5.69726 100.887 6.25865 101.168 6.31212C101.168 6.31212 102.411 6.43243 104.67 3.87937C104.67 3.87937 105.405 5.57694 107.664 6.13835C107.664 6.13835 108.319 6.31213 107.945 5.77746C107.945 5.77746 105.686 4.68137 105.378 2.70308C105.378 2.70308 105.258 1.09906 105.298 0.845092C105.298 0.845092 105.365 0.417359 104.937 0.390625" fill="#9C9C9C"/>
<path d="M112.45 3.00436H110.873C110.873 3.00436 110.832 3.00436 110.819 3.00436V0.705264C110.819 0.518129 110.672 0.371094 110.485 0.371094H108.935C108.935 0.371094 108.707 0.397842 108.988 0.678546C108.988 0.678546 109.389 0.985975 109.576 1.36025V8.712C109.576 8.89914 109.723 9.04617 109.91 9.04617H110.485C110.672 9.04617 110.819 8.89914 110.819 8.712V3.69944C110.819 3.69944 110.859 3.69944 110.873 3.69944H112.45C112.544 3.69944 112.624 3.61923 112.624 3.52567V3.16476C112.624 3.07119 112.544 2.991 112.45 2.991" fill="#9C9C9C"/>
<path d="M110.589 11.9971H105.496C105.122 11.9436 104.988 11.7031 104.935 11.556V7.4123C104.935 7.22516 104.788 7.07812 104.6 7.07812H103.184C103.184 7.07812 102.983 7.15833 103.157 7.3321C103.157 7.3321 103.584 7.66626 103.611 7.86676V11.9169C103.611 11.9169 103.598 12.0238 103.598 12.0639C103.598 12.465 103.919 12.7858 104.32 12.7858C104.36 12.7858 104.387 12.7858 104.427 12.7858C104.453 12.7858 104.493 12.7991 104.52 12.7991H110.589C110.722 12.7991 110.843 12.6788 110.843 12.5452V12.2645C110.843 12.1308 110.722 12.0105 110.589 12.0105" fill="#9C9C9C"/>
<path d="M146.059 12.0098H140.967H140.98C140.606 11.9563 140.459 11.7157 140.419 11.5686V7.89276C140.419 7.70563 140.271 7.55859 140.084 7.55859H138.48C138.48 7.55859 138.28 7.6388 138.454 7.81257C138.454 7.81257 138.881 8.14673 138.908 8.34723V11.9162C138.908 11.9162 138.895 12.0097 138.895 12.0632C138.895 12.4642 139.216 12.785 139.617 12.785C139.657 12.785 139.683 12.785 139.723 12.785C139.75 12.7984 139.79 12.7984 139.817 12.7984H146.086C146.22 12.7984 146.34 12.6781 146.34 12.5444V12.2637C146.34 12.1167 146.22 12.0098 146.086 12.0098" fill="#9C9C9C"/>
<path d="M118.416 1.01179C118.416 0.86475 118.296 0.757812 118.162 0.757812H113.671C113.537 0.757812 113.417 0.878117 113.417 1.01179V1.30586C113.417 1.43953 113.537 1.55983 113.671 1.55983H116.892C117.4 8.85812 113.123 9.70023 113.123 9.70023C112.829 9.9943 113.337 10.128 113.337 10.128C118.095 8.81803 118.443 3.53811 118.403 1.61329C118.403 1.61329 118.403 1.6133 118.403 1.58657" fill="#9C9C9C"/>
<path d="M136.032 2.67513H134.455C134.455 2.67513 134.415 2.67513 134.401 2.67513V0.670108C134.401 0.482973 134.254 0.335938 134.067 0.335938H132.516C132.516 0.335938 132.289 0.362665 132.57 0.643369C132.57 0.643369 132.811 0.817141 132.998 1.23151V5.8698C132.998 6.00347 133.105 6.12378 133.252 6.12378H134.094C134.241 6.12378 134.348 6.01684 134.348 5.8698V3.37021H136.032C136.125 3.37021 136.206 3.29001 136.206 3.19644V2.83553C136.206 2.74196 136.125 2.66177 136.032 2.66177" fill="#9C9C9C"/>
<path d="M131.294 0.757812H129.383C129.383 0.757812 129.183 0.904848 129.437 1.09198C129.437 1.09198 129.757 1.26575 129.971 1.61329V2.64254H126.723V1.09198C126.723 0.904848 126.576 0.757812 126.389 0.757812H124.478C124.478 0.757812 124.277 0.904848 124.531 1.09198C124.531 1.09198 124.852 1.26575 125.066 1.61329V4.86144C125.066 4.86144 125.092 5.87732 125.774 5.97089C125.801 5.97089 125.827 5.97089 125.854 5.97089C126.188 5.97089 126.242 5.97089 126.188 5.97089H130.185C130.185 5.97089 130.265 5.99761 130.319 5.99761H131.308C131.495 5.99761 131.642 5.85057 131.642 5.66344V1.09198C131.642 0.904848 131.495 0.757812 131.308 0.757812M129.985 3.37772V5.18223H127.325C127.124 5.14213 126.857 4.99511 126.736 4.44707V3.37772H129.985Z" fill="#9C9C9C"/>
<path d="M134.511 12.0751H129.097C128.843 12.0751 128.776 11.8479 128.763 11.7276V9.88297C128.843 9.77603 128.95 9.76265 128.95 9.76265H133.241C133.241 9.76265 133.281 9.76265 133.308 9.76265H134.377C134.564 9.76265 134.711 9.61562 134.711 9.41512V7.15612C134.711 6.96899 134.564 6.80859 134.377 6.80859H134.203C134.203 6.80859 134.19 6.80859 134.177 6.80859H126.865C126.718 6.80859 126.611 6.9289 126.611 7.06257V7.39674C126.611 7.54377 126.731 7.65069 126.865 7.65069H132.653C132.653 7.65069 132.933 7.70417 132.96 7.95814V8.72004C132.907 8.80024 132.786 8.89382 132.532 8.89382H126.852C126.705 8.89382 126.598 9.00075 126.598 9.14779V9.48196C126.598 9.60226 126.678 9.69582 126.785 9.72255C126.852 9.80275 126.972 9.9498 126.999 10.0701V11.6607H126.959C126.959 11.6607 126.825 12.69 128.629 12.69H134.497C134.631 12.69 134.751 12.5697 134.751 12.436V12.289C134.751 12.1553 134.631 12.035 134.497 12.035" fill="#9C9C9C"/>
<path d="M146.462 0.63927V0.478874C146.462 0.291739 146.248 0.238281 146.248 0.238281H144.471C144.243 0.318482 144.457 0.438776 144.457 0.438776C144.845 0.54571 145.032 1.08038 145.112 1.37445V5.59837C145.059 5.70531 144.965 5.77213 144.898 5.79887H137.373C137.279 5.79887 137.199 5.87907 137.199 5.97264V6.52069C137.199 6.61425 137.279 6.69446 137.373 6.69446H141.009C141.089 6.74793 141.182 6.82811 141.223 6.94841V9.40793C141.223 9.59506 141.37 9.7421 141.557 9.7421H142.279C142.466 9.7421 142.613 9.59506 142.613 9.40793V6.97515C142.68 6.85485 142.813 6.74793 142.893 6.69446H144.912C144.912 6.69446 145.059 6.76129 145.112 6.85486V7.10883C145.112 7.10883 145.032 7.18903 144.992 7.21577H143.682C143.548 7.21577 143.428 7.33605 143.428 7.46972V7.72369C143.428 7.85736 143.548 7.97767 143.682 7.97767H145.005C145.005 7.97767 145.086 8.05788 145.126 8.11134V9.54158C145.126 9.54158 145.086 9.80892 145.353 9.80892H146.275C146.275 9.80892 146.529 9.88912 146.476 9.54158" fill="#9C9C9C"/>
<path d="M140.848 0.257812C138.963 0.257812 137.426 1.39398 137.426 2.7975C137.426 4.20102 138.963 5.33721 140.848 5.33721C142.732 5.33721 144.269 4.20102 144.269 2.7975C144.269 1.39398 142.732 0.257812 140.848 0.257812ZM140.821 4.61539C139.899 4.61539 139.163 3.81338 139.163 2.8376C139.163 1.86182 139.912 1.05983 140.821 1.05983C141.73 1.05983 142.478 1.86182 142.478 2.8376C142.478 3.81338 141.73 4.61539 140.821 4.61539Z" fill="#9C9C9C"/>
<path d="M72.7827 1.45875H71.0985V0.589911C71.0985 0.442875 70.9783 0.335938 70.8446 0.335938H69.0134C69.0134 0.335938 68.7593 0.33595 68.8796 0.536452C68.8796 0.536452 69.0401 0.576535 69.0802 0.643369C69.0802 0.643369 69.2808 0.830516 69.3476 1.03102V1.45875H67.8104C67.6634 1.45875 67.543 1.57906 67.543 1.7261C67.543 1.87313 67.6634 1.99343 67.8104 1.99343H72.7961C72.9431 1.99343 73.0634 1.87313 73.0634 1.7261C73.0634 1.57906 72.9431 1.45875 72.7961 1.45875" fill="#9C9C9C"/>
<path d="M50.659 24.2724V28.1755C50.659 28.4562 50.5789 28.7102 50.4051 28.9374C50.2314 29.1646 50.0309 29.2716 49.7903 29.2716H49.2155C49.1219 29.2716 49.0417 29.2448 48.9882 29.1913C48.9348 29.1379 48.9081 29.0577 48.9081 28.9374V24.259H45.1654C44.9515 24.259 44.818 24.2456 44.7779 24.2189C44.7378 24.1921 44.6843 24.1253 44.6175 24.0451L44.2298 23.4703C44.163 23.3233 44.163 23.203 44.2298 23.1228C44.2966 23.0426 44.4035 23.0426 44.5238 23.1228C44.7243 23.2297 44.8981 23.2966 45.0184 23.3233C45.1387 23.35 45.3793 23.35 45.7269 23.35H54.8829C55.2572 23.35 55.431 23.5105 55.431 23.8179C55.431 24.1253 55.2438 24.2857 54.8829 24.2857M49.7368 20.1286C49.1888 20.5965 48.5605 21.0242 47.8521 21.3985C47.1437 21.7728 46.4353 22.0802 45.7402 22.3074C45.4595 22.401 45.2723 22.3475 45.1654 22.1738C45.0718 22 45.1387 21.853 45.3659 21.7327C46.0476 21.3851 46.8095 20.8505 47.6516 20.1019C48.4937 19.3534 48.9347 18.7385 48.9748 18.2706C48.9882 18.0434 48.9215 17.883 48.7477 17.7894C48.5739 17.6959 48.427 17.6157 48.2933 17.5756C48.1997 17.5355 48.1595 17.4553 48.1461 17.3216C48.1461 17.1879 48.213 17.1211 48.36 17.1211L50.9798 17.3483C51.1669 17.3483 51.274 17.4285 51.3008 17.5622C51.3409 17.6959 51.3275 17.8563 51.2874 18.0167C51.2206 18.2439 51.1136 18.4845 50.9532 18.7117C50.8062 18.9524 50.619 19.1796 50.4185 19.4202C50.7527 19.594 51.02 19.7143 51.2205 19.7811C51.421 19.8479 51.6214 19.9014 51.8219 19.9549C52.1561 20.0217 52.3833 20.0484 52.517 20.0351C52.6507 20.0217 52.8111 20.0752 53.0116 20.1955C53.4527 20.4895 53.7868 20.7836 54.0274 21.091C54.2547 21.3985 54.3349 21.6792 54.2547 21.9332C54.2146 22.0936 54.1077 22.2005 53.9473 22.254C53.7869 22.3074 53.5731 22.2941 53.279 22.2272C52.7978 22.1069 52.263 21.8797 51.6481 21.5188C51.0467 21.1579 50.3918 20.7034 49.7101 20.1153" fill="#9C9C9C"/>
<path d="M63.6063 21.4376C63.1652 22.0658 62.6707 22.6406 62.1226 23.1352C61.5746 23.6431 61.0533 24.0174 60.5587 24.2714C60.3181 24.3917 60.1711 24.3783 60.0909 24.2313C60.0107 24.0842 60.0507 23.9372 60.2111 23.8035C61.0265 23.055 61.6814 22.1861 62.176 21.2104C62.6706 20.2212 62.9246 19.4326 62.938 18.8311C62.938 18.5905 62.7908 18.4033 62.5102 18.2563C62.2295 18.1093 62.0424 18.0157 61.9489 18.0023C61.8419 17.9622 61.8019 17.8687 61.8152 17.7216C61.8286 17.5746 61.9221 17.5077 62.0691 17.5211L64.7424 17.7751C64.8627 17.7751 64.943 17.8419 64.9831 17.9355C65.0232 18.029 65.0364 18.136 65.0231 18.2563C64.9696 18.6573 64.8627 19.0717 64.7023 19.486C64.5419 19.9004 64.3415 20.3014 64.1009 20.7158C64.288 20.9029 64.5018 21.0767 64.7558 21.2371C65.0098 21.3975 65.237 21.5178 65.4509 21.598C65.6781 21.6648 65.8519 21.7183 65.9454 21.7584C66.039 21.7851 66.1727 21.8921 66.3331 22.0792C66.5871 22.3599 66.7607 22.654 66.881 22.9748C67.0013 23.2956 66.9879 23.5496 66.8543 23.7233C66.7473 23.8704 66.587 23.9506 66.3597 23.9506C66.1459 23.9506 65.9054 23.8837 65.6648 23.71C65.3707 23.5095 65.0097 23.1619 64.5553 22.654C64.1008 22.146 63.7801 21.745 63.5929 21.4777M62.2161 24.7927L64.435 24.9798C64.5954 25.0466 64.6623 25.1402 64.6623 25.2872V27.1987C64.6623 27.4928 64.7157 27.7066 64.7959 27.8403C64.8761 27.9606 65.0766 28.0274 65.384 28.0274H69.4876C69.8218 28.0274 69.9822 28.1745 69.9822 28.4686C69.9822 28.7626 69.8084 28.9097 69.4876 28.9097H64.1544C63.9405 28.9097 63.6865 28.8294 63.3924 28.669C63.0983 28.5086 62.9514 28.1745 62.9514 27.6665V25.9155C62.9514 25.7016 62.8444 25.5412 62.6306 25.4477C62.4167 25.3541 62.2563 25.2739 62.1628 25.2204C62.0291 25.1536 61.9755 25.06 62.0156 24.9531C62.0557 24.8461 62.1225 24.7927 62.2027 24.806M69.7816 20.7024L71.1584 20.5955C71.4124 20.5821 71.5326 20.7692 71.5459 21.1703C71.5459 21.5713 71.4258 21.7718 71.1584 21.7718H69.7816V24.7659C69.7816 25.0466 69.7014 25.3006 69.541 25.5279C69.3806 25.7551 69.1801 25.862 68.9395 25.862H68.445C68.3381 25.862 68.2578 25.8353 68.2043 25.7818C68.1508 25.7284 68.1242 25.6482 68.1242 25.5279V18.2563C68.1242 17.9756 68.0173 17.7751 67.8034 17.6548C67.5896 17.5345 67.4024 17.4275 67.2687 17.3473C67.1618 17.2805 67.1217 17.1869 67.1618 17.0666C67.2019 16.9597 67.2554 16.9062 67.3356 16.9062L69.5543 17.1736C69.688 17.2003 69.7683 17.2404 69.7816 17.3072C69.795 17.3741 69.795 17.4275 69.795 17.4543V20.7024H69.7816Z" fill="#9C9C9C"/>
<path d="M82.0937 19.8536H83.9918V18.2094C83.9918 17.9287 83.8848 17.7282 83.6576 17.6079C83.4304 17.4876 83.2566 17.3807 83.1229 17.3005C83.0026 17.2336 82.9626 17.1401 83.0027 17.0198C83.0427 16.9128 83.0962 16.8594 83.1764 16.8594L85.4219 17.1267C85.5422 17.1401 85.6225 17.1935 85.6358 17.2604C85.6492 17.3272 85.6626 17.3807 85.6626 17.4074V22.5938C85.6626 22.8745 85.5823 23.1284 85.4219 23.3557C85.2615 23.5829 85.0611 23.6898 84.8205 23.6898H84.2858C84.1922 23.6898 84.112 23.6631 84.0585 23.6096C84.005 23.5562 83.9784 23.476 83.9784 23.3557V20.8694H82.0669C81.9466 21.5645 81.6124 22.1393 81.0644 22.5938C80.5297 23.0482 79.8748 23.2888 79.1129 23.2888C78.2441 23.2888 77.5357 22.9948 76.9609 22.42C76.3862 21.8452 76.1055 21.1368 76.1055 20.308C76.1055 19.4793 76.3862 18.7708 76.9609 18.1961C77.5357 17.6213 78.2441 17.3272 79.1129 17.3272C79.8882 17.3272 80.5565 17.5678 81.1045 18.049C81.6526 18.5169 81.9733 19.1184 82.0803 19.8402M80.0485 25.7216H83.8581V25.3607C83.8581 25.08 83.8047 24.8795 83.6977 24.7725C83.5908 24.6656 83.4839 24.572 83.377 24.4918C83.2433 24.3983 83.1898 24.2913 83.2032 24.1577C83.2299 24.024 83.2832 23.9705 83.3902 23.9839C83.6709 24.024 84.2857 24.1042 85.2214 24.2512C85.355 24.2646 85.4353 24.3181 85.4487 24.3849C85.462 24.4517 85.4754 24.5052 85.4754 24.5319V28.0741C85.4754 28.4751 85.3685 28.7291 85.168 28.8227C84.9542 28.9162 84.7403 28.9697 84.4997 28.9697H79.367C79.1398 28.9697 78.9124 28.9162 78.7119 28.8227C78.5114 28.7425 78.4045 28.4885 78.4045 28.0741V25.5211C78.4045 25.2404 78.351 25.0532 78.2441 24.9463C78.1372 24.8394 78.0302 24.7592 77.9233 24.679C77.7896 24.5854 77.7362 24.4785 77.7629 24.3448C77.7896 24.2111 77.8565 24.1577 77.9367 24.171C78.1639 24.2111 78.7921 24.2913 79.7813 24.4384C79.9149 24.4517 79.9952 24.5587 80.0353 24.7324V25.7349L80.0485 25.7216ZM77.8164 20.308C77.8164 20.8293 77.9368 21.2972 78.1773 21.6982C78.4179 22.0992 78.7253 22.2997 79.1129 22.2997C79.5006 22.2997 79.8079 22.0992 80.0485 21.6982C80.2891 21.2972 80.4095 20.8293 80.4095 20.308C80.4095 19.7867 80.2891 19.3055 80.0485 18.9045C79.8079 18.5035 79.4872 18.303 79.1129 18.303C78.7387 18.303 78.4179 18.5035 78.1773 18.9045C77.9368 19.3055 77.8164 19.7733 77.8164 20.308ZM83.8581 26.6706H80.0485V27.5796C80.0485 27.7801 80.0754 27.9137 80.1422 27.9939C80.1957 28.0741 80.3294 28.1142 80.5299 28.1142H83.377C83.5507 28.1142 83.6843 28.0875 83.7511 28.0073C83.8179 27.9271 83.8581 27.7801 83.8581 27.5929V26.6706Z" fill="#9C9C9C"/>
<path d="M99.9525 20.2558L101.329 20.1488C101.583 20.1355 101.717 20.3226 101.717 20.7236C101.717 21.1246 101.597 21.3251 101.329 21.3251H99.9525V24.7337C99.9525 25.0144 99.8724 25.2683 99.712 25.4956C99.5516 25.7228 99.3511 25.8297 99.0972 25.8297H98.6292C98.5356 25.8297 98.4555 25.803 98.4021 25.7629C98.3486 25.7094 98.3218 25.6292 98.3218 25.5089V23.5707C97.9743 23.8648 97.5732 24.0252 97.1054 24.0653C96.6376 24.1054 96.0895 24.1321 95.4346 24.1321H91.2109C91.0906 24.1321 90.9969 24.1322 90.9301 24.1188C90.8632 24.1188 90.7965 24.0653 90.7297 23.9851L90.2885 23.3435C90.2217 23.2499 90.2216 23.1564 90.2617 23.0628C90.3018 22.9692 90.3821 22.9559 90.5024 22.996C90.6895 23.0895 90.8633 23.1564 91.0371 23.1831C91.1975 23.2098 91.4381 23.2232 91.7456 23.2232H92.7347V21.8063C92.7347 21.6058 92.7078 21.4454 92.641 21.3251C92.5742 21.2048 92.4807 21.0979 92.347 21.031C92.1866 20.9375 92.1197 20.8305 92.1331 20.6969C92.1598 20.5632 92.2401 20.5097 92.3871 20.5231L94.1381 20.7102C94.2049 20.7102 94.2583 20.7503 94.2851 20.8172C94.3118 20.8706 94.3252 20.9241 94.3252 20.9776V23.2499H95.1406C95.8356 23.2499 96.4773 23.2366 97.0788 23.1965C97.6803 23.1564 98.0946 23.0093 98.3084 22.7554V18.2641C98.3084 17.9834 98.2015 17.7829 97.9743 17.6626C97.747 17.5423 97.5732 17.4354 97.4396 17.3552C97.3193 17.2883 97.2792 17.1948 97.3193 17.0745C97.3594 16.9675 97.4129 16.9141 97.4931 16.9141L99.6852 17.1814C99.8189 17.1948 99.8991 17.2482 99.9125 17.3151C99.9259 17.3819 99.9391 17.4354 99.9391 17.4621M91.9593 19.026C91.7855 19.026 91.6518 18.9993 91.585 18.9592C91.5182 18.9191 91.4515 18.8523 91.3846 18.7721L91.0103 18.2641C90.9435 18.1572 90.9301 18.0636 90.9702 17.9968C91.0103 17.9299 91.0906 17.9166 91.2242 17.9567C91.4114 18.0235 91.5984 18.0636 91.7855 18.0904C91.9593 18.1171 92.1999 18.1304 92.494 18.1304H96.8381C97.0119 18.1304 97.1188 18.2106 97.1857 18.3443C97.2391 18.478 97.2658 18.625 97.2658 18.7721C97.1722 19.5206 97.0118 20.1756 96.7846 20.7637C96.5574 21.3385 96.3035 21.793 96.0362 22.1004C95.8891 22.2742 95.7154 22.3677 95.5282 22.3945C95.3277 22.4212 95.2475 22.2875 95.2742 22.0068C95.3277 21.6326 95.3679 21.2048 95.3946 20.7503C95.4213 20.2959 95.4346 19.7211 95.4346 19.0528H91.9861L91.9593 19.026ZM91.8792 25.001L94.1247 25.1881C94.2717 25.255 94.352 25.3619 94.352 25.4956V27.2199C94.352 27.5139 94.4054 27.7278 94.4856 27.8615C94.5658 27.9818 94.7664 28.0486 95.0738 28.0486H99.6451C99.9792 28.0486 100.14 28.1957 100.14 28.4897C100.14 28.7838 99.9792 28.9309 99.6451 28.9309H93.8307C93.6168 28.9309 93.3629 28.8506 93.0688 28.6902C92.7748 28.5298 92.6276 28.1957 92.6276 27.6877V26.2708C92.6276 26.057 92.5207 25.8698 92.3069 25.7228C92.093 25.5758 91.9326 25.4688 91.8391 25.4154C91.7054 25.3485 91.6653 25.255 91.692 25.148C91.7321 25.0411 91.799 24.9876 91.8792 25.001Z" fill="#9C9C9C"/>
<path d="M117.2 22.8712C117.574 22.8712 117.748 23.0316 117.748 23.3391C117.748 23.6465 117.561 23.8069 117.2 23.8069H107.282C107.068 23.8069 106.935 23.7935 106.894 23.7534C106.854 23.7267 106.801 23.6599 106.734 23.5797L106.32 23.0049C106.253 22.8579 106.253 22.7375 106.32 22.6573C106.386 22.5771 106.493 22.5771 106.614 22.644C106.828 22.7509 106.988 22.8177 107.122 22.8311C107.255 22.8445 107.483 22.8579 107.83 22.8579M112.067 20.385C111.506 20.8395 110.824 21.2137 110.036 21.4944C109.247 21.7751 108.579 21.9623 108.017 22.0291C107.763 22.0558 107.616 21.989 107.576 21.8152C107.536 21.6548 107.63 21.5212 107.87 21.4276C108.552 21.1736 109.234 20.8261 109.902 20.3582C110.584 19.9038 110.998 19.4493 111.145 19.0082H108.792C108.579 19.0082 108.445 19.0082 108.405 18.9681C108.365 18.9414 108.311 18.8879 108.245 18.7943L107.83 18.2329C107.763 18.0859 107.763 17.9656 107.83 17.8854C107.897 17.8052 108.004 17.8052 108.124 17.8854C108.338 17.979 108.539 18.0458 108.726 18.0725C108.913 18.0993 109.127 18.1126 109.341 18.1126H111.252C111.239 17.7384 111.185 17.4844 111.092 17.3373C110.998 17.1903 110.904 17.0967 110.784 17.0433C110.677 17.0032 110.637 16.923 110.637 16.8027C110.637 16.6824 110.717 16.6289 110.851 16.6289L112.883 16.7759C112.963 16.7759 113.03 16.8027 113.083 16.8428C113.137 16.8829 113.15 16.9497 113.137 17.0299C113.137 17.0967 113.137 17.2438 113.137 17.471C113.137 17.6983 113.137 17.9121 113.123 18.1126H115.649C116.01 18.1126 116.184 18.273 116.184 18.5805C116.184 18.8879 116.01 19.0483 115.649 19.0483H113.03C113.003 19.1686 112.963 19.2889 112.896 19.3959C112.829 19.5162 112.762 19.6231 112.669 19.7434C112.99 19.8637 113.243 19.9439 113.471 19.9974C113.685 20.0508 113.885 20.0909 114.059 20.131C114.259 20.1711 114.46 20.1845 114.647 20.1845C114.847 20.1845 114.981 20.1978 115.088 20.2379C115.476 20.3582 115.783 20.5721 116.01 20.8795C116.238 21.1736 116.331 21.4142 116.304 21.6014C116.251 21.7751 116.157 21.9088 116.037 21.9756C115.917 22.0425 115.716 22.0692 115.462 22.0425C115.008 21.989 114.5 21.8152 113.912 21.5212C113.324 21.2271 112.709 20.8528 112.041 20.4117M115.957 27.7902C115.957 28.2313 115.863 28.5922 115.69 28.8729C115.516 29.1536 115.275 29.2873 114.981 29.2873H114.54C114.433 29.2873 114.353 29.2606 114.299 29.2071C114.246 29.1536 114.219 29.0734 114.219 28.9531V25.9456H108.699C108.512 25.9456 108.391 25.9189 108.338 25.8788C108.285 25.8387 108.231 25.7718 108.164 25.6916L107.777 25.1436C107.71 25.0233 107.71 24.9297 107.763 24.8495C107.817 24.7693 107.897 24.7559 107.99 24.7827C108.191 24.8763 108.365 24.9297 108.498 24.9698C108.645 24.9966 108.806 25.0099 108.993 25.0099H115.716C115.81 25.0099 115.863 25.0367 115.904 25.0768C115.944 25.1169 115.957 25.1837 115.957 25.2906V27.7768V27.7902Z" fill="#9C9C9C"/>
<path d="M125.433 21.7196C125.059 22.2542 124.657 22.7354 124.216 23.1765C123.775 23.6177 123.321 23.9786 122.866 24.2593C122.693 24.3662 122.532 24.3662 122.412 24.2459C122.292 24.1256 122.318 23.9786 122.519 23.7781C123.201 23.0696 123.762 22.2141 124.216 21.225C124.657 20.2359 124.871 19.4472 124.845 18.8724C124.845 18.6452 124.724 18.4581 124.51 18.2977C124.297 18.1506 124.136 18.0571 124.016 18.017C123.922 17.9769 123.882 17.8967 123.896 17.763C123.896 17.6293 123.976 17.5759 124.123 17.5892L126.489 17.8566C126.622 17.8833 126.716 17.9367 126.769 18.017C126.823 18.1105 126.836 18.2041 126.823 18.3378C126.77 18.7655 126.662 19.2066 126.502 19.6611C126.342 20.1022 126.141 20.5433 125.914 20.9577C126.048 21.0913 126.208 21.2116 126.395 21.3319C126.582 21.4522 126.756 21.5592 126.89 21.6126C127.117 21.7062 127.264 21.7597 127.344 21.773C127.424 21.773 127.518 21.8532 127.625 21.9869C127.852 22.2542 128.039 22.5617 128.173 22.8825C128.32 23.2166 128.347 23.4706 128.253 23.6444C128.186 23.7914 128.053 23.8716 127.879 23.885C127.705 23.8984 127.518 23.8449 127.331 23.7246C127.01 23.5241 126.649 23.1899 126.275 22.7622C125.901 22.3211 125.62 21.9735 125.433 21.7196ZM124.604 24.5667L126.863 24.7538C127.01 24.8207 127.09 24.9142 127.09 25.0613V27.1465C127.09 27.4406 127.144 27.6545 127.224 27.7881C127.304 27.9084 127.505 27.9753 127.812 27.9753H132.022C132.343 27.9753 132.504 28.1223 132.504 28.4164C132.504 28.7104 132.343 28.8575 132.022 28.8575H126.542C126.315 28.8575 126.061 28.7773 125.767 28.6169C125.473 28.4565 125.339 28.1223 125.339 27.6143V25.6895C125.339 25.4757 125.232 25.3152 125.018 25.2217C124.804 25.1147 124.657 25.0479 124.551 24.9944C124.417 24.9142 124.363 24.834 124.404 24.7271C124.444 24.6202 124.511 24.5667 124.591 24.5801M128.855 21.1314H127.598C127.598 21.1314 127.505 21.1314 127.451 21.1047C127.411 21.078 127.384 21.0512 127.344 20.9978L126.957 20.4096C126.917 20.3428 126.876 20.2626 126.863 20.1824C126.85 20.1022 126.863 20.0354 126.916 19.9685C127.01 19.8749 127.144 19.8616 127.331 19.9552C127.518 20.0487 127.692 20.0888 127.865 20.0888H128.841V18.3378C128.841 18.0571 128.788 17.8699 128.681 17.763C128.574 17.6561 128.454 17.5625 128.293 17.4689C128.133 17.3754 128.053 17.2551 128.066 17.1348C128.066 17.0145 128.16 16.961 128.32 16.9877L130.071 17.2551C130.205 17.2684 130.285 17.3219 130.298 17.3887C130.312 17.4556 130.325 17.509 130.325 17.5357V24.6603C130.325 24.941 130.245 25.1816 130.098 25.3954C129.951 25.6093 129.75 25.7163 129.509 25.7163H129.162C129.055 25.7163 128.975 25.6895 128.921 25.6361C128.868 25.5826 128.841 25.5024 128.841 25.3821V21.1314H128.855ZM130.485 16.854L132.276 17.1214C132.41 17.1347 132.49 17.1882 132.504 17.2551C132.504 17.3219 132.517 17.3754 132.517 17.4021V24.8073C132.517 25.088 132.437 25.3286 132.29 25.5425C132.143 25.7564 131.942 25.8633 131.702 25.8633H131.314C131.221 25.8633 131.14 25.8366 131.087 25.7831C131.033 25.7296 131.007 25.6494 131.007 25.5291V18.2308C131.007 17.9501 130.953 17.7496 130.846 17.6427C130.739 17.5224 130.606 17.4288 130.459 17.3352C130.285 17.2149 130.205 17.0947 130.245 16.9877C130.285 16.8808 130.365 16.8407 130.485 16.854Z" fill="#9C9C9C"/>
<path d="M137.862 24.5385V19.6864C137.862 19.4859 137.835 19.3388 137.768 19.2185C137.715 19.1116 137.635 19.018 137.541 18.9378C137.447 18.871 137.354 18.8042 137.26 18.7507C137.167 18.6972 137.113 18.6438 137.113 18.5903C137.113 18.5368 137.113 18.4833 137.153 18.4165C137.18 18.363 137.22 18.323 137.3 18.323H142.888C143.195 18.323 143.342 18.47 143.342 18.7507C143.342 19.0314 143.195 19.1784 142.888 19.1784H139.519V21.5577H141.832C142.126 21.5577 142.273 21.7181 142.273 22.0256C142.273 22.333 142.126 22.4934 141.832 22.4934H139.519V24.2578C139.533 24.5118 139.599 24.6856 139.693 24.739C139.786 24.8059 139.92 24.8326 140.067 24.8192H141.284C141.925 24.8192 142.46 24.7791 142.888 24.6856C143.315 24.6054 143.663 24.4984 143.93 24.3648C144.104 24.2846 144.211 24.3113 144.264 24.4316C144.318 24.5519 144.278 24.6722 144.144 24.8059C143.97 24.9796 143.663 25.1668 143.222 25.394C142.794 25.6079 142.019 25.7148 140.909 25.7148H138.918C138.41 25.7148 138.102 25.5544 137.996 25.247C137.902 24.9395 137.848 24.6856 137.835 24.4984M144.826 22.2929H143.409C143.409 22.2929 143.315 22.2795 143.275 22.2662C143.235 22.2394 143.208 22.2127 143.168 22.1592L142.767 21.5845C142.714 21.5176 142.687 21.4374 142.674 21.3439C142.674 21.2637 142.674 21.1835 142.741 21.1166C142.834 21.0231 142.968 21.0097 143.155 21.1166C143.342 21.2102 143.529 21.2503 143.69 21.2503H144.826V18.1625C144.826 17.8818 144.719 17.6813 144.505 17.561C144.291 17.4407 144.104 17.3338 143.957 17.2536C143.85 17.1868 143.81 17.0932 143.85 16.9729C143.89 16.8526 143.944 16.8125 144.024 16.8125L146.203 17.0798C146.323 17.0932 146.403 17.1333 146.416 17.2135C146.43 17.2803 146.443 17.3338 146.443 17.3605V28.1476C146.443 28.4283 146.363 28.6822 146.203 28.9095C146.042 29.1367 145.842 29.2437 145.601 29.2437H145.147C145.04 29.2437 139.613 32.9596 139.559 32.9195C139.506 32.8661 144.826 29.0431 144.826 28.9228V22.3063V22.2929Z" fill="#9C9C9C"/>
</svg>
