<svg width="93" height="41" viewBox="0 0 93 41" fill="none" xmlns="http://www.w3.org/2000/svg">
<path d="M20.9251 0.128906C9.76399 0.128906 0.714844 9.17824 0.714844 20.3396C0.714844 31.5009 9.76399 40.5502 20.9251 40.5502C32.0861 40.5502 41.1353 31.5009 41.1353 20.3396C41.1353 9.17824 32.0861 0.128906 20.9251 0.128906ZM25.8305 27.3972V29.282H19.9893V11.3704H21.874V27.3972H25.8305ZM37.9674 20.3396C37.9674 29.7364 30.3217 37.3823 20.9251 37.3823C11.5284 37.3823 3.88271 29.7364 3.88271 20.3396C3.88271 10.9427 11.5284 3.29684 20.9251 3.29684H21.8606V5.18157H20.9251C12.571 5.18157 5.76727 11.9853 5.76727 20.3396C5.76727 28.6938 12.571 35.4975 20.9251 35.4975C29.2791 35.4975 35.5613 29.2018 36.0425 21.2886H25.8438V19.4039H37.954V20.3396H37.9674ZM17.0755 14.0304C17.0755 15.474 15.8991 16.6503 14.4555 16.6503C13.0119 16.6503 11.8357 15.474 11.8357 14.0304C11.8357 12.5868 13.0119 11.4105 14.4555 11.4105C15.8991 11.4105 17.0755 12.5868 17.0755 14.0304Z" fill="#9C9C9C"/>
<path d="M56.1157 7.25391H49.9805V33.239H68.4797V28.1329H56.1157V7.25391Z" fill="#9C9C9C"/>
<path d="M81.6955 18.4307V23.323H86.7213V27.8811C85.5985 28.1083 83.9144 28.643 81.3881 28.643C78.2069 28.643 75.039 26.4508 75.039 20.2486C75.039 17.2411 75.8276 11.8141 81.5886 11.8141C84.7164 11.8141 86.9753 12.7364 88.3654 14.4608L92.0679 11.1993C89.5684 8.11153 86.4407 6.92188 81.5886 6.92188C74.1301 6.92188 69.3047 11.3597 69.3047 20.2486C69.3047 29.1375 73.7023 33.5352 81.3881 33.5352C89.0739 33.5352 92.2952 31.049 92.2952 31.049V18.4307H81.6955Z" fill="#9C9C9C"/>
</svg>
