<svg width="124" height="29" viewBox="0 0 124 29" fill="none" xmlns="http://www.w3.org/2000/svg">
<path d="M48.1281 24.5031H34.4141V5.17463H38.8785V20.747H48.1281V24.5031ZM65.6918 22.9124C64.1012 24.0219 61.1605 24.7971 58.1664 24.7971C51.6302 24.7971 48.6628 21.295 48.6628 14.8121C48.6628 8.3292 51.951 4.89393 58.1931 4.89393C60.96 4.89393 63.9274 5.6291 65.6249 8.0485L62.8447 10.6016C61.7887 9.26488 60.5189 8.55644 58.2867 8.55644C54.2634 8.55644 52.9936 10.8823 52.9936 14.8389C52.9936 18.7954 54.3302 21.0277 58.3535 21.0277C59.5966 21.0277 60.9065 20.7737 61.5749 20.5198V17.1379H57.9392V13.5289H65.6918V22.8991V22.9124ZM81.7851 21.1747C83.7366 21.1747 85.7817 20.7202 87.1718 20.0252L88.1342 23.2466C86.4233 24.2625 83.897 24.8239 81.491 24.8239C75.035 24.8239 72.375 21.1213 72.375 14.8522C72.375 8.58317 75.837 4.88056 81.5445 4.88056C84.0307 4.88056 86.7441 5.57564 88.4283 7.43363L86.0891 10.1605C85.0465 9.09112 83.5227 8.2891 81.7183 8.2891C78.6573 8.2891 76.6791 10.3877 76.6791 14.7988C76.6791 18.5816 77.7484 21.1747 81.7985 21.1747H81.7851ZM107.382 24.5031H99.87L94.3764 8.52971H93.8551V24.5031H89.7917V5.17463H97.317L102.877 20.894H103.359V5.17463H107.382V24.5031ZM115.709 24.8239C113.464 24.8239 110.777 24.209 108.772 23.0594L110.242 19.8113C111.82 20.7203 113.998 21.3886 115.683 21.3886C118.142 21.3886 119.064 20.5866 119.064 19.2499C119.064 18.1806 118.45 17.432 116.899 17.0043C115.937 16.7369 114.667 16.3092 113.517 15.8815C111.191 14.9725 109.066 13.2749 109.066 10.4412C109.066 7.16629 111.445 4.86719 116.578 4.86719C118.53 4.86719 121.27 5.37513 123.088 6.44447L121.698 9.53222C120.414 8.78368 118.556 8.14207 116.658 8.14207C114.025 8.14207 113.25 9.05101 113.25 10.2139C113.25 11.7912 114.56 12.4061 116.952 13.0611C117.674 13.2749 119.038 13.7027 119.746 13.9967C121.617 14.7987 123.288 15.9216 123.288 19.0628C123.288 22.3911 120.481 24.7971 115.696 24.7971L115.709 24.8239Z" fill="#9C9C9C"/>
<path d="M103.356 20.9163H102.875L97.3144 5.18359H89.7891V24.512H93.8525V8.55203H94.3871L99.8674 24.512H107.379V5.18359H103.356V20.9163Z" fill="#9C9C9C"/>
<path d="M119.755 14.0358C119.033 13.7417 117.67 13.314 116.962 13.1001C114.569 12.4318 113.259 11.8169 113.259 10.253C113.259 9.0767 114.034 8.18112 116.668 8.18112C118.566 8.18112 120.424 8.82273 121.707 9.57127L123.097 6.48354C121.279 5.41419 118.539 4.90625 116.587 4.90625C111.441 4.90625 109.075 7.20534 109.075 10.4802C109.075 13.3006 111.214 15.0116 113.526 15.9205C114.676 16.3483 115.959 16.776 116.908 17.0433C118.459 17.4711 119.073 18.2196 119.073 19.289C119.073 20.6256 118.138 21.4276 115.692 21.4276C114.008 21.4276 111.829 20.7593 110.252 19.8504L108.781 23.0985C110.786 24.248 113.473 24.8629 115.718 24.8629C120.517 24.8629 123.311 22.4569 123.311 19.1285C123.311 15.9873 121.627 14.8645 119.769 14.0625L119.755 14.0358Z" fill="#9C9C9C"/>
<path d="M81.7182 8.29527C83.5361 8.29527 85.0465 9.09727 86.0891 10.1666L88.4282 7.43978C86.744 5.56842 84.0306 4.88672 81.5444 4.88672C75.8369 4.88672 72.375 8.29527 72.375 14.8584C72.375 21.4215 75.0349 24.83 81.491 24.83C83.8836 24.83 86.4232 24.2686 88.1342 23.2528L87.1718 20.0313C85.7816 20.7264 83.7366 21.1809 81.785 21.1809C77.735 21.1809 76.6657 18.5877 76.6657 14.8049C76.6657 10.4072 78.6439 8.29527 81.7049 8.29527H81.7182Z" fill="#9C9C9C"/>
<path d="M57.9404 17.1307H61.5761V20.5125C60.9078 20.7665 59.5979 21.0205 58.3548 21.0205C54.3315 21.0205 52.9948 18.9754 52.9948 14.8316C52.9948 10.6879 54.2646 8.54923 58.288 8.54923C60.5202 8.54923 61.79 9.2443 62.846 10.5944L65.6262 8.04129C63.9287 5.6219 60.9746 4.88672 58.1944 4.88672C51.9389 4.88672 48.6641 8.29526 48.6641 14.8049C48.6641 21.3146 51.6314 24.7899 58.1677 24.7899C61.1618 24.7899 64.1024 24.028 65.693 22.9052V13.5351H57.9404V17.1441V17.1307Z" fill="#9C9C9C"/>
<path d="M38.8785 5.18359H34.4141V24.512H48.1281V20.756H38.8785V5.18359Z" fill="#9C9C9C"/>
<path d="M14.5 0C6.49239 0 0 6.49253 0 14.5003C0 22.5081 6.49239 29.0006 14.5 29.0006C22.5076 29.0006 29 22.5081 29 14.5003C29 6.49253 22.5076 0 14.5 0ZM18.0194 19.5639V20.9161H13.8286V8.06532H15.1808V19.5639H18.0194ZM26.7272 14.5003C26.7272 21.2422 21.2417 26.7278 14.5 26.7278C7.75827 26.7278 2.27281 21.2422 2.27281 14.5003C2.27281 7.75843 7.75827 2.27286 14.5 2.27286H15.1713V3.62508H14.5C8.50628 3.62508 3.62491 8.50647 3.62491 14.5003C3.62491 20.4942 8.50628 25.3756 14.5 25.3756C20.4937 25.3756 25.0009 20.8586 25.3462 15.1812H18.029V13.829H26.7176V14.5003H26.7272ZM11.7381 9.97376C11.7381 11.0095 10.8941 11.8534 9.85838 11.8534C8.82267 11.8534 7.97879 11.0095 7.97879 9.97376C7.97879 8.93802 8.82267 8.09409 9.85838 8.09409C10.8941 8.09409 11.7381 8.93802 11.7381 9.97376Z" fill="#9C9C9C"/>
</svg>
