<svg width="127" height="31" viewBox="0 0 127 31" fill="none" xmlns="http://www.w3.org/2000/svg">
<path d="M50.8899 25.007H37.1758V5.67854H41.6402V21.2509H50.8899V25.007ZM68.4535 23.4163C66.8629 24.5258 63.9222 25.301 60.9281 25.301C54.3919 25.301 51.4245 21.7989 51.4245 15.316C51.4245 8.83311 54.7127 5.39783 60.9549 5.39783C63.7217 5.39783 66.6891 6.13301 68.3867 8.55241L65.6064 11.1055C64.5505 9.76878 63.2806 9.06034 61.0484 9.06034C57.0251 9.06034 55.7553 11.3862 55.7553 15.3428C55.7553 19.2993 57.0919 21.5316 61.1153 21.5316C62.3583 21.5316 63.6683 21.2776 64.3366 21.0237V17.6419H60.7009V14.0328H68.4535V23.403V23.4163ZM84.5468 21.6786C86.4983 21.6786 88.5434 21.2242 89.9335 20.5291L90.8959 23.7505C89.185 24.7664 86.6587 25.3278 84.2527 25.3278C77.7967 25.3278 75.1368 21.6252 75.1368 15.3561C75.1368 9.08707 78.5987 5.38446 84.3062 5.38446C86.7924 5.38446 89.5058 6.07954 91.19 7.93753L88.8508 10.6644C87.8082 9.59502 86.2845 8.79301 84.48 8.79301C81.419 8.79301 79.4408 10.8916 79.4408 15.3027C79.4408 19.0855 80.5101 21.6786 84.5602 21.6786H84.5468ZM110.144 25.007H102.632L97.1381 9.03361H96.6168V25.007H92.5534V5.67854H100.079L105.639 21.3979H106.12V5.67854H110.144V25.007ZM118.471 25.3278C116.226 25.3278 113.539 24.7129 111.534 23.5634L113.004 20.3152C114.581 21.2242 116.76 21.8925 118.444 21.8925C120.904 21.8925 121.826 21.0905 121.826 19.7538C121.826 18.6845 121.211 17.9359 119.661 17.5082C118.698 17.2408 117.429 16.8131 116.279 16.3854C113.953 15.4764 111.828 13.7788 111.828 10.9451C111.828 7.6702 114.207 5.37109 119.34 5.37109C121.291 5.37109 124.032 5.87903 125.849 6.94838L124.459 10.0361C123.176 9.28758 121.318 8.64597 119.42 8.64597C116.787 8.64597 116.012 9.55491 116.012 10.7178C116.012 12.2951 117.322 12.91 119.714 13.565C120.436 13.7788 121.799 14.2066 122.508 14.5006C124.379 15.3027 126.05 16.4255 126.05 19.5667C126.05 22.895 123.243 25.301 118.458 25.301L118.471 25.3278Z" fill="#9C9C9C"/>
<path d="M106.118 21.4203H105.637L100.076 5.6875H92.5508V25.0159H96.6142V9.05594H97.1489L102.629 25.0159H110.141V5.6875H106.118V21.4203Z" fill="#9C9C9C"/>
<path d="M122.521 14.5397C121.799 14.2456 120.436 13.8179 119.727 13.604C117.335 12.9357 116.025 12.3208 116.025 10.7569C116.025 9.58061 116.8 8.68503 119.433 8.68503C121.331 8.68503 123.189 9.32663 124.472 10.0752L125.862 6.98744C124.045 5.9181 121.304 5.41016 119.353 5.41016C114.207 5.41016 111.841 7.70925 111.841 10.9841C111.841 13.8045 113.98 15.5155 116.292 16.4244C117.442 16.8522 118.725 17.2799 119.674 17.5472C121.224 17.975 121.839 18.7235 121.839 19.7929C121.839 21.1296 120.903 21.9315 118.457 21.9315C116.773 21.9315 114.594 21.2632 113.017 20.3543L111.547 23.6024C113.552 24.752 116.239 25.3668 118.484 25.3668C123.283 25.3668 126.076 22.9608 126.076 19.6325C126.076 16.4912 124.392 15.3684 122.534 14.5664L122.521 14.5397Z" fill="#9C9C9C"/>
<path d="M84.476 8.79917C86.2939 8.79917 87.8043 9.60117 88.8469 10.6705L91.186 7.94368C89.5018 6.07233 86.7884 5.39062 84.3023 5.39062C78.5947 5.39062 75.1328 8.79918 75.1328 15.3623C75.1328 21.9254 77.7928 25.3339 84.2488 25.3339C86.6414 25.3339 89.1811 24.7725 90.892 23.7567L89.9296 20.5352C88.5395 21.2303 86.4944 21.6848 84.5429 21.6848C80.4928 21.6848 79.4235 19.0916 79.4235 15.3088C79.4235 10.9111 81.4017 8.79917 84.4627 8.79917H84.476Z" fill="#9C9C9C"/>
<path d="M30.4488 15.3411C30.4488 7.14723 23.8056 0.503906 15.5986 0.503906C7.39152 0.503906 0.775085 7.13386 0.761719 15.3144V15.3678C0.775085 23.5483 7.41826 30.1783 15.5986 30.1783C23.7789 30.1783 30.4488 23.5349 30.4488 15.3277V15.3411ZM21.012 20.6744V21.8374H15.0105V10.0077C14.7164 11.3578 13.5134 12.3737 12.0832 12.3737C10.4257 12.3737 9.08907 11.0236 9.08907 9.37948C9.08907 7.73536 10.4257 6.38531 12.0832 6.38531C13.5535 6.38531 14.7699 7.4413 15.0238 8.83145H16.7214V20.6744H20.9987H21.012ZM15.5986 27.7589C12.2837 27.7589 9.16927 26.4757 6.81676 24.1231C4.47762 21.7705 3.18106 18.6561 3.18106 15.3411C3.18106 8.49728 8.75491 2.90994 15.5986 2.90994C15.7456 2.90994 16.0397 2.90994 16.2001 2.90994V4.07286C16.053 4.07286 15.7322 4.07286 15.5986 4.07286C12.5911 4.07286 9.77077 5.24913 7.63212 7.37446C5.50684 9.49978 4.33058 12.3336 4.33058 15.3411C4.33058 18.3486 5.50684 21.1824 7.63212 23.3077C9.7574 25.433 12.5911 26.6093 15.5986 26.6093C21.5601 26.6093 26.4522 21.9577 26.8398 16.103V15.9292H19.1541V14.7663H28.0295V15.3277C28.0295 18.6427 26.7329 21.7705 24.3938 24.1097C22.0413 26.4623 18.9268 27.7455 15.5986 27.7455V27.7589Z" fill="#9C9C9C"/>
<path d="M60.7061 17.6346H64.3418V21.0165C63.6734 21.2704 62.3635 21.5244 61.1204 21.5244C57.0971 21.5244 55.7604 19.4793 55.7604 15.3356C55.7604 11.1918 57.0303 9.05313 61.0536 9.05313C63.2858 9.05313 64.5556 9.74821 65.6116 11.0983L68.3918 8.5452C66.6943 6.1258 63.7403 5.39062 60.96 5.39062C54.7045 5.39062 51.4297 8.79916 51.4297 15.3088C51.4297 21.8185 54.3971 25.2938 60.9333 25.2938C63.9274 25.2938 66.868 24.5319 68.4587 23.4091V14.039H60.7061V17.648V17.6346Z" fill="#9C9C9C"/>
<path d="M41.6402 5.6875H37.1758V25.0159H50.8899V21.2599H41.6402V5.6875Z" fill="#9C9C9C"/>
</svg>
