<svg width="129" height="26" viewBox="0 0 129 26" fill="none" xmlns="http://www.w3.org/2000/svg">
<path d="M19.6148 2.87891H13.6133V25.5624H19.6148V2.87891Z" fill="#9C9C9C"/>
<path d="M50.3982 2.73828H36.3633V7.75084H40.5203V25.4887H46.3882V7.75084H50.3982V2.73828Z" fill="#9C9C9C"/>
<path d="M90.7566 2.58203H84.4609V25.4794H90.7566V2.58203Z" fill="#9C9C9C"/>
<path d="M36.9416 9.24661H31.194C31.047 8.61837 30.7931 8.13716 30.4188 7.82973C30.0445 7.50892 29.4965 7.3485 28.7881 7.3485C28.0796 7.3485 27.5851 7.50889 27.2108 7.84307C26.9435 8.09704 26.8098 8.41785 26.8098 8.81886C26.8098 9.1664 26.9168 9.43373 27.1173 9.6476C27.4113 9.94167 28.093 10.2491 29.1757 10.5565L31.5282 11.2383C33.7069 11.8665 35.2307 12.7487 36.1263 13.8849C37.0085 15.0344 37.4496 16.3577 37.4496 17.8682C37.4496 19.0712 37.2224 20.1673 36.7679 21.1565C36.3134 22.1456 35.752 22.9342 35.0837 23.4957C34.4154 24.0704 33.5599 24.5249 32.504 24.8591C31.448 25.1932 30.3386 25.367 29.1757 25.367C27.9059 25.367 26.7029 25.1665 25.5801 24.7789C24.4573 24.3912 23.535 23.8164 22.7998 23.0946C22.0781 22.3594 21.53 21.5173 21.1557 20.5416C20.8884 19.8598 20.7013 19.0178 20.6211 18.0152H26.4355C26.5692 18.7103 26.8633 19.245 27.3177 19.6059C27.7722 19.9802 28.4673 20.1673 29.4029 20.1673C30.2183 20.1673 30.8064 20.0069 31.1539 19.6861C31.4213 19.4455 31.5549 19.1113 31.5549 18.6836C31.5549 18.2558 31.4346 17.8816 31.194 17.6142C30.9534 17.3469 30.2851 17.0528 29.1891 16.7454L27.0638 16.1305C25.9677 15.8231 24.9251 15.382 23.9627 14.8339C23.0003 14.2859 22.2652 13.5641 21.7706 12.6952C21.2761 11.8264 21.0355 10.757 21.0355 9.51392C21.0355 8.2708 21.2493 7.20148 21.6904 6.23907C22.1315 5.29003 22.7196 4.51473 23.4682 3.92659C24.2033 3.33845 25.0454 2.93743 25.9543 2.69683C26.8633 2.45622 27.8123 2.33594 28.7881 2.33594C29.9376 2.33594 30.9935 2.48297 31.9559 2.75031C32.9183 3.03101 33.6802 3.39192 34.255 3.8464C34.8164 4.2875 35.2842 4.8088 35.6451 5.38357C36.006 5.95835 36.2867 6.5465 36.4872 7.14801C36.6877 7.74951 36.8347 8.45796 36.955 9.24661" fill="#9C9C9C"/>
<path d="M72.2224 13.5586V8.13172C72.2224 8.13172 77.2616 7.18266 77.2616 10.7115C77.2616 10.7115 78.3175 13.5586 72.2224 13.5586ZM84.5062 25.4819L79.9082 15.8043C83.6241 14.2136 83.2231 9.32134 83.2231 9.32134C83.2231 2.95873 74.8824 2.69141 74.8824 2.69141H66.1406V25.6155L72.2358 25.4819L72.1021 14.3473L77.7963 25.4819H84.5062Z" fill="#9C9C9C"/>
<path d="M92.2227 2.69141H98.3312L104.025 14.08L103.999 2.69141H110.161V25.4819L103.531 25.522L98.3178 15.4434L98.3579 25.522L92.2494 25.4819L92.2227 2.69141Z" fill="#9C9C9C"/>
<path d="M118.551 20.4917V16.5217H124.579V11.7097H118.551V7.87338H125.742V2.75391H118.551H112.215V7.87338V11.7097V16.5217V20.4917V25.4909H118.551H125.835V20.4917H118.551Z" fill="#9C9C9C"/>
<path d="M57.8358 20.5051V16.5351H63.864V11.7097H57.8358V7.87338H65.027V2.75391H57.8358H51.5V7.87338V11.7097V16.5351V20.5051V25.4909H57.8358H65.1205V20.5051H57.8358Z" fill="#9C9C9C"/>
<path d="M12.4309 20.1932H6.53622V1.01174V0.757812H6.02832H0L0 1.01174L0 25.4865L0 25.5934H12.2705H12.4309V25.4865V20.1932Z" fill="#9C9C9C"/>
<path d="M127.565 5.38161C126.91 5.38161 126.375 4.84691 126.375 4.19194C126.375 3.53696 126.91 3.00231 127.565 3.00231C128.22 3.00231 128.754 3.53696 128.754 4.19194C128.754 4.84691 128.22 5.38161 127.565 5.38161ZM127.565 5.64892C128.367 5.64892 129.008 4.99396 129.008 4.20532C129.008 3.41668 128.353 2.76172 127.565 2.76172C126.776 2.76172 126.121 3.41668 126.121 4.20532C126.121 4.99396 126.776 5.64892 127.565 5.64892Z" fill="#9C9C9C"/>
<path d="M127.644 4.0543C127.845 4.0543 127.925 3.98744 127.925 3.81367C127.925 3.7201 127.885 3.57308 127.671 3.57308H127.203V4.0543H127.644ZM126.842 3.26562H127.738C128.206 3.26562 128.3 3.62654 128.3 3.77357C128.3 3.97407 128.193 4.13449 128.019 4.20132C128.166 4.26815 128.246 4.32162 128.246 4.65579C128.246 4.92312 128.246 4.97658 128.327 5.01668V5.07016H127.912C127.885 4.98995 127.872 4.8964 127.872 4.70927C127.872 4.46866 127.858 4.37509 127.577 4.37509H127.189V5.07016H126.828V3.279L126.842 3.26562Z" fill="#9C9C9C"/>
</svg>
