<svg width="141" height="72" viewBox="0 0 141 72" fill="none" xmlns="http://www.w3.org/2000/svg">
<path d="M3.1452 39.2598L13.6465 57.7324L24.1478 39.2598H27.28V66.4621H23.7059V46.3916L14.9332 61.8765H12.3468L3.57408 46.3916V66.4621H0V39.2598H3.1322H3.1452Z" fill="#1C46F5"/>
<path d="M50.4142 59.733H37.3265L34.6102 66.4621H30.8672L42.0833 39.2598H45.8523L57.0295 66.4621H53.1175L50.4012 59.733H50.4142ZM49.1535 56.5763L43.8898 43.4298L38.5872 56.5763H49.1535Z" fill="#1C46F5"/>
<path d="M72.4001 56.7841C71.8932 56.8231 71.3863 56.8491 70.8664 56.8491H64.2381V66.4621H60.6641V39.2598H70.8534C77.7157 39.2598 81.7576 42.6893 81.7576 48.0544C81.7576 51.8867 79.6912 54.7446 75.9481 56.0696L72.3741 56.7841H72.4001ZM78.2096 48.0544C78.2096 44.3911 75.3243 42.4555 70.5935 42.4555H64.2381V53.6664H70.5935C75.3113 53.6664 78.2096 51.7308 78.2096 48.0674V48.0544Z" fill="#1C46F5"/>
<path d="M85.0156 51.3032C85.0156 43.9635 90.4092 38.6113 97.7524 38.6113C104.03 38.6113 108.358 42.2487 109.631 47.341H106.382C105.355 43.9115 102.223 41.5472 97.8043 41.5472C92.2288 41.5472 88.1998 45.6133 88.1998 51.3032C88.1998 56.9931 92.2678 61.0591 97.8043 61.0591C102.353 61.0591 105.745 58.3961 106.629 54.9405H109.878C108.813 59.9939 104.173 63.995 97.7524 63.995C90.4222 63.995 85.0156 58.6299 85.0156 51.3032Z" fill="#1C46F5"/>
<path d="M97.7494 64.216C90.2503 64.216 84.8047 58.7859 84.8047 51.3033C84.8047 43.8207 90.2503 38.3906 97.7494 38.3906C103.832 38.3906 108.472 41.7942 109.849 47.2762L109.914 47.549H106.236L106.184 47.3931C105.144 43.9246 101.934 41.7552 97.8144 41.7552C92.3688 41.7552 88.4178 45.7693 88.4178 51.2903C88.4178 56.8113 92.3688 60.8254 97.8144 60.8254C102.064 60.8254 105.521 58.4352 106.431 54.8627L106.47 54.6939H110.148L110.096 54.9537C108.939 60.4747 103.975 64.19 97.7624 64.19L97.7494 64.216ZM97.7494 38.8193C90.4972 38.8193 85.2336 44.0675 85.2336 51.3033C85.2336 58.5391 90.4972 63.7873 97.7494 63.7873C103.663 63.7873 108.394 60.3318 109.602 55.1615H106.795C105.781 58.8249 102.194 61.2801 97.8013 61.2801C92.1088 61.2801 87.9759 57.0841 87.9759 51.3033C87.9759 45.5225 92.1088 41.3265 97.8013 41.3265C102.051 41.3265 105.391 43.5349 106.535 47.1073H109.342C107.939 41.989 103.52 38.8193 97.7364 38.8193H97.7494Z" fill="#1C46F5"/>
<path d="M140.468 39.2598V66.4621H136.894V54.16H121.09V66.4621H117.516V39.2598H121.09V50.9124H136.894V39.2598H140.468Z" fill="#1C46F5"/>
<path d="M97.0753 71.2164C95.5287 71.2164 93.9821 71.0735 92.4355 70.7747C79.6728 68.3715 72.0697 56.9007 71.7578 56.4201L74.6691 54.5234C74.734 54.6274 81.8172 65.2537 93.1113 67.3712C99.6356 68.5923 106.368 66.7606 113.126 61.9281L115.154 64.7601C109.136 69.06 103.08 71.2294 97.0753 71.2294V71.2164Z" fill="#1C46F5"/>
<path d="M33.1017 29.399H20.014L17.2977 36.1282H13.5547L24.7708 8.92578H28.5398L39.717 36.1282H35.805L33.0887 29.399H33.1017ZM31.841 26.2423L26.5773 13.0958L21.2747 26.2423H31.841Z" fill="#1C46F5"/>
<path d="M53.0159 8.92578C60.0861 8.92578 64.232 12.6931 64.232 18.37C64.232 24.0469 60.0861 27.8142 53.0159 27.8142H46.9335V36.1411H43.3594V8.93877H53.0159V8.92578ZM60.6579 18.37C60.6579 14.3299 57.6687 12.1604 52.743 12.1604H46.9335V24.5925H52.743C57.6687 24.5925 60.6579 22.423 60.6579 18.383V18.37Z" fill="#1C46F5"/>
<path d="M100.152 36.1282H96.5781V8.92578H100.152V36.1282Z" fill="#1C46F5"/>
<path d="M111.121 32.9065H126.938V36.1282H107.547V8.92578H111.121V32.9065Z" fill="#1C46F5"/>
<path d="M86.0708 36.1282L79.8844 26.4501C79.3776 26.4891 78.8707 26.5151 78.3508 26.5151H71.7225V36.1282H68.1484V8.92578H78.3378C85.2001 8.92578 89.242 12.3553 89.242 17.7204C89.242 21.5527 87.1755 24.4106 83.4325 25.7357L90.2688 36.1282H86.0578H86.0708ZM85.6939 17.7204C85.6939 14.0571 82.8087 12.1215 78.0779 12.1215H71.7225V23.3324H78.0779C82.7957 23.3324 85.6939 21.3968 85.6939 17.7334V17.7204Z" fill="#1C46F5"/>
<path d="M127.281 0V13.5785" stroke="#1C46F5" stroke-width="2.089"/>
<path d="M120.492 6.78906L134.071 6.78906" stroke="#1C46F5" stroke-width="2.089"/>
<path d="M122.477 1.98828L132.078 11.5897" stroke="#1C46F5" stroke-width="2.089"/>
<path d="M132.086 1.98828L122.484 11.5897" stroke="#1C46F5" stroke-width="2.089"/>
</svg>
