<svg width="408" height="409" viewBox="0 0 408 409" fill="none" xmlns="http://www.w3.org/2000/svg">
<g clip-path="url(#clip0_575_48079)">
<path d="M203.996 408.064C316.528 408.064 407.753 316.839 407.753 204.308C407.753 91.7765 316.528 0.551758 203.996 0.551758C91.465 0.551758 0.240234 91.7765 0.240234 204.308C0.240234 316.839 91.465 408.064 203.996 408.064Z" fill="#04413B"/>
<path d="M309.579 204.308C336.6 192.447 355.486 165.5 355.486 134.102C355.486 91.7593 321.16 57.4326 278.817 57.4326C242.183 57.4326 211.613 83.1369 204.011 117.478C196.409 83.1369 165.825 57.4326 129.191 57.4326C86.8481 57.4326 52.5215 91.7593 52.5215 134.102C52.5215 165.5 71.4078 192.447 98.4284 204.308C71.4078 216.169 52.5215 243.116 52.5215 274.514C52.5215 316.857 86.8481 351.184 129.191 351.184C165.825 351.184 196.395 325.479 204.011 291.138C211.613 325.479 242.198 351.184 278.817 351.184C321.16 351.184 355.486 316.857 355.486 274.514C355.486 243.116 336.6 216.169 309.579 204.308Z" fill="#34A566"/>
</g>
<defs>
<clipPath id="clip0_575_48079">
<rect width="407.513" height="407.513" fill="white" transform="translate(0.240234 0.551758)"/>
</clipPath>
</defs>
</svg>
