<svg width="408" height="408" viewBox="0 0 408 408" fill="none" xmlns="http://www.w3.org/2000/svg">
<g clip-path="url(#clip0_575_48168)">
<path d="M203.996 407.513C316.528 407.513 407.753 316.288 407.753 203.756C407.753 91.2248 316.528 0 203.996 0C91.465 0 0.240234 91.2248 0.240234 203.756C0.240234 316.288 91.465 407.513 203.996 407.513Z" fill="white"/>
<path d="M325.197 322.576C325.197 322.576 303.057 292.523 293.828 273.031C284.599 253.523 277.219 235.081 276.953 232.448C276.953 232.448 274.01 217.599 280.532 202.218C287.794 185.136 301.741 170.228 297.082 159.225C293.754 151.386 283.032 151.8 279.009 154.655C274.986 157.509 266.186 169.77 265.269 172.491C264.353 175.227 262.341 168.675 261.957 162.952C261.572 157.228 260.788 127.723 261.957 113.821C263.125 99.9185 254.414 98.3508 251.826 98.3508C249.223 98.3508 244.283 98.3508 241.813 102.773C239.343 107.195 243.115 97.0493 237.258 93.0265C231.416 89.0038 224.657 91.2074 222.705 93.0265C220.753 94.8456 219.2 96.5317 218.934 98.3508C218.667 100.17 213.476 93.1448 203.863 97.4338C194.25 101.723 195.803 110.952 195.936 113.155C196.069 115.359 190.479 113.673 186.056 118.228C181.634 122.783 180.466 138.12 180.466 154.093C180.466 170.08 180.081 208.164 185.021 231.294C189.961 254.425 198.539 283.413 214.66 302.255C230.78 321.097 250.007 336.833 269.115 342.409C288.223 347.999 320.198 350.602 326.957 342.409C333.716 334.215 325.212 322.531 325.212 322.531L325.197 322.576Z" fill="#0A9146"/>
<path d="M240.083 103.231C240.083 103.231 236.829 112.593 236.311 124.809C235.794 137.026 235.395 173.541 235.395 173.541" stroke="#38AEE5" stroke-width="4.71788" stroke-linecap="round" stroke-linejoin="round"/>
<path d="M220.325 97.4932C220.325 97.4932 216.553 107.654 216.169 126.762C215.784 145.87 216.169 147.689 216.169 147.689" stroke="#38AEE5" stroke-width="4.71788" stroke-linecap="round" stroke-linejoin="round"/>
<path d="M263.213 173.541C263.213 173.541 258.007 181.202 255.67 187.059C253.334 192.901 249.178 202.129 249.178 202.129" stroke="#38AEE5" stroke-width="4.71788" stroke-linecap="round" stroke-linejoin="round"/>
<path d="M87.3073 318.479C87.3073 318.479 109.447 288.426 118.676 268.934C127.905 249.426 135.285 230.984 135.551 228.351C135.551 228.351 136.645 216.712 131.972 198.121C127.298 179.531 118.587 164.845 123.394 157.834C128.201 150.809 135.226 150.942 139.248 153.812C143.271 156.666 147.309 164.475 148.211 167.196C149.128 169.932 150.163 164.593 150.548 158.884C150.932 153.176 151.716 123.656 150.548 109.753C149.379 95.8511 158.09 94.2834 160.678 94.2834C163.267 94.2834 168.221 94.2834 170.691 98.7055C173.161 103.128 169.39 92.9819 175.246 88.9591C181.088 84.9364 187.847 87.14 189.799 88.9591C191.751 90.7783 193.304 92.4643 193.571 94.2834C193.837 96.1025 199.028 89.0775 208.641 93.3664C218.254 97.6554 216.701 106.884 216.568 109.088C216.435 111.291 222.026 109.605 226.448 114.161C230.87 118.716 232.038 134.053 232.038 150.025C232.038 165.998 232.423 204.096 227.483 227.227C222.543 250.358 213.965 279.346 197.845 298.188C181.724 317.029 162.498 332.766 143.389 338.341C124.281 343.932 92.3062 346.535 85.5473 338.341C78.7885 330.148 87.2925 318.464 87.2925 318.464L87.3073 318.479Z" fill="#38AEE5"/>
<path d="M148.18 170.036C148.18 170.036 146.938 191.392 141.244 209.865" stroke="#0A9146" stroke-width="4.71788" stroke-linecap="round" stroke-linejoin="round"/>
<path d="M169.877 97.4932C169.877 97.4932 166.905 100.377 166.905 120.905C166.905 141.433 166.52 173.926 166.254 175.745" stroke="#0A9146" stroke-width="4.71788" stroke-linecap="round" stroke-linejoin="round"/>
<path d="M193.953 93.7363C193.953 93.7363 190.123 95.5554 189.665 102.447C189.206 109.339 186.677 159.373 186.544 165.998C186.411 172.624 185.627 175.745 185.627 175.745" stroke="#0A9146" stroke-width="4.71788" stroke-linecap="round" stroke-linejoin="round"/>
<path d="M217.602 111.942C217.602 111.942 207.072 111.424 205.77 120.387C204.469 129.349 203.818 165.614 203.434 170.553C203.049 175.493 202.398 180.566 202.398 180.566" stroke="#0A9146" stroke-width="4.71788" stroke-linecap="round" stroke-linejoin="round"/>
<path d="M89.1855 224.802L100.233 217.437" stroke="#0A9146" stroke-width="4.71788" stroke-linecap="round" stroke-linejoin="round"/>
<path d="M79.3652 198.195L92.454 196.568" stroke="#0A9146" stroke-width="4.71788" stroke-linecap="round" stroke-linejoin="round"/>
<path d="M67.4883 155.631L85.9161 158.899" stroke="#0A9146" stroke-width="4.71788" stroke-linecap="round" stroke-linejoin="round"/>
<path d="M79.3652 106.929L100.233 116.749" stroke="#0A9146" stroke-width="4.71788" stroke-linecap="round" stroke-linejoin="round"/>
<path d="M112.508 59.8535L122.742 77.4531" stroke="#0A9146" stroke-width="4.71788" stroke-linecap="round" stroke-linejoin="round"/>
<path d="M305.704 61.4951L288.918 73.7705" stroke="#38AEE5" stroke-width="4.71788" stroke-linecap="round" stroke-linejoin="round"/>
<path d="M329.56 90.7637L309.387 97.4929" stroke="#38AEE5" stroke-width="4.71788" stroke-linecap="round" stroke-linejoin="round"/>
<path d="M340.489 155.631H324.531" stroke="#38AEE5" stroke-width="4.71788" stroke-linecap="round" stroke-linejoin="round"/>
<path d="M327.801 213.34L312.656 204.333" stroke="#38AEE5" stroke-width="4.71788" stroke-linecap="round" stroke-linejoin="round"/>
</g>
<defs>
<clipPath id="clip0_575_48168">
<rect width="407.513" height="407.513" fill="white" transform="translate(0.240234)"/>
</clipPath>
</defs>
</svg>
