<svg width="408" height="409" viewBox="0 0 408 409" fill="none" xmlns="http://www.w3.org/2000/svg">
<g clip-path="url(#clip0_575_48082)">
<path d="M203.756 408.064C316.288 408.064 407.513 316.839 407.513 204.308C407.513 91.7765 316.288 0.551758 203.756 0.551758C91.2248 0.551758 0 91.7765 0 204.308C0 316.839 91.2248 408.064 203.756 408.064Z" fill="#F590B2"/>
<path d="M116.72 325.656C145.871 325.656 169.504 271.327 169.504 204.308C169.504 137.289 145.871 82.959 116.72 82.959C87.5678 82.959 63.9355 137.289 63.9355 204.308C63.9355 271.327 87.5678 325.656 116.72 325.656Z" fill="#DCDCDB"/>
<path d="M145.603 243.146C158.803 243.146 169.503 232.445 169.503 219.246C169.503 206.046 158.803 195.346 145.603 195.346C132.404 195.346 121.703 206.046 121.703 219.246C121.703 232.445 132.404 243.146 145.603 243.146Z" fill="black"/>
<path d="M290.778 325.656C319.93 325.656 343.562 271.327 343.562 204.308C343.562 137.289 319.93 82.959 290.778 82.959C261.626 82.959 237.994 137.289 237.994 204.308C237.994 271.327 261.626 325.656 290.778 325.656Z" fill="#DCDCDB"/>
<path d="M319.677 243.146C332.877 243.146 343.577 232.445 343.577 219.246C343.577 206.046 332.877 195.346 319.677 195.346C306.478 195.346 295.777 206.046 295.777 219.246C295.777 232.445 306.478 243.146 319.677 243.146Z" fill="black"/>
</g>
<defs>
<clipPath id="clip0_575_48082">
<rect width="407.513" height="407.513" fill="white" transform="translate(0 0.551758)"/>
</clipPath>
</defs>
</svg>
