<svg width="886" height="921" viewBox="0 0 886 921" fill="none" xmlns="http://www.w3.org/2000/svg">
<path d="M754.312 903.659L754.305 903.662C727.731 914.213 698.396 919.5 666.281 919.5H534.914V509.137H666.281C698.396 509.137 727.731 514.423 754.305 524.975L754.312 524.978C781.31 535.542 804.365 550.007 823.502 568.362L823.507 568.367L823.512 568.372C843.042 586.73 858.079 608.405 868.628 633.41L868.631 633.418C879.174 658.018 884.454 684.782 884.454 713.728V714.909C884.454 743.852 879.175 770.815 868.63 795.812C858.082 820.423 843.045 841.904 823.512 860.265L823.507 860.27L823.502 860.275C804.365 878.63 781.31 893.095 754.312 903.659Z" stroke="black" stroke-width="3"/>
<path d="M361.704 75.922C324.47 30.7771 268.123 2 205.076 2C92.916 2 2 92.8989 2 205.038C2 317.177 92.916 408 205 408C317.084 408 408 317.101 408 205.038H258.986" stroke="black" stroke-width="3" stroke-miterlimit="10"/>
<circle cx="676" cy="205" r="201.5" stroke="black" stroke-width="3"/>
</svg>
