<svg width="140" height="26" viewBox="0 0 140 26" fill="none" xmlns="http://www.w3.org/2000/svg">
<path d="M38.0616 11.8359V9.63034H42.6596V0.621094C43.8225 0.621094 44.9052 0.621094 45.9879 0.634461C46.1216 0.634461 46.3087 0.84833 46.3622 1.00873C46.429 1.19587 46.3889 1.4231 46.3889 1.62361V25.4968H42.673V19.0005C39.5586 19.8292 36.4709 19.2946 33.41 19.4416C32.8219 19.4683 32.2337 19.4416 31.6322 19.4416C30.2689 19.4416 29.6406 18.8134 29.6406 17.4232C29.6406 13.1592 29.6406 8.89516 29.6406 4.63114V2.55928H40.2403V4.2435H37.5536C36.4308 4.2435 35.3081 4.25687 34.1853 4.2435C33.664 4.2435 33.4501 4.39054 33.4501 4.95195C33.4634 8.80159 33.4501 12.6512 33.4501 16.5009C33.4501 17.2361 33.7843 17.7039 34.5595 17.7039C36.6046 17.7039 38.6363 17.6638 40.6814 17.6371C40.8551 17.6371 41.0423 17.6103 41.216 17.5702C42.673 17.3163 42.6864 17.3029 42.6864 15.8325V11.8359H38.0749H38.0616Z" fill="#9C9C9C"/>
<path d="M22.7563 11.32C20.2301 11.32 17.8642 11.3467 15.4983 11.3066C14.8032 11.3066 14.4824 11.4403 14.5225 12.2289C14.6027 14.1137 14.2953 13.8196 16.1132 13.8329C18.6929 13.8463 21.2593 13.8329 23.839 13.8329H24.8415V15.5305H0.460938V13.8329H10.6329V11.32H9.33632C7.7056 11.32 6.07489 11.3334 4.45754 11.32C3.20109 11.2933 2.54612 10.6249 2.53276 9.38179C2.50602 8.05848 2.53276 6.73516 2.53276 5.27818H3.65554C8.3071 5.27818 12.9453 5.25144 17.5969 5.30491C18.4657 5.30491 18.7731 5.03757 18.6662 4.19546C18.6127 3.76773 18.6662 3.32662 18.6662 2.81868H2.61295V1.12109H22.4489V7.06933H6.36895C6.36895 7.55054 6.36895 7.92481 6.36895 8.29908C6.39568 9.26149 6.68974 9.55556 7.67886 9.55556C11.3814 9.55556 15.0839 9.55556 18.7865 9.55556H22.7964V11.3334L22.7563 11.32Z" fill="#9C9C9C"/>
<path d="M52.3394 0.664062H48.7305V25.4996H52.3394V0.664062Z" fill="#9C9C9C"/>
<path d="M137.285 12.7161C136.336 14.3735 136.282 14.4136 134.625 13.8656C131.59 12.8631 128.971 11.1922 126.832 8.81294C126.658 8.61244 126.471 8.4253 126.297 8.23817C125.402 9.16048 124.573 10.1095 123.637 10.9383C122.02 12.3685 120.149 13.371 118.077 13.9725C116.553 14.4136 116.419 14.3468 115.711 12.8096C120.777 10.6576 124.626 7.60992 124.185 1.30078H128.235C128.235 1.70179 128.262 2.07606 128.235 2.45033C128.022 4.94993 129.104 6.91485 130.762 8.65254C132.58 10.5506 134.718 11.914 137.298 12.7294" fill="#9C9C9C"/>
<path d="M12.4825 20.5769C10.1167 22.9695 7.29631 24.5201 4.12844 25.4558C2.49772 25.937 2.45763 25.8969 1.62891 24.3062C2.5512 23.9453 3.51358 23.6512 4.39577 23.2235C7.05571 21.9135 9.2211 20.1358 10.2503 17.2218C10.3172 17.0347 10.6112 16.8208 10.7984 16.8074C11.9479 16.7673 13.1108 16.7673 14.2603 16.8074C14.434 16.8074 14.7014 17.0079 14.7548 17.1683C16.2385 21.0848 19.3529 23.023 23.149 24.1592C23.2292 24.1859 23.2961 24.226 23.3763 24.2661C22.7347 25.8568 22.5475 25.9637 20.9436 25.4825C17.9227 24.5735 15.1826 23.17 12.9103 20.9378C12.79 20.8175 12.6429 20.7105 12.4825 20.5902" fill="#9C9C9C"/>
<path d="M81.0522 0.65625H77.5234V14.7716H81.0522V0.65625Z" fill="#9C9C9C"/>
<path d="M114.017 20.6361C113.963 20.5292 113.923 20.4757 113.923 20.4223C113.825 19.4064 114.284 18.8984 115.3 18.8984C122.879 18.8984 130.458 18.8984 138.036 18.8984C138.411 18.8984 138.785 18.9252 139.199 18.9519V20.6361H114.03H114.017Z" fill="#9C9C9C"/>
<path d="M96.4392 16.702C94.8085 16.6619 93.1912 16.6886 91.5605 16.702C91.0793 16.702 90.7184 16.5683 90.7184 16.0337C90.7184 13.8148 90.7184 11.6092 90.7184 9.25668H95.1962C96.4972 9.25668 97.1477 9.90719 97.1477 11.2082C97.1477 12.7722 97.1343 14.3494 97.1477 15.9134C97.1477 16.448 97.0541 16.7287 96.4259 16.7154M109.084 1.06281C109.031 0.902407 108.843 0.675171 108.723 0.675171C107.667 0.648437 106.625 0.648438 105.542 0.648438C105.542 3.0411 105.528 5.28673 105.555 7.54572C105.555 8.17396 105.355 8.38783 104.74 8.34773C104.125 8.30763 103.497 8.34773 102.869 8.34773C101.425 8.34773 100.703 7.62147 100.703 6.16894V1.31678H97.1076V7.34522H90.6783V1.30341H87.1094V2.17226C87.1094 6.78381 87.1094 11.4087 87.1094 16.0203C87.1094 17.7981 87.8178 18.4932 89.5822 18.4932C92.9639 18.4932 96.3323 18.4932 99.7007 18.4932C100.008 18.4932 100.329 18.4664 100.73 18.4397V10.2458H105.555V25.5107H109.137V24.6686C109.137 16.9961 109.137 9.33688 109.137 1.66432C109.137 1.45045 109.178 1.23658 109.111 1.04944" fill="#9C9C9C"/>
<path d="M65.2498 11.6115C64.1671 11.6115 63.2181 11.665 62.2824 11.5714C62.0017 11.5447 61.5472 11.1036 61.5339 10.8362C61.4804 8.47029 61.5071 6.11773 61.4938 3.7518C61.4938 3.28396 61.721 3.13693 62.1487 3.15029C62.9775 3.16366 63.8062 3.12356 64.6215 3.17703C64.8354 3.19039 65.2097 3.5112 65.2097 3.68497C65.2498 6.27813 65.2364 8.8713 65.2364 11.5981M71.5855 0.664062V5.83703C70.9439 5.83703 70.3825 5.79693 69.8211 5.83703C69.1127 5.90386 68.8855 5.63652 68.9122 4.94145C68.9657 3.76517 68.9122 2.60225 68.9122 1.39924H57.8982C57.8581 1.51954 57.7913 1.59974 57.7913 1.67994C57.7913 4.87461 57.7512 8.06929 57.7913 11.2773C57.818 12.6675 58.62 13.3626 60.0234 13.3893C61.5873 13.416 63.1646 13.3893 64.7285 13.3893H68.8989V12.3467C68.8989 11.01 68.8721 9.68667 68.9256 8.34999C68.9256 8.10939 69.1795 7.69501 69.3533 7.66828C70.0751 7.58808 70.7969 7.64155 71.6123 7.64155V8.73763C71.6123 10.5154 71.5989 12.2932 71.639 14.071C71.639 14.3116 71.9331 14.7527 72.1202 14.7661C73.1093 14.8329 74.1252 14.8062 75.1945 14.8062V0.664062H71.5588H71.5855Z" fill="#9C9C9C"/>
<path d="M77.289 23.9164C77.0351 23.9431 76.7811 23.9832 76.5271 23.9832C73.4795 23.9832 70.4453 23.9832 67.3977 23.9832C66.1814 23.9832 65.9408 23.7426 65.9408 22.5396C65.9408 21.0693 65.9408 19.5989 65.9408 18.1018H77.289V23.9164ZM80.6574 16.2438C74.736 16.2438 68.8146 16.2438 62.8932 16.2305C62.2917 16.2305 62.2383 16.5513 62.2383 17.0191C62.2383 19.0642 62.2383 21.1094 62.2383 23.1411C62.2383 25.2263 62.7997 25.7744 64.8715 25.7878C69.9909 25.7878 75.1103 25.7878 80.2296 25.7878C80.5103 25.7878 80.791 25.7477 81.0717 25.7343V16.3374C80.8712 16.2973 80.7643 16.2438 80.644 16.2438" fill="#9C9C9C"/>
</svg>
