<svg width="142" height="35" viewBox="0 0 142 35" fill="none" xmlns="http://www.w3.org/2000/svg">
<path d="M83.053 12.2737C83.5342 14.3991 85.1648 15.9363 86.7955 16.7115L86.0337 17.6071C84.8842 17.2462 82.9593 16.1635 81.7563 14.4125C80.5667 16.1234 78.682 17.3264 77.4657 17.7007L76.7305 16.8051C78.3879 16.0165 79.9919 14.4526 80.4464 12.2871H77.1984V11.1376H80.5667V9.29297H82.9459V11.1376H86.3679V12.2871H83.0796L83.053 12.2737ZM88.6 21.3499V19.6255H79.6846V18.4626H90.8456V22.4459H81.9167V23.7559C81.9167 24.0232 82.0237 24.1435 82.3178 24.1435H91.0861V25.293H81.1014C80.1791 25.293 79.7113 24.7316 79.7113 23.8895V21.3365H88.6V21.3499ZM90.8456 17.5002H88.5732V9.70734H90.8456V17.5002Z" fill="#9C9C9C"/>
<path d="M99.3929 11.5076C99.3929 14.2478 101.117 15.9722 103.242 17.0549L102.481 17.9638C101.331 17.6029 99.4196 16.6271 98.2033 14.8761C97.0137 16.6271 95.1023 17.7767 93.9127 18.1376L93.1641 17.242C95.1022 16.3331 96.9601 14.3013 96.9601 11.5478V10.1309H99.3929V11.5076ZM106.531 22.268C106.531 24.3799 104.673 25.7834 102.24 25.7834C99.8073 25.7834 97.9492 24.3799 97.9492 22.268C97.9492 20.156 99.8207 18.7658 102.24 18.7658C104.659 18.7658 106.531 20.1828 106.531 22.268ZM100.222 22.268C100.222 23.5111 100.917 24.6072 102.227 24.6072C103.537 24.6072 104.258 23.4977 104.258 22.268C104.258 21.0382 103.563 19.9288 102.227 19.9288C100.89 19.9288 100.222 21.0783 100.222 22.268ZM107.226 9.70312V18.6723H104.967V13.8602H101.826V12.7107H104.967V9.7165H107.226V9.70312Z" fill="#9C9C9C"/>
<path d="M124.987 18.5864H109.789V17.4368H124.987V18.5864ZM122.915 19.9365V25.3099H112.997C112.088 25.3099 111.594 24.7485 111.594 23.9064V19.9365H122.915ZM121.953 12.8119C121.953 15.1912 119.533 16.2472 117.328 16.2472C115.122 16.2472 112.703 15.1779 112.703 12.8119C112.703 10.446 115.109 9.36328 117.328 9.36328C119.546 9.36328 121.953 10.4059 121.953 12.8119ZM113.812 23.7728C113.812 24.0401 113.919 24.1604 114.213 24.1604H120.723V21.086H113.812V23.7728ZM114.908 12.8119C114.908 14.0417 115.857 15.0976 117.328 15.0976C118.798 15.0976 119.747 14.0417 119.747 12.8119C119.747 11.5822 118.771 10.5128 117.328 10.5128C115.884 10.5128 114.908 11.5555 114.908 12.8119Z" fill="#9C9C9C"/>
<path d="M137.971 19.4236V22.137H141.714V23.2999H126.543V22.137H130.339V19.4236H129.47C128.842 19.4236 128.321 18.9557 128.321 18.2874V14.665H137.463V12.2589H128.321V11.1094H139.656V15.8145H130.553V17.7794C130.553 18.1136 130.673 18.2473 130.981 18.2473H139.843V19.4102H137.958L137.971 19.4236ZM132.598 22.137H135.699V19.4236H132.598V22.137Z" fill="#9C9C9C"/>
<path d="M71.5983 25.3156H73.9241V9.7165H71.5983V25.3156ZM67.869 15.3439H64.9552V16.7207H67.869V20.009C67.2942 20.2362 66.7863 20.3564 66.0244 20.3564H62.7095C62.4021 20.3564 62.1482 20.1025 62.1482 19.7951V12.0289H66.4121V10.9062H59.7422V20.3564C59.7422 20.9847 60.2501 21.4793 60.8516 21.4793H66.0244C66.813 21.4793 67.4546 21.3456 67.869 21.0783V25.3022H70.1948V9.70312H67.869V15.3306V15.3439Z" fill="#9C9C9C"/>
<path d="M50.4006 17.9533V16.4161H55.5333V15.3067H45.8693C45.5619 15.3067 45.3079 15.0661 45.3079 14.7453V13.7695H55.3328V10H42.902V11.1095H52.9135V12.6467H42.902V15.3201C42.902 15.9483 43.4099 16.4294 44.0247 16.4294H47.9946V17.9667H41.6055V19.0895H56.8432V17.9667H50.414L50.4006 17.9533ZM50.4675 19.7979H47.7674C47.0456 22.7653 43.5302 24.2491 42.247 24.4362L42.9287 25.4254C44.252 25.265 47.2462 24.1956 49.1308 22.1371C51.0022 24.1956 53.9963 25.265 55.3196 25.4254L55.9879 24.4362C54.6913 24.2491 51.1759 22.7653 50.4675 19.7979Z" fill="#9C9C9C"/>
<path d="M31.1248 10.6069L24.1073 3.58932C20.3112 -0.206858 14.0825 -0.206858 10.2864 3.58932L3.26895 10.6069C-0.52715 14.4031 -0.52715 20.6321 3.26895 24.4282L10.2864 31.4591C14.0825 35.2553 20.3112 35.2553 24.1073 31.4591L31.1248 24.4282C34.9209 20.6321 34.9209 14.4165 31.1248 10.6069ZM13.0666 27.8234C13.0666 27.8234 13.04 27.8234 13.0266 27.8234C12.4652 27.8234 12.0107 27.3823 11.9973 26.8209C11.9973 26.5402 12.0775 26.2862 12.2646 26.0723C12.4517 25.8718 12.7058 25.7515 12.9865 25.7382C13.5612 25.7114 14.0423 26.1525 14.0691 26.7407C14.0958 27.3155 13.6413 27.7967 13.0666 27.8234ZM25.5377 23.4926C24.1074 25.7515 22.2361 27.3422 20.5118 27.7432C20.5118 27.7432 20.485 27.7432 20.4717 27.7432C20.1509 27.7967 19.8435 27.8368 19.5495 27.8368C18.44 27.8368 17.6513 27.409 17.0899 27.0481C16.5419 26.6872 16.0207 26.1927 15.5529 25.5912C12.5855 21.7816 12.385 14.6303 12.3716 13.8283C12.3449 11.9302 12.6121 9.35046 14.0958 7.8801C14.8176 7.1583 15.7266 6.79739 16.7959 6.79739H16.9697C18.039 6.79739 18.9479 7.1583 19.6697 7.8801C21.1534 9.35046 21.4342 11.9302 21.3941 13.8283C21.3673 15.8066 21.0063 19.6429 18.9479 23.0916C18.7741 23.3723 18.4667 23.546 18.1459 23.546C17.9855 23.546 17.8118 23.5059 17.6647 23.4124C17.2236 23.145 17.0766 22.5836 17.344 22.1291C18.7875 19.7231 19.4826 17.0765 19.5361 13.7882C19.5762 11.6094 19.1618 9.97867 18.3598 9.19003C17.9989 8.82912 17.5311 8.64202 16.9697 8.64202H16.8093C16.2345 8.64202 15.78 8.81576 15.4191 9.19003C14.6171 9.97867 14.2027 11.6094 14.2428 13.7882C14.2829 16.475 14.9246 21.7281 17.0366 24.4415C17.3841 24.8826 17.7449 25.2302 18.1325 25.4842C18.5068 25.7248 18.9211 25.9654 19.5761 25.9654C19.7498 25.9654 19.937 25.952 20.1375 25.9119C21.3405 25.6179 22.8643 24.2812 23.9871 22.49C24.1609 22.2227 24.4549 22.0489 24.7757 22.0489C24.9494 22.0489 25.1232 22.1024 25.2702 22.1959C25.4841 22.3296 25.6312 22.5301 25.6847 22.7841C25.7381 23.0247 25.6847 23.2787 25.5644 23.4926H25.5377Z" fill="#9C9C9C"/>
</svg>
