<svg width="147" height="28" viewBox="0 0 147 28" fill="none" xmlns="http://www.w3.org/2000/svg">
<path d="M86.6685 8.23771C83.1798 8.23771 81.0145 10.9244 81.0145 14.1726C81.0145 17.4207 83.1798 20.1877 86.6685 20.1877C90.1572 20.1877 92.2958 17.4475 92.2958 14.1726C92.2958 10.8977 90.2374 8.23771 86.6685 8.23771ZM86.6685 24.4249C80.4664 24.4249 76.1758 19.9872 76.1758 14.1592C76.1758 8.33128 80.4664 3.93359 86.6685 3.93359C92.8706 3.93359 97.1345 8.35802 97.1345 14.1592C97.1345 19.9604 93.0176 24.4249 86.6685 24.4249Z" fill="#9C9C9C"/>
<path d="M66.3592 12.8235H64.969C64.4477 12.8235 64.02 12.3958 64.02 11.8745V8.71989C64.02 8.19859 64.4477 7.77085 64.969 7.77085H66.3324C68.7518 7.77085 69.6072 8.75999 69.6072 10.11C69.6072 11.7675 68.7785 12.8369 66.3592 12.8369M67.0141 4.14844H60.1169C59.5956 4.14844 59.168 4.57618 59.168 5.09748V20.3357C59.168 20.857 59.4754 21.5922 59.8363 21.9664L61.3066 23.4368C61.6808 23.811 62.4027 24.1051 62.924 24.1051H63.0576C63.5789 24.1051 64.0067 23.6774 64.0067 23.1561V17.5955C64.0067 17.0742 64.4343 16.6464 64.9556 16.6464H67.3215C71.1978 16.6464 74.4459 13.8795 74.4459 10.0967C74.4459 6.7416 71.9731 4.14844 67.0007 4.14844" fill="#9C9C9C"/>
<path d="M101.136 4.10156C100.615 4.10156 100.188 4.5293 100.188 5.05061V20.3022C100.188 20.8235 100.495 21.5586 100.856 21.9329L102.313 23.3899C102.687 23.7642 103.422 24.0582 103.943 24.0582H104.091C104.612 24.0582 105.039 23.6305 105.039 23.1092V5.05061C105.039 4.5293 104.612 4.10156 104.091 4.10156H101.136Z" fill="#9C9C9C"/>
<path d="M123.634 4.1296C123.113 4.1296 122.685 4.55734 122.685 5.07864V13.8206C122.685 14.3419 122.365 14.4889 121.964 14.1547C121.964 14.1547 110.789 4.54397 110.401 4.19643C110 3.8489 109.68 4.0093 109.68 4.5306V20.3302C109.68 20.8515 109.974 21.5867 110.348 21.961L111.818 23.4313C112.193 23.8056 112.914 24.0996 113.449 24.0996H113.596C114.131 24.0996 114.545 23.6719 114.545 23.1506V14.3552C114.545 13.8339 114.866 13.6869 115.267 14.0344C115.668 14.382 126.415 23.6184 126.802 23.966C127.19 24.3135 127.524 24.1665 127.524 23.6452V5.10538C127.524 4.58407 127.096 4.15633 126.575 4.15633H123.634V4.1296Z" fill="#9C9C9C"/>
<path d="M130.844 4.12891C130.322 4.12891 129.895 4.55664 129.895 5.07795V6.80227C129.895 7.32358 130.322 7.75132 130.844 7.75132H134.599C135.121 7.75132 135.549 8.17906 135.549 8.70036V20.3161C135.549 20.8374 135.856 21.5726 136.23 21.9469L137.701 23.4172C138.075 23.7915 138.797 24.0856 139.318 24.0856H139.438C139.959 24.0856 140.387 23.6578 140.387 23.1365V8.70036C140.387 8.17906 140.815 7.75132 141.336 7.75132H145.106C145.627 7.75132 146.055 7.32358 146.055 6.80227V5.07795C146.055 4.55664 145.627 4.12891 145.106 4.12891H130.83H130.844Z" fill="#9C9C9C"/>
<path d="M41.5494 20.0951C41.0281 20.0951 40.6004 19.6673 40.6004 19.146V5.09748C40.6004 4.57618 40.1726 4.14844 39.6513 4.14844H36.7107C36.1894 4.14844 35.7617 4.57618 35.7617 5.09748V20.3357C35.7617 20.857 36.0691 21.5922 36.43 21.9664L37.9003 23.4368C38.2746 23.811 38.9964 24.1051 39.5177 24.1051H49.6896C50.2109 24.1051 50.6387 23.6774 50.6387 23.1561V21.0441C50.6387 20.5228 50.2109 20.0951 49.6896 20.0951H41.5494Z" fill="#9C9C9C"/>
<path d="M54.6511 24.1022C54.3704 24.1022 54.1699 24.0353 54.0228 23.9685C53.9827 23.9551 53.5551 23.7546 53.3145 23.661L53.1674 23.5942C53.007 23.514 52.8867 23.3402 52.8867 23.1665V21.0812C52.8867 20.9342 52.9669 20.8139 53.1005 20.7471C53.1005 20.7471 54.1699 20.2391 54.2501 20.199C54.3703 20.1322 54.5175 20.1055 54.6645 20.1055C54.8115 20.1055 54.9586 20.1322 55.0789 20.199C55.1591 20.2391 56.215 20.7471 56.2284 20.7471C56.362 20.8139 56.4422 20.9342 56.4422 21.0812V23.1665C56.4422 23.3402 56.3219 23.514 56.1615 23.5942L56.068 23.6343C55.8541 23.7279 55.3595 23.9551 55.3061 23.9685C55.1457 24.0353 54.9585 24.1022 54.6778 24.1022" fill="#9C9C9C"/>
<path d="M22.8443 21.3695C22.8443 21.7839 22.5235 22.2918 22.1359 22.4656C22.0824 22.4923 16.7225 24.885 16.3081 25.0721C15.0516 25.6202 14.0224 25.8474 12.7927 25.8474C11.563 25.8474 10.5337 25.6202 9.2639 25.0721C8.84953 24.885 3.48957 22.4923 3.4361 22.4656C3.04847 22.2918 2.72764 21.7839 2.72764 21.3695V7.89576C2.72764 7.62843 2.86132 7.45466 3.07518 7.45466C3.14201 7.45466 3.23557 7.48139 3.31577 7.50813L10.4134 10.6761C11.0149 10.9434 11.7635 11.2107 12.7927 11.2107C13.8219 11.2107 14.5704 10.9434 15.1719 10.6761L22.2695 7.50813C22.3497 7.46803 22.4299 7.45466 22.5101 7.45466C22.724 7.45466 22.8577 7.62843 22.8577 7.89576V21.3695H22.8443ZM23.3923 4.90159C23.3923 4.90159 16.1343 1.41285 15.5996 1.14551C14.7575 0.731143 13.7818 0.503906 12.7659 0.503906C11.7501 0.503906 10.8144 0.717776 9.95898 1.14551C9.43769 1.39948 2.21973 4.87486 2.16627 4.90159C1.23061 5.35607 0.722656 6.17144 0.722656 7.21406V21.3695C0.722656 22.5725 1.52471 23.8023 2.62076 24.2969C2.62076 24.2969 8.16781 26.7697 8.47524 26.9168C9.54456 27.3712 10.8946 27.8524 12.7927 27.8524C14.6907 27.8524 16.0407 27.3846 17.1101 26.9168C17.4442 26.7697 22.9646 24.2969 22.9646 24.2969C24.0607 23.8023 24.8626 22.5725 24.8626 21.3695V7.21406C24.8626 6.17144 24.3547 5.35607 23.4057 4.90159" fill="#9C9C9C"/>
<path d="M12.7019 23.2951C10.1087 23.2951 7.66265 22.2926 5.83143 20.4881C5.41707 20.0737 5.4037 19.392 5.83143 18.9642C6.24579 18.5499 6.92751 18.5365 7.35523 18.9642C8.78545 20.3811 10.6969 21.1564 12.7152 21.1564C14.7336 21.1564 16.6449 20.3811 18.0885 18.9642C18.5163 18.5499 19.198 18.5499 19.6123 18.9642C20.0267 19.392 20.0267 20.0603 19.6123 20.4881C17.7677 22.2926 15.335 23.2951 12.7419 23.2951" fill="#9C9C9C"/>
</svg>
