<svg width="267" height="267" viewBox="0 0 267 267" fill="none" xmlns="http://www.w3.org/2000/svg">
<circle cx="133.889" cy="133.904" r="132.99" fill="white"/>
<path d="M105.265 129H99.3014V112.736H105.265C110.221 112.736 113.278 115.785 113.278 120.86C113.278 125.943 110.221 129 105.265 129ZM103.129 125.728H105.114C107.91 125.728 109.443 124.394 109.443 120.86C109.443 117.334 107.91 116.008 105.067 116.008H103.129V125.728ZM115.524 129V116.802H119.312V129H115.524ZM115.46 113.522C115.46 112.514 116.342 111.696 117.422 111.696C118.502 111.696 119.383 112.514 119.383 113.522C119.383 114.531 118.502 115.349 117.422 115.349C116.342 115.349 115.46 114.531 115.46 113.522ZM127.399 133.828C123.905 133.828 121.8 132.24 121.618 129.913H125.31C125.469 130.803 126.311 131.184 127.494 131.184C128.86 131.184 129.805 130.612 129.805 129.032V126.864H129.67C129.21 127.968 128.034 128.833 126.208 128.833C123.516 128.833 121.316 126.991 121.316 122.861C121.316 118.605 123.619 116.643 126.192 116.643C128.138 116.643 129.186 117.787 129.654 118.883H129.766V116.802H133.538V129.056C133.538 132.169 131.036 133.828 127.399 133.828ZM125.199 122.877C125.199 124.863 126.025 126.062 127.502 126.062C128.956 126.062 129.813 124.878 129.813 122.877C129.813 120.868 128.964 119.605 127.502 119.605C126.017 119.605 125.199 120.908 125.199 122.877ZM135.962 129V116.802H139.75V129H135.962ZM135.898 113.522C135.898 112.514 136.779 111.696 137.86 111.696C138.94 111.696 139.821 112.514 139.821 113.522C139.821 114.531 138.94 115.349 137.86 115.349C136.779 115.349 135.898 114.531 135.898 113.522ZM148.981 116.802V119.597H146.773V125.18C146.773 125.95 147.154 126.181 147.789 126.205C148.107 126.213 148.711 126.173 149.147 126.141V129.04C148.774 129.095 148.147 129.175 147.257 129.175C144.573 129.175 142.961 128.071 142.985 125.617V119.597H141.357V116.802H142.985V113.88H146.773V116.802H148.981ZM150.37 125.609C150.37 122.901 152.467 121.94 154.889 121.789C155.778 121.734 157.327 121.678 157.827 121.654L157.819 120.677C157.811 119.82 157.184 119.335 156.159 119.335C155.151 119.335 154.508 119.78 154.357 120.574H150.823C150.997 118.414 152.816 116.643 156.231 116.643C159.249 116.643 161.599 118.081 161.599 120.725V129H158.034V127.301H157.938C157.287 128.531 156.104 129.214 154.388 129.214C152.062 129.214 150.37 128.031 150.37 125.609ZM153.968 125.442C153.968 126.268 154.619 126.705 155.548 126.705C156.834 126.705 157.851 125.871 157.843 124.656L157.835 123.878C157.374 123.894 156.104 123.957 155.532 124.021C154.571 124.116 153.968 124.64 153.968 125.442ZM167.711 112.736V129H163.923V112.736H167.711ZM78.695 139.736H83.436L87.637 149.972H87.8276L92.0207 139.736H96.7696V156H93.0372V145.891H92.9022L88.9315 155.905H86.5252L82.5545 145.843H82.4195V156H78.695V139.736ZM98.6351 152.609C98.6351 149.901 100.732 148.94 103.154 148.789C104.043 148.734 105.592 148.678 106.092 148.654L106.084 147.677C106.076 146.82 105.449 146.335 104.424 146.335C103.416 146.335 102.773 146.78 102.622 147.574H99.0878C99.2625 145.414 101.081 143.643 104.496 143.643C107.514 143.643 109.864 145.081 109.864 147.725V156H106.299V154.301H106.203C105.552 155.531 104.369 156.214 102.653 156.214C100.327 156.214 98.6351 155.031 98.6351 152.609ZM102.233 152.442C102.233 153.268 102.884 153.705 103.813 153.705C105.099 153.705 106.116 152.871 106.108 151.656L106.1 150.878C105.639 150.894 104.369 150.957 103.797 151.021C102.836 151.116 102.233 151.64 102.233 152.442ZM112.188 156V143.802H115.865V146.01H115.992C116.437 144.413 117.517 143.635 118.851 143.635C119.209 143.635 119.614 143.691 119.931 143.762V147.074C119.574 146.947 118.891 146.875 118.43 146.875C117.017 146.875 115.976 147.86 115.976 149.321V156H112.188ZM121.464 156V139.736H125.252V148.217H125.427L128.945 143.802H133.249L128.881 149.115L133.44 156H129.048L126.062 151.323L125.252 152.299V156H121.464ZM139.779 156.23C135.967 156.23 133.632 153.848 133.632 149.949C133.632 146.176 135.999 143.643 139.66 143.643C143.074 143.643 145.536 145.819 145.536 149.861V150.83H137.373V150.91C137.373 152.466 138.318 153.483 139.85 153.483C140.891 153.483 141.661 153.038 141.963 152.323H145.489C145.036 154.698 142.947 156.23 139.779 156.23ZM137.373 148.599H142.002C141.987 147.312 141.049 146.391 139.739 146.391C138.405 146.391 137.428 147.344 137.373 148.599ZM154.292 143.802V146.597H152.085V152.18C152.085 152.95 152.466 153.181 153.101 153.205C153.419 153.213 154.022 153.173 154.459 153.141V156.04C154.086 156.095 153.458 156.175 152.569 156.175C149.885 156.175 148.273 155.071 148.296 152.617V146.597H146.668V143.802H148.296V140.88H152.085V143.802H154.292ZM156.253 156V143.802H160.042V156H156.253ZM156.19 140.522C156.19 139.514 157.071 138.696 158.151 138.696C159.232 138.696 160.113 139.514 160.113 140.522C160.113 141.531 159.232 142.349 158.151 142.349C157.071 142.349 156.19 141.531 156.19 140.522ZM166.263 149.027V156H162.475V143.802H166.08V146.026H166.215C166.755 144.556 168.105 143.643 169.916 143.643C172.473 143.643 174.149 145.462 174.141 148.225V156H170.353V148.956C170.361 147.582 169.614 146.756 168.359 146.756C167.105 146.756 166.263 147.598 166.263 149.027ZM182.189 160.828C178.694 160.828 176.59 159.24 176.407 156.913H180.1C180.259 157.803 181.101 158.184 182.284 158.184C183.65 158.184 184.595 157.612 184.595 156.032V153.864H184.46C183.999 154.968 182.824 155.833 180.997 155.833C178.305 155.833 176.105 153.991 176.105 149.861C176.105 145.605 178.408 143.643 180.981 143.643C182.927 143.643 183.975 144.787 184.444 145.883H184.555V143.802H188.327V156.056C188.327 159.169 185.826 160.828 182.189 160.828ZM179.989 149.877C179.989 151.863 180.815 153.062 182.292 153.062C183.745 153.062 184.603 151.878 184.603 149.877C184.603 147.868 183.753 146.605 182.292 146.605C180.807 146.605 179.989 147.908 179.989 149.877Z" fill="#1C46F5"/>
</svg>
