<svg width="68" height="34" viewBox="0 0 68 34" fill="none" xmlns="http://www.w3.org/2000/svg">
<path d="M2.44551 18.6035L7.4218 27.3572L12.3981 18.6035H13.8824V31.494H12.1887V21.9831L8.03152 29.321H6.80592L2.64874 21.9831V31.494H0.955078V18.6035H2.43935H2.44551Z" fill="#555555"/>
<path d="M24.8448 28.3052H18.6429L17.3558 31.494H15.582L20.8971 18.6035H22.6831L27.9797 31.494H26.1259L24.8387 28.3052H24.8448ZM24.2474 26.8094L21.7531 20.5796L19.2403 26.8094H24.2474Z" fill="#555555"/>
<path d="M35.2626 26.9078C35.0224 26.9263 34.7822 26.9386 34.5358 26.9386H31.3948V31.494H29.7012V18.6035H34.5297C37.7815 18.6035 39.6969 20.2287 39.6969 22.7711C39.6969 24.5871 38.7176 25.9414 36.9439 26.5693L35.2502 26.9078H35.2626ZM38.0155 22.7711C38.0155 21.0351 36.6483 20.1179 34.4065 20.1179H31.3948V25.4304H34.4065C36.6421 25.4304 38.0155 24.5132 38.0155 22.7772V22.7711Z" fill="#555555"/>
<path d="M41.2383 24.3093C41.2383 20.8312 43.7942 18.2949 47.2739 18.2949C50.2486 18.2949 52.2994 20.0186 52.903 22.4317H51.3633C50.8768 20.8065 49.3925 19.6862 47.2985 19.6862C44.6564 19.6862 42.7472 21.613 42.7472 24.3093C42.7472 27.0055 44.6749 28.9323 47.2985 28.9323C49.4541 28.9323 51.0615 27.6704 51.4803 26.0329H53.02C52.515 28.4276 50.3163 30.3236 47.2739 30.3236C43.8003 30.3236 41.2383 27.7812 41.2383 24.3093Z" fill="#555555"/>
<path d="M47.2728 30.4294C43.7192 30.4294 41.1387 27.8562 41.1387 24.3104C41.1387 20.7646 43.7192 18.1914 47.2728 18.1914C50.1551 18.1914 52.3538 19.8043 53.0066 22.4021L53.0374 22.5313H51.2945L51.2699 22.4575C50.7772 20.8138 49.2559 19.7858 47.3036 19.7858C44.7231 19.7858 42.8508 21.688 42.8508 24.3042C42.8508 26.9205 44.7231 28.8227 47.3036 28.8227C49.3175 28.8227 50.9558 27.69 51.3869 25.9971L51.4054 25.9171H53.1483L53.1237 26.0402C52.5755 28.6565 50.2229 30.4171 47.279 30.4171L47.2728 30.4294ZM47.2728 18.3946C43.8362 18.3946 41.3419 20.8815 41.3419 24.3104C41.3419 27.7392 43.8362 30.2262 47.2728 30.2262C50.0751 30.2262 52.3169 28.5888 52.8896 26.1387H51.5593C51.0789 27.8747 49.3791 29.0381 47.2975 29.0381C44.5999 29.0381 42.6414 27.0498 42.6414 24.3104C42.6414 21.571 44.5999 19.5826 47.2975 19.5826C49.3114 19.5826 50.8942 20.6291 51.4361 22.322H52.7664C52.1013 19.8966 50.0073 18.3946 47.2667 18.3946H47.2728Z" fill="#555555"/>
<path d="M67.519 18.6035V31.494H65.8253V25.6644H58.3362V31.494H56.6426V18.6035H58.3362V24.1254H65.8253V18.6035H67.519Z" fill="#555555"/>
<path d="M46.9563 33.7502C46.2234 33.7502 45.4905 33.6825 44.7576 33.5409C38.7097 32.4021 35.1068 26.9664 34.959 26.7386L36.3385 25.8398C36.3693 25.8891 39.7259 30.9246 45.0779 31.928C48.1696 32.5067 51.3598 31.6387 54.5624 29.3487L55.5231 30.6907C52.6716 32.7283 49.8016 33.7564 46.9563 33.7564V33.7502Z" fill="#555555"/>
<path d="M16.6417 13.9302H10.4398L9.15264 17.119H7.37891L12.6939 4.22852H14.48L19.7765 17.119H17.9227L16.6356 13.9302H16.6417ZM16.0443 12.4344L13.55 6.20457L11.0372 12.4344H16.0443Z" fill="#555555"/>
<path d="M26.0799 4.22852C29.4303 4.22852 31.3949 6.01373 31.3949 8.70387C31.3949 11.394 29.4303 13.1792 26.0799 13.1792H23.1976V17.1252H21.5039V4.23467H26.0799V4.22852ZM29.7012 8.70387C29.7012 6.78938 28.2847 5.76134 25.9505 5.76134H23.1976V11.6526H25.9505C28.2847 11.6526 29.7012 10.6245 29.7012 8.71002V8.70387Z" fill="#555555"/>
<path d="M48.4144 17.119H46.7207V4.22852H48.4144V17.119Z" fill="#555555"/>
<path d="M53.6136 15.5923H61.1088V17.119H51.9199V4.22852H53.6136V15.5923Z" fill="#555555"/>
<path d="M41.741 17.119L38.8094 12.5328C38.5692 12.5513 38.329 12.5636 38.0827 12.5636H34.9417V17.119H33.248V4.22852H38.0765C41.3284 4.22852 43.2437 5.85368 43.2437 8.39607C43.2437 10.2121 42.2645 11.5664 40.4908 12.1943L43.7303 17.119H41.7348H41.741ZM41.5624 8.39607C41.5624 6.6601 40.1951 5.74287 37.9534 5.74287H34.9417V11.0554H37.9534C40.189 11.0554 41.5624 10.1382 41.5624 8.40223V8.39607Z" fill="#555555"/>
<path d="M61.2676 0V6.43451" stroke="#555555" stroke-width="0.7"/>
<path d="M58.0508 3.2168L64.4853 3.2168" stroke="#555555" stroke-width="0.7"/>
<path d="M58.9922 0.941406L63.5421 5.49129" stroke="#555555" stroke-width="0.7"/>
<path d="M63.5469 0.941406L58.997 5.49129" stroke="#555555" stroke-width="0.7"/>
</svg>
