<svg width="65" height="65" viewBox="0 0 65 65" fill="none" xmlns="http://www.w3.org/2000/svg">
<path d="M26.1226 52.1719C25.6414 52.1719 25.2939 52.2521 25.08 52.3857C24.9597 52.466 24.9062 52.5595 24.9062 52.6798C24.9062 52.8001 24.9597 52.8937 25.08 52.9739C25.2805 53.1075 25.6547 53.1877 26.1226 53.1877C26.5904 53.1877 26.9647 53.1209 27.1652 52.9739C27.2855 52.8937 27.3389 52.7868 27.3389 52.6798C27.3389 52.5595 27.2855 52.4526 27.1652 52.3857C26.9647 52.2387 26.6038 52.1719 26.1226 52.1719Z" fill="#9C9C9C"/>
<path d="M32.5822 50.7289C32.5822 50.7289 32.5554 50.6487 32.5019 50.6086C32.3949 50.5284 32.1674 50.4883 31.8731 50.4883C31.5788 50.4883 31.3514 50.5284 31.2443 50.6086C31.1908 50.6487 31.1641 50.6888 31.1641 50.7289C31.1641 50.769 31.1908 50.8091 31.2443 50.8492C31.3514 50.9294 31.5654 50.9695 31.8731 50.9695C32.1808 50.9695 32.3815 50.9294 32.5019 50.8492C32.5554 50.8091 32.5822 50.769 32.5822 50.7289Z" fill="#9C9C9C"/>
<path d="M38.2247 49.875C38.0641 49.875 37.9303 49.9285 37.8099 50.0354C37.6092 50.2493 37.5156 50.677 37.5156 51.3855C37.5156 52.0939 37.6092 52.5216 37.8099 52.7355C37.9169 52.8424 38.0507 52.8959 38.2113 52.8959C38.3718 52.8959 38.519 52.8424 38.6126 52.7355C38.8133 52.5216 38.907 52.0939 38.907 51.3855C38.907 50.677 38.8133 50.2493 38.6126 50.0354C38.5056 49.9285 38.3584 49.875 38.2113 49.875H38.2247Z" fill="#9C9C9C"/>
<path d="M20.8071 22.2266H14.0703V41.702H20.8071V22.2266Z" fill="#9C9C9C"/>
<path d="M13.2888 49.9531H12.0312V52.8537H13.2888V49.9531Z" fill="#9C9C9C"/>
<path d="M39.1594 12.5664C37.8227 12.5664 37.1277 13.4219 37.0742 15.0927H41.258C41.1911 13.4085 40.4827 12.5664 39.1594 12.5664Z" fill="#9C9C9C"/>
<path d="M0.148438 0V64.1608H54.2963L64.3078 54.1624V0.0133595H0.148438V0ZM50.3665 20.8924H52.9997V36.7053H50.3665V20.8924ZM39.152 12.2039C40.7694 12.2039 41.6248 13.2866 41.6248 15.3585V15.4521H37.0668C37.0802 17.2432 37.7886 18.1521 39.152 18.1521C40.2213 18.1521 40.9031 17.6175 41.1169 16.615V16.5615H41.5045V16.6417C41.2773 17.8313 40.4218 18.4997 39.1386 18.4997C37.5213 18.4997 36.6792 17.417 36.6792 15.3451C36.6792 13.2733 37.5346 12.1905 39.1386 12.1905L39.152 12.2039ZM13.515 53.0663H11.7773V49.7112H13.515V53.0663ZM14.6779 53.3203H14.4373V49.6444H14.6779V53.3203ZM16.4823 51.6494C16.3219 51.6494 16.2017 51.5291 16.2017 51.3687C16.2017 51.2083 16.3353 51.088 16.4823 51.088C16.6293 51.088 16.763 51.2217 16.763 51.3687C16.763 51.5157 16.6293 51.6494 16.4823 51.6494ZM17.9794 51.7163V51.4757H18.0061C18.4606 51.3286 18.915 50.9009 18.915 50.2994V49.6711H19.1556V50.2994C19.1556 50.8741 19.6102 51.2751 20.0646 51.4088H20.0913V51.6628H20.0512C19.5968 51.5024 19.2225 51.195 19.0487 50.834C18.9017 51.2083 18.5275 51.5425 18.0463 51.7029H18.0061L17.9794 51.7163ZM21.0804 53.3871H20.8398V52.3311H18.3135V52.1039H21.0804V53.3871ZM21.0804 51.7697H20.8398V49.6578H21.0804V51.7697ZM22.8047 51.6628C22.6443 51.6628 22.524 51.5425 22.524 51.3821C22.524 51.2217 22.6443 51.1014 22.8047 51.1014C22.9651 51.1014 23.0854 51.2351 23.0854 51.3821C23.0854 51.5291 22.9651 51.6628 22.8047 51.6628ZM23.4196 42.2659H11.4432V21.6944H23.4196V42.2659ZM23.8339 9.99838H29.4212V10.3593H26.8147V18.3794H26.4404V10.3593H23.8339V9.99838ZM26.6142 50.7271V51.7029H26.3736V49.6711H26.6142V50.4999H27.2959V49.6444H27.5365V51.7564H27.2959V50.7138H26.6142V50.7271ZM24.3285 51.6628V51.4088H24.3552C24.6894 51.2484 25.0771 50.8742 25.0771 50.3127V49.6711H25.331V50.3127C25.331 50.8474 25.7053 51.1816 26.0528 51.3153H26.0796V51.5558H26.026C25.6518 51.4088 25.3444 51.1415 25.2107 50.834C25.0904 51.1549 24.7696 51.4623 24.3954 51.6227L24.3418 51.6494L24.3285 51.6628ZM27.3093 53.1732C27.0553 53.347 26.6676 53.4272 26.1196 53.4272C25.5716 53.4272 25.184 53.347 24.9434 53.1732C24.7696 53.0529 24.676 52.8925 24.676 52.692C24.676 52.4915 24.7696 52.3311 24.9434 52.2108C25.1973 52.0504 25.5983 51.9569 26.1196 51.9569C26.6409 51.9569 27.0553 52.0504 27.3093 52.2108C27.4964 52.3445 27.5766 52.4915 27.5766 52.692C27.5766 52.8925 27.483 53.0529 27.3093 53.1732ZM29.1405 51.6628C28.9801 51.6628 28.8597 51.5425 28.8597 51.3821C28.8597 51.2217 28.9934 51.1014 29.1405 51.1014C29.2875 51.1014 29.4212 51.2351 29.4212 51.3821C29.4212 51.5291 29.3009 51.6628 29.1405 51.6628ZM29.8356 47.5592H27.2023V20.9057H29.8356V47.5592ZM30.7579 9.99838H31.1321V13.6743C31.5331 12.7386 32.3217 12.2173 33.3643 12.2173C34.6876 12.2173 35.4494 13.1262 35.4494 14.7035V18.3794H35.0752V14.7035C35.0752 13.3134 34.4737 12.5782 33.3376 12.5782C32.041 12.5782 31.1722 13.6609 31.1187 15.3317V18.3794H30.7445V10.0118L30.7579 9.99838ZM32.9232 49.8583V50.0721H30.838V49.8583H31.7603V49.5375H32.0009V49.8583H32.9232ZM33.8054 53.3604H31.0786V52.5851H33.5247V52.2509H31.0786V52.0371H33.7653V52.7856H31.3326V53.1331H33.8188V53.347L33.8054 53.3604ZM34.3534 50.8875H33.7653V51.8232H33.5247V51.5158C33.3108 51.6494 33.0167 51.7029 32.6157 51.7029H30.7712V51.489H31.7603V51.1816C31.4663 51.1816 31.239 51.1148 31.1053 51.0212C30.9984 50.9544 30.9449 50.8474 30.9449 50.7405C30.9449 50.6335 30.9984 50.5266 31.1053 50.4598C31.2523 50.3528 31.5197 50.286 31.8806 50.286C32.2415 50.286 32.5088 50.3395 32.6559 50.4598C32.7628 50.5266 32.8163 50.6335 32.8163 50.7405C32.8163 50.8474 32.7628 50.9544 32.6425 51.0212C32.4821 51.1415 32.2014 51.1682 31.9742 51.1816V51.489H32.6157C32.9766 51.489 33.2841 51.4222 33.498 51.3019V49.6578H33.7386V50.6737H34.3267V50.9009L34.3534 50.8875ZM39.6466 21.681H41.8654L47.0516 36.5583H45.314L40.7694 23.4187L36.2247 36.5583H34.4871L39.6733 21.681H39.6466ZM34.9014 38.6702H53.0131V47.5458H50.3799V39.2183H34.9014V38.6702ZM35.7168 51.6494C35.5564 51.6494 35.4361 51.5291 35.4361 51.3687C35.4361 51.2083 35.5564 51.088 35.7168 51.088C35.8772 51.088 35.9975 51.2217 35.9975 51.3687C35.9975 51.5157 35.8772 51.6494 35.7168 51.6494ZM38.8178 52.8925C38.6842 53.0396 38.4837 53.1198 38.2431 53.1198C38.0025 53.1198 37.802 53.0529 37.6683 52.8925C37.4277 52.6386 37.3074 52.144 37.3074 51.3821C37.3074 50.6202 37.4277 50.139 37.6817 49.885C37.8287 49.7246 38.0159 49.6444 38.2565 49.6444C38.4971 49.6444 38.6842 49.7246 38.8312 49.885C39.0852 50.139 39.1921 50.6068 39.1921 51.3821C39.1921 52.1574 39.0718 52.6386 38.8312 52.8925H38.8178ZM40.2347 53.3203H39.9941V49.6444H40.2347V53.3203ZM42.0525 51.6494C41.8921 51.6494 41.7719 51.5291 41.7719 51.3687C41.7719 51.2083 41.9055 51.088 42.0525 51.088C42.1995 51.088 42.3332 51.2217 42.3332 51.3687C42.3332 51.5157 42.1995 51.6494 42.0525 51.6494ZM46.6239 53.3203H46.3833V52.8524C46.156 53.0128 45.8086 53.093 45.3675 53.093H43.6031V52.8792H44.5922V51.7296H43.7769V49.7112H45.6214V49.9385H44.0308V51.5024H45.6615V51.7296H44.8328V52.8792H45.4075C45.8353 52.8792 46.1694 52.7856 46.3833 52.6118V49.6444H46.6239V53.3203ZM48.3749 51.6494C48.2145 51.6494 48.0942 51.5291 48.0942 51.3687C48.0942 51.2083 48.2279 51.088 48.3749 51.088C48.522 51.088 48.6556 51.2217 48.6556 51.3687C48.6556 51.5157 48.5353 51.6494 48.3749 51.6494ZM53.5478 51.4489H52.9329V53.3336H52.6923V52.7722C52.4651 52.9594 52.0774 53.0797 51.6631 53.0797H50.0858V49.7246H51.8102V49.9518H50.3398V52.8524H51.6898C52.1176 52.8524 52.4918 52.7321 52.7057 52.5183V49.6578H52.9463V51.2351H53.5612V51.4489H53.5478Z" fill="#9C9C9C"/>
</svg>
