<svg width="130" height="23" viewBox="0 0 130 23" fill="none" xmlns="http://www.w3.org/2000/svg">
<path d="M110.819 0.757812C109.496 0.757812 108.801 1.51972 108.801 2.0544V21.3561C108.801 21.9175 109.509 22.6794 110.819 22.6794C112.129 22.6794 112.851 21.9175 112.851 21.3561V2.0544C112.851 1.53309 112.196 0.757812 110.819 0.757812Z" fill="#9C9C9C"/>
<path d="M128.097 18.1849C126.626 19.5617 124.501 19.7755 123.084 19.6953C120.892 19.575 119.021 18.1448 119.074 16.1665C120.304 17.0086 121.935 17.316 123.138 17.316C126.787 17.316 129.821 15.5115 129.821 12.3436C129.821 10.0177 127.696 7.37109 123.138 7.37109C117.444 7.37109 114.891 11.4881 114.891 15.1372C114.891 18.7864 117.377 22.9034 123.165 22.9034C126.266 22.9034 128.498 21.6202 128.819 19.8825C128.966 19.1339 128.498 18.4255 128.11 18.1982L128.097 18.1849ZM123.124 10.8198C124.528 10.8198 125.758 11.3143 125.758 12.4371C125.758 13.4664 124.595 14.2283 123.111 14.2283C121.547 14.2283 120.05 13.3595 119.596 12.9184C120.291 11.4346 121.761 10.8198 123.124 10.8198Z" fill="#9C9C9C"/>
<path d="M9.24495 7.37109C7.387 7.37109 6.26419 7.73202 4.79387 8.89493V8.69444C4.79387 8.13303 4.08542 7.37109 2.76213 7.37109C1.43884 7.37109 0.730469 8.13303 0.730469 8.69444V21.3929C0.730469 21.941 1.43884 22.7028 2.76213 22.7028C4.08542 22.7028 4.79387 21.941 4.79387 21.3929V15.9927C4.79387 12.5441 6.13052 10.8198 8.54986 10.8198C10.2207 10.8198 10.7687 12.2233 10.7687 13.6134V21.3795C10.7687 21.9009 11.4103 22.6895 12.787 22.6895C14.1638 22.6895 14.8322 21.9009 14.8322 21.3795V13.6802C14.8322 9.25582 12.5464 7.37109 9.25825 7.37109H9.24495Z" fill="#9C9C9C"/>
<path d="M40.6962 7.37232H37.8759V4.45836C37.8759 3.91032 37.1808 3.14844 35.8575 3.14844C34.5343 3.14844 33.8125 3.91032 33.8125 4.45836V15.3791C33.8125 17.2103 33.8125 21.4877 38.2234 22.5838C38.6244 22.6506 38.9719 22.6774 39.266 22.6774C40.1883 22.6774 40.7096 22.3833 41.124 21.608C41.5517 20.8328 41.418 20.0708 41.3378 19.7901C41.1507 19.8035 40.9636 19.8168 40.7898 19.8168C39.4531 19.8168 38.6378 19.3891 38.2368 18.4935C37.8893 17.6915 37.8893 16.6088 37.8893 15.3523V10.5269H40.3353C41.672 10.5269 42.5676 9.39074 42.5676 8.32139C42.5676 7.69315 42.2735 7.35898 40.7096 7.35898L40.6962 7.37232Z" fill="#9C9C9C"/>
<path d="M87.7534 7.37109C85.5479 7.37109 81.832 8.81473 81.832 14.5357V21.3528C81.832 21.9142 82.5404 22.6761 83.8637 22.6761C85.187 22.6761 85.8954 21.9009 85.8954 21.3528V15.2442C85.8954 11.6752 86.6707 10.1781 90.3866 10.1781C90.4668 9.9108 90.6138 9.18901 90.1727 8.40037C89.6514 7.43795 88.7292 7.37109 87.7534 7.37109Z" fill="#9C9C9C"/>
<path d="M31.782 12.3436C31.782 10.0311 29.6567 7.37109 25.0987 7.37109C19.4045 7.37109 16.8516 11.4881 16.8516 15.1372C16.8516 18.7864 19.3377 22.9034 25.1255 22.9034C28.2265 22.9034 30.4587 21.6202 30.7795 19.8825C30.9265 19.1339 30.4453 18.4255 30.071 18.1982C28.6141 19.575 26.4755 19.7889 25.0453 19.7087C22.8665 19.5884 20.9818 18.1582 21.0486 16.1799C22.2783 17.022 23.9091 17.3294 25.0987 17.3294C28.7478 17.3294 31.782 15.5249 31.782 12.3569V12.3436ZM21.5699 12.9184C22.265 11.4346 23.7219 10.8198 25.0987 10.8198C26.4754 10.8198 27.7319 11.3143 27.7319 12.4371C27.7319 13.4664 26.569 14.2283 25.0853 14.2283C23.5214 14.2283 22.0378 13.3595 21.5833 12.9184H21.5699Z" fill="#9C9C9C"/>
<path d="M56.5981 7.37109C55.0744 7.37109 53.8713 7.81223 52.9758 8.53404C52.0802 7.79887 50.8639 7.37109 49.3401 7.37109C45.651 7.37109 43.793 9.87073 43.793 13.2124V21.4597C43.793 21.981 44.4613 22.7028 45.7178 22.7028C46.9742 22.7028 47.6425 21.981 47.6425 21.4597V13.159C47.6425 11.7688 48.2307 10.8331 49.3401 10.8331C50.4495 10.8331 51.0376 11.7688 51.0376 13.159V21.4597C51.0376 21.981 51.7059 22.7028 52.9624 22.7028C54.2189 22.7028 54.8872 21.981 54.8872 21.4597V13.159C54.8872 11.7688 55.4753 10.8331 56.5848 10.8331C57.6942 10.8331 58.2823 11.7688 58.2823 13.159V21.4597C58.2823 21.981 58.9507 22.7028 60.2071 22.7028C61.4636 22.7028 62.1453 21.981 62.1453 21.4597V13.2124C62.1453 9.87073 60.2739 7.38446 56.5981 7.37109Z" fill="#9C9C9C"/>
<path d="M78.8216 16.5809V14.5758C78.8216 9.61674 75.2394 7.37109 71.9245 7.37109C67.3397 7.37109 64.1719 11.0069 64.1719 15.3645C64.1719 20.0161 67.1526 22.89 70.8819 22.89C73.6087 22.89 75.1592 21.8073 76.1617 20.8181C76.4424 21.3127 76.683 21.6602 76.9236 21.9543C77.3112 22.4221 77.7389 22.636 78.2335 22.636C78.5008 22.636 78.7949 22.5692 79.1023 22.4355C79.7038 22.1682 80.0914 21.7939 80.2251 21.3127C80.3588 20.8182 80.1984 20.3503 79.9979 20.083C79.3028 19.0537 78.8216 17.6101 78.8216 16.5809ZM74.7582 14.9768C74.6245 17.4764 73.2344 19.6285 70.8551 19.4012C69.0106 19.2275 67.9145 17.2492 68.2487 14.8164C68.5962 12.3703 70.12 10.6594 72.0715 10.8198C73.983 10.9267 74.8918 12.5307 74.7582 14.9768Z" fill="#9C9C9C"/>
<path d="M99.858 7.38056C98.4546 7.38056 97.2248 7.70137 96.1555 8.26278V2.07393C96.1555 1.55262 95.5139 0.777344 94.1238 0.777344C92.7337 0.777344 92.1055 1.52589 92.1055 2.07393V15.3739C92.1055 20.0256 95.0862 22.8995 98.8154 22.8995C104.095 22.8995 106.755 18.836 106.755 14.5853C106.755 9.96038 103.975 7.38056 99.858 7.38056ZM102.692 14.9863C102.558 17.4859 101.168 19.6379 98.7887 19.4107C96.9442 19.2369 95.8481 17.2587 96.1822 14.8259C96.5164 12.3798 98.0535 10.6688 100.005 10.8292C101.916 10.9362 102.825 12.5402 102.692 14.9863Z" fill="#9C9C9C"/>
</svg>
