<svg width="99" height="19" viewBox="0 0 99 19" fill="none" xmlns="http://www.w3.org/2000/svg">
<path d="M12.2787 6.18083C12.1718 9.34877 9.80593 9.26856 9.80593 9.26856H6.78509V5.00454C6.78509 3.56092 9.16433 3.72134 9.16433 3.72134C12.6931 3.72134 12.2787 6.19419 12.2787 6.19419M16.262 4.38968C15.9278 3.8149 15.46 3.28022 14.8585 2.81238C14.3238 2.35791 13.6822 2.06384 12.9471 1.91681C12.2119 1.76977 11.4634 1.67621 10.7015 1.64947C10.5411 1.63611 10.3807 1.62274 10.2337 1.60938C10.0733 1.60938 9.92623 1.60938 9.76583 1.60938H1.49194C1.31817 1.60938 1.18451 1.64948 1.09094 1.71631C0.997375 1.79651 0.943908 1.89008 0.943908 2.02374C0.943908 2.15741 1.01074 2.26433 1.13104 2.34453C1.2647 2.4381 1.25134 2.50494 1.4251 2.55841C1.7058 2.63861 1.79937 2.73219 2.03996 2.83912C2.28056 2.94606 2.50779 3.10645 2.69492 3.33369C2.84196 3.52082 2.94889 3.72133 2.97562 3.94857C3.01572 4.18917 3.02909 4.4966 3.02909 4.85751V14.8292C3.02909 15.1767 2.98899 15.5109 2.92216 15.8183C2.85532 16.1257 2.73502 16.353 2.58799 16.5134C2.34739 16.7674 2.28056 16.9411 2.03996 17.008C1.81273 17.0748 1.71917 17.1684 1.43847 17.2619C1.22461 17.3288 1.06421 17.409 0.957275 17.5025C0.850342 17.5961 0.796875 17.7164 0.796875 17.8501C0.796875 17.9837 0.850343 18.0773 0.984008 18.1575C1.10431 18.2377 1.25134 18.2778 1.4251 18.2778H8.57621C8.76334 18.2778 8.92373 18.2377 9.04403 18.1441C9.16433 18.0506 9.23117 17.9436 9.23117 17.81C9.23117 17.6362 9.16433 17.5025 9.03067 17.4223C8.897 17.3421 8.72324 17.2619 8.52274 17.1817C8.24204 17.0882 7.97471 16.9812 7.72074 16.8877C7.46678 16.7941 7.23955 16.6337 6.99895 16.4198C6.83855 16.2461 6.74499 16.0188 6.70489 15.7515C6.66479 15.4841 6.63806 15.1633 6.63806 14.7891V11.4607L9.4183 11.5142C10.7817 11.5142 12.3589 11.3805 14.11 10.7389C15.8743 10.0973 16.7565 8.64032 16.7565 6.71549C16.7565 5.95359 16.5961 4.95108 16.262 4.36294" fill="#9C9C9C"/>
<path d="M60.5755 13.9526C60.1611 15.0219 59.6131 15.7838 58.9047 16.225C58.2096 16.6661 57.421 16.8799 56.5388 16.8666C55.5898 16.8532 54.7744 16.5992 54.0927 16.1047C53.411 15.6235 52.8496 14.7947 52.4353 13.6318C52.0075 12.4689 51.8204 10.9985 51.8471 9.24747C51.8739 8.01772 52.0476 6.90828 52.3952 5.8924C52.7427 4.88989 53.264 4.12798 53.9858 3.62004C54.7076 3.1121 55.563 2.87149 56.5789 2.88486C57.4611 2.89823 58.1829 3.072 58.7042 3.40617C59.2388 3.74034 59.6933 4.22153 60.0809 4.83641C60.4685 5.46465 60.7626 6.21319 60.9497 7.09541C61.1502 7.97762 61.2304 8.94003 61.2171 9.99601C61.1903 11.5466 60.9631 12.8565 60.5621 13.9259M62.8612 3.21903C61.1502 1.41451 59.0784 0.492188 56.6457 0.492188C54.213 0.492188 52.1679 1.40114 50.457 3.21903C48.7461 5.02355 47.8906 7.20235 47.8906 9.74205C47.8906 12.2818 48.7461 14.4605 50.4436 16.2651C52.1412 18.0696 54.213 18.9785 56.6457 18.9785C59.0784 18.9785 61.1502 18.0696 62.8612 16.2651C64.5721 14.4605 65.4275 12.2818 65.4275 9.74205C65.4275 7.20235 64.5721 5.03692 62.8612 3.21903Z" fill="#9C9C9C"/>
<path d="M73.3656 16.2644C73.3656 16.2644 70.866 16.2644 70.8259 13.8583V5.12978C70.8259 5.12978 71.0398 3.37873 73.3656 3.48567C73.3656 3.48567 77.7899 3.41883 77.8033 9.95521C77.8033 9.95521 77.6562 15.997 73.3656 16.251M81.2919 6.68034C80.7172 4.63521 79.1666 3.40546 78.6186 2.93762C76.9077 1.48064 73.4324 1.6143 72.871 1.60094L71.5343 1.57422H65.7867C65.6263 1.57422 65.4927 1.6143 65.3857 1.68114C65.2922 1.76134 65.2387 1.85492 65.2387 1.98859C65.2387 2.12226 65.2788 2.28265 65.4392 2.33612C66.0942 2.60345 66.8694 3.33863 67.0298 3.56586C67.1769 3.73963 67.2838 3.94013 67.3239 4.16737C67.3774 4.38124 67.4041 4.67531 67.4041 5.04958V14.6603C67.4041 14.8876 67.364 15.1282 67.3239 15.3821C67.1635 16.4916 66.415 16.9594 65.8536 17.2C65.6397 17.2936 65.4659 17.3604 65.3456 17.4674C65.2253 17.5743 65.1719 17.6946 65.1719 17.8283C65.1719 17.9619 65.2253 18.0555 65.3456 18.1491C65.4659 18.2293 65.5996 18.2694 65.7734 18.2694H72.0957C73.0047 18.2694 74.4349 18.3229 75.2235 18.1758C76.0121 18.0154 76.774 17.8283 77.4691 17.4807C78.3245 17.0664 79.2067 16.2911 79.835 15.5025C80.8776 14.1791 81.1048 13.6311 81.3855 12.3612C81.5726 11.5058 81.6662 10.6236 81.6662 9.88839C81.6662 8.79231 81.5593 7.62938 81.2919 6.6937" fill="#9C9C9C"/>
<path d="M88.5626 6.00567L86.1566 11.6465H90.6745L88.5626 6.00567ZM98.4672 17.4477C98.534 17.5947 98.5741 17.7016 98.5741 17.7818C98.5741 17.9155 98.5207 18.0224 98.4137 18.1294C98.2934 18.2229 98.1731 18.2764 98.0395 18.2764H91.0889C90.9686 18.2764 90.8483 18.2363 90.7146 18.1428C90.5943 18.0492 90.5275 17.9556 90.5275 17.8353C90.5275 17.7016 90.5542 17.6081 90.621 17.5412C90.6745 17.4744 90.7948 17.4209 90.9686 17.3675C91.2894 17.2873 91.8909 16.9932 92.1315 16.8729C92.372 16.7392 92.6795 16.2447 92.2919 15.4026L91.4364 13.4777H85.3947L84.8868 14.801C84.5794 15.5496 84.6462 15.8971 84.6462 16.0976C84.6462 16.4184 84.9002 16.766 85.1675 16.913C85.4214 17.0467 85.8091 17.167 86.1833 17.2605C86.3571 17.3006 86.5977 17.3675 86.6779 17.4744C86.7581 17.5813 86.7447 17.7016 86.7447 17.8353C86.7447 17.9422 86.6244 18.0492 86.5309 18.1294C86.4239 18.2096 86.3036 18.2497 86.17 18.2497H80.6095C80.4491 18.2497 80.3288 18.223 80.2352 18.1561C80.1417 18.0893 80.1016 17.9824 80.1016 17.8487C80.1016 17.7551 80.1283 17.6615 80.1951 17.5546C80.262 17.461 80.3689 17.4209 80.5159 17.3808C81.3714 17.1803 81.8659 16.4585 82.1466 16.1377C82.4273 15.8036 82.6947 15.3624 82.9353 14.8144L87.7071 4.04075C87.7873 3.81351 87.774 3.59963 87.6269 3.38576C87.4933 3.1719 87.2928 2.98476 87.0655 2.82436C86.8383 2.67732 86.5843 2.54367 86.2769 2.39663C85.9828 2.26296 85.8224 2.11591 85.8224 1.94214C85.8224 1.76838 85.8759 1.66146 85.9828 1.58125C86.0764 1.50105 86.1967 1.46094 86.3437 1.46094H90.7681L95.7271 14.6674C95.9142 15.1753 96.088 15.5496 96.2483 15.8169C96.4087 16.0843 96.6493 16.3382 96.9835 16.5655C97.1172 16.659 97.1573 16.7793 97.438 16.913C97.7187 17.0467 97.9325 17.1269 98.1063 17.167C98.2934 17.1937 98.4271 17.2873 98.4939 17.4343" fill="#9C9C9C"/>
<path d="M21.7618 6.00567L19.3692 11.6465H23.8871L21.7618 6.00567ZM31.6664 17.4477C31.7332 17.5947 31.7733 17.7016 31.7733 17.7818C31.7733 17.9155 31.7199 18.0224 31.6129 18.1294C31.506 18.2229 31.3723 18.2764 31.2387 18.2764H24.2881C24.1678 18.2764 24.0475 18.2363 23.9138 18.1428C23.7802 18.0492 23.7267 17.9556 23.7267 17.8353C23.7267 17.7016 23.7534 17.6081 23.8203 17.5412C23.8871 17.4744 23.994 17.4209 24.1678 17.3675C24.4886 17.2873 25.1034 16.9932 25.3307 16.8729C25.5713 16.7392 25.8787 16.2447 25.4911 15.4026L24.649 13.4777H18.6073L18.0994 14.801C17.7919 15.5496 17.8588 15.8971 17.8588 16.0976C17.8588 16.4184 18.1127 16.766 18.3801 16.913C18.634 17.0467 19.0217 17.167 19.3959 17.2605C19.5697 17.3006 19.8103 17.3675 19.8905 17.4744C19.9707 17.5813 19.944 17.7016 19.944 17.8353C19.944 17.9422 19.8237 18.0492 19.7301 18.1294C19.6232 18.2096 19.5029 18.2497 19.3692 18.2497H13.8087C13.6483 18.2497 13.528 18.223 13.4344 18.1561C13.3409 18.0893 13.3008 17.9824 13.3008 17.8487C13.3008 17.7551 13.3275 17.6615 13.381 17.5546C13.4478 17.461 13.5547 17.4209 13.7018 17.3808C14.5572 17.1803 15.0518 16.4585 15.3325 16.1377C15.6132 15.8036 15.8805 15.3624 16.1211 14.8144L20.893 4.04075C20.9732 3.81351 20.9464 3.59963 20.8128 3.38576C20.6791 3.1719 20.492 2.98476 20.2514 2.82436C20.0242 2.67732 19.7702 2.54367 19.4628 2.39663C19.1687 2.26296 19.0217 2.11591 19.0217 1.94214C19.0217 1.76838 19.0751 1.66146 19.1821 1.58125C19.289 1.50105 19.4093 1.46094 19.543 1.46094H23.9673L28.9263 14.6674C29.1134 15.1753 29.3005 15.5496 29.4476 15.8169C29.608 16.0843 29.8619 16.3382 30.1827 16.5655C30.3164 16.659 30.3565 16.7793 30.6372 16.913C30.9045 17.0467 31.1318 17.1269 31.3055 17.167C31.4926 17.1937 31.6129 17.2873 31.6931 17.4343" fill="#9C9C9C"/>
<path d="M34.038 2.08172C35.9895 0.865335 38.1148 0.397506 40.3738 0.838612C41.3228 1.02575 42.2451 1.27972 43.1139 1.72083C43.9961 2.16193 44.103 1.84111 44.6511 1.1193C45.1055 0.504429 45.6001 0.477704 45.7739 1.25298C45.9877 2.25549 45.9476 3.32484 45.9476 4.34071C45.9476 4.74172 46.1481 5.94474 45.7739 6.25218C45.4932 6.47942 44.9986 6.06505 44.8382 5.87791C43.7421 4.66153 42.8867 3.56545 41.1357 3.39168C39.4648 3.21791 38.048 3.19118 36.8183 4.43429C35.7222 5.53037 35.1742 6.81358 35.0539 8.3775C34.9202 10.182 34.9737 12.3341 35.8158 13.9782C36.6311 15.5689 38.5292 16.5714 40.3069 16.2238C42.058 15.8763 42.7664 14.3124 42.4456 12.6816C42.2985 11.9331 41.951 10.8504 41.149 10.5563C40.7614 10.4093 39.7455 10.436 39.9861 9.70081C40.2134 9.00573 41.4698 9.21962 41.9911 9.21962H45.2392C45.6536 9.21962 47.0169 9.00574 47.0169 9.71419C47.0169 10.1954 46.4823 10.1553 46.2951 10.5028C46.0679 10.9306 46.1214 11.5454 46.108 11.9999C46.0813 13.2029 46.108 14.3926 46.1214 15.5956C46.1214 16.3174 46.2149 17.1729 45.961 17.8679C45.707 18.5363 44.9451 18.2155 44.4372 18.0551C42.9802 17.5739 41.7238 18.2021 40.2802 18.4294C35.6153 19.1645 31.4182 16.2907 30.4023 11.7192C29.9746 9.78102 30.2286 7.90966 30.8835 6.03831C31.4717 4.35409 32.6212 3.16443 34.0113 2.08172" fill="#9C9C9C"/>
</svg>
