<svg width="73" height="73" viewBox="0 0 73 73" fill="none" xmlns="http://www.w3.org/2000/svg">
<path d="M32.074 45.3984C31.7265 45.3984 31.4325 45.5054 31.2053 45.7326C30.978 45.9465 30.8711 46.2406 30.8711 46.5747C30.8711 46.9089 30.9913 47.1896 31.2186 47.4035C31.4458 47.6307 31.7265 47.7376 32.074 47.7376C32.4216 47.7376 32.7023 47.6307 32.9295 47.4035C33.1567 47.1762 33.2771 46.8955 33.2771 46.5613C33.2771 46.2272 33.1567 45.9598 32.9295 45.7326C32.7023 45.5054 32.4216 45.3984 32.0874 45.3984H32.074Z" fill="#9C9C9C"/>
<path d="M21.5383 27.44C21.1507 26.8652 20.6428 26.4108 20.0547 26.0766C19.4532 25.7424 18.7581 25.582 17.9561 25.582C17.1541 25.582 16.4724 25.7558 15.8575 26.09C15.2427 26.4241 14.708 26.8786 14.2803 27.4534C13.8526 28.0282 13.5318 28.7099 13.3046 29.4718C13.0773 30.2471 12.957 31.0624 12.957 31.9179C12.957 33.9898 13.4248 35.5804 14.3337 36.6765C15.2427 37.7592 16.4591 38.3072 17.9561 38.3072C18.7982 38.3072 19.52 38.1201 20.1081 37.7459C20.7096 37.3716 21.2042 36.877 21.5918 36.2755C21.9795 35.674 22.2601 34.9789 22.4472 34.2304C22.6344 33.4685 22.728 32.6932 22.728 31.9179C22.728 31.0624 22.6344 30.247 22.4206 29.4851C22.2201 28.7232 21.9126 28.0549 21.525 27.4668L21.5383 27.44Z" fill="#9C9C9C"/>
<path d="M59.0785 27.5069C58.6508 26.9321 58.1161 26.4509 57.4745 26.1033C56.8463 25.7558 56.1245 25.582 55.3092 25.582C54.4938 25.582 53.7452 25.7558 53.117 26.1033C52.4888 26.4642 51.9541 26.9321 51.5264 27.5069C51.0987 28.0816 50.7645 28.7633 50.5373 29.5386C50.3234 30.3005 50.2031 31.1025 50.2031 31.9313C50.2031 32.76 50.3101 33.5888 50.5373 34.3507C50.7512 35.1126 51.0853 35.7943 51.5264 36.3824C51.9541 36.9706 52.5022 37.4384 53.117 37.7726C53.7452 38.1067 54.4804 38.2939 55.3092 38.2939C56.1379 38.2939 56.8463 38.1201 57.4745 37.7726C58.1028 37.425 58.6374 36.9572 59.0785 36.3824C59.5063 35.7943 59.8404 35.1126 60.0543 34.3507C60.2681 33.5888 60.3884 32.7734 60.3884 31.9313C60.3884 31.0892 60.2815 30.3005 60.0543 29.5386C59.8404 28.7767 59.5063 28.095 59.0785 27.5069Z" fill="#9C9C9C"/>
<path d="M36.6717 0C16.7422 0 0.582031 16.1605 0.582031 36.0904C0.582031 56.0204 16.7422 72.1943 36.6717 72.1943C56.6012 72.1943 72.7614 56.0338 72.7614 36.0904C72.7614 16.1471 56.6012 0 36.6717 0ZM18.6269 48.1073H18.1857V46.7706H16.4481V48.1073H16.007V45.0329H16.4481V46.3695H18.1857V45.0329H18.6269V48.1073ZM20.8591 48.1073H19.068V45.0329H20.8056V45.4205H19.5091V46.3562H20.7655V46.7572H19.5091V47.7196H20.8591V48.1073ZM22.9309 48.1073H21.113V45.0329H21.5541V47.7062H22.9309V48.1073ZM23.2784 34.6736C23.0378 35.5558 22.6769 36.3311 22.1957 36.9994C21.7279 37.6678 21.1264 38.2158 20.418 38.6034C19.7096 38.9911 18.8808 39.1916 17.9585 39.1916C16.5417 39.1916 15.3654 38.8039 14.4565 38.0287C13.8015 37.4806 13.307 36.7989 12.9728 35.9969V43.5492H12.0639V26.453H12.9728V27.9501C13.0931 27.6961 13.2268 27.4421 13.3738 27.2015C13.6946 26.6936 14.0956 26.2257 14.5367 25.8514C14.9912 25.4638 15.5124 25.1698 16.0872 24.9559C16.6619 24.742 17.3036 24.6484 17.9719 24.6484C18.8541 24.6484 19.6561 24.8356 20.3511 25.1965C21.0595 25.5574 21.6611 26.0787 22.1423 26.7337C22.6368 27.3753 23.0111 28.1506 23.2651 29.0461C23.5191 29.9284 23.6527 30.8908 23.6527 31.92C23.6527 32.8824 23.5324 33.8047 23.2784 34.6869V34.6736ZM25.8715 36.2508C25.6175 35.5825 25.4973 34.8073 25.4973 33.9384V24.8757H26.4463V33.8582C26.4463 34.6736 26.5666 35.3686 26.7804 35.9301C26.9943 36.4915 27.3018 36.9593 27.676 37.3202C28.0503 37.6811 28.4914 37.9485 28.9859 38.1222C29.4805 38.2826 30.0152 38.3762 30.5766 38.3762C31.1379 38.3762 31.6726 38.296 32.1672 38.1222C32.6617 37.9485 33.1028 37.6811 33.4771 37.3202C33.8647 36.9593 34.1588 36.4915 34.386 35.9301C34.6132 35.3686 34.7201 34.6602 34.7201 33.8582V24.8757H35.6692V33.9384C35.6692 34.8073 35.5489 35.5825 35.295 36.2508C35.041 36.9326 34.6934 37.5073 34.239 37.9618C33.7845 38.4296 33.2365 38.7772 32.6083 38.9911C32.0068 39.2183 31.3251 39.3252 30.5766 39.3252C29.8548 39.3252 29.1864 39.2183 28.585 38.9911C27.9567 38.7638 27.422 38.4163 26.9542 37.9618C26.4997 37.494 26.1388 36.9326 25.8849 36.2508H25.8715ZM29.2933 48.1073H28.8389V46.4765L27.7027 45.0329H28.2374L29.0661 46.0889L29.8948 45.0329H30.4295L29.2933 46.4765V48.1073ZM33.2365 47.6929C32.9157 47.987 32.5147 48.134 32.0335 48.134C31.5523 48.134 31.1781 47.987 30.8707 47.6929C30.5632 47.3988 30.4028 47.0245 30.4028 46.57C30.4028 46.1156 30.5632 45.728 30.8707 45.4339C31.1781 45.1265 31.579 44.9794 32.0468 44.9794C32.5147 44.9794 32.9157 45.1265 33.2365 45.4339C33.5573 45.7413 33.7044 46.1156 33.7044 46.57C33.7044 47.0245 33.5439 47.3988 33.2231 47.6929H33.2365ZM36.6183 46.7706C36.6183 47.0112 36.6048 47.1849 36.5647 47.3052C36.5246 47.4255 36.4846 47.5191 36.4311 47.5993C36.3776 47.6795 36.3242 47.7464 36.244 47.8132C36.0034 48.0271 35.6826 48.134 35.295 48.134C34.9074 48.134 34.5731 48.027 34.3325 47.8265C34.2657 47.7597 34.1989 47.6929 34.1454 47.6127C34.0919 47.5325 34.0519 47.4389 34.0251 47.3186C33.9984 47.1983 33.9716 47.0245 33.9716 46.7706V45.0329H34.4127V46.7839C34.4127 47.078 34.4529 47.2785 34.5063 47.3854C34.5732 47.5057 34.6801 47.5859 34.8137 47.6528C34.9474 47.7196 35.1079 47.7597 35.295 47.7597C35.5489 47.7597 35.7628 47.6929 35.9366 47.5592C36.0168 47.4924 36.0836 47.3988 36.1237 47.3052C36.1638 47.2117 36.1771 47.0379 36.1771 46.7973V45.0462H36.6183V46.7973V46.7706ZM41.7243 22.336C42.2322 22.336 42.6332 22.7637 42.6332 23.285C42.6332 23.8063 42.2322 24.2341 41.7243 24.2341C41.2164 24.2341 40.8153 23.8063 40.8153 23.285C40.8153 22.7637 41.2297 22.336 41.7243 22.336ZM42.1787 24.9425V38.8975H41.2698V24.9425H42.1787ZM38.0217 19.676H38.9306V38.8975H38.0217V19.676ZM38.8638 48.0939L38.7301 47.8934C38.7301 47.8934 38.7302 47.8667 38.7034 47.8533L38.6232 47.733L38.4895 47.5057L38.3425 47.2651C38.2489 47.1315 38.1687 47.0379 38.0885 46.9577C38.0083 46.8775 37.9416 46.824 37.8881 46.7973C37.8213 46.7706 37.7276 46.7438 37.5806 46.7438H37.4604V48.0805H37.0192V45.0061H37.7945C38.102 45.0061 38.3559 45.0863 38.543 45.2334C38.7302 45.3938 38.8237 45.5943 38.8237 45.8616C38.8237 46.0354 38.7836 46.1958 38.6901 46.3294C38.5965 46.4631 38.4762 46.5567 38.3025 46.6235C38.396 46.6904 38.4895 46.7839 38.5965 46.8909C38.69 46.9978 38.8237 47.1983 38.9975 47.479C39.1044 47.6528 39.1846 47.7864 39.2514 47.8666L39.4118 48.0805H38.8906L38.8638 48.0939ZM42.553 48.0939L40.9758 46.57V48.0939H40.5346V45.0195H40.9758V46.423L42.2723 45.0195H42.8203L41.4836 46.4765L43.1411 48.0939H42.5396H42.553ZM43.7159 48.0939H43.2748V45.0195H43.7159V48.0939ZM46.4828 45.4071H45.4134V48.0939H44.9723V45.4071H43.9163V45.0195H46.4828V45.4071ZM47.1511 38.8975C46.5229 38.8975 45.9748 38.697 45.5203 38.3093C45.0659 37.9083 44.8386 37.1865 44.8386 36.1706V20.6919H45.7475V24.9559H49.6105V25.8915H45.7475V36.0637C45.7475 36.5449 45.8011 36.9192 45.8946 37.1732C45.9882 37.4271 46.1085 37.6009 46.2422 37.7212C46.3758 37.8415 46.5228 37.9083 46.6832 37.9217L47.258 37.9618C47.258 37.9618 48.6882 37.9618 48.715 37.9618L49.4367 37.9084L49.7041 37.8816V38.8173L48.7016 38.8841C48.5278 38.9108 47.3917 38.9109 47.1243 38.9109L47.1511 38.8975ZM52.2571 48.0939H51.816V46.7572H50.0784V48.0939H49.6373V45.0195H50.0784V46.3562H51.816V45.0195H52.2571V48.0939ZM54.4893 48.0939H52.6982V45.0195H54.4492V45.4071H53.1527V46.3428H54.4091V46.7438H53.1527V47.7062H54.5027V48.0939H54.4893ZM57.5904 48.0939H57.2161L55.1576 45.728V48.0939H54.7433V45.0195H55.1041L57.176 47.4122V45.0195H57.5904V48.0939ZM60.932 34.6468C60.678 35.5157 60.2903 36.3043 59.7824 36.9727C59.2745 37.641 58.6463 38.1757 57.8978 38.59C57.1492 38.991 56.2804 39.1916 55.2913 39.1916C54.3022 39.1916 53.4601 38.991 52.7115 38.59C51.963 38.189 51.3348 37.6544 50.8269 36.9727C50.319 36.3043 49.9313 35.5291 49.6773 34.6468C49.4233 33.778 49.2897 32.8557 49.2897 31.92C49.2897 30.9843 49.4233 30.062 49.6773 29.1932C49.9313 28.3243 50.319 27.5491 50.8269 26.8673C51.3348 26.199 51.963 25.651 52.7115 25.25C53.4601 24.8356 54.3289 24.6351 55.318 24.6351C56.3072 24.6351 57.1492 24.8356 57.8978 25.25C58.6463 25.651 59.2745 26.2124 59.7824 26.8673C60.2903 27.5357 60.678 28.3243 60.932 29.1932C61.186 30.062 61.3196 30.971 61.3196 31.92C61.3196 32.869 61.186 33.7914 60.932 34.6468Z" fill="#9C9C9C"/>
<path d="M38.2536 45.6123C38.2001 45.5321 38.1332 45.4786 38.0396 45.4519C37.9459 45.4252 37.7987 45.3984 37.5713 45.3984H37.4375V46.3742H37.6114C37.8389 46.3742 37.986 46.3609 38.0663 46.3208C38.1465 46.2807 38.2134 46.2272 38.2536 46.147C38.3071 46.0668 38.3205 45.9866 38.3205 45.8797C38.3205 45.7727 38.2937 45.6925 38.2402 45.6123H38.2536Z" fill="#9C9C9C"/>
</svg>
