<svg width="221" height="54" viewBox="0 0 221 54" fill="none" xmlns="http://www.w3.org/2000/svg">
<rect width="221" height="54" rx="27" fill="#171717"/>
<circle cx="26" cy="27" r="3" fill="#D2FF52"/>
<path d="M47.5904 34L44.0048 27.844H41.6288V34H39.6632V18.9448H44.5232C45.6608 18.9448 46.6184 19.1392 47.396 19.528C48.188 19.9168 48.7784 20.4424 49.1672 21.1048C49.556 21.7672 49.7504 22.5232 49.7504 23.3728C49.7504 24.4096 49.448 25.324 48.8432 26.116C48.2528 26.908 47.36 27.4336 46.1648 27.6928L49.9448 34H47.5904ZM41.6288 26.2672H44.5232C45.5888 26.2672 46.388 26.008 46.9208 25.4896C47.4536 24.9568 47.72 24.2512 47.72 23.3728C47.72 22.48 47.4536 21.7888 46.9208 21.2992C46.4024 20.8096 45.6032 20.5648 44.5232 20.5648H41.6288V26.2672ZM63.6046 27.628C63.6046 28.0024 63.583 28.3984 63.5398 28.816H54.079C54.151 29.9824 54.547 30.8968 55.267 31.5592C56.0014 32.2072 56.887 32.5312 57.9238 32.5312C58.7734 32.5312 59.479 32.3368 60.0406 31.948C60.6166 31.5448 61.0198 31.012 61.2502 30.3496H63.367C63.0502 31.4872 62.4166 32.416 61.4662 33.136C60.5158 33.8416 59.335 34.1944 57.9238 34.1944C56.8006 34.1944 55.7926 33.9424 54.8998 33.4384C54.0214 32.9344 53.3302 32.2216 52.8262 31.3C52.3222 30.364 52.0702 29.284 52.0702 28.06C52.0702 26.836 52.315 25.7632 52.8046 24.8416C53.2942 23.92 53.9782 23.2144 54.8566 22.7248C55.7494 22.2208 56.7718 21.9688 57.9238 21.9688C59.047 21.9688 60.0406 22.2136 60.9046 22.7032C61.7686 23.1928 62.431 23.8696 62.8918 24.7336C63.367 25.5832 63.6046 26.548 63.6046 27.628ZM61.5742 27.2176C61.5742 26.4688 61.4086 25.828 61.0774 25.2952C60.7462 24.748 60.2926 24.3376 59.7166 24.064C59.155 23.776 58.5286 23.632 57.8374 23.632C56.8438 23.632 55.9942 23.9488 55.2886 24.5824C54.5974 25.216 54.2014 26.0944 54.1006 27.2176H61.5742ZM65.4647 28.0384C65.4647 26.8288 65.7095 25.7704 66.1991 24.8632C66.6887 23.9416 67.3583 23.2288 68.2079 22.7248C69.0719 22.2208 70.0295 21.9688 71.0807 21.9688C72.1175 21.9688 73.0175 22.192 73.7807 22.6384C74.5439 23.0848 75.1127 23.6464 75.4871 24.3232V22.1632H77.4743V34H75.4871V31.7968C75.0983 32.488 74.5151 33.064 73.7375 33.5248C72.9743 33.9712 72.0815 34.1944 71.0591 34.1944C70.0079 34.1944 69.0575 33.9352 68.2079 33.4168C67.3583 32.8984 66.6887 32.1712 66.1991 31.2352C65.7095 30.2992 65.4647 29.2336 65.4647 28.0384ZM75.4871 28.06C75.4871 27.1672 75.3071 26.3896 74.9471 25.7272C74.5871 25.0648 74.0975 24.5608 73.4783 24.2152C72.8735 23.8552 72.2039 23.6752 71.4695 23.6752C70.7351 23.6752 70.0655 23.848 69.4607 24.1936C68.8559 24.5392 68.3735 25.0432 68.0135 25.7056C67.6535 26.368 67.4735 27.1456 67.4735 28.0384C67.4735 28.9456 67.6535 29.7376 68.0135 30.4144C68.3735 31.0768 68.8559 31.588 69.4607 31.948C70.0655 32.2936 70.7351 32.4664 71.4695 32.4664C72.2039 32.4664 72.8735 32.2936 73.4783 31.948C74.0975 31.588 74.5871 31.0768 74.9471 30.4144C75.3071 29.7376 75.4871 28.9528 75.4871 28.06ZM80.0616 28.0384C80.0616 26.8288 80.3064 25.7704 80.796 24.8632C81.2856 23.9416 81.9552 23.2288 82.8048 22.7248C83.6688 22.2208 84.6336 21.9688 85.6992 21.9688C86.6208 21.9688 87.4776 22.1848 88.2696 22.6168C89.0616 23.0344 89.6664 23.5888 90.084 24.28V18.016H92.0712V34H90.084V31.7752C89.6952 32.4808 89.1192 33.064 88.356 33.5248C87.5928 33.9712 86.7 34.1944 85.6776 34.1944C84.6264 34.1944 83.6688 33.9352 82.8048 33.4168C81.9552 32.8984 81.2856 32.1712 80.796 31.2352C80.3064 30.2992 80.0616 29.2336 80.0616 28.0384ZM90.084 28.06C90.084 27.1672 89.904 26.3896 89.544 25.7272C89.184 25.0648 88.6944 24.5608 88.0752 24.2152C87.4704 23.8552 86.8008 23.6752 86.0664 23.6752C85.332 23.6752 84.6624 23.848 84.0576 24.1936C83.4528 24.5392 82.9704 25.0432 82.6104 25.7056C82.2504 26.368 82.0704 27.1456 82.0704 28.0384C82.0704 28.9456 82.2504 29.7376 82.6104 30.4144C82.9704 31.0768 83.4528 31.588 84.0576 31.948C84.6624 32.2936 85.332 32.4664 86.0664 32.4664C86.8008 32.4664 87.4704 32.2936 88.0752 31.948C88.6944 31.588 89.184 31.0768 89.544 30.4144C89.904 29.7376 90.084 28.9528 90.084 28.06ZM115.386 21.9472C116.307 21.9472 117.128 22.1416 117.848 22.5304C118.568 22.9048 119.137 23.4736 119.555 24.2368C119.972 25 120.181 25.9288 120.181 27.0232V34H118.237V27.304C118.237 26.1232 117.942 25.2232 117.351 24.604C116.775 23.9704 115.991 23.6536 114.997 23.6536C113.975 23.6536 113.161 23.9848 112.556 24.6472C111.951 25.2952 111.649 26.2384 111.649 27.4768V34H109.705V27.304C109.705 26.1232 109.41 25.2232 108.819 24.604C108.243 23.9704 107.459 23.6536 106.465 23.6536C105.443 23.6536 104.629 23.9848 104.024 24.6472C103.419 25.2952 103.117 26.2384 103.117 27.4768V34H101.151V22.1632H103.117V23.8696C103.506 23.2504 104.024 22.7752 104.672 22.444C105.335 22.1128 106.062 21.9472 106.854 21.9472C107.847 21.9472 108.726 22.1704 109.489 22.6168C110.252 23.0632 110.821 23.7184 111.195 24.5824C111.527 23.7472 112.074 23.0992 112.837 22.6384C113.6 22.1776 114.45 21.9472 115.386 21.9472ZM128.568 34.1944C127.459 34.1944 126.451 33.9424 125.544 33.4384C124.651 32.9344 123.945 32.2216 123.427 31.3C122.923 30.364 122.671 29.284 122.671 28.06C122.671 26.8504 122.93 25.7848 123.449 24.8632C123.981 23.9272 124.701 23.2144 125.609 22.7248C126.516 22.2208 127.531 21.9688 128.654 21.9688C129.777 21.9688 130.793 22.2208 131.7 22.7248C132.607 23.2144 133.32 23.92 133.838 24.8416C134.371 25.7632 134.637 26.836 134.637 28.06C134.637 29.284 134.364 30.364 133.817 31.3C133.284 32.2216 132.557 32.9344 131.635 33.4384C130.713 33.9424 129.691 34.1944 128.568 34.1944ZM128.568 32.4664C129.273 32.4664 129.936 32.3008 130.555 31.9696C131.174 31.6384 131.671 31.1416 132.045 30.4792C132.434 29.8168 132.629 29.0104 132.629 28.06C132.629 27.1096 132.441 26.3032 132.067 25.6408C131.693 24.9784 131.203 24.4888 130.598 24.172C129.993 23.8408 129.338 23.6752 128.633 23.6752C127.913 23.6752 127.25 23.8408 126.645 24.172C126.055 24.4888 125.58 24.9784 125.22 25.6408C124.86 26.3032 124.68 27.1096 124.68 28.06C124.68 29.0248 124.853 29.8384 125.198 30.5008C125.558 31.1632 126.033 31.66 126.624 31.9912C127.214 32.308 127.862 32.4664 128.568 32.4664ZM139.187 24.0856C139.533 23.4088 140.023 22.8832 140.656 22.5088C141.304 22.1344 142.089 21.9472 143.011 21.9472V23.9776H142.492C140.289 23.9776 139.187 25.1728 139.187 27.5632V34H137.222V22.1632H139.187V24.0856ZM156.08 27.628C156.08 28.0024 156.058 28.3984 156.015 28.816H146.554C146.626 29.9824 147.022 30.8968 147.742 31.5592C148.476 32.2072 149.362 32.5312 150.399 32.5312C151.248 32.5312 151.954 32.3368 152.516 31.948C153.092 31.5448 153.495 31.012 153.725 30.3496H155.842C155.525 31.4872 154.892 32.416 153.941 33.136C152.991 33.8416 151.81 34.1944 150.399 34.1944C149.276 34.1944 148.268 33.9424 147.375 33.4384C146.496 32.9344 145.805 32.2216 145.301 31.3C144.797 30.364 144.545 29.284 144.545 28.06C144.545 26.836 144.79 25.7632 145.28 24.8416C145.769 23.92 146.453 23.2144 147.332 22.7248C148.224 22.2208 149.247 21.9688 150.399 21.9688C151.522 21.9688 152.516 22.2136 153.38 22.7032C154.244 23.1928 154.906 23.8696 155.367 24.7336C155.842 25.5832 156.08 26.548 156.08 27.628ZM154.049 27.2176C154.049 26.4688 153.884 25.828 153.552 25.2952C153.221 24.748 152.768 24.3376 152.192 24.064C151.63 23.776 151.004 23.632 150.312 23.632C149.319 23.632 148.469 23.9488 147.764 24.5824C147.072 25.216 146.676 26.0944 146.576 27.2176H154.049Z" fill="white"/>
<path d="M201.602 27C201.602 34.622 195.423 40.8008 187.801 40.8008C180.179 40.8008 174 34.622 174 27C174 19.378 180.179 13.1992 187.801 13.1992C195.423 13.1992 201.602 19.378 201.602 27Z" fill="#D2FF52"/>
<mask id="mask0_762_17932" style="mask-type:alpha" maskUnits="userSpaceOnUse" x="180" y="19" width="17" height="17">
<rect x="180.271" y="19.4688" width="16.4606" height="16.4606" fill="#D9D9D9"/>
</mask>
<g mask="url(#mask0_762_17932)">
<path d="M184.589 31.571L183.873 30.8548L190.622 24.0991H184.486V23.0703H192.374V30.9577H191.345V24.8218L184.589 31.571Z" fill="black"/>
</g>
</svg>
