<svg width="197" height="21" viewBox="0 0 197 21" fill="none" xmlns="http://www.w3.org/2000/svg">
<path d="M120.635 8.63676H122.092L122.265 4.35938H116.438V5.60248H120.755L120.635 8.63676Z" fill="#9C9C9C"/>
<path d="M123.27 4V11.0176H121.238V12.1939H123.27V14.1187H124.821V4H123.27Z" fill="#9C9C9C"/>
<path d="M118.518 11.043H117.008V16.0823H124.827V14.799H118.518V11.043Z" fill="#9C9C9C"/>
<path d="M119.205 13.227H120.622V10.3798H122.921V9.13672H116.117V10.3798H119.205V13.227Z" fill="#9C9C9C"/>
<path d="M115.027 9.13672H105.965V10.3397H115.027V9.13672Z" fill="#9C9C9C"/>
<path d="M91.8594 4V10.3492H93.4232V7.79617H94.7332V6.49959H93.4232V4H91.8594Z" fill="#9C9C9C"/>
<path d="M86.0625 10.8672H93.4141V16.0669H86.0625V10.8672ZM91.9037 12.137H87.5595V14.797H91.9037V12.137Z" fill="#9C9C9C"/>
<path d="M103.99 4V10.3492H102.453V7.79617H100.461V6.49959H102.426V4H103.99Z" fill="#9C9C9C"/>
<path d="M100.143 16.4048C97.8976 16.4048 96.0664 15.0949 96.0664 13.4641C96.0664 11.8334 97.8842 10.5234 100.143 10.5234C102.402 10.5234 104.207 11.8467 104.207 13.4641C104.207 15.0815 102.389 16.4048 100.143 16.4048ZM102.669 13.4641C102.669 12.5552 101.533 11.82 100.143 11.82C98.7531 11.82 97.6169 12.5552 97.6169 13.4641C97.6169 14.3731 98.7531 15.1083 100.143 15.1083C101.533 15.1083 102.669 14.3731 102.669 13.4641Z" fill="#9C9C9C"/>
<path d="M88.164 4.23438C88.164 4.23438 87.9635 7.66965 90.7437 9.0999L89.9417 10.2094C89.9417 10.2094 87.8966 8.8593 87.4422 7.38895C86.9743 8.87267 84.9426 10.2094 84.9426 10.2094L84.1406 9.0999C86.9342 7.68302 86.7204 4.23438 86.7204 4.23438H88.164Z" fill="#9C9C9C"/>
<path d="M97.827 7.36942C97.3725 8.85313 95.5012 10.0695 95.5012 10.0695L94.6992 8.96005C97.3191 7.6501 97.1052 4.21484 97.1052 4.21484H98.5487C98.5487 4.21484 98.3482 7.6501 100.968 8.96005L100.166 10.0695C100.166 10.0695 98.2948 8.83977 97.8403 7.36942" fill="#9C9C9C"/>
<path d="M110.514 16.398C108.295 16.398 106.504 15.1282 106.504 13.5643C106.504 12.0003 108.308 10.7305 110.514 10.7305C112.719 10.7305 114.524 12.0003 114.524 13.5643C114.524 15.1282 112.733 16.398 110.514 16.398ZM113.013 13.5643C113.013 12.6954 111.891 11.987 110.514 11.987C109.137 11.987 108.014 12.6954 108.014 13.5643C108.014 14.4331 109.137 15.1549 110.514 15.1549C111.891 15.1549 113.013 14.4465 113.013 13.5643Z" fill="#9C9C9C"/>
<path d="M106.454 4.39453V5.67776H109.555C109.555 5.67776 109.194 7.01443 106.414 7.44217L106.695 8.67193C106.695 8.67193 109.903 8.11051 110.504 6.62679C111.106 8.11051 114.3 8.67193 114.3 8.67193L114.581 7.44217C111.787 7.01443 111.44 5.67776 111.44 5.67776H114.541V4.39453H106.454Z" fill="#9C9C9C"/>
<path d="M196.448 5.19342C195.646 0.568493 181.745 -0.875129 165.411 1.97201C158.554 3.16165 152.366 4.92607 147.527 6.91773C148.262 6.9311 148.823 7.10486 149.158 7.43903C149.412 7.70637 149.545 8.06728 149.545 8.50838V8.96285H147.941V8.56186C147.941 8.22769 147.741 8.01382 147.38 8.01382C147.072 8.01382 146.885 8.14749 146.832 8.41483C146.818 8.49503 146.805 8.61532 146.832 8.73562C147.006 9.44406 149.385 9.87181 149.639 11.1684C149.679 11.3288 149.719 11.6897 149.639 12.1976C149.492 13.2403 148.569 13.6412 147.407 13.6412C145.776 13.6412 145.121 12.866 145.121 11.81V11.3154H146.845V11.9437C146.845 12.2912 147.099 12.4917 147.447 12.4917C147.794 12.4917 147.968 12.358 148.035 12.0773C148.062 11.957 148.075 11.7699 148.021 11.6229C147.701 10.8208 145.482 10.4599 145.214 9.16337C145.148 8.8693 145.148 8.62869 145.201 8.32125C145.228 8.14748 145.281 8.00044 145.348 7.88014C140.002 10.3797 136.86 13.1333 137.275 15.5126C138.09 20.1375 151.978 21.5812 168.312 18.734C175.49 17.4775 181.946 15.6062 186.851 13.5209C186.784 13.5209 186.718 13.5209 186.637 13.5209C185.515 13.5209 184.512 13.1066 184.419 11.957C184.392 11.7432 184.392 11.663 184.392 11.5427V8.90939C184.392 8.80246 184.405 8.60196 184.419 8.49503C184.552 7.38558 185.421 6.93111 186.637 6.93111C187.573 6.93111 188.723 7.19844 188.843 8.49503C188.856 8.65543 188.856 8.82919 188.856 8.88265V9.13663H187.239V8.77572C187.239 8.77572 187.239 8.62868 187.212 8.54848C187.185 8.41482 187.079 8.10738 186.611 8.10738C186.143 8.10738 186.036 8.41482 186.009 8.54848C186.009 8.61532 185.982 8.72225 185.982 8.84256V11.7031C185.982 11.7966 185.982 11.8768 185.996 11.9437C185.996 11.9838 186.089 12.3714 186.611 12.3714C187.132 12.3714 187.212 11.9838 187.226 11.9437C187.239 11.8635 187.239 11.7699 187.239 11.7031V10.8209H186.597V9.87181H188.843V11.5694C188.843 11.6897 188.843 11.7699 188.816 11.9838C188.789 12.2778 188.696 12.5318 188.549 12.759C193.762 10.2862 196.796 7.57271 196.382 5.23352M154.023 13.4274L153.208 7.86678H153.181L152.339 13.4274H150.615L151.777 7.14498H154.598L155.747 13.4274H154.023ZM162.337 13.4274L162.297 7.97372H162.27L161.254 13.4274H159.637L158.621 7.97372H158.594L158.554 13.4274H156.95L157.084 7.14498H159.677L160.426 11.8234H160.466L161.214 7.14498H163.794L163.928 13.4274H162.337ZM169.903 12.211C169.729 13.4274 168.539 13.6412 167.697 13.6412C166.294 13.6412 165.425 13.0398 165.425 11.8234V11.3288H167.122V11.9437C167.122 12.2778 167.363 12.4783 167.724 12.4783C168.045 12.4783 168.245 12.3447 168.312 12.0773C168.339 11.957 168.352 11.7699 168.312 11.6362C167.991 10.8609 165.799 10.4733 165.532 9.20347C165.465 8.9094 165.465 8.66879 165.518 8.36135C165.705 7.2118 166.815 6.97121 167.697 6.97121C168.499 6.97121 169.074 7.14498 169.421 7.49251C169.675 7.74648 169.809 8.10738 169.809 8.54848V9.00297H168.232V8.60196C168.232 8.25442 168.018 8.06728 167.67 8.06728C167.363 8.06728 167.176 8.20095 167.122 8.46829C167.122 8.52175 167.096 8.65542 167.122 8.77572C167.296 9.47079 169.649 9.89854 169.916 11.1818C169.943 11.3422 169.996 11.7031 169.916 12.1976M175.797 11.6362C175.797 11.7565 175.797 11.9838 175.784 12.0506C175.69 13.0799 174.942 13.6145 173.578 13.6145C172.215 13.6145 171.48 13.0799 171.373 12.0506C171.373 11.9838 171.359 11.7565 171.359 11.6362V7.1316H172.977V11.7699C172.977 11.8768 172.977 11.957 172.99 11.9971C173.004 12.1041 173.11 12.4382 173.565 12.4382C174.019 12.4382 174.126 12.1041 174.153 11.9971C174.153 11.9437 174.153 11.8635 174.153 11.7699V7.1316H175.77V11.6362H175.797ZM182.788 13.3606H180.529L179.018 8.38809H178.992L179.072 13.3606H177.495V7.1316H179.847L181.251 11.9169H181.277L181.197 7.1316H182.788V13.3606Z" fill="#9C9C9C"/>
<path d="M59.0344 7.76191H57.8715V6.14453H56.9492V10.6625H57.4572C57.6844 10.6625 57.8715 10.4754 57.8715 10.2481V8.56392H59.0344V7.74855V7.76191Z" fill="#9C9C9C"/>
<path d="M57.4607 14.2216C57.6879 14.2216 57.8751 14.0345 57.8751 13.8072V11.0938H56.9528V11.9626H54.0121V11.0938H53.0898V13.8072C53.0898 14.0345 53.277 14.2216 53.5042 14.2216H57.4473H57.4607ZM54.0255 13.4731V12.7111H56.9662V13.4731H54.0255Z" fill="#9C9C9C"/>
<path d="M53.1215 9.59104V7.25184H55.8884V6.47656H52.6136C52.3863 6.47656 52.1992 6.66369 52.1992 6.89093V9.71133C52.1992 10.0722 52.4933 10.3663 52.8542 10.3663H55.6745C55.9018 10.3663 56.0889 10.1792 56.0889 9.95193V9.59104H53.1215Z" fill="#9C9C9C"/>
<path d="M22.2734 6.16406H23.1965V13.3019C23.1965 13.703 22.8755 14.0238 22.4741 14.0238H22.2734V6.16406Z" fill="#9C9C9C"/>
<path d="M20.7426 6.15789V9.03175H20.0609C20.0208 8.16291 19.7668 6.65246 18.2296 6.65246C16.4118 6.65246 16.3984 8.77779 16.3984 9.43276C16.3984 10.0877 16.4252 12.2131 18.2296 12.2131C19.7668 12.2131 20.0074 10.7026 20.0609 9.83377H20.7426V14.0042H21.2505C21.4777 14.0042 21.6648 13.8171 21.6648 13.5898V6.14453H20.7426V6.15789ZM18.243 11.4244C17.7351 11.4244 17.2806 11.1036 17.2806 9.44612C17.2806 7.78863 17.7351 7.46783 18.243 7.46783C18.7509 7.46783 19.2054 7.802 19.2054 9.44612C19.2054 11.0902 18.7509 11.4244 18.243 11.4244Z" fill="#9C9C9C"/>
<path d="M6.21094 6.16406H7.13407V11.4841C7.13407 11.8851 6.81299 12.2059 6.41163 12.2059H6.21094V6.17742V6.16406Z" fill="#9C9C9C"/>
<path d="M2.94053 9.27085C3.60886 10.2734 4.79847 10.9283 4.81184 10.9283L5.38661 10.3135C3.48856 9.11045 3.40837 8.45548 3.40837 7.70693V6.50391H2.48608V7.70693C2.48608 8.46884 2.40586 9.11045 0.507812 10.3135L1.08258 10.9283C1.08258 10.9283 2.28557 10.26 2.95389 9.27085H2.94053Z" fill="#9C9C9C"/>
<path d="M3.18009 13.4803V11.6758H2.25781V13.614C2.25781 13.9749 2.55186 14.2689 2.91276 14.2689H6.86927C7.0965 14.2689 7.28363 14.0818 7.28363 13.8546V13.4937H3.18009V13.4803Z" fill="#9C9C9C"/>
<path d="M14.1826 6.15625V11.4629C13.2871 11.6768 12.4049 11.8238 11.5628 11.904V10.8614H12.9529C13.1801 10.8614 13.3673 10.6742 13.3673 10.447V10.0861H9.89195V9.20389H13.2202V7.1855C13.2202 6.95827 13.0331 6.77111 12.8059 6.77111H8.98303V7.54639H12.3113V8.42861H8.98303V10.2064C8.98303 10.5673 9.27708 10.8614 9.63798 10.8614H10.6538V11.9842C9.90532 12.0243 9.19689 12.0376 8.58203 12.0376V12.8129C10.0791 12.8129 12.1242 12.7862 14.1826 12.2783V14.0293H14.6905C14.9178 14.0293 15.1049 13.8422 15.1049 13.6149V6.16961H14.1826V6.15625Z" fill="#9C9C9C"/>
<path d="M62.3834 7.2005V6.14453H61.4612V7.2005H59.5898V7.97578H63.8404C64.0676 7.97578 64.2548 7.78865 64.2548 7.56141V7.2005H62.3834Z" fill="#9C9C9C"/>
<path d="M61.9069 8.37109C60.6905 8.37109 59.9688 9.06618 59.9688 10.3227C59.9688 11.5791 60.7039 12.2742 61.9069 12.2742C63.1099 12.2742 63.845 11.5791 63.845 10.3227C63.845 9.06618 63.1099 8.37109 61.9069 8.37109ZM62.9628 10.3227C62.9628 10.6167 62.9361 11.539 61.9069 11.539C60.8777 11.539 60.8509 10.6167 60.8509 10.3227C60.8509 10.0286 60.8777 9.10627 61.9069 9.10627C62.9361 9.10627 62.9628 10.0286 62.9628 10.3227Z" fill="#9C9C9C"/>
<path d="M66.9791 8.76442H65.7895V6.14453H64.8672V14.0042H65.3751C65.6024 14.0042 65.7895 13.8171 65.7895 13.5898V9.5798H66.9791V8.76442Z" fill="#9C9C9C"/>
<path d="M33.526 8.76442H32.3364V6.14453H31.4141V14.0042H31.922C32.1492 14.0042 32.3364 13.8171 32.3364 13.5898V9.5798H33.526V8.76442Z" fill="#9C9C9C"/>
<path d="M29.8151 6.74219H26.7408V7.51747H29.2938V8.70711C29.2938 9.97696 28.1042 10.926 26.5938 11.6746L27.1551 12.2761C29.5879 11.1666 30.2161 9.65616 30.2161 8.70711V7.1432C30.2161 6.92933 30.0423 6.75555 29.8285 6.75555L29.8151 6.74219Z" fill="#9C9C9C"/>
<path d="M39.625 6.15625H40.5481V13.3075C40.5481 13.7085 40.227 14.0293 39.8257 14.0293H39.625V6.16961V6.15625Z" fill="#9C9C9C"/>
<path d="M36.8029 9.05685V7.9875H38.193C38.4202 7.9875 38.6074 7.80037 38.6074 7.57313V7.21222H36.8029V6.15625H35.8806V7.21222H34.0761V7.9875H35.8806V9.05685C35.8806 9.81876 35.8004 10.4604 33.9023 11.6634L34.4771 12.2783C34.4771 12.2783 35.6801 11.6099 36.3484 10.6208C37.0168 11.6233 38.2064 12.2783 38.2197 12.2783L38.7945 11.6634C36.8965 10.4604 36.8163 9.80539 36.8163 9.05685H36.8029Z" fill="#9C9C9C"/>
<path d="M45.5161 12.2939V11.238H47.4275C47.6548 11.238 47.8419 11.0508 47.8419 10.8236V10.4627H43.3775V9.39335H47.6548V7.18783C47.6548 6.96059 47.4676 6.77344 47.2404 6.77344H42.4552V7.54872H46.7325V8.61807H42.4552V10.583C42.4552 10.9439 42.7493 11.238 43.1102 11.238H44.6072V12.2939H41.5195V13.0692H48.3766C48.6038 13.0692 48.7909 12.8821 48.7909 12.6549V12.2939H45.5161Z" fill="#9C9C9C"/>
<path d="M67.7852 11.18C67.7852 11.5409 68.0792 11.8349 68.4401 11.8349H71.6481C71.8753 11.8349 72.0624 11.6478 72.0624 11.4206V10.9795H68.7075V7.51747H71.5144V6.74219H68.2129C67.9856 6.74219 67.7985 6.92932 67.7985 7.15656V11.1666L67.7852 11.18Z" fill="#9C9C9C"/>
<path d="M74.8228 8.76442H73.6332V6.14453H72.7109V14.0042H73.2189C73.4461 14.0042 73.6332 13.8171 73.6332 13.5898V9.5798H74.8228V8.76442Z" fill="#9C9C9C"/>
</svg>
