<svg width="157" height="38" viewBox="0 0 157 38" fill="none" xmlns="http://www.w3.org/2000/svg">
<path d="M7.42851 1.49534C5.24977 1.49534 3.05765 1.44183 0.878906 1.375C0.959106 1.6557 0.999205 1.90971 0.999205 2.16368C0.999205 2.44438 0.959106 2.72507 0.878906 2.97904C2.29576 2.80527 4.55471 2.6983 6.30572 2.6983C6.35919 4.44936 6.38592 6.20048 6.38592 7.95154V12.3224C6.38592 14.5012 6.27899 16.7068 6.18542 18.899C6.61315 18.8188 7.02752 18.7653 7.42851 18.7653C7.82951 18.7653 8.24387 18.8188 8.6716 18.899C8.57804 16.7068 8.4711 14.5012 8.4711 12.3224V7.95154C8.4711 6.20048 8.49784 4.44936 8.5513 2.6983C10.3023 2.6983 12.5613 2.80527 13.9781 2.97904C13.8979 2.72507 13.8445 2.44441 13.8445 2.19044C13.8445 1.90974 13.8979 1.6557 13.9781 1.375C11.7994 1.4552 9.60726 1.49534 7.42851 1.49534Z" fill="#9C9C9C"/>
<path d="M33.3932 3.79396V3.75391H33.3531C32.9388 3.83411 32.6046 3.87416 32.2838 3.87416C31.963 3.87416 31.6288 3.83412 31.2278 3.76729H31.1877V3.79396C31.2813 5.63859 31.3615 7.5501 31.3615 9.44819V10.1833L29.8778 10.2101L26.8302 10.2502L23.7827 10.2101C23.7827 10.2101 22.3391 10.1833 22.2856 10.1833V9.44819C22.2856 7.64367 22.3658 5.81236 22.4594 3.79396V3.75391H22.4327C22.0183 3.82074 21.6841 3.86086 21.3633 3.86086C21.0425 3.86086 20.7084 3.82074 20.294 3.75391H20.2539V3.78067V3.84748C20.3341 5.67874 20.4277 7.57682 20.4277 9.43481V13.1909C20.4277 15.0489 20.3341 16.947 20.2539 18.7916V18.8852H20.2806C20.695 18.805 21.0292 18.7782 21.35 18.7782C21.6708 18.7782 22.0049 18.8183 22.4193 18.8852H22.4594V18.8584C22.3658 16.84 22.2856 15.0088 22.2856 13.2043V11.2661H22.4995L26.8169 11.2259L31.1476 11.2661C31.1476 11.2661 31.3214 11.2661 31.3615 11.2661V13.2043C31.3615 15.1157 31.2813 17.0138 31.1877 18.8584V18.8852H31.2278C31.6422 18.805 31.9764 18.7648 32.2838 18.7648C32.5912 18.7648 32.9388 18.805 33.3531 18.8718H33.3932V18.845C33.2997 16.987 33.2195 15.0622 33.2195 13.1909V9.43481C33.2195 7.55009 33.2997 5.63866 33.3932 3.78067" fill="#9C9C9C"/>
<path d="M51.3883 17.5223H51.3482C50.0383 17.7763 47.6457 17.8164 45.4803 17.8164C45.467 17.3486 45.4402 16.3193 45.4402 14.5682C45.4402 12.5231 45.4402 11.9483 45.467 11.427C46.3625 11.427 49.1829 11.4672 50.7467 11.6276H50.7868V11.5874C50.7467 11.3736 50.72 11.1597 50.72 10.9459C50.72 10.732 50.7467 10.478 50.7868 10.2775V10.2374H50.7601C49.4235 10.3577 48.0066 10.4647 45.4803 10.4647C45.4803 10.4112 45.4803 9.54235 45.4803 9.54235V7.60414L45.5071 5.89315C45.5071 5.89315 45.5472 4.91743 45.5472 4.86396C47.766 4.86396 48.8754 4.95748 50.1586 5.06441L51.2948 5.15799V5.11793C51.2413 4.8907 51.2146 4.67676 51.2146 4.46289C51.2146 4.24902 51.2413 4.03518 51.2814 3.82131V3.78125H51.2547C49.8378 3.84808 48.568 3.88813 47.365 3.88813C46.162 3.88813 44.9189 3.84808 43.4486 3.78125H43.4219V3.80793C43.5154 5.79959 43.5956 7.60414 43.5956 9.43539V13.1915C43.5956 15.1297 43.5021 17.1213 43.4219 18.8724V18.8991H43.4486C44.9457 18.8189 46.2021 18.7922 47.4185 18.7922C48.6348 18.7922 49.9314 18.8323 51.3482 18.8991H51.3883V18.859C51.3482 18.6719 51.3215 18.4447 51.3215 18.2308C51.3215 18.0437 51.3482 17.763 51.3883 17.5624V17.5223Z" fill="#9C9C9C"/>
<path d="M62.6838 4.81049C62.6838 2.9124 64.0872 1.58912 66.0388 1.58912C67.9903 1.58912 68.7655 3.07284 69.1264 4.02189H69.4339C69.6477 3.03274 69.8215 2.4446 70.1423 1.84309C69.0997 1.01434 67.9368 0.613281 66.2927 0.613281C62.8441 0.613281 60.652 2.6451 60.652 5.51897C60.652 11.6276 68.8324 9.5691 68.8324 14.3544C68.8324 16.4396 67.4289 18.1239 65.1165 18.1239C62.804 18.1239 61.5877 16.6401 61.0129 15.4104H60.6921C60.5986 16.3995 60.5184 16.9209 60.2109 17.7229C61.1199 18.4447 62.3496 19.2066 64.5016 19.2066C68.4982 19.2066 70.8641 16.5332 70.8641 13.3653C70.8641 7.61755 62.6838 9.64927 62.6838 4.79711" fill="#9C9C9C"/>
<path d="M92.443 4.1465V3.75889H92.4296C92.0152 3.82572 91.6811 3.86577 91.3603 3.86577C91.0395 3.86577 90.7187 3.82572 90.2909 3.75889H90.2642V3.78557C90.3578 5.63019 90.438 7.5417 90.438 9.43979V10.175L88.9543 10.2017L85.9067 10.2418L82.8592 10.2017C82.8592 10.2017 81.4156 10.175 81.3755 10.175V9.43979C81.3755 7.56844 81.469 5.65695 81.5492 3.81233V3.71875C81.1349 3.78558 80.7606 3.85247 80.4532 3.85247C80.1457 3.85247 79.7982 3.81234 79.3838 3.74551H79.3438V3.77227V3.90591C79.4373 5.72379 79.5175 7.59517 79.5175 9.43979V13.1959C79.5175 15.0405 79.4373 16.9118 79.3438 18.7297V18.8902H79.3705C79.7848 18.8233 80.119 18.7832 80.4398 18.7832C80.7606 18.7832 81.0814 18.8233 81.5091 18.8902H81.5359V18.8366C81.4557 16.992 81.3621 15.0672 81.3621 13.1959V11.2577H81.576L85.9067 11.2175L90.2241 11.2577C90.2241 11.2577 90.3979 11.2577 90.438 11.2577V13.1959C90.438 15.094 90.3578 17.0054 90.2642 18.85V18.8768H90.2909C90.7053 18.7966 91.0395 18.7698 91.3603 18.7698C91.6811 18.7698 92.0152 18.8099 92.4296 18.8768H92.4697L92.4563 18.4891C92.3761 16.7514 92.2959 14.9469 92.2959 13.1825V9.42641C92.2959 7.66199 92.3761 5.87081 92.4563 4.13312" fill="#9C9C9C"/>
<path d="M104.778 3.9945V3.75391H104.751C104.337 3.83411 104.003 3.86086 103.695 3.86086C103.388 3.86086 103.04 3.83411 102.626 3.75391H102.586V3.78067C102.68 5.62529 102.76 7.53672 102.76 9.43481V13.1909C102.76 15.1023 102.68 17.0004 102.586 18.845V18.8718H102.626C103.04 18.7916 103.375 18.7514 103.695 18.7514C104.016 18.7514 104.337 18.7916 104.751 18.8584H104.791V18.6312C104.711 16.84 104.631 14.982 104.631 13.1641V9.40805C104.631 7.60353 104.711 5.74551 104.791 3.95436" fill="#9C9C9C"/>
<path d="M123.193 17.5217H123.153C120.974 17.8024 119.21 17.8158 117.152 17.8158C117.152 17.7624 117.138 16.3454 117.138 16.3454L117.098 9.44819C117.098 7.5902 117.178 5.70542 117.272 3.87416V3.75391H117.245C116.831 3.82074 116.497 3.86086 116.176 3.86086C115.855 3.86086 115.521 3.82074 115.107 3.75391H115.066V3.78067V3.98112C115.147 5.77227 115.24 7.61692 115.24 9.43481V13.1909C115.24 15.0088 115.16 16.8534 115.08 18.6579V18.8852H115.093C116.617 18.805 117.9 18.7782 119.13 18.7782C120.36 18.7782 121.669 18.8183 123.153 18.8852H123.193L123.18 18.845C123.113 18.6044 123.073 18.3906 123.073 18.2034C123.073 18.0163 123.1 17.7891 123.18 17.5619V17.5217H123.193Z" fill="#9C9C9C"/>
<path d="M138.168 17.5217H138.128C135.963 17.8024 134.185 17.8158 132.14 17.8158C132.14 17.7624 132.127 16.5594 132.127 16.5594L132.073 9.44819C132.073 7.53673 132.167 5.54502 132.247 3.79396V3.75391H132.22C131.806 3.83411 131.472 3.87416 131.151 3.87416C130.83 3.87416 130.509 3.83412 130.081 3.76729H130.055V3.79396C130.148 5.81236 130.228 7.6303 130.228 9.44819V13.2043C130.228 15.0222 130.148 16.84 130.055 18.8584V18.8852H130.081C131.605 18.805 132.888 18.7782 134.118 18.7782C135.348 18.7782 136.671 18.8183 138.141 18.8852H138.182L138.168 18.845C138.101 18.5911 138.061 18.3906 138.061 18.2034C138.061 18.0163 138.101 17.8025 138.168 17.5619V17.5217Z" fill="#9C9C9C"/>
<path d="M150.069 3.5943C149.936 3.24676 149.855 3.01953 149.855 3.01953C149.495 3.56757 148.599 4.54336 148.345 4.78396C148.345 4.78396 148.505 5.06461 148.733 5.47898L142.758 18.9528C143.68 18.6453 144.429 18.9795 144.429 18.9795C144.429 18.9795 145.551 15.9452 146.527 13.4857C147.61 13.3921 150.617 13.4991 150.617 13.4991C150.617 13.4991 150.684 13.2184 150.751 12.9778C150.818 12.7372 150.992 12.403 150.992 12.403C150.992 12.403 147.997 12.4832 146.942 12.4431C147.73 10.5049 149.321 6.66865 149.321 6.66865C149.321 6.66865 150.51 9.40886 151.954 12.8575C153.718 17.0814 154.28 18.9394 154.28 18.9394C155.657 18.6453 156.646 18.9528 156.646 18.9528L150.056 3.56754L150.069 3.5943Z" fill="#9C9C9C"/>
<path d="M44.6443 33.4266C44.6443 32.1701 44.1764 31.074 43.2541 30.3522C42.2516 29.5635 40.9685 29.5234 39.9392 29.5234C39.2041 29.5234 38.4956 29.5903 37.8407 29.5903C37.5199 29.5903 37.1724 29.5502 36.8516 29.5234C36.8783 30.0581 36.8917 30.5794 36.9184 31.1007C36.9585 31.8626 36.9451 32.6112 36.9451 33.3731C36.9451 34.8167 36.9451 35.084 36.9451 35.6187L36.8783 37.8376C37.2526 37.8109 37.6402 37.7708 38.0145 37.7708C38.7496 37.7708 39.4981 37.8376 40.2333 37.8376C41.2224 37.8376 42.011 37.6906 42.8665 37.1425C44.0027 36.4207 44.671 35.1509 44.671 33.4399M38.4422 31.7022C38.4422 31.221 38.4823 30.7265 38.509 30.2319C38.9234 30.1918 39.3377 30.1785 39.7521 30.1785C42.265 30.1785 43.0135 31.9295 43.0135 33.4934C43.0135 36.6079 40.9551 37.1961 40.1531 37.1961C39.8457 37.1961 38.7763 37.1559 38.509 37.1425C38.4823 36.5811 38.4422 36.0197 38.4422 35.4583V31.7022Z" fill="#9C9C9C"/>
<path d="M50.7931 30.4324C50.753 31.3547 50.753 32.5176 50.753 33.5602C50.753 35.4851 50.7798 35.9262 51.1273 36.394C51.4748 36.8618 52.1298 37.1292 52.9719 37.1292C53.9476 37.1292 54.7229 36.6212 54.9902 35.8861C55.0838 35.6187 55.1506 35.2445 55.1506 34.2553C55.1506 32.6781 55.1506 31.1007 55.0437 29.5234C55.2175 29.5502 55.3912 29.5903 55.5917 29.5903C55.7922 29.5903 55.9793 29.5368 56.1531 29.5234L56.113 30.0982C56.0462 31.1408 56.0194 33.6271 55.9927 34.8569C55.966 36.2871 55.5516 36.942 54.763 37.45C54.1882 37.8109 53.3862 37.9713 52.7313 37.9713C51.2743 37.9713 49.5367 37.5034 49.2693 35.6321C49.2426 35.4583 49.2426 35.0974 49.2426 34.9905V31.7022C49.2426 31.0874 49.2159 30.1383 49.1758 29.5234C49.4565 29.5635 49.7639 29.5903 50.0312 29.5903C50.2986 29.5903 50.5793 29.5502 50.8199 29.5234L50.7798 30.4458L50.7931 30.4324Z" fill="#9C9C9C"/>
<path d="M64.164 36.1606C64.164 37.0829 64.2174 37.4839 64.2442 37.818C63.8966 37.7779 63.509 37.7378 63.362 37.7378C63.1615 37.7378 62.9743 37.7646 62.5332 37.818C62.5867 36.8957 62.6535 35.96 62.6535 35.0377V31.6559C62.6535 31.2015 62.6268 30.7871 62.6268 30.3193H62.0253C61.9184 30.3193 60.7555 30.346 60.1406 30.3995C60.1674 30.2524 60.1941 30.092 60.1941 29.945C60.1941 29.7979 60.1674 29.6376 60.1406 29.5039C61.0896 29.5707 62.4397 29.5707 63.3753 29.5707C64.3778 29.5707 65.4471 29.5707 66.61 29.5039C66.5699 29.7178 66.5432 29.8648 66.5432 29.9717C66.5432 30.1054 66.5699 30.2123 66.61 30.3995C65.9016 30.3326 65.0328 30.3193 64.2041 30.3193C64.1907 30.7604 64.1773 31.2149 64.1773 31.6693V36.1472L64.164 36.1606Z" fill="#9C9C9C"/>
<path d="M74.4287 35.0243C74.4287 36.0402 74.4688 36.6952 74.5222 37.818C74.2415 37.7913 73.9608 37.7378 73.6801 37.7378C73.4395 37.7378 73.1054 37.7913 72.8648 37.818C72.9049 36.869 72.9316 35.2917 72.9316 34.5298L72.2098 33.3C71.595 32.2307 70.5657 30.5599 69.9375 29.5039C70.3786 29.5574 70.6593 29.5707 70.9266 29.5707C71.2207 29.5707 71.5682 29.5707 71.9157 29.5039C72.544 30.8272 73.0118 31.7896 74.0277 33.5942C75.0569 31.8297 75.2574 31.4154 76.1262 29.5039C76.3267 29.544 76.5673 29.5707 76.8346 29.5707C77.0752 29.5707 77.2089 29.544 77.3426 29.5039C77.1554 29.8247 76.2732 31.2415 76.0995 31.5222C75.5514 32.3911 75.0836 33.3001 74.5757 34.1689C74.4821 34.316 74.4153 34.4496 74.4153 34.5565V35.011L74.4287 35.0243Z" fill="#9C9C9C"/>
<path d="M89.1402 33.0784H89.9689C90.8778 33.0784 91.4125 33.0382 91.907 33.0249C91.8669 33.1452 91.8402 33.2789 91.8402 33.4259C91.8402 33.5596 91.8669 33.6799 91.907 33.8403L91.2387 33.8136C90.5704 33.7868 90.4234 33.7868 89.1268 33.7868V35.4042C89.1268 36.634 89.1268 36.8077 89.1268 37.182C89.1268 37.4627 89.1268 37.5563 89.1669 37.8102C88.8862 37.7434 88.6322 37.73 88.2981 37.73C87.9639 37.73 87.7367 37.7568 87.5095 37.8102C87.603 35.7785 87.6164 35.4443 87.6164 33.5195C87.6164 31.9823 87.5496 30.6724 87.4961 29.4961C87.9238 29.5228 89.1936 29.5629 89.7818 29.5629C90.557 29.5629 91.3991 29.5095 92.0674 29.4961C92.0273 29.6699 92.0006 29.8169 92.0006 29.9639C92.0006 30.0441 92.0006 30.1644 92.0674 30.3649C90.9714 30.2981 90.1828 30.258 89.1001 30.258V33.0784H89.1402Z" fill="#9C9C9C"/>
<path d="M100.18 33.7073C101.289 33.4934 102.292 32.8117 102.292 31.4616C102.292 30.9537 102.105 30.4591 101.73 30.1116C101.209 29.617 100.621 29.5234 99.8324 29.5234C99.5517 29.5234 98.1482 29.5903 97.8274 29.5903C97.2125 29.5903 96.8917 29.5502 96.6244 29.5234C96.7046 31.0874 96.7046 31.2612 96.7046 32.8385C96.7046 35.1777 96.7046 35.445 96.5977 37.8243C96.865 37.7842 97.159 37.7441 97.4397 37.7441C97.7472 37.7441 98.0145 37.7975 98.2551 37.8243C98.2551 37.5035 98.215 35.9529 98.215 35.592V33.881H98.5091C99.164 34.8033 99.9126 35.8593 100.527 36.8218C100.715 37.1025 100.969 37.5436 101.156 37.8243C101.517 37.7708 101.664 37.7441 102.145 37.7441C102.586 37.7441 102.88 37.7842 103.227 37.8243C102.466 36.8619 102.131 36.4475 101.182 35.0975C100.995 34.8435 100.728 34.4425 100.554 34.1885L100.207 33.7073H100.18ZM98.2016 30.1785C98.3888 30.1651 98.8299 30.1116 99.0571 30.1116C99.4581 30.1116 99.8591 30.1785 100.18 30.4191C100.608 30.7265 100.688 31.1676 100.688 31.6756C100.688 32.4642 100.233 33.3464 99.0304 33.3464C98.7096 33.3464 98.4289 33.3196 98.2016 33.3063V30.1651V30.1785Z" fill="#9C9C9C"/>
<path d="M108.813 33.1002C109.428 33.1002 110.792 33.1002 111.433 33.02C111.393 33.1536 111.366 33.274 111.366 33.4611C111.366 33.6349 111.393 33.7819 111.433 33.8755C111.112 33.8487 110.805 33.822 110.497 33.8087C109.936 33.8087 109.375 33.7819 108.813 33.7819V37.0702C109.134 37.0702 110.685 37.0301 111.7 36.99C111.66 37.0969 111.647 37.2172 111.647 37.391C111.647 37.5781 111.647 37.6984 111.7 37.8321C110.979 37.7786 110.257 37.7519 109.482 37.7519C108.76 37.7519 107.998 37.7786 107.223 37.8321C107.249 37.3241 107.276 36.8296 107.289 36.3216C107.316 35.6132 107.343 34.1428 107.343 33.5814C107.343 33.0735 107.316 30.7343 107.236 29.5312C107.824 29.5714 108.773 29.5981 109.428 29.5981C109.99 29.5981 110.778 29.5446 111.66 29.5312C111.634 29.6783 111.607 29.7719 111.607 29.9189C111.607 30.1061 111.634 30.2664 111.66 30.3734L110.524 30.3199C110.07 30.2932 109.949 30.2932 108.84 30.2932V33.1403L108.813 33.1002Z" fill="#9C9C9C"/>
<path d="M117.881 33.1002C118.496 33.1002 119.846 33.1002 120.501 33.02C120.461 33.1536 120.434 33.274 120.434 33.4611C120.434 33.6349 120.461 33.7819 120.501 33.8755C120.18 33.8487 119.873 33.822 119.566 33.8087C119.004 33.8087 118.429 33.7819 117.881 33.7819V37.0702C118.202 37.0702 119.739 37.0301 120.769 36.99C120.715 37.0969 120.715 37.2172 120.715 37.391C120.715 37.5781 120.715 37.6984 120.769 37.8321C120.047 37.7786 119.312 37.7519 118.536 37.7519C117.814 37.7519 117.053 37.7786 116.277 37.8321C116.304 37.3241 116.331 36.8296 116.344 36.3216C116.371 35.6132 116.384 34.1428 116.384 33.5814C116.384 33.0735 116.358 30.7343 116.277 29.5312C116.865 29.5714 117.815 29.5981 118.469 29.5981C119.031 29.5981 119.819 29.5446 120.702 29.5312C120.662 29.6783 120.635 29.7719 120.635 29.9189C120.635 30.1061 120.662 30.2664 120.702 30.3734L119.566 30.3199C119.111 30.2932 118.991 30.2932 117.881 30.2932V33.1403V33.1002Z" fill="#9C9C9C"/>
</svg>
