<svg width="111" height="33" viewBox="0 0 111 33" fill="none" xmlns="http://www.w3.org/2000/svg">
<path d="M52.6888 3.41267C53.2368 3.01166 53.9453 2.7978 54.7874 2.7978C55.4424 2.77106 56.0839 3.0384 56.5383 3.5196C56.9928 4.00081 57.2067 4.65578 57.2067 5.48453C57.22 6.03257 57.1399 6.59398 56.9661 7.11528C56.8057 7.56975 56.6587 7.90392 55.9369 8.49206L55.83 8.5589H59.1181C60.9627 6.1395 59.9869 4.52212 59.0914 3.65327C59.078 3.63991 59.0646 3.62654 59.0512 3.62654C58.9042 3.4795 58.7305 3.34584 58.5701 3.2389C58.5433 3.22553 58.5301 3.1988 58.5033 3.18543C58.4766 3.17207 58.4632 3.17207 58.4498 3.1587C58.276 3.0384 58.1558 2.98493 58.1558 2.98493V3.01166C57.7949 2.82453 57.3939 2.67749 56.9929 2.58393C56.4048 2.46362 55.8165 2.41016 55.215 2.41016C53.7848 2.41016 52.5551 2.70423 51.5259 3.279C50.4966 3.88051 49.6279 4.69589 48.973 5.67166C48.2645 6.74101 47.7432 7.94403 47.4358 9.18714C47.0883 10.5773 46.8744 12.0075 46.821 13.4512C46.7809 14.2799 46.714 15.1487 46.6338 16.0978C46.5403 17.0468 46.4065 17.9825 46.1926 18.9182C45.9921 19.8405 45.7114 20.7227 45.3505 21.5782C45.003 22.3936 44.5353 23.1688 43.9739 23.8372C43.4125 24.4922 42.7174 25.0268 41.9422 25.4011C41.1535 25.7887 40.2179 25.9892 39.1352 25.9892C38.4936 25.9892 37.8386 25.9224 37.2104 25.7887C36.5688 25.6551 35.9405 25.4412 35.3791 25.1204C34.8445 24.8263 34.3766 24.412 34.0157 23.904C33.8019 23.5832 33.6415 23.2223 33.5613 22.848C33.5078 22.4604 33.4677 22.046 33.4944 21.6584V21.4846C33.8286 17.2473 38.7877 14.6809 38.7877 14.6809H34.7376C30.1929 17.7954 31.5831 21.7119 31.5831 21.7119C31.69 22.1396 31.8504 22.5406 32.0509 22.9149C32.4786 23.6902 33.0534 24.3451 33.7485 24.8664C34.4703 25.3877 35.2989 25.7887 36.1677 26.016C37.0633 26.2566 37.999 26.3903 38.9347 26.3903C40.8327 26.3903 42.4367 26.0694 43.7332 25.4412C44.9229 24.8798 46.0055 24.0778 46.8743 23.0886C47.6496 22.1931 48.2512 21.1505 48.6656 20.0544C49.0265 19.0786 49.2803 18.0627 49.4006 17.0335C49.5343 15.9775 49.6279 14.8948 49.7214 13.772C49.815 12.6625 49.9085 11.5932 50.0422 10.5506C50.1759 9.50794 50.3363 8.50543 50.5368 7.55639C50.6972 6.70091 50.9912 5.87217 51.3789 5.08352C51.6997 4.44191 52.1675 3.86714 52.7423 3.41267H52.6888Z" fill="#9C9C9C"/>
<path d="M62.6367 18.2565C62.7026 18.1381 62.7421 18.0986 62.6367 18.2565V18.2565Z" fill="#9C9C9C"/>
<path d="M62.6441 18.2539C61.9927 19.2634 62.4579 18.5461 62.6441 18.2539V18.2539Z" fill="#9C9C9C"/>
<path d="M66.9123 12.4297C67.1796 12.4163 67.4203 12.3228 67.6475 12.2158L69.853 10.839C69.853 10.839 71.3099 9.97019 72.1788 8.53994C72.4194 8.15231 73.0476 7.10969 73.8362 5.83984H70.4678L66.3242 12.4297H66.9123Z" fill="#9C9C9C"/>
<path d="M86.1141 23.9918C86.3414 23.6176 88.9345 20.0486 89.135 19.7813L89.1751 19.7278C89.4826 19.2867 89.79 18.859 90.044 18.4179L91.1801 16.7337C92.7707 13.7528 89.5227 13.7528 89.5227 13.7528H87.8117C86.5553 13.7528 85.5127 14.7153 85.5127 14.7153L82.3582 17.7094L82.7459 16.5198C83.8152 13.7395 81.0751 13.7662 81.0751 13.7662H79.3508C78.0943 13.7662 77.0517 14.7286 77.0517 14.7286L74.7927 16.8673L77.1452 13.2182H76.5572C76.2899 13.2315 76.0492 13.3251 75.822 13.432L73.6165 14.8088C73.6165 14.8088 72.1595 15.6777 71.2907 17.1079C71.0501 17.4956 70.4219 18.5382 69.6466 19.808C69.5798 19.9283 69.4863 20.0486 69.3794 20.209C69.0853 20.6902 68.7778 21.1714 68.4971 21.6393C68.2966 21.8531 68.1094 22.067 67.8955 22.2809C66.7059 23.4839 65.7168 24.3394 64.9148 24.8607C64.1128 25.3553 63.5247 25.5959 63.0836 25.5959C62.9098 25.5959 62.7361 25.5023 62.6426 25.3553C62.5356 25.1681 62.4822 24.9543 62.4956 24.7136C62.5223 24.2725 62.6426 23.8582 62.8431 23.4572C63.057 22.9626 64.9684 20.0085 65.7036 18.8055L69.219 13.2048H68.6308C68.3634 13.2182 68.1228 13.3117 67.8955 13.4187L65.7036 14.7955C65.7036 14.7955 64.2465 15.6643 63.3776 17.0946C63.244 17.3084 62.9901 17.7362 62.6426 18.2842L62.5357 18.4446C62.0679 19.1798 61.6802 19.8214 61.3461 20.3962C60.6109 21.2516 59.8489 22.0536 59.087 22.8289C58.3251 23.6176 57.4831 24.3126 56.5875 24.9142C55.7989 25.4087 55.1706 25.6493 54.7295 25.6493C54.2483 25.6493 54.0211 25.3553 54.0211 24.7805C54.0211 24.2057 54.2617 23.4839 54.7563 22.5883C55.2508 21.6927 55.9192 20.5566 56.7746 19.1798L66.8263 3.17969H66.2381C65.9708 3.19305 65.7303 3.28662 65.503 3.39356L63.3109 4.77034C63.3109 4.77034 61.854 5.63918 60.9851 7.06943C60.1163 8.49969 54.1682 18.2708 54.1682 18.2708C53.2326 19.8214 52.5508 21.0645 52.1097 21.9868C51.6686 22.9225 51.4414 23.671 51.4414 24.2859C51.4414 25.5825 52.1766 26.2375 53.6469 26.2375C54.7162 26.2241 55.7722 25.9033 56.6544 25.2884C57.6301 24.6602 58.7396 23.6978 59.9826 22.4279C60.1831 22.2274 60.3836 22.0269 60.5841 21.7863C60.4237 22.1071 60.2767 22.4279 60.1564 22.7621C59.996 23.2032 59.9291 23.6443 59.9157 24.1121C59.889 24.6735 60.103 25.235 60.504 25.636C60.8916 26.0236 61.453 26.2241 62.1614 26.2241C62.9233 26.2241 63.752 25.9835 64.6476 25.4889C65.4629 25.0345 66.4386 24.2592 67.5614 23.1765C67 24.0587 66.4387 24.9543 65.8773 25.8498H66.8531C66.8531 25.8498 69.0318 25.8498 70.2215 24.0319C70.6893 23.3235 71.1971 22.5482 71.7719 21.7195C72.36 20.8907 72.9749 20.0754 73.6298 19.2466C74.2848 18.4179 74.9397 17.6827 75.5947 17.001C76.1561 16.3861 76.7843 15.8514 77.4526 15.3569C78.0541 14.9291 78.5755 14.7153 79.0166 14.7153C79.2973 14.7019 79.5647 14.8222 79.7251 15.0361C79.8721 15.2366 79.9522 15.4905 79.9522 15.7445C79.9522 16.1321 79.7784 16.6668 79.4442 17.3352C79.1101 18.0035 78.6556 18.7788 78.1076 19.661C77.5596 20.5432 76.9315 21.5056 76.223 22.5482C75.5146 23.5908 74.7928 24.6468 74.0577 25.8231H74.873C74.873 25.8231 77.3993 25.6761 78.5488 24.0052C78.9899 23.2968 79.4978 22.5215 80.0726 21.7061C80.6474 20.8907 81.2622 20.062 81.8904 19.2332C82.3716 18.6184 82.8528 18.0436 83.334 17.5223L84.2162 16.6C84.6707 16.1455 85.1652 15.7311 85.6865 15.3702C86.288 14.9425 86.8093 14.7286 87.2504 14.7286C87.4777 14.7286 87.7048 14.8222 87.8652 14.9692C88.0524 15.1564 88.1459 15.4103 88.1325 15.6643C88.1325 16.0653 87.9054 16.6134 87.4242 17.2817C86.943 17.95 82.3315 24.6201 81.5295 25.8498H82.3448C82.4117 25.8097 84.9379 25.6493 86.1008 23.9785L86.1141 23.9918Z" fill="#9C9C9C"/>
<path d="M108.587 2.02772C107.531 1.01185 106.141 0.503906 104.444 0.503906C103.107 0.503906 101.757 0.904911 100.367 1.72029C98.9767 2.54903 97.707 3.57828 96.6243 4.80803C95.5149 6.03778 94.5925 7.42793 93.8974 8.92501C93.189 10.4221 92.8414 11.8523 92.8414 13.189C92.8414 14.646 93.2693 15.8624 94.098 16.8515C94.9401 17.8407 96.1162 18.3353 97.64 18.3353C99.2841 18.3353 100.688 17.9075 101.837 17.052C103 16.1966 104.002 15.154 104.831 13.9643L104.925 14.0579C104.377 15.0871 103.668 16.25 102.826 17.5333C101.944 18.8833 100.982 20.1932 99.9659 21.4631C98.8966 22.7864 97.7202 24.083 96.4905 25.3395C95.3009 26.5559 94.0043 27.6787 92.6275 28.6946C91.3443 29.6436 89.9543 30.4456 88.4839 31.0605C87.1473 31.6486 85.717 31.9427 84.2734 31.9561V32.4373C85.971 32.3303 87.6419 31.9828 89.2459 31.4214C91.3578 30.6996 93.3628 29.7372 95.2609 28.5743C97.2792 27.3445 99.1906 25.9009 100.928 24.2835C102.706 22.6795 104.297 20.9017 105.7 18.9635C107.037 17.1189 108.133 15.1272 108.962 13.0019C109.75 11.0236 110.164 8.91164 110.164 6.79968C110.178 4.63426 109.657 3.05697 108.601 2.02772H108.587ZM105.954 9.04531C105.593 10.2082 105.099 11.3444 104.47 12.387C103.882 13.3895 103.147 14.2717 102.278 15.0337C101.436 15.7421 100.527 16.103 99.5515 16.103C99.1237 16.1164 98.7227 16.0094 98.3618 15.7956C98.0544 15.5951 97.8005 15.3277 97.6 15.0069C97.3995 14.6727 97.2658 14.2985 97.2123 13.9108C97.1455 13.5232 97.1054 13.1222 97.1054 12.7346C97.1322 11.6652 97.2792 10.5825 97.5732 9.53988C97.8807 8.33687 98.3485 7.17396 98.9367 6.07788C99.4981 5.03526 100.246 4.08622 101.142 3.29757C101.984 2.5624 103.067 2.16139 104.176 2.17476C104.818 2.17476 105.433 2.46883 105.807 2.97677C106.248 3.51144 106.475 4.46049 106.475 5.8239C106.462 6.91998 106.288 7.98933 105.954 9.01858V9.04531Z" fill="#9C9C9C"/>
<path d="M23.5759 5.66835H23.509C19.5124 6.40352 15.6093 7.67337 11.9335 9.42443C9.26022 10.721 7.46919 11.9107 7.17513 12.1245L7.13499 12.1513H7.12161C7.00131 12.2716 6.94784 12.3919 6.94784 12.5389V9.37096C6.93447 9.19719 7.0147 9.02342 7.14837 8.91649C7.14837 8.91649 11.5059 5.26734 20.769 3.27569L21.0496 3.20885H21.1031C15.4223 -1.13537 7.30876 -0.0660229 2.96463 5.60151C-0.590868 10.2532 -0.577489 16.7094 2.97801 21.3476C6.45331 20.706 9.83513 19.6768 13.0832 18.2599C14.1525 17.7787 15.1282 17.2975 15.9703 16.843C16.0638 16.8029 16.1575 16.7896 16.2511 16.8297C17.2001 17.1371 18.042 17.4312 18.6168 17.645C18.6569 17.6584 19.1649 17.9391 18.8842 18.3668C17.7213 19.2223 13.4039 22.0695 5.5978 23.7403L5.43741 23.7804C11.0915 28.1514 19.2184 27.1087 23.5759 21.4546C27.1715 16.8029 27.1715 10.3066 23.5759 5.64161V5.66835ZM15.3287 15.493L10.7573 14.1028C9.75478 13.7954 9.08645 13.6082 9.08645 13.6082H9.12659L8.48502 13.4211C8.21769 13.3275 7.88359 13.1404 7.88359 12.9399C7.88359 12.7929 8.16422 12.6057 8.31125 12.4988C8.77908 12.1914 9.24696 11.8839 10.3698 11.2423C10.4633 11.2022 10.5568 11.1888 10.6638 11.2156L15.9569 12.833H15.9703C15.9703 12.833 18.8976 13.6617 19.2318 13.8221C19.6595 14.0226 19.6193 14.3167 19.6193 14.3167V17.4178C19.6193 16.9366 19.1382 16.7896 18.8976 16.696C18.0823 16.3885 16.7455 15.9608 15.3153 15.5063L15.3287 15.493Z" fill="#9C9C9C"/>
</svg>
