<svg width="104" height="42" viewBox="0 0 104 42" fill="none" xmlns="http://www.w3.org/2000/svg">
<path d="M24.0971 19.4727C23.9811 18.905 23.7511 18.4181 23.4072 18.0121C23.0633 17.606 22.6427 17.2994 22.1455 17.0922C21.6524 16.8808 21.122 16.7752 20.5543 16.7752C19.7753 16.7752 19.0771 16.972 18.4597 17.3657C17.8423 17.7593 17.3554 18.3373 16.9991 19.0998C16.6427 19.8581 16.4645 20.7697 16.4645 21.8346C16.4645 22.8995 16.6427 23.8132 16.9991 24.5756C17.3554 25.3339 17.8423 25.9099 18.4597 26.3035C19.0771 26.6971 19.7753 26.894 20.5543 26.894C21.122 26.894 21.6524 26.7904 22.1455 26.5832C22.6386 26.3719 23.0571 26.0652 23.401 25.6633C23.7449 25.2572 23.977 24.7724 24.0971 24.2089H25.6883C25.5391 25.0583 25.2221 25.798 24.7373 26.4278C24.2566 27.0535 23.6537 27.5342 22.9286 27.8698C22.2076 28.2054 21.4162 28.3733 20.5543 28.3733C19.4645 28.3733 18.4928 28.1081 17.6392 27.5777C16.7898 27.0431 16.1247 26.2828 15.6441 25.2966C15.1634 24.3063 14.9231 23.1523 14.9231 21.8346C14.9231 20.5169 15.1634 19.365 15.6441 18.3788C16.1247 17.3884 16.7898 16.6281 17.6392 16.0977C18.4928 15.5632 19.4645 15.2959 20.5543 15.2959C21.412 15.2959 22.2014 15.4616 22.9224 15.7931C23.6475 16.1246 24.2504 16.6053 24.7311 17.2351C25.2159 17.865 25.535 18.6108 25.6883 19.4727H24.0971ZM27.7019 18.6523H29.1687V20.1067H29.2682C29.3842 19.7918 29.5645 19.5141 29.8089 19.2738C30.0534 19.0293 30.3435 18.8408 30.6791 18.7082C31.0147 18.5715 31.369 18.5031 31.742 18.5031C32.032 18.5031 32.2931 18.5114 32.5251 18.5279V20.057C32.4298 20.0362 32.2951 20.0155 32.1211 19.9948C31.9512 19.9699 31.7834 19.9575 31.6176 19.9575C31.1618 19.9575 30.7516 20.0549 30.387 20.2496C30.0223 20.4402 29.7364 20.7054 29.5292 21.0452C29.3221 21.3808 29.2185 21.76 29.2185 22.1826V28.1992H27.7019V18.6523ZM37.7112 28.3981C36.8038 28.3981 36.0123 28.1951 35.3369 27.789C34.6656 27.3829 34.1498 26.8111 33.7893 26.0735C33.4288 25.3318 33.2485 24.4741 33.2485 23.5003C33.2485 22.5307 33.4288 21.6709 33.7893 20.9209C34.1498 20.1668 34.6553 19.5804 35.3058 19.1619C35.9605 18.7393 36.7126 18.5279 37.5621 18.5279C38.2872 18.5279 38.9605 18.6875 39.5821 19.0065C40.2036 19.3256 40.7092 19.8415 41.0987 20.5542C41.4923 21.2669 41.6891 22.1826 41.6891 23.3014V23.9354H34.7713C34.792 24.5942 34.9267 25.1578 35.1753 25.626C35.4281 26.0942 35.772 26.4506 36.2071 26.6951C36.6422 26.9354 37.1435 27.0556 37.7112 27.0556C38.2499 27.0556 38.7057 26.9541 39.0786 26.751C39.4516 26.548 39.7333 26.2849 39.9239 25.9616H41.54C41.3908 26.4465 41.138 26.8733 40.7817 27.242C40.4295 27.6067 39.9902 27.8905 39.464 28.0936C38.9377 28.2966 38.3535 28.3981 37.7112 28.3981ZM40.1477 22.6426C40.1477 22.1122 40.042 21.6378 39.8307 21.2192C39.6194 20.7966 39.319 20.4672 38.9295 20.231C38.54 19.9907 38.0883 19.8705 37.5745 19.8705C37.04 19.8705 36.5655 19.9969 36.1511 20.2496C35.7409 20.5024 35.4156 20.8401 35.1753 21.2628C34.9391 21.6854 34.8045 22.1454 34.7713 22.6426H40.1477ZM43.1977 25.4893C43.1977 24.5072 43.5354 23.8132 44.2109 23.4071C44.8863 23.001 45.7419 22.7586 46.7779 22.6799C47.1839 22.6509 47.6646 22.6219 48.2198 22.5929C48.7792 22.5597 49.1604 22.5411 49.3635 22.5369V21.76C49.3635 21.1467 49.1812 20.6744 48.8165 20.3429C48.4519 20.0114 47.9132 19.8456 47.2005 19.8456C46.6204 19.8456 46.1459 19.9658 45.7772 20.2061C45.4084 20.4423 45.166 20.7531 45.05 21.1384H43.4837C43.5458 20.6288 43.7426 20.1771 44.0741 19.7835C44.4098 19.3857 44.8531 19.077 45.4042 18.8574C45.9553 18.6378 46.579 18.5279 47.2751 18.5279C47.8221 18.5279 48.3607 18.6108 48.8911 18.7766C49.4215 18.9423 49.8835 19.2759 50.2772 19.7773C50.6708 20.2786 50.8676 20.9893 50.8676 21.9092V28.1992H49.3635V26.9064H49.2889C49.1687 27.1509 48.9885 27.3871 48.7482 27.615C48.5078 27.8429 48.1929 28.0355 47.8034 28.193C47.418 28.3463 46.9685 28.423 46.4546 28.423C45.8455 28.423 45.2924 28.307 44.7951 28.0749C44.302 27.8429 43.9125 27.5052 43.6266 27.0618C43.3407 26.6184 43.1977 26.0942 43.1977 25.4893ZM44.7143 25.5639C44.7143 26.0528 44.8966 26.4278 45.2613 26.6889C45.6259 26.9499 46.1066 27.0804 46.7033 27.0804C47.2544 27.0804 47.7309 26.9727 48.1328 26.7572C48.5348 26.5376 48.8393 26.2496 49.0465 25.8933C49.2578 25.5328 49.3635 25.1495 49.3635 24.7434V23.78L47.6604 23.8981L46.9643 23.9478C46.2475 23.9934 45.6922 24.1488 45.2986 24.414C44.9091 24.675 44.7143 25.0583 44.7143 25.5639ZM57.4549 19.9202H55.4411V25.452C55.4411 25.8373 55.497 26.1357 55.6089 26.347C55.7249 26.5583 55.872 26.7013 56.0502 26.7759C56.2325 26.8463 56.448 26.8815 56.6966 26.8815C56.8457 26.8815 57.1441 26.8691 57.5916 26.8442V28.2489C57.2767 28.2987 56.9245 28.3235 56.535 28.3235C56.0916 28.3235 55.671 28.2303 55.2732 28.0438C54.8754 27.8574 54.5502 27.5777 54.2974 27.2047C54.0488 26.8318 53.9245 26.3802 53.9245 25.8498V19.9202H52.4825V18.6523H53.9245V16.365H55.4411V18.6523H57.4549V19.9202ZM59.3953 18.6523H60.9118V28.1992H59.3953V18.6523ZM60.166 17.0735C59.9754 17.0735 59.7972 17.03 59.6314 16.943C59.4698 16.8518 59.3393 16.7296 59.2399 16.5763C59.1446 16.4188 59.0969 16.2489 59.0969 16.0666C59.0969 15.8843 59.1446 15.7165 59.2399 15.5632C59.3393 15.4057 59.4698 15.2835 59.6314 15.1965C59.7972 15.1053 59.9754 15.0597 60.166 15.0597C60.3524 15.0597 60.5265 15.1053 60.6881 15.1965C60.8538 15.2835 60.9843 15.4057 61.0796 15.5632C61.175 15.7165 61.2226 15.8843 61.2226 16.0666C61.2226 16.2489 61.175 16.4188 61.0796 16.5763C60.9843 16.7296 60.8538 16.8518 60.6881 16.943C60.5265 17.03 60.3524 17.0735 60.166 17.0735ZM67.6411 28.1992H66.0873L62.5693 18.6523H64.2102L66.8207 26.2227H66.9201L69.5306 18.6523H71.1715L67.6411 28.1992ZM72.8425 18.6523H74.3591V28.1992H72.8425V18.6523ZM73.6132 17.0735C73.4226 17.0735 73.2445 17.03 73.0787 16.943C72.9171 16.8518 72.7866 16.7296 72.6871 16.5763C72.5918 16.4188 72.5442 16.2489 72.5442 16.0666C72.5442 15.8843 72.5918 15.7165 72.6871 15.5632C72.7866 15.4057 72.9171 15.2835 73.0787 15.1965C73.2445 15.1053 73.4226 15.0597 73.6132 15.0597C73.7997 15.0597 73.9737 15.1053 74.1353 15.1965C74.3011 15.2835 74.4316 15.4057 74.5269 15.5632C74.6222 15.7165 74.6699 15.8843 74.6699 16.0666C74.6699 16.2489 74.6222 16.4188 74.5269 16.5763C74.4316 16.7296 74.3011 16.8518 74.1353 16.943C73.9737 17.03 73.7997 17.0735 73.6132 17.0735ZM80.9392 19.9202H78.9254V25.452C78.9254 25.8373 78.9814 26.1357 79.0932 26.347C79.2093 26.5583 79.3564 26.7013 79.5345 26.7759C79.7169 26.8463 79.9323 26.8815 80.181 26.8815C80.3301 26.8815 80.6285 26.8691 81.076 26.8442V28.2489C80.7611 28.2987 80.4089 28.3235 80.0193 28.3235C79.576 28.3235 79.1554 28.2303 78.7576 28.0438C78.3598 27.8574 78.0345 27.5777 77.7818 27.2047C77.5332 26.8318 77.4089 26.3802 77.4089 25.8498V19.9202H75.9669V18.6523H77.4089V16.365H78.9254V18.6523H80.9392V19.9202ZM83.8492 31.7793C83.4846 31.7793 83.2028 31.7669 83.0039 31.742L83.0164 30.3995C83.2153 30.4161 83.4597 30.4244 83.7498 30.4244C84.0067 30.4244 84.218 30.3974 84.3838 30.3436C84.5537 30.2938 84.7236 30.1654 84.8934 29.9582C85.0633 29.751 85.2291 29.4299 85.3907 28.9948L85.6642 28.2614L82.1338 18.6523H83.7747L86.3852 26.2351H86.4846L89.0951 18.6523H90.736L86.6959 29.5791C86.4183 30.3208 86.0433 30.8719 85.5709 31.2324C85.1027 31.597 84.5288 31.7793 83.8492 31.7793Z" fill="#555555"/>
<rect x="0.6" y="6.6" width="102" height="30" rx="15" stroke="#555555" stroke-width="1.2"/>
</svg>
