<svg width="121" height="27" viewBox="0 0 121 27" fill="none" xmlns="http://www.w3.org/2000/svg">
<path d="M53.0056 22.1873C53.0056 22.5081 53.1258 23.1096 53.9278 23.1096C54.3555 23.1096 54.8368 22.9759 54.8368 22.3744C54.8368 21.92 54.516 21.813 54.0615 21.666L53.5936 21.519C52.8986 21.3051 52.2169 21.1046 52.2169 19.8347C52.2169 19.1931 52.4709 18.0703 53.8877 18.0703C55.2244 18.0703 55.5719 19.2199 55.5853 19.9149H54.7165C54.6897 19.661 54.6229 19.0595 53.8209 19.0595C53.4734 19.0595 53.059 19.2332 53.059 19.7412C53.059 20.1823 53.3397 20.2759 53.5134 20.3427L54.5694 20.6902C55.1576 20.8774 55.7056 21.1982 55.7056 22.2274C55.7056 23.9517 54.3823 24.0988 53.9947 24.0988C52.4174 24.0988 52.1367 22.8958 52.1367 22.1873H53.0056Z" fill="#9C9C9C"/>
<path d="M59.6595 19.2385H57.3471V20.4282H59.4589V21.444H57.3471V22.9278H59.753V23.9437H56.4648V18.2227H59.6595V19.2385Z" fill="#9C9C9C"/>
<path d="M64.6831 23.9437H63.8411V19.1583H63.8277L63.0123 23.9437H62.1168L61.3281 19.1583H61.3148V23.9437H60.4727V18.2227H61.7959L62.5846 22.7273H62.598L63.3733 18.2227H64.6831V23.9437Z" fill="#9C9C9C"/>
<path d="M67.5912 23.9437H66.6823V21.7782L65.1719 18.2227H66.2546L67.1501 20.7089L68.019 18.2227H69.0482L67.5912 21.7916V23.9437Z" fill="#9C9C9C"/>
<path d="M73.0762 21.9386C73.0762 23.4491 72.3812 24.0907 71.2852 24.0907C70.8842 24.0907 70.296 23.9704 69.9084 23.3956C69.6678 23.0481 69.5742 22.5802 69.5742 22.0055V18.2227H70.4965V21.9386C70.4965 22.7273 70.8441 23.0882 71.2718 23.0882C71.9 23.0882 72.154 22.6872 72.154 22.0055V18.236H73.0762V21.952V21.9386Z" fill="#9C9C9C"/>
<path d="M76.1337 18.2227H76.9758V23.9437H76.0668L74.2891 19.8668H74.2757V23.9437H73.4336V18.2227H74.396L76.1203 22.2059H76.1337V18.2227Z" fill="#9C9C9C"/>
<path d="M79.8862 20.8585H81.704V23.9463H81.1025L81.0089 23.2245C80.7817 23.572 80.4476 24.0933 79.6456 24.0933C78.603 24.0933 77.6406 23.1042 77.6406 21.0991C77.6406 19.5352 78.2955 18.0648 79.7659 18.0782C81.1025 18.0782 81.6238 19.2144 81.6773 20.003H80.7684C80.7684 19.7758 80.461 19.0673 79.8194 19.0673C79.1778 19.0673 78.5629 19.6555 78.5629 21.1259C78.5629 22.6898 79.2178 23.0908 79.8327 23.0908C80.0332 23.0908 80.7016 22.9838 80.8887 21.8343H79.8728V20.8719L79.8862 20.8585Z" fill="#9C9C9C"/>
<path d="M87.7208 21.9386C87.7208 23.4491 87.0257 24.0907 85.9296 24.0907C85.5286 24.0907 84.9405 23.9704 84.5529 23.3956C84.3123 23.0481 84.2188 22.5802 84.2188 22.0055V18.2227H85.141V21.9386C85.141 22.7273 85.4886 23.0882 85.9163 23.0882C86.5446 23.0882 86.7985 22.6872 86.7985 22.0055V18.236H87.7208V21.952V21.9386Z" fill="#9C9C9C"/>
<path d="M91.2703 18.2227H92.1124V23.9437H91.2035L89.4258 19.8668H89.4124V23.9437H88.5703V18.2227H89.5193L91.257 22.2059H91.2703V18.2227Z" fill="#9C9C9C"/>
<path d="M93.8316 18.2227H92.9219V23.9437H93.8316V18.2227Z" fill="#9C9C9C"/>
<path d="M97.1902 18.2227H98.1258L96.6556 23.9437H95.7867L94.3164 18.2227H95.2921L96.2278 22.5535H96.2412L97.1902 18.2227Z" fill="#9C9C9C"/>
<path d="M101.911 19.2385H99.5987V20.4282H101.724V21.444H99.5987V22.9278H102.005V23.9437H98.7031V18.2227H101.911V19.2385Z" fill="#9C9C9C"/>
<path d="M102.756 23.9437H103.638V21.7114H104.573C105.242 21.7114 105.282 22.0188 105.282 22.7941C105.282 23.3822 105.322 23.6763 105.375 23.9437H106.378V23.7966C106.177 23.703 106.177 23.4892 106.177 22.6604C106.177 21.5911 105.99 21.4173 105.629 21.2034C106.057 21.0163 106.311 20.4683 106.311 19.84C106.311 19.3455 106.097 18.2227 104.934 18.2227H102.742V23.9437H102.756ZM103.638 20.7356V19.1984H104.761C105.295 19.1984 105.402 19.6395 105.402 19.9469C105.402 20.5084 105.175 20.7356 104.707 20.7356H103.638Z" fill="#9C9C9C"/>
<path d="M107.767 22.1873C107.767 22.5081 107.888 23.1096 108.69 23.1096C109.117 23.1096 109.599 22.9759 109.599 22.3744C109.599 21.92 109.278 21.813 108.823 21.666L108.355 21.519C107.647 21.3051 106.979 21.1046 106.979 19.8347C106.979 19.1931 107.233 18.0703 108.649 18.0703C109.986 18.0703 110.334 19.2199 110.347 19.9149H109.478C109.452 19.661 109.385 19.0595 108.583 19.0595C108.235 19.0595 107.821 19.2332 107.821 19.7412C107.821 20.1823 108.101 20.2759 108.275 20.3427L109.331 20.6902C109.919 20.8774 110.467 21.1982 110.467 22.2274C110.467 23.9517 109.144 24.0988 108.756 24.0988C107.179 24.0988 106.898 22.8958 106.898 22.1873H107.767Z" fill="#9C9C9C"/>
<path d="M112.488 18.2227H111.578V23.9437H112.488V18.2227Z" fill="#9C9C9C"/>
<path d="M115.184 23.9437H114.275V19.2385H112.965V18.2227H116.494V19.2385H115.184V23.9437Z" fill="#9C9C9C"/>
<path d="M119.502 18.2227L118.646 20.7089L117.737 18.2227H116.668L118.165 21.7782V23.9437H119.074V21.805L120.531 18.2227H119.502Z" fill="#9C9C9C"/>
<path d="M58.8431 13.6575V7.78947H57.199V6.13199H58.8431V1.17291H60.8214V16.3576H58.8431V13.7511L57.6669 15.0209C57.6669 15.0209 57.5599 14.9407 57.3728 14.8071C57.1856 14.6734 56.9585 14.4729 56.6778 14.1922C56.1431 13.6976 55.7287 13.1897 55.3946 12.6684C55.0738 12.1471 54.9 11.8797 54.8732 11.8396C54.8465 11.8797 54.6594 12.1872 54.2851 12.7619C53.9108 13.3233 53.5099 13.8046 53.0688 14.2056C52.8549 14.4061 52.6276 14.5932 52.4271 14.7536C52.2133 14.9274 52.1064 15.0209 52.0797 15.0209L50.8633 13.6709C50.8633 13.6709 51.0237 13.5372 51.3044 13.31C51.5717 13.0827 51.9059 12.7352 52.3203 12.2406C53.2025 11.1713 53.6703 10.0886 53.7237 8.96576C53.7772 7.85631 53.8039 7.16124 53.8039 6.88053V1.46698H55.9426V6.82705C55.9426 7.08102 55.9693 7.77614 56.0227 8.91232C56.0762 10.0485 56.5441 11.1579 57.4263 12.2273C57.7605 12.6416 58.0545 12.9624 58.3085 13.1763C58.5624 13.3902 58.7228 13.5372 58.8298 13.604M61.6367 1.13281H63.6149V16.3175H61.6367V1.13281Z" fill="#9C9C9C"/>
<path d="M75.424 7.79911V10.4591C74.9161 10.2319 74.3814 10.0581 73.8067 9.95119C73.2319 9.84426 72.6972 9.79076 72.1759 9.79076C71.6546 9.79076 71.1333 9.84425 70.5719 9.93781C70.0105 10.0314 69.4625 10.1918 68.9412 10.419C68.2729 10.6997 67.6981 11.074 67.2303 11.5552C66.7625 12.0364 66.5353 12.6246 66.5353 13.333C66.5353 14.0414 66.7892 14.6697 67.2838 15.1509C67.7784 15.6454 68.3798 16.0197 69.0883 16.3004C69.5828 16.5143 70.1041 16.6613 70.6521 16.7549C71.2001 16.8485 71.7081 16.8886 72.2027 16.8886C72.724 16.8886 73.2586 16.8351 73.82 16.7281C74.3814 16.6212 74.9161 16.4475 75.424 16.2202C76.0388 15.9395 76.5602 15.5519 76.9745 15.0707C77.3889 14.5895 77.6027 14.0147 77.6027 13.333C77.6027 12.7048 77.4289 12.1701 77.0814 11.7156C76.7339 11.2611 76.2929 10.9002 75.7315 10.6329H77.576V1.22266H75.424V2.71973H73.7799V1.54345H66.0273V9.1358H73.7799V7.81249H75.424V7.79911ZM73.7799 4.49751H75.424V5.99458H73.7799V4.49751ZM74.4482 11.9963C75.0096 12.3706 75.3037 12.8117 75.3037 13.3062C75.3037 13.8008 75.023 14.2553 74.4616 14.6429C73.9002 15.0306 73.1383 15.2177 72.1893 15.2177C71.2403 15.2177 70.4382 15.0306 69.81 14.6429C69.1818 14.2553 68.861 13.8142 68.861 13.3062C68.861 12.7983 69.1818 12.3706 69.81 11.9963C70.4382 11.622 71.2403 11.4215 72.1893 11.4215C73.1383 11.4215 73.8869 11.6087 74.4616 11.9963M71.6546 7.46494H68.1927V3.1742H71.6546V7.46494Z" fill="#9C9C9C"/>
<path d="M85.4282 1.52167V3.16576H82.2871V13.084H83.9044C84.1584 13.084 84.4391 13.084 84.7332 13.084C85.0406 13.084 85.3212 13.0572 85.5885 13.0038C85.9093 12.9503 86.15 12.8835 86.3104 12.8166C86.4708 12.7498 86.5644 12.723 86.5777 12.723V1.1875H88.7297V6.1332H89.8792V1.1875H92.0446V16.3722H89.8792V7.79068H88.7297V16.3722H86.5777V14.4073C86.5777 14.4073 86.444 14.4474 86.2034 14.5142C85.9628 14.5677 85.7356 14.6212 85.5217 14.6345C85.2544 14.6613 84.9871 14.6746 84.693 14.688C84.4123 14.7013 84.0916 14.7147 83.7307 14.7147H80.1484V1.50829H85.4149L85.4282 1.52167Z" fill="#9C9C9C"/>
<path d="M94.4668 4.57207C94.1861 5.01318 94.0391 5.53447 94.0391 6.14935C94.0391 7.21869 94.4401 8.11424 95.2555 8.83605C96.0575 9.55786 97.0466 9.9188 98.1961 9.9188C99.3456 9.9188 100.335 9.55786 101.163 8.83605C101.992 8.11424 102.407 7.21869 102.407 6.14935C102.407 5.53447 102.273 5.02651 102.006 4.62551C101.738 4.2245 101.404 3.85025 100.976 3.51608H102.313V1.87194H99.359V0.882812H97.0332V1.87194H94.1326V3.51608H95.3891C95.0416 3.79678 94.7341 4.1443 94.4534 4.58541M103.596 1.2036V9.9589H105.748V5.82852H107.312V4.18442H105.748V1.21698H103.596V1.2036ZM94.8411 12.3515H103.596V16.4017H105.748V10.7074H94.8411V12.3515ZM99.613 4.55869C100.054 4.90623 100.268 5.44088 100.268 6.16269C100.268 6.8845 100.041 7.4459 99.5996 7.79344C99.1585 8.14098 98.6907 8.32815 98.1961 8.32815C97.7016 8.32815 97.2604 8.15435 96.8327 7.79344C96.405 7.4459 96.2044 6.89786 96.2044 6.16269C96.2044 5.42751 96.4183 4.9196 96.8327 4.55869C97.2471 4.21115 97.7149 4.02403 98.2228 4.02403C98.7307 4.02403 99.1852 4.19779 99.6263 4.55869" fill="#9C9C9C"/>
<path d="M110.488 14.4129V7.47556H112.466V14.4129H113.803V7.47556H115.781V14.4129H116.997C116.997 14.4129 117.064 14.2526 117.158 14.012C117.251 13.7714 117.318 13.5441 117.358 13.3169C117.439 12.8357 117.492 12.3411 117.532 11.8332C117.572 11.3252 117.585 10.7772 117.585 10.1756V3.17144H109.499V1.52734H119.724V10.5232C119.724 11.1915 119.697 11.8064 119.644 12.3544C119.577 12.9426 119.497 13.4238 119.39 13.7981C119.296 14.1724 119.243 14.3728 119.229 14.3996H120.553V16.0437H108.844V14.3996H110.475L110.488 14.4129Z" fill="#9C9C9C"/>
<path d="M43.6751 0.757812V22.5056H40.0394V0.757812H35.6953V26.3152H48.0192V0.757812H43.6751Z" fill="#9C9C9C"/>
<path d="M0.820312 0.757812V14.3118H7.98476V22.5056H0.820312V26.3152H12.3423V10.5156H5.16444V4.56737H12.3423V0.757812H0.820312Z" fill="#9C9C9C"/>
<path d="M14.9102 0.757812V26.3152H19.2676V4.56737H21.8473V26.3152H26.1914V4.56737H28.7713V26.3152H33.1154V0.757812H14.9102Z" fill="#9C9C9C"/>
</svg>
