<svg width="123" height="47" viewBox="0 0 123 47" fill="none" xmlns="http://www.w3.org/2000/svg">
<path d="M22.8897 0.257812H0.0195312V23.1285H7.45133L11.4479 17.4075L15.4579 23.1285H22.8897V0.257812Z" fill="#9C9C9C"/>
<path d="M22.8771 23.125H15.4453L22.8771 33.7516V23.125Z" fill="#9C9C9C"/>
<path d="M17.6171 38.2049L11.4418 29.3828L5.26642 38.2049C4.18373 39.7555 2.03171 40.1297 0.481195 39.047C0.30743 38.9267 0.147032 38.7797 0 38.6327L0 46.0112H22.8835V38.6327C22.7365 38.7797 22.5761 38.9267 22.4023 39.047C20.8518 40.1297 18.7132 39.7555 17.6171 38.2049Z" fill="#9C9C9C"/>
<path d="M0.0195312 23.125V33.7516L7.45133 23.125H0.0195312Z" fill="#9C9C9C"/>
<path d="M88.0453 7.58594H83.9284V25.3772C82.6185 25.8584 80.7204 26.2861 79.2501 26.2861V13.2134H82.164V9.21669H63.9187V13.2134H66.8192V26.4866H63.4375V30.4833H76.5501C78.007 30.4833 81.068 30.3497 83.9284 29.561V37.6613C83.9284 38.7975 84.8507 39.7198 85.9869 39.7198C87.123 39.7198 88.0453 38.7975 88.0453 37.6613V21.1934H92.7637V17.1967H88.0453V7.58594ZM75.1199 26.4866H70.9361V13.2134H75.1199V26.4866Z" fill="#9C9C9C"/>
<path d="M117.857 23.103C118.766 20.0954 118.913 16.4998 118.913 14.9626V9.21484H96.7782V13.2115H114.783V14.9492C114.783 16.1656 114.649 20.4029 113.473 23.103H93.8242V27.0997H105.867V37.6595C105.867 38.7956 106.79 39.718 107.926 39.718C109.062 39.718 109.984 38.7956 109.984 37.6595V27.0997H122.83V23.103H117.831H117.857Z" fill="#9C9C9C"/>
<path d="M49.0022 18.7812H44.8452V23.0987H32V27.1222H38.857C38.0417 28.3653 37.5738 29.7955 37.5738 31.3461C37.5738 35.971 41.7709 39.7271 46.9304 39.7271C52.0899 39.7271 56.287 35.971 56.287 31.3461C56.287 29.8089 55.8192 28.3653 55.0038 27.1222H61.8475V23.0987H49.0022V18.7812ZM49.3631 34.9685C48.6413 35.2893 47.8126 35.4631 46.9304 35.4631C45.7007 35.4631 44.5646 35.1021 43.6824 34.514C42.5462 33.7521 41.8244 32.6026 41.8244 31.3193C41.8244 29.0336 44.1235 27.189 46.9438 27.189C49.7641 27.189 52.0498 29.047 52.0498 31.3193C52.0498 32.8833 50.9671 34.26 49.3765 34.9551L49.3631 34.9685Z" fill="#9C9C9C"/>
<path d="M46.924 13.4468C50.0785 18.6064 55.5588 20.7852 58.8737 21.3065V16.989C56.5746 16.4543 50.6265 14.4359 49.1027 7.60547H44.7586C43.2348 14.4493 37.2466 16.4677 34.9609 16.989V21.3065C38.2758 20.7985 43.7695 18.6064 46.924 13.4468Z" fill="#9C9C9C"/>
</svg>
