<svg width="118" height="36" viewBox="0 0 118 36" fill="none" xmlns="http://www.w3.org/2000/svg">
<path d="M45.4523 5.99219H40.6136L46.7087 12.8895L40.1992 20.2279H44.7973L50.9459 12.8895" fill="#9C9C9C"/>
<path d="M16.2368 13.1373H16.1699L5.86432 0.238281H0.4375V20.4489H5.43659V7.44298H5.50342L16.2368 20.4489H21.2225V0.238281H16.2368V13.1373ZM33.386 18.0562C30.8063 18.1899 27.9726 17.1874 28.1463 14.367H39.8822V13.712C39.8822 7.10881 35.4044 5.59835 31.7419 5.59835C28.0795 5.59835 23.0537 7.53657 23.0537 13.1907C23.0537 18.8449 28.4003 20.7563 31.8756 20.7563C34.8964 20.7563 37.3158 19.9276 37.3158 19.9276L39.8688 15.971C39.8688 15.971 36.7277 18.0696 33.386 18.0696M31.7018 8.75295C33.7068 8.75295 34.8296 9.72871 35.0969 11.7872H28.2132C28.6142 9.66188 30.0444 8.75295 31.7018 8.75295ZM48.7308 16.9735L51.2705 20.2618H56.7374L51.4977 13.6853L48.7308 16.9735ZM56.47 6.01272H51.2036L49.0249 9.03364L51.5111 12.1214L56.47 6.01272ZM39.8688 6.01272L45.4026 12.91L39.4411 20.2618H40.1495L46.6724 12.91L40.5772 6.01272" fill="#9C9C9C"/>
<path d="M68.2555 12.8051H73.8561C73.8828 16.6948 71.3164 18.9538 67.4401 18.9538C62.9891 18.9538 59.9549 15.8661 59.9549 10.4793C59.9549 5.09243 63.3633 2.3522 67.3733 2.3522C70.8219 2.3522 72.5996 3.80918 73.6957 6.97711L75.821 6.56275C74.6313 2.7131 71.7843 0.667969 67.4 0.667969C61.7995 0.667969 57.7227 4.50428 57.7227 10.5595C57.7227 16.6146 61.1712 20.6113 67.2396 20.6113C70.9021 20.6113 72.9071 18.9939 73.9363 17.3097H74.0031V20.2504H76.0081V11.2144H68.2421" fill="#9C9C9C"/>
<path d="M91.4638 16.9052V10.6896C91.4638 7.96276 89.8732 6.33203 86.1706 6.33203C82.9225 6.33203 80.6235 7.37465 78.6586 8.8851L79.8082 9.99453C81.5324 8.75141 83.377 7.84249 85.9835 7.84249C88.1489 7.84249 89.3385 8.7514 89.3385 10.6495V11.3446C80.9577 12.4139 78.1641 14.3788 78.1641 17.0789C78.1641 19.2043 79.8883 20.5142 82.829 20.5142C85.3018 20.5142 87.4271 19.7657 89.3385 18.3354C89.3385 19.1107 89.4989 19.7122 89.7128 20.287H91.9316C91.5841 19.5919 91.4638 18.576 91.4638 16.9185M89.3385 16.8918C87.6543 18.2419 85.6226 19.0439 83.2968 19.0439C81.4522 19.0439 80.2893 18.2954 80.2893 16.8651C80.2893 15.0739 82.2542 13.6169 89.3385 12.6278V16.8918Z" fill="#9C9C9C"/>
<path d="M102.101 7.94039L102.328 6.26953H101.954C98.6923 6.26953 96.7006 7.53938 95.4041 9.23697H95.3373V6.53688H93.1719V20.2245H95.3373V11.3222C96.6204 9.17013 98.7457 7.92701 101.446 7.92701C101.513 7.92701 102.101 7.95376 102.101 7.95376" fill="#9C9C9C"/>
<path d="M115.631 16.9039V1.05078H113.465V8.45602C112.182 7.26637 110.271 6.3307 108.145 6.3307C104.202 6.3307 101.168 8.6699 101.168 13.4419C101.168 18.2138 104.162 20.5129 107.958 20.5129C110.431 20.5129 112.129 19.4703 113.465 18.2806C113.465 19.0025 113.652 19.8178 113.839 20.2857H116.125C115.751 19.5906 115.631 18.5747 115.631 16.9172M113.465 16.7568C111.901 18.1336 110.364 18.9891 108.332 18.9891C105.579 18.9891 103.32 17.2514 103.32 13.482C103.32 9.71251 105.419 7.85449 108.332 7.85449C110.244 7.85449 111.834 8.65651 113.465 10.1135V16.7568Z" fill="#9C9C9C"/>
<path d="M9.98823 33.9232C11.5521 33.9232 12.1937 33.3885 12.1937 32.5197C12.1937 31.5974 11.4452 31.0894 9.62733 30.9558L4.26735 30.528C1.82127 30.3409 0.444518 29.4587 0.444518 27.5338C0.444518 25.3818 2.19554 24.5664 4.38765 24.5664H13.2764V26.1571H4.22725C2.95743 26.1571 2.249 26.5581 2.249 27.4804C2.249 28.3225 2.82376 28.777 4.72181 28.924L9.89466 29.3384C12.4744 29.5522 14.0249 30.3676 14.0249 32.4662C14.0249 34.2841 12.8086 35.5272 9.8813 35.5272H0.324219V33.9366" fill="#9C9C9C"/>
<path d="M27.2036 24.5859C30.0106 24.5859 31.3473 26.2033 31.3473 28.1549C31.3473 30.1065 29.9972 31.7372 27.2036 31.7372H19.5847V35.5334H17.8203V24.5859H27.2036ZM27.2838 30.1733C28.9012 30.1733 29.5294 29.0772 29.5294 28.1549C29.5294 27.2326 28.8878 26.1499 27.2838 26.1499H19.5847V30.1733" fill="#9C9C9C"/>
<path d="M39.6583 26.2568C37.2256 26.2568 36.3567 27.286 36.2364 29.2643H48.0658V30.8416H36.2364C36.3701 32.8065 37.2256 33.8224 39.6583 33.8224H48.2931V35.52H39.6583C35.8488 35.52 34.4453 33.6754 34.4453 30.053C34.4453 26.4306 35.8488 24.5859 39.6583 24.5859H48.2931V26.2702" fill="#9C9C9C"/>
<path d="M65.6312 26.2478H57.0098C54.2029 26.2478 53.6014 27.531 53.6014 30.0038C53.6014 32.4767 54.2296 33.7465 57.0098 33.7465H65.6312V35.4709H57.0098C53.2137 35.4709 51.7969 33.6396 51.7969 29.9905C51.7969 26.3413 53.2004 24.5234 57.0098 24.5234H65.6312" fill="#9C9C9C"/>
<path d="M73.9119 35.5412V26.1977H68.2578V24.5938H81.3169V26.1977H75.6762V35.5412" fill="#9C9C9C"/>
<path d="M84.6797 24.5859H94.1298C96.8031 24.5859 98.2735 25.8959 98.2735 27.9276C98.2735 29.5049 97.4046 30.4941 95.9209 30.8684C97.3512 31.2827 98.0061 32.2317 98.0061 33.4214V35.52H96.1883V33.3947C96.1883 32.5125 95.6269 31.6703 94.0764 31.6703H86.4574V35.5334H84.693V24.5859H84.6797ZM94.2501 30.1064C95.9209 30.1064 96.469 29.0237 96.469 28.1148C96.469 27.2058 95.9343 26.1499 94.2501 26.1499H86.4441V30.1064" fill="#9C9C9C"/>
<path d="M116.574 35.5359H114.69L113.206 32.5551H104.638L103.154 35.5359H101.27L105.667 26.7271C106.376 25.3102 107.218 24.4414 108.929 24.4414C110.639 24.4414 111.468 25.3102 112.19 26.7271L116.588 35.5359H116.574ZM110.439 27.1014C110.105 26.4331 109.69 26.0187 108.902 26.0187C108.113 26.0187 107.712 26.4331 107.378 27.1014L105.427 30.9911H112.377L110.439 27.1014Z" fill="#9C9C9C"/>
<path d="M114.5 24.6992V24.9265H115.035V26.4503H115.302V24.9265H115.837V24.6992H114.5ZM117.454 24.6992L116.959 26.1161L116.478 24.6992H116.131V26.4503H116.371V25.1136L116.853 26.4503H117.08L117.548 25.1136V26.4503H117.815V24.6992H117.467H117.454Z" fill="#9C9C9C"/>
</svg>
