<svg width="135" height="24" viewBox="0 0 135 24" fill="none" xmlns="http://www.w3.org/2000/svg">
<path d="M18.4613 6.73828H0.777344V10.0131H7.98193V23.1126H11.2567V10.0131H18.4613V6.73828Z" fill="#9C9C9C"/>
<path d="M46.3013 23.2196L39.0834 15.2529V23.1126H35.8086V6.73828L46.3013 17.7525L56.7807 6.73828V23.1126H53.5059V15.2529L46.3013 23.2196Z" fill="#9C9C9C"/>
<path d="M97.7543 6.73828H80.0703V10.0131H97.7543V6.73828Z" fill="#9C9C9C"/>
<path d="M97.7543 13.2891H80.0703V16.5639H97.7543V13.2891Z" fill="#9C9C9C"/>
<path d="M97.7543 19.832H80.0703V23.1069H97.7543V19.832Z" fill="#9C9C9C"/>
<path d="M104.314 23.1126H101.039V6.73828L115.448 16.5495V6.73828H118.723V23.1126L104.314 13.0073V23.1126Z" fill="#9C9C9C"/>
<path d="M122.016 0.757812V12.9751H134.233V0.757812H122.016ZM123.339 12.2132C123.031 12.2132 122.778 11.9592 122.778 11.6518C122.778 11.3443 123.031 11.0903 123.339 11.0903C123.646 11.0903 123.9 11.3443 123.9 11.6518C123.9 11.9592 123.646 12.2132 123.339 12.2132ZM123.339 2.65588C123.031 2.65588 122.778 2.40193 122.778 2.0945C122.778 1.78706 123.031 1.53307 123.339 1.53307C123.646 1.53307 123.9 1.78706 123.9 2.0945C123.9 2.40193 123.646 2.65588 123.339 2.65588ZM131.573 10.3285H124.662V3.4178H131.573V10.3285ZM132.896 12.2265C132.589 12.2265 132.335 11.9726 132.335 11.6652C132.335 11.3577 132.589 11.1037 132.896 11.1037C133.203 11.1037 133.457 11.3577 133.457 11.6652C133.457 11.9726 133.203 12.2265 132.896 12.2265ZM132.896 2.66926C132.589 2.66926 132.335 2.41527 132.335 2.10783C132.335 1.8004 132.589 1.54645 132.896 1.54645C133.203 1.54645 133.457 1.8004 133.457 2.10783C133.457 2.41527 133.203 2.66926 132.896 2.66926Z" fill="#9C9C9C"/>
<path d="M18.3502 23.1126L24.3518 13.1009L30.3533 23.1126H34.1761L24.3518 6.73828L14.5273 23.1126H18.3502Z" fill="#9C9C9C"/>
<path d="M76.8029 6.73828L63.3295 13.4751V6.73828H60.0547V23.1126H63.3295V16.3758L76.8029 23.1126V19.2897L67.7805 14.9188L76.8029 10.5612V6.73828Z" fill="#9C9C9C"/>
</svg>
