<svg width="86" height="49" viewBox="0 0 86 49" fill="none" xmlns="http://www.w3.org/2000/svg">
<path d="M57.1978 40.0401V26.2188H44.0586V31.9665H51.2899V34.3057H44.0586V48.127H57.1978V42.3793H49.9666V40.0401H57.1978Z" fill="#9C9C9C"/>
<path d="M57.8398 26.2188V48.127H63.7612V39.5856H64.8573V34.2522H63.7612V26.2188H57.8398Z" fill="#9C9C9C"/>
<path d="M42.2065 26.2188H36.2852V42.0584H42.2065V26.2188Z" fill="#9C9C9C"/>
<path d="M22.4648 39.5938V48.1218H42.1805V42.7884H28.3728V39.5938H22.4648Z" fill="#9C9C9C"/>
<path d="M85.3579 42.7884H71.5504V39.5938H65.6289V48.1218H85.3579V42.7884Z" fill="#9C9C9C"/>
<path d="M78.1328 37.1512H79.4427V42.0702H85.3641V26.2305H79.4427V27.6875H78.1328V26.2305H65.6484V38.8889H78.1328V37.1645V37.1512ZM78.1328 31.5505H79.4427V33.2748H78.1328V31.5505ZM72.2115 34.6115H71.5565V30.4811H72.2115V34.6115Z" fill="#9C9C9C"/>
<path d="M3.79613 37.0977C4.3709 36.8838 4.9189 36.563 5.44019 36.1754C5.94812 35.8145 6.40261 35.3199 6.80361 34.6917C7.2046 35.3199 7.63228 35.8145 8.16694 36.1754C8.67487 36.563 9.22295 36.8838 9.81108 37.0977C10.3858 37.3383 11.0007 37.4853 11.6557 37.5789C12.2973 37.6725 12.9522 37.7527 13.6071 37.7794V32.8203C12.8586 32.7535 12.2037 32.5797 11.6289 32.3391C11.0408 32.0985 10.5729 31.6841 10.2521 31.0693H13.4735V26.2305H0.147012V31.0693H3.34164C3.00747 31.6841 2.55298 32.0851 1.97822 32.3391C1.39009 32.5797 0.73516 32.7535 0 32.8203L0 37.7794C0.654961 37.7527 1.29658 37.6858 1.95155 37.5789C2.59314 37.4853 3.19464 37.3383 3.79613 37.0977Z" fill="#9C9C9C"/>
<path d="M23.5384 37.4564C24.6746 38.4055 26.3587 38.8733 28.6177 38.8733C30.8766 38.8733 32.5208 38.4055 33.6837 37.4564C34.8198 36.5341 35.3945 35.0504 35.3945 33.0053V31.8557C35.3945 29.8106 34.8064 28.3269 33.6569 27.3778C32.494 26.4555 30.8098 25.9609 28.6177 25.9609C26.4256 25.9609 24.6746 26.4421 23.5384 27.3778C22.3755 28.3269 21.8008 29.8106 21.8008 31.8557V33.0053C21.8008 35.0504 22.3755 36.5341 23.5384 37.4564ZM28.1633 31.1339C28.1633 31.0403 28.19 30.92 28.2568 30.773C28.2969 30.6794 28.4039 30.5992 28.6044 30.5992C28.7782 30.5992 28.9118 30.6661 28.9786 30.773C29.0187 30.92 29.0454 31.0403 29.0454 31.1339V33.7137C29.0454 33.834 29.0187 33.9543 28.9786 34.0479C28.9118 34.1949 28.7782 34.2484 28.6044 34.2484C28.4039 34.2484 28.2969 34.1949 28.2568 34.0479C28.19 33.9543 28.1633 33.834 28.1633 33.7137V31.1339Z" fill="#9C9C9C"/>
<path d="M20.1754 26.2188H14.2539V37.6607H20.1754V34.5997H21.2713V29.2664H20.1754V26.2188Z" fill="#9C9C9C"/>
<path d="M16.2005 38.375H4.85235C3.47559 38.375 2.39294 38.7894 1.63105 39.5646C0.842422 40.3667 0.441406 41.583 0.441406 43.2405C0.441406 44.898 0.842422 46.1144 1.63105 46.9164C2.39294 47.6917 3.47559 48.1061 4.85235 48.1061H16.2005C17.5639 48.1061 18.66 47.6917 19.4486 46.9164C20.2105 46.1144 20.6115 44.898 20.6115 43.2405C20.6115 41.583 20.2105 40.3667 19.4486 39.5646C18.66 38.7894 17.5639 38.375 16.2005 38.375ZM14.5831 43.5346C14.4896 43.5881 14.3827 43.6014 14.3025 43.6014H6.76375C6.65682 43.6014 6.56324 43.5747 6.49641 43.5346C6.40284 43.4811 6.36277 43.3876 6.36277 43.2405C6.36277 43.0935 6.40284 42.9999 6.49641 42.9465C6.56324 42.893 6.64346 42.8796 6.76375 42.8796H14.3025C14.3961 42.8796 14.5029 42.9064 14.5831 42.9465C14.65 42.9999 14.6901 43.0935 14.6901 43.2405C14.6901 43.3876 14.65 43.4811 14.5831 43.5346Z" fill="#9C9C9C"/>
<path d="M58.8501 0.0195312H46.4727V20.6312H58.8501V0.0195312ZM52.9688 15.5919H52.3539V5.05883H52.9688V15.5919Z" fill="#9C9C9C"/>
<path d="M21.6962 11.4153C21.8967 10.9742 22.1106 10.6801 22.3378 10.5197C22.5383 10.386 22.7656 10.2925 23.0195 10.2925C23.3938 10.2925 23.6745 10.4529 23.8482 10.7469C24.0086 11.0677 24.1022 11.4554 24.1022 11.9366V20.6117H29.6493V11.4955C29.6493 10.2657 29.5023 9.20974 29.2617 8.3409C28.9943 7.49879 28.6468 6.80372 28.2057 6.25568C27.7512 5.73437 27.2166 5.33336 26.6418 5.09276C26.0269 4.86552 25.3854 4.74522 24.7304 4.74522C24.3561 4.74522 23.9016 4.81206 23.367 4.94572C22.7922 5.10613 22.2576 5.42693 21.7229 5.90814V0L16.1758 0V20.6117H21.7229V11.4019L21.6962 11.4153Z" fill="#9C9C9C"/>
<path d="M32.8263 18.8047C33.4812 19.473 34.2966 19.9943 35.2858 20.3553C36.2348 20.7162 37.3442 20.9033 38.6006 20.9033C39.4695 20.9033 40.3516 20.8365 41.2606 20.7028C42.1294 20.5691 42.9581 20.3152 43.6933 19.9944V15.7838C43.3591 15.8774 43.0116 15.9442 42.6374 15.9843C42.223 16.0511 41.8354 16.1046 41.4477 16.118C41.0334 16.1581 40.6591 16.2115 40.2982 16.2115C39.924 16.2383 39.6031 16.2383 39.309 16.1848C38.6541 16.1447 38.1328 16.0244 37.7452 15.8373C37.3308 15.6769 37.0234 15.4229 36.7962 15.0754H44.5888C44.5888 14.9818 44.6155 14.8481 44.6556 14.6342C44.6556 14.4471 44.6824 14.2199 44.6958 13.9525C44.6958 13.7253 44.7226 13.4713 44.7359 13.1906V12.4822C44.7359 11.5198 44.6156 10.5841 44.3616 9.64843C44.1077 8.72612 43.72 7.91073 43.1854 7.17555C42.6507 6.46711 41.9423 5.89235 41.1269 5.43787C40.2581 4.99677 39.2556 4.76953 38.0793 4.76953C36.7961 4.76953 35.7134 4.99676 34.8045 5.41113C33.8822 5.85224 33.1204 6.41365 32.5323 7.14883C31.9174 7.91073 31.4762 8.77958 31.2089 9.78209C30.9148 10.7846 30.7812 11.8673 30.7812 13.0169C30.7812 14.2466 30.9416 15.3293 31.3159 16.2917C31.65 17.2541 32.158 18.0963 32.8397 18.7913L32.8263 18.8047ZM36.9966 10.0361C37.1971 9.84892 37.4912 9.74199 37.8254 9.74199C38.2798 9.74199 38.614 9.86229 38.8145 10.0895C39.0016 10.3168 39.122 10.5975 39.2022 10.8915H36.4753C36.5823 10.544 36.7427 10.2767 36.9966 10.0494V10.0361Z" fill="#9C9C9C"/>
<path d="M69.9601 11.1006C70.4948 10.8467 71.0161 10.4991 71.5106 10.0714C71.9784 9.65702 72.4196 9.14908 72.7938 8.52084C73.1681 9.16244 73.5824 9.67039 74.077 10.0714C74.5582 10.5125 75.0661 10.8467 75.6275 11.1006C76.1622 11.3813 76.7369 11.5818 77.3652 11.7155C77.9667 11.8759 78.5815 11.9962 79.1964 12.0363V6.70295C78.6751 6.60938 78.2073 6.44898 77.7795 6.24848C77.3251 6.06134 76.9508 5.80738 76.6434 5.44647C76.3092 5.12567 76.0419 4.67119 75.8815 4.12315C75.681 3.60184 75.5874 2.9335 75.5874 2.13149V0.0195312H70.0136V2.13149C70.0136 2.9335 69.9066 3.60184 69.7462 4.12315C69.5457 4.67119 69.2918 5.12567 68.9843 5.44647C68.6502 5.80738 68.2625 6.06134 67.8348 6.24848C67.3804 6.44898 66.9125 6.60938 66.418 6.70295V12.0363C67.0328 11.9962 67.6343 11.8759 68.2492 11.7155C68.8507 11.5818 69.4254 11.368 69.9868 11.1006H69.9601Z" fill="#9C9C9C"/>
<path d="M85.3629 20.6217V12.6016H66.7969V17.6141H79.7891V20.6217H85.3629Z" fill="#9C9C9C"/>
<path d="M85.3629 0.0195312H79.7891V11.9027H85.3629V0.0195312Z" fill="#9C9C9C"/>
<path d="M4.50452 20.6195H10.0517V5.68872H14.6096V0.0078125H0L0 5.68872H4.50452V20.6195Z" fill="#9C9C9C"/>
<path d="M65.0621 0.0195312H59.4883V20.6312H65.0621V0.0195312Z" fill="#9C9C9C"/>
</svg>
