<svg width="111" height="62" viewBox="0 0 111 62" fill="none" xmlns="http://www.w3.org/2000/svg">
<path d="M1.85417 56.5424L0.758115 56.783L0.34375 55.0988L2.37547 54.5508H4.08638V61.3812H1.85417V56.5424Z" fill="#9C9C9C"/>
<path d="M4.78125 58.0221V57.9954C4.78125 56.124 5.9976 54.4531 8.05605 54.4531C10.1145 54.4531 11.3175 56.0973 11.3175 57.9686C11.3175 59.8533 10.1011 61.5242 8.04268 61.5242C5.98424 61.5242 4.78125 59.8801 4.78125 58.0087M9.07191 58.0087V57.982C9.07191 57.0463 8.65755 56.4047 8.04268 56.4047C7.42782 56.4047 7.02683 57.0195 7.02683 57.9552C7.02683 58.9043 7.44119 59.5459 8.05605 59.5459C8.67091 59.5459 9.05854 58.931 9.05854 57.9954" fill="#9C9C9C"/>
<path d="M11.8594 58.0221V57.9954C11.8594 56.124 13.0757 54.4531 15.1342 54.4531C17.1926 54.4531 18.3956 56.0973 18.3956 57.9686C18.3956 59.8533 17.1793 61.5242 15.1208 61.5242C13.0624 61.5242 11.8594 59.8801 11.8594 58.0087M16.1367 58.0087V57.982C16.1367 57.0463 15.7223 56.4047 15.1074 56.4047C14.4926 56.4047 14.0916 57.0195 14.0916 57.9552C14.0916 58.9043 14.506 59.5459 15.1208 59.5459C15.7357 59.5459 16.1233 58.931 16.1233 57.9954" fill="#9C9C9C"/>
<path d="M20.1953 56.4131C20.1953 55.3571 20.9171 54.4883 22.0399 54.4883C23.1627 54.4883 23.8978 55.3572 23.8978 56.3998C23.8978 57.4557 23.1493 58.3112 22.0399 58.3112C20.9305 58.3112 20.1953 57.4557 20.1953 56.4131ZM26.5177 54.5952H27.988L24.9404 58.3246L22.481 61.3722H21.024L24.0181 57.7231L26.5311 54.5952H26.5177ZM22.5612 56.3998C22.5612 55.9854 22.334 55.7314 22.0533 55.7314C21.7726 55.7314 21.5453 55.9854 21.5453 56.3998C21.5453 56.8275 21.7993 57.0814 22.0533 57.0814C22.3072 57.0814 22.5612 56.8275 22.5612 56.4131V56.3998ZM25.1008 59.5944V59.5677C25.1008 58.5251 25.8226 57.6696 26.9454 57.6696C28.0682 57.6696 28.79 58.5251 28.79 59.5677V59.5944C28.79 60.6237 28.0415 61.4925 26.9454 61.4925C25.8494 61.4925 25.1008 60.6237 25.1008 59.5944ZM27.4533 59.5944V59.5677C27.4533 59.1667 27.2127 58.8994 26.9454 58.8994C26.6781 58.8994 26.4375 59.1533 26.4375 59.5677V59.5944C26.4375 59.9954 26.6915 60.2628 26.9454 60.2628C27.1994 60.2628 27.4533 60.0088 27.4533 59.5944Z" fill="#9C9C9C"/>
<path d="M31.3086 54.4258H33.6878V56.9388H35.8666V54.4258H38.2325V61.5369H35.8666V58.9839H33.6878V61.5369H31.3086V54.4258Z" fill="#9C9C9C"/>
<path d="M39.1133 58.3423V54.4258H41.5193V58.3155C41.5193 59.1977 41.9737 59.572 42.6153 59.572C43.2569 59.572 43.7114 59.2245 43.7114 58.369V54.4258H46.1307V58.3022C46.1307 60.7349 44.7272 61.684 42.602 61.684C40.4767 61.684 39.1133 60.7082 39.1133 58.3556" fill="#9C9C9C"/>
<path d="M47.0156 54.4258H49.4884L50.9989 56.9254L52.5226 54.4258H55.0088V61.5369H52.6296V58.0081L50.9989 60.5478H50.9588L49.328 58.0081V61.5369H47.0156V54.4258Z" fill="#9C9C9C"/>
<path d="M58.4004 54.3828H60.7529L63.747 61.5341H61.1672L60.793 60.585H58.3068L57.9459 61.5341H55.4062L58.4004 54.3828ZM60.2048 58.9008L59.5499 57.1765L58.8949 58.9008H60.1915H60.2048Z" fill="#9C9C9C"/>
<path d="M64.1055 54.4258H66.3243L68.8506 57.567V54.4258H71.1897V61.5369H69.0912L66.458 58.2621V61.5369H64.1055V54.4258Z" fill="#9C9C9C"/>
<path d="M73.6836 58.0083V57.9816C73.6836 55.8563 75.3544 54.2656 77.5866 54.2656C78.803 54.2656 79.7921 54.6666 80.554 55.335L79.2307 56.939C78.7629 56.538 78.255 56.3241 77.6535 56.3241C76.7312 56.3241 76.0628 57.0326 76.0628 57.995V58.0217C76.0628 59.0242 76.7579 59.7193 77.7604 59.7193C78.1614 59.7193 78.3886 59.6524 78.5758 59.5589V58.8504H77.3594V57.3266H80.7946V60.6149C80.0193 61.2431 78.95 61.6842 77.6668 61.6842C75.4613 61.6842 73.6836 60.2005 73.6836 57.995" fill="#9C9C9C"/>
<path d="M81.6094 54.4258H85.0847C86.3411 54.4258 87.1431 54.7466 87.6377 55.2411C88.0654 55.6689 88.2926 56.1902 88.2926 56.9254C88.2926 57.9814 87.758 58.7032 86.8892 59.1176L88.5332 61.5369H85.8332L84.4965 59.5052H83.9886V61.5369H81.6227V54.4258H81.6094ZM85.0045 57.8076C85.5792 57.8076 85.9268 57.5536 85.9268 57.1259V57.0991C85.9268 56.6447 85.5659 56.4174 85.0178 56.4174H83.9886V57.8076H85.0178H85.0045Z" fill="#9C9C9C"/>
<path d="M91.7659 54.3828H94.1184L97.0991 61.5341H94.5328L94.1585 60.585H91.6723L91.3114 61.5341H88.7852L91.7793 54.3828H91.7659ZM93.5704 58.9008L92.9154 57.1765L92.2605 58.9008H93.557H93.5704Z" fill="#9C9C9C"/>
<path d="M97.3594 54.4258H100.073C102.893 54.4258 104.297 55.8159 104.297 57.9145V57.9413C104.297 60.0399 102.853 61.5369 99.9926 61.5369H97.3594V54.4258ZM100.126 59.4651C101.209 59.4651 101.904 59.024 101.904 57.9947C101.904 56.9521 101.209 56.4976 100.126 56.4976H99.7253V59.4651H100.126Z" fill="#9C9C9C"/>
<path d="M104.898 54.4258H110.953V56.3773H107.224V57.0991H110.7V58.8101H107.224V59.5854H110.994V61.5369H104.898V54.4258Z" fill="#9C9C9C"/>
<path d="M43.2344 3.07025H45.921V10.9701H49.8909V3.07025H52.5776V0.15625H43.2344V3.07025Z" fill="#9C9C9C"/>
<path d="M59.0163 2.50263C58.0272 2.50263 57.399 2.75661 56.9178 3.05068V0.136719H53.1484V10.9505H56.9178V6.25871C56.9178 5.63047 57.1851 5.30968 57.7064 5.30968C58.2277 5.30968 58.5084 5.68393 58.5084 6.4191V10.9505H62.2778V5.73742C62.2778 3.63883 61.1149 2.48925 59.0163 2.48925" fill="#9C9C9C"/>
<path d="M68.3462 8.56074C67.1967 8.56074 66.9293 8.23995 66.8759 7.90578H68.1858C70.7789 7.90578 72.1022 7.11712 72.1022 5.5532C72.1022 3.66848 70.4715 2.49219 67.865 2.49219C64.764 2.49219 63.0664 4.09621 63.0664 7.01018C63.0664 9.92415 64.6036 11.2208 67.8917 11.2208C69.215 11.2208 70.4581 11.0604 71.6878 10.7529L71.8081 10.7262V8.21323L71.6076 8.25333C70.672 8.45383 69.2685 8.5474 68.3596 8.5474M67.7848 4.85814C68.2259 4.85814 68.4264 5.07202 68.4264 5.28589C68.4264 5.52649 68.2927 5.7537 67.2902 5.7537H66.8892C66.9293 5.12546 67.1967 4.85814 67.7848 4.85814Z" fill="#9C9C9C"/>
<path d="M32.432 22.7627C36.6291 20.9716 38.5539 18.0041 38.5539 14.4619C38.5539 8.39338 33.3543 6.375 27.1789 6.375H14.3203V34.5924H23.5833V24.6875L29.4646 34.5924H39.9974L32.432 22.7627ZM25.1071 18.3784H23.5833V12.8846H26.2433C28.0611 12.8846 28.8631 13.9005 28.8631 15.3174C28.8631 17.2556 27.5131 18.3918 25.0937 18.3918" fill="#9C9C9C"/>
<path d="M91.9811 35.3119C88.3454 35.3119 85.7656 34.0153 85.7656 29.2434V6.35938H94.5608V27.0111C94.5608 28.3077 94.9484 28.7087 96.0445 28.7087H97.0604V34.5767C95.9242 34.8975 94.3068 35.3119 91.9811 35.3119Z" fill="#9C9C9C"/>
<path d="M47.2101 26.369H50.9795C57.5157 26.369 60.5365 24.2837 60.5365 20.4608C60.5365 15.7691 56.7538 12.668 50.124 12.668C42.3848 12.668 38.2812 16.9052 38.2812 24.3907C38.2812 31.8761 42.1709 35.3114 50.1641 35.3114C53.5859 35.3114 56.7672 34.8703 59.7479 34.0549V28.12C57.2751 28.6814 53.6394 28.922 51.3938 28.922C48.52 28.922 47.2101 28.12 47.2101 26.3823M49.9101 18.2553C51.2602 18.2553 51.9419 19.0172 51.9419 19.8059C51.9419 21.0891 50.6854 21.4499 48.6403 21.4499H47.2101C47.2101 19.993 47.5576 18.2553 49.9101 18.2553Z" fill="#9C9C9C"/>
<path d="M72.142 12.6602C69.1211 12.6602 66.3008 13.0077 63.6275 13.6359V19.6109C65.3518 19.2367 68.8538 18.5549 71.4736 18.5549C74.7217 18.5549 75.096 19.8515 75.096 21.5892C75.096 21.5892 61.7695 19.651 61.7695 27.4973C61.7695 32.2025 65.5523 35.3036 72.1821 35.3036C79.9213 35.3036 84.0248 31.0529 84.0248 23.5809C84.0248 16.1088 80.1352 12.6735 72.142 12.6735M72.3959 29.1147C71.0459 29.1147 70.3642 28.3528 70.3642 27.5642C70.3642 24.971 75.096 25.9201 75.096 25.9201C75.096 27.3771 74.7484 29.1013 72.3959 29.1013" fill="#9C9C9C"/>
<path d="M40.2584 50.3052L37.5583 47.0036H35.4063V50.3052H30.6211V38.2617H39.2826C42.6242 38.2617 45.3243 39.6385 45.3243 42.6327C45.3243 44.5976 44.1748 45.8674 42.4371 46.509L45.7119 50.3186H40.2717L40.2584 50.3052ZM35.4063 43.9693H38.8683C39.7905 43.9693 40.4455 43.6619 40.4455 42.7663C40.4455 41.8708 39.7905 41.5633 38.8683 41.5633H35.4063V43.9693Z" fill="#9C9C9C"/>
<path d="M57.6932 48.4071H52.2263L51.3842 50.3052H46.3984L52.3866 38.2617H57.613L63.6012 50.3052H58.5353L57.6932 48.4071ZM56.3832 45.4798L54.953 42.2851L53.5228 45.4798H56.3832Z" fill="#9C9C9C"/>
<path d="M83.5948 38.2422L79.2239 50.2991H74.5456L72.3669 43.1478L70.2015 50.2991H65.5232L61.1523 38.2422H65.9376L67.996 45.4469L70.2951 38.2422H74.5189L76.8179 45.4469L78.8764 38.2422H83.5948Z" fill="#9C9C9C"/>
</svg>
