<svg width="107" height="36" viewBox="0 0 107 36" fill="none" xmlns="http://www.w3.org/2000/svg">
<path d="M22.6244 25.7748C21.0204 24.5985 18.7614 24.9594 17.5985 26.5902C17.3981 26.8709 17.0371 27.205 16.7164 27.3387C15.3797 27.8867 14.3371 27.2852 13.9094 26.7372C13.4148 26.1089 13.1876 25.3604 13.1876 24.545V7.26172L4.72656 12.956V24.5317C4.72656 25.9619 5.02062 27.3253 5.59538 28.6219C6.17014 29.9319 6.95877 31.068 7.97462 32.0438C8.97711 33.0196 10.14 33.8082 11.4633 34.3964C13.2678 35.1984 16.0213 35.5994 18.6278 34.6504C21.2075 33.581 22.6377 31.9904 23.4531 30.8542C24.616 29.2234 24.2551 26.9377 22.6511 25.748" fill="#9C9C9C"/>
<path d="M46.9429 17.1553C46.9429 15.8186 48.0123 14.7359 49.3356 14.7359C50.6589 14.7359 51.7014 15.8053 51.7148 17.1286V17.1553V30.8964H59.4273V17.1553C59.4273 17.1553 59.4273 17.1286 59.4273 17.1152C59.4407 15.7919 60.51 14.7359 61.8066 14.7359C63.1031 14.7359 64.1992 15.8186 64.1992 17.1553V30.8697H71.8983V17.1553C71.8983 11.5145 67.3671 6.92969 61.8066 6.92969C59.4541 6.92969 57.2887 7.75842 55.5644 9.13521C53.8401 7.75842 51.6747 6.92969 49.3222 6.92969C43.7617 6.92969 39.2305 11.5145 39.2305 17.1553V30.8964H46.9296V17.1553H46.9429Z" fill="#9C9C9C"/>
<path d="M46.9296 30.407C46.9296 32.5591 45.2053 34.3101 43.08 34.3101C40.9548 34.3101 39.2305 32.5591 39.2305 30.407C39.2305 28.255 40.9548 26.5039 43.08 26.5039C45.2053 26.5039 46.9296 28.255 46.9296 30.407Z" fill="#9C9C9C"/>
<path d="M59.4179 30.4539C59.4179 32.606 57.6936 34.357 55.5684 34.357C53.4431 34.357 51.7188 32.606 51.7188 30.4539C51.7188 28.3018 53.4431 26.5508 55.5684 26.5508C57.6936 26.5508 59.4179 28.3018 59.4179 30.4539Z" fill="#9C9C9C"/>
<path d="M71.8788 30.4539C71.8788 32.606 70.1545 34.357 68.0293 34.357C65.904 34.357 64.1797 32.606 64.1797 30.4539C64.1797 28.3018 65.904 26.5508 68.0293 26.5508C70.1545 26.5508 71.8788 28.3018 71.8788 30.4539Z" fill="#9C9C9C"/>
<path d="M105.672 20.8561C105.672 19.9471 105.525 19.2387 104.59 18.1693C103.921 17.394 102.638 17.2336 101.97 17.4208C100.633 17.795 100.072 18.6238 99.6039 19.8669C99.0826 21.2704 98.695 22.7408 97.8262 23.9839C96.3158 26.1493 93.883 27.8736 91.3701 28.2479C89.7261 28.4885 88.1488 28.3682 86.8255 27.9004C86.1171 27.6464 85.5557 27.3256 84.8339 26.8845C84.473 26.6706 83.9116 26.1894 83.5774 25.8419C82.5081 24.7592 81.8264 23.5562 81.4254 22.0591C81.3185 21.618 81.2383 21.1234 81.1982 20.5754C81.0512 18.5837 81.92 15.9237 83.8715 14.7207C84.4998 14.333 85.021 14.0924 85.4488 13.9989C86.3978 13.785 87.28 13.7583 88.0553 13.9187C89.1781 14.1593 90.0869 14.734 90.6884 15.5895L90.782 15.7098C90.9157 15.897 91.0493 16.1376 91.1562 16.4316C91.3835 17.0599 91.4236 17.7416 91.2498 18.2763C91.1696 18.5302 91.0226 18.8911 90.7552 19.105C90.6483 19.1986 90.4345 19.3055 90.2073 19.3456C90.0736 19.3723 89.9666 19.3456 89.8998 19.3055C89.7928 19.2387 89.6459 19.0248 89.6325 18.9045C89.4721 18.049 89.1379 16.993 87.9215 16.4717C87.3735 16.2445 86.7854 16.1643 86.2107 16.2579C85.0879 16.4183 84.1255 17.1802 83.6844 18.2362C83.0294 19.8134 83.4036 21.4308 83.9784 22.4333C84.5665 23.4893 85.6358 24.9463 88.1488 25.6013C89.2181 25.882 90.0602 25.882 91.0627 25.7349C92.1722 25.5745 93.8162 24.9998 95.193 23.5027C99.4702 18.851 97.5855 13.8117 95.9281 11.6864C92.386 6.71395 86.6919 7.14168 85.0344 7.38229C84.0052 7.52932 83.0161 7.81003 82.1873 8.17093C80.2759 9.01304 78.2308 10.8309 77.3486 12.1008C75.1031 15.3489 74.2877 19.1317 75.0095 23.0616C75.7046 26.8578 78.2174 30.5604 81.3987 32.4986L81.519 32.5788C81.8398 32.7659 82.1606 32.9664 82.4947 33.1402C84.8339 34.3699 87.3869 34.9447 90.1137 34.8912C90.7686 34.8779 91.4369 34.8244 92.0785 34.7308C92.2256 34.7041 92.386 34.6774 92.5464 34.6506C94.3242 34.3298 96.0885 33.7016 97.9197 32.7258C100.005 31.6163 101.943 29.6247 102.585 28.6623C103.681 27.0048 104.255 26.1761 104.897 24.3849C105.311 23.222 105.699 22.0056 105.686 20.8561" fill="#9C9C9C"/>
<path d="M3.95305 18.4879C2.66986 18.3809 1.52032 17.5255 1.09259 16.2022C0.531195 14.4645 1.46686 12.5797 3.19115 12.0183C3.29808 11.9782 3.49858 11.9248 3.77928 11.8713C5.38326 11.5505 6.89368 10.4009 8.2437 8.42266C9.27292 6.9122 9.28627 10.1871 10.77 11.243C12.2536 12.2857 14.6463 10.7217 13.617 12.2322C11.2512 15.6675 8.36401 17.7393 5.03574 18.3943C5.0892 18.3943 5.16939 18.3542 5.23623 18.3275C4.8085 18.4611 4.38075 18.5146 3.96639 18.4879" fill="#9C9C9C"/>
<path d="M12.2888 7.23509C11.6071 8.21087 10.7115 8.74555 10.2838 8.45148C9.86943 8.14404 10.0833 7.11479 10.765 6.13901C11.4467 5.16323 12.3423 4.62856 12.77 4.92263C13.1844 5.23007 12.9705 6.25931 12.2888 7.23509ZM18.6112 3.70625C17.7557 2.11559 16.2586 1.03288 14.414 0.658612C11.968 0.150672 9.45505 0.912582 7.85107 2.66364C5.48519 5.23007 5.00401 8.53168 4.56291 11.459C4.53618 11.606 4.52283 11.7531 4.49609 11.9001H7.32979V21.6445C8.49268 21.6579 9.50855 20.896 9.76251 19.6663C9.97638 18.637 9.94963 17.5543 9.90953 16.5518C12.0214 15.83 14.4007 14.9879 16.3388 13.4507C18.8785 11.4456 20.6696 7.52916 18.5978 3.70625" fill="#9C9C9C"/>
<path d="M35.0355 4.43845C35.0355 6.55041 33.3512 8.248 31.2794 8.248C29.2076 8.248 27.5234 6.53704 27.5234 4.43845C27.5234 2.33986 29.2076 0.628906 31.2794 0.628906C33.3512 0.628906 35.0355 2.33986 35.0355 4.43845Z" fill="#9C9C9C"/>
<path d="M106.981 10.626C106.981 12.7379 105.297 14.4355 103.225 14.4355C101.153 14.4355 99.4688 12.7245 99.4688 10.626C99.4688 8.52736 101.153 6.81641 103.225 6.81641C105.297 6.81641 106.981 8.52736 106.981 10.626Z" fill="#9C9C9C"/>
<path d="M35.2745 13.7964C35.2745 12.7271 34.9136 11.8181 34.1784 11.0028C33.4566 10.2141 32.6145 9.83984 31.5051 9.83984C30.1952 9.83984 29.1927 10.2275 28.4308 11.0161C27.6555 11.8315 27.2812 12.7137 27.2812 13.7831V20.3061H35.2611V13.7831L35.2745 13.7964Z" fill="#9C9C9C"/>
<path d="M27.2969 30.3624C27.2969 31.4184 27.6711 32.3139 28.4464 33.1293C29.2083 33.9313 30.2108 34.3056 31.5207 34.3056C32.6301 34.3056 33.4722 33.9447 34.194 33.1427C34.9292 32.3273 35.29 31.4184 35.29 30.3624V16.7148H27.3103V30.3624H27.2969Z" fill="#9C9C9C"/>
</svg>
