<svg width="266" height="266" viewBox="0 0 266 266" fill="none" xmlns="http://www.w3.org/2000/svg">
<circle cx="132.99" cy="132.99" r="132.99" fill="#D2FF52"/>
<path d="M37.9972 128.85V125.728H51.6749V128.85H46.7338V141.988H42.9382V128.85H37.9972ZM52.2813 141.988V129.793H55.9646V131.994H56.0769C56.5261 130.399 57.6041 129.613 58.9517 129.613C59.3111 129.613 59.7153 129.681 60.0297 129.748V133.049C59.6704 132.937 58.9966 132.87 58.525 132.87C57.11 132.87 56.0769 133.858 56.0769 135.318V141.988H52.2813ZM66.8574 142.213C63.0393 142.213 60.7035 139.832 60.7035 135.947C60.7035 132.174 63.0618 129.636 66.7226 129.636C70.1364 129.636 72.607 131.814 72.607 135.857V136.823H64.4318V136.89C64.4318 138.462 65.3975 139.473 66.9248 139.473C67.9579 139.473 68.7215 139.024 69.0359 138.305H72.562C72.1129 140.686 70.0241 142.213 66.8574 142.213ZM64.4318 134.599H69.0808C69.0584 133.297 68.1151 132.376 66.8125 132.376C65.4649 132.376 64.4879 133.33 64.4318 134.599ZM78.3565 135.003V141.988H74.5609V129.793H78.1544V132.016H78.2892C78.8506 130.534 80.1982 129.636 81.9949 129.636C84.5553 129.636 86.2397 131.455 86.2173 134.217V141.988H82.4441V134.936C82.4441 133.566 81.703 132.735 80.4452 132.735C79.1875 132.735 78.3565 133.589 78.3565 135.003ZM93.0674 142.168C90.3498 142.168 88.1712 140.034 88.1712 135.902C88.1712 131.612 90.4846 129.636 93.0449 129.636C94.9989 129.636 96.032 130.781 96.5036 131.882H96.5935V125.728H100.367V141.988H96.6159V140.012H96.5036C96.0095 141.112 94.9315 142.168 93.0674 142.168ZM94.3476 139.203C95.8074 139.203 96.6609 137.901 96.6609 135.879C96.6609 133.858 95.8299 132.6 94.3476 132.6C92.8652 132.6 92.0567 133.903 92.0567 135.879C92.0567 137.901 92.8877 139.203 94.3476 139.203ZM109.844 133.566C109.732 132.758 109.013 132.241 108.003 132.241C107.06 132.241 106.318 132.668 106.341 133.297C106.318 133.768 106.678 134.15 107.733 134.352L110.047 134.801C112.472 135.273 113.64 136.329 113.663 138.103C113.64 140.596 111.349 142.213 108.048 142.213C104.567 142.213 102.523 140.663 102.276 138.238H106.049C106.184 139.113 106.947 139.585 108.07 139.585C109.103 139.585 109.8 139.181 109.822 138.507C109.8 137.968 109.328 137.631 108.272 137.407L106.184 137.025C103.78 136.576 102.568 135.363 102.59 133.499C102.568 131.073 104.634 129.636 107.935 129.636C111.214 129.636 113.213 131.14 113.371 133.566H109.844ZM125.768 142.235C122.332 142.235 120.243 140.214 120.243 137.676C120.243 135.801 121.422 134.678 123.163 133.499C122.366 132.466 121.703 131.242 121.703 129.815C121.703 127.39 123.522 125.503 126.262 125.503C128.935 125.503 130.574 127.3 130.574 129.456C130.574 130.983 129.788 132.241 128.396 133.229L127.52 133.858L129.968 136.621C130.395 135.823 130.664 134.88 130.664 133.836H133.741C133.741 136.003 133.202 137.845 132.214 139.158L134.707 141.988H130.844L129.923 140.978C128.688 141.865 127.172 142.235 125.768 142.235ZM123.904 137.429C123.904 138.485 124.713 139.226 125.993 139.226C126.622 139.226 127.262 139.046 127.857 138.732L125.049 135.655C124.319 136.183 123.904 136.766 123.904 137.429ZM124.847 129.86C124.847 130.478 125.218 131.096 125.768 131.792L126.554 131.298C127.34 130.804 127.655 130.265 127.655 129.681C127.655 129.097 127.161 128.513 126.285 128.513C125.409 128.513 124.847 129.097 124.847 129.86ZM144.859 125.728V141.988H141.04V125.728H144.859ZM151.102 135.003V141.988H147.307V129.793H150.9V132.016H151.035C151.596 130.534 152.944 129.636 154.741 129.636C157.301 129.636 158.985 131.455 158.963 134.217V141.988H155.19V134.936C155.19 133.566 154.449 132.735 153.191 132.735C151.933 132.735 151.102 133.589 151.102 135.003ZM168.373 133.566C168.261 132.758 167.542 132.241 166.532 132.241C165.588 132.241 164.847 132.668 164.87 133.297C164.847 133.768 165.207 134.15 166.262 134.352L168.576 134.801C171.001 135.273 172.169 136.329 172.191 138.103C172.169 140.596 169.878 142.213 166.577 142.213C163.095 142.213 161.052 140.663 160.805 138.238H164.578C164.713 139.113 165.476 139.585 166.599 139.585C167.632 139.585 168.328 139.181 168.351 138.507C168.328 137.968 167.857 137.631 166.801 137.407L164.713 137.025C162.309 136.576 161.097 135.363 161.119 133.499C161.097 131.073 163.163 129.636 166.464 129.636C169.743 129.636 171.742 131.14 171.899 133.566H168.373ZM174.056 141.988V129.793H177.851V141.988H174.056ZM175.965 128.333C174.887 128.333 174.011 127.524 174.011 126.514C174.011 125.503 174.887 124.695 175.965 124.695C177.043 124.695 177.941 125.503 177.941 126.514C177.941 127.524 177.043 128.333 175.965 128.333ZM185.937 146.817C182.433 146.817 180.344 145.222 180.165 142.909H183.848C184.005 143.785 184.836 144.167 186.026 144.167C187.396 144.167 188.34 143.605 188.34 142.011V139.855H188.205C187.733 140.955 186.565 141.831 184.746 141.831C182.051 141.831 179.85 139.967 179.85 135.857C179.85 131.59 182.163 129.636 184.724 129.636C186.678 129.636 187.733 130.781 188.182 131.882H188.295V129.793H192.068V142.056C192.068 145.155 189.575 146.817 185.937 146.817ZM186.026 139.046C187.486 139.046 188.34 137.856 188.34 135.857C188.34 133.858 187.509 132.6 186.026 132.6C184.544 132.6 183.736 133.903 183.736 135.857C183.736 137.856 184.567 139.046 186.026 139.046ZM198.289 135.003V141.988H194.494V125.728H198.154V132.016H198.289C198.851 130.534 200.131 129.636 201.95 129.636C204.51 129.636 206.195 131.432 206.195 134.217V141.988H202.399V134.936C202.422 133.566 201.681 132.735 200.4 132.735C199.143 132.735 198.289 133.589 198.289 135.003ZM215.381 129.793V132.578H213.157V138.17C213.157 138.934 213.539 139.158 214.19 139.181C214.505 139.203 215.111 139.158 215.538 139.136V142.033C215.179 142.078 214.55 142.168 213.651 142.168C210.979 142.168 209.362 141.067 209.384 138.597V132.578H207.745V129.793H209.384V126.873H213.157V129.793H215.381ZM224.207 133.566C224.095 132.758 223.376 132.241 222.366 132.241C221.422 132.241 220.681 132.668 220.704 133.297C220.681 133.768 221.04 134.15 222.096 134.352L224.409 134.801C226.835 135.273 228.003 136.329 228.025 138.103C228.003 140.596 225.712 142.213 222.41 142.213C218.929 142.213 216.885 140.663 216.638 138.238H220.412C220.546 139.113 221.31 139.585 222.433 139.585C223.466 139.585 224.162 139.181 224.185 138.507C224.162 137.968 223.691 137.631 222.635 137.407L220.546 137.025C218.143 136.576 216.93 135.363 216.953 133.499C216.93 131.073 218.997 129.636 222.298 129.636C225.577 129.636 227.576 131.14 227.733 133.566H224.207Z" fill="#2B2F34"/>
</svg>
