<svg width="267" height="266" viewBox="0 0 267 266" fill="none" xmlns="http://www.w3.org/2000/svg">
<circle cx="133.951" cy="132.99" r="132.99" fill="#D9D9D9"/>
<path d="M38.9369 125.724H52.612V128.853H47.6724V141.988H43.8844V128.853H38.9369V125.724ZM53.222 129.79H56.8989V131.998H57.0259C57.243 131.22 57.603 130.629 58.106 130.227C58.6089 129.825 59.2019 129.624 59.8848 129.624C60.229 129.624 60.589 129.666 60.9649 129.751V133.062C60.7955 133.004 60.5652 132.956 60.274 132.919C59.9828 132.882 59.7128 132.864 59.464 132.864C58.9981 132.864 58.5772 132.967 58.2013 133.173C57.8307 133.375 57.5395 133.663 57.3277 134.039C57.1159 134.41 57.0101 134.833 57.0101 135.31V141.988H53.222V129.79ZM67.786 142.219C66.526 142.219 65.4327 141.967 64.5062 141.464C63.585 140.956 62.8756 140.231 62.378 139.288C61.8856 138.346 61.6394 137.229 61.6394 135.937C61.6394 134.687 61.8856 133.586 62.378 132.633C62.8756 131.68 63.5798 130.942 64.4904 130.418C65.401 129.894 66.4598 129.631 67.6669 129.631C68.8158 129.631 69.8323 129.872 70.7164 130.354C71.6059 130.831 72.2994 131.537 72.7971 132.474C73.2947 133.406 73.5436 134.531 73.5436 135.85V136.818H65.3798V136.898C65.3798 137.411 65.4804 137.864 65.6816 138.256C65.8828 138.642 66.1686 138.941 66.5392 139.153C66.9151 139.365 67.3546 139.471 67.8575 139.471C68.3711 139.471 68.8131 139.368 69.1837 139.161C69.5543 138.955 69.8164 138.671 69.9699 138.311H73.4959C73.3424 139.106 73.0141 139.796 72.5112 140.384C72.0135 140.966 71.3623 141.419 70.5576 141.742C69.7529 142.06 68.829 142.219 67.786 142.219ZM70.0096 134.587C70.0043 134.163 69.9038 133.785 69.7079 133.451C69.5173 133.112 69.2499 132.85 68.9058 132.665C68.5617 132.474 68.1752 132.379 67.7463 132.379C67.3069 132.379 66.9098 132.477 66.5551 132.673C66.2057 132.864 65.9251 133.128 65.7133 133.467C65.5069 133.801 65.3957 134.174 65.3798 134.587H70.0096ZM79.2897 141.988H75.5016V129.79H79.107V132.014H79.242C79.512 131.273 79.9726 130.69 80.6238 130.267C81.275 129.843 82.048 129.631 82.9427 129.631C83.7845 129.631 84.5257 129.822 85.1663 130.203C85.8069 130.579 86.2993 131.114 86.6434 131.807C86.9928 132.501 87.1676 133.303 87.1676 134.214V141.988H83.3795V134.944C83.3848 134.256 83.2101 133.719 82.8554 133.332C82.5006 132.94 82.0109 132.744 81.3862 132.744C80.968 132.744 80.6 132.834 80.2824 133.014C79.97 133.194 79.7265 133.457 79.5517 133.801C79.377 134.14 79.2897 134.545 79.2897 135.016V141.988ZM94.0242 142.171C93.103 142.171 92.2718 141.933 91.5306 141.456C90.7947 140.974 90.2097 140.262 89.7756 139.32C89.3467 138.372 89.1323 137.231 89.1323 135.897C89.1323 134.526 89.352 133.372 89.7914 132.435C90.2362 131.492 90.8265 130.791 91.5624 130.33C92.3036 129.864 93.1189 129.631 94.0083 129.631C94.9031 129.631 95.6363 129.846 96.2081 130.275C96.7799 130.704 97.1981 131.236 97.4628 131.871H97.5423V125.724H101.33V141.988H97.582V140.019H97.4628C97.1875 140.638 96.7614 141.152 96.1843 141.559C95.6125 141.967 94.8925 142.171 94.0242 142.171ZM93.0157 135.889C93.0157 136.556 93.1057 137.139 93.2857 137.636C93.4657 138.134 93.7277 138.521 94.0719 138.796C94.416 139.066 94.8316 139.201 95.3187 139.201C95.7951 139.201 96.2081 139.066 96.5575 138.796C96.9069 138.526 97.1717 138.142 97.3517 137.644C97.537 137.141 97.6296 136.556 97.6296 135.889C97.6296 135.212 97.537 134.627 97.3517 134.134C97.1717 133.637 96.9069 133.255 96.5575 132.991C96.2134 132.726 95.8004 132.594 95.3187 132.594C94.8316 132.594 94.4133 132.729 94.0639 132.999C93.7198 133.269 93.4577 133.652 93.2777 134.15C93.103 134.642 93.0157 135.222 93.0157 135.889ZM110.814 133.562C110.761 133.16 110.565 132.84 110.226 132.602C109.887 132.363 109.467 132.244 108.964 132.244C108.651 132.244 108.368 132.289 108.114 132.379C107.86 132.464 107.659 132.586 107.51 132.744C107.367 132.903 107.299 133.086 107.304 133.292C107.293 133.541 107.397 133.756 107.614 133.936C107.836 134.116 108.199 134.256 108.702 134.357L111.013 134.801C112.225 135.034 113.128 135.421 113.721 135.961C114.313 136.501 114.613 137.215 114.618 138.105C114.613 138.926 114.372 139.648 113.895 140.273C113.424 140.892 112.765 141.371 111.918 141.71C111.071 142.049 110.102 142.219 109.011 142.219C107.868 142.219 106.878 142.057 106.041 141.734C105.205 141.411 104.548 140.951 104.072 140.352C103.601 139.754 103.32 139.047 103.23 138.232H107.01C107.079 138.666 107.288 139 107.637 139.233C107.992 139.46 108.455 139.574 109.027 139.574C109.546 139.574 109.964 139.481 110.282 139.296C110.605 139.106 110.769 138.846 110.774 138.518C110.769 138.243 110.642 138.018 110.393 137.843C110.144 137.663 109.755 137.52 109.226 137.414L107.145 137.025C105.949 136.797 105.046 136.387 104.437 135.794C103.833 135.196 103.534 134.433 103.54 133.507C103.54 132.707 103.754 132.017 104.183 131.434C104.617 130.852 105.236 130.407 106.041 130.1C106.851 129.788 107.802 129.631 108.892 129.631C109.977 129.631 110.917 129.79 111.711 130.108C112.511 130.426 113.133 130.881 113.578 131.474C114.028 132.062 114.276 132.758 114.324 133.562H110.814ZM126.723 142.234C125.606 142.234 124.63 142.033 123.793 141.631C122.962 141.229 122.321 140.681 121.871 139.987C121.427 139.293 121.204 138.521 121.204 137.668C121.204 137.075 121.321 136.54 121.554 136.064C121.787 135.582 122.109 135.143 122.522 134.746C122.941 134.349 123.47 133.93 124.111 133.491C123.661 132.903 123.306 132.308 123.047 131.704C122.787 131.101 122.657 130.468 122.657 129.806C122.657 129.007 122.848 128.279 123.229 127.622C123.61 126.966 124.148 126.447 124.841 126.066C125.535 125.685 126.329 125.494 127.224 125.494C128.087 125.494 128.844 125.671 129.495 126.026C130.146 126.381 130.647 126.86 130.996 127.463C131.351 128.067 131.528 128.729 131.528 129.449C131.528 130.201 131.343 130.894 130.972 131.529C130.602 132.165 130.067 132.734 129.368 133.237L128.486 133.872L130.924 136.62C131.396 135.762 131.631 134.833 131.631 133.832H134.705C134.705 134.912 134.575 135.905 134.315 136.81C134.056 137.716 133.677 138.502 133.18 139.169L135.681 141.988H131.806L130.877 140.972C130.284 141.401 129.627 141.718 128.907 141.925C128.193 142.131 127.465 142.234 126.723 142.234ZM124.857 137.43C124.857 137.785 124.942 138.097 125.111 138.367C125.286 138.637 125.532 138.849 125.85 139.002C126.168 139.151 126.536 139.225 126.954 139.225C127.573 139.225 128.195 139.061 128.82 138.732L125.993 135.651C125.236 136.207 124.857 136.8 124.857 137.43ZM125.818 129.862C125.818 130.153 125.895 130.455 126.048 130.767C126.207 131.074 126.438 131.421 126.739 131.807L127.518 131.307C128.243 130.846 128.606 130.306 128.606 129.687C128.606 129.486 128.553 129.295 128.447 129.115C128.341 128.935 128.185 128.792 127.978 128.686C127.777 128.575 127.536 128.52 127.256 128.52C126.97 128.52 126.718 128.578 126.501 128.694C126.284 128.811 126.115 128.972 125.993 129.179C125.876 129.38 125.818 129.608 125.818 129.862ZM145.825 141.988H141.997V125.724H145.825V141.988ZM152.058 141.988H148.27V129.79H151.875V132.014H152.01C152.28 131.273 152.741 130.69 153.392 130.267C154.043 129.843 154.816 129.631 155.711 129.631C156.553 129.631 157.294 129.822 157.934 130.203C158.575 130.579 159.067 131.114 159.412 131.807C159.761 132.501 159.936 133.303 159.936 134.214V141.988H156.148V134.944C156.153 134.256 155.978 133.719 155.623 133.332C155.269 132.94 154.779 132.744 154.154 132.744C153.736 132.744 153.368 132.834 153.05 133.014C152.738 133.194 152.495 133.457 152.32 133.801C152.145 134.14 152.058 134.545 152.058 135.016V141.988ZM169.365 133.562C169.312 133.16 169.117 132.84 168.778 132.602C168.439 132.363 168.018 132.244 167.515 132.244C167.203 132.244 166.919 132.289 166.665 132.379C166.411 132.464 166.21 132.586 166.062 132.744C165.919 132.903 165.85 133.086 165.855 133.292C165.845 133.541 165.948 133.756 166.165 133.936C166.387 134.116 166.75 134.256 167.253 134.357L169.564 134.801C170.776 135.034 171.679 135.421 172.272 135.961C172.865 136.501 173.164 137.215 173.169 138.105C173.164 138.926 172.923 139.648 172.447 140.273C171.975 140.892 171.316 141.371 170.469 141.71C169.622 142.049 168.653 142.219 167.563 142.219C166.419 142.219 165.429 142.057 164.593 141.734C163.756 141.411 163.1 140.951 162.623 140.352C162.152 139.754 161.871 139.047 161.781 138.232H165.561C165.63 138.666 165.839 139 166.189 139.233C166.543 139.46 167.007 139.574 167.579 139.574C168.097 139.574 168.516 139.481 168.833 139.296C169.156 139.106 169.32 138.846 169.326 138.518C169.32 138.243 169.193 138.018 168.944 137.843C168.696 137.663 168.306 137.52 167.777 137.414L165.696 137.025C164.5 136.797 163.597 136.387 162.988 135.794C162.385 135.196 162.086 134.433 162.091 133.507C162.091 132.707 162.305 132.017 162.734 131.434C163.168 130.852 163.788 130.407 164.593 130.1C165.403 129.788 166.353 129.631 167.444 129.631C168.529 129.631 169.469 129.79 170.263 130.108C171.062 130.426 171.684 130.881 172.129 131.474C172.579 132.062 172.828 132.758 172.875 133.562H169.365ZM175.041 129.79H178.829V141.988H175.041V129.79ZM176.939 128.337C176.584 128.337 176.256 128.255 175.954 128.091C175.658 127.927 175.42 127.704 175.24 127.424C175.065 127.143 174.978 126.839 174.978 126.51C174.978 126.182 175.065 125.878 175.24 125.597C175.42 125.317 175.658 125.094 175.954 124.93C176.256 124.766 176.584 124.684 176.939 124.684C177.294 124.684 177.62 124.766 177.916 124.93C178.218 125.094 178.456 125.317 178.631 125.597C178.811 125.878 178.901 126.182 178.901 126.51C178.901 126.839 178.811 127.143 178.631 127.424C178.456 127.704 178.218 127.927 177.916 128.091C177.62 128.255 177.294 128.337 176.939 128.337ZM186.917 146.817C185.773 146.817 184.775 146.653 183.923 146.324C183.076 146.001 182.414 145.543 181.937 144.95C181.466 144.363 181.199 143.68 181.135 142.902H184.828C184.908 143.33 185.138 143.648 185.519 143.855C185.9 144.066 186.398 144.172 187.012 144.172C188.553 144.172 189.323 143.455 189.323 142.02V139.852H189.188C188.944 140.434 188.524 140.908 187.925 141.274C187.332 141.639 186.599 141.822 185.726 141.822C184.799 141.822 183.965 141.604 183.224 141.17C182.488 140.736 181.906 140.074 181.477 139.185C181.048 138.29 180.834 137.178 180.834 135.85C180.834 134.489 181.053 133.343 181.493 132.411C181.937 131.474 182.528 130.778 183.264 130.322C184.005 129.862 184.82 129.631 185.71 129.631C186.604 129.631 187.338 129.846 187.909 130.275C188.481 130.704 188.902 131.236 189.172 131.871H189.283V129.79H193.055V142.044C193.055 143.06 192.799 143.926 192.285 144.641C191.777 145.355 191.059 145.895 190.133 146.261C189.212 146.631 188.14 146.817 186.917 146.817ZM184.717 135.865C184.717 136.866 184.915 137.647 185.313 138.208C185.715 138.769 186.284 139.05 187.02 139.05C187.502 139.05 187.915 138.926 188.259 138.677C188.608 138.423 188.873 138.057 189.053 137.581C189.238 137.099 189.331 136.527 189.331 135.865C189.331 135.198 189.238 134.619 189.053 134.126C188.873 133.634 188.608 133.255 188.259 132.991C187.915 132.726 187.502 132.594 187.02 132.594C186.533 132.594 186.117 132.729 185.773 132.999C185.429 133.269 185.167 133.65 184.987 134.142C184.807 134.629 184.717 135.204 184.717 135.865ZM199.267 141.988H195.479V125.724H199.148V132.014H199.283C199.558 131.262 200.011 130.677 200.641 130.259C201.271 129.841 202.039 129.631 202.944 129.631C203.791 129.631 204.532 129.819 205.168 130.195C205.808 130.571 206.303 131.106 206.653 131.799C207.002 132.493 207.177 133.298 207.177 134.214V141.988H203.389V134.944C203.394 134.251 203.219 133.711 202.865 133.324C202.515 132.938 202.023 132.744 201.388 132.744C200.969 132.744 200.599 132.834 200.276 133.014C199.958 133.194 199.709 133.457 199.529 133.801C199.355 134.145 199.267 134.55 199.267 135.016V141.988ZM216.359 132.586H214.151V138.168C214.151 138.55 214.244 138.817 214.429 138.971C214.615 139.119 214.89 139.193 215.255 139.193C215.573 139.193 215.996 139.172 216.526 139.129V142.028C215.922 142.118 215.292 142.163 214.636 142.163C213.259 142.163 212.2 141.869 211.459 141.281C210.718 140.694 210.353 139.802 210.363 138.605V132.586H208.735V129.79H210.363V126.868H214.151V129.79H216.359V132.586ZM225.199 133.562C225.146 133.16 224.95 132.84 224.611 132.602C224.273 132.363 223.852 132.244 223.349 132.244C223.036 132.244 222.753 132.289 222.499 132.379C222.245 132.464 222.044 132.586 221.896 132.744C221.753 132.903 221.684 133.086 221.689 133.292C221.678 133.541 221.782 133.756 221.999 133.936C222.221 134.116 222.584 134.256 223.087 134.357L225.398 134.801C226.61 135.034 227.513 135.421 228.106 135.961C228.699 136.501 228.998 137.215 229.003 138.105C228.998 138.926 228.757 139.648 228.28 140.273C227.809 140.892 227.15 141.371 226.303 141.71C225.456 142.049 224.487 142.219 223.396 142.219C222.253 142.219 221.263 142.057 220.426 141.734C219.59 141.411 218.933 140.951 218.457 140.352C217.986 139.754 217.705 139.047 217.615 138.232H221.395C221.464 138.666 221.673 139 222.023 139.233C222.377 139.46 222.841 139.574 223.412 139.574C223.931 139.574 224.349 139.481 224.667 139.296C224.99 139.106 225.154 138.846 225.159 138.518C225.154 138.243 225.027 138.018 224.778 137.843C224.529 137.663 224.14 137.52 223.611 137.414L221.53 137.025C220.334 136.797 219.431 136.387 218.822 135.794C218.219 135.196 217.92 134.433 217.925 133.507C217.925 132.707 218.139 132.017 218.568 131.434C219.002 130.852 219.622 130.407 220.426 130.1C221.236 129.788 222.187 129.631 223.277 129.631C224.363 129.631 225.302 129.79 226.097 130.108C226.896 130.426 227.518 130.881 227.963 131.474C228.413 132.062 228.662 132.758 228.709 133.562H225.199Z" fill="#FF5900"/>
</svg>
