<svg width="267" height="267" viewBox="0 0 267 267" fill="none" xmlns="http://www.w3.org/2000/svg">
<circle cx="133.943" cy="133.928" r="132.99" fill="#D4DDE8"/>
<path d="M38.9291 126.662H52.6042V129.791H47.6646V142.926H43.8766V129.791H38.9291V126.662ZM53.2142 130.728H56.8911V132.935H57.0181C57.2352 132.157 57.5952 131.567 58.0982 131.165C58.6011 130.762 59.1941 130.561 59.877 130.561C60.2212 130.561 60.5812 130.603 60.9571 130.688V134C60.7876 133.941 60.5573 133.894 60.2662 133.857C59.975 133.82 59.705 133.801 59.4561 133.801C58.9902 133.801 58.5693 133.904 58.1935 134.111C57.8229 134.312 57.5317 134.601 57.3199 134.976C57.1081 135.347 57.0022 135.771 57.0022 136.247V142.926H53.2142V130.728ZM67.7782 143.156C66.5182 143.156 65.4249 142.905 64.4984 142.402C63.5772 141.893 62.8678 141.168 62.3701 140.226C61.8778 139.283 61.6316 138.166 61.6316 136.874C61.6316 135.625 61.8778 134.524 62.3701 133.571C62.8678 132.618 63.5719 131.879 64.4826 131.355C65.3932 130.831 66.452 130.569 67.6591 130.569C68.808 130.569 69.8245 130.81 70.7086 131.292C71.5981 131.768 72.2916 132.475 72.7893 133.412C73.2869 134.344 73.5358 135.469 73.5358 136.787V137.756H65.372V137.835C65.372 138.349 65.4726 138.802 65.6738 139.193C65.8749 139.58 66.1608 139.879 66.5314 140.091C66.9073 140.302 67.3468 140.408 67.8497 140.408C68.3633 140.408 68.8053 140.305 69.1759 140.099C69.5465 139.892 69.8086 139.609 69.9621 139.249H73.4881C73.3346 140.043 73.0063 140.734 72.5034 141.322C72.0057 141.904 71.3545 142.357 70.5498 142.68C69.7451 142.997 68.8212 143.156 67.7782 143.156ZM70.0018 135.524C69.9965 135.101 69.8959 134.722 69.7001 134.389C69.5095 134.05 69.2421 133.788 68.898 133.603C68.5538 133.412 68.1674 133.317 67.7385 133.317C67.2991 133.317 66.902 133.415 66.5473 133.611C66.1979 133.801 65.9173 134.066 65.7055 134.405C65.4991 134.738 65.3879 135.111 65.372 135.524H70.0018ZM79.2819 142.926H75.4938V130.728H79.0992V132.951H79.2342C79.5042 132.21 79.9648 131.628 80.616 131.204C81.2672 130.781 82.0402 130.569 82.9349 130.569C83.7767 130.569 84.5179 130.76 85.1585 131.141C85.7991 131.517 86.2915 132.051 86.6356 132.745C86.985 133.438 87.1597 134.241 87.1597 135.151V142.926H83.3717V135.882C83.377 135.193 83.2023 134.656 82.8476 134.27C82.4928 133.878 82.0031 133.682 81.3784 133.682C80.9601 133.682 80.5922 133.772 80.2745 133.952C79.9622 134.132 79.7186 134.394 79.5439 134.738C79.3692 135.077 79.2819 135.482 79.2819 135.953V142.926ZM94.0164 143.108C93.0952 143.108 92.264 142.87 91.5228 142.394C90.7869 141.912 90.2019 141.2 89.7677 140.257C89.3389 139.31 89.1245 138.169 89.1245 136.835C89.1245 135.464 89.3442 134.309 89.7836 133.372C90.2284 132.43 90.8187 131.728 91.5546 131.268C92.2958 130.802 93.1111 130.569 94.0005 130.569C94.8953 130.569 95.6285 130.783 96.2003 131.212C96.7721 131.641 97.1903 132.173 97.455 132.808H97.5344V126.662H101.322V142.926H97.5742V140.956H97.455C97.1797 141.576 96.7535 142.089 96.1765 142.497C95.6047 142.905 94.8847 143.108 94.0164 143.108ZM93.0078 136.827C93.0078 137.494 93.0978 138.076 93.2779 138.574C93.4579 139.072 93.7199 139.458 94.0641 139.733C94.4082 140.003 94.8238 140.138 95.3109 140.138C95.7873 140.138 96.2003 140.003 96.5497 139.733C96.8991 139.463 97.1638 139.079 97.3439 138.582C97.5292 138.079 97.6218 137.494 97.6218 136.827C97.6218 136.149 97.5292 135.564 97.3439 135.072C97.1638 134.574 96.8991 134.193 96.5497 133.928C96.2056 133.663 95.7926 133.531 95.3109 133.531C94.8238 133.531 94.4055 133.666 94.0561 133.936C93.712 134.206 93.4499 134.59 93.2699 135.088C93.0952 135.58 93.0078 136.16 93.0078 136.827ZM110.806 134.5C110.753 134.098 110.557 133.777 110.218 133.539C109.88 133.301 109.459 133.182 108.956 133.182C108.643 133.182 108.36 133.227 108.106 133.317C107.852 133.401 107.651 133.523 107.503 133.682C107.36 133.841 107.291 134.023 107.296 134.23C107.285 134.479 107.389 134.693 107.606 134.873C107.828 135.053 108.191 135.193 108.694 135.294L111.005 135.739C112.217 135.972 113.12 136.358 113.713 136.898C114.306 137.438 114.605 138.153 114.61 139.042C114.605 139.863 114.364 140.586 113.887 141.21C113.416 141.83 112.757 142.309 111.91 142.648C111.063 142.987 110.094 143.156 109.003 143.156C107.86 143.156 106.87 142.995 106.033 142.672C105.197 142.349 104.54 141.888 104.064 141.29C103.593 140.692 103.312 139.985 103.222 139.169H107.002C107.071 139.604 107.28 139.937 107.63 140.17C107.984 140.398 108.448 140.512 109.019 140.512C109.538 140.512 109.956 140.419 110.274 140.234C110.597 140.043 110.761 139.784 110.766 139.455C110.761 139.18 110.634 138.955 110.385 138.78C110.136 138.6 109.747 138.457 109.218 138.352L107.137 137.962C105.941 137.735 105.038 137.324 104.429 136.731C103.826 136.133 103.527 135.371 103.532 134.444C103.532 133.645 103.746 132.954 104.175 132.372C104.609 131.789 105.229 131.345 106.033 131.037C106.843 130.725 107.794 130.569 108.884 130.569C109.97 130.569 110.909 130.728 111.704 131.045C112.503 131.363 113.125 131.818 113.57 132.411C114.02 132.999 114.269 133.695 114.316 134.5H110.806ZM126.716 143.172C125.599 143.172 124.622 142.971 123.785 142.568C122.954 142.166 122.313 141.618 121.863 140.925C121.419 140.231 121.196 139.458 121.196 138.606C121.196 138.013 121.313 137.478 121.546 137.001C121.779 136.52 122.102 136.08 122.515 135.683C122.933 135.286 123.462 134.868 124.103 134.428C123.653 133.841 123.298 133.245 123.039 132.642C122.779 132.038 122.65 131.405 122.65 130.744C122.65 129.944 122.84 129.216 123.221 128.56C123.603 127.903 124.14 127.384 124.834 127.003C125.527 126.622 126.321 126.431 127.216 126.431C128.079 126.431 128.836 126.609 129.487 126.964C130.138 127.318 130.639 127.797 130.988 128.401C131.343 129.004 131.52 129.666 131.52 130.386C131.52 131.138 131.335 131.832 130.964 132.467C130.594 133.102 130.059 133.671 129.36 134.174L128.479 134.81L130.917 137.557C131.388 136.7 131.623 135.771 131.623 134.77H134.697C134.697 135.85 134.567 136.843 134.308 137.748C134.048 138.653 133.67 139.44 133.172 140.107L135.674 142.926H131.798L130.869 141.909C130.276 142.338 129.62 142.656 128.9 142.862C128.185 143.069 127.457 143.172 126.716 143.172ZM124.849 138.367C124.849 138.722 124.934 139.034 125.104 139.304C125.278 139.575 125.524 139.786 125.842 139.94C126.16 140.088 126.528 140.162 126.946 140.162C127.565 140.162 128.187 139.998 128.812 139.67L125.985 136.589C125.228 137.144 124.849 137.737 124.849 138.367ZM125.81 130.799C125.81 131.09 125.887 131.392 126.041 131.705C126.199 132.012 126.43 132.358 126.732 132.745L127.51 132.245C128.235 131.784 128.598 131.244 128.598 130.625C128.598 130.423 128.545 130.233 128.439 130.053C128.333 129.873 128.177 129.73 127.97 129.624C127.769 129.513 127.528 129.457 127.248 129.457C126.962 129.457 126.71 129.515 126.493 129.632C126.276 129.748 126.107 129.91 125.985 130.116C125.869 130.317 125.81 130.545 125.81 130.799ZM145.817 142.926H141.989V126.662H145.817V142.926ZM152.05 142.926H148.262V130.728H151.867V132.951H152.002C152.272 132.21 152.733 131.628 153.384 131.204C154.035 130.781 154.808 130.569 155.703 130.569C156.545 130.569 157.286 130.76 157.927 131.141C158.567 131.517 159.06 132.051 159.404 132.745C159.753 133.438 159.928 134.241 159.928 135.151V142.926H156.14V135.882C156.145 135.193 155.97 134.656 155.616 134.27C155.261 133.878 154.771 133.682 154.147 133.682C153.728 133.682 153.36 133.772 153.043 133.952C152.73 134.132 152.487 134.394 152.312 134.738C152.137 135.077 152.05 135.482 152.05 135.953V142.926ZM169.358 134.5C169.305 134.098 169.109 133.777 168.77 133.539C168.431 133.301 168.01 133.182 167.507 133.182C167.195 133.182 166.912 133.227 166.657 133.317C166.403 133.401 166.202 133.523 166.054 133.682C165.911 133.841 165.842 134.023 165.847 134.23C165.837 134.479 165.94 134.693 166.157 134.873C166.38 135.053 166.742 135.193 167.245 135.294L169.556 135.739C170.768 135.972 171.671 136.358 172.264 136.898C172.857 137.438 173.156 138.153 173.161 139.042C173.156 139.863 172.915 140.586 172.439 141.21C171.968 141.83 171.308 142.309 170.461 142.648C169.614 142.987 168.645 143.156 167.555 143.156C166.411 143.156 165.421 142.995 164.585 142.672C163.748 142.349 163.092 141.888 162.615 141.29C162.144 140.692 161.863 139.985 161.773 139.169H165.554C165.622 139.604 165.832 139.937 166.181 140.17C166.536 140.398 166.999 140.512 167.571 140.512C168.09 140.512 168.508 140.419 168.825 140.234C169.148 140.043 169.313 139.784 169.318 139.455C169.313 139.18 169.185 138.955 168.937 138.78C168.688 138.6 168.299 138.457 167.769 138.352L165.689 137.962C164.492 137.735 163.589 137.324 162.981 136.731C162.377 136.133 162.078 135.371 162.083 134.444C162.083 133.645 162.298 132.954 162.726 132.372C163.161 131.789 163.78 131.345 164.585 131.037C165.395 130.725 166.345 130.569 167.436 130.569C168.521 130.569 169.461 130.728 170.255 131.045C171.054 131.363 171.676 131.818 172.121 132.411C172.571 132.999 172.82 133.695 172.868 134.5H169.358ZM175.033 130.728H178.821V142.926H175.033V130.728ZM176.931 129.274C176.577 129.274 176.248 129.192 175.947 129.028C175.65 128.864 175.412 128.642 175.232 128.361C175.057 128.081 174.97 127.776 174.97 127.448C174.97 127.12 175.057 126.815 175.232 126.535C175.412 126.254 175.65 126.032 175.947 125.868C176.248 125.704 176.577 125.621 176.931 125.621C177.286 125.621 177.612 125.704 177.908 125.868C178.21 126.032 178.448 126.254 178.623 126.535C178.803 126.815 178.893 127.12 178.893 127.448C178.893 127.776 178.803 128.081 178.623 128.361C178.448 128.642 178.21 128.864 177.908 129.028C177.612 129.192 177.286 129.274 176.931 129.274ZM186.909 147.754C185.765 147.754 184.767 147.59 183.915 147.262C183.068 146.939 182.406 146.481 181.93 145.888C181.458 145.3 181.191 144.617 181.128 143.839H184.82C184.9 144.268 185.13 144.586 185.511 144.792C185.892 145.004 186.39 145.11 187.004 145.11C188.545 145.11 189.315 144.392 189.315 142.958V140.79H189.18C188.937 141.372 188.516 141.846 187.917 142.211C187.325 142.576 186.591 142.759 185.718 142.759C184.791 142.759 183.957 142.542 183.216 142.108C182.48 141.674 181.898 141.012 181.469 140.122C181.04 139.228 180.826 138.116 180.826 136.787C180.826 135.426 181.045 134.28 181.485 133.348C181.93 132.411 182.52 131.715 183.256 131.26C183.997 130.799 184.812 130.569 185.702 130.569C186.597 130.569 187.33 130.783 187.902 131.212C188.473 131.641 188.894 132.173 189.164 132.808H189.275V130.728H193.048V142.981C193.048 143.998 192.791 144.863 192.277 145.578C191.769 146.293 191.052 146.833 190.125 147.198C189.204 147.569 188.132 147.754 186.909 147.754ZM184.709 136.803C184.709 137.804 184.908 138.584 185.305 139.146C185.707 139.707 186.276 139.987 187.012 139.987C187.494 139.987 187.907 139.863 188.251 139.614C188.6 139.36 188.865 138.995 189.045 138.518C189.23 138.037 189.323 137.465 189.323 136.803C189.323 136.136 189.23 135.556 189.045 135.064C188.865 134.571 188.6 134.193 188.251 133.928C187.907 133.663 187.494 133.531 187.012 133.531C186.525 133.531 186.109 133.666 185.765 133.936C185.421 134.206 185.159 134.587 184.979 135.08C184.799 135.567 184.709 136.141 184.709 136.803ZM199.259 142.926H195.471V126.662H199.14V132.951H199.275C199.551 132.2 200.003 131.615 200.633 131.196C201.263 130.778 202.031 130.569 202.936 130.569C203.783 130.569 204.525 130.757 205.16 131.133C205.8 131.509 206.295 132.043 206.645 132.737C206.994 133.431 207.169 134.235 207.169 135.151V142.926H203.381V135.882C203.386 135.188 203.212 134.648 202.857 134.262C202.507 133.875 202.015 133.682 201.38 133.682C200.962 133.682 200.591 133.772 200.268 133.952C199.95 134.132 199.701 134.394 199.521 134.738C199.347 135.082 199.259 135.487 199.259 135.953V142.926ZM216.351 133.523H214.143V139.106C214.143 139.487 214.236 139.755 214.421 139.908C214.607 140.056 214.882 140.13 215.247 140.13C215.565 140.13 215.989 140.109 216.518 140.067V142.965C215.914 143.055 215.284 143.1 214.628 143.1C213.251 143.1 212.193 142.807 211.451 142.219C210.71 141.631 210.345 140.739 210.355 139.543V133.523H208.727V130.728H210.355V127.805H214.143V130.728H216.351V133.523ZM225.191 134.5C225.138 134.098 224.943 133.777 224.604 133.539C224.265 133.301 223.844 133.182 223.341 133.182C223.029 133.182 222.745 133.227 222.491 133.317C222.237 133.401 222.036 133.523 221.888 133.682C221.745 133.841 221.676 134.023 221.681 134.23C221.671 134.479 221.774 134.693 221.991 134.873C222.213 135.053 222.576 135.193 223.079 135.294L225.39 135.739C226.602 135.972 227.505 136.358 228.098 136.898C228.691 137.438 228.99 138.153 228.995 139.042C228.99 139.863 228.749 140.586 228.273 141.21C227.801 141.83 227.142 142.309 226.295 142.648C225.448 142.987 224.479 143.156 223.389 143.156C222.245 143.156 221.255 142.995 220.419 142.672C219.582 142.349 218.926 141.888 218.449 141.29C217.978 140.692 217.697 139.985 217.607 139.169H221.387C221.456 139.604 221.665 139.937 222.015 140.17C222.369 140.398 222.833 140.512 223.405 140.512C223.923 140.512 224.342 140.419 224.659 140.234C224.982 140.043 225.146 139.784 225.152 139.455C225.146 139.18 225.019 138.955 224.77 138.78C224.522 138.6 224.132 138.457 223.603 138.352L221.522 137.962C220.326 137.735 219.423 137.324 218.814 136.731C218.211 136.133 217.912 135.371 217.917 134.444C217.917 133.645 218.131 132.954 218.56 132.372C218.994 131.789 219.614 131.345 220.419 131.037C221.229 130.725 222.179 130.569 223.27 130.569C224.355 130.569 225.295 130.728 226.089 131.045C226.888 131.363 227.51 131.818 227.955 132.411C228.405 132.999 228.654 133.695 228.701 134.5H225.191Z" fill="#1C46F5"/>
</svg>
