<svg width="208" height="28" viewBox="0 0 208 28" fill="none" xmlns="http://www.w3.org/2000/svg">
<path d="M106.892 17.043C99.4873 17.043 94.9961 19.0213 94.9961 19.0213C97.0144 23.6195 101.586 26.8007 106.906 26.8007C112.226 26.8007 116.81 23.6195 118.829 19.0213C118.829 19.0213 114.324 17.043 106.919 17.043" fill="#9C9C9C"/>
<path d="M103.941 12.1367C103.941 12.1367 103.82 12.1903 103.82 12.2305C103.82 12.2573 103.874 12.3109 103.941 12.3109C104.008 12.3109 104.062 12.2707 104.062 12.2305C104.062 12.1903 104.008 12.1367 103.941 12.1367Z" fill="#9C9C9C"/>
<path d="M98.0914 14.7636C98.0914 14.7636 98.0525 14.8671 98.0007 14.8671C97.9489 14.8671 97.9102 14.8283 97.9102 14.7636C97.9102 14.7118 97.9489 14.6602 98.0007 14.6602C98.0525 14.6602 98.0914 14.7118 98.0914 14.7636Z" fill="#9C9C9C"/>
<path d="M110.865 12.2375C110.865 12.2375 110.797 12.3733 110.702 12.3733C110.607 12.3733 110.539 12.2918 110.539 12.2375C110.539 12.1695 110.607 12.1016 110.702 12.1016C110.797 12.1016 110.865 12.1695 110.865 12.2375Z" fill="#9C9C9C"/>
<path d="M102.44 12.2283C102.44 12.3084 102.347 12.4019 102.24 12.4019C102.133 12.4019 102.039 12.3084 102.039 12.2283C102.039 12.1348 102.133 12.0547 102.24 12.0547C102.347 12.0547 102.44 12.1482 102.44 12.2283Z" fill="#9C9C9C"/>
<path d="M113.408 13.0361C113.408 13.1312 113.34 13.2127 113.245 13.2127C113.15 13.2127 113.082 13.1312 113.082 13.0361C113.082 12.941 113.164 12.8867 113.245 12.8867C113.327 12.8867 113.408 12.941 113.408 13.0361Z" fill="#9C9C9C"/>
<path d="M95.6422 17.2862C95.6422 17.393 95.562 17.4866 95.455 17.4866C95.3481 17.4866 95.2812 17.393 95.2812 17.2862C95.2812 17.1794 95.3481 17.0859 95.455 17.0859C95.562 17.0859 95.6422 17.1794 95.6422 17.2862Z" fill="#9C9C9C"/>
<path d="M118.9 17.0362C118.74 17.2757 118.82 17.7014 119.153 17.7014C119.193 17.7014 119.219 17.7014 119.246 17.6615C119.313 17.595 119.499 16.9963 119.432 16.9165C119.366 16.8633 119.246 16.85 119.153 16.8766C119.06 16.9032 118.966 16.9431 118.9 17.0362Z" fill="#9C9C9C"/>
<path d="M94.4782 17.7734C94.4782 17.7734 94.4648 17.8532 94.4648 17.8797C94.4648 17.9993 94.5845 18.4243 94.7706 18.3712C94.8105 18.3712 94.8504 18.2915 94.8637 18.2517C94.9301 17.9993 94.744 17.8133 94.5313 17.7734C94.5047 17.7734 94.4914 17.7734 94.4648 17.7734" fill="#9C9C9C"/>
<path d="M99.7038 12.8438C99.5835 12.8438 99.4766 12.9105 99.4766 13.044C99.4766 13.1776 99.5835 13.2844 99.7038 13.2844C99.8241 13.2844 99.931 13.1776 99.931 13.044C99.931 12.9105 99.8374 12.8438 99.7038 12.8438Z" fill="#9C9C9C"/>
<path d="M100.832 12.2383C100.832 12.3579 100.712 12.4907 100.553 12.4907C100.393 12.4907 100.273 12.3579 100.273 12.2383C100.273 12.1055 100.393 11.9727 100.553 11.9727C100.712 11.9727 100.832 12.1055 100.832 12.2383Z" fill="#9C9C9C"/>
<path d="M106.071 8.86642C106.071 9.11918 105.858 9.33201 105.605 9.33201C105.352 9.33201 105.152 9.11918 105.152 8.86642C105.152 8.61365 105.365 8.41406 105.605 8.41406C105.845 8.41406 106.071 8.62695 106.071 8.86642Z" fill="#9C9C9C"/>
<path d="M107.778 8.86642C107.778 9.11918 107.565 9.33201 107.312 9.33201C107.059 9.33201 106.859 9.11918 106.859 8.86642C106.859 8.61365 107.072 8.41406 107.312 8.41406C107.552 8.41406 107.778 8.62695 107.778 8.86642Z" fill="#9C9C9C"/>
<path d="M109.452 8.86642C109.452 9.11918 109.239 9.33201 109 9.33201C108.76 9.33201 108.547 9.11918 108.547 8.86642C108.547 8.61365 108.76 8.41406 109 8.41406C109.239 8.41406 109.452 8.62695 109.452 8.86642Z" fill="#9C9C9C"/>
<path d="M111.991 9.70147C111.991 9.95423 111.805 10.1538 111.565 10.1538C111.325 10.1538 111.152 9.95423 111.152 9.70147C111.152 9.48861 111.352 9.28906 111.565 9.28906C111.778 9.28906 111.991 9.48861 111.991 9.70147Z" fill="#9C9C9C"/>
<path d="M116.208 12.2304C116.208 12.4433 116.021 12.6428 115.782 12.6428C115.542 12.6428 115.355 12.43 115.355 12.2304C115.355 12.0042 115.542 11.8047 115.782 11.8047C116.021 11.8047 116.208 12.0042 116.208 12.2304Z" fill="#9C9C9C"/>
<path d="M115.347 11.4055C115.347 11.6183 115.147 11.8179 114.921 11.8179C114.694 11.8179 114.508 11.6183 114.508 11.4055C114.508 11.1527 114.694 10.9531 114.921 10.9531C115.147 10.9531 115.347 11.1527 115.347 11.4055Z" fill="#9C9C9C"/>
<path d="M117.059 13.0335C117.059 13.2863 116.873 13.4859 116.633 13.4859C116.393 13.4859 116.207 13.2863 116.207 13.0335C116.207 12.8206 116.393 12.6211 116.633 12.6211C116.873 12.6211 117.059 12.8206 117.059 13.0335Z" fill="#9C9C9C"/>
<path d="M106.825 9.68965C106.825 9.90251 106.665 10.0754 106.465 10.0754C106.265 10.0754 106.105 9.90251 106.105 9.68965C106.105 9.5034 106.265 9.34375 106.465 9.34375C106.665 9.34375 106.825 9.5034 106.825 9.68965Z" fill="#9C9C9C"/>
<path d="M105.169 9.68886C105.169 9.91502 105.009 10.1013 104.796 10.1013C104.583 10.1013 104.41 9.91502 104.41 9.68886C104.41 9.48931 104.57 9.31641 104.796 9.31641C105.023 9.31641 105.169 9.48931 105.169 9.68886Z" fill="#9C9C9C"/>
<path d="M108.539 9.68886C108.539 9.91502 108.379 10.1013 108.166 10.1013C107.953 10.1013 107.793 9.91502 107.793 9.68886C107.793 9.48931 107.953 9.31641 108.166 9.31641C108.379 9.31641 108.539 9.48931 108.539 9.68886Z" fill="#9C9C9C"/>
<path d="M112.392 10.1602C112.179 10.1602 111.992 10.3198 111.992 10.5459C111.992 10.7721 112.179 10.9317 112.392 10.9317C112.605 10.9317 112.791 10.7721 112.791 10.5459C112.791 10.3198 112.618 10.1602 112.392 10.1602Z" fill="#9C9C9C"/>
<path d="M110.252 9.69596C110.252 9.93543 110.079 10.1217 109.853 10.1217C109.626 10.1217 109.453 9.93543 109.453 9.69596C109.453 9.48311 109.626 9.29688 109.853 9.29688C110.079 9.29688 110.252 9.48311 110.252 9.69596Z" fill="#9C9C9C"/>
<path d="M103.073 9.29688C102.847 9.29688 102.66 9.48311 102.66 9.69596C102.66 9.93543 102.833 10.1217 103.073 10.1217C103.313 10.1217 103.472 9.93543 103.472 9.69596C103.472 9.48311 103.286 9.29688 103.073 9.29688Z" fill="#9C9C9C"/>
<path d="M100.977 10.5452C100.977 10.798 100.791 10.9576 100.551 10.9576C100.311 10.9576 100.125 10.798 100.125 10.5452C100.125 10.2925 100.311 10.1328 100.551 10.1328C100.791 10.1328 100.977 10.3058 100.977 10.5452Z" fill="#9C9C9C"/>
<path d="M102.613 10.5545C102.613 10.7674 102.453 10.9138 102.24 10.9138C102.027 10.9138 101.867 10.7674 101.867 10.5545C101.867 10.3417 102.04 10.1953 102.24 10.1953C102.44 10.1953 102.613 10.3417 102.613 10.5545Z" fill="#9C9C9C"/>
<path d="M110.701 10.2031C110.502 10.2031 110.355 10.3492 110.355 10.5485C110.355 10.7477 110.515 10.8938 110.701 10.8938C110.887 10.8938 111.047 10.7477 111.047 10.5485C111.047 10.3492 110.887 10.2031 110.701 10.2031Z" fill="#9C9C9C"/>
<path d="M104.262 10.5547C104.262 10.754 104.116 10.8868 103.93 10.8868C103.744 10.8868 103.598 10.754 103.598 10.5547C103.598 10.3555 103.757 10.2227 103.93 10.2227C104.103 10.2227 104.262 10.3555 104.262 10.5547Z" fill="#9C9C9C"/>
<path d="M109.007 10.2227C108.82 10.2227 108.688 10.3555 108.688 10.5547C108.688 10.754 108.834 10.8868 109.007 10.8868C109.179 10.8868 109.339 10.754 109.339 10.5547C109.339 10.3555 109.179 10.2227 109.007 10.2227Z" fill="#9C9C9C"/>
<path d="M111.558 11.0898C111.399 11.0898 111.266 11.236 111.266 11.4087C111.266 11.5681 111.399 11.6876 111.558 11.6876C111.731 11.6876 111.851 11.5681 111.851 11.4087C111.851 11.236 111.718 11.0898 111.558 11.0898Z" fill="#9C9C9C"/>
<path d="M114.09 11.8945C113.904 11.8945 113.758 12.0539 113.758 12.2133C113.758 12.3727 113.904 12.5188 114.09 12.5188C114.276 12.5188 114.423 12.3594 114.423 12.2133C114.423 12.0539 114.276 11.8945 114.09 11.8945Z" fill="#9C9C9C"/>
<path d="M115.215 13.0391C115.215 13.2118 115.082 13.3446 114.935 13.3446C114.789 13.3446 114.656 13.2118 114.656 13.0391C114.656 12.893 114.776 12.7734 114.935 12.7734C115.095 12.7734 115.215 12.893 115.215 13.0391Z" fill="#9C9C9C"/>
<path d="M115.775 13.6289C115.629 13.6289 115.496 13.7618 115.496 13.9212C115.496 14.0805 115.616 14.2133 115.775 14.2133C115.935 14.2133 116.054 14.0805 116.054 13.9212C116.054 13.7618 115.935 13.6289 115.775 13.6289Z" fill="#9C9C9C"/>
<path d="M116.876 14.7601C116.876 14.9062 116.77 14.986 116.624 14.986C116.477 14.986 116.371 14.9062 116.371 14.7601C116.371 14.614 116.477 14.5078 116.624 14.5078C116.77 14.5078 116.876 14.6273 116.876 14.7601Z" fill="#9C9C9C"/>
<path d="M117.744 15.5899C117.744 15.736 117.625 15.8688 117.478 15.8688C117.332 15.8688 117.199 15.736 117.199 15.5899C117.199 15.4571 117.319 15.3242 117.478 15.3242C117.638 15.3242 117.744 15.4571 117.744 15.5899Z" fill="#9C9C9C"/>
<path d="M118.64 16.4422C118.64 16.6414 118.493 16.7875 118.307 16.7875C118.121 16.7875 117.988 16.6281 117.988 16.4422C117.988 16.2695 118.121 16.1367 118.307 16.1367C118.493 16.1367 118.64 16.2695 118.64 16.4422Z" fill="#9C9C9C"/>
<path d="M113.594 11.4015C113.594 11.5877 113.434 11.7473 113.235 11.7473C113.035 11.7473 112.875 11.5877 112.875 11.4015C112.875 11.1886 113.035 11.0156 113.235 11.0156C113.434 11.0156 113.594 11.1886 113.594 11.4015Z" fill="#9C9C9C"/>
<path d="M105.621 10.25C105.461 10.25 105.328 10.3828 105.328 10.5555C105.328 10.7281 105.461 10.8609 105.621 10.8609C105.793 10.8609 105.913 10.7281 105.913 10.5555C105.913 10.3828 105.78 10.25 105.621 10.25Z" fill="#9C9C9C"/>
<path d="M107.624 10.5555C107.624 10.7281 107.491 10.8609 107.332 10.8609C107.172 10.8609 107.039 10.7281 107.039 10.5555C107.039 10.3828 107.172 10.25 107.332 10.25C107.491 10.25 107.624 10.3828 107.624 10.5555Z" fill="#9C9C9C"/>
<path d="M112.403 12.0117C112.27 12.0117 112.164 12.1313 112.164 12.2376C112.164 12.3438 112.27 12.4501 112.403 12.4501C112.536 12.4501 112.643 12.3306 112.643 12.2376C112.643 12.1313 112.536 12.0117 112.403 12.0117Z" fill="#9C9C9C"/>
<path d="M109.846 11.1445C109.713 11.1445 109.594 11.2641 109.594 11.4102C109.594 11.543 109.713 11.636 109.846 11.636C109.993 11.636 110.099 11.543 110.099 11.4102C110.099 11.2641 109.979 11.1445 109.846 11.1445Z" fill="#9C9C9C"/>
<path d="M108.385 11.4068C108.385 11.527 108.291 11.607 108.171 11.607C108.051 11.607 107.957 11.527 107.957 11.4068C107.957 11.2866 108.064 11.1797 108.171 11.1797C108.291 11.1797 108.385 11.2866 108.385 11.4068Z" fill="#9C9C9C"/>
<path d="M106.481 11.1797C106.361 11.1797 106.254 11.2866 106.254 11.4068C106.254 11.527 106.361 11.607 106.481 11.607C106.601 11.607 106.695 11.527 106.695 11.4068C106.695 11.2866 106.588 11.1797 106.481 11.1797Z" fill="#9C9C9C"/>
<path d="M105.025 11.4047C105.025 11.5243 104.906 11.6172 104.786 11.6172C104.667 11.6172 104.547 11.5243 104.547 11.4047C104.547 11.2586 104.653 11.1523 104.786 11.1523C104.919 11.1523 105.025 11.2586 105.025 11.4047Z" fill="#9C9C9C"/>
<path d="M103.359 11.3977C103.359 11.5438 103.226 11.6501 103.08 11.6501C102.934 11.6501 102.801 11.5438 102.801 11.3977C102.801 11.2383 102.92 11.1055 103.08 11.1055C103.24 11.1055 103.359 11.2383 103.359 11.3977Z" fill="#9C9C9C"/>
<path d="M101.724 11.4141C101.724 11.5735 101.578 11.7196 101.405 11.7196C101.232 11.7196 101.086 11.5868 101.086 11.4141C101.086 11.2281 101.232 11.082 101.405 11.082C101.578 11.082 101.724 11.2281 101.724 11.4141Z" fill="#9C9C9C"/>
<path d="M100.085 11.4046C100.085 11.5908 99.9117 11.777 99.6986 11.777C99.4856 11.777 99.3125 11.5908 99.3125 11.4046C99.3125 11.1784 99.4856 10.9922 99.6986 10.9922C99.9117 10.9922 100.085 11.1784 100.085 11.4046Z" fill="#9C9C9C"/>
<path d="M98.8595 11.8867C98.6598 11.8867 98.5 12.0597 98.5 12.2459C98.5 12.4189 98.6465 12.5918 98.8595 12.5918C99.0726 12.5918 99.2324 12.4189 99.2324 12.2459C99.2324 12.0597 99.0726 11.8867 98.8595 11.8867Z" fill="#9C9C9C"/>
<path d="M95.8332 15.5812C95.8332 15.794 95.6601 15.9669 95.4471 15.9669C95.234 15.9669 95.0742 15.7807 95.0742 15.5812C95.0742 15.3816 95.2474 15.1953 95.4471 15.1953C95.6468 15.1953 95.8332 15.3816 95.8332 15.5812Z" fill="#9C9C9C"/>
<path d="M97.9985 12.6992C97.8121 12.6992 97.6523 12.8589 97.6523 13.0318C97.6523 13.2314 97.8121 13.4043 97.9985 13.4043C98.1849 13.4043 98.3447 13.2314 98.3447 13.0318C98.3447 12.8722 98.1982 12.6992 97.9985 12.6992Z" fill="#9C9C9C"/>
<path d="M96.3383 14.3906C96.1386 14.3906 95.9922 14.5635 95.9922 14.7631C95.9922 14.936 96.1519 15.0957 96.3383 15.0957C96.5247 15.0957 96.6845 14.936 96.6845 14.7631C96.6845 14.5635 96.5247 14.3906 96.3383 14.3906Z" fill="#9C9C9C"/>
<path d="M97.5124 13.9172C97.5124 14.1165 97.3661 14.2493 97.18 14.2493C96.9939 14.2493 96.8477 14.1165 96.8477 13.9172C96.8477 13.718 96.9939 13.5586 97.18 13.5586C97.3661 13.5586 97.5124 13.718 97.5124 13.9172Z" fill="#9C9C9C"/>
<path d="M98.8624 13.7578C98.7808 13.7578 98.6992 13.8258 98.6992 13.9209C98.6992 14.016 98.7672 14.0839 98.8624 14.0839C98.9575 14.0839 99.0119 14.016 99.0119 13.9209C99.0119 13.8258 98.9439 13.7578 98.8624 13.7578Z" fill="#9C9C9C"/>
<path d="M119.083 13.3471C118.962 13.3471 118.869 13.2402 118.869 13.1199C118.869 12.9996 118.962 12.9061 119.083 12.9061C119.203 12.9061 119.297 12.9862 119.297 13.1199C119.297 13.2536 119.203 13.3471 119.083 13.3471ZM118.307 12.5184C118.147 12.5184 118.013 12.3714 118.013 12.2377C118.013 12.0907 118.134 11.9436 118.307 11.9436C118.481 11.9436 118.615 12.0907 118.615 12.2377C118.615 12.3714 118.481 12.5184 118.307 12.5184ZM117.465 11.7164C117.278 11.7164 117.144 11.5827 117.144 11.409C117.144 11.2218 117.291 11.0614 117.465 11.0614C117.639 11.0614 117.786 11.2218 117.786 11.409C117.786 11.5694 117.639 11.7164 117.465 11.7164ZM116.623 10.9144C116.423 10.9144 116.262 10.7673 116.262 10.5535C116.262 10.3396 116.423 10.1925 116.623 10.1925C116.824 10.1925 116.984 10.3396 116.984 10.5535C116.984 10.7673 116.824 10.9144 116.623 10.9144ZM115.768 10.0856C115.567 10.0856 115.407 9.91185 115.407 9.69798C115.407 9.51084 115.567 9.35043 115.768 9.35043C115.968 9.35043 116.129 9.51084 116.129 9.69798C116.129 9.91185 115.968 10.0856 115.768 10.0856ZM114.912 9.20341C114.738 9.20341 114.591 9.05639 114.591 8.88262C114.591 8.70885 114.738 8.56183 114.912 8.56183C115.086 8.56183 115.233 8.70885 115.233 8.88262C115.233 9.05639 115.086 9.20341 114.912 9.20341ZM114.07 8.34792C113.91 8.34792 113.763 8.22767 113.763 8.06727C113.763 7.8935 113.896 7.75977 114.07 7.75977C114.244 7.75977 114.364 7.8935 114.364 8.06727C114.364 8.22767 114.231 8.34792 114.07 8.34792ZM113.228 9.32375C112.987 9.32375 112.787 9.10986 112.787 8.88262C112.787 8.65539 112.987 8.44149 113.228 8.44149C113.469 8.44149 113.669 8.65539 113.669 8.88262C113.669 9.10986 113.469 9.32375 113.228 9.32375ZM112.373 8.44149C112.159 8.44149 111.985 8.26777 111.985 8.06727C111.985 7.84003 112.159 7.6529 112.373 7.6529C112.586 7.6529 112.76 7.82666 112.76 8.06727C112.76 8.26777 112.586 8.44149 112.373 8.44149ZM113.228 6.97118C113.348 6.97118 113.455 7.06473 113.455 7.21177C113.455 7.3588 113.348 7.45236 113.228 7.45236C113.108 7.45236 113.001 7.3588 113.001 7.21177C113.001 7.06473 113.108 6.97118 113.228 6.97118ZM111.544 7.54594C111.37 7.54594 111.21 7.3989 111.21 7.21177C111.21 7.02463 111.37 6.86422 111.544 6.86422C111.731 6.86422 111.878 7.01127 111.878 7.21177C111.878 7.41227 111.731 7.54594 111.544 7.54594ZM110.688 8.48163C110.448 8.48163 110.247 8.28112 110.247 8.05389C110.247 7.79992 110.448 7.59938 110.688 7.59938C110.929 7.59938 111.13 7.79992 111.13 8.05389C111.13 8.28112 110.929 8.48163 110.688 8.48163ZM109.833 7.586C109.619 7.586 109.445 7.41226 109.445 7.19839C109.445 6.98452 109.619 6.81078 109.833 6.81078C110.047 6.81078 110.221 6.98452 110.221 7.19839C110.221 7.41226 110.06 7.586 109.833 7.586ZM110.688 6.1023C110.822 6.1023 110.942 6.2226 110.942 6.35627C110.942 6.48994 110.836 6.62362 110.688 6.62362C110.541 6.62362 110.435 6.50331 110.435 6.35627C110.435 6.20924 110.541 6.1023 110.688 6.1023ZM108.991 6.69044C108.804 6.69044 108.67 6.54341 108.67 6.35627C108.67 6.16914 108.817 6.03548 108.991 6.03548C109.165 6.03548 109.312 6.1825 109.312 6.35627C109.312 6.53004 109.165 6.69044 108.991 6.69044ZM108.162 7.61276C107.935 7.61276 107.761 7.439 107.761 7.21177C107.761 6.98453 107.935 6.7974 108.162 6.7974C108.389 6.7974 108.563 6.98453 108.563 7.21177C108.563 7.439 108.389 7.61276 108.162 7.61276ZM108.162 5.4072C108.229 5.4072 108.296 5.46071 108.296 5.54092C108.296 5.60775 108.242 5.67455 108.162 5.67455C108.095 5.67455 108.028 5.60775 108.028 5.54092C108.028 5.46071 108.095 5.4072 108.162 5.4072ZM107.307 6.69044C107.133 6.69044 106.986 6.54341 106.986 6.35627C106.986 6.16914 107.146 6.03548 107.307 6.03548C107.467 6.03548 107.627 6.1825 107.627 6.35627C107.627 6.53004 107.48 6.69044 107.307 6.69044ZM106.465 7.61276C106.237 7.61276 106.064 7.439 106.064 7.21177C106.064 6.98453 106.237 6.7974 106.465 6.7974C106.692 6.7974 106.866 6.98453 106.866 7.21177C106.866 7.439 106.692 7.61276 106.465 7.61276ZM106.465 5.35376C106.572 5.35376 106.665 5.44736 106.665 5.55429C106.665 5.66123 106.572 5.74137 106.465 5.74137C106.358 5.74137 106.264 5.66123 106.264 5.55429C106.264 5.44736 106.358 5.35376 106.465 5.35376ZM105.609 6.69044C105.435 6.69044 105.288 6.54341 105.288 6.35627C105.288 6.16914 105.435 6.03548 105.609 6.03548C105.796 6.03548 105.93 6.1825 105.93 6.35627C105.93 6.53004 105.783 6.69044 105.609 6.69044ZM104.78 7.61276C104.553 7.61276 104.366 7.439 104.366 7.21177C104.366 6.98453 104.54 6.7974 104.78 6.7974C105.021 6.7974 105.168 6.98453 105.168 7.21177C105.168 7.439 105.008 7.61276 104.78 7.61276ZM104.78 5.4072C104.847 5.4072 104.914 5.46071 104.914 5.54092C104.914 5.60775 104.847 5.67455 104.78 5.67455C104.714 5.67455 104.647 5.60775 104.647 5.54092C104.647 5.46071 104.714 5.4072 104.78 5.4072ZM103.925 6.67706C103.765 6.67706 103.618 6.53004 103.618 6.35627C103.618 6.1825 103.751 6.06224 103.925 6.06224C104.099 6.06224 104.232 6.19587 104.232 6.35627C104.232 6.53004 104.099 6.67706 103.925 6.67706ZM103.083 7.586C102.882 7.586 102.722 7.42564 102.722 7.21177C102.722 6.9979 102.882 6.85084 103.083 6.85084C103.283 6.85084 103.444 7.01127 103.444 7.21177C103.444 7.41227 103.283 7.586 103.083 7.586ZM102.241 8.46825C102.014 8.46825 101.826 8.28107 101.826 8.08056C101.826 7.83996 102.014 7.6529 102.241 7.6529C102.468 7.6529 102.655 7.83996 102.655 8.08056C102.655 8.29443 102.468 8.46825 102.241 8.46825ZM102.241 6.16912C102.361 6.16912 102.455 6.26272 102.455 6.36965C102.455 6.47659 102.361 6.58349 102.241 6.58349C102.121 6.58349 102.04 6.48995 102.04 6.36965C102.04 6.24935 102.134 6.16912 102.241 6.16912ZM101.412 7.53256C101.238 7.53256 101.105 7.39892 101.105 7.22515C101.105 7.05138 101.238 6.91766 101.412 6.91766C101.586 6.91766 101.719 7.05138 101.719 7.22515C101.719 7.39892 101.586 7.53256 101.412 7.53256ZM100.557 8.42811C100.356 8.42811 100.196 8.2677 100.196 8.08056C100.196 7.86669 100.356 7.69295 100.557 7.69295C100.757 7.69295 100.931 7.86669 100.931 8.08056C100.931 8.2677 100.77 8.42811 100.557 8.42811ZM99.7011 9.29699C99.4873 9.29699 99.3002 9.10986 99.3002 8.88262C99.3002 8.65539 99.4873 8.48163 99.7011 8.48163C99.915 8.48163 100.102 8.66875 100.102 8.88262C100.102 9.09649 99.9284 9.29699 99.7011 9.29699ZM98.8724 10.1391C98.6452 10.1391 98.4714 9.95196 98.4714 9.71136C98.4714 9.49749 98.6452 9.31037 98.8724 9.31037C99.0996 9.31037 99.2868 9.49749 99.2868 9.71136C99.2868 9.95196 99.0996 10.1391 98.8724 10.1391ZM98.8724 7.86673C98.9793 7.86673 99.0596 7.96033 99.0596 8.06727C99.0596 8.16083 98.9793 8.24104 98.8724 8.24104C98.7655 8.24104 98.6719 8.16083 98.6719 8.06727C98.6719 7.96033 98.7655 7.86673 98.8724 7.86673ZM98.0169 9.12322C97.8833 9.12322 97.7763 9.01629 97.7763 8.88262C97.7763 8.74895 97.8833 8.65541 98.0169 8.65541C98.1506 8.65541 98.2575 8.76232 98.2575 8.88262C98.2575 9.00292 98.1506 9.12322 98.0169 9.12322ZM97.1882 9.99209C97.0412 9.99209 96.9209 9.87176 96.9209 9.71136C96.9209 9.57769 97.0412 9.47077 97.1882 9.47077C97.3352 9.47077 97.4556 9.57769 97.4556 9.71136C97.4556 9.85839 97.3352 9.99209 97.1882 9.99209ZM96.3327 10.8208C96.1991 10.8208 96.0921 10.7005 96.0921 10.5669C96.0921 10.4332 96.1991 10.3129 96.3327 10.3129C96.4664 10.3129 96.5734 10.4198 96.5734 10.5669C96.5734 10.7139 96.4664 10.8208 96.3327 10.8208ZM95.4506 11.596C95.3436 11.596 95.2634 11.5292 95.2634 11.4223C95.2634 11.3153 95.3436 11.2084 95.4506 11.2084C95.5575 11.2084 95.6511 11.302 95.6511 11.4223C95.6511 11.5426 95.5575 11.596 95.4506 11.596ZM94.7154 14.2694C94.5283 14.2694 94.3813 14.1357 94.3813 13.9352C94.3813 13.7347 94.5283 13.5878 94.7154 13.5878C94.9026 13.5878 95.0496 13.7481 95.0496 13.9352C95.0496 14.1224 94.9026 14.2694 94.7154 14.2694ZM106.906 0.768947C99.7145 0.768947 93.8867 6.59687 93.8867 13.7882C93.8867 14.8977 94.0204 15.9403 94.2743 16.9562H94.3947C94.7021 16.9562 94.9961 16.8893 95.0228 16.5284C95.0496 16.3279 94.9961 16.1141 94.7421 16.074C94.4213 16.0339 94.3546 15.9002 94.3145 15.8601C94.2744 15.7932 94.2609 15.6729 94.2609 15.6195C94.2877 15.3789 94.4748 15.2452 94.7421 15.2452C94.849 15.2452 94.956 15.2452 95.0228 15.165C95.1832 14.9645 94.9827 14.617 95.1832 14.4432C95.3436 14.2962 95.611 14.4967 95.8115 14.2828C95.9585 14.0957 96.0521 13.6546 95.5976 13.561C95.0629 13.4273 94.9961 12.8392 95.464 12.7723C95.7848 12.7189 95.9051 12.9328 95.8917 13.2402C95.8917 13.3204 95.8783 13.3872 95.9184 13.4541C95.9451 13.5075 96.012 13.5476 96.0655 13.561C96.3462 13.6011 96.5868 13.5343 96.7204 13.2937C96.7739 13.2001 96.7738 13.0798 96.7605 12.9595C96.7605 12.906 96.7204 12.7857 96.6402 12.7323C96.4397 12.5986 96.2125 12.8258 96.0253 12.5451C95.9719 12.4649 95.9451 12.3847 95.9451 12.2911C95.9451 12.1976 95.9986 12.0773 96.1055 11.9971C96.2125 11.9169 96.3328 11.8768 96.4665 11.9035C96.7338 11.9704 96.7471 12.1575 96.7471 12.3713C96.7471 12.4515 96.7471 12.5318 96.7872 12.5853C96.8674 12.6922 97.0412 12.7189 97.1748 12.7189C97.3219 12.7189 97.4556 12.6387 97.5358 12.5184C97.6026 12.3981 97.6293 12.3045 97.616 12.1976C97.5759 11.7297 97.2951 11.9703 97.0011 11.8634C96.7337 11.7698 96.7204 11.3822 96.8942 11.1951C96.9744 11.0881 97.1081 11.048 97.2417 11.048C97.3754 11.0614 97.5358 11.155 97.5759 11.2886C97.6026 11.3688 97.5892 11.4892 97.5892 11.5694C97.5892 11.6362 97.5892 11.703 97.6293 11.7698C97.6962 11.8768 97.8566 11.9035 97.9903 11.8902C98.1507 11.8902 98.2709 11.8367 98.3645 11.7164C98.4447 11.6228 98.4581 11.5292 98.4581 11.3822C98.4581 11.2753 98.458 11.1015 98.3511 11.048C98.2976 11.0213 98.2308 11.0213 98.1773 11.0213C97.91 11.0213 97.7363 11.0213 97.6427 10.7941C97.6026 10.6738 97.616 10.5535 97.6561 10.4465C97.7898 10.1658 98.2309 10.1391 98.4046 10.4065C98.4982 10.5535 98.3645 10.8342 98.4714 10.9545C98.565 11.0614 98.9125 11.0481 99.0462 10.9946C99.4873 10.8342 99.1397 10.3797 99.3402 10.2327C99.5407 10.0857 99.9283 10.2995 100.089 10.0856C100.115 10.0455 100.115 9.97873 100.115 9.91189C100.115 9.68466 100.102 9.52424 100.263 9.39057C100.356 9.32373 100.49 9.32375 100.623 9.32375C100.717 9.32375 100.851 9.32373 100.918 9.39057C100.984 9.47077 100.944 9.57765 100.944 9.67122C100.944 10.0054 101.105 10.206 101.452 10.1659C101.96 10.1124 101.907 9.43069 101.546 9.32375C101.425 9.28365 101.265 9.32371 101.171 9.28361C101.105 9.25688 100.998 9.21676 100.971 9.09646C100.944 9.00289 100.958 8.89599 100.971 8.80242C101.024 8.48162 101.412 8.37467 101.653 8.53507C101.96 8.74894 101.613 9.19007 102.027 9.31037C102.12 9.3371 102.281 9.3371 102.388 9.31037C102.882 9.20344 102.508 8.70883 102.749 8.52169C102.869 8.41476 103.136 8.42814 103.323 8.45487C103.39 8.45487 103.457 8.4816 103.484 8.53507C103.511 8.61527 103.497 8.72224 103.497 8.8158C103.497 9.08314 103.604 9.2569 103.871 9.31037C104.045 9.3371 104.179 9.2569 104.286 9.1366C104.379 9.02966 104.393 8.92271 104.393 8.78904C104.393 8.34794 104.139 8.44149 103.791 8.44149C103.711 8.44149 103.631 8.44151 103.577 8.37468C103.511 8.29448 103.511 8.14744 103.524 8.04051C103.524 7.89347 103.577 7.75978 103.711 7.67958C103.791 7.61274 103.938 7.59939 104.059 7.61276C104.179 7.61276 104.313 7.73306 104.353 7.86673C104.406 8.05387 104.326 8.25435 104.5 8.42811C104.633 8.56178 105.021 8.56182 105.128 8.38806C105.262 8.21429 105.101 7.90681 105.328 7.67958C105.409 7.61274 105.476 7.59938 105.582 7.59938C105.93 7.59938 106.037 7.73303 106.037 8.08056C106.037 8.16076 106.024 8.2544 106.064 8.32124C106.144 8.49501 106.531 8.50835 106.652 8.46825C106.759 8.42815 106.825 8.38806 106.852 8.30786C106.946 8.08062 106.785 7.83996 107.026 7.6662C107.106 7.62609 107.16 7.59938 107.267 7.59938C108.095 7.59938 107.374 8.34795 108.055 8.46825C108.149 8.48162 108.282 8.48159 108.376 8.44149C108.683 8.30783 108.483 8.06721 108.577 7.83997C108.617 7.73304 108.71 7.66624 108.804 7.62614C108.897 7.58604 109.044 7.58604 109.151 7.62614C109.592 7.78654 109.272 8.2544 109.485 8.40144C109.632 8.52174 110.127 8.34792 110.221 8.52169C110.261 8.60189 110.247 8.70886 110.247 8.80242C110.247 9.04303 110.328 9.27028 110.582 9.32375C110.809 9.36385 111.049 9.297 111.116 9.0564C111.143 8.98956 111.116 8.92268 111.116 8.84248C111.116 8.62861 111.196 8.46824 111.424 8.45487C111.531 8.45487 111.651 8.45491 111.744 8.49501C112.119 8.68215 111.825 9.09645 112.025 9.25685C112.186 9.37715 112.68 9.21681 112.774 9.40395C112.814 9.47078 112.8 9.56434 112.787 9.64454C112.774 9.85841 112.814 10.0589 112.987 10.1525C113.081 10.1926 113.188 10.2059 113.308 10.1925C113.402 10.1925 113.562 10.1257 113.602 10.0322C113.696 9.79155 113.535 9.56428 113.789 9.41725C113.856 9.36378 113.937 9.32375 114.03 9.32375C114.164 9.32375 114.297 9.37721 114.378 9.48415C114.458 9.57771 114.485 9.67128 114.485 9.81832C114.458 10.4867 113.816 9.85839 113.629 10.4599C113.589 10.5936 113.629 10.7539 113.683 10.8475C113.763 10.9411 113.937 11.0079 114.07 11.0079C114.164 11.0079 114.244 10.9812 114.324 10.9545C114.672 10.7807 114.338 10.353 114.618 10.2193C114.712 10.1792 114.819 10.1792 114.939 10.1792C115.3 10.1792 115.327 10.4465 115.327 10.7139C115.327 10.7139 115.273 10.9945 115.554 11.0079C115.875 10.9945 116.182 10.9945 116.182 11.4357C116.182 11.556 116.155 11.7298 116.249 11.81C116.289 11.8501 116.369 11.85 116.436 11.85C116.663 11.85 116.864 11.8501 116.997 12.0506C117.104 12.211 116.931 12.4783 117.091 12.6387C117.144 12.6922 117.225 12.6788 117.292 12.6788C117.599 12.6788 117.84 12.7189 117.893 13.0397C117.906 13.1734 117.906 13.4006 117.813 13.4808C117.759 13.5209 117.706 13.5209 117.639 13.5209C117.372 13.5209 117.158 13.5476 117.091 13.8016C117.051 13.962 117.091 14.0957 117.185 14.216C117.265 14.2828 117.385 14.3363 117.519 14.3363C117.679 14.3363 117.853 14.2694 117.893 14.1358C117.92 14.0422 117.906 13.9219 117.92 13.815C117.92 13.7348 117.92 13.6412 117.96 13.5878C118.013 13.561 118.107 13.561 118.187 13.561C118.321 13.561 118.428 13.561 118.521 13.6011C118.615 13.6679 118.682 13.815 118.682 13.9486C118.682 14.1358 118.615 14.3229 118.428 14.3363C118.321 14.3363 118.2 14.3229 118.107 14.363C117.88 14.4699 117.786 14.8175 117.946 15.0313C118.067 15.2318 118.428 15.3789 118.668 15.0981C118.802 14.9377 118.641 14.6839 118.882 14.5101C118.922 14.4834 118.962 14.4566 119.016 14.4432C119.337 14.3897 119.577 14.7373 119.417 15.0047C119.363 15.1116 119.31 15.1516 119.203 15.1917C119.069 15.2318 118.869 15.1383 118.802 15.2319C118.655 15.3923 118.695 15.6863 118.735 15.82C118.762 15.9002 118.815 15.9804 118.869 16.0338C118.869 16.0338 118.882 16.0339 118.895 16.0472C119.016 16.1274 119.203 16.0606 119.323 16.114C119.43 16.1675 119.47 16.2745 119.591 16.3012H119.657C119.818 15.5126 119.911 14.6437 119.911 13.7615C119.911 6.57011 114.084 0.742188 106.892 0.742188" fill="#9C9C9C"/>
<path d="M19.4006 4.4233C24.5868 4.90451 23.5175 9.6364 20.1224 9.97057C16.2328 10.3448 18.5451 5.88028 19.4006 4.4233ZM19.3605 12.537C23.1032 12.2696 26.5784 7.24373 23.8249 3.95549C22.662 2.56534 20.764 2.23114 18.9996 2.00391C17.9036 3.01979 16.9812 3.96883 16.4599 5.34561C15.4307 7.95215 15.4709 12.8043 19.3739 12.537" fill="#9C9C9C"/>
<path d="M166.977 17.4301H169.81C170.051 17.4568 170.265 17.5371 170.438 17.8178C170.572 18.0316 170.559 18.7801 170.559 18.7801V23.8863C170.599 24.3675 170.826 25.2096 172.591 25.2765H185.61V23.4719H174.515C173.82 23.512 173.74 23.1779 173.727 22.7501V18.4727C173.727 18.0584 173.673 17.6707 173.299 17.4435H187.026V15.6523H166.99V17.4435L166.977 17.4301Z" fill="#9C9C9C"/>
<path d="M177.46 4.91553C179.625 4.91553 181.376 6.27896 181.376 8.44439C181.376 10.6098 179.625 11.9733 177.46 11.9733C175.294 11.9733 173.543 10.6098 173.543 8.44439C173.543 6.27896 175.294 4.91553 177.46 4.91553ZM177.46 13.7911C181.416 13.7911 184.611 11.6391 184.611 8.44439C184.611 5.24972 181.403 3.09766 177.46 3.09766C173.517 3.09766 170.309 5.24972 170.309 8.44439C170.309 11.6391 173.517 13.7911 177.46 13.7911Z" fill="#9C9C9C"/>
<path d="M124.234 18.1549H132.762V25.8542H136.05V18.1549H144.578V16.2969H124.234V18.1549Z" fill="#9C9C9C"/>
<path d="M134.407 4.95998C136.679 4.95998 138.523 6.40355 138.523 8.66254C138.523 10.9215 136.679 12.3652 134.407 12.3652C132.134 12.3652 130.29 10.9215 130.29 8.66254C130.29 6.40355 132.134 4.95998 134.407 4.95998ZM134.407 14.2766C138.55 14.2766 141.919 12.0043 141.919 8.64924C141.919 5.29417 138.564 3.03516 134.407 3.03516C130.25 3.03516 126.895 5.29417 126.895 8.64924C126.895 12.0043 130.263 14.2766 134.407 14.2766Z" fill="#9C9C9C"/>
<path d="M191.369 10.1682C191.369 8.37702 192.572 7.24084 194.055 7.24084C195.539 7.24084 196.755 8.37702 196.755 10.1682C196.755 11.9593 195.552 13.0954 194.055 13.0954C192.558 13.0954 191.369 11.9593 191.369 10.1682ZM192.692 4.17978V4.83474H188.188V6.62593H190.326C189.203 7.45468 188.482 8.68439 188.482 10.1815C188.482 12.9751 190.981 14.8732 194.042 14.8732C197.103 14.8732 199.602 12.9885 199.602 10.1815C199.602 8.68439 198.894 7.45468 197.758 6.62593H199.75V4.83474H195.472V3.83223C195.472 3.33766 195.312 3.07031 194.644 3.07031H192.411C192.411 3.07031 192.665 3.21738 192.665 4.19316" fill="#9C9C9C"/>
<path d="M200.206 23.9674C198.161 23.9674 196.503 22.6708 196.503 20.639C196.503 18.6073 198.161 17.3107 200.206 17.3107C202.251 17.3107 203.908 18.6073 203.908 20.639C203.908 22.6708 202.251 23.9674 200.206 23.9674ZM200.206 15.5195C196.396 15.5195 193.309 17.578 193.309 20.6257C193.309 23.6733 196.396 25.7318 200.206 25.7318C204.015 25.7318 207.103 23.6733 207.103 20.6257C207.103 17.578 204.015 15.5195 200.206 15.5195Z" fill="#9C9C9C"/>
<path d="M204.562 5.22869V7.7951H203.372V4.17266C203.372 3.69145 203.212 3.4375 202.503 3.4375H200.512C200.512 3.4375 200.779 3.67814 200.779 5.22869V14.5587H203.372V9.65311H204.562V14.5587H207.155V4.17266C207.155 3.69145 206.995 3.4375 206.286 3.4375H204.294C204.294 3.4375 204.562 3.69151 204.562 5.22869Z" fill="#9C9C9C"/>
<path d="M160.8 25.2594H163.861V4.16651C163.861 3.6853 163.54 3.41797 162.819 3.41797H160.52C160.52 3.41797 160.787 3.6319 160.787 5.23592V25.2594H160.8Z" fill="#9C9C9C"/>
<path d="M160.805 15.9886C160.805 17.6728 158.212 17.6327 158.212 17.6327H150.686C149.991 17.6862 149.911 17.3387 149.898 16.9109V12.3795H156.394C157.116 12.3795 157.276 12.1122 157.276 11.631V4.84063C157.276 4.35942 157.116 4.10547 156.394 4.10547H146.355V5.90996H154.081V10.5751H146.422C146.422 10.5751 146.703 10.9225 146.703 11.8716V18.0738C146.743 18.555 146.97 19.3971 148.735 19.4639H157.543C157.543 19.4639 160.992 19.5709 160.992 18.4748" fill="#9C9C9C"/>
<path d="M11.3479 13.9585C7.71219 13.0763 4.07644 12.1807 0.440744 11.2852C-0.668679 17.8616 12.5642 17.18 17.3895 17.3404C17.3895 21.0029 17.2559 24.4248 17.7906 27.8333C18.5926 27.8333 18.5658 26.5234 18.7129 25.8417C19.2475 23.3421 18.7663 20.5885 19.7822 18.3161C20.4371 16.819 26.8397 17.2602 28.818 15.9903C29.4195 15.9903 29.2189 15.7364 29.2189 15.1749C22.7228 15.1749 17.3227 15.0279 11.3345 13.9585" fill="#9C9C9C"/>
<path d="M45.4264 8.45733C44.5976 7.62859 43.1674 11.6119 43.1674 11.6253C41.51 14.7932 40.8016 16.317 36.9119 17.7205C36.0965 17.7874 36.8584 16.3705 36.8584 16.3705C38.0614 14.3922 39.398 10.3955 39.2109 9.3395C38.6629 6.22503 34.3989 4.28687 31.6053 4.01953V6.43892C32.7549 6.43892 34.0916 7.20085 35.2411 8.12316C35.2411 8.12316 37.1257 9.68709 36.2034 10.3955C36.1099 10.4356 36.0296 10.4891 35.9361 10.5426C35.4816 10.8099 35.0139 11.0906 34.4257 11.1441C31.5787 11.4114 28.3038 9.76731 28.1835 12.3337C28.1568 12.3738 27.1008 13.6303 29.8811 13.6837C31.7658 13.8174 34.8534 13.6837 35.6554 13.6837C35.6554 13.9644 35.1609 14.7264 34.9737 15.1541C34.4792 16.1967 32.8885 19.0305 34.7732 19.8993C36.1499 20.5409 37.7539 19.8057 39.0505 18.7899C39.0505 18.7899 40.454 18.0814 41.7104 16.5442C41.7104 17.7072 41.6437 18.9771 41.6838 20.1801C41.6838 20.1801 41.4966 21.6504 42.2184 21.6504C42.9402 21.6504 43.3813 20.9152 43.3946 19.3379C43.6219 16.2101 44.8382 13.7907 45.4932 11.0505C45.4932 11.0505 46.2819 9.25931 45.4531 8.43057" fill="#9C9C9C"/>
<path d="M59.2361 12.9089C59.6371 11.4385 60.0381 9.94144 60.4391 8.47109C60.4391 7.74928 59.4366 7.7626 58.8218 7.66903C57.6589 11.2513 55.3599 14.3391 51.8578 15.8629C51.6306 15.9565 51.39 16.0634 51.1494 16.1436C51.1494 16.1436 51.1494 16.157 51.136 16.1704C49.9196 16.4778 50.0667 15.0609 50.0667 15.0475C50.4142 13.0158 51.4167 11.4118 52.0583 9.54042C52.9672 7.9765 52.0583 7.375 52.0583 7.375C51.0959 7.375 50.0399 9.75425 50.0399 9.75425C48.8102 11.6791 47.3666 14.6198 48.3825 17.1595C49.3182 19.4987 51.8846 18.4694 53.8628 17.106C54.1836 16.8788 55.801 15.7961 56.7901 15.0075V19.0977C56.7901 19.325 56.8168 19.7928 56.8168 19.7928C56.8569 20.2873 56.9505 20.8488 57.1911 20.8488C57.552 20.8488 57.9797 19.7794 58.0064 19.7794C58.0064 19.7794 57.846 16.8387 58.9287 15.0877C59.7173 13.8446 61.8426 14.0049 63.0055 14.2054C63.0857 14.1787 63.1659 14.152 63.2461 14.1252C63.2461 14.0049 63.607 13.8045 63.607 13.2564C62.1367 13.2564 60.6931 12.9223 59.2094 12.9223" fill="#9C9C9C"/>
<path d="M84.4483 13.7344V13.7076C84.2879 13.7076 84.1274 13.6808 83.967 13.6808C83.967 13.6808 83.9537 13.6808 83.9403 13.6808C82.2294 13.5605 80.5051 13.4403 78.7941 13.3066C78.7941 11.4353 80.211 8.70838 81.2135 7.2514V7.21134C81.8952 6.3826 81.2938 6.34249 80.6923 6.44942C80.3982 6.46279 80.1308 6.52959 79.8902 6.66325C77.9521 7.6123 77.3373 11.4754 76.2679 12.8254C75.5729 13.6809 74.4367 14.2823 73.5144 14.6834C73.0332 14.8839 72.4852 15.2448 71.9104 15.0309C71.456 14.8571 73.0599 13.0527 73.2337 12.8388C73.9956 11.863 75.3189 10.8471 75.4793 9.61735C75.8936 6.18208 70.1327 4.16372 66.898 3.72262C66.898 3.72262 66.4434 3.57559 66.0024 3.64242C65.9756 3.64242 65.9356 3.64242 65.9089 3.64242C65.548 3.74935 65.2138 3.98996 65.2138 4.64493C65.2138 5.90141 65.9356 6.38263 66.6306 6.48956C66.6574 6.48956 66.6841 6.51624 66.6974 6.51624C68.7024 6.70337 70.0792 7.31825 71.4961 8.18709C71.5094 8.18709 71.5228 8.20049 71.5361 8.21385C71.9505 8.46782 74.6906 10.3125 69.7985 10.5798C67.5128 10.3526 64.6791 9.69757 63.4761 11.3016C63.4761 11.3016 61.1102 13.1863 67.0584 12.812C68.0208 12.8521 68.9831 12.8789 69.9321 12.919C69.9321 13.1997 67.7401 17.0493 68.9163 17.878C70.8277 19.188 74.2763 16.4077 75.5862 15.3384H75.9872C75.9872 16.8622 75.5327 18.5732 75.6397 20.1772C75.6397 20.1772 75.5461 21.7678 75.9872 22.5564V22.5966H76.014C76.1476 22.8372 76.3481 22.9842 76.6021 22.9842C77.7249 22.9842 77.257 21.8614 77.257 21.8614C77.3907 20.3911 77.7115 17.2097 78.0056 16.5414C78.0056 15.8998 81.7616 15.1245 83.4458 14.6967C83.4458 14.6967 84.8626 14.523 85.023 14.122C85.1032 13.9081 84.7823 13.8012 84.4616 13.7477" fill="#9C9C9C"/>
</svg>
