<svg width="267" height="266" viewBox="0 0 267 266" fill="none" xmlns="http://www.w3.org/2000/svg">
<circle cx="133.912" cy="132.99" r="132.99" fill="#2B2F34"/>
<path d="M123.088 111.728V122.227C123.088 123.423 122.802 124.474 122.23 125.379C121.658 126.279 120.853 126.976 119.816 127.468C118.783 127.96 117.59 128.207 116.234 128.207C114.874 128.207 113.674 127.96 112.637 127.468C111.604 126.976 110.802 126.279 110.23 125.379C109.664 124.474 109.381 123.423 109.381 122.227V111.728H113.209V121.901C113.209 122.473 113.336 122.984 113.59 123.434C113.844 123.879 114.199 124.228 114.654 124.482C115.114 124.736 115.641 124.863 116.234 124.863C116.827 124.863 117.351 124.736 117.807 124.482C118.267 124.228 118.622 123.879 118.871 123.434C119.125 122.984 119.252 122.473 119.252 121.901V111.728H123.088ZM132.572 119.566C132.519 119.164 132.323 118.844 131.984 118.605C131.645 118.367 131.224 118.248 130.721 118.248C130.409 118.248 130.126 118.293 129.872 118.383C129.617 118.468 129.416 118.59 129.268 118.748C129.125 118.907 129.056 119.09 129.062 119.296C129.051 119.545 129.154 119.76 129.371 119.94C129.594 120.12 129.956 120.26 130.459 120.36L132.77 120.805C133.983 121.038 134.885 121.425 135.478 121.965C136.071 122.505 136.37 123.219 136.376 124.109C136.37 124.929 136.129 125.652 135.653 126.277C135.182 126.896 134.523 127.375 133.676 127.714C132.828 128.053 131.86 128.222 130.769 128.222C129.625 128.222 128.635 128.061 127.799 127.738C126.962 127.415 126.306 126.955 125.829 126.356C125.358 125.758 125.078 125.051 124.988 124.236H128.768C128.837 124.67 129.046 125.004 129.395 125.237C129.75 125.464 130.213 125.578 130.785 125.578C131.304 125.578 131.722 125.485 132.04 125.3C132.363 125.109 132.527 124.85 132.532 124.522C132.527 124.246 132.4 124.021 132.151 123.847C131.902 123.667 131.513 123.524 130.983 123.418L128.903 123.029C127.706 122.801 126.804 122.391 126.195 121.798C125.591 121.2 125.292 120.437 125.297 119.511C125.297 118.711 125.512 118.02 125.941 117.438C126.375 116.856 126.994 116.411 127.799 116.104C128.609 115.792 129.559 115.635 130.65 115.635C131.735 115.635 132.675 115.794 133.469 116.112C134.268 116.429 134.891 116.885 135.335 117.478C135.785 118.065 136.034 118.762 136.082 119.566H132.572ZM143.918 128.222C142.658 128.222 141.564 127.971 140.638 127.468C139.717 126.96 139.007 126.234 138.51 125.292C138.017 124.35 137.771 123.233 137.771 121.941C137.771 120.691 138.017 119.59 138.51 118.637C139.007 117.684 139.711 116.946 140.622 116.422C141.533 115.897 142.591 115.635 143.799 115.635C144.947 115.635 145.964 115.876 146.848 116.358C147.738 116.835 148.431 117.541 148.929 118.478C149.426 119.41 149.675 120.535 149.675 121.853V122.822H141.511V122.902C141.511 123.415 141.612 123.868 141.813 124.26C142.014 124.646 142.3 124.945 142.671 125.157C143.047 125.369 143.486 125.475 143.989 125.475C144.503 125.475 144.945 125.372 145.315 125.165C145.686 124.959 145.948 124.675 146.102 124.315H149.628C149.474 125.109 149.146 125.8 148.643 126.388C148.145 126.97 147.494 127.423 146.689 127.746C145.885 128.064 144.961 128.222 143.918 128.222ZM146.141 120.591C146.136 120.167 146.035 119.789 145.84 119.455C145.649 119.116 145.382 118.854 145.037 118.669C144.693 118.478 144.307 118.383 143.878 118.383C143.439 118.383 143.041 118.481 142.687 118.677C142.337 118.868 142.057 119.132 141.845 119.471C141.639 119.805 141.527 120.178 141.511 120.591H146.141ZM151.633 115.794H155.31V118.002H155.437C155.654 117.224 156.014 116.633 156.517 116.231C157.02 115.829 157.613 115.627 158.296 115.627C158.64 115.627 159 115.67 159.376 115.754V119.066C159.207 119.008 158.976 118.96 158.685 118.923C158.394 118.886 158.124 118.868 157.875 118.868C157.409 118.868 156.988 118.971 156.613 119.177C156.242 119.378 155.951 119.667 155.739 120.043C155.527 120.413 155.421 120.837 155.421 121.313V127.992H151.633V115.794ZM73.255 138.728H84.5238V141.857H77.0827V145.296H83.9362V148.417H77.0827V151.863H84.5238V154.992H73.255V138.728ZM92.2044 146.86L94.3248 142.794H98.1605L94.7298 148.893L98.2796 154.992H94.4757L92.2044 150.91L89.9808 154.992H86.1292L89.687 148.893L86.296 142.794H90.1555L92.2044 146.86ZM99.8983 142.794H103.647V144.875H103.774C104.038 144.24 104.457 143.707 105.028 143.279C105.6 142.85 106.333 142.635 107.228 142.635C108.118 142.635 108.93 142.868 109.666 143.334C110.402 143.795 110.99 144.496 111.429 145.439C111.874 146.376 112.096 147.53 112.096 148.901C112.096 150.235 111.882 151.376 111.453 152.324C111.024 153.266 110.439 153.978 109.698 154.46C108.962 154.937 108.134 155.175 107.212 155.175C106.344 155.175 105.621 154.971 105.044 154.563C104.467 154.156 104.044 153.642 103.774 153.023H103.686V159.566H99.8983V142.794ZM103.607 148.893C103.607 149.56 103.697 150.145 103.877 150.648C104.062 151.146 104.327 151.53 104.671 151.8C105.02 152.07 105.436 152.205 105.918 152.205C106.405 152.205 106.821 152.07 107.165 151.8C107.509 151.524 107.768 151.138 107.943 150.64C108.123 150.143 108.213 149.56 108.213 148.893C108.213 148.226 108.123 147.646 107.943 147.154C107.768 146.656 107.509 146.273 107.165 146.003C106.821 145.733 106.405 145.598 105.918 145.598C105.431 145.598 105.015 145.73 104.671 145.995C104.327 146.259 104.062 146.64 103.877 147.138C103.697 147.631 103.607 148.216 103.607 148.893ZM119.763 155.222C118.503 155.222 117.409 154.971 116.483 154.468C115.562 153.96 114.852 153.234 114.355 152.292C113.862 151.35 113.616 150.233 113.616 148.941C113.616 147.691 113.862 146.59 114.355 145.637C114.852 144.684 115.556 143.946 116.467 143.422C117.378 142.897 118.436 142.635 119.644 142.635C120.792 142.635 121.809 142.876 122.693 143.358C123.583 143.835 124.276 144.541 124.774 145.478C125.271 146.41 125.52 147.535 125.52 148.853V149.822H117.356V149.902C117.356 150.415 117.457 150.868 117.658 151.26C117.859 151.646 118.145 151.945 118.516 152.157C118.892 152.369 119.331 152.475 119.834 152.475C120.348 152.475 120.79 152.372 121.16 152.165C121.531 151.959 121.793 151.675 121.947 151.315H125.473C125.319 152.109 124.991 152.8 124.488 153.388C123.99 153.97 123.339 154.423 122.534 154.746C121.73 155.064 120.806 155.222 119.763 155.222ZM121.986 147.591C121.981 147.167 121.88 146.789 121.685 146.455C121.494 146.116 121.227 145.854 120.882 145.669C120.538 145.478 120.152 145.383 119.723 145.383C119.284 145.383 118.887 145.481 118.532 145.677C118.182 145.868 117.902 146.132 117.69 146.471C117.484 146.805 117.372 147.178 117.356 147.591H121.986ZM127.478 142.794H131.155V145.002H131.282C131.499 144.224 131.859 143.633 132.362 143.231C132.865 142.829 133.458 142.627 134.141 142.627C134.485 142.627 134.845 142.67 135.221 142.754V146.066C135.052 146.008 134.821 145.96 134.53 145.923C134.239 145.886 133.969 145.868 133.72 145.868C133.254 145.868 132.833 145.971 132.458 146.177C132.087 146.378 131.796 146.667 131.584 147.043C131.372 147.413 131.266 147.837 131.266 148.313V154.992H127.478V142.794ZM136.754 142.794H140.542V154.992H136.754V142.794ZM138.652 141.341C138.297 141.341 137.969 141.259 137.667 141.095C137.371 140.931 137.133 140.708 136.953 140.428C136.778 140.147 136.69 139.843 136.69 139.514C136.69 139.186 136.778 138.882 136.953 138.601C137.133 138.321 137.371 138.098 137.667 137.934C137.969 137.77 138.297 137.688 138.652 137.688C139.007 137.688 139.332 137.77 139.629 137.934C139.931 138.098 140.169 138.321 140.343 138.601C140.524 138.882 140.614 139.186 140.614 139.514C140.614 139.843 140.524 140.147 140.343 140.428C140.169 140.708 139.931 140.931 139.629 141.095C139.332 141.259 139.007 141.341 138.652 141.341ZM148.645 155.222C147.385 155.222 146.292 154.971 145.366 154.468C144.444 153.96 143.735 153.234 143.237 152.292C142.745 151.35 142.499 150.233 142.499 148.941C142.499 147.691 142.745 146.59 143.237 145.637C143.735 144.684 144.439 143.946 145.35 143.422C146.26 142.897 147.319 142.635 148.526 142.635C149.675 142.635 150.692 142.876 151.576 143.358C152.465 143.835 153.159 144.541 153.656 145.478C154.154 146.41 154.403 147.535 154.403 148.853V149.822H146.239V149.902C146.239 150.415 146.34 150.868 146.541 151.26C146.742 151.646 147.028 151.945 147.399 152.157C147.774 152.369 148.214 152.475 148.717 152.475C149.23 152.475 149.672 152.372 150.043 152.165C150.414 151.959 150.676 151.675 150.829 151.315H154.355C154.202 152.109 153.873 152.8 153.371 153.388C152.873 153.97 152.222 154.423 151.417 154.746C150.612 155.064 149.688 155.222 148.645 155.222ZM150.869 147.591C150.864 147.167 150.763 146.789 150.567 146.455C150.377 146.116 150.109 145.854 149.765 145.669C149.421 145.478 149.034 145.383 148.606 145.383C148.166 145.383 147.769 145.481 147.414 145.677C147.065 145.868 146.784 146.132 146.573 146.471C146.366 146.805 146.255 147.178 146.239 147.591H150.869ZM160.149 154.992H156.361V142.794H159.966V145.018H160.101C160.371 144.277 160.832 143.694 161.483 143.271C162.134 142.847 162.907 142.635 163.802 142.635C164.644 142.635 165.385 142.826 166.026 143.207C166.666 143.583 167.159 144.118 167.503 144.811C167.852 145.505 168.027 146.307 168.027 147.218V154.992H164.239V147.948C164.244 147.26 164.069 146.723 163.715 146.336C163.36 145.944 162.87 145.748 162.246 145.748C161.827 145.748 161.459 145.838 161.142 146.018C160.829 146.198 160.586 146.46 160.411 146.805C160.236 147.143 160.149 147.548 160.149 148.02V154.992ZM176.083 155.222C174.823 155.222 173.729 154.96 172.803 154.436C171.882 153.907 171.175 153.168 170.683 152.221C170.19 151.268 169.944 150.172 169.944 148.933C169.944 147.689 170.19 146.593 170.683 145.645C171.18 144.692 171.89 143.954 172.811 143.429C173.737 142.9 174.825 142.635 176.075 142.635C177.176 142.635 178.145 142.839 178.981 143.247C179.823 143.649 180.477 144.221 180.943 144.962C181.414 145.698 181.665 146.556 181.697 147.535H178.155C178.076 146.91 177.859 146.421 177.504 146.066C177.149 145.706 176.692 145.526 176.13 145.526C175.659 145.526 175.249 145.656 174.899 145.915C174.55 146.175 174.28 146.558 174.089 147.067C173.899 147.57 173.804 148.178 173.804 148.893C173.804 149.613 173.899 150.227 174.089 150.736C174.28 151.244 174.55 151.63 174.899 151.895C175.249 152.154 175.659 152.284 176.13 152.284C176.681 152.284 177.136 152.109 177.496 151.76C177.856 151.411 178.076 150.916 178.155 150.275H181.697C181.66 151.265 181.409 152.133 180.943 152.88C180.482 153.621 179.836 154.198 179.005 154.611C178.174 155.019 177.2 155.222 176.083 155.222ZM189.319 155.222C188.059 155.222 186.966 154.971 186.039 154.468C185.118 153.96 184.409 153.234 183.911 152.292C183.419 151.35 183.172 150.233 183.172 148.941C183.172 147.691 183.419 146.59 183.911 145.637C184.409 144.684 185.113 143.946 186.023 143.422C186.934 142.897 187.993 142.635 189.2 142.635C190.349 142.635 191.365 142.876 192.25 143.358C193.139 143.835 193.833 144.541 194.33 145.478C194.828 146.41 195.077 147.535 195.077 148.853V149.822H186.913V149.902C186.913 150.415 187.013 150.868 187.215 151.26C187.416 151.646 187.702 151.945 188.072 152.157C188.448 152.369 188.888 152.475 189.391 152.475C189.904 152.475 190.346 152.372 190.717 152.165C191.087 151.959 191.349 151.675 191.503 151.315H195.029C194.875 152.109 194.547 152.8 194.044 153.388C193.547 153.97 192.895 154.423 192.091 154.746C191.286 155.064 190.362 155.222 189.319 155.222ZM191.543 147.591C191.537 147.167 191.437 146.789 191.241 146.455C191.05 146.116 190.783 145.854 190.439 145.669C190.095 145.478 189.708 145.383 189.279 145.383C188.84 145.383 188.443 145.481 188.088 145.677C187.739 145.868 187.458 146.132 187.246 146.471C187.04 146.805 186.929 147.178 186.913 147.591H191.543Z" fill="#FF5900"/>
</svg>
