<svg width="267" height="267" viewBox="0 0 267 267" fill="none" xmlns="http://www.w3.org/2000/svg">
<circle cx="133.912" cy="133.951" r="132.99" fill="#2B2F34"/>
<path d="M119.252 112.689H123.088V123.188C123.088 126.817 120.324 129.168 116.234 129.168C112.113 129.168 109.381 126.817 109.381 123.188V112.689H113.209V122.862C113.209 124.585 114.431 125.824 116.234 125.824C118.037 125.824 119.252 124.585 119.252 122.862V112.689ZM132.572 120.527C132.46 119.717 131.722 119.209 130.721 119.209C129.784 119.209 129.046 119.622 129.062 120.257C129.046 120.726 129.403 121.107 130.459 121.321L132.77 121.766C135.192 122.235 136.36 123.291 136.376 125.07C136.36 127.563 134.065 129.183 130.769 129.183C127.283 129.183 125.25 127.627 124.988 125.197H128.768C128.911 126.078 129.657 126.539 130.785 126.539C131.809 126.539 132.516 126.142 132.532 125.483C132.516 124.927 132.04 124.593 130.983 124.379L128.903 123.99C126.504 123.537 125.289 122.322 125.297 120.472C125.289 118.042 127.362 116.596 130.65 116.596C133.93 116.596 135.939 118.097 136.082 120.527H132.572ZM143.918 129.183C140.106 129.183 137.771 126.801 137.771 122.902C137.771 119.13 140.138 116.596 143.799 116.596C147.213 116.596 149.675 118.772 149.675 122.814V123.783H141.511V123.863C141.511 125.419 142.456 126.436 143.989 126.436C145.029 126.436 145.8 125.991 146.102 125.276H149.628C149.175 127.651 147.086 129.183 143.918 129.183ZM141.511 121.552H146.141C146.125 120.265 145.188 119.344 143.878 119.344C142.544 119.344 141.567 120.297 141.511 121.552ZM151.633 128.953V116.755H155.31V118.963H155.437C155.882 117.367 156.962 116.588 158.296 116.588C158.653 116.588 159.058 116.644 159.376 116.715V120.027C159.019 119.9 158.336 119.828 157.875 119.828C156.462 119.828 155.421 120.813 155.421 122.274V128.953H151.633ZM73.255 155.953V139.689H84.5238V142.818H77.0827V146.257H83.9362V149.378H77.0827V152.824H84.5238V155.953H73.255ZM90.1555 143.755L92.2044 147.821L94.3248 143.755H98.1605L94.7298 149.854L98.2796 155.953H94.4757L92.2044 151.871L89.9808 155.953H86.1292L89.687 149.854L86.296 143.755H90.1555ZM99.8983 160.527V143.755H103.647V145.836H103.774C104.234 144.74 105.275 143.596 107.228 143.596C109.801 143.596 112.096 145.582 112.096 149.862C112.096 154 109.92 156.136 107.212 156.136C105.338 156.136 104.258 155.088 103.774 153.984H103.686V160.527H99.8983ZM103.607 149.854C103.607 151.863 104.457 153.166 105.918 153.166C107.395 153.166 108.213 151.855 108.213 149.854C108.213 147.861 107.403 146.558 105.918 146.558C104.449 146.558 103.607 147.821 103.607 149.854ZM119.763 156.183C115.951 156.183 113.616 153.801 113.616 149.902C113.616 146.13 115.983 143.596 119.644 143.596C123.058 143.596 125.52 145.772 125.52 149.814V150.783H117.356V150.863C117.356 152.419 118.301 153.436 119.834 153.436C120.875 153.436 121.645 152.991 121.947 152.276H125.473C125.02 154.651 122.931 156.183 119.763 156.183ZM117.356 148.552H121.986C121.97 147.265 121.033 146.344 119.723 146.344C118.389 146.344 117.412 147.297 117.356 148.552ZM127.478 155.953V143.755H131.155V145.963H131.282C131.727 144.367 132.807 143.588 134.141 143.588C134.498 143.588 134.904 143.644 135.221 143.715V147.027C134.864 146.9 134.181 146.828 133.72 146.828C132.307 146.828 131.266 147.813 131.266 149.274V155.953H127.478ZM136.754 155.953V143.755H140.542V155.953H136.754ZM136.69 140.475C136.69 139.467 137.572 138.649 138.652 138.649C139.732 138.649 140.614 139.467 140.614 140.475C140.614 141.484 139.732 142.302 138.652 142.302C137.572 142.302 136.69 141.484 136.69 140.475ZM148.645 156.183C144.833 156.183 142.499 153.801 142.499 149.902C142.499 146.13 144.865 143.596 148.526 143.596C151.941 143.596 154.403 145.772 154.403 149.814V150.783H146.239V150.863C146.239 152.419 147.184 153.436 148.717 153.436C149.757 153.436 150.527 152.991 150.829 152.276H154.355C153.903 154.651 151.814 156.183 148.645 156.183ZM146.239 148.552H150.869C150.853 147.265 149.916 146.344 148.606 146.344C147.271 146.344 146.295 147.297 146.239 148.552ZM160.149 148.981V155.953H156.361V143.755H159.966V145.979H160.101C160.641 144.51 161.991 143.596 163.802 143.596C166.359 143.596 168.035 145.415 168.027 148.178V155.953H164.239V148.909C164.247 147.535 163.5 146.709 162.246 146.709C160.991 146.709 160.149 147.551 160.149 148.981ZM176.083 156.183C172.239 156.183 169.944 153.618 169.944 149.894C169.944 146.153 172.263 143.596 176.075 143.596C179.418 143.596 181.602 145.534 181.697 148.496H178.155C177.997 147.257 177.258 146.487 176.13 146.487C174.725 146.487 173.804 147.67 173.804 149.854C173.804 152.054 174.717 153.245 176.13 153.245C177.21 153.245 177.997 152.53 178.155 151.236H181.697C181.586 154.206 179.474 156.183 176.083 156.183ZM189.319 156.183C185.507 156.183 183.172 153.801 183.172 149.902C183.172 146.13 185.539 143.596 189.2 143.596C192.615 143.596 195.077 145.772 195.077 149.814V150.783H186.913V150.863C186.913 152.419 187.858 153.436 189.391 153.436C190.431 153.436 191.201 152.991 191.503 152.276H195.029C194.576 154.651 192.488 156.183 189.319 156.183ZM186.913 148.552H191.543C191.527 147.265 190.59 146.344 189.279 146.344C187.945 146.344 186.968 147.297 186.913 148.552Z" fill="#D2FF52"/>
</svg>
