<svg width="1062" height="169" viewBox="0 0 1062 169" fill="none" xmlns="http://www.w3.org/2000/svg">
<path d="M1061.5 84.5C1061.5 95.8697 1051.83 106.856 1033.94 116.956C1016.08 127.032 990.21 136.123 958.2 143.764C894.186 159.044 805.727 168.5 708 168.5C610.273 168.5 521.814 159.044 457.8 143.764C425.79 136.123 399.92 127.032 382.065 116.956C364.169 106.856 354.5 95.8697 354.5 84.5C354.5 73.1303 364.169 62.1435 382.065 52.0442C399.92 41.9677 425.79 32.8768 457.8 25.2358C521.814 9.9558 610.273 0.5 708 0.5C805.727 0.5 894.186 9.9558 958.2 25.2358C990.21 32.8768 1016.08 41.9677 1033.94 52.0442C1051.83 62.1435 1061.5 73.1303 1061.5 84.5Z" stroke="black"/>
<path d="M600.784 20.0128V66.3211C601.565 65.9978 602.064 65.917 602.36 65.6476C620.38 48.7703 647.006 55.4377 653.753 78.942C657.713 92.7348 657.107 106.608 648.514 118.866C638.898 132.578 623.316 135.581 606.656 130.746C605.808 130.503 604.986 130.113 604.165 129.776C592.205 125.008 591.72 124.307 591.72 111.606C591.72 85.4882 591.72 59.3708 591.72 33.2533C591.72 25.6161 590.145 23.8247 582.711 22.6932C581.754 22.5451 580.892 21.8042 579.977 21.3328C580.865 20.8883 581.741 20.0801 582.643 20.0667C588.515 19.9454 594.387 20.0128 600.784 20.0128ZM645.524 94.0818C645.524 92.3307 645.605 90.1621 645.511 88.007C644.77 71.884 634.131 61.8088 619.074 62.8998C608.165 63.6945 600.892 71.4799 600.892 82.3633C600.892 93.3005 601.054 104.251 600.811 115.189C600.717 119.62 602.589 122.422 606.185 124.469C617.404 130.84 631.706 127.89 639.518 117.613C644.743 110.744 645.915 102.823 645.524 94.0818Z" fill="black"/>
<path d="M420.989 117.034C422.713 109.787 424.464 102.554 426.174 95.3073C431.13 74.2544 436.14 53.215 440.948 32.1352C441.635 29.118 442.955 28.0405 445.878 28.458C446.753 28.5792 447.682 28.5927 448.558 28.458C451.507 28 452.733 29.1988 453.473 32.1352C460.356 59.5188 467.399 86.8754 474.416 114.232C474.685 115.283 475.076 116.293 476.086 117.37C477.513 111.363 478.981 105.369 480.369 99.3616C484.948 79.5345 489.5 59.6939 494.038 39.8532C495.345 34.1422 493.985 32.1891 488.167 31.125C487.129 30.9364 486.16 30.4246 485.163 30.0609C485.244 29.6837 485.325 29.3201 485.406 28.9429H512.409C512.53 29.1854 512.651 29.4278 512.772 29.6703C512.018 30.1282 511.25 30.9768 510.496 30.9633C503.856 30.8691 500.894 34.9099 499.453 40.5941C495.614 55.8955 491.816 71.1968 488.059 86.5117C484.449 101.207 480.921 115.916 477.379 130.503C476.988 130.719 476.773 130.921 476.557 130.934C468.153 131.433 468.113 131.446 466.025 123.364C459.265 97.2604 452.544 71.1295 445.797 45.0255C445.46 43.719 445.07 42.4259 443.817 41.1194C440.208 56.084 436.571 71.0352 432.976 85.9999C429.38 100.951 425.811 115.902 422.228 130.894H412.814C410.592 121.883 408.356 112.885 406.148 103.901C401.057 83.279 395.953 62.6572 390.889 42.0218C389.434 36.1087 387.32 30.9768 379.899 30.896C379.414 30.896 378.943 30.0609 378 29.1854C379.374 28.8486 380.155 28.4984 380.936 28.4984C389.502 28.458 398.067 28.4311 406.619 28.5254C407.548 28.5254 408.464 29.3066 409.38 29.7107C408.491 30.1686 407.629 30.9095 406.686 31.0442C401.084 31.8658 399.67 33.2666 400.814 38.0214C407.05 63.9906 413.407 89.933 419.737 115.889C419.818 116.252 420.006 116.589 420.154 116.926C420.437 116.953 420.706 116.98 420.989 117.007V117.034Z" fill="black"/>
<path d="M843.853 130.854H814.466L813.927 129.87C814.87 129.332 815.772 128.443 816.782 128.321C822.479 127.607 823.503 126.355 821.927 120.886C819.947 114.044 817.86 107.228 815.57 100.48C815.22 99.4696 813.51 98.2708 812.419 98.2573C802.197 98.0822 791.975 98.2034 781.753 98.1091C779.773 98.0957 778.776 98.7153 778.197 100.641C776.137 107.592 773.847 114.475 771.813 121.438C770.521 125.87 772.218 127.621 777.82 128.254C779.194 128.416 780.514 129.035 781.86 129.453C781.739 129.884 781.618 130.328 781.497 130.759H753.578C754.709 129.601 755.342 128.402 755.975 128.402C762.238 128.429 764.635 124.038 766.359 119.243C769.201 111.35 771.773 103.349 774.332 95.3479C781.106 74.2681 787.894 53.1882 794.453 32.0411C795.449 28.8488 797.146 28.4043 799.988 28.4043C802.924 28.4043 804.729 28.768 805.766 32.1758C814.264 60.1789 822.991 88.1147 831.678 116.064C832.324 118.125 833.078 120.159 833.86 122.179C835.26 125.829 837.752 128.025 841.832 128.335C842.735 128.402 843.583 129.224 844.459 129.695L843.866 130.867L843.853 130.854ZM813.698 93.543C808.271 75.4534 803.018 57.9295 797.766 40.4057C797.429 40.4057 797.106 40.4057 796.769 40.4057C791.355 58.0238 785.941 75.6285 780.446 93.5295H813.685L813.698 93.543Z" fill="black"/>
<path d="M518.714 90.4721C518.148 99.4967 518.471 107.794 523.185 115.296C532.868 130.692 553.716 131.11 566.134 116.185C567.682 114.327 568.908 112.198 570.538 110.42C571.144 109.747 572.477 109.733 574.201 109.195C564.814 133.197 538.053 140.565 520.141 125.156C515.454 121.129 512.222 116.078 510.606 110.218C506.458 95.1999 506.619 80.4911 516.895 67.7759C531.05 50.279 560.598 53.2153 569.73 72.9751C571.736 77.3123 571.952 82.5385 572.666 87.401C573.083 90.2566 570.901 90.5125 568.625 90.499C553.676 90.4586 538.713 90.4721 523.764 90.4721C522.242 90.4721 520.734 90.4721 518.714 90.4721ZM519.225 86.2696C520.545 86.3369 521.905 86.4581 523.252 86.4581C532.828 86.4716 542.403 86.4581 551.979 86.4581C563.656 86.4581 564.558 85.2055 561.016 73.9315C558.242 65.1089 549.582 59.4652 540.329 60.4619C528.343 61.7416 519.239 72.6923 519.225 86.2561V86.2696Z" fill="black"/>
<path d="M849.52 58.6578H869.183V68.1269C870.179 67.4668 870.664 67.3052 870.893 66.9819C881.829 51.465 910.165 52.0981 920.105 73.4743C926.771 87.8058 926.663 102.865 919.256 117.008C909.856 134.976 886.422 138.424 871.634 124.524C871.19 124.106 870.732 123.689 869.856 122.894C869.641 124.12 869.398 124.887 869.385 125.655C869.358 136.229 869.331 146.816 869.385 157.389C869.412 164.03 871.58 166.131 878.381 166.576C879.782 166.67 881.169 167.222 882.556 167.559C882.476 168.017 882.395 168.488 882.314 168.946H849.695C849.52 168.663 849.345 168.381 849.156 168.098C850.032 167.599 850.853 166.764 851.769 166.657C858.988 165.727 860.106 164.528 860.106 157.174C860.106 128.241 860.106 99.3088 860.106 70.3763C860.106 63.0758 859.096 61.9713 851.742 60.8264C850.894 60.6917 850.086 60.2876 849.251 60.0182C849.331 59.5737 849.412 59.1292 849.493 58.6982L849.52 58.6578ZM869.371 95.8741C869.371 100.454 869.493 105.033 869.331 109.613C869.196 113.708 870.732 117.021 873.452 119.931C884.644 131.892 904.132 128.969 910.677 113.883C915.876 101.895 915.741 89.2336 911.485 77.0033C907.795 66.3893 897.896 61.19 886.839 62.9546C878.624 64.2746 868.671 71.5077 869.318 83.2936C869.547 87.4826 869.358 91.6851 869.358 95.8876L869.371 95.8741Z" fill="black"/>
<path d="M954.987 122.61V130.463C954.987 139.124 954.987 147.798 954.987 156.459C954.987 164.366 956.616 166.036 964.481 166.561C965.747 166.642 966.986 167.289 968.226 167.666C968.118 168.11 968.01 168.541 967.902 168.986H934.974C934.839 168.609 934.691 168.232 934.556 167.854C935.539 167.423 936.482 166.709 937.492 166.602C944.307 165.847 945.505 164.622 945.505 157.631C945.519 128.698 945.505 99.7794 945.505 70.8468C945.505 62.7786 944.845 62.0243 936.94 60.7716C936.172 60.6504 935.445 60.2328 934.516 59.8826C936.684 58.0238 949.007 57.5255 954.919 58.8724V67.7758C955.593 67.4525 956.01 67.3986 956.172 67.1562C967.754 50.7772 996.521 52.8246 1005.75 73.9448C1012.09 88.4784 1011.9 103.349 1004.49 117.465C995.619 134.396 972.508 138.141 958.084 125.466C957.263 124.738 956.468 123.984 954.973 122.61H954.987ZM954.987 95.7789C954.987 100.614 954.623 105.49 955.121 110.272C955.431 113.262 956.387 116.657 958.219 118.933C963.552 125.574 970.986 128.241 979.35 126.947C988.495 125.533 994.542 119.782 997.316 111.161C1000.78 100.399 1000.88 89.3674 997.585 78.5245C994.151 67.2505 984.05 61.1892 972.441 62.9267C964.603 64.0986 953.99 71.3183 954.933 83.1849C955.27 87.3605 954.987 91.5764 954.987 95.7789Z" fill="black"/>
<path d="M717.173 115.574C721.655 109.733 724.04 103.348 724.462 96.2543C724.583 94.1262 723.421 93.0998 720.886 92.9187C719.512 92.8282 718.728 92.5263 719.376 90.8509H736.475C736.837 91.9527 737.033 92.8131 735.373 92.9036C732.159 93.0696 730.363 94.9563 729.231 97.8542C727.48 102.382 725.7 106.925 723.647 111.317C722.591 113.581 720.916 115.559 719.18 118.17C722.214 120.54 725.172 123.06 728.341 125.264C730.122 126.501 732.355 125.958 733.985 124.373C734.573 123.8 735.072 123.151 736.203 122.547C736.173 123.09 736.354 123.92 736.052 124.147C734.181 125.641 732.31 127.181 730.257 128.373C726.575 130.501 722.923 129.535 719.512 127.603C717.626 126.532 715.981 125.037 714.185 123.694C712.299 124.917 710.382 126.381 708.284 127.467C703.259 130.094 697.841 130.878 692.287 129.807C681.497 127.709 676.472 116.449 681.92 106.82C684.606 102.08 688.605 98.6542 693.102 95.8015C694.627 94.8356 694.853 94.0205 694.144 92.3754C692.408 88.3756 691.276 84.225 691.971 79.7724C693.057 72.8295 699.637 67.9996 706.473 69.1769C712.48 70.2183 715.83 76.15 713.823 82.2024C712.314 86.7455 708.903 89.5529 704.934 91.7716C703.395 92.6319 702.972 93.3564 703.772 95.0922C707.017 102.201 710.88 108.887 716.192 114.653C716.419 114.895 716.675 115.121 717.173 115.574ZM711.65 121.053C705.296 114.034 700.829 105.793 696.649 97.0845C691.85 100.963 688.243 105.325 687.73 111.619C687.443 115.181 688.213 118.442 690.703 121.143C695.517 126.366 705.749 126.381 711.635 121.053H711.65ZM701.448 90.5189C704.376 88.1794 706.835 85.8098 707.65 82.4439C708.194 80.195 708.164 77.7348 707.982 75.3953C707.816 73.403 706.458 71.9541 704.391 71.7126C702.338 71.4711 700.829 72.5578 699.909 74.3388C699.411 75.3048 698.988 76.3462 698.822 77.4179C698.083 82.0213 699.833 86.1116 701.463 90.534L701.448 90.5189Z" fill="black"/>
<path d="M158.503 29.0739C168.674 29.0739 178.829 29.0586 189 29.1199C189.536 29.1199 190.057 29.8862 190.577 30.2846C190.072 30.7291 189.628 31.3574 189.046 31.5873C188.234 31.8938 187.3 31.9551 186.426 32.0471C178.446 32.9207 172.733 37.1659 168.873 44.0011C164.048 52.5222 159.238 61.0433 154.705 69.7023C153.923 71.1889 153.893 73.7176 154.628 75.2195C161.337 89.0433 168.337 102.729 175.138 116.522C178.492 123.327 183.715 127.342 191.282 128.415C192.37 128.568 193.35 129.411 194.391 129.947C194.223 130.346 194.07 130.744 193.901 131.143H151.013C150.829 130.79 150.645 130.438 150.477 130.07C151.503 129.457 152.468 128.691 153.556 128.246C157.324 126.76 158.641 124.43 156.926 120.752C152.147 110.53 147.123 100.415 141.838 89.503C140.888 91.0663 140.245 92.0165 139.709 93.0279C135.267 101.733 130.81 110.453 126.414 119.189C124.208 123.572 125.357 126.438 129.799 128.323C130.779 128.737 131.576 129.564 132.464 130.193C132.28 130.515 132.096 130.836 131.913 131.158H99.6698C99.5013 130.882 99.3482 130.591 99.1797 130.315C99.9609 129.718 100.681 128.706 101.523 128.599C109.871 127.465 115.232 122.361 119.215 115.449C125.035 105.319 130.871 95.1889 136.462 84.9207C137.258 83.4647 137.274 80.936 136.554 79.4188C130.733 67.2808 124.576 55.2961 118.694 43.1889C115.738 37.1046 111.602 32.7214 104.587 31.6793C103.79 31.5567 103.086 30.9283 102.335 30.5299C102.427 30.1927 102.519 29.8555 102.611 29.503H145.269C143.829 30.6678 143.14 31.526 142.252 31.8785C136.462 34.208 135.313 37.2119 138.177 42.8824C141.838 50.1161 145.53 57.3345 149.619 65.3958C151.335 62.0548 152.698 59.4034 154.031 56.7521C156.788 51.3115 159.514 45.8709 162.287 40.4302C164.554 35.9551 163.971 34.1314 159.529 31.7099C158.901 31.3728 158.503 30.6371 157.998 30.0701C158.166 29.7329 158.35 29.3958 158.519 29.0586L158.503 29.0739Z" fill="black"/>
<path d="M0.321661 29.3645H37.0523C37.1748 29.6557 37.2974 29.9316 37.4352 30.2228C36.5775 30.6825 35.7503 31.4028 34.8313 31.5714C28.4747 32.7208 27.1421 34.0389 27.1268 40.2457C27.1114 60.0772 27.0349 79.9086 27.2953 99.74C27.4178 109.027 30.3434 117.38 38.6453 122.667C52.2163 131.311 76.3409 125.594 78.516 102.1C80.0477 85.5944 79.0521 68.8434 79.1287 52.1998C79.144 48.7668 78.8989 45.3339 78.8223 41.9162C78.6691 35.3569 76.0652 32.491 69.4788 31.7094C69.3563 31.7094 69.2031 31.7247 69.0959 31.6787C68.0084 31.1576 66.9208 30.6366 65.818 30.1002C67.0281 29.7477 68.2381 29.0887 69.4482 29.0733C75.6823 28.9661 81.9317 29.0274 88.1658 29.0274C90.0805 29.0274 91.9951 28.9354 93.8944 29.0887C94.599 29.15 95.273 29.7936 95.9469 30.1768C95.3343 30.6519 94.7982 31.3722 94.1089 31.5408C87.3387 33.1346 86.3737 33.763 86.2205 40.5369C85.8223 58.1921 85.9448 75.8626 85.47 93.5178C85.3168 99.2956 84.5969 105.242 82.9733 110.759C79.5422 122.33 71.3475 129.64 59.5686 131.832C52.9362 133.073 45.8137 133.273 39.1201 132.368C22.3478 130.115 11.5339 118.345 10.8139 101.487C10.1094 84.8588 10.3391 68.1998 10.1706 51.5561C10.14 47.74 10.2013 43.9239 10.1553 40.1078C10.0634 34.0848 8.70017 32.5676 2.74178 31.6021C1.80743 31.4488 0.903715 31.0197 0 30.7285C0.122538 30.2687 0.229758 29.8243 0.321661 29.3645Z" fill="black"/>
<path d="M202.368 29.349H238.746C238.869 29.6555 238.991 29.9467 239.129 30.2532C238.271 30.7129 237.444 31.4179 236.525 31.5865C230.322 32.7359 228.958 34.2225 228.958 40.3834C228.958 59.847 228.82 79.2953 229.096 98.7589C229.157 103.111 230.092 107.663 231.669 111.724C235.437 121.349 242.958 126.161 253.282 126.33C264.571 126.514 273.148 121.609 277.744 111.372C279.857 106.652 280.93 101.088 281.021 95.893C281.297 78.0999 280.96 60.2915 280.746 42.4831C280.654 35.1114 278.096 32.506 270.759 31.6631C269.61 31.5252 268.507 31.0195 267.389 30.6823C267.435 30.3145 267.481 29.9467 267.527 29.5788C268.431 29.3949 269.334 29.0731 270.238 29.0578C278.387 29.0118 286.551 28.9811 294.7 29.0884C295.711 29.0884 296.706 29.9007 297.717 30.3451C296.813 30.7896 295.94 31.4639 294.991 31.6478C290.013 32.6287 288.144 34.3451 288.037 39.6325C287.73 56.7972 287.761 73.962 287.47 91.1267C287.393 96.0616 287.072 101.058 286.183 105.901C283.242 121.901 271.111 132.399 254.752 132.935C248.947 133.119 242.928 133.042 237.306 131.74C223.444 128.521 215.663 119.111 213.12 105.349C212.431 101.625 212.171 97.7628 212.155 93.9773C212.063 76.3068 212.109 58.621 212.109 40.9505C212.109 34.1919 210.991 32.9198 204.298 31.5865C203.47 31.4179 202.766 30.7283 202 30.2838C202.123 29.9773 202.245 29.6708 202.352 29.3796L202.368 29.349Z" fill="black"/>
<path d="M338.434 131.204H301.52C301.32 130.912 301.121 130.606 300.938 130.315C301.78 129.732 302.546 128.813 303.45 128.644C310.128 127.449 311.629 125.794 311.629 119.066C311.629 93.1499 311.629 67.2189 311.629 41.3032C311.629 34.5599 310.235 32.966 303.495 31.648C302.622 31.4795 301.841 30.8817 301.014 30.468C301.091 30.1461 301.183 29.8243 301.259 29.5024C302.178 29.3492 303.097 29.058 304.016 29.058C314.585 29.0273 325.139 28.9967 335.708 29.0886C336.703 29.0886 337.699 29.9469 338.679 30.3913C337.76 30.8358 336.872 31.4948 335.907 31.6634C330.408 32.6902 328.463 34.8817 328.447 40.3837C328.447 66.8051 328.447 93.2419 328.447 119.663C328.447 125.487 330.377 127.663 336.06 128.568C337.086 128.736 338.02 129.38 339.001 129.794C338.802 130.253 338.618 130.698 338.419 131.158L338.434 131.204Z" fill="black"/>
</svg>
