<svg width="1094" height="201" viewBox="0 0 1094 201" fill="none" xmlns="http://www.w3.org/2000/svg">
<g clip-path="url(#clip0_782_21051)" filter="url(#filter0_f_782_21051)">
<path d="M1077.5 100.5C1077.5 111.87 1067.83 122.856 1049.94 132.956C1032.08 143.032 1006.21 152.123 974.2 159.764C910.186 175.044 821.727 184.5 724 184.5C626.273 184.5 537.814 175.044 473.8 159.764C441.79 152.123 415.92 143.032 398.065 132.956C380.169 122.856 370.5 111.87 370.5 100.5C370.5 89.1303 380.169 78.1435 398.065 68.0442C415.92 57.9677 441.79 48.8768 473.8 41.2358C537.814 25.9558 626.273 16.5 724 16.5C821.727 16.5 910.186 25.9558 974.2 41.2358C1006.21 48.8768 1032.08 57.9677 1049.94 68.0442C1067.83 78.1435 1077.5 89.1303 1077.5 100.5Z" stroke="#CFEC8A"/>
<path d="M616.784 36.0109V82.3192C617.565 81.9959 618.064 81.9151 618.36 81.6457C636.38 64.7684 663.006 71.4358 669.753 94.9401C673.713 108.733 673.107 122.606 664.514 134.864C654.898 148.576 639.316 151.579 622.656 146.744C621.808 146.501 620.986 146.111 620.165 145.774C608.205 141.006 607.72 140.305 607.72 127.604C607.72 101.486 607.72 75.3689 607.72 49.2514C607.72 41.6142 606.145 39.8228 598.711 38.6913C597.754 38.5432 596.892 37.8023 595.977 37.3309C596.865 36.8864 597.741 36.0782 598.643 36.0648C604.515 35.9435 610.387 36.0109 616.784 36.0109ZM661.524 110.08C661.524 108.329 661.605 106.16 661.511 104.005C660.77 87.8821 650.131 77.8069 635.074 78.8979C624.165 79.6926 616.892 87.478 616.892 98.3614C616.892 109.299 617.054 120.249 616.811 131.187C616.717 135.618 618.589 138.42 622.185 140.467C633.404 146.838 647.706 143.888 655.518 133.611C660.743 126.742 661.915 118.821 661.524 110.08Z" fill="#CFEC8A"/>
<path d="M436.989 133.034C438.713 125.787 440.464 118.554 442.174 111.307C447.13 90.2544 452.14 69.215 456.948 48.1352C457.635 45.118 458.955 44.0405 461.878 44.458C462.753 44.5792 463.682 44.5927 464.558 44.458C467.507 44 468.733 45.1988 469.473 48.1352C476.356 75.5188 483.399 102.875 490.416 130.232C490.685 131.283 491.076 132.293 492.086 133.37C493.513 127.363 494.981 121.369 496.369 115.362C500.948 95.5345 505.5 75.6939 510.038 55.8532C511.345 50.1422 509.985 48.1891 504.167 47.125C503.129 46.9364 502.16 46.4246 501.163 46.0609C501.244 45.6837 501.325 45.3201 501.406 44.9429H528.409C528.53 45.1854 528.651 45.4278 528.772 45.6703C528.018 46.1282 527.25 46.9768 526.496 46.9633C519.856 46.8691 516.894 50.9099 515.453 56.5941C511.614 71.8955 507.816 87.1968 504.059 102.512C500.449 117.207 496.921 131.916 493.379 146.503C492.988 146.719 492.773 146.921 492.557 146.934C484.153 147.433 484.113 147.446 482.025 139.364C475.265 113.26 468.544 87.1295 461.797 61.0255C461.46 59.719 461.07 58.4259 459.817 57.1194C456.208 72.084 452.571 87.0352 448.976 102C445.38 116.951 441.811 131.902 438.228 146.894H428.814C426.592 137.883 424.356 128.885 422.148 119.901C417.057 99.279 411.953 78.6572 406.889 58.0218C405.434 52.1087 403.32 46.9768 395.899 46.896C395.414 46.896 394.943 46.0609 394 45.1854C395.374 44.8486 396.155 44.4984 396.936 44.4984C405.502 44.458 414.067 44.4311 422.619 44.5254C423.548 44.5254 424.464 45.3066 425.38 45.7107C424.491 46.1686 423.629 46.9095 422.686 47.0442C417.084 47.8658 415.67 49.2666 416.814 54.0214C423.05 79.9906 429.407 105.933 435.737 131.889C435.818 132.252 436.006 132.589 436.154 132.926C436.437 132.953 436.706 132.98 436.989 133.007V133.034Z" fill="#CFEC8A"/>
<path d="M859.853 146.856H830.466L829.927 145.872C830.87 145.334 831.772 144.445 832.782 144.323C838.479 143.609 839.503 142.357 837.927 136.888C835.947 130.046 833.86 123.23 831.57 116.482C831.22 115.472 829.51 114.273 828.419 114.259C818.197 114.084 807.975 114.205 797.753 114.111C795.773 114.098 794.776 114.717 794.197 116.643C792.137 123.594 789.847 130.477 787.813 137.44C786.521 141.872 788.218 143.623 793.82 144.256C795.194 144.418 796.514 145.037 797.86 145.455C797.739 145.886 797.618 146.33 797.497 146.761H769.578C770.709 145.603 771.342 144.404 771.975 144.404C778.238 144.431 780.635 140.04 782.359 135.245C785.201 127.352 787.773 119.351 790.332 111.35C797.106 90.2701 803.894 69.1901 810.453 48.043C811.449 44.8507 813.146 44.4062 815.988 44.4062C818.924 44.4062 820.729 44.7699 821.766 48.1777C830.264 76.1808 838.991 104.117 847.678 132.066C848.324 134.127 849.078 136.161 849.86 138.181C851.26 141.831 853.752 144.027 857.832 144.337C858.735 144.404 859.583 145.226 860.459 145.697L859.866 146.869L859.853 146.856ZM829.698 109.545C824.271 91.4554 819.018 73.9314 813.766 56.4076C813.429 56.4076 813.106 56.4076 812.769 56.4076C807.355 74.0257 801.941 91.6304 796.446 109.531H829.685L829.698 109.545Z" fill="#CFEC8A"/>
<path d="M534.714 106.472C534.148 115.497 534.471 123.794 539.185 131.296C548.868 146.692 569.716 147.11 582.134 132.185C583.682 130.327 584.908 128.198 586.538 126.42C587.144 125.747 588.477 125.733 590.201 125.195C580.814 149.197 554.053 156.565 536.141 141.156C531.454 137.129 528.222 132.078 526.606 126.218C522.458 111.2 522.619 96.4911 532.895 83.7759C547.05 66.279 576.598 69.2153 585.73 88.9751C587.736 93.3123 587.952 98.5385 588.666 103.401C589.083 106.257 586.901 106.513 584.625 106.499C569.676 106.459 554.713 106.472 539.764 106.472C538.242 106.472 536.734 106.472 534.714 106.472ZM535.225 102.27C536.545 102.337 537.905 102.458 539.252 102.458C548.828 102.472 558.403 102.458 567.979 102.458C579.656 102.458 580.558 101.206 577.016 89.9315C574.242 81.1089 565.582 75.4652 556.329 76.4619C544.343 77.7416 535.239 88.6923 535.225 102.256V102.27Z" fill="#CFEC8A"/>
<path d="M865.52 74.6559H885.183V84.125C886.179 83.4649 886.664 83.3033 886.893 82.98C897.829 67.4631 926.165 68.0962 936.105 89.4724C942.771 103.804 942.663 118.863 935.256 133.006C925.856 150.974 902.422 154.422 887.634 140.522C887.19 140.104 886.732 139.687 885.856 138.892C885.641 140.118 885.398 140.885 885.385 141.653C885.358 152.227 885.331 162.814 885.385 173.387C885.412 180.028 887.58 182.129 894.381 182.574C895.782 182.668 897.169 183.22 898.556 183.557C898.476 184.015 898.395 184.486 898.314 184.944H865.695C865.52 184.661 865.345 184.379 865.156 184.096C866.032 183.597 866.853 182.762 867.769 182.655C874.988 181.725 876.106 180.526 876.106 173.172C876.106 144.239 876.106 115.307 876.106 86.3744C876.106 79.0739 875.096 77.9694 867.742 76.8245C866.894 76.6898 866.086 76.2857 865.251 76.0163C865.331 75.5718 865.412 75.1273 865.493 74.6963L865.52 74.6559ZM885.371 111.872C885.371 116.452 885.493 121.031 885.331 125.611C885.196 129.706 886.732 133.019 889.452 135.929C900.644 147.89 920.132 144.967 926.677 129.881C931.876 117.893 931.741 105.232 927.485 93.0014C923.795 82.3874 913.896 77.1881 902.839 78.9527C894.624 80.2727 884.671 87.5058 885.318 99.2917C885.547 103.481 885.358 107.683 885.358 111.886L885.371 111.872Z" fill="#CFEC8A"/>
<path d="M970.987 138.61V146.463C970.987 155.124 970.987 163.798 970.987 172.459C970.987 180.366 972.616 182.036 980.481 182.561C981.747 182.642 982.986 183.289 984.226 183.666C984.118 184.11 984.01 184.541 983.902 184.986H950.974C950.839 184.609 950.691 184.232 950.556 183.854C951.539 183.423 952.482 182.709 953.492 182.602C960.307 181.847 961.505 180.622 961.505 173.631C961.519 144.698 961.505 115.779 961.505 86.8468C961.505 78.7786 960.845 78.0243 952.94 76.7716C952.172 76.6504 951.445 76.2328 950.516 75.8826C952.684 74.0238 965.007 73.5255 970.919 74.8724V83.7758C971.593 83.4525 972.01 83.3986 972.172 83.1562C983.754 66.7772 1012.52 68.8246 1021.75 89.9448C1028.09 104.478 1027.9 119.349 1020.49 133.465C1011.62 150.396 988.508 154.141 974.084 141.466C973.263 140.738 972.468 139.984 970.973 138.61H970.987ZM970.987 111.779C970.987 116.614 970.623 121.49 971.121 126.272C971.431 129.262 972.387 132.657 974.219 134.933C979.552 141.574 986.986 144.241 995.35 142.947C1004.49 141.533 1010.54 135.782 1013.32 127.161C1016.78 116.399 1016.88 105.367 1013.58 94.5245C1010.15 83.2505 1000.05 77.1892 988.441 78.9267C980.603 80.0986 969.99 87.3183 970.933 99.1849C971.27 103.36 970.987 107.576 970.987 111.779Z" fill="#CFEC8A"/>
<path d="M733.173 131.574C737.655 125.733 740.04 119.348 740.462 112.254C740.583 110.126 739.421 109.1 736.886 108.919C735.512 108.828 734.728 108.526 735.376 106.851H752.475C752.837 107.953 753.033 108.813 751.373 108.904C748.159 109.07 746.363 110.956 745.231 113.854C743.48 118.382 741.7 122.925 739.647 127.317C738.591 129.581 736.916 131.559 735.18 134.17C738.214 136.54 741.172 139.06 744.341 141.264C746.122 142.501 748.355 141.958 749.985 140.373C750.573 139.8 751.072 139.151 752.203 138.547C752.173 139.09 752.354 139.92 752.052 140.147C750.181 141.641 748.31 143.181 746.257 144.373C742.575 146.501 738.923 145.535 735.512 143.603C733.626 142.532 731.981 141.037 730.185 139.694C728.299 140.917 726.382 142.381 724.284 143.467C719.259 146.094 713.841 146.878 708.287 145.807C697.497 143.709 692.472 132.449 697.92 122.82C700.606 118.08 704.605 114.654 709.102 111.801C710.627 110.836 710.853 110.02 710.144 108.375C708.408 104.376 707.276 100.225 707.971 95.7724C709.057 88.8295 715.637 83.9996 722.473 85.1769C728.48 86.2183 731.83 92.15 729.823 98.2024C728.314 102.745 724.903 105.553 720.934 107.772C719.395 108.632 718.972 109.356 719.772 111.092C723.017 118.201 726.88 124.887 732.192 130.653C732.419 130.895 732.675 131.121 733.173 131.574ZM727.65 137.053C721.296 130.034 716.829 121.793 712.649 113.084C707.85 116.963 704.243 121.325 703.73 127.619C703.443 131.181 704.213 134.442 706.703 137.143C711.517 142.366 721.749 142.381 727.635 137.053H727.65ZM717.448 106.519C720.376 104.179 722.835 101.81 723.65 98.4439C724.194 96.195 724.164 93.7348 723.982 91.3953C723.816 89.403 722.458 87.9541 720.391 87.7126C718.338 87.4711 716.829 88.5578 715.909 90.3388C715.411 91.3048 714.988 92.3462 714.822 93.4179C714.083 98.0213 715.833 102.112 717.463 106.534L717.448 106.519Z" fill="#CFEC8A"/>
<path d="M174.503 45.0739C184.674 45.0739 194.829 45.0586 205 45.1199C205.536 45.1199 206.057 45.8862 206.577 46.2846C206.072 46.7291 205.628 47.3574 205.046 47.5873C204.234 47.8938 203.3 47.9551 202.426 48.0471C194.446 48.9207 188.733 53.1659 184.873 60.0011C180.048 68.5222 175.238 77.0433 170.705 85.7023C169.923 87.1889 169.893 89.7176 170.628 91.2195C177.337 105.043 184.337 118.729 191.138 132.522C194.492 139.327 199.715 143.342 207.282 144.415C208.37 144.568 209.35 145.411 210.391 145.947C210.223 146.346 210.07 146.744 209.901 147.143H167.013C166.829 146.79 166.645 146.438 166.477 146.07C167.503 145.457 168.468 144.691 169.556 144.246C173.324 142.76 174.641 140.43 172.926 136.752C168.147 126.53 163.123 116.415 157.838 105.503C156.888 107.066 156.245 108.016 155.709 109.028C151.267 117.733 146.81 126.453 142.414 135.189C140.208 139.572 141.357 142.438 145.799 144.323C146.779 144.737 147.576 145.564 148.464 146.193C148.28 146.515 148.096 146.836 147.913 147.158H115.67C115.501 146.882 115.348 146.591 115.18 146.315C115.961 145.718 116.681 144.706 117.523 144.599C125.871 143.465 131.232 138.361 135.215 131.449C141.035 121.319 146.871 111.189 152.462 100.921C153.258 99.4647 153.274 96.936 152.554 95.4188C146.733 83.2808 140.576 71.2961 134.694 59.1889C131.738 53.1046 127.602 48.7214 120.587 47.6793C119.79 47.5567 119.086 46.9283 118.335 46.5299C118.427 46.1927 118.519 45.8555 118.611 45.503H161.269C159.829 46.6678 159.14 47.526 158.252 47.8785C152.462 50.208 151.313 53.2119 154.177 58.8824C157.838 66.1161 161.53 73.3345 165.619 81.3958C167.335 78.0548 168.698 75.4034 170.031 72.7521C172.788 67.3115 175.514 61.8709 178.287 56.4302C180.554 51.9551 179.971 50.1314 175.529 47.7099C174.901 47.3728 174.503 46.6371 173.998 46.0701C174.166 45.7329 174.35 45.3958 174.519 45.0586L174.503 45.0739Z" fill="#CFEC8A"/>
<path d="M16.3217 45.3645H53.0523C53.1748 45.6557 53.2974 45.9316 53.4352 46.2228C52.5775 46.6825 51.7503 47.4028 50.8313 47.5714C44.4747 48.7208 43.1421 50.0389 43.1268 56.2457C43.1114 76.0772 43.0349 95.9086 43.2953 115.74C43.4178 125.027 46.3434 133.38 54.6453 138.667C68.2163 147.311 92.3409 141.594 94.516 118.1C96.0477 101.594 95.0521 84.8434 95.1287 68.1998C95.144 64.7668 94.8989 61.3339 94.8223 57.9162C94.6691 51.3569 92.0652 48.491 85.4788 47.7094C85.3563 47.7094 85.2031 47.7247 85.0959 47.6787C84.0084 47.1576 82.9208 46.6366 81.818 46.1002C83.0281 45.7477 84.2381 45.0887 85.4482 45.0733C91.6823 44.9661 97.9317 45.0274 104.166 45.0274C106.081 45.0274 107.995 44.9354 109.894 45.0887C110.599 45.15 111.273 45.7936 111.947 46.1768C111.334 46.6519 110.798 47.3722 110.109 47.5408C103.339 49.1346 102.374 49.763 102.22 56.5369C101.822 74.1921 101.945 91.8626 101.47 109.518C101.317 115.296 100.597 121.242 98.9733 126.759C95.5422 138.33 87.3475 145.64 75.5686 147.832C68.9362 149.073 61.8137 149.273 55.1201 148.368C38.3478 146.115 27.5339 134.345 26.8139 117.487C26.1094 100.859 26.3391 84.1998 26.1706 67.5561C26.14 63.74 26.2013 59.9239 26.1553 56.1078C26.0634 50.0848 24.7002 48.5676 18.7418 47.6021C17.8074 47.4488 16.9037 47.0197 16 46.7285C16.1225 46.2687 16.2298 45.8243 16.3217 45.3645Z" fill="#CFEC8A"/>
<path d="M218.368 45.349H254.746C254.869 45.6555 254.991 45.9467 255.129 46.2532C254.271 46.7129 253.444 47.4179 252.525 47.5865C246.322 48.7359 244.958 50.2225 244.958 56.3834C244.958 75.847 244.82 95.2953 245.096 114.759C245.157 119.111 246.092 123.663 247.669 127.724C251.437 137.349 258.958 142.161 269.282 142.33C280.571 142.514 289.148 137.609 293.744 127.372C295.857 122.652 296.93 117.088 297.021 111.893C297.297 94.0999 296.96 76.2915 296.746 58.4831C296.654 51.1114 294.096 48.506 286.759 47.6631C285.61 47.5252 284.507 47.0195 283.389 46.6823C283.435 46.3145 283.481 45.9467 283.527 45.5788C284.431 45.3949 285.334 45.0731 286.238 45.0578C294.387 45.0118 302.551 44.9811 310.7 45.0884C311.711 45.0884 312.706 45.9007 313.717 46.3451C312.813 46.7896 311.94 47.4639 310.991 47.6478C306.013 48.6287 304.144 50.3451 304.037 55.6325C303.73 72.7972 303.761 89.962 303.47 107.127C303.393 112.062 303.072 117.058 302.183 121.901C299.242 137.901 287.111 148.399 270.752 148.935C264.947 149.119 258.928 149.042 253.306 147.74C239.444 144.521 231.663 135.111 229.12 121.349C228.431 117.625 228.171 113.763 228.155 109.977C228.063 92.3068 228.109 74.621 228.109 56.9505C228.109 50.1919 226.991 48.9198 220.298 47.5865C219.47 47.4179 218.766 46.7283 218 46.2838C218.123 45.9773 218.245 45.6708 218.352 45.3796L218.368 45.349Z" fill="#CFEC8A"/>
<path d="M354.434 147.204H317.52C317.32 146.912 317.12 146.606 316.938 146.315C317.78 145.732 318.546 144.813 319.45 144.644C326.128 143.449 327.629 141.794 327.629 135.066C327.629 109.15 327.629 83.2189 327.629 57.3032C327.629 50.5599 326.235 48.966 319.495 47.648C318.622 47.4795 317.841 46.8817 317.014 46.468C317.091 46.1461 317.183 45.8243 317.259 45.5024C318.178 45.3492 319.097 45.058 320.016 45.058C330.585 45.0273 341.139 44.9967 351.708 45.0886C352.703 45.0886 353.698 45.9469 354.678 46.3913C353.759 46.8358 352.872 47.4948 351.907 47.6634C346.408 48.6902 344.463 50.8817 344.447 56.3837C344.447 82.8051 344.447 109.242 344.447 135.663C344.447 141.487 346.377 143.663 352.06 144.568C353.086 144.736 354.02 145.38 355.001 145.794C354.802 146.253 354.618 146.698 354.419 147.158L354.434 147.204Z" fill="#CFEC8A"/>
</g>
<defs>
<filter id="filter0_f_782_21051" x="0" y="0" width="1094" height="201" filterUnits="userSpaceOnUse" color-interpolation-filters="sRGB">
<feFlood flood-opacity="0" result="BackgroundImageFix"/>
<feBlend mode="normal" in="SourceGraphic" in2="BackgroundImageFix" result="shape"/>
<feGaussianBlur stdDeviation="8" result="effect1_foregroundBlur_782_21051"/>
</filter>
<clipPath id="clip0_782_21051">
<rect width="1062" height="169" fill="white" transform="translate(16 16)"/>
</clipPath>
</defs>
</svg>
