<svg width="267" height="266" viewBox="0 0 267 266" fill="none" xmlns="http://www.w3.org/2000/svg">
<circle cx="133.861" cy="132.99" r="132.99" fill="#D9D9D9"/>
<path d="M109.811 123.732H109.953L113.646 111.732H117.935L112.423 127.996H107.349L101.837 111.732H106.126L109.811 123.732ZM119.637 115.798H123.425V127.996H119.637V115.798ZM121.535 114.345C121.18 114.345 120.852 114.263 120.55 114.099C120.254 113.935 120.016 113.712 119.836 113.432C119.661 113.151 119.574 112.847 119.574 112.518C119.574 112.19 119.661 111.886 119.836 111.605C120.016 111.324 120.254 111.102 120.55 110.938C120.852 110.774 121.18 110.692 121.535 110.692C121.89 110.692 122.215 110.774 122.512 110.938C122.814 111.102 123.052 111.324 123.227 111.605C123.407 111.886 123.497 112.19 123.497 112.518C123.497 112.847 123.407 113.151 123.227 113.432C123.052 113.712 122.814 113.935 122.512 114.099C122.215 114.263 121.89 114.345 121.535 114.345ZM130.321 128.179C129.4 128.179 128.569 127.941 127.828 127.464C127.092 126.982 126.507 126.27 126.073 125.328C125.644 124.38 125.429 123.239 125.429 121.905C125.429 120.534 125.649 119.38 126.089 118.443C126.533 117.5 127.124 116.799 127.86 116.338C128.601 115.872 129.416 115.639 130.305 115.639C131.2 115.639 131.933 115.854 132.505 116.283C133.077 116.711 133.495 117.243 133.76 117.879H133.839V111.732H137.627V127.996H133.879V126.027H133.76C133.485 126.646 133.058 127.16 132.481 127.567C131.91 127.975 131.19 128.179 130.321 128.179ZM129.313 121.897C129.313 122.564 129.403 123.147 129.583 123.644C129.763 124.142 130.025 124.528 130.369 124.804C130.713 125.074 131.129 125.209 131.616 125.209C132.092 125.209 132.505 125.074 132.855 124.804C133.204 124.534 133.469 124.15 133.649 123.652C133.834 123.149 133.927 122.564 133.927 121.897C133.927 121.219 133.834 120.634 133.649 120.142C133.469 119.644 133.204 119.263 132.855 118.998C132.511 118.734 132.098 118.601 131.616 118.601C131.129 118.601 130.71 118.736 130.361 119.006C130.017 119.276 129.755 119.66 129.575 120.158C129.4 120.65 129.313 121.23 129.313 121.897ZM145.745 128.226C144.485 128.226 143.392 127.975 142.465 127.472C141.544 126.964 140.835 126.238 140.337 125.296C139.845 124.354 139.599 123.237 139.599 121.945C139.599 120.695 139.845 119.594 140.337 118.641C140.835 117.688 141.539 116.95 142.449 116.425C143.36 115.901 144.419 115.639 145.626 115.639C146.775 115.639 147.791 115.88 148.676 116.362C149.565 116.838 150.259 117.545 150.756 118.482C151.254 119.414 151.503 120.539 151.503 121.857V122.826H143.339V122.906C143.339 123.419 143.44 123.872 143.641 124.264C143.842 124.65 144.128 124.949 144.498 125.161C144.874 125.373 145.314 125.479 145.817 125.479C146.33 125.479 146.772 125.375 147.143 125.169C147.513 124.962 147.776 124.679 147.929 124.319H151.455C151.302 125.113 150.973 125.804 150.47 126.392C149.973 126.974 149.321 127.427 148.517 127.75C147.712 128.068 146.788 128.226 145.745 128.226ZM147.969 120.595C147.963 120.171 147.863 119.793 147.667 119.459C147.476 119.12 147.209 118.858 146.865 118.673C146.521 118.482 146.134 118.387 145.705 118.387C145.266 118.387 144.869 118.485 144.514 118.681C144.165 118.871 143.884 119.136 143.672 119.475C143.466 119.809 143.355 120.182 143.339 120.595H147.969ZM159.123 128.226C157.868 128.226 156.778 127.964 155.851 127.44C154.93 126.916 154.22 126.18 153.723 125.232C153.23 124.285 152.984 123.186 152.984 121.937C152.984 120.687 153.23 119.589 153.723 118.641C154.22 117.688 154.93 116.95 155.851 116.425C156.778 115.901 157.868 115.639 159.123 115.639C160.378 115.639 161.466 115.901 162.387 116.425C163.313 116.95 164.023 117.688 164.515 118.641C165.008 119.589 165.254 120.687 165.254 121.937C165.254 123.186 165.008 124.285 164.515 125.232C164.023 126.18 163.313 126.916 162.387 127.44C161.466 127.964 160.378 128.226 159.123 128.226ZM156.844 121.913C156.844 122.596 156.931 123.197 157.106 123.716C157.286 124.235 157.548 124.64 157.892 124.931C158.241 125.217 158.66 125.36 159.147 125.36C159.618 125.36 160.02 125.217 160.354 124.931C160.693 124.64 160.949 124.235 161.124 123.716C161.304 123.197 161.394 122.596 161.394 121.913C161.394 121.23 161.304 120.629 161.124 120.11C160.949 119.586 160.693 119.181 160.354 118.895C160.02 118.604 159.618 118.458 159.147 118.458C158.66 118.458 158.241 118.604 157.892 118.895C157.548 119.181 157.286 119.586 157.106 120.11C156.931 120.629 156.844 121.23 156.844 121.913ZM74.1841 138.732H80.839C82.0408 138.732 83.0864 138.968 83.9758 139.439C84.8706 139.91 85.5562 140.569 86.0327 141.416C86.5144 142.263 86.7553 143.238 86.7553 144.339C86.7553 145.451 86.5118 146.427 86.0247 147.269C85.5377 148.106 84.8388 148.754 83.9282 149.215C83.0229 149.675 81.9561 149.906 80.7278 149.906H78.0118V154.996H74.1841V138.732ZM80.029 146.872C80.6166 146.872 81.1169 146.769 81.5299 146.562C81.9428 146.351 82.2552 146.057 82.467 145.681C82.6787 145.3 82.7846 144.852 82.7846 144.339C82.7846 143.56 82.5464 142.949 82.0699 142.504C81.5987 142.06 80.9184 141.837 80.029 141.837H78.0118V146.872H80.029ZM88.6545 142.798H92.3313V145.006H92.4584C92.6755 144.228 93.0355 143.637 93.5384 143.235C94.0414 142.833 94.6343 142.631 95.3173 142.631C95.6614 142.631 96.0214 142.674 96.3973 142.758V146.07C96.2279 146.012 95.9976 145.964 95.7064 145.927C95.4152 145.89 95.1452 145.871 94.8964 145.871C94.4305 145.871 94.0096 145.975 93.6337 146.181C93.2631 146.382 92.9719 146.671 92.7602 147.047C92.5484 147.417 92.4425 147.841 92.4425 148.317V154.996H88.6545V142.798ZM103.211 155.226C101.956 155.226 100.865 154.964 99.9387 154.44C99.0175 153.916 98.3081 153.18 97.8104 152.232C97.318 151.285 97.0718 150.186 97.0718 148.937C97.0718 147.687 97.318 146.589 97.8104 145.641C98.3081 144.688 99.0175 143.95 99.9387 143.425C100.865 142.901 101.956 142.639 103.211 142.639C104.465 142.639 105.553 142.901 106.474 143.425C107.401 143.95 108.11 144.688 108.603 145.641C109.095 146.589 109.341 147.687 109.341 148.937C109.341 150.186 109.095 151.285 108.603 152.232C108.11 153.18 107.401 153.916 106.474 154.44C105.553 154.964 104.465 155.226 103.211 155.226ZM100.931 148.913C100.931 149.596 101.019 150.197 101.193 150.716C101.373 151.235 101.636 151.64 101.98 151.931C102.329 152.217 102.747 152.36 103.234 152.36C103.706 152.36 104.108 152.217 104.441 151.931C104.78 151.64 105.037 151.235 105.212 150.716C105.392 150.197 105.482 149.596 105.482 148.913C105.482 148.23 105.392 147.629 105.212 147.11C105.037 146.586 104.78 146.181 104.441 145.895C104.108 145.604 103.706 145.458 103.234 145.458C102.747 145.458 102.329 145.604 101.98 145.895C101.636 146.181 101.373 146.586 101.193 147.11C101.019 147.629 100.931 148.23 100.931 148.913ZM115.756 155.179C114.835 155.179 114.004 154.941 113.263 154.464C112.527 153.982 111.942 153.27 111.508 152.328C111.079 151.38 110.865 150.239 110.865 148.905C110.865 147.534 111.084 146.38 111.524 145.443C111.968 144.5 112.559 143.799 113.295 143.338C114.036 142.872 114.851 142.639 115.741 142.639C116.635 142.639 117.369 142.854 117.94 143.283C118.512 143.711 118.93 144.243 119.195 144.879H119.275V138.732H123.063V154.996H119.314V153.027H119.195C118.92 153.646 118.494 154.16 117.917 154.567C117.345 154.975 116.625 155.179 115.756 155.179ZM114.748 148.897C114.748 149.564 114.838 150.147 115.018 150.644C115.198 151.142 115.46 151.528 115.804 151.804C116.148 152.074 116.564 152.209 117.051 152.209C117.527 152.209 117.94 152.074 118.29 151.804C118.639 151.534 118.904 151.15 119.084 150.652C119.269 150.149 119.362 149.564 119.362 148.897C119.362 148.219 119.269 147.634 119.084 147.142C118.904 146.644 118.639 146.263 118.29 145.998C117.946 145.734 117.533 145.601 117.051 145.601C116.564 145.601 116.146 145.736 115.796 146.006C115.452 146.276 115.19 146.66 115.01 147.158C114.835 147.65 114.748 148.23 114.748 148.897ZM133.372 142.798H137.152V154.996H133.539V152.741H133.412C133.137 153.487 132.673 154.078 132.022 154.512C131.371 154.941 130.595 155.155 129.695 155.155C128.869 155.155 128.139 154.967 127.503 154.591C126.873 154.21 126.384 153.675 126.034 152.987C125.685 152.293 125.51 151.489 125.51 150.573V142.798H129.298V149.842C129.298 150.287 129.378 150.673 129.536 151.002C129.695 151.325 129.923 151.573 130.219 151.748C130.516 151.923 130.865 152.01 131.268 152.01C131.659 152.01 132.014 151.923 132.332 151.748C132.655 151.568 132.909 151.309 133.094 150.97C133.28 150.626 133.372 150.215 133.372 149.739V142.798ZM145.254 155.226C143.994 155.226 142.901 154.964 141.975 154.44C141.053 153.911 140.347 153.172 139.854 152.225C139.362 151.272 139.116 150.176 139.116 148.937C139.116 147.693 139.362 146.597 139.854 145.649C140.352 144.696 141.061 143.958 141.982 143.433C142.909 142.904 143.997 142.639 145.246 142.639C146.348 142.639 147.316 142.843 148.153 143.251C148.995 143.653 149.649 144.225 150.114 144.966C150.586 145.702 150.837 146.56 150.869 147.539H147.327C147.248 146.914 147.031 146.425 146.676 146.07C146.321 145.71 145.863 145.53 145.302 145.53C144.831 145.53 144.421 145.66 144.071 145.919C143.722 146.178 143.452 146.562 143.261 147.071C143.07 147.574 142.975 148.182 142.975 148.897C142.975 149.617 143.07 150.231 143.261 150.739C143.452 151.248 143.722 151.634 144.071 151.899C144.421 152.158 144.831 152.288 145.302 152.288C145.853 152.288 146.308 152.113 146.668 151.764C147.028 151.415 147.248 150.92 147.327 150.279H150.869C150.832 151.269 150.58 152.137 150.114 152.884C149.654 153.625 149.008 154.202 148.177 154.615C147.346 155.023 146.371 155.226 145.254 155.226ZM159.619 145.593H157.411V151.176C157.411 151.557 157.503 151.825 157.689 151.978C157.874 152.127 158.149 152.201 158.515 152.201C158.832 152.201 159.256 152.18 159.785 152.137V155.036C159.182 155.126 158.552 155.171 157.895 155.171C156.519 155.171 155.46 154.877 154.719 154.289C153.977 153.702 153.612 152.81 153.623 151.613V145.593H151.995V142.798H153.623V139.876H157.411V142.798H159.619V145.593ZM161.58 142.798H165.368V154.996H161.58V142.798ZM163.478 141.345C163.123 141.345 162.795 141.263 162.493 141.099C162.197 140.935 161.958 140.712 161.778 140.432C161.604 140.151 161.516 139.847 161.516 139.518C161.516 139.19 161.604 138.886 161.778 138.605C161.958 138.324 162.197 138.102 162.493 137.938C162.795 137.774 163.123 137.692 163.478 137.692C163.832 137.692 164.158 137.774 164.455 137.938C164.756 138.102 164.995 138.324 165.169 138.605C165.349 138.886 165.439 139.19 165.439 139.518C165.439 139.847 165.349 140.151 165.169 140.432C164.995 140.712 164.756 140.935 164.455 141.099C164.158 141.263 163.832 141.345 163.478 141.345ZM173.463 155.226C172.208 155.226 171.118 154.964 170.191 154.44C169.27 153.916 168.561 153.18 168.063 152.232C167.571 151.285 167.325 150.186 167.325 148.937C167.325 147.687 167.571 146.589 168.063 145.641C168.561 144.688 169.27 143.95 170.191 143.425C171.118 142.901 172.208 142.639 173.463 142.639C174.718 142.639 175.806 142.901 176.727 143.425C177.654 143.95 178.363 144.688 178.855 145.641C179.348 146.589 179.594 147.687 179.594 148.937C179.594 150.186 179.348 151.285 178.855 152.232C178.363 153.18 177.654 153.916 176.727 154.44C175.806 154.964 174.718 155.226 173.463 155.226ZM171.184 148.913C171.184 149.596 171.271 150.197 171.446 150.716C171.626 151.235 171.888 151.64 172.232 151.931C172.582 152.217 173 152.36 173.487 152.36C173.958 152.36 174.361 152.217 174.694 151.931C175.033 151.64 175.29 151.235 175.464 150.716C175.644 150.197 175.734 149.596 175.734 148.913C175.734 148.23 175.644 147.629 175.464 147.11C175.29 146.586 175.033 146.181 174.694 145.895C174.361 145.604 173.958 145.458 173.487 145.458C173 145.458 172.582 145.604 172.232 145.895C171.888 146.181 171.626 146.586 171.446 147.11C171.271 147.629 171.184 148.23 171.184 148.913ZM185.334 154.996H181.546V142.798H185.151V145.022H185.287C185.557 144.28 186.017 143.698 186.668 143.275C187.32 142.851 188.092 142.639 188.987 142.639C189.829 142.639 190.57 142.83 191.211 143.211C191.851 143.587 192.344 144.122 192.688 144.815C193.037 145.509 193.212 146.311 193.212 147.221V154.996H189.424V147.952C189.429 147.264 189.255 146.726 188.9 146.34C188.545 145.948 188.055 145.752 187.431 145.752C187.012 145.752 186.644 145.842 186.327 146.022C186.014 146.202 185.771 146.464 185.596 146.809C185.422 147.147 185.334 147.552 185.334 148.024V154.996Z" fill="#FF5900"/>
</svg>
