<svg width="267" height="267" viewBox="0 0 267 267" fill="none" xmlns="http://www.w3.org/2000/svg">
<circle cx="133.49" cy="133.928" r="132.99" fill="#D4DDE8"/>
<path d="M109.436 124.669H109.578L113.271 112.67H117.56L112.048 128.934H106.974L101.462 112.67H105.751L109.436 124.669ZM119.262 116.736H123.05V128.934H119.262V116.736ZM121.16 115.282C120.805 115.282 120.477 115.2 120.175 115.036C119.879 114.872 119.641 114.65 119.461 114.369C119.286 114.088 119.199 113.784 119.199 113.456C119.199 113.128 119.286 112.823 119.461 112.543C119.641 112.262 119.879 112.04 120.175 111.875C120.477 111.711 120.805 111.629 121.16 111.629C121.515 111.629 121.84 111.711 122.137 111.875C122.439 112.04 122.677 112.262 122.852 112.543C123.032 112.823 123.122 113.128 123.122 113.456C123.122 113.784 123.032 114.088 122.852 114.369C122.677 114.65 122.439 114.872 122.137 115.036C121.84 115.2 121.515 115.282 121.16 115.282ZM129.946 129.116C129.025 129.116 128.194 128.878 127.453 128.402C126.717 127.92 126.132 127.208 125.698 126.265C125.269 125.318 125.054 124.177 125.054 122.843C125.054 121.471 125.274 120.317 125.714 119.38C126.158 118.438 126.749 117.736 127.485 117.276C128.226 116.81 129.041 116.577 129.93 116.577C130.825 116.577 131.558 116.791 132.13 117.22C132.702 117.649 133.12 118.181 133.385 118.816H133.464V112.67H137.252V128.934H133.504V126.964H133.385C133.11 127.584 132.683 128.097 132.106 128.505C131.535 128.912 130.815 129.116 129.946 129.116ZM128.938 122.835C128.938 123.502 129.028 124.084 129.208 124.582C129.388 125.079 129.65 125.466 129.994 125.741C130.338 126.011 130.754 126.146 131.241 126.146C131.717 126.146 132.13 126.011 132.48 125.741C132.829 125.471 133.094 125.087 133.274 124.59C133.459 124.087 133.552 123.502 133.552 122.835C133.552 122.157 133.459 121.572 133.274 121.08C133.094 120.582 132.829 120.201 132.48 119.936C132.136 119.671 131.723 119.539 131.241 119.539C130.754 119.539 130.335 119.674 129.986 119.944C129.642 120.214 129.38 120.598 129.2 121.095C129.025 121.588 128.938 122.168 128.938 122.835ZM145.37 129.164C144.11 129.164 143.017 128.912 142.09 128.409C141.169 127.901 140.46 127.176 139.962 126.234C139.47 125.291 139.224 124.174 139.224 122.882C139.224 121.633 139.47 120.532 139.962 119.579C140.46 118.626 141.164 117.887 142.074 117.363C142.985 116.839 144.044 116.577 145.251 116.577C146.4 116.577 147.416 116.818 148.301 117.299C149.19 117.776 149.884 118.483 150.381 119.42C150.879 120.352 151.128 121.477 151.128 122.795V123.764H142.964V123.843C142.964 124.357 143.065 124.809 143.266 125.201C143.467 125.588 143.753 125.887 144.123 126.099C144.499 126.31 144.939 126.416 145.442 126.416C145.955 126.416 146.397 126.313 146.768 126.106C147.138 125.9 147.401 125.617 147.554 125.257H151.08C150.927 126.051 150.598 126.742 150.095 127.329C149.598 127.912 148.946 128.364 148.142 128.687C147.337 129.005 146.413 129.164 145.37 129.164ZM147.594 121.532C147.588 121.109 147.488 120.73 147.292 120.397C147.101 120.058 146.834 119.796 146.49 119.61C146.146 119.42 145.759 119.324 145.33 119.324C144.891 119.324 144.494 119.422 144.139 119.618C143.79 119.809 143.509 120.074 143.297 120.412C143.091 120.746 142.98 121.119 142.964 121.532H147.594ZM158.748 129.164C157.493 129.164 156.403 128.902 155.476 128.378C154.555 127.854 153.845 127.118 153.348 126.17C152.855 125.222 152.609 124.124 152.609 122.874C152.609 121.625 152.855 120.526 153.348 119.579C153.845 118.626 154.555 117.887 155.476 117.363C156.403 116.839 157.493 116.577 158.748 116.577C160.003 116.577 161.091 116.839 162.012 117.363C162.938 117.887 163.648 118.626 164.14 119.579C164.633 120.526 164.879 121.625 164.879 122.874C164.879 124.124 164.633 125.222 164.14 126.17C163.648 127.118 162.938 127.854 162.012 128.378C161.091 128.902 160.003 129.164 158.748 129.164ZM156.469 122.85C156.469 123.533 156.556 124.134 156.731 124.653C156.911 125.172 157.173 125.577 157.517 125.868C157.866 126.154 158.285 126.297 158.772 126.297C159.243 126.297 159.645 126.154 159.979 125.868C160.318 125.577 160.574 125.172 160.749 124.653C160.929 124.134 161.019 123.533 161.019 122.85C161.019 122.168 160.929 121.567 160.749 121.048C160.574 120.524 160.318 120.119 159.979 119.833C159.645 119.542 159.243 119.396 158.772 119.396C158.285 119.396 157.866 119.542 157.517 119.833C157.173 120.119 156.911 120.524 156.731 121.048C156.556 121.567 156.469 122.168 156.469 122.85ZM73.8091 139.67H80.464C81.6658 139.67 82.7114 139.905 83.6008 140.376C84.4956 140.848 85.1812 141.507 85.6577 142.354C86.1394 143.201 86.3803 144.175 86.3803 145.276C86.3803 146.388 86.1368 147.365 85.6497 148.207C85.1627 149.043 84.4638 149.692 83.5532 150.152C82.6479 150.613 81.5811 150.843 80.3528 150.843H77.6368V155.934H73.8091V139.67ZM79.654 147.81C80.2416 147.81 80.7419 147.706 81.1549 147.5C81.5678 147.288 81.8802 146.994 82.092 146.618C82.3037 146.237 82.4096 145.79 82.4096 145.276C82.4096 144.498 82.1714 143.886 81.6949 143.442C81.2237 142.997 80.5434 142.775 79.654 142.775H77.6368V147.81H79.654ZM88.2795 143.736H91.9563V145.943H92.0834C92.3005 145.165 92.6605 144.575 93.1634 144.172C93.6664 143.77 94.2593 143.569 94.9423 143.569C95.2864 143.569 95.6464 143.611 96.0223 143.696V147.007C95.8529 146.949 95.6226 146.902 95.3314 146.865C95.0402 146.827 94.7702 146.809 94.5214 146.809C94.0555 146.809 93.6346 146.912 93.2587 147.119C92.8881 147.32 92.5969 147.608 92.3852 147.984C92.1734 148.355 92.0675 148.778 92.0675 149.255V155.934H88.2795V143.736ZM102.836 156.164C101.581 156.164 100.49 155.902 99.5637 155.378C98.6425 154.854 97.9331 154.118 97.4354 153.17C96.943 152.222 96.6968 151.124 96.6968 149.874C96.6968 148.625 96.943 147.526 97.4354 146.579C97.9331 145.626 98.6425 144.887 99.5637 144.363C100.49 143.839 101.581 143.577 102.836 143.577C104.09 143.577 105.178 143.839 106.099 144.363C107.026 144.887 107.735 145.626 108.228 146.579C108.72 147.526 108.966 148.625 108.966 149.874C108.966 151.124 108.72 152.222 108.228 153.17C107.735 154.118 107.026 154.854 106.099 155.378C105.178 155.902 104.09 156.164 102.836 156.164ZM100.556 149.85C100.556 150.533 100.644 151.134 100.818 151.653C100.998 152.172 101.261 152.577 101.605 152.868C101.954 153.154 102.372 153.297 102.859 153.297C103.331 153.297 103.733 153.154 104.066 152.868C104.405 152.577 104.662 152.172 104.837 151.653C105.017 151.134 105.107 150.533 105.107 149.85C105.107 149.168 105.017 148.567 104.837 148.048C104.662 147.524 104.405 147.119 104.066 146.833C103.733 146.542 103.331 146.396 102.859 146.396C102.372 146.396 101.954 146.542 101.605 146.833C101.261 147.119 100.998 147.524 100.818 148.048C100.644 148.567 100.556 149.168 100.556 149.85ZM115.381 156.116C114.46 156.116 113.629 155.878 112.888 155.402C112.152 154.92 111.567 154.208 111.133 153.265C110.704 152.318 110.49 151.177 110.49 149.843C110.49 148.471 110.709 147.317 111.149 146.38C111.593 145.438 112.184 144.736 112.92 144.276C113.661 143.81 114.476 143.577 115.366 143.577C116.26 143.577 116.994 143.791 117.565 144.22C118.137 144.649 118.555 145.181 118.82 145.816H118.9V139.67H122.688V155.934H118.939V153.964H118.82C118.545 154.584 118.119 155.097 117.542 155.505C116.97 155.912 116.25 156.116 115.381 156.116ZM114.373 149.835C114.373 150.502 114.463 151.084 114.643 151.582C114.823 152.079 115.085 152.466 115.429 152.741C115.773 153.011 116.189 153.146 116.676 153.146C117.152 153.146 117.565 153.011 117.915 152.741C118.264 152.471 118.529 152.087 118.709 151.59C118.894 151.087 118.987 150.502 118.987 149.835C118.987 149.157 118.894 148.572 118.709 148.08C118.529 147.582 118.264 147.201 117.915 146.936C117.571 146.671 117.158 146.539 116.676 146.539C116.189 146.539 115.771 146.674 115.421 146.944C115.077 147.214 114.815 147.598 114.635 148.095C114.46 148.588 114.373 149.168 114.373 149.835ZM132.997 143.736H136.777V155.934H133.164V153.678H133.037C132.762 154.425 132.298 155.015 131.647 155.449C130.996 155.878 130.22 156.092 129.32 156.092C128.494 156.092 127.764 155.904 127.128 155.529C126.498 155.147 126.009 154.613 125.659 153.924C125.31 153.231 125.135 152.426 125.135 151.51V143.736H128.923V150.78C128.923 151.224 129.003 151.611 129.161 151.939C129.32 152.262 129.548 152.511 129.844 152.686C130.141 152.86 130.49 152.948 130.893 152.948C131.284 152.948 131.639 152.86 131.957 152.686C132.28 152.506 132.534 152.246 132.719 151.907C132.905 151.563 132.997 151.153 132.997 150.676V143.736ZM144.879 156.164C143.619 156.164 142.526 155.902 141.6 155.378C140.678 154.848 139.972 154.11 139.479 153.162C138.987 152.209 138.741 151.113 138.741 149.874C138.741 148.63 138.987 147.534 139.479 146.587C139.977 145.634 140.686 144.895 141.607 144.371C142.534 143.841 143.622 143.577 144.871 143.577C145.973 143.577 146.941 143.781 147.778 144.188C148.62 144.591 149.274 145.162 149.739 145.904C150.211 146.639 150.462 147.497 150.494 148.477H146.952C146.873 147.852 146.656 147.362 146.301 147.007C145.946 146.647 145.488 146.467 144.927 146.467C144.456 146.467 144.046 146.597 143.696 146.857C143.347 147.116 143.077 147.5 142.886 148.008C142.695 148.511 142.6 149.12 142.6 149.835C142.6 150.555 142.695 151.169 142.886 151.677C143.077 152.185 143.347 152.572 143.696 152.836C144.046 153.096 144.456 153.226 144.927 153.226C145.478 153.226 145.933 153.051 146.293 152.701C146.653 152.352 146.873 151.857 146.952 151.216H150.494C150.457 152.206 150.205 153.075 149.739 153.821C149.279 154.562 148.633 155.139 147.802 155.552C146.971 155.96 145.996 156.164 144.879 156.164ZM159.244 146.531H157.036V152.114C157.036 152.495 157.128 152.762 157.314 152.916C157.499 153.064 157.774 153.138 158.14 153.138C158.457 153.138 158.881 153.117 159.41 153.075V155.973C158.807 156.063 158.177 156.108 157.52 156.108C156.144 156.108 155.085 155.814 154.344 155.227C153.602 154.639 153.237 153.747 153.248 152.551V146.531H151.62V143.736H153.248V140.813H157.036V143.736H159.244V146.531ZM161.205 143.736H164.993V155.934H161.205V143.736ZM163.103 142.282C162.748 142.282 162.42 142.2 162.118 142.036C161.822 141.872 161.583 141.65 161.403 141.369C161.229 141.088 161.141 140.784 161.141 140.456C161.141 140.128 161.229 139.823 161.403 139.543C161.583 139.262 161.822 139.04 162.118 138.875C162.42 138.711 162.748 138.629 163.103 138.629C163.457 138.629 163.783 138.711 164.08 138.875C164.381 139.04 164.62 139.262 164.794 139.543C164.974 139.823 165.064 140.128 165.064 140.456C165.064 140.784 164.974 141.088 164.794 141.369C164.62 141.65 164.381 141.872 164.08 142.036C163.783 142.2 163.457 142.282 163.103 142.282ZM173.088 156.164C171.833 156.164 170.743 155.902 169.816 155.378C168.895 154.854 168.186 154.118 167.688 153.17C167.196 152.222 166.95 151.124 166.95 149.874C166.95 148.625 167.196 147.526 167.688 146.579C168.186 145.626 168.895 144.887 169.816 144.363C170.743 143.839 171.833 143.577 173.088 143.577C174.343 143.577 175.431 143.839 176.352 144.363C177.279 144.887 177.988 145.626 178.48 146.579C178.973 147.526 179.219 148.625 179.219 149.874C179.219 151.124 178.973 152.222 178.48 153.17C177.988 154.118 177.279 154.854 176.352 155.378C175.431 155.902 174.343 156.164 173.088 156.164ZM170.809 149.85C170.809 150.533 170.896 151.134 171.071 151.653C171.251 152.172 171.513 152.577 171.857 152.868C172.207 153.154 172.625 153.297 173.112 153.297C173.583 153.297 173.986 153.154 174.319 152.868C174.658 152.577 174.915 152.172 175.089 151.653C175.269 151.134 175.359 150.533 175.359 149.85C175.359 149.168 175.269 148.567 175.089 148.048C174.915 147.524 174.658 147.119 174.319 146.833C173.986 146.542 173.583 146.396 173.112 146.396C172.625 146.396 172.207 146.542 171.857 146.833C171.513 147.119 171.251 147.524 171.071 148.048C170.896 148.567 170.809 149.168 170.809 149.85ZM184.959 155.934H181.171V143.736H184.776V145.959H184.912C185.182 145.218 185.642 144.636 186.293 144.212C186.945 143.789 187.717 143.577 188.612 143.577C189.454 143.577 190.195 143.767 190.836 144.149C191.476 144.524 191.969 145.059 192.313 145.753C192.662 146.446 192.837 147.248 192.837 148.159V155.934H189.049V148.89C189.054 148.201 188.88 147.664 188.525 147.277C188.17 146.886 187.68 146.69 187.056 146.69C186.637 146.69 186.269 146.78 185.952 146.96C185.639 147.14 185.396 147.402 185.221 147.746C185.047 148.085 184.959 148.49 184.959 148.961V155.934Z" fill="#1C46F5"/>
</svg>
