<svg width="267" height="266" viewBox="0 0 267 266" fill="none" xmlns="http://www.w3.org/2000/svg">
<circle cx="133.932" cy="132.99" r="132.99" fill="#FFF1D6"/>
<path d="M79.5496 125.728H83.7745L86.284 136.513H86.419L89.2461 125.728H92.7244L95.5675 136.536H95.6945L98.204 125.728H102.429L97.7117 141.992H94.011L91.0568 131.978H90.9297L87.9596 141.992H84.2589L79.5496 125.728ZM108.341 142.222C107.081 142.222 105.988 141.971 105.061 141.468C104.14 140.96 103.431 140.234 102.933 139.292C102.441 138.35 102.195 137.233 102.195 135.941C102.195 134.691 102.441 133.59 102.933 132.637C103.431 131.684 104.135 130.946 105.046 130.422C105.956 129.897 107.015 129.635 108.222 129.635C109.371 129.635 110.387 129.876 111.272 130.358C112.161 130.835 112.855 131.541 113.352 132.478C113.85 133.41 114.099 134.535 114.099 135.853V136.822H105.935V136.902C105.935 137.415 106.036 137.868 106.237 138.26C106.438 138.646 106.724 138.945 107.094 139.157C107.47 139.369 107.91 139.475 108.413 139.475C108.926 139.475 109.368 139.372 109.739 139.165C110.11 138.959 110.372 138.675 110.525 138.315H114.051C113.898 139.109 113.569 139.8 113.066 140.388C112.569 140.97 111.918 141.423 111.113 141.746C110.308 142.064 109.384 142.222 108.341 142.222ZM110.565 134.591C110.56 134.167 110.459 133.789 110.263 133.455C110.072 133.116 109.805 132.854 109.461 132.669C109.117 132.478 108.73 132.383 108.302 132.383C107.862 132.383 107.465 132.481 107.11 132.677C106.761 132.868 106.48 133.132 106.269 133.471C106.062 133.805 105.951 134.178 105.935 134.591H110.565ZM116.073 125.728H119.861V131.875H119.94C120.205 131.24 120.623 130.707 121.195 130.279C121.767 129.85 122.5 129.635 123.395 129.635C124.284 129.635 125.097 129.868 125.833 130.334C126.574 130.795 127.164 131.496 127.604 132.439C128.048 133.376 128.271 134.53 128.271 135.901C128.271 137.235 128.054 138.376 127.619 139.324C127.191 140.266 126.606 140.978 125.864 141.46C125.129 141.937 124.3 142.175 123.379 142.175C122.511 142.175 121.788 141.971 121.211 141.563C120.639 141.156 120.215 140.642 119.94 140.023H119.821V141.992H116.073V125.728ZM119.773 135.893C119.773 136.56 119.863 137.145 120.043 137.648C120.229 138.146 120.496 138.53 120.845 138.8C121.195 139.07 121.608 139.205 122.084 139.205C122.571 139.205 122.987 139.07 123.331 138.8C123.675 138.524 123.937 138.138 124.117 137.64C124.297 137.143 124.387 136.56 124.387 135.893C124.387 135.226 124.297 134.646 124.117 134.154C123.943 133.656 123.681 133.273 123.331 133.003C122.987 132.733 122.571 132.598 122.084 132.598C121.603 132.598 121.187 132.73 120.838 132.995C120.493 133.259 120.229 133.64 120.043 134.138C119.863 134.631 119.773 135.216 119.773 135.893ZM135.433 125.728H142.159C143.345 125.728 144.351 125.9 145.177 126.244C146.008 126.583 146.633 127.062 147.051 127.682C147.469 128.301 147.678 129.027 147.678 129.858C147.678 130.467 147.549 131.015 147.289 131.502C147.035 131.989 146.68 132.391 146.225 132.709C145.77 133.026 145.246 133.249 144.653 133.376V133.535C145.309 133.561 145.915 133.738 146.471 134.067C147.032 134.395 147.48 134.853 147.813 135.441C148.147 136.023 148.314 136.695 148.314 137.458C148.314 138.336 148.091 139.12 147.646 139.808C147.202 140.491 146.553 141.026 145.701 141.412C144.848 141.799 143.835 141.992 142.659 141.992H135.433V125.728ZM141.77 138.887C142.622 138.887 143.258 138.726 143.676 138.403C144.099 138.08 144.311 137.619 144.311 137.021C144.311 136.597 144.21 136.229 144.009 135.917C143.813 135.605 143.528 135.364 143.152 135.194C142.781 135.02 142.344 134.932 141.841 134.932H139.26V138.887H141.77ZM141.516 132.439C141.955 132.439 142.344 132.365 142.683 132.216C143.027 132.068 143.295 131.854 143.485 131.573C143.676 131.292 143.771 130.962 143.771 130.58C143.771 130.215 143.681 129.897 143.501 129.627C143.326 129.352 143.072 129.143 142.739 129C142.41 128.852 142.024 128.778 141.579 128.778H139.26V132.439H141.516ZM158.034 129.794H161.815V141.992H158.201V139.737H158.074C157.799 140.483 157.336 141.074 156.684 141.508C156.033 141.937 155.258 142.151 154.358 142.151C153.532 142.151 152.801 141.963 152.166 141.587C151.536 141.206 151.046 140.671 150.697 139.983C150.347 139.289 150.172 138.485 150.172 137.569V129.794H153.961V136.838C153.961 137.283 154.04 137.669 154.199 137.998C154.358 138.321 154.585 138.569 154.882 138.744C155.178 138.919 155.528 139.006 155.93 139.006C156.322 139.006 156.676 138.919 156.994 138.744C157.317 138.564 157.571 138.305 157.757 137.966C157.942 137.622 158.034 137.211 158.034 136.735V129.794ZM164.254 129.794H168.043V141.992H164.254V129.794ZM166.152 128.341C165.798 128.341 165.469 128.259 165.168 128.095C164.871 127.931 164.633 127.708 164.453 127.428C164.278 127.147 164.191 126.843 164.191 126.514C164.191 126.186 164.278 125.882 164.453 125.601C164.633 125.321 164.871 125.098 165.168 124.934C165.469 124.77 165.798 124.688 166.152 124.688C166.507 124.688 166.833 124.77 167.129 124.934C167.431 125.098 167.669 125.321 167.844 125.601C168.024 125.882 168.114 126.186 168.114 126.514C168.114 126.843 168.024 127.147 167.844 127.428C167.669 127.708 167.431 127.931 167.129 128.095C166.833 128.259 166.507 128.341 166.152 128.341ZM174.264 141.992H170.476V125.728H174.264V141.992ZM181.16 142.175C180.239 142.175 179.408 141.937 178.666 141.46C177.93 140.978 177.345 140.266 176.911 139.324C176.482 138.376 176.268 137.235 176.268 135.901C176.268 134.53 176.488 133.376 176.927 132.439C177.372 131.496 177.962 130.795 178.698 130.334C179.439 129.868 180.255 129.635 181.144 129.635C182.039 129.635 182.772 129.85 183.344 130.279C183.916 130.707 184.334 131.24 184.599 131.875H184.678V125.728H188.466V141.992H184.718V140.023H184.599C184.323 140.642 183.897 141.156 183.32 141.563C182.748 141.971 182.028 142.175 181.16 142.175ZM180.151 135.893C180.151 136.56 180.241 137.143 180.421 137.64C180.601 138.138 180.863 138.524 181.208 138.8C181.552 139.07 181.967 139.205 182.454 139.205C182.931 139.205 183.344 139.07 183.693 138.8C184.043 138.53 184.307 138.146 184.487 137.648C184.673 137.145 184.765 136.56 184.765 135.893C184.765 135.216 184.673 134.631 184.487 134.138C184.307 133.64 184.043 133.259 183.693 132.995C183.349 132.73 182.936 132.598 182.454 132.598C181.967 132.598 181.549 132.733 181.2 133.003C180.856 133.273 180.593 133.656 180.413 134.154C180.239 134.646 180.151 135.226 180.151 135.893Z" fill="#FF5900"/>
</svg>
