<svg width="267" height="267" viewBox="0 0 267 267" fill="none" xmlns="http://www.w3.org/2000/svg">
<circle cx="133.928" cy="133.897" r="132.99" fill="#DCEEFF"/>
<path d="M79.5496 126.634H83.7745L86.284 137.419H86.419L89.2461 126.634H92.7244L95.5675 137.443H95.6945L98.204 126.634H102.429L97.7117 142.898H94.011L91.0568 132.884H90.9297L87.9596 142.898H84.2589L79.5496 126.634ZM108.341 143.129C107.081 143.129 105.988 142.877 105.061 142.374C104.14 141.866 103.431 141.141 102.933 140.198C102.441 139.256 102.195 138.139 102.195 136.847C102.195 135.598 102.441 134.496 102.933 133.543C103.431 132.59 104.135 131.852 105.046 131.328C105.956 130.804 107.015 130.542 108.222 130.542C109.371 130.542 110.387 130.782 111.272 131.264C112.161 131.741 112.855 132.448 113.352 133.385C113.85 134.316 114.099 135.441 114.099 136.76V137.729H105.935V137.808C105.935 138.322 106.036 138.774 106.237 139.166C106.438 139.552 106.724 139.852 107.094 140.063C107.47 140.275 107.91 140.381 108.413 140.381C108.926 140.381 109.368 140.278 109.739 140.071C110.11 139.865 110.372 139.582 110.525 139.222H114.051C113.898 140.016 113.569 140.707 113.066 141.294C112.569 141.877 111.918 142.329 111.113 142.652C110.308 142.97 109.384 143.129 108.341 143.129ZM110.565 135.497C110.56 135.074 110.459 134.695 110.263 134.361C110.072 134.023 109.805 133.761 109.461 133.575C109.117 133.385 108.73 133.289 108.302 133.289C107.862 133.289 107.465 133.387 107.11 133.583C106.761 133.774 106.48 134.038 106.269 134.377C106.062 134.711 105.951 135.084 105.935 135.497H110.565ZM116.073 126.634H119.861V132.781H119.94C120.205 132.146 120.623 131.614 121.195 131.185C121.767 130.756 122.5 130.542 123.395 130.542C124.284 130.542 125.097 130.775 125.833 131.24C126.574 131.701 127.164 132.403 127.604 133.345C128.048 134.282 128.271 135.436 128.271 136.807C128.271 138.142 128.054 139.282 127.619 140.23C127.191 141.173 126.606 141.885 125.864 142.366C125.129 142.843 124.3 143.081 123.379 143.081C122.511 143.081 121.788 142.877 121.211 142.47C120.639 142.062 120.215 141.548 119.94 140.929H119.821V142.898H116.073V126.634ZM119.773 136.799C119.773 137.467 119.863 138.052 120.043 138.554C120.229 139.052 120.496 139.436 120.845 139.706C121.195 139.976 121.608 140.111 122.084 140.111C122.571 140.111 122.987 139.976 123.331 139.706C123.675 139.431 123.937 139.044 124.117 138.547C124.297 138.049 124.387 137.467 124.387 136.799C124.387 136.132 124.297 135.553 124.117 135.06C123.943 134.563 123.681 134.179 123.331 133.909C122.987 133.639 122.571 133.504 122.084 133.504C121.603 133.504 121.187 133.636 120.838 133.901C120.493 134.166 120.229 134.547 120.043 135.044C119.863 135.537 119.773 136.122 119.773 136.799ZM135.433 126.634H142.159C143.345 126.634 144.351 126.806 145.177 127.151C146.008 127.489 146.633 127.969 147.051 128.588C147.469 129.207 147.678 129.933 147.678 130.764C147.678 131.373 147.549 131.921 147.289 132.408C147.035 132.895 146.68 133.297 146.225 133.615C145.77 133.933 145.246 134.155 144.653 134.282V134.441C145.309 134.467 145.915 134.645 146.471 134.973C147.032 135.301 147.48 135.759 147.813 136.347C148.147 136.929 148.314 137.602 148.314 138.364C148.314 139.243 148.091 140.026 147.646 140.715C147.202 141.398 146.553 141.932 145.701 142.319C144.848 142.705 143.835 142.898 142.659 142.898H135.433V126.634ZM141.77 139.793C142.622 139.793 143.258 139.632 143.676 139.309C144.099 138.986 144.311 138.525 144.311 137.927C144.311 137.504 144.21 137.136 144.009 136.823C143.813 136.511 143.528 136.27 143.152 136.101C142.781 135.926 142.344 135.839 141.841 135.839H139.26V139.793H141.77ZM141.516 133.345C141.955 133.345 142.344 133.271 142.683 133.123C143.027 132.974 143.295 132.76 143.485 132.479C143.676 132.199 143.771 131.868 143.771 131.487C143.771 131.121 143.681 130.804 143.501 130.534C143.326 130.258 143.072 130.049 142.739 129.906C142.41 129.758 142.024 129.684 141.579 129.684H139.26V133.345H141.516ZM158.034 130.7H161.815V142.898H158.201V140.643H158.074C157.799 141.39 157.336 141.98 156.684 142.414C156.033 142.843 155.258 143.057 154.358 143.057C153.532 143.057 152.801 142.869 152.166 142.493C151.536 142.112 151.046 141.578 150.697 140.889C150.347 140.196 150.172 139.391 150.172 138.475V130.7H153.961V137.744C153.961 138.189 154.04 138.576 154.199 138.904C154.358 139.227 154.585 139.476 154.882 139.65C155.178 139.825 155.528 139.912 155.93 139.912C156.322 139.912 156.676 139.825 156.994 139.65C157.317 139.47 157.571 139.211 157.757 138.872C157.942 138.528 158.034 138.118 158.034 137.641V130.7ZM164.254 130.7H168.043V142.898H164.254V130.7ZM166.152 129.247C165.798 129.247 165.469 129.165 165.168 129.001C164.871 128.837 164.633 128.614 164.453 128.334C164.278 128.053 164.191 127.749 164.191 127.421C164.191 127.092 164.278 126.788 164.453 126.507C164.633 126.227 164.871 126.004 165.168 125.84C165.469 125.676 165.798 125.594 166.152 125.594C166.507 125.594 166.833 125.676 167.129 125.84C167.431 126.004 167.669 126.227 167.844 126.507C168.024 126.788 168.114 127.092 168.114 127.421C168.114 127.749 168.024 128.053 167.844 128.334C167.669 128.614 167.431 128.837 167.129 129.001C166.833 129.165 166.507 129.247 166.152 129.247ZM174.264 142.898H170.476V126.634H174.264V142.898ZM181.16 143.081C180.239 143.081 179.408 142.843 178.666 142.366C177.93 141.885 177.345 141.173 176.911 140.23C176.482 139.282 176.268 138.142 176.268 136.807C176.268 135.436 176.488 134.282 176.927 133.345C177.372 132.403 177.962 131.701 178.698 131.24C179.439 130.775 180.255 130.542 181.144 130.542C182.039 130.542 182.772 130.756 183.344 131.185C183.916 131.614 184.334 132.146 184.599 132.781H184.678V126.634H188.466V142.898H184.718V140.929H184.599C184.323 141.548 183.897 142.062 183.32 142.47C182.748 142.877 182.028 143.081 181.16 143.081ZM180.151 136.799C180.151 137.467 180.241 138.049 180.421 138.547C180.601 139.044 180.863 139.431 181.208 139.706C181.552 139.976 181.967 140.111 182.454 140.111C182.931 140.111 183.344 139.976 183.693 139.706C184.043 139.436 184.307 139.052 184.487 138.554C184.673 138.052 184.765 137.467 184.765 136.799C184.765 136.122 184.673 135.537 184.487 135.044C184.307 134.547 184.043 134.166 183.693 133.901C183.349 133.636 182.936 133.504 182.454 133.504C181.967 133.504 181.549 133.639 181.2 133.909C180.856 134.179 180.593 134.563 180.413 135.06C180.239 135.553 180.151 136.132 180.151 136.799Z" fill="#1C46F5"/>
</svg>
