<svg width="266" height="267" viewBox="0 0 266 267" fill="none" xmlns="http://www.w3.org/2000/svg">
<circle cx="132.99" cy="133.959" r="132.99" fill="#D2FF52"/>
<path d="M83.3214 142.961L78.6121 126.697H82.837L85.3465 137.481H85.4815L88.3086 126.697H91.7869L94.63 137.505H94.757L97.2665 126.697H101.491L96.7742 142.961H93.0735L90.1193 132.947H89.9922L87.0221 142.961H83.3214ZM107.404 143.191C103.592 143.191 101.257 140.809 101.257 136.91C101.257 133.137 103.624 130.604 107.285 130.604C110.699 130.604 113.161 132.78 113.161 136.822V137.791H104.997V137.87C104.997 139.427 105.943 140.444 107.475 140.444C108.516 140.444 109.286 139.999 109.588 139.284H113.114C112.661 141.659 110.572 143.191 107.404 143.191ZM104.997 135.56H109.627C109.611 134.273 108.674 133.352 107.364 133.352C106.03 133.352 105.053 134.305 104.997 135.56ZM115.135 142.961V126.697H118.923V132.844H119.003C119.463 131.748 120.512 130.604 122.457 130.604C125.03 130.604 127.333 132.589 127.333 136.87C127.333 141.007 125.149 143.144 122.441 143.144C120.575 143.144 119.495 142.095 119.003 140.991H118.884V142.961H115.135ZM118.836 136.862C118.836 138.871 119.694 140.174 121.147 140.174C122.624 140.174 123.45 138.863 123.45 136.862C123.45 134.869 122.632 133.566 121.147 133.566C119.686 133.566 118.836 134.829 118.836 136.862ZM134.495 142.961V126.697H141.221C144.859 126.697 146.741 128.365 146.741 130.826C146.741 132.693 145.478 133.971 143.715 134.345V134.503C145.661 134.583 147.376 136.06 147.376 138.426C147.376 141.047 145.335 142.961 141.722 142.961H134.495ZM138.323 139.856H140.832C142.579 139.856 143.374 139.157 143.374 137.99C143.374 136.719 142.429 135.901 140.904 135.901H138.323V139.856ZM138.323 133.407H140.578C141.889 133.407 142.834 132.717 142.834 131.549C142.834 130.445 141.992 129.746 140.642 129.746H138.323V133.407ZM157.097 137.704V130.763H160.877V142.961H157.264V140.706H157.137C156.597 142.183 155.247 143.12 153.42 143.12C150.919 143.12 149.243 141.309 149.235 138.538V130.763H153.023V137.807C153.023 139.149 153.777 139.975 154.992 139.975C156.152 139.975 157.105 139.173 157.097 137.704ZM163.317 142.961V130.763H167.105V142.961H163.317ZM163.253 127.483C163.253 126.475 164.135 125.657 165.215 125.657C166.295 125.657 167.176 126.475 167.176 127.483C167.176 128.492 166.295 129.31 165.215 129.31C164.135 129.31 163.253 128.492 163.253 127.483ZM173.326 126.697V142.961H169.538V126.697H173.326ZM180.222 143.144C177.514 143.144 175.331 141.007 175.331 136.87C175.331 132.589 177.634 130.604 180.207 130.604C182.152 130.604 183.2 131.748 183.661 132.844H183.741V126.697H187.529V142.961H183.78V140.991H183.661C183.169 142.095 182.089 143.144 180.222 143.144ZM179.214 136.862C179.214 138.863 180.04 140.174 181.517 140.174C182.97 140.174 183.828 138.871 183.828 136.862C183.828 134.829 182.978 133.566 181.517 133.566C180.032 133.566 179.214 134.869 179.214 136.862Z" fill="#2B2F34"/>
</svg>
