<svg width="107" height="40" viewBox="0 0 107 40" fill="none" xmlns="http://www.w3.org/2000/svg">
<path d="M0.523438 13.3799H4.02546L5.87005 16.7083L8.85077 13.3398H12.2727L6.93936 19.4084L5.93687 25.517H2.98292L4.0656 19.3415L0.523438 13.3799Z" fill="#9C9C9C"/>
<path d="M13.6341 13.3398L11.7227 25.5838L18.6599 25.5437L19.0074 23.0843H15.1846L15.5321 20.6649L19.3148 20.7317L19.7693 18.192H15.9598L16.3742 15.8795H20.3575L20.6649 13.3398H13.6341Z" fill="#9C9C9C"/>
<path d="M29.2392 16.0816C29.2392 16.0816 29.1991 15.3196 27.261 15.186C27.261 15.186 25.804 15.2261 25.5234 16.3623C25.5234 16.3623 25.0421 17.9262 27.8491 18.3406C27.8491 18.3406 30.1348 18.8218 30.1348 21.3615C30.1348 21.3615 29.961 23.5135 28.5041 24.5561C28.5041 24.5561 27.1541 25.7324 24.8016 25.7725C24.8016 25.7725 22.8901 26.08 20.6445 24.5962L22.2352 22.2036C22.2352 22.2036 23.4114 23.9012 25.149 23.5269C25.149 23.5269 26.7397 23.3531 27.0605 21.8694C27.0605 21.8694 27.4348 20.4792 24.6278 20.2787C24.6278 20.2787 22.2085 19.998 22.3021 17.2311C22.3021 17.2311 22.5426 14.9454 23.8659 14.1835C23.8659 14.1835 24.9085 13.1141 27.0872 13.074C27.0872 13.074 28.6511 12.8334 30.6962 14.0498L29.2392 16.135V16.0816Z" fill="#9C9C9C"/>
<path d="M42.4185 2.80484C42.4185 2.80484 43.0066 0.171575 44.6373 0.131475C44.6373 0.131475 46.816 -0.0556591 46.2279 2.76474C46.2279 2.76474 45.4393 5.1173 45.0784 6.44062C45.0784 6.44062 44.4368 8.51248 44.3566 8.73972C44.3566 8.73972 44.1962 9.54173 42.8595 9.515C42.8595 9.515 41.0952 9.51498 41.162 7.68373C41.3892 6.28021 41.4427 6.30694 41.6699 5.34453L42.4185 2.79146V2.80484Z" fill="#9C9C9C"/>
<path d="M50.842 2.81881C50.842 2.81881 51.4301 0.185553 53.0608 0.158819C53.0608 0.158819 55.2396 -0.0283351 54.6514 2.79207C54.6514 2.79207 53.8628 5.14463 53.5019 6.46795C53.5019 6.46795 52.8604 8.53981 52.7668 8.76704C52.7668 8.76704 52.6064 9.56907 51.2697 9.5557C51.2697 9.5557 49.5053 9.55569 49.5722 7.72443C49.8128 6.30755 49.8529 6.33428 50.0801 5.38523L50.8286 2.81881H50.842Z" fill="#9C9C9C"/>
<path d="M35.3885 17.5274H38.6098C38.6098 17.5274 38.3425 15.4556 40.3474 15.4556C40.3474 15.4556 41.7242 15.2952 41.7777 17.1933C41.7777 17.1933 41.7509 18.6502 40.3474 19.8532L37.6475 22.5533L34.0117 25.7748H43.8896L44.0768 23.3821H39.9598C39.9598 23.3821 42.1252 21.6043 42.9673 20.6152C42.9673 20.6152 44.8653 19.1314 44.7851 17.1264C44.7851 17.1264 44.8654 15.616 43.903 14.3996C43.903 14.3996 43.1411 13.0362 40.7084 13.0629C40.7084 13.0629 38.1955 13.0896 36.8989 14.7872C36.8989 14.7872 36.0301 15.8967 35.3885 17.514" fill="#9C9C9C"/>
<path d="M59.9062 24.4206C59.9062 24.4206 59.9063 22.2418 61.9246 22.2819C61.9246 22.2819 63.4618 22.2017 63.5688 23.8191C63.5688 23.8191 63.3148 25.8375 61.4836 25.8375C61.4836 25.8375 60.1335 25.9444 59.9062 24.4206Z" fill="#9C9C9C"/>
<path d="M75.0372 21.9112L74.4625 25.2796C74.4625 25.2796 73.1793 25.8677 71.4951 25.841C71.4951 25.841 68.7148 25.841 67.0975 23.8226C67.0975 23.8226 65.9079 22.2721 65.8945 20.4542C65.8945 20.4542 65.9747 17.0857 68.2203 15.1876C68.2203 15.1876 69.049 14.2653 70.3589 13.6505C70.3589 13.6505 71.6956 12.942 73.0991 12.9821C73.0991 12.9821 74.9169 12.9286 76.16 13.7841L75.7457 16.6714C75.7457 16.6714 74.8501 15.5218 72.9386 15.5218C72.9386 15.5218 71.2812 15.5084 69.8911 17.0991C69.8911 17.0991 68.6747 18.3556 68.7817 19.9462C68.7817 19.9462 68.6213 21.4433 69.704 22.3924C69.704 22.3924 70.2119 22.9404 71.8427 23.034C71.8427 23.034 74.3822 23.1275 75.0238 21.8978" fill="#9C9C9C"/>
<path d="M90.8164 25.5699L93.5967 25.5565L96.0562 18.2048L97.9542 25.5565H99.0636L103.421 18.1112V25.5699H106.228L106.255 13.3125H103.408L99.5582 20.143L97.8205 13.3259H95.1739L90.8164 25.5699Z" fill="#9C9C9C"/>
<path d="M28.7301 30.5591C28.7301 30.5591 27.6207 29.1288 29.5589 28.1263C29.5589 28.1263 30.8955 27.204 31.898 28.6744C31.898 28.6744 33.3683 31.2943 35.5871 33.1924C35.5871 33.1924 38.1669 35.4915 44.516 35.7187C44.516 35.7187 51.2795 36.2667 55.0087 32.8181C55.0087 32.8181 56.9335 31.3477 58.6845 28.3135C58.6845 28.3135 59.6469 27.2575 61.0237 28.2734C61.0237 28.2734 62.494 29.3293 61.1173 31.174C61.1173 31.174 59.4598 33.7538 56.3721 36.093C56.3721 36.093 52.4558 39.3144 44.5962 39.2743C44.5962 39.2743 39.4902 39.6886 34.6114 36.6945C34.6114 36.6945 31.1628 35.0905 28.7168 30.5725" fill="#9C9C9C"/>
<path d="M51.7239 21.0625L48.9704 21.0224L52.7799 16.0232L51.7239 21.0625ZM54.6378 21.0224L55.8275 13.6172H51.9512L45.5754 21.3833L45.2812 23.3215H51.2695L50.9888 25.8879H53.8492L54.1567 23.3215L55.8275 23.2814L56.1082 21.0224H54.6378Z" fill="#9C9C9C"/>
<path d="M86.2977 21.821C86.2977 21.821 85.0012 23.171 83.3036 23.171C83.3036 23.171 81.1918 23.3181 80.3229 21.4601C80.3229 21.4601 80.0556 21.0724 80.0155 19.709C80.0155 19.709 79.9486 18.4793 81.1383 17.0089C81.1383 17.0089 82.4883 15.3915 84.4131 15.4985C84.4131 15.4985 86.2844 15.5252 87.2602 16.9688C87.2602 16.9688 87.728 17.8243 87.7413 18.7333C87.7413 18.7333 87.9419 20.2437 86.2844 21.8343M90.7622 17.8778C90.6152 16.3807 89.8533 15.4316 89.8533 15.4316C88.7038 13.7207 86.9126 13.1994 86.9126 13.1994C84.8542 12.531 82.8759 13.1994 82.8759 13.1994C80.109 13.7073 77.917 16.9688 77.917 16.9688C76.8476 18.3456 76.8477 20.5244 76.8477 20.5244C76.8477 22.5428 78.3046 24.0532 78.3046 24.0532C79.6412 26.0716 82.916 25.8444 82.916 25.8444C85.4022 25.8177 87.1532 24.6013 87.1532 24.6013C88.4631 23.7592 89.7196 21.7541 89.7196 21.7541C91.0161 19.6288 90.7622 17.8778 90.7622 17.8778Z" fill="#9C9C9C"/>
</svg>
